# Blender 4.2.3 LTS
# www.blender.org
mtllib toast_top.mtl
o dynamic
v -63.730614 74.670509 -0.339339
v -63.771584 74.670799 -0.341250
v -63.956131 73.987717 -0.196420
v -63.914490 73.996635 -0.199185
v -64.022705 73.949814 -0.251216
v -64.007256 73.914749 -0.282146
v -63.938995 73.909546 -0.237250
v -63.954102 73.943993 -0.211066
v -62.741035 76.476196 -1.384965
v -62.752716 76.506165 -1.386144
v -63.135635 76.727524 -0.828254
v -63.118980 76.692764 -0.839007
v -63.195206 76.748474 -0.802999
v -63.217926 76.720039 -0.775670
v -63.178963 76.692169 -0.759746
v -63.159111 76.717438 -0.790429
v -64.022705 73.949814 -0.251216
v -64.025879 73.993134 -0.240531
v -64.099525 74.001419 -0.297271
v -64.096260 73.958122 -0.306832
v -64.096260 73.958122 -0.306832
v -64.080956 73.923782 -0.335492
v -62.227921 76.111427 -2.697595
v -62.132431 76.107796 -2.638892
v -61.740982 75.882935 -3.205300
v -61.839676 75.888374 -3.260964
v -63.261009 76.762947 -0.848014
v -63.284569 76.732040 -0.822661
v -63.261009 76.762947 -0.848014
v -63.233101 76.773949 -0.883922
v -63.306831 76.782455 -0.939538
v -63.335091 76.769836 -0.904021
v -63.335091 76.769836 -0.904021
v -63.357780 76.742462 -0.876885
v -63.954102 73.943993 -0.211066
v -63.913673 73.956314 -0.213616
v -62.336884 73.047318 -2.507342
v -62.312927 73.074287 -2.534722
v -62.314278 73.108650 -2.511945
v -62.336288 73.081757 -2.484809
v -61.597374 75.831833 -3.125545
v -61.617424 75.866180 -3.098075
v -61.603935 75.842186 -3.059728
v -61.584488 75.811737 -3.084796
v -61.894386 75.811752 -3.233094
v -61.965988 75.762352 -3.157977
v -61.909843 75.844444 -3.207955
v -63.879936 73.971008 -0.228793
v -63.884148 74.013359 -0.219857
v -62.353455 73.024330 -2.536845
v -62.330009 73.052361 -2.564322
v -63.549446 73.685753 -0.803220
v -63.514771 73.700310 -0.796191
v -63.898064 73.921257 -0.237670
v -62.780121 76.535561 -1.403672
v -63.167686 76.758720 -0.838840
v -63.159111 76.717438 -0.790429
v -63.144264 76.681786 -0.802991
v -62.735123 76.346230 -1.368321
v -63.094177 76.552956 -0.846835
v -62.060539 76.098160 -2.583808
v -62.004982 76.089310 -2.533252
v -61.669701 75.872887 -3.150414
v -61.650520 75.838600 -3.178006
v -61.652405 75.792961 -3.188003
v -61.723145 75.800476 -3.242814
v -61.726875 75.847893 -3.231513
v -61.650520 75.838600 -3.178006
v -61.726875 75.847893 -3.231513
v -63.773537 74.034546 -0.315639
v -61.894386 75.811752 -3.233094
v -61.891670 75.770279 -3.244306
v -61.826920 75.096458 -2.799972
v -61.772247 75.091339 -2.924340
v -61.591560 75.752228 -3.061774
v -61.657990 75.726044 -2.932834
v -62.333740 73.207817 -2.401361
v -62.361885 73.071312 -2.449437
v -63.195206 76.748474 -0.802999
v -61.607155 75.826447 -3.022849
v -61.591492 75.793915 -3.048972
v -62.646317 73.246178 -2.630271
v -62.623566 73.144386 -2.677642
v -62.649658 73.135078 -2.643424
v -61.597374 75.831833 -3.125545
v -61.585831 75.785019 -3.138814
v -63.914078 74.686684 -0.442174
v -63.997398 74.699738 -0.511945
v -64.182182 74.018372 -0.367879
v -62.737450 73.287926 -1.900563
v -62.748222 73.258461 -1.913213
v -62.364922 73.037491 -2.471728
v -63.913673 73.956314 -0.213616
v -63.864151 73.937706 -0.253951
v -63.488586 73.721115 -0.802825
v -63.413582 73.827888 -0.837068
v -61.584488 75.811737 -3.084796
v -61.578972 75.769272 -3.096396
v -63.166595 76.654434 -0.775628
v -62.414673 73.025352 -2.587155
v -62.440170 73.013008 -2.550130
v -62.515030 73.022621 -2.604465
v -62.488312 73.032433 -2.639997
v -62.390678 73.051163 -2.611669
v -62.414673 73.025352 -2.587155
v -62.488312 73.032433 -2.639997
v -62.466805 73.060936 -2.665833
v -62.842239 76.548653 -1.450553
v -62.915344 76.557564 -1.505988
v -62.579567 73.053413 -2.700974
v -62.555122 73.081451 -2.727777
v -63.420593 76.770164 -0.970431
v -63.443100 76.743782 -0.944194
v -61.824211 75.854202 -3.287421
v -61.866211 75.843544 -3.287553
v -61.881241 75.877350 -3.261134
v -62.599777 73.123161 -2.734599
v -62.596321 73.113319 -2.738353
v -62.618385 73.085098 -2.711740
v -62.622040 73.095200 -2.708282
v -61.762451 75.095535 -2.955974
v -64.179024 73.974693 -0.383254
v -64.192635 74.034042 -0.409799
v -64.189453 73.991234 -0.420733
v -61.888863 75.872261 -3.254445
v -61.874176 75.838669 -3.280877
v -63.026924 76.529816 -1.589301
v -63.020645 76.484406 -1.592290
v -63.390930 76.697731 -1.053735
v -63.406319 76.748985 -1.034259
v -63.417290 76.683746 -1.023360
v -63.433884 76.739868 -0.999835
v -62.336884 73.047318 -2.507342
v -62.353455 73.024330 -2.536845
v -62.380791 73.014351 -2.501105
v -64.085915 74.071915 -0.545325
v -64.142723 74.023453 -0.463859
v -64.148453 74.062828 -0.452647
v -61.870781 75.795990 -3.292212
v -61.891670 75.770279 -3.244306
v -61.894386 75.811752 -3.233094
v -61.874176 75.838669 -3.280877
v -64.185699 74.038612 -0.417224
v -64.183029 73.996071 -0.428287
v -64.163673 73.940582 -0.406781
v -64.179024 73.974693 -0.383254
v -64.189453 73.991234 -0.420733
v -64.171982 73.957451 -0.445651
v -64.008972 74.705994 -0.549489
v -64.003159 74.706940 -0.556262
v -62.601662 73.171616 -2.703013
v -62.623566 73.144386 -2.677642
v -63.726013 73.865479 -1.066562
v -63.760605 73.775146 -1.027869
v -64.130943 73.988510 -0.489352
v -64.142723 74.023453 -0.463859
v -63.020645 76.484406 -1.592290
v -63.041367 76.382797 -1.593060
v -63.399849 76.589615 -1.071424
v -63.390930 76.697731 -1.053735
v -63.417290 76.683746 -1.023360
v -62.263069 76.097786 -2.703368
v -61.820023 75.811066 -3.299232
v -61.824211 75.854202 -3.287421
v -63.786842 73.743324 -1.008386
v -63.790344 73.736931 -1.003404
v -64.166359 73.962578 -0.453584
v -63.436234 76.749931 -0.995379
v -63.457916 76.721840 -0.968608
v -64.183029 73.996071 -0.428287
v -64.148453 74.062828 -0.452647
v -64.142723 74.023453 -0.463859
v -63.616417 76.011887 -0.858937
v -63.638084 76.043625 -0.834281
v -63.455536 76.711998 -0.973317
v -63.439064 76.661591 -0.994386
v -62.623566 73.144386 -2.677642
v -62.601662 73.171616 -2.703013
v -62.648254 73.085548 -2.672750
v -63.027756 73.304817 -2.117967
v -63.019981 73.348442 -2.104903
v -62.649658 73.135078 -2.643424
v -64.142723 74.023453 -0.463859
v -64.130943 73.988510 -0.489352
v -61.894386 75.811752 -3.233094
v -61.909843 75.844444 -3.207955
v -62.608719 73.045631 -2.666320
v -62.579567 73.053413 -2.700974
v -61.862976 75.800659 -3.298995
v -61.866211 75.843544 -3.287553
v -63.433884 76.739868 -0.999835
v -63.417290 76.683746 -1.023360
v -63.417290 76.683746 -1.023360
v -63.439064 76.661591 -0.994386
v -62.645462 73.075371 -2.676730
v -62.618385 73.085098 -2.711740
v -62.623566 73.144386 -2.677642
v -62.622040 73.095200 -2.708282
v -63.420593 76.770164 -0.970431
v -63.392685 76.780579 -1.007533
v -63.408569 76.759171 -1.030028
v -63.436234 76.749931 -0.995379
v -63.571350 75.960182 -0.939923
v -63.616417 76.011887 -0.858937
v -62.831940 73.238449 -1.983132
v -62.906540 73.247925 -2.037240
v -63.774933 73.716858 -0.971646
v -63.689468 73.698517 -0.902745
v -62.412979 73.785126 -2.878533
v -62.371346 73.763855 -2.870633
v -62.268204 76.091454 -2.699388
v -63.914375 74.701347 -0.676866
v -63.554840 74.494797 -1.198184
v -62.069130 75.120590 -3.108985
v -62.136055 75.133316 -3.026055
v -61.909042 75.115585 -3.098594
v -62.003799 75.128662 -3.156352
v -63.840546 74.677826 -0.386079
v -63.641609 76.049873 -0.828893
v -63.627838 76.062431 -0.800096
v -62.417557 73.791382 -2.874015
v -62.280869 73.745834 -2.810075
v -62.206108 73.736626 -2.755771
v -62.053040 75.127808 -3.152806
v -62.069130 75.120590 -3.108985
v -63.263992 75.923378 -0.714011
v -62.855461 75.710747 -1.199277
v -63.362854 76.018311 -0.619615
v -63.345978 75.994133 -0.636682
v -62.143974 73.735481 -2.707936
v -62.129417 73.748039 -2.675153
v -61.771889 75.101868 -2.995191
v -61.836975 75.107521 -3.043910
v -63.469872 76.047295 -0.677167
v -63.402496 76.036980 -0.630887
v -62.770348 73.238152 -1.935138
v -63.615479 73.689301 -0.849145
v -63.223701 73.463860 -1.416142
v -63.159904 73.461945 -1.369189
v -62.496193 75.504021 -1.720777
v -62.136887 75.297264 -2.242259
v -62.017029 75.932755 -2.411326
v -62.376060 76.139481 -1.889836
v -63.195297 74.288277 -1.719529
v -62.835777 74.081749 -2.240853
v -63.006218 73.452599 -2.109033
v -63.366096 73.659019 -1.587810
v -63.027122 73.295898 -2.118930
v -62.997429 73.269325 -2.101443
v -63.386200 73.493118 -1.536551
v -63.408722 73.516411 -1.561181
v -63.026733 76.538681 -1.587802
v -62.644897 76.318245 -2.145589
v -62.647575 76.310623 -2.144355
v -63.297997 73.473213 -1.469981
v -63.407310 73.524078 -1.563178
v -63.760605 73.775146 -1.027869
v -63.390297 73.561790 -1.566396
v -63.004440 76.557533 -1.570901
v -62.616165 76.334480 -2.134227
v -62.280098 76.057785 -2.669410
v -62.324440 75.969162 -2.636331
v -62.682922 76.176010 -2.114692
v -62.650383 76.271103 -2.130837
v -63.019981 73.348442 -2.104903
v -63.390297 73.561790 -1.566396
v -62.280098 76.057785 -2.669410
v -62.650383 76.271103 -2.130837
v -62.451393 76.323418 -2.017154
v -62.523872 76.332634 -2.072423
v -62.693672 73.414513 -1.879926
v -63.053642 73.621216 -1.358502
v -63.113007 73.504509 -1.351724
v -63.131508 73.479378 -1.354703
v -62.392548 76.312447 -1.968488
v -61.985115 76.043015 -2.476865
v -62.363052 76.259598 -1.930926
v -61.986839 76.063507 -2.501868
v -62.369797 76.284843 -1.944022
v -62.853699 75.546753 -1.982978
v -62.494881 75.340034 -2.504508
v -62.665321 74.710899 -2.372685
v -63.024513 74.917496 -1.851258
v -62.834961 74.244850 -1.455110
v -62.475212 74.038155 -1.976554
v -62.306076 74.667725 -2.109414
v -62.665565 74.874451 -1.587937
v -63.587029 75.353889 -0.486039
v -63.655212 75.362572 -0.531600
v -61.957909 74.418678 -2.851563
v -62.021553 74.422066 -2.899835
v -63.704781 74.673615 -0.358783
v -63.603706 74.664177 -0.448430
v -63.433846 75.293770 -0.581208
v -63.525375 75.333855 -0.497739
v -61.945953 74.421776 -2.815541
v -63.546715 75.344414 -0.479472
v -63.194687 74.451561 -0.933656
v -63.025070 75.081146 -1.066466
v -62.424187 73.821289 -2.838325
v -62.246658 74.470932 -2.973620
v -62.235291 74.459587 -3.013415
v -62.094971 74.430710 -2.954312
v -62.046310 75.128838 -3.158834
v -62.229645 74.456985 -3.018664
v -63.825264 75.377953 -0.689183
v -63.812622 75.381081 -0.656030
v -63.543213 76.057182 -0.731980
v -63.728645 75.371925 -0.587092
v -62.187561 74.446243 -3.013490
v -62.424187 73.821289 -2.838325
v -62.476234 73.875198 -2.762204
v -62.306160 74.504272 -2.894124
v -62.246658 74.470932 -2.973620
v -63.212532 75.753471 -1.461453
v -63.383682 75.124107 -1.329789
v -63.742867 75.330742 -0.808377
v -63.971100 74.712494 -0.588073
v -63.793732 75.362213 -0.723516
v -63.971100 74.712494 -0.588073
v -63.820618 75.375328 -0.695281
v -63.793732 75.362213 -0.723516
v -62.133598 73.769554 -2.649417
v -61.952927 74.430443 -2.786870
v -62.164810 73.837364 -2.534221
v -61.995880 74.466911 -2.667085
vn -0.1348 0.9332 0.3333
vn -0.4392 0.5771 0.6886
vn -0.1410 0.5983 0.7888
vn -0.1410 0.5984 0.7887
vn 0.0367 0.9175 0.3960
vn -0.1346 0.9332 0.3333
vn 0.2210 0.1804 0.9585
vn 0.6496 0.0146 0.7601
vn 0.6720 0.3391 0.6583
vn 0.6720 0.3390 0.6584
vn 0.3119 0.5014 0.8070
vn 0.2212 0.1803 0.9584
vn -0.0317 0.9223 -0.3851
vn -0.3272 0.7798 -0.5337
vn -0.3485 0.8404 -0.4150
vn -0.3487 0.8402 -0.4153
vn -0.0048 0.9421 -0.3354
vn -0.0315 0.9223 -0.3852
vn -0.8094 0.5863 0.0341
vn -0.6587 0.5749 0.4854
vn -0.2596 0.9452 0.1981
vn -0.2595 0.9452 0.1982
vn -0.3338 0.9306 -0.1502
vn -0.8096 0.5860 0.0340
vn 0.2209 0.1808 0.9584
vn -0.2856 0.2975 0.9110
vn -0.3019 0.2227 0.9270
vn -0.3019 0.2224 0.9270
vn 0.1947 0.0903 0.9767
vn 0.2211 0.1806 0.9584
vn 0.6494 0.0152 0.7603
vn 0.2208 0.1806 0.9585
vn 0.1945 0.0901 0.9768
vn 0.1947 0.0901 0.9767
vn 0.6227 -0.0587 0.7802
vn 0.6493 0.0151 0.7604
vn -0.8424 -0.2282 -0.4882
vn -0.8107 0.0624 -0.5822
vn -0.6395 -0.0337 -0.7681
vn -0.6397 -0.0335 -0.7679
vn -0.6744 -0.3389 -0.6560
vn -0.8423 -0.2283 -0.4884
vn -0.9375 0.3209 0.1348
vn -0.7309 0.3480 0.5871
vn -0.6584 0.5751 0.4854
vn -0.6586 0.5751 0.4853
vn -0.8095 0.5862 0.0337
vn -0.9374 0.3212 0.1347
vn -0.9374 0.3214 0.1342
vn -0.9097 0.2170 -0.3541
vn -0.9345 0.1266 -0.3326
vn -0.9344 0.1266 -0.3329
vn -0.9617 0.2332 0.1439
vn -0.9373 0.3215 0.1343
vn -0.7310 0.3479 0.5871
vn -0.9374 0.3212 0.1343
vn -0.9618 0.2330 0.1436
vn -0.7575 0.2864 0.5866
vn -0.7308 0.3478 0.5873
vn -0.1406 0.5985 0.7887
vn 0.3120 0.5015 0.8070
vn 0.3407 0.8527 0.3960
vn 0.3406 0.8528 0.3959
vn 0.0362 0.9176 0.3959
vn -0.1409 0.5984 0.7887
vn 0.7163 0.6618 -0.2211
vn 0.6229 0.5953 -0.5076
vn 0.4392 0.8231 -0.3600
vn 0.4929 0.8390 -0.2306
vn 0.7161 0.6622 -0.2205
vn -0.1635 0.2464 -0.9553
vn -0.5350 0.3536 -0.7673
vn -0.2765 0.7107 -0.6469
vn -0.2765 0.7111 -0.6465
vn 0.0103 0.6800 -0.7331
vn -0.1636 0.2464 -0.9553
vn -0.2333 -0.9247 0.3009
vn -0.2667 -0.9506 0.1588
vn -0.1621 -0.9455 0.2825
vn 0.0362 0.9176 0.3958
vn 0.3411 0.8525 0.3960
vn 0.2914 0.9514 0.0994
vn 0.2914 0.9515 0.0987
vn 0.1482 0.9873 0.0571
vn 0.0367 0.9176 0.3959
vn 0.7158 0.6624 -0.2211
vn 0.9726 0.1390 -0.1863
vn 0.7992 0.0594 -0.5981
vn 0.7993 0.0593 -0.5980
vn 0.6228 0.5953 -0.5077
vn 0.7158 0.6624 -0.2212
vn 0.8427 0.2185 0.4921
vn 0.7285 0.6392 0.2463
vn 0.5990 0.7259 0.3379
vn 0.5989 0.7260 0.3379
vn 0.6718 0.3393 0.6584
vn 0.8427 0.2184 0.4921
vn -0.3274 0.7798 -0.5336
vn -0.6717 0.4027 -0.6218
vn -0.7722 0.4937 -0.3999
vn -0.7723 0.4937 -0.3997
vn -0.3482 0.8405 -0.4151
vn -0.3272 0.7797 -0.5338
vn -0.3485 0.8402 -0.4155
vn -0.3340 0.9305 -0.1506
vn 0.0643 0.9715 -0.2282
vn 0.0643 0.9715 -0.2283
vn -0.0041 0.9420 -0.3354
vn -0.3488 0.8402 -0.4153
vn 0.1342 0.9538 -0.2688
vn -0.0313 0.9224 -0.3850
vn -0.0043 0.9422 -0.3349
vn -0.0044 0.9422 -0.3350
vn 0.1268 0.9745 -0.1849
vn 0.1344 0.9537 -0.2691
vn 0.0644 0.9715 -0.2282
vn 0.1266 0.9746 -0.1846
vn -0.0044 0.9421 -0.3352
vn -0.7926 0.1283 -0.5961
vn -0.6688 0.4076 -0.6218
vn -0.5348 0.3541 -0.7672
vn -0.5348 0.3542 -0.7671
vn -0.6277 0.0570 -0.7764
vn -0.7926 0.1281 -0.5962
vn -0.1927 -0.1026 -0.9759
vn 0.3100 -0.2496 -0.9174
vn 0.2943 -0.3178 -0.9013
vn 0.2945 -0.3178 -0.9013
vn -0.2050 -0.2042 -0.9572
vn -0.1926 -0.1025 -0.9759
vn -0.6280 0.0572 -0.7761
vn -0.1921 -0.1022 -0.9760
vn -0.2051 -0.2038 -0.9573
vn -0.2050 -0.2038 -0.9573
vn -0.6397 -0.0334 -0.7679
vn -0.6278 0.0569 -0.7763
vn -0.1637 0.2465 -0.9552
vn -0.1924 -0.1021 -0.9760
vn -0.6278 0.0567 -0.7763
vn -0.6281 0.0572 -0.7760
vn -0.5347 0.3540 -0.7673
vn -0.1635 0.2465 -0.9553
vn 0.2915 0.9515 0.0989
vn 0.2746 0.9596 -0.0617
vn 0.1478 0.9873 0.0575
vn -0.2665 -0.9507 0.1586
vn -0.2336 -0.9246 0.3010
vn -0.3170 -0.8936 0.3177
vn 0.3217 0.8918 -0.3180
vn 0.4020 0.8156 -0.4163
vn 0.3647 0.8192 -0.4426
vn 0.3647 0.8193 -0.4424
vn 0.2410 0.9185 -0.3134
vn 0.3215 0.8920 -0.3178
vn 0.4166 0.8813 -0.2232
vn 0.5268 0.8474 -0.0665
vn 0.4930 0.8390 -0.2303
vn -0.7719 0.4940 -0.4002
vn -0.8095 0.5862 0.0335
vn -0.3336 0.9307 -0.1503
vn -0.3337 0.9306 -0.1503
vn -0.3487 0.8404 -0.4149
vn -0.7724 0.4937 -0.3997
vn 0.0098 0.6798 -0.7333
vn -0.2762 0.7111 -0.6466
vn -0.0606 0.8825 -0.4664
vn -0.0605 0.8828 -0.4657
vn 0.1758 0.8592 -0.4805
vn 0.0102 0.6799 -0.7332
vn 0.4163 0.8814 -0.2234
vn 0.4928 0.8390 -0.2307
vn 0.4389 0.8233 -0.3599
vn 0.1755 0.8591 -0.4808
vn 0.2410 0.9184 -0.3137
vn 0.3648 0.8190 -0.4429
vn -0.2534 -0.9472 0.1966
vn -0.3687 -0.9043 0.2154
vn -0.3725 -0.9175 0.1396
vn -0.1924 -0.1022 -0.9760
vn -0.1638 0.2464 -0.9552
vn 0.3199 0.1021 -0.9419
vn 0.3202 0.1022 -0.9418
vn 0.3102 -0.2495 -0.9173
vn -0.1926 -0.1026 -0.9759
vn -0.9373 0.3215 0.1348
vn -0.8096 0.5861 0.0341
vn -0.7720 0.4940 -0.3999
vn -0.7721 0.4940 -0.3998
vn -0.9098 0.2167 -0.3540
vn -0.9373 0.3216 0.1344
vn -0.3021 0.2228 0.9269
vn -0.5483 0.2774 0.7889
vn -0.5936 -0.0014 0.8048
vn -0.5928 -0.0013 0.8053
vn -0.3479 -0.0746 0.9345
vn -0.3022 0.2226 0.9269
vn 0.5229 0.8522 0.0207
vn 0.7112 0.6664 0.2239
vn 0.7395 0.6688 0.0766
vn 0.7396 0.6686 0.0767
vn 0.5271 0.8473 -0.0660
vn 0.5228 0.8522 0.0205
vn 0.3413 0.8525 0.3959
vn 0.5989 0.7258 0.3385
vn 0.4645 0.8827 0.0717
vn 0.4648 0.8825 0.0716
vn 0.2915 0.9514 0.0992
vn 0.3408 0.8527 0.3960
vn 0.5258 0.8503 0.0231
vn 0.3672 0.9249 -0.0984
vn 0.2747 0.9596 -0.0613
vn 0.2750 0.9595 -0.0611
vn 0.4647 0.8826 0.0714
vn 0.5257 0.8504 0.0235
vn 0.2749 0.9595 -0.0612
vn 0.2915 0.9515 0.0988
vn 0.4648 0.8825 0.0715
vn -0.1639 0.2468 -0.9551
vn 0.0102 0.6800 -0.7331
vn 0.3727 0.5956 -0.7116
vn 0.3729 0.5954 -0.7117
vn 0.3203 0.1019 -0.9418
vn -0.1634 0.2464 -0.9553
vn 0.1269 0.9745 -0.1850
vn 0.0643 0.9716 -0.2277
vn 0.1303 0.9848 -0.1144
vn 0.9618 -0.2371 -0.1371
vn 0.9331 -0.1311 0.3347
vn 0.9036 -0.2224 0.3662
vn 0.9035 -0.2225 0.3662
vn 0.9367 -0.3326 -0.1092
vn 0.9617 -0.2374 -0.1371
vn 0.7603 -0.2885 -0.5820
vn 0.9618 -0.2370 -0.1371
vn 0.9362 -0.3354 -0.1052
vn 0.9368 -0.3322 -0.1095
vn 0.7344 -0.3654 -0.5720
vn 0.7602 -0.2888 -0.5819
vn 0.9727 0.1385 -0.1863
vn 0.9618 -0.2370 -0.1369
vn 0.7602 -0.2887 -0.5820
vn 0.7604 -0.2887 -0.5818
vn 0.7990 0.0594 -0.5984
vn 0.9728 0.1384 -0.1859
vn -0.9099 0.2166 -0.3537
vn -0.7841 0.1274 -0.6075
vn -0.8126 0.0545 -0.5803
vn -0.9343 0.1271 -0.3331
vn -0.3339 0.9305 -0.1508
vn -0.2595 0.9451 0.1987
vn 0.1301 0.9849 -0.1143
vn 0.1299 0.9850 -0.1139
vn 0.0646 0.9715 -0.2280
vn -0.3339 0.9305 -0.1507
vn 0.9367 -0.3327 -0.1091
vn 0.7985 -0.6008 -0.0368
vn 0.6273 -0.6108 -0.4832
vn 0.6271 -0.6108 -0.4834
vn 0.7345 -0.3654 -0.5719
vn 0.9368 -0.3323 -0.1095
vn 0.2213 0.1806 0.9583
vn 0.3119 0.5010 0.8073
vn -0.1412 0.5984 0.7886
vn -0.1411 0.5985 0.7886
vn -0.2857 0.2975 0.9109
vn -0.9618 0.2331 0.1436
vn -0.9718 -0.1371 0.1921
vn -0.7991 -0.0611 0.5980
vn -0.7994 -0.0609 0.5978
vn -0.7575 0.2864 0.5867
vn -0.9618 0.2330 0.1435
vn -0.2894 -0.5035 -0.8141
vn -0.3297 -0.8812 -0.3389
vn -0.5846 -0.7707 -0.2536
vn -0.5844 -0.7709 -0.2535
vn -0.6745 -0.3385 -0.6561
vn -0.2890 -0.5037 -0.8141
vn -0.2633 -0.9471 0.1837
vn 0.2137 -0.9566 -0.1981
vn 0.3004 -0.9479 0.1056
vn 0.3003 -0.9480 0.1054
vn -0.2668 -0.9414 0.2062
vn -0.2633 -0.9470 0.1838
vn 0.4019 0.8155 -0.4164
vn 0.5313 0.5657 -0.6307
vn 0.3725 0.5956 -0.7117
vn 0.3726 0.5954 -0.7118
vn 0.3647 0.8194 -0.4423
vn 0.4021 0.8156 -0.4161
vn 0.0942 -0.2478 0.9642
vn -0.3477 -0.0749 0.9346
vn -0.3948 -0.6915 0.6050
vn -0.3949 -0.6914 0.6050
vn -0.1183 -0.7827 0.6111
vn 0.0942 -0.2474 0.9643
vn -0.2672 -0.9396 0.2139
vn -0.5849 -0.7705 -0.2534
vn -0.3296 -0.8812 -0.3389
vn -0.3297 -0.8812 -0.3387
vn -0.2595 -0.9435 0.2062
vn -0.2672 -0.9396 0.2137
vn -0.1988 -0.9498 0.2417
vn -0.2095 -0.9497 0.2330
vn -0.2126 -0.9543 0.2101
vn -0.2126 -0.9542 0.2104
vn -0.2115 -0.9567 0.2002
vn -0.1986 -0.9498 0.2417
vn -0.2116 -0.9566 0.2003
vn -0.2126 -0.9543 0.2099
vn -0.2351 -0.9525 0.1934
vn -0.2355 -0.9524 0.1936
vn -0.2119 -0.9581 0.1927
vn -0.2114 -0.9567 0.2001
vn 0.3729 0.5955 -0.7115
vn 0.0104 0.6800 -0.7332
vn 0.1754 0.8594 -0.4802
vn 0.1759 0.8590 -0.4808
vn 0.3647 0.8193 -0.4425
vn 0.3726 0.5955 -0.7118
vn 0.3122 0.5011 0.8071
vn 0.5989 0.7259 0.3381
vn 0.5991 0.7259 0.3379
vn 0.3409 0.8525 0.3962
vn 0.3119 0.5011 0.8072
vn 0.7397 0.6686 0.0768
vn 0.7159 0.6624 -0.2207
vn 0.4934 0.8388 -0.2301
vn 0.4933 0.8390 -0.2298
vn 0.5269 0.8473 -0.0668
vn 0.7398 0.6684 0.0765
vn 0.2403 0.9185 -0.3139
vn 0.1760 0.8592 -0.4804
vn -0.0606 0.8824 -0.4667
vn 0.9617 -0.2373 -0.1374
vn 0.9727 0.1389 -0.1858
vn 0.9500 0.2044 0.2362
vn 0.9501 0.2040 0.2361
vn 0.9332 -0.1315 0.3344
vn 0.9617 -0.2373 -0.1373
vn -0.2545 -0.9404 0.2254
vn -0.2632 -0.9518 0.1576
vn -0.2175 -0.9660 0.1398
vn -0.2383 -0.9505 0.1994
vn -0.3167 -0.8935 0.3183
vn -0.2329 -0.9247 0.3010
vn -0.2328 -0.9248 0.3009
vn -0.2593 -0.9434 0.2067
vn -0.2384 -0.9505 0.1993
vn -0.1178 -0.7825 0.6114
vn -0.3952 -0.6911 0.6052
vn -0.2251 -0.9682 0.1094
vn -0.2252 -0.9681 0.1095
vn -0.2486 -0.9588 0.1376
vn -0.1179 -0.7825 0.6113
vn 0.4897 -0.3470 0.7999
vn -0.1182 -0.7827 0.6110
vn -0.1183 -0.7826 0.6111
vn 0.1457 -0.8292 0.5397
vn 0.4897 -0.3472 0.7998
vn -0.4690 -0.7131 0.5212
vn -0.1961 -0.9746 0.1077
vn -0.2251 -0.9682 0.1095
vn -0.2250 -0.9682 0.1096
vn -0.3950 -0.6914 0.6049
vn -0.4689 -0.7130 0.5213
vn -0.2048 -0.2040 -0.9573
vn -0.2896 -0.5040 -0.8137
vn -0.6743 -0.3385 -0.6562
vn -0.6746 -0.3384 -0.6560
vn -0.6394 -0.0337 -0.7681
vn -0.2050 -0.2037 -0.9573
vn -0.2533 -0.9473 0.1963
vn -0.3560 -0.8858 0.2977
vn -0.3690 -0.9041 0.2154
vn -0.2425 -0.9478 0.2071
vn -0.3080 -0.9379 0.1597
vn -0.3096 -0.9369 0.1622
vn -0.3099 -0.9369 0.1621
vn -0.2546 -0.9404 0.2256
vn -0.2424 -0.9478 0.2071
vn -0.2549 -0.9403 0.2255
vn -0.3099 -0.9368 0.1623
vn -0.2632 -0.9518 0.1575
vn -0.2100 -0.9497 0.2325
vn -0.2867 -0.9417 0.1760
vn -0.2930 -0.9349 0.2003
vn -0.2928 -0.9350 0.2003
vn -0.2130 -0.9542 0.2101
vn -0.2100 -0.9496 0.2326
vn -0.2930 -0.9349 0.2005
vn -0.2358 -0.9525 0.1929
vn -0.2128 -0.9543 0.2098
vn -0.6458 -0.7497 -0.1449
vn -0.8423 -0.2279 -0.4884
vn -0.6746 -0.3386 -0.6560
vn -0.6744 -0.3387 -0.6560
vn -0.5846 -0.7708 -0.2532
vn -0.6455 -0.7499 -0.1451
vn -0.2052 -0.2043 -0.9572
vn 0.2944 -0.3178 -0.9013
vn 0.1630 -0.5860 -0.7938
vn 0.1630 -0.5860 -0.7937
vn -0.2889 -0.5040 -0.8139
vn -0.2054 -0.2040 -0.9572
vn -0.2835 -0.9419 0.1804
vn 0.1941 -0.8581 0.4753
vn 0.1461 -0.8290 0.5398
vn 0.1460 -0.8292 0.5396
vn -0.2503 -0.9516 0.1785
vn -0.2834 -0.9419 0.1803
vn -0.9716 -0.1376 0.1925
vn -0.6259 -0.7457 0.2285
vn -0.5490 -0.6796 0.4866
vn -0.5491 -0.6796 0.4863
vn -0.7994 -0.0614 0.5976
vn -0.9716 -0.1378 0.1922
vn 0.1459 -0.8293 0.5394
vn -0.1180 -0.7826 0.6113
vn -0.2487 -0.9587 0.1381
vn -0.2485 -0.9588 0.1378
vn -0.2502 -0.9516 0.1783
vn 0.1460 -0.8291 0.5398
vn -0.2254 -0.9681 0.1094
vn -0.2177 -0.9660 0.1396
vn -0.2631 -0.9519 0.1571
vn -0.2634 -0.9519 0.1568
vn -0.2489 -0.9587 0.1378
vn -0.2362 -0.9576 0.1652
vn -0.2103 -0.9693 0.1277
vn -0.2166 -0.9590 0.1825
vn -0.2169 -0.9590 0.1827
vn -0.2235 -0.9584 0.1773
vn -0.2361 -0.9575 0.1655
vn 0.1945 0.0905 0.9767
vn -0.3020 0.2226 0.9269
vn -0.3479 -0.0746 0.9346
vn -0.3477 -0.0746 0.9346
vn 0.0943 -0.2479 0.9642
vn 0.1944 0.0906 0.9767
vn -0.2634 -0.9471 0.1833
vn -0.2671 -0.9414 0.2061
vn -0.3689 -0.9042 0.2154
vn -0.3692 -0.9041 0.2152
vn -0.3563 -0.8858 0.2973
vn -0.2635 -0.9470 0.1835
vn -0.2859 -0.9366 0.2024
vn -0.3142 -0.9364 0.1566
vn -0.3437 -0.9297 0.1324
vn -0.3435 -0.9298 0.1323
vn -0.3730 -0.9173 0.1396
vn -0.2856 -0.9367 0.2025
vn -0.2487 -0.9588 0.1376
vn -0.2639 -0.9516 0.1573
vn -0.3102 -0.9369 0.1615
vn -0.3096 -0.9370 0.1618
vn -0.2506 -0.9516 0.1782
vn -0.2491 -0.9586 0.1377
vn -0.2671 -0.9396 0.2142
vn -0.2593 -0.9435 0.2063
vn -0.2331 -0.9247 0.3011
vn -0.2329 -0.9248 0.3010
vn -0.1618 -0.9456 0.2823
vn -0.2672 -0.9395 0.2143
vn 0.9367 -0.3327 -0.1092
vn 0.9034 -0.2224 0.3666
vn 0.7786 -0.4843 0.3990
vn 0.7782 -0.4845 0.3996
vn 0.7985 -0.6008 -0.0369
vn 0.9367 -0.3327 -0.1089
vn 0.1628 -0.5860 -0.7938
vn -0.0153 -0.9328 -0.3600
vn -0.3294 -0.8813 -0.3387
vn -0.3293 -0.8814 -0.3387
vn -0.2892 -0.5041 -0.8138
vn -0.5489 -0.6795 0.4868
vn -0.6260 -0.7458 0.2280
vn -0.2119 -0.9582 0.1925
vn -0.2118 -0.9582 0.1922
vn -0.2168 -0.9589 0.1829
vn -0.5491 -0.6792 0.4870
vn -0.2119 -0.9581 0.1928
vn -0.2351 -0.9525 0.1935
vn -0.2229 -0.9586 0.1773
vn -0.2235 -0.9583 0.1779
vn -0.2164 -0.9591 0.1827
vn -0.2116 -0.9582 0.1925
vn -0.2357 -0.9524 0.1934
vn -0.2924 -0.9351 0.2004
vn -0.2235 -0.9585 0.1772
vn 0.1942 0.0906 0.9768
vn 0.0940 -0.2475 0.9643
vn 0.4894 -0.3474 0.7999
vn 0.4895 -0.3476 0.7998
vn 0.6226 -0.0584 0.7803
vn 0.7785 -0.4842 0.3993
vn 0.3066 -0.8665 0.3940
vn 0.3003 -0.9480 0.1055
vn 0.3005 -0.9479 0.1054
vn 0.7987 -0.6006 -0.0372
vn 0.7787 -0.4842 0.3989
vn -0.2592 -0.9436 0.2061
vn -0.3293 -0.8812 -0.3393
vn -0.0153 -0.9328 -0.3602
vn -0.0153 -0.9328 -0.3601
vn -0.2389 -0.9503 0.1995
vn -0.2599 -0.9433 0.2064
vn -0.2862 -0.9366 0.2024
vn -0.3691 -0.9042 0.2150
vn -0.3693 -0.9041 0.2150
vn -0.2671 -0.9414 0.2058
vn -0.2859 -0.9367 0.2021
vn -0.9717 -0.1371 0.1924
vn -0.9476 -0.2153 -0.2360
vn -0.6338 -0.7733 -0.0191
vn -0.6336 -0.7734 -0.0193
vn -0.6258 -0.7458 0.2283
vn -0.9717 -0.1372 0.1923
vn 0.3005 -0.9479 0.1055
vn 0.3070 -0.8663 0.3941
vn 0.3065 -0.8664 0.3941
vn -0.2856 -0.9367 0.2027
vn -0.2665 -0.9416 0.2058
vn -0.2926 -0.9350 0.2005
vn -0.2746 -0.9356 0.2221
vn -0.2363 -0.9574 0.1657
vn -0.2363 -0.9575 0.1655
vn -0.2232 -0.9586 0.1771
vn -0.2928 -0.9348 0.2008
vn 0.8111 -0.0606 0.5818
vn 0.7900 -0.1372 0.5976
vn 0.9036 -0.2223 0.3662
vn 0.9035 -0.2222 0.3665
vn 0.9331 -0.1319 0.3345
vn 0.8110 -0.0605 0.5819
vn 0.6761 -0.3953 0.6218
vn 0.7908 -0.1346 0.5971
vn 0.6224 -0.0589 0.7805
vn 0.6227 -0.0589 0.7802
vn 0.4895 -0.3475 0.7998
vn 0.1064 -0.9483 -0.2988
vn 0.4424 -0.5681 -0.6939
vn 0.6273 -0.6109 -0.4830
vn 0.6276 -0.6107 -0.4829
vn 0.2139 -0.9564 -0.1987
vn 0.1062 -0.9484 -0.2989
vn -0.2028 -0.9495 0.2393
vn -0.6459 -0.7494 -0.1454
vn -0.5848 -0.7706 -0.2531
vn -0.5846 -0.7707 -0.2537
vn -0.2672 -0.9396 0.2140
vn -0.2028 -0.9496 0.2389
vn -0.6259 -0.7458 0.2280
vn -0.6339 -0.7731 -0.0194
vn -0.2118 -0.9566 0.2003
vn -0.2117 -0.9566 0.2001
vn -0.2121 -0.9581 0.1926
vn -0.6261 -0.7456 0.2284
vn 0.1938 -0.8581 0.4755
vn 0.6762 -0.3951 0.6218
vn 0.4896 -0.3474 0.7998
vn 0.4895 -0.3472 0.7999
vn 0.1456 -0.8295 0.5392
vn 0.1938 -0.8584 0.4751
vn -0.2722 -0.9370 0.2187
vn -0.2573 -0.9459 0.1978
vn -0.2426 -0.9478 0.2071
vn -0.2426 -0.9478 0.2070
vn -0.2548 -0.9403 0.2254
vn -0.2724 -0.9370 0.2189
vn -0.3261 -0.8970 0.2983
vn -0.2415 -0.9543 0.1763
vn -0.2661 -0.9508 0.1586
vn -0.2662 -0.9508 0.1587
vn -0.3170 -0.8937 0.3175
vn -0.3260 -0.8972 0.2980
vn 0.5290 -0.3440 -0.7758
vn 0.4339 -0.5848 -0.6854
vn 0.1630 -0.5859 -0.7938
vn 0.1628 -0.5857 -0.7940
vn 0.2948 -0.3176 -0.9012
vn -0.5354 0.3264 0.7789
vn -0.5483 0.2773 0.7889
vn -0.3022 0.2227 0.9269
vn -0.3023 0.2227 0.9269
vn -0.2860 0.2973 0.9109
vn -0.5354 0.3264 0.7790
vn -0.5494 -0.6795 0.4862
vn -0.4720 -0.7068 0.5268
vn -0.5940 -0.0214 0.8042
vn -0.5940 -0.0215 0.8042
vn -0.7994 -0.0610 0.5976
vn -0.5493 -0.6794 0.4865
vn -0.2853 -0.9287 0.2371
vn 0.1066 -0.9484 -0.2986
vn 0.2138 -0.9565 -0.1986
vn 0.2141 -0.9564 -0.1985
vn -0.2632 -0.9472 0.1834
vn -0.2855 -0.9286 0.2368
vn 0.5295 -0.3426 -0.7761
vn 0.5437 -0.2911 -0.7872
vn 0.7599 -0.2890 -0.5822
vn 0.7600 -0.2888 -0.5822
vn 0.7341 -0.3654 -0.5723
vn 0.5295 -0.3425 -0.7761
vn -0.2870 -0.9274 0.2398
vn -0.3256 -0.8973 0.2982
vn -0.3168 -0.8937 0.3178
vn -0.3167 -0.8937 0.3177
vn -0.2398 -0.9493 0.2032
vn -0.2870 -0.9275 0.2396
vn 0.6275 -0.6106 -0.4832
vn 0.7985 -0.6009 -0.0368
vn 0.3005 -0.9480 0.1053
vn 0.2142 -0.9565 -0.1981
vn 0.6275 -0.6106 -0.4831
vn 0.1685 0.9811 -0.0952
vn 0.2076 0.9592 -0.1921
vn 0.1344 0.9538 -0.2687
vn 0.1346 0.9537 -0.2688
vn 0.1270 0.9746 -0.1845
vn 0.1685 0.9811 -0.0950
vn -0.9617 0.2333 0.1435
vn -0.9476 -0.2153 -0.2361
vn -0.9477 -0.2152 -0.2358
vn -0.9716 -0.1377 0.1926
vn -0.9617 0.2334 0.1436
vn -0.2596 0.9451 0.1985
vn -0.1277 0.9374 0.3241
vn 0.1422 0.9892 -0.0360
vn 0.1421 0.9892 -0.0360
vn 0.1305 0.9849 -0.1140
vn -0.2595 0.9450 0.1990
vn 0.7991 0.0592 -0.5983
vn 0.5935 0.0212 -0.8045
vn 0.5261 0.5811 -0.6209
vn 0.5261 0.5811 -0.6210
vn 0.6231 0.5954 -0.5073
vn 0.1420 0.9892 -0.0359
vn 0.1687 0.9810 -0.0953
vn 0.1271 0.9746 -0.1844
vn 0.1272 0.9745 -0.1847
vn 0.1304 0.9849 -0.1142
vn 0.1422 0.9892 -0.0359
vn 0.3199 0.1017 -0.9420
vn 0.5934 0.0153 -0.8048
vn 0.5430 -0.2946 -0.7863
vn 0.5429 -0.2947 -0.7864
vn 0.3104 -0.2497 -0.9172
vn 0.3199 0.1018 -0.9420
vn -0.5352 0.3270 0.7789
vn -0.4660 0.5196 0.7162
vn -0.6585 0.5749 0.4856
vn -0.6586 0.5750 0.4855
vn -0.7308 0.3478 0.5874
vn -0.5352 0.3271 0.7788
vn 0.8420 0.2348 0.4858
vn 0.8111 -0.0600 0.5818
vn 0.9332 -0.1314 0.3345
vn 0.9331 -0.1310 0.3349
vn 0.9500 0.2045 0.2358
vn 0.8421 0.2346 0.4857
vn 0.7397 0.6686 0.0763
vn 0.9501 0.2044 0.2358
vn 0.9727 0.1386 -0.1863
vn 0.9728 0.1386 -0.1858
vn 0.7160 0.6623 -0.2207
vn 0.7396 0.6687 0.0765
vn 0.8425 0.2190 0.4921
vn 0.8088 -0.0695 0.5839
vn 0.8100 -0.0649 0.5828
vn 0.8099 -0.0646 0.5830
vn 0.8423 0.2264 0.4891
vn 0.8426 0.2186 0.4922
vn 0.2169 0.9497 -0.2261
vn 0.2443 0.9379 -0.2464
vn 0.1568 0.9470 -0.2804
vn 0.1569 0.9470 -0.2804
vn 0.1364 0.9500 -0.2810
vn 0.2168 0.9497 -0.2261
vn -0.2562 -0.9463 0.1971
vn -0.2563 -0.9461 0.1982
vn -0.2509 -0.9469 0.2010
vn -0.2510 -0.9469 0.2009
vn -0.2470 -0.9473 0.2040
vn -0.2564 -0.9462 0.1973
vn 0.2199 -0.8449 0.4876
vn 0.6899 -0.3708 0.6217
vn 0.6834 -0.3827 0.6217
vn 0.6835 -0.3825 0.6218
vn 0.2073 -0.8515 0.4817
vn 0.2199 -0.8448 0.4877
vn -0.1992 -0.9497 0.2415
vn -0.5904 -0.8025 -0.0860
vn -0.6192 -0.7766 -0.1161
vn -0.6215 -0.7752 -0.1130
vn -0.2008 -0.9497 0.2404
vn -0.1991 -0.9497 0.2416
vn 0.6899 -0.3710 0.6216
vn 0.7899 -0.1375 0.5977
vn 0.7903 -0.1362 0.5974
vn 0.7902 -0.1361 0.5975
vn 0.6833 -0.3826 0.6218
vn 0.8088 -0.0698 0.5840
vn 0.7909 -0.1343 0.5971
vn 0.7904 -0.1357 0.5973
vn 0.7947 -0.1384 0.5910
vn 0.8099 -0.0653 0.5829
vn 0.8088 -0.0698 0.5839
vn -0.2994 -0.9392 0.1684
vn -0.2835 -0.9419 0.1800
vn -0.3086 -0.9377 0.1598
vn -0.3084 -0.9378 0.1596
vn -0.3259 -0.9342 0.1453
vn -0.2995 -0.9391 0.1687
vn -0.3141 -0.9363 0.1570
vn 0.2203 -0.8447 0.4879
vn 0.2077 -0.8512 0.4820
vn 0.2077 -0.8512 0.4819
vn -0.2991 -0.9392 0.1686
vn -0.3142 -0.9363 0.1570
vn -0.5900 -0.8028 -0.0861
vn -0.8408 -0.2596 -0.4750
vn -0.8417 -0.2429 -0.4822
vn -0.8418 -0.2429 -0.4820
vn -0.6190 -0.7768 -0.1159
vn -0.5901 -0.8028 -0.0857
vn -0.1809 -0.9503 0.2533
vn -0.2869 -0.9417 0.1758
vn -0.2868 -0.9417 0.1760
vn -0.2867 -0.9417 0.1759
vn -0.1953 -0.9502 0.2430
vn -0.1807 -0.9504 0.2530
vn -0.2507 -0.9470 0.2009
vn -0.3433 -0.9299 0.1324
vn -0.3258 -0.9341 0.1461
vn -0.3259 -0.9341 0.1461
vn -0.2467 -0.9474 0.2040
vn -0.2508 -0.9469 0.2010
vn -0.2030 -0.9495 0.2393
vn -0.1805 -0.9504 0.2532
vn -0.1952 -0.9502 0.2430
vn -0.1950 -0.9502 0.2432
vn -0.2006 -0.9497 0.2406
vn -0.2028 -0.9496 0.2390
vn -0.7921 0.1301 -0.5963
vn -0.7927 0.1282 -0.5960
vn -0.8106 0.0629 -0.5821
vn -0.8105 0.0630 -0.5823
vn -0.8115 0.0586 -0.5814
vn -0.7922 0.1300 -0.5963
vn 0.5224 0.8524 0.0204
vn 0.3936 0.9132 -0.1051
vn 0.3891 0.9163 -0.0947
vn 0.3893 0.9162 -0.0947
vn 0.5241 0.8514 0.0220
vn 0.5224 0.8524 0.0203
vn 0.5261 0.8501 0.0236
vn 0.7285 0.6391 0.2465
vn 0.7201 0.6528 0.2352
vn 0.7170 0.6545 0.2398
vn 0.5246 0.8511 0.0221
vn 0.5259 0.8502 0.0234
vn -0.7915 0.1320 -0.5967
vn -0.6717 0.4028 -0.6217
vn -0.6701 0.4054 -0.6218
vn -0.7920 0.1302 -0.5965
vn -0.7915 0.1320 -0.5968
vn 0.1567 0.9469 -0.2808
vn -0.0848 0.9057 -0.4154
vn -0.0586 0.9143 -0.4008
vn -0.0588 0.9142 -0.4009
vn 0.1359 0.9500 -0.2810
vn 0.1566 0.9470 -0.2806
vn -0.3959 0.7274 -0.5604
vn -0.6690 0.4075 -0.6216
vn -0.6702 0.4049 -0.6220
vn -0.6702 0.4050 -0.6219
vn -0.3629 0.7537 -0.5479
vn -0.3960 0.7275 -0.5604
vn 0.8419 0.2345 0.4861
vn 0.7111 0.6665 0.2238
vn 0.7201 0.6527 0.2353
vn 0.7201 0.6528 0.2351
vn 0.8423 0.2262 0.4893
vn 0.8421 0.2344 0.4858
vn -0.8409 -0.2599 -0.4748
vn -0.8126 0.0540 -0.5803
vn -0.8116 0.0582 -0.5813
vn -0.8417 -0.2433 -0.4821
vn -0.8408 -0.2600 -0.4748
vn -0.3957 0.7278 -0.5601
vn -0.3628 0.7538 -0.5479
vn -0.3628 0.7540 -0.5476
vn -0.0589 0.9142 -0.4009
vn -0.0851 0.9055 -0.4158
vn -0.2566 -0.9460 0.1979
vn -0.2561 -0.9462 0.1978
vn -0.2559 -0.9462 0.1978
vn -0.2568 -0.9460 0.1981
vn -0.2568 -0.9459 0.1980
vn 0.2904 0.9414 -0.1715
vn 0.2995 0.9317 -0.2053
vn 0.2781 0.9314 -0.2347
vn 0.2783 0.9313 -0.2348
vn 0.2544 0.9463 -0.1993
vn 0.2903 0.9415 -0.1714
vn -0.5355 0.3264 0.7789
vn -0.4391 0.5768 0.6888
vn -0.4534 0.5470 0.7037
vn -0.4536 0.5469 0.7036
vn -0.5353 0.3266 0.7789
vn 0.5935 0.0180 -0.8046
vn 0.5937 0.0208 -0.8044
vn 0.5439 -0.2911 -0.7870
vn 0.5438 -0.2911 -0.7871
vn 0.5433 -0.2930 -0.7868
vn 0.5934 0.0179 -0.8047
vn 0.1076 0.9941 0.0117
vn 0.1826 0.9803 -0.0755
vn 0.1690 0.9827 -0.0760
vn 0.1691 0.9827 -0.0761
vn 0.1252 0.9921 -0.0122
vn 0.1075 0.9941 0.0117
vn 0.5933 0.0183 -0.8047
vn 0.5930 0.0155 -0.8051
vn 0.5313 0.5656 -0.6307
vn 0.5312 0.5656 -0.6307
vn 0.5285 0.5732 -0.6261
vn 0.5934 0.0185 -0.8047
vn -0.1316 0.9351 0.3292
vn -0.1350 0.9331 0.3333
vn 0.1077 0.9941 0.0116
vn 0.1077 0.9941 0.0119
vn 0.1247 0.9921 -0.0120
vn -0.1315 0.9351 0.3291
vn 0.1827 0.9803 -0.0752
vn 0.2627 0.9530 -0.1510
vn 0.2292 0.9597 -0.1624
vn 0.2293 0.9597 -0.1624
vn 0.1824 0.9803 -0.0752
vn -0.2852 -0.9288 0.2367
vn -0.3320 -0.8916 0.3080
vn -0.3289 -0.8944 0.3031
vn -0.2861 -0.9281 0.2384
vn -0.2853 -0.9286 0.2371
vn 0.5291 -0.3439 -0.7757
vn 0.5433 -0.2931 -0.7867
vn 0.5434 -0.2929 -0.7867
vn 0.5294 -0.3432 -0.7759
vn -0.2872 -0.9275 0.2394
vn 0.1073 -0.9480 -0.2997
vn 0.1071 -0.9481 -0.2992
vn 0.1069 -0.9482 -0.2991
vn -0.2864 -0.9280 0.2382
vn -0.2871 -0.9275 0.2395
vn -0.4709 -0.7096 0.5242
vn -0.4690 -0.7130 0.5213
vn -0.5926 -0.0020 0.8055
vn -0.5926 -0.0018 0.8055
vn -0.5933 -0.0108 0.8049
vn -0.4710 -0.7096 0.5241
vn -0.5353 0.3270 0.7788
vn -0.5471 0.2815 0.7883
vn -0.5477 0.2796 0.7886
vn -0.5477 0.2794 0.7886
vn 0.5295 -0.3424 -0.7762
vn 0.4424 -0.5678 -0.6942
vn 0.4383 -0.5761 -0.6900
vn 0.4384 -0.5762 -0.6898
vn 0.5292 -0.3434 -0.7759
vn -0.3324 -0.8914 0.3081
vn -0.2508 -0.9493 0.1896
vn -0.2458 -0.9520 0.1826
vn -0.2461 -0.9519 0.1828
vn -0.3290 -0.8944 0.3029
vn -0.3323 -0.8915 0.3078
vn -0.2746 -0.9356 0.2222
vn -0.2572 -0.9459 0.1979
vn -0.2570 -0.9460 0.1974
vn -0.2568 -0.9461 0.1973
vn -0.2733 -0.9363 0.2203
vn 0.1070 -0.9480 -0.2998
vn 0.4339 -0.5850 -0.6852
vn 0.4384 -0.5763 -0.6897
vn 0.4383 -0.5765 -0.6896
vn 0.1067 -0.9481 -0.2994
vn 0.1071 -0.9480 -0.2998
vn -0.2733 -0.9363 0.2204
vn -0.2722 -0.9370 0.2189
vn -0.2307 -0.9602 0.1576
vn -0.2307 -0.9602 0.1574
vn -0.2336 -0.9588 0.1615
vn -0.2734 -0.9363 0.2205
vn -0.1962 -0.9746 0.1076
vn -0.2032 -0.9720 0.1177
vn -0.2035 -0.9720 0.1178
vn -0.2334 -0.9589 0.1615
vn -0.2306 -0.9602 0.1574
vn -0.4720 -0.7071 0.5266
vn -0.2104 -0.9692 0.1277
vn -0.2033 -0.9720 0.1176
vn -0.2031 -0.9720 0.1177
vn -0.4707 -0.7097 0.5242
vn -0.4720 -0.7071 0.5265
vn 0.4062 0.8100 -0.4230
vn 0.5259 0.5810 -0.6212
vn 0.5285 0.5735 -0.6260
vn 0.4041 0.8129 -0.4194
vn 0.4061 0.8101 -0.4228
vn -0.5478 0.2794 0.7885
vn -0.5472 0.2815 0.7882
vn -0.5954 -0.0211 0.8031
vn -0.5941 -0.0210 0.8041
vn -0.5934 -0.0104 0.8048
vn 0.3526 0.8782 -0.3231
vn 0.4042 0.8127 -0.4198
vn 0.4043 0.8124 -0.4201
vn 0.3425 0.8801 -0.3289
vn 0.3524 0.8783 -0.3231
vn -0.1277 0.9373 0.3242
vn -0.4659 0.5198 0.7160
vn -0.4535 0.5472 0.7035
vn -0.1313 0.9351 0.3292
vn -0.1271 0.9373 0.3244
vn 0.2995 0.9318 -0.2052
vn 0.3525 0.8783 -0.3230
vn 0.3426 0.8799 -0.3291
vn 0.3427 0.8799 -0.3290
vn 0.2782 0.9314 -0.2348
vn 0.2995 0.9318 -0.2051
vn -0.2562 -0.9461 0.1983
vn -0.2416 -0.9543 0.1761
vn -0.2460 -0.9519 0.1828
vn -0.2564 -0.9460 0.1982
vn -0.0604 0.8827 -0.4660
vn -0.2763 0.7111 -0.6466
vn -0.3955 0.7278 -0.5602
vn -0.3957 0.7275 -0.5605
vn -0.0849 0.9056 -0.4155
vn -0.0604 0.8826 -0.4662
vn 0.9501 0.2045 0.2358
vn 0.7395 0.6688 0.0767
vn 0.7111 0.6666 0.2235
vn 0.8420 0.2345 0.4859
vn 0.9500 0.2047 0.2359
vn -0.2762 0.7108 -0.6469
vn -0.5350 0.3538 -0.7672
vn -0.6689 0.4074 -0.6218
vn -0.6689 0.4072 -0.6218
vn -0.3960 0.7276 -0.5602
vn -0.2765 0.7108 -0.6467
vn 0.2406 0.9184 -0.3142
vn -0.0608 0.8825 -0.4663
vn -0.0850 0.9056 -0.4154
vn -0.0848 0.9055 -0.4157
vn 0.1566 0.9470 -0.2805
vn 0.2408 0.9182 -0.3144
vn 0.5271 0.8472 -0.0664
vn 0.4164 0.8814 -0.2233
vn 0.3936 0.9133 -0.1051
vn 0.3933 0.9134 -0.1050
vn 0.5225 0.8524 0.0206
vn 0.5271 0.8472 -0.0667
vn -0.7927 0.1280 -0.5960
vn -0.6280 0.0571 -0.7761
vn -0.6390 -0.0334 -0.7685
vn -0.6392 -0.0332 -0.7683
vn -0.8105 0.0631 -0.5824
vn -0.7928 0.1280 -0.5958
vn -0.1620 -0.9455 0.2824
vn -0.1808 -0.9504 0.2530
vn -0.1806 -0.9504 0.2533
vn -0.2030 -0.9496 0.2390
vn -0.2673 -0.9395 0.2142
vn -0.2530 -0.9473 0.1962
vn -0.3725 -0.9174 0.1399
vn -0.3434 -0.9298 0.1324
vn -0.3431 -0.9300 0.1320
vn -0.2508 -0.9470 0.2008
vn -0.2532 -0.9473 0.1964
vn -0.1625 -0.9454 0.2826
vn -0.2869 -0.9417 0.1757
vn -0.2873 -0.9416 0.1758
vn -0.1621 -0.9455 0.2824
vn -0.2860 -0.9365 0.2029
vn 0.3068 -0.8663 0.3942
vn 0.2202 -0.8446 0.4880
vn 0.2202 -0.8447 0.4879
vn -0.2857 -0.9367 0.2026
vn 0.7783 -0.4842 0.3997
vn 0.9034 -0.2227 0.3664
vn 0.7898 -0.1375 0.5977
vn 0.7897 -0.1376 0.5978
vn 0.6900 -0.3710 0.6215
vn 0.7784 -0.4843 0.3994
vn 0.3067 -0.8666 0.3937
vn 0.7784 -0.4846 0.3991
vn 0.6901 -0.3712 0.6213
vn 0.2200 -0.8448 0.4877
vn 0.3064 -0.8665 0.3941
vn -0.2557 -0.9464 0.1974
vn -0.2565 -0.9461 0.1979
vn -0.2534 -0.9472 0.1964
vn -0.2533 -0.9473 0.1964
vn -0.2560 -0.9463 0.1975
vn 0.2445 0.9379 -0.2462
vn 0.3215 0.8921 -0.3175
vn 0.2407 0.9185 -0.3137
vn 0.2406 0.9185 -0.3139
vn 0.2442 0.9379 -0.2463
vn 0.8423 0.2265 0.4891
vn 0.8112 -0.0601 0.5816
vn 0.8111 -0.0599 0.5818
vn 0.8420 0.2349 0.4857
vn -0.2009 -0.9496 0.2405
vn -0.6193 -0.7765 -0.1161
vn -0.6457 -0.7496 -0.1454
vn -0.6459 -0.7494 -0.1452
vn -0.2005 -0.9497 0.2407
vn 0.8100 -0.0651 0.5828
vn 0.7903 -0.1358 0.5974
vn 0.7900 -0.1371 0.5975
vn 0.7942 -0.1396 0.5914
vn 0.8110 -0.0606 0.5819
vn 0.8099 -0.0652 0.5829
vn -0.3144 -0.9362 0.1568
vn -0.3262 -0.9340 0.1460
vn -0.3261 -0.9340 0.1459
vn -0.3435 -0.9298 0.1320
vn -0.3147 -0.9361 0.1572
vn -0.6190 -0.7768 -0.1157
vn -0.8417 -0.2430 -0.4822
vn -0.8423 -0.2279 -0.4885
vn -0.8425 -0.2278 -0.4882
vn -0.6456 -0.7497 -0.1451
vn -0.6190 -0.7767 -0.1161
vn 0.5243 0.8512 0.0222
vn 0.7201 0.6528 0.2353
vn 0.7115 0.6662 0.2237
vn 0.7111 0.6663 0.2242
vn 0.5228 0.8522 0.0206
vn 0.5245 0.8511 0.0223
vn -0.7920 0.1304 -0.5964
vn -0.6701 0.4054 -0.6219
vn -0.6688 0.4075 -0.6218
vn -0.7927 0.1281 -0.5960
vn -0.7921 0.1300 -0.5964
vn -0.8418 -0.2432 -0.4819
vn -0.8116 0.0585 -0.5813
vn -0.8106 0.0626 -0.5822
vn -0.8107 0.0626 -0.5822
vn -0.8423 -0.2280 -0.4884
vn -0.8417 -0.2431 -0.4820
vn -0.2571 -0.9460 0.1976
vn -0.2569 -0.9460 0.1980
vn -0.2565 -0.9461 0.1975
vn -0.2563 -0.9462 0.1976
vn -0.2570 -0.9460 0.1975
vn -0.2573 -0.9459 0.1977
vn 0.2628 0.9530 -0.1510
vn 0.2912 0.9410 -0.1723
vn 0.2540 0.9466 -0.1987
vn 0.2540 0.9465 -0.1988
vn 0.2292 0.9597 -0.1625
vn -0.9475 -0.2157 -0.2362
vn -0.9345 0.1267 -0.3326
vn -0.8127 0.0540 -0.5802
vn -0.8408 -0.2598 -0.4749
vn -0.9475 -0.2158 -0.2360
vn -0.7721 0.4939 -0.3998
vn -0.6717 0.4026 -0.6218
vn -0.6771 0.4057 -0.6140
vn -0.7916 0.1319 -0.5967
vn -0.9097 0.2171 -0.3539
vn 0.4645 0.8826 0.0718
vn 0.5991 0.7259 0.3380
vn 0.7285 0.6393 0.2461
vn 0.7285 0.6392 0.2464
vn 0.5260 0.8502 0.0238
vn -0.6335 -0.7735 -0.0193
vn -0.9476 -0.2152 -0.2360
vn -0.8409 -0.2595 -0.4750
vn -0.8407 -0.2596 -0.4751
vn -0.5902 -0.8027 -0.0858
vn -0.2838 -0.9418 0.1801
vn -0.2504 -0.9517 0.1777
vn -0.3105 -0.9367 0.1619
vn -0.3104 -0.9368 0.1617
vn -0.3086 -0.9377 0.1597
vn -0.2839 -0.9417 0.1803
vn 0.6494 0.0145 0.7603
vn 0.6224 -0.0583 0.7805
vn 0.7909 -0.1341 0.5971
vn 0.7951 -0.1366 0.5909
vn 0.8087 -0.0700 0.5840
vn 0.6493 0.0146 0.7604
vn -0.2117 -0.9566 0.2003
vn -0.6336 -0.7734 -0.0199
vn -0.5903 -0.8026 -0.0860
vn -0.5902 -0.8026 -0.0860
vn -0.1992 -0.9497 0.2417
vn -0.2118 -0.9566 0.2000
vn 0.6723 0.3395 0.6578
vn 0.6492 0.0150 0.7605
vn 0.8089 -0.0695 0.5838
vn 0.8136 -0.0721 0.5770
vn 0.8425 0.2189 0.4922
vn 0.6720 0.3394 0.6582
vn 0.2076 0.9592 -0.1920
vn 0.2171 0.9495 -0.2267
vn 0.1363 0.9501 -0.2805
vn 0.1362 0.9500 -0.2810
vn 0.1348 0.9537 -0.2688
vn 0.2075 0.9592 -0.1919
vn -0.2565 -0.9463 0.1967
vn -0.2469 -0.9473 0.2041
vn -0.2468 -0.9473 0.2041
vn -0.2427 -0.9478 0.2069
vn -0.2567 -0.9462 0.1969
vn 0.2090 -0.8524 0.4793
vn 0.6763 -0.3952 0.6217
vn 0.6761 -0.3951 0.6220
vn 0.1940 -0.8581 0.4754
vn 0.2073 -0.8515 0.4816
vn 0.6906 -0.3868 0.6111
vn 0.7903 -0.1359 0.5974
vn 0.7908 -0.1344 0.5971
vn 0.7907 -0.1346 0.5972
vn 0.6834 -0.3827 0.6216
vn -0.2950 -0.9416 0.1626
vn 0.2074 -0.8513 0.4819
vn 0.1944 -0.8582 0.4751
vn 0.1942 -0.8580 0.4755
vn -0.2835 -0.9419 0.1803
vn -0.2990 -0.9392 0.1686
vn -0.1984 -0.9484 0.2475
vn -0.2869 -0.9417 0.1759
vn -0.2866 -0.9417 0.1760
vn -0.2866 -0.9418 0.1758
vn -0.2101 -0.9496 0.2326
vn -0.2455 -0.9481 0.2023
vn -0.3258 -0.9341 0.1460
vn -0.3081 -0.9378 0.1598
vn -0.3083 -0.9377 0.1600
vn -0.2466 -0.9474 0.2041
vn -0.1975 -0.9514 0.2363
vn -0.1952 -0.9501 0.2432
vn -0.2098 -0.9496 0.2329
vn -0.2096 -0.9496 0.2330
vn -0.1990 -0.9497 0.2417
vn -0.2004 -0.9497 0.2407
vn -0.7916 0.1317 -0.5966
vn -0.8115 0.0588 -0.5814
vn -0.8125 0.0546 -0.5804
vn -0.7918 0.1318 -0.5964
vn 0.5279 0.8491 0.0165
vn 0.3889 0.9164 -0.0946
vn 0.3674 0.9249 -0.0983
vn 0.3675 0.9248 -0.0982
vn 0.5258 0.8503 0.0232
vn 0.1360 0.9499 -0.2813
vn -0.0311 0.9223 -0.3851
vn -0.0313 0.9224 -0.3849
vn 0.1343 0.9537 -0.2691
vn 0.1360 0.9500 -0.2812
vn -0.3629 0.7538 -0.5478
vn -0.6703 0.4049 -0.6219
vn -0.6716 0.4024 -0.6221
vn -0.6719 0.4025 -0.6217
vn -0.3273 0.7797 -0.5338
vn 0.8423 0.2262 0.4892
vn 0.7199 0.6531 0.2350
vn 0.7284 0.6394 0.2463
vn 0.7286 0.6392 0.2460
vn 0.8425 0.2186 0.4924
vn 0.8424 0.2263 0.4891
vn -0.0590 0.9142 -0.4009
vn -0.3631 0.7538 -0.5477
vn -0.3274 0.7797 -0.5337
vn -0.3275 0.7797 -0.5336
vn -0.0315 0.9223 -0.3853
vn 0.2291 0.9597 -0.1625
vn 0.2546 0.9462 -0.1996
vn 0.2169 0.9497 -0.2259
vn 0.2171 0.9497 -0.2258
vn 0.2078 0.9591 -0.1920
vn 0.2291 0.9598 -0.1623
vn -0.2865 -0.9418 0.1762
vn -0.2865 -0.9418 0.1759
vn -0.2567 -0.9460 0.1979
vn -0.2567 -0.9460 0.1980
vn -0.2863 -0.9418 0.1763
vn 0.2782 0.9314 -0.2347
vn 0.3426 0.8800 -0.3290
vn 0.3215 0.8920 -0.3177
vn 0.2446 0.9379 -0.2462
vn -0.2866 -0.9417 0.1761
vn -0.2662 -0.9507 0.1588
vn -0.2415 -0.9543 0.1761
vn -0.2561 -0.9462 0.1979
vn -0.2595 0.9451 0.1985
vn -0.6587 0.5751 0.4852
vn -0.4657 0.5199 0.7161
vn -0.4660 0.5198 0.7160
vn -0.1274 0.9373 0.3243
vn -0.7571 0.2867 0.5870
vn -0.7993 -0.0608 0.5978
vn -0.7993 -0.0610 0.5978
vn -0.5942 -0.0210 0.8041
vn -0.5488 -0.6797 0.4866
vn -0.2167 -0.9590 0.1827
vn -0.2102 -0.9693 0.1275
vn -0.0157 -0.9328 -0.3601
vn 0.1629 -0.5858 -0.7939
vn 0.4341 -0.5849 -0.6852
vn 0.4340 -0.5851 -0.6850
vn 0.1069 -0.9479 -0.2999
vn -0.0156 -0.9328 -0.3601
vn -0.2864 -0.9418 0.1762
vn -0.2571 -0.9460 0.1975
vn -0.2927 -0.9349 0.2009
vn -0.7307 0.3479 0.5873
vn -0.7572 0.2866 0.5869
vn -0.5471 0.2814 0.7883
vn -0.5472 0.2816 0.7882
vn -0.5353 0.3271 0.7788
vn -0.7306 0.3481 0.5874
vn -0.2385 -0.9505 0.1992
vn -0.0154 -0.9326 -0.3605
vn 0.1076 -0.9479 -0.2998
vn 0.1073 -0.9480 -0.2996
vn -0.2869 -0.9275 0.2395
vn -0.2401 -0.9498 0.2006
vn 0.2947 -0.3176 -0.9013
vn 0.5429 -0.2945 -0.7865
vn 0.5292 -0.3439 -0.7757
vn 0.2949 -0.3176 -0.9012
vn 0.5932 0.0156 -0.8049
vn 0.3200 0.1019 -0.9419
vn 0.3730 0.5953 -0.7117
vn 0.5314 0.5655 -0.6307
vn 0.5931 0.0156 -0.8050
vn -0.2865 -0.9417 0.1762
vn -0.2866 -0.9418 0.1757
vn -0.2568 -0.9460 0.1979
vn -0.2865 -0.9417 0.1761
vn 0.2541 0.9465 -0.1988
vn 0.2783 0.9314 -0.2347
vn 0.2445 0.9379 -0.2461
vn 0.2447 0.9378 -0.2463
vn 0.2173 0.9495 -0.2262
vn 0.2539 0.9466 -0.1985
vn -0.5352 0.3267 0.7790
vn -0.4536 0.5471 0.7036
vn -0.4659 0.5196 0.7162
vn -0.5351 0.3270 0.7789
vn -0.5353 0.3266 0.7790
vn 0.5936 0.0181 -0.8046
vn 0.5434 -0.2930 -0.7867
vn 0.5433 -0.2930 -0.7867
vn 0.5430 -0.2945 -0.7864
vn 0.1249 0.9921 -0.0122
vn 0.1692 0.9826 -0.0761
vn 0.1683 0.9812 -0.0949
vn 0.1424 0.9891 -0.0362
vn 0.1250 0.9921 -0.0122
vn -0.1315 0.9352 0.3289
vn 0.1253 0.9920 -0.0126
vn 0.1251 0.9921 -0.0122
vn -0.1277 0.9374 0.3240
vn 0.2293 0.9597 -0.1625
vn 0.2077 0.9592 -0.1918
vn 0.1688 0.9810 -0.0953
vn 0.1690 0.9827 -0.0758
vn -0.2861 -0.9281 0.2383
vn -0.3289 -0.8944 0.3029
vn -0.3256 -0.8972 0.2983
vn -0.3258 -0.8972 0.2983
vn -0.2868 -0.9275 0.2396
vn -0.4723 -0.7070 0.5265
vn -0.4706 -0.7097 0.5244
vn -0.5932 -0.0108 0.8049
vn -0.5931 -0.0107 0.8051
vn -0.4721 -0.7071 0.5264
vn 0.5292 -0.3433 -0.7760
vn 0.4382 -0.5760 -0.6900
vn 0.4340 -0.5848 -0.6853
vn 0.4341 -0.5847 -0.6854
vn 0.5290 -0.3438 -0.7759
vn -0.3289 -0.8945 0.3028
vn -0.2413 -0.9544 0.1758
vn -0.3258 -0.8972 0.2981
vn -0.3292 -0.8943 0.3031
vn -0.2745 -0.9356 0.2220
vn -0.2731 -0.9364 0.2203
vn -0.2336 -0.9588 0.1616
vn -0.2334 -0.9589 0.1614
vn -0.2362 -0.9575 0.1654
vn -0.2746 -0.9355 0.2223
vn -0.2336 -0.9588 0.1617
vn -0.2033 -0.9720 0.1179
vn -0.2103 -0.9692 0.1278
vn -0.2362 -0.9575 0.1655
vn -0.2332 -0.9589 0.1615
vn 0.4043 0.8125 -0.4199
vn 0.5286 0.5736 -0.6258
vn 0.5312 0.5656 -0.6308
vn 0.4019 0.8156 -0.4161
vn 0.4043 0.8127 -0.4196
vn 0.3426 0.8800 -0.3291
vn 0.4042 0.8127 -0.4197
vn 0.4020 0.8155 -0.4165
vn 0.4020 0.8154 -0.4164
vn 0.3214 0.8921 -0.3177
vn 0.3427 0.8799 -0.3291
vn -0.2567 -0.9462 0.1972
vn -0.2561 -0.9463 0.1971
vn -0.2561 -0.9464 0.1971
vn -0.2567 -0.9462 0.1970
vn 0.3670 0.9250 -0.0986
vn 0.3889 0.9163 -0.0953
vn 0.2906 0.9414 -0.1712
vn 0.2906 0.9414 -0.1713
vn 0.2633 0.9529 -0.1507
vn 0.3669 0.9250 -0.0984
vn -0.2560 -0.9462 0.1978
vn -0.2461 -0.9519 0.1827
vn -0.2507 -0.9493 0.1896
vn -0.2563 -0.9461 0.1980
vn 0.3932 0.9134 -0.1053
vn 0.4162 0.8814 -0.2234
vn 0.3529 0.8782 -0.3229
vn 0.3000 0.9316 -0.2050
vn 0.3929 0.9135 -0.1053
vn 0.4161 0.8816 -0.2228
vn 0.4386 0.8234 -0.3601
vn 0.4062 0.8100 -0.4229
vn 0.3523 0.8784 -0.3229
vn 0.4163 0.8813 -0.2235
vn 0.6233 0.5952 -0.5072
vn 0.5257 0.5813 -0.6211
vn 0.5260 0.5812 -0.6210
vn 0.4062 0.8102 -0.4226
vn 0.4387 0.8233 -0.3601
vn -0.2174 -0.9660 0.1398
vn -0.2252 -0.9681 0.1096
vn -0.1961 -0.9747 0.1076
vn -0.1964 -0.9746 0.1077
vn -0.2306 -0.9602 0.1575
vn -0.2176 -0.9660 0.1398
vn -0.2549 -0.9403 0.2256
vn -0.2177 -0.9659 0.1398
vn -0.2177 -0.9660 0.1397
vn -0.2723 -0.9370 0.2188
vn -0.3559 -0.8860 0.2974
vn -0.2532 -0.9473 0.1962
vn -0.2506 -0.9494 0.1893
vn -0.2508 -0.9493 0.1895
vn -0.3322 -0.8916 0.3078
vn -0.3558 -0.8859 0.2975
vn 0.7342 -0.3653 -0.5723
vn 0.6274 -0.6107 -0.4832
vn 0.4395 -0.5680 -0.6959
vn 0.4425 -0.5679 -0.6941
vn 0.5294 -0.3426 -0.7761
vn 0.7341 -0.3654 -0.5724
vn -0.4692 -0.7130 0.5211
vn -0.3953 -0.6912 0.6049
vn -0.3477 -0.0747 0.9346
vn -0.3476 -0.0748 0.9347
vn -0.5926 -0.0016 0.8055
vn -0.4692 -0.7129 0.5212
vn -0.2634 -0.9470 0.1839
vn -0.3557 -0.8860 0.2975
vn -0.3322 -0.8915 0.3079
vn -0.3321 -0.8915 0.3080
vn -0.2853 -0.9286 0.2373
vn -0.2632 -0.9472 0.1833
vn 0.2747 0.9595 -0.0617
vn 0.3735 0.9213 -0.1081
vn 0.2630 0.9530 -0.1506
vn 0.2629 0.9529 -0.1510
vn 0.1826 0.9803 -0.0753
vn 0.2744 0.9596 -0.0615
vn 0.0366 0.9175 0.3962
vn 0.1481 0.9873 0.0571
vn 0.1482 0.9873 0.0572
vn 0.1074 0.9941 0.0118
vn -0.1348 0.9331 0.3333
vn 0.1480 0.9873 0.0573
vn 0.2745 0.9596 -0.0617
vn 0.1827 0.9803 -0.0754
vn 0.1823 0.9804 -0.0750
vn 0.1080 0.9941 0.0117
vn 0.1479 0.9873 0.0572
vn 0.5936 0.0207 -0.8045
vn 0.7601 -0.2887 -0.5822
vn -0.2861 0.2974 0.9109
vn -0.1412 0.5983 0.7887
vn -0.4392 0.5768 0.6888
vn -0.5354 0.3263 0.7791
vn 0.3888 0.9164 -0.0950
vn 0.3870 0.9170 -0.0967
vn 0.2996 0.9318 -0.2050
vn 0.2998 0.9317 -0.2051
vn 0.2908 0.9413 -0.1714
vn 0.3888 0.9164 -0.0949
vn -0.2564 -0.9462 0.1975
vn -0.2563 -0.9460 0.1982
vn -0.2556 -0.9464 0.1974
vn -0.2562 -0.9463 0.1972
vn -0.2567 -0.9461 0.1977
vn 0.5935 0.0211 -0.8045
vn 0.5932 0.0183 -0.8048
vn 0.5288 0.5735 -0.6257
vn 0.5261 0.5812 -0.6208
vn 0.5293 -0.3433 -0.7759
vn 0.5438 -0.2910 -0.7871
vn 0.5296 -0.3425 -0.7761
vn 0.5293 -0.3432 -0.7759
vn -0.2861 -0.9281 0.2382
vn 0.1070 -0.9482 -0.2992
vn 0.1066 -0.9484 -0.2985
vn -0.2853 -0.9286 0.2372
vn -0.5477 0.2795 0.7886
vn -0.5482 0.2775 0.7890
vn -0.5355 0.3266 0.7788
vn -0.2732 -0.9364 0.2204
vn -0.2574 -0.9459 0.1977
vn -0.2565 -0.9463 0.1968
vn -0.2566 -0.9463 0.1968
vn -0.2723 -0.9370 0.2187
vn -0.2735 -0.9363 0.2205
vn 0.1072 -0.9481 -0.2995
vn 0.4383 -0.5764 -0.6897
vn 0.4424 -0.5680 -0.6940
vn 0.4426 -0.5679 -0.6940
vn 0.1061 -0.9484 -0.2989
vn 0.1066 -0.9481 -0.2995
vn -0.2033 -0.9720 0.1177
vn -0.1962 -0.9747 0.1075
vn -0.1962 -0.9746 0.1078
vn -0.4690 -0.7129 0.5213
vn -0.4706 -0.7098 0.5242
vn -0.5483 0.2773 0.7890
vn -0.5945 -0.0105 0.8041
vn -0.5935 -0.0104 0.8048
vn -0.5928 -0.0012 0.8054
vn -0.1317 0.9351 0.3291
vn -0.4534 0.5474 0.7035
vn -0.4391 0.5770 0.6887
vn -0.4391 0.5773 0.6885
vn -0.1347 0.9332 0.3333
vt 0.411770 0.931690
vt 0.411770 0.938270
vt 0.519720 0.938270
vt 0.519720 0.931690
vt 0.555570 0.928000
vt 0.555570 0.918070
vt 0.545980 0.918070
vt 0.545980 0.928000
vt 0.077130 0.809580
vt 0.068540 0.809580
vt 0.068540 0.918070
vt 0.077130 0.918070
vt 0.077130 0.938270
vt 0.087670 0.938270
vt 0.087670 0.931690
vt 0.077130 0.931690
vt 0.529470 0.947490
vt 0.519720 0.947490
vt 0.519720 0.960430
vt 0.529470 0.960430
vt 0.566000 0.928000
vt 0.566000 0.918070
vt 0.024360 0.587940
vt 0.034960 0.587940
vt 0.034960 0.479300
vt 0.024360 0.479300
vt 0.077130 0.947490
vt 0.087670 0.947490
vt 0.049490 0.928000
vt 0.049490 0.918070
vt 0.034960 0.918070
vt 0.034960 0.928000
vt 0.077130 0.960430
vt 0.087670 0.960430
vt 0.529470 0.938270
vt 0.529470 0.931690
vt 0.529470 0.460640
vt 0.519720 0.460640
vt 0.519720 0.469010
vt 0.529470 0.469010
vt 0.061650 0.469010
vt 0.061650 0.479300
vt 0.068540 0.479300
vt 0.068540 0.469010
vt 0.546590 0.451470
vt 0.559190 0.438600
vt 0.543160 0.445480
vt 0.529470 0.928000
vt 0.519720 0.928000
vt 0.529470 0.453730
vt 0.519720 0.453730
vt 0.545980 0.809580
vt 0.538590 0.809580
vt 0.538590 0.918070
vt 0.061650 0.809580
vt 0.061650 0.918070
vt 0.068540 0.928000
vt 0.077130 0.928000
vt 0.087670 0.809580
vt 0.087670 0.918070
vt 0.049490 0.587940
vt 0.061650 0.587940
vt 0.049490 0.479300
vt 0.077130 0.442580
vt 0.087670 0.442580
vt 0.087670 0.432350
vt 0.077130 0.432350
vt 0.049490 0.469010
vt 0.034960 0.469010
vt 0.519720 0.918070
vt 0.546640 0.451520
vt 0.553560 0.455140
vt 0.190330 0.479300
vt 0.190330 0.469010
vt 0.087670 0.469010
vt 0.087670 0.479300
vt 0.519720 0.479300
vt 0.529470 0.479300
vt 0.061650 0.928000
vt 0.077130 0.479300
vt 0.077130 0.469010
vt 0.976120 0.438740
vt 0.988830 0.451430
vt 0.992320 0.445480
vt 0.077130 0.453730
vt 0.087670 0.453730
vt 0.411770 0.960430
vt 0.411770 0.970080
vt 0.519720 0.970080
vt 0.529470 0.587940
vt 0.538590 0.587940
vt 0.538590 0.479300
vt 0.538590 0.928000
vt 0.529470 0.918070
vt 0.529470 0.809580
vt 0.519720 0.809580
vt 0.077130 0.460640
vt 0.087670 0.460640
vt 0.087670 0.928000
vt 0.555570 0.469010
vt 0.555570 0.479300
vt 0.566000 0.479300
vt 0.566000 0.469010
vt 0.519720 0.442580
vt 0.529470 0.442580
vt 0.529470 0.432350
vt 0.519720 0.432350
vt 0.049490 0.809580
vt 0.034960 0.809580
vt 0.529470 0.422550
vt 0.519720 0.422550
vt 0.077130 0.970080
vt 0.087670 0.970080
vt 0.024360 0.469010
vt 0.016700 0.469010
vt 0.016700 0.479300
vt 0.519720 0.406010
vt 0.519720 0.414930
vt 0.529470 0.414930
vt 0.529470 0.406010
vt 0.190330 0.460640
vt 0.529470 0.970080
vt 0.519720 0.979120
vt 0.529470 0.979120
vt 0.009710 0.479300
vt 0.009710 0.469010
vt 0.009710 0.809580
vt 0.002680 0.809580
vt 0.002680 0.918070
vt 0.009710 0.918070
vt 0.002680 0.928000
vt 0.009710 0.928000
vt 0.538590 0.469010
vt 0.545980 0.469010
vt 0.545980 0.479300
vt 0.976380 0.020970
vt 0.988400 0.008480
vt 0.983130 0.004720
vt 0.087670 0.406010
vt 0.087670 0.398970
vt 0.077130 0.398970
vt 0.077130 0.406010
vt 0.519720 0.988250
vt 0.529470 0.988250
vt 0.578140 0.918070
vt 0.578140 0.928000
vt 0.585240 0.928000
vt 0.585240 0.918070
vt 0.411770 0.979120
vt 0.411770 0.988250
vt 0.983130 0.455070
vt 0.976320 0.125410
vt 0.992320 0.122130
vt 0.992320 0.014350
vt 0.988420 0.008500
vt 0.543160 0.122130
vt 0.559080 0.125420
vt 0.559050 0.021030
vt 0.543160 0.014350
vt 0.547250 0.009080
vt 0.016700 0.587940
vt 0.087670 0.422550
vt 0.077130 0.422550
vt 0.592330 0.809580
vt 0.585240 0.809580
vt 0.592330 0.918070
vt 0.077130 0.979120
vt 0.087670 0.979120
vt 0.592330 0.928000
vt 0.519720 0.997610
vt 0.529470 0.997610
vt 0.190330 0.997610
vt 0.190330 0.988250
vt 0.087670 0.988250
vt 0.087670 0.997610
vt 0.529470 0.398970
vt 0.519720 0.398970
vt 0.592330 0.479300
vt 0.592330 0.587940
vt 0.599270 0.587940
vt 0.599270 0.479300
vt 0.599270 0.928000
vt 0.599270 0.918070
vt 0.002680 0.469010
vt 0.002680 0.479300
vt 0.578140 0.479300
vt 0.578140 0.469010
vt 0.087670 0.414930
vt 0.077130 0.414930
vt 0.077130 0.988250
vt 0.077130 0.997610
vt 0.547280 0.009050
vt 0.552340 0.004720
vt 0.585240 0.479300
vt 0.585240 0.469010
vt 0.599270 0.469010
vt 0.592330 0.469010
vt 0.024360 0.928000
vt 0.024360 0.918070
vt 0.016700 0.918070
vt 0.016700 0.928000
vt 0.663380 0.021020
vt 0.660040 0.004720
vt 0.555570 0.587940
vt 0.566000 0.587940
vt 0.578140 0.809580
vt 0.566000 0.809580
vt 0.411770 0.414930
vt 0.411770 0.422550
vt 0.009710 0.587940
vt 0.872050 0.020990
vt 0.872010 0.125420
vt 0.660040 0.455110
vt 0.663420 0.438630
vt 0.190330 0.432350
vt 0.190330 0.422550
vt 0.411770 0.947490
vt 0.190330 0.979120
vt 0.190330 0.970080
vt 0.411770 0.406010
vt 0.411770 0.432350
vt 0.411770 0.442580
vt 0.190330 0.406010
vt 0.190330 0.398970
vt 0.190330 0.918070
vt 0.190330 0.809580
vt 0.190330 0.931690
vt 0.190330 0.928000
vt 0.411770 0.453730
vt 0.411770 0.460640
vt 0.190330 0.453730
vt 0.190330 0.442580
vt 0.190330 0.947490
vt 0.190330 0.938270
vt 0.545980 0.587940
vt 0.555570 0.809580
vt 0.555570 0.698770
vt 0.545980 0.698770
vt 0.190330 0.698770
vt 0.190330 0.587940
vt 0.087670 0.587940
vt 0.087670 0.698770
vt 0.871970 0.229840
vt 0.871930 0.334280
vt 0.976190 0.334300
vt 0.976250 0.229860
vt 0.585240 0.587940
vt 0.578140 0.587940
vt 0.578140 0.698770
vt 0.585240 0.698770
vt 0.016700 0.809580
vt 0.016700 0.698770
vt 0.009710 0.698770
vt 0.566000 0.698770
vt 0.592330 0.698770
vt 0.599270 0.809580
vt 0.599270 0.698770
vt 0.024360 0.809580
vt 0.024360 0.698770
vt 0.543160 0.337700
vt 0.559150 0.334200
vt 0.559120 0.229810
vt 0.543160 0.229920
vt 0.992320 0.337700
vt 0.992320 0.229920
vt 0.002680 0.587940
vt 0.002680 0.698770
vt 0.049490 0.698770
vt 0.034960 0.698770
vt 0.519720 0.587940
vt 0.519720 0.698770
vt 0.529470 0.698770
vt 0.538590 0.698770
vt 0.061650 0.698770
vt 0.077130 0.587940
vt 0.077130 0.698770
vt 0.068540 0.587940
vt 0.068540 0.698770
vt 0.663400 0.229830
vt 0.663410 0.334230
vt 0.767670 0.334250
vt 0.767680 0.229830
vt 0.411770 0.698770
vt 0.411770 0.587940
vt 0.301080 0.587940
vt 0.301080 0.698770
vt 0.301080 0.938270
vt 0.301080 0.947490
vt 0.301080 0.453730
vt 0.301080 0.442580
vt 0.411770 0.928000
vt 0.411770 0.918070
vt 0.301080 0.918070
vt 0.301080 0.928000
vt 0.301080 0.460640
vt 0.301080 0.931690
vt 0.411770 0.809580
vt 0.301080 0.809580
vt 0.411770 0.398970
vt 0.301080 0.398970
vt 0.301080 0.406010
vt 0.301080 0.432350
vt 0.190330 0.414930
vt 0.301080 0.414930
vt 0.301080 0.979120
vt 0.301080 0.970080
vt 0.190330 0.960430
vt 0.301080 0.960430
vt 0.301080 0.422550
vt 0.875430 0.455080
vt 0.871890 0.438710
vt 0.767660 0.438670
vt 0.767730 0.455090
vt 0.663390 0.125420
vt 0.767700 0.125420
vt 0.767710 0.021000
vt 0.875430 0.004720
vt 0.767740 0.004720
vt 0.411770 0.997610
vt 0.301080 0.988250
vt 0.301080 0.997610
vt 0.411770 0.469010
vt 0.301080 0.469010
vt 0.411770 0.479300
vt 0.301080 0.479300
s 0
usemtl mat2.297
f 1/1/1 2/2/2 3/3/3
f 3/3/4 4/4/5 1/1/6
f 5/5/7 6/6/8 7/7/9
f 7/7/10 8/8/11 5/5/12
f 9/9/13 10/10/14 11/11/15
f 11/11/16 12/12/17 9/9/18
f 13/13/19 14/14/20 15/15/21
f 15/15/22 16/16/23 13/13/24
f 17/17/25 18/18/26 19/19/27
f 19/19/28 20/20/29 17/17/30
f 6/6/31 5/5/32 21/21/33
f 21/21/34 22/22/35 6/6/36
f 23/23/37 24/24/38 25/25/39
f 25/25/40 26/26/41 23/23/42
f 27/27/43 28/28/44 14/14/45
f 14/14/46 13/13/47 27/27/48
f 29/29/49 30/30/50 31/31/51
f 31/31/52 32/32/53 29/29/54
f 28/28/55 27/27/56 33/33/57
f 33/33/57 34/34/58 28/28/59
f 3/3/60 35/35/61 36/36/62
f 36/36/63 4/4/64 3/3/65
f 37/37/66 38/38/67 39/39/68
f 39/39/68 40/40/69 37/37/70
f 41/41/71 42/42/72 43/43/73
f 43/43/74 44/44/75 41/41/76
f 45/45/77 46/46/78 47/47/79
f 4/4/80 36/36/81 48/48/82
f 48/48/83 49/49/84 4/4/85
f 37/37/86 50/50/87 51/51/88
f 51/51/89 38/38/90 37/37/91
f 52/52/92 53/53/93 54/54/94
f 54/54/95 7/7/96 52/52/97
f 10/10/98 55/55/99 56/56/100
f 56/56/101 11/11/102 10/10/103
f 11/11/104 57/57/105 58/58/106
f 58/58/107 12/12/108 11/11/109
f 59/59/110 9/9/111 12/12/112
f 12/12/113 60/60/114 59/59/115
f 58/58/116 60/60/117 12/12/118
f 61/61/119 62/62/120 42/42/121
f 42/42/122 63/63/123 61/61/124
f 64/64/125 65/65/126 66/66/127
f 66/66/128 67/67/129 64/64/130
f 63/63/131 68/68/132 69/69/133
f 69/69/134 25/25/135 63/63/136
f 41/41/137 68/68/138 63/63/139
f 63/63/140 42/42/141 41/41/142
f 48/48/143 70/70/144 49/49/145
f 46/46/146 71/71/147 72/72/148
f 73/73/149 74/74/150 75/75/151
f 75/75/152 76/76/153 73/73/154
f 77/77/155 78/78/156 40/40/157
f 56/56/158 79/79/159 57/57/160
f 57/57/161 11/11/162 56/56/163
f 44/44/164 43/43/165 80/80/166
f 80/80/167 81/81/168 44/44/169
f 77/77/170 40/40/171 39/39/172
f 81/81/173 76/76/174 75/75/175
f 82/82/176 83/83/177 84/84/178
f 64/64/179 85/85/180 86/86/181
f 86/86/182 65/65/183 64/64/184
f 29/29/185 79/79/186 56/56/187
f 56/56/188 30/30/189 29/29/190
f 19/19/191 87/87/192 88/88/193
f 88/88/194 89/89/195 19/19/196
f 90/90/197 91/91/198 92/92/199
f 92/92/200 78/78/201 90/90/202
f 93/93/203 54/54/204 94/94/205
f 94/94/206 48/48/207 93/93/208
f 95/95/209 96/96/210 70/70/211
f 70/70/212 94/94/213 95/95/214
f 70/70/215 48/48/216 94/94/217
f 85/85/218 97/97/219 98/98/220
f 98/98/221 86/86/222 85/85/223
f 60/60/224 58/58/225 99/99/226
f 100/100/227 101/101/228 102/102/229
f 102/102/230 103/103/231 100/100/232
f 104/104/233 105/105/234 106/106/235
f 106/106/236 107/107/237 104/104/238
f 50/50/239 105/105/240 104/104/241
f 104/104/242 51/51/243 50/50/244
f 30/30/245 108/108/246 109/109/247
f 109/109/247 31/31/248 30/30/189
f 16/16/249 15/15/250 99/99/251
f 99/99/252 58/58/253 16/16/254
f 106/106/255 110/110/256 111/111/257
f 111/111/258 107/107/259 106/106/260
f 17/17/261 35/35/262 3/3/263
f 3/3/264 18/18/265 17/17/261
f 33/33/266 112/112/267 113/113/268
f 113/113/269 34/34/270 33/33/271
f 114/114/272 115/115/273 116/116/274
f 116/116/275 26/26/276 114/114/277
f 117/117/278 118/118/279 119/119/280
f 119/119/281 120/120/282 117/117/283
f 74/74/284 121/121/285 98/98/286
f 98/98/287 75/75/288 74/74/289
f 122/122/290 89/89/291 123/123/292
f 123/123/293 124/124/294 122/122/295
f 125/125/296 116/116/297 115/115/298
f 115/115/299 126/126/300 125/125/301
f 127/127/302 128/128/303 129/129/304
f 129/129/305 130/130/306 127/127/307
f 130/130/308 129/129/309 131/131/310
f 131/131/311 132/132/312 130/130/313
f 98/98/314 97/97/315 81/81/316
f 81/81/317 75/75/318 98/98/319
f 8/8/320 7/7/10 54/54/321
f 54/54/322 93/93/323 8/8/324
f 92/92/325 133/133/326 40/40/327
f 40/40/328 78/78/329 92/92/330
f 76/76/331 81/81/332 80/80/333
f 100/100/334 134/134/335 135/135/336
f 135/135/337 101/101/338 100/100/339
f 136/136/340 137/137/341 138/138/342
f 139/139/343 140/140/344 141/141/345
f 141/141/346 142/142/347 139/139/348
f 124/124/349 123/123/350 143/143/351
f 143/143/352 144/144/353 124/124/354
f 145/145/355 146/146/290 147/147/356
f 147/147/357 148/148/358 145/145/359
f 149/149/360 150/150/361 143/143/362
f 143/143/363 123/123/364 149/149/365
f 69/69/366 114/114/367 26/26/368
f 26/26/369 25/25/370 69/69/371
f 82/82/372 151/151/373 152/83/374
f 153/152/375 154/153/376 155/154/377
f 155/154/378 136/136/379 153/152/380
f 136/136/381 155/154/382 156/155/383
f 157/156/384 158/157/385 159/158/386
f 159/158/387 160/159/388 157/156/389
f 159/158/390 161/160/391 160/159/392
f 162/161/393 23/23/394 26/26/395
f 26/26/396 116/116/397 162/161/398
f 67/67/399 66/66/400 163/162/401
f 163/162/402 164/163/403 67/67/404
f 165/164/405 166/165/406 148/148/407
f 148/148/408 167/166/409 165/164/410
f 112/112/411 168/167/412 169/168/413
f 169/168/414 113/113/415 112/112/416
f 148/148/417 147/147/418 170/169/419
f 170/169/420 167/166/421 148/148/422
f 143/143/423 171/170/424 172/171/425
f 172/171/426 144/144/427 143/143/423
f 173/172/428 174/173/429 175/174/430
f 175/174/431 176/175/432 173/172/433
f 20/20/434 19/19/435 89/89/436
f 89/89/437 122/122/438 20/20/439
f 117/117/440 120/120/441 177/176/442
f 177/176/443 178/177/444 117/117/445
f 179/178/446 180/179/447 181/180/448
f 181/180/449 182/181/450 179/178/451
f 170/169/452 183/182/453 184/183/454
f 184/183/455 167/166/456 170/169/457
f 125/125/458 126/126/459 185/184/460
f 185/184/461 186/185/462 125/125/463
f 103/103/464 102/102/465 187/186/466
f 187/186/467 188/187/468 103/103/469
f 163/162/470 189/188/471 190/189/472
f 190/189/473 164/163/474 163/162/470
f 169/168/475 168/167/476 191/190/477
f 191/190/478 175/174/479 169/168/480
f 191/190/481 192/191/482 176/175/483
f 176/175/484 175/174/485 191/190/486
f 193/192/487 159/158/488 194/193/489
f 21/21/490 146/146/491 145/145/492
f 145/145/493 22/22/494 21/21/33
f 187/186/495 195/194/496 196/195/497
f 196/195/498 188/187/499 187/186/500
f 142/142/501 190/189/502 189/188/503
f 189/188/504 139/139/505 142/142/506
f 179/178/507 182/181/450 197/196/508
f 197/196/509 198/197/510 179/178/511
f 199/198/512 200/199/513 201/200/514
f 201/200/515 202/201/516 199/198/517
f 198/197/282 196/195/518 195/194/519
f 195/194/520 179/178/521 198/197/522
f 159/158/523 203/202/524 204/203/525
f 204/203/526 194/193/527 159/158/528
f 205/204/529 206/205/530 102/102/531
f 102/102/532 101/101/533 205/204/534
f 207/206/535 208/207/536 22/22/537
f 22/22/538 145/145/539 207/206/535
f 209/208/540 210/209/541 111/111/542
f 111/111/543 118/118/544 209/208/545
f 211/210/546 162/161/547 116/116/548
f 116/116/549 125/125/550 211/210/551
f 202/201/552 201/200/553 130/130/554
f 130/130/555 132/132/556 202/201/557
f 166/165/558 207/206/559 145/145/560
f 145/145/561 148/148/562 166/165/563
f 212/211/564 213/212/565 153/152/566
f 153/152/567 136/136/568 212/211/569
f 214/213/570 215/214/571 46/46/572
f 46/46/573 72/72/574 214/213/575
f 216/215/576 217/216/577 163/162/578
f 163/162/579 66/66/580 216/215/576
f 218/217/581 87/87/582 19/19/583
f 19/19/584 18/18/585 218/217/586
f 169/168/587 219/218/588 220/219/589
f 220/219/590 113/113/591 169/168/592
f 221/220/593 209/208/594 118/118/595
f 118/118/596 117/117/597 221/220/598
f 222/221/599 223/222/600 104/104/601
f 104/104/602 107/107/603 222/221/604
f 224/223/605 225/224/606 140/140/607
f 140/140/608 139/139/609 224/223/610
f 111/111/611 110/110/612 119/119/497
f 119/119/613 118/118/614 111/111/615
f 226/225/616 227/226/617 59/59/618
f 59/59/619 60/60/620 226/225/621
f 32/32/622 31/31/248 200/199/623
f 200/199/624 199/198/625 32/32/626
f 15/15/627 228/227/628 229/228/629
f 229/228/630 99/99/631 15/15/632
f 51/51/633 230/229/634 231/230/635
f 231/230/636 38/38/637 51/51/633
f 229/228/638 226/225/639 60/60/640
f 60/60/641 99/99/642 229/228/643
f 86/86/644 232/231/645 233/232/646
f 233/232/647 65/65/648 86/86/649
f 234/233/650 235/234/651 14/14/652
f 14/14/653 28/28/654 234/233/655
f 236/235/656 205/204/657 101/101/658
f 101/101/659 135/135/660 236/235/661
f 92/92/662 135/135/663 134/134/664
f 134/134/665 133/133/666 92/92/667
f 52/52/668 237/236/669 238/237/670
f 238/237/671 239/238/672 52/52/673
f 240/239/674 241/240/675 242/241/676
f 242/241/677 243/242/678 240/239/679
f 244/243/680 245/244/681 246/245/682
f 246/245/683 247/246/684 244/243/685
f 248/247/686 249/248/687 250/249/688
f 250/249/689 251/250/690 248/247/691
f 127/127/692 252/251/693 253/252/694
f 253/252/695 254/253/696 127/127/697
f 249/248/698 206/205/699 255/254/700
f 255/254/701 250/249/702 249/248/698
f 237/236/703 208/207/704 255/254/705
f 255/254/706 238/237/707 237/236/708
f 256/255/709 165/164/710 257/256/711
f 257/256/712 258/257/713 256/255/714
f 180/179/715 248/247/716 251/250/717
f 251/250/718 256/255/719 180/179/720
f 252/251/721 259/258/722 260/259/723
f 260/259/724 253/252/725 252/251/726
f 261/260/727 262/261/728 263/262/729
f 263/262/730 264/263/731 261/260/732
f 246/245/733 265/264/734 266/265/735
f 266/265/736 247/246/737 246/245/738
f 211/210/739 267/266/740 268/267/741
f 268/267/742 254/253/743 211/210/744
f 269/268/745 61/61/746 24/24/747
f 24/24/748 270/269/749 269/268/750
f 90/90/751 271/270/752 272/271/753
f 272/271/754 273/272/755 90/90/756
f 95/95/757 53/53/758 274/273/759
f 274/273/760 273/272/761 95/95/762
f 108/108/763 55/55/764 275/274/765
f 275/274/765 269/268/766 108/108/767
f 242/241/768 276/275/769 277/276/770
f 277/276/771 243/242/772 242/241/773
f 278/277/774 62/62/775 275/274/776
f 275/274/777 279/278/778 278/277/779
f 236/235/780 91/91/781 274/273/782
f 274/273/783 239/238/784 236/235/785
f 259/258/786 109/109/787 270/269/788
f 270/269/788 260/259/789 259/258/790
f 276/275/769 278/277/791 279/278/792
f 279/278/793 277/276/794 276/275/795
f 280/279/796 281/280/681 282/281/797
f 282/281/798 283/282/799 280/279/800
f 284/283/801 285/284/802 286/285/803
f 286/285/804 287/286/805 284/283/806
f 218/217/807 2/2/808 288/287/809
f 288/287/810 289/288/811 218/217/586
f 290/289/812 230/229/813 223/222/814
f 223/222/815 291/290/816 290/289/817
f 292/291/818 293/292/819 294/293/820
f 294/293/821 295/294/822 292/291/823
f 290/289/824 232/231/825 121/121/826
f 121/121/827 296/295/828 290/289/829
f 297/296/830 1/1/831 292/291/832
f 292/291/833 295/294/834 297/296/835
f 293/292/836 298/297/837 299/298/838
f 299/298/839 294/293/820 293/292/840
f 221/220/841 300/299/842 301/300/843
f 301/300/843 302/301/844 221/220/845
f 216/215/846 233/232/647 291/290/847
f 291/290/848 303/302/849 216/215/846
f 224/223/850 304/303/851 305/304/852
f 305/304/853 302/301/854 224/223/855
f 306/305/856 149/149/857 88/88/858
f 88/88/859 307/306/860 306/305/861
f 234/233/862 308/307/863 309/308/864
f 309/308/865 289/288/811 234/233/862
f 222/221/866 210/209/867 310/309/868
f 310/309/869 303/302/870 222/221/866
f 311/310/871 312/311/872 313/312/873
f 313/312/874 314/313/875 311/310/876
f 203/202/877 315/314/878 316/315/879
f 316/315/880 317/316/881 203/202/524
f 304/303/882 217/216/883 310/309/884
f 310/309/885 305/304/886 304/303/887
f 317/316/888 212/211/889 318/317/890
f 318/317/891 319/318/892 317/316/893
f 320/319/890 150/150/894 321/320/895
f 321/320/896 322/321/897 320/319/898
f 219/218/899 174/173/900 321/320/901
f 321/320/902 306/305/903 219/218/904
f 323/322/905 231/230/906 296/295/907
f 296/295/907 324/323/908 323/322/909
f 309/308/910 308/307/911 220/219/912
f 220/219/913 307/306/914 309/308/910
f 325/324/915 323/322/909 324/323/916
f 324/323/917 326/325/918 325/324/919
f 228/227/920 235/234/921 288/287/922
f 288/287/922 297/296/923 228/227/924
f 285/284/925 325/324/926 326/325/927
f 326/325/928 286/285/929 285/284/930
f 281/280/931 215/214/932 313/312/933
f 313/312/933 282/281/934 281/280/934
f 80/80/935 43/43/936 278/277/937
f 278/277/938 276/275/939 80/80/940
f 135/135/941 92/92/942 91/91/943
f 91/91/781 236/235/944 135/135/945
f 43/43/946 42/42/947 62/62/948
f 62/62/949 278/277/950 43/43/951
f 76/76/952 80/80/953 276/275/954
f 276/275/955 242/241/956 76/76/957
f 78/78/958 77/77/959 271/270/960
f 271/270/961 90/90/962 78/78/963
f 61/61/964 63/63/965 25/25/966
f 25/25/967 24/24/968 61/61/969
f 125/125/550 186/185/970 267/266/971
f 267/266/972 211/210/973 125/125/974
f 82/82/975 84/84/976 265/264/977
f 265/264/978 246/245/979 82/82/980
f 47/47/981 46/46/146 262/261/982
f 262/261/983 261/260/971 47/47/984
f 179/178/985 195/194/986 248/247/987
f 248/247/988 180/179/720 179/178/989
f 187/186/990 102/102/991 206/205/992
f 206/205/993 249/248/994 187/186/995
f 195/194/996 187/186/997 249/248/994
f 249/248/998 248/247/999 195/194/1000
f 245/244/1001 312/311/1002 82/82/1003
f 82/82/1004 246/245/738 245/244/1005
f 241/240/1006 73/73/1007 76/76/1008
f 76/76/1009 242/241/676 241/240/1010
f 239/238/1011 238/237/670 205/204/1012
f 205/204/1013 236/235/1014 239/238/1011
f 254/253/1015 253/252/1016 162/161/1017
f 162/161/1018 211/210/973 254/253/1019
f 238/237/1020 255/254/1021 206/205/1022
f 206/205/1023 205/204/1024 238/237/1025
f 180/179/1026 256/255/719 258/257/1027
f 258/257/1028 181/180/1029 180/179/1030
f 253/252/1031 260/259/1032 23/23/1033
f 23/23/1034 162/161/1035 253/252/1036
f 273/272/1037 274/273/1038 91/91/1039
f 91/91/1040 90/90/1041 273/272/1042
f 269/268/1043 275/274/1044 62/62/1045
f 62/62/120 61/61/1046 269/268/1047
f 260/259/1048 270/269/1049 24/24/1050
f 24/24/1051 23/23/1052 260/259/1053
f 315/314/1054 280/279/1055 283/282/1056
f 283/282/1057 316/315/1058 315/314/1059
f 298/297/1060 284/283/1061 287/286/1062
f 287/286/1063 299/298/1064 298/297/1060
f 200/199/1065 31/31/1066 109/109/787
f 109/109/1067 259/258/1068 200/199/1069
f 30/30/50 56/56/1070 55/55/1071
f 55/55/1072 108/108/1073 30/30/1074
f 94/94/1075 54/54/1076 53/53/1077
f 53/53/1078 95/95/1079 94/94/206
f 201/200/1080 200/199/1081 259/258/1082
f 259/258/1083 252/251/1084 201/200/1080
f 165/164/1085 167/166/1086 184/183/1087
f 184/183/1088 257/256/1089 165/164/1090
f 6/6/1091 22/22/1092 208/207/1093
f 208/207/1094 237/236/1095 6/6/1096
f 130/130/1097 201/200/1098 252/251/1099
f 252/251/1100 127/127/1101 130/130/1102
f 7/7/1103 6/6/1104 237/236/1105
f 237/236/1106 52/52/1107 7/7/1108
f 227/226/1109 240/239/1110 243/242/1111
f 243/242/1112 59/59/1113 227/226/1114
f 213/212/1115 244/243/1055 247/246/1116
f 247/246/1117 153/152/1118 213/212/1119
f 251/250/1120 250/249/689 207/206/1121
f 207/206/1122 166/165/1123 251/250/1124
f 250/249/1125 255/254/1126 208/207/1127
f 208/207/1128 207/206/1121 250/249/1129
f 256/255/1130 251/250/1131 166/165/1132
f 166/165/1133 165/164/1134 256/255/1135
f 264/263/1136 263/262/1137 158/157/1138
f 158/157/1139 157/156/1140 264/263/731
f 247/246/1141 266/265/1142 154/153/1143
f 154/153/1144 153/152/375 247/246/1145
f 254/253/1146 268/267/1147 128/128/1148
f 128/128/1149 127/127/1150 254/253/1151
f 108/108/1152 269/268/745 270/269/1153
f 270/269/1049 109/109/1154 108/108/1155
f 273/272/1156 272/271/1157 96/96/1158
f 96/96/1159 95/95/1160 273/272/755
f 243/242/1161 277/276/794 9/9/1162
f 9/9/1163 59/59/1164 243/242/1165
f 279/278/1166 275/274/1167 55/55/1168
f 55/55/1169 10/10/1170 279/278/792
f 239/238/1171 274/273/1172 53/53/1173
f 53/53/1174 52/52/1175 239/238/1176
f 277/276/1177 279/278/1178 10/10/1179
f 10/10/1180 9/9/1181 277/276/1177
f 299/298/1182 287/286/1183 240/239/1184
f 240/239/1185 227/226/1186 299/298/1187
f 158/157/1188 263/262/1189 280/279/1190
f 280/279/1191 315/314/565 158/157/1192
f 286/285/1193 326/325/1194 73/73/1195
f 73/73/154 241/240/1196 286/285/1193
f 262/261/1197 46/46/1198 215/214/1199
f 215/214/932 281/280/1200 262/261/385
f 15/15/1201 14/14/1202 235/234/1203
f 235/234/1204 228/227/1205 15/15/1201
f 308/307/911 34/34/1206 113/113/1207
f 113/113/1208 220/219/1209 308/307/911
f 169/168/1210 175/174/1211 174/173/900
f 174/173/1212 219/218/904 169/168/475
f 189/188/1213 163/162/1214 217/216/1215
f 217/216/1216 304/303/1217 189/188/1218
f 159/158/523 158/157/1219 315/314/1054
f 315/314/1220 203/202/524 159/158/1221
f 28/28/1222 34/34/1223 308/307/1224
f 308/307/1225 234/233/1226 28/28/1227
f 139/139/1228 189/188/1229 304/303/1230
f 304/303/1231 224/223/1232 139/139/1233
f 66/66/1234 65/65/648 233/232/1235
f 233/232/647 216/215/1236 66/66/1237
f 232/231/1238 86/86/1239 98/98/221
f 98/98/1240 121/121/1241 232/231/1242
f 263/262/1243 262/261/1244 281/280/681
f 281/280/931 280/279/1245 263/262/1246
f 287/286/1247 286/285/1248 241/240/1249
f 241/240/1250 240/239/1251 287/286/1252
f 289/288/1253 288/287/1254 235/234/1255
f 235/234/651 234/233/1256 289/288/1257
f 232/231/645 290/289/1258 291/290/1259
f 291/290/1260 233/232/1261 232/231/645
f 295/294/1262 294/293/1263 226/225/621
f 226/225/1264 229/228/1265 295/294/1266
f 228/227/920 297/296/1267 295/294/1268
f 295/294/1269 229/228/630 228/227/1270
f 294/293/820 299/298/1271 227/226/1272
f 227/226/1186 226/225/1273 294/293/1274
f 302/301/1275 301/300/1276 225/224/1277
f 225/224/1278 224/223/1279 302/301/1275
f 219/218/1280 306/305/1281 307/306/1282
f 307/306/1283 220/219/590 219/218/1284
f 303/302/1285 310/309/1286 217/216/1287
f 217/216/1288 216/215/1289 303/302/870
f 314/313/1290 313/312/874 215/214/1291
f 215/214/1199 214/213/1292 314/313/1293
f 203/202/1294 317/316/1295 319/318/1296
f 319/318/1297 204/203/1298 203/202/1299
f 322/321/1300 321/320/1301 174/173/1302
f 174/173/429 173/172/1303 322/321/1304
f 324/323/1305 296/295/1306 121/121/1307
f 121/121/285 74/74/1308 324/323/1309
f 326/325/1310 324/323/1311 74/74/1312
f 74/74/1313 73/73/1314 326/325/1315
f 316/315/1316 283/282/1055 244/243/1317
f 244/243/1318 213/212/1319 316/315/879
f 96/96/1320 272/271/1321 284/283/1322
f 284/283/1323 298/297/1324 96/96/1325
f 282/281/1326 313/312/1327 312/311/1328
f 312/311/1328 245/244/681 282/281/1329
f 271/270/1330 77/77/1331 325/324/915
f 325/324/1332 285/284/1333 271/270/1334
f 77/77/1335 39/39/1336 323/322/1337
f 323/322/909 325/324/1338 77/77/1339
f 39/39/1336 38/38/1340 231/230/1341
f 231/230/1342 323/322/1343 39/39/1344
f 171/170/1345 143/143/1346 150/150/1347
f 150/150/1348 320/319/1349 171/170/1350
f 212/211/564 136/136/1351 138/138/1352
f 138/138/1353 318/317/891 212/211/1354
f 151/151/1355 82/82/1356 312/311/1357
f 312/311/1358 311/310/1359 151/151/1360
f 107/107/1361 111/111/1362 210/209/1363
f 210/209/1364 222/221/1365 107/107/1366
f 149/149/1367 123/123/1368 89/89/1369
f 89/89/1370 88/88/1371 149/149/1372
f 117/117/1373 178/177/1374 300/299/1375
f 300/299/1376 221/220/1377 117/117/1378
f 70/70/1379 96/96/1380 298/297/1381
f 298/297/1382 293/292/1383 70/70/1384
f 1/1/831 4/4/1385 49/49/1386
f 49/49/1387 292/291/1388 1/1/1389
f 49/49/1390 70/70/1391 293/292/1392
f 293/292/1393 292/291/1394 49/49/1395
f 230/229/1396 51/51/633 104/104/1397
f 104/104/602 223/222/814 230/229/1396
f 18/18/1398 3/3/1399 2/2/808
f 2/2/1400 218/217/1401 18/18/1398
f 272/271/1402 271/270/1403 285/284/1404
f 285/284/1405 284/283/1406 272/271/1407
f 283/282/1408 282/281/1409 245/244/1001
f 245/244/1410 244/243/1411 283/282/1412
f 230/229/1413 290/289/1414 296/295/1415
f 296/295/1415 231/230/1416 230/229/1413
f 303/302/1417 291/290/848 223/222/815
f 223/222/1418 222/221/1419 303/302/1420
f 302/301/1421 305/304/1422 209/208/1423
f 209/208/594 221/220/1424 302/301/854
f 289/288/811 309/308/1425 87/87/1426
f 87/87/192 218/217/807 289/288/1427
f 317/316/1428 316/315/1429 213/212/1430
f 213/212/1431 212/211/1432 317/316/1433
f 305/304/1434 310/309/1435 210/209/1436
f 210/209/1437 209/208/1438 305/304/1439
f 306/305/903 321/320/1440 150/150/1441
f 150/150/1442 149/149/1443 306/305/1444
f 87/87/1445 309/308/910 307/306/1446
f 307/306/1447 88/88/1448 87/87/582
f 297/296/1449 288/287/1450 2/2/1451
f 2/2/1452 1/1/1453 297/296/835
