# Blender 4.2.3 LTS
# www.blender.org
mtllib candle.mtl
o dynamic
v 13345.907227 -3997.158691 1051.496338
v 13382.690430 -3995.066895 1094.031372
v 13393.575195 -4003.022949 1085.009766
v 13356.791992 -4005.114258 1042.474243
v 13339.158203 -4011.270508 1055.797607
v 13375.942383 -4009.178955 1098.333130
v 13356.791992 -4005.114258 1042.474243
v 13393.575195 -4003.022949 1085.009766
v 13386.826172 -4017.134521 1089.311035
v 13350.042969 -4019.226562 1046.775269
v 13350.042969 -4019.226562 1046.775269
v 13356.791992 -4005.114258 1042.474243
v 13442.500000 -4019.037842 1187.331055
v 13453.385742 -4026.993652 1178.308960
v 13460.134766 -4012.881836 1174.007690
v 13449.249023 -4004.925781 1183.029785
v 13410.198242 -4011.815674 1141.989258
v 13442.500000 -4019.037842 1187.331055
v 13416.946289 -3997.704346 1137.687988
v 13421.083008 -4019.770996 1132.967529
v 13453.385742 -4026.993652 1178.308960
v 13427.831055 -4005.659668 1128.666016
v 13460.134766 -4012.881836 1174.007690
v 13427.831055 -4005.659668 1128.666016
v 13127.100586 -4057.432861 886.509888
v 13098.872070 -4052.273438 859.191101
v 13103.271484 -4066.867920 861.880188
v 13121.832031 -4054.272461 888.656067
v 13144.085938 -4081.524414 875.164185
v 13124.598633 -4079.494141 841.525085
v 13147.750000 -4081.509766 871.235168
v 12633.799805 -3905.229736 -39.732685
v 12632.483398 -3945.072021 -41.844894
v 12551.984375 -3932.467041 21.756344
v 12472.681641 -3960.828369 81.479317
v 12470.848633 -3920.254639 85.376945
v 12620.567383 -3983.383545 -35.172256
v 12480.335938 -3881.029785 80.959061
v 12596.086914 -3842.632324 -5.950232
v 12619.914062 -3869.841553 -26.573160
v 12509.305664 -4023.031006 49.329372
v 12486.504883 -3996.344971 68.446129
v 12571.359375 -4032.559570 -0.371498
v 12539.514648 -4034.819824 24.466732
v 12532.162109 -3831.080566 44.067738
v 12564.870117 -3829.703613 18.748636
v 12598.828125 -4013.504150 -20.725142
v 12502.468750 -3850.159180 65.600288
v 13115.860352 -4079.819092 853.983337
v 13294.625977 -4079.403809 1091.881226
v 13223.332031 -4068.766846 1010.940247
v 13212.952148 -4081.771240 1019.631470
v 13284.424805 -4092.033936 1100.458130
v 13313.541992 -4070.906494 1134.564331
v 13320.737305 -4071.133789 1143.038818
v 13300.767578 -4033.787842 1147.963989
v 13293.545898 -4033.358643 1139.628174
v 13287.150391 -4068.665771 1100.806885
v 13267.338867 -4031.105225 1106.130371
v 13290.217773 -3991.409180 1143.020874
v 13264.040039 -3989.125732 1109.565552
v 13297.438477 -3992.069336 1151.325806
v 13309.337891 -3952.121826 1148.563843
v 13302.170898 -3951.240723 1140.208862
v 13275.949219 -3948.920898 1106.679810
v 13326.228516 -3920.531250 1146.211792
v 13318.908203 -3919.500977 1137.649536
v 13313.082031 -3914.768311 1148.636230
v 13320.174805 -3915.720703 1157.046021
v 13219.600586 -3908.653076 1013.675171
v 13203.100586 -3923.928467 1023.435181
v 13201.369141 -3916.391602 1039.844360
v 13215.763672 -3903.190918 1031.432373
v 13325.792969 -3918.970215 1126.124878
v 13332.834961 -3920.026855 1134.566895
v 13365.860352 -3901.216797 1115.094971
v 13358.974609 -3900.054199 1106.517822
v 13299.563477 -3916.623291 1092.550781
v 13332.702148 -3897.686523 1072.840210
v 13398.545898 -3898.469727 1087.881348
v 13372.125977 -3896.084229 1053.960571
v 13405.289062 -3899.652832 1096.650146
v 13442.198242 -3914.059570 1077.833740
v 13435.590820 -3912.945312 1068.878906
v 13409.037109 -3910.556396 1034.736206
v 13461.133789 -3940.572021 1047.951050
v 13434.588867 -3938.203613 1013.777161
v 13467.609375 -3941.535156 1057.022583
v 13478.098633 -3977.906006 1039.590698
v 13471.719727 -3977.150879 1030.473022
v 13445.282227 -3974.821045 996.412231
v 13466.341797 -4017.874268 1022.115540
v 13440.040039 -4015.589111 988.227295
v 13472.687500 -4018.395996 1031.220337
v 13466.341797 -4017.874268 1022.115540
v 13472.687500 -4018.395996 1031.220337
v 13454.642578 -4057.085205 1031.830200
v 13448.261719 -4056.786377 1022.798401
v 13440.040039 -4015.589111 988.227295
v 13422.103516 -4054.546387 989.109070
v 13329.109375 -4018.541992 1073.468384
v 13332.977539 -4035.537598 1069.707886
v 13351.214844 -4038.163086 1054.213013
v 13352.860352 -4021.959229 1053.850586
v 13338.670898 -4045.583496 1065.426025
v 13350.812500 -4048.962891 1054.945312
v 13363.585938 -4049.385010 1045.003418
v 13370.276367 -4041.173340 1039.868408
v 13377.436523 -4025.818359 1035.363892
v 13422.109375 -4088.008545 1032.030273
v 13396.063477 -4085.804443 998.520203
v 13428.584961 -4088.128906 1040.937866
v 13400.345703 -4107.118652 1062.218262
v 13393.699219 -4107.103027 1053.429565
v 13367.620117 -4104.912598 1019.925842
v 13367.470703 -4110.703613 1087.653687
v 13341.157227 -4108.497559 1053.901489
v 13374.355469 -4110.706543 1096.370361
v 13348.286133 -4098.353027 1128.037109
v 13341.191406 -4098.274902 1119.407715
v 13314.696289 -4096.044922 1085.475220
v 13358.519531 -4080.618164 1124.744507
v 13350.541016 -4097.048340 1129.607056
v 13376.122070 -4109.202148 1098.314697
v 13378.659180 -4090.499268 1097.873291
v 13323.356445 -4070.250244 1144.281494
v 13303.587891 -4033.478027 1148.987671
v 13300.767578 -4033.787842 1147.963989
v 13320.737305 -4071.133789 1143.038818
v 13330.790039 -4079.318115 1143.417969
v 13325.280273 -4079.709961 1137.767212
v 13315.076172 -4096.238281 1149.778931
v 13320.584961 -4095.846436 1155.429565
v 13300.272461 -3992.402588 1152.290527
v 13311.996094 -3953.068359 1149.627930
v 13309.337891 -3952.121826 1148.563843
v 13297.438477 -3992.069336 1151.325806
v 13335.143555 -3921.461426 1135.868286
v 13367.706055 -3902.944092 1116.738159
v 13365.860352 -3901.216797 1115.094971
v 13332.834961 -3920.026855 1134.566895
v 13329.537109 -3922.050537 1148.081299
v 13326.228516 -3920.531250 1146.211792
v 13320.174805 -3915.720703 1157.046021
v 13324.998047 -3917.071777 1161.307739
v 13406.630859 -3901.427734 1098.696289
v 13443.069336 -3915.635986 1080.275024
v 13442.198242 -3914.059570 1077.833740
v 13405.289062 -3899.652832 1096.650146
v 13468.110352 -3942.690430 1059.782349
v 13478.381836 -3978.486084 1042.550171
v 13478.098633 -3977.906006 1039.590698
v 13467.609375 -3941.535156 1057.022583
v 13472.952148 -4018.332520 1034.231445
v 13455.080078 -4056.407959 1034.739136
v 13454.642578 -4057.085205 1031.830200
v 13472.687500 -4018.395996 1031.220337
v 13429.367188 -4086.963623 1043.600464
v 13401.590820 -4105.660156 1064.540527
v 13400.345703 -4107.118652 1062.218262
v 13428.584961 -4088.128906 1040.937866
v 13348.286133 -4098.353027 1128.037109
v 13374.355469 -4110.706543 1096.370361
v 13325.846680 -4035.810791 1079.134888
v 13318.956055 -4017.596436 1084.707397
v 13319.040039 -4021.959717 1108.684692
v 13330.659180 -4045.137695 1104.574097
v 13347.197266 -4061.989502 1094.657227
v 13336.589844 -4054.775391 1129.571411
v 13357.883789 -4075.236816 1119.232300
v 13320.525391 -4026.645996 1131.892822
v 13320.038086 -4027.556885 1135.723022
v 13336.853516 -4056.705811 1133.544189
v 13359.026367 -4077.911865 1122.970093
v 13316.598633 -3995.831055 1111.339478
v 13317.535156 -3995.201172 1134.472412
v 13326.498047 -3965.035156 1133.122070
v 13326.305664 -3963.790527 1136.903442
v 13316.958008 -3995.002441 1138.315186
v 13323.282227 -3970.627441 1109.729858
v 13337.846680 -3950.246826 1100.839966
v 13344.449219 -3940.729736 1122.970825
v 13370.020508 -3926.577637 1108.866211
v 13371.265625 -3924.009033 1111.716553
v 13344.846680 -3938.648438 1126.330688
v 13358.580078 -3938.162109 1087.994385
v 13382.980469 -3936.944824 1075.107422
v 13400.964844 -3925.709229 1096.240723
v 13429.901367 -3936.892334 1083.131958
v 13433.372070 -3934.667969 1085.356689
v 13403.352539 -3923.106445 1098.780151
v 13405.829102 -3945.987061 1062.107544
v 13421.900391 -3963.571045 1048.817627
v 13449.362305 -3957.649414 1067.385864
v 13456.643555 -3984.887695 1053.472534
v 13460.994141 -3984.325684 1054.611938
v 13453.488281 -3956.136719 1069.076172
v 13428.656250 -3986.726807 1038.609863
v 13425.130859 -4012.125488 1034.733032
v 13451.185547 -4015.139893 1046.269653
v 13436.221680 -4044.062256 1045.655151
v 13439.925781 -4045.613281 1046.380493
v 13455.394531 -4015.656494 1047.088135
v 13413.989258 -4036.254395 1036.389282
v 13398.583984 -4055.696533 1042.562622
v 13416.017578 -4067.341309 1051.306885
v 13395.142578 -4081.654541 1067.096558
v 13397.259766 -4084.527832 1068.572144
v 13418.907227 -4069.710693 1052.166382
v 13381.408203 -4067.597168 1055.415771
v 13364.281250 -4069.751221 1075.614014
v 13376.733398 -4084.446045 1094.252319
v 13378.389648 -4087.436035 1096.933472
v 13332.461914 -3978.780762 1073.551636
v 13328.728516 -3998.535156 1075.077148
v 13355.407227 -4002.613525 1053.184570
v 13358.178711 -3982.940674 1052.375000
v 13382.978516 -4006.770264 1032.435547
v 13384.877930 -3986.815430 1032.387207
v 13348.822266 -3953.910889 1063.041992
v 13340.326172 -3962.601562 1068.590210
v 13360.565430 -3965.888916 1051.831299
v 13362.584961 -3954.366943 1052.103271
v 13381.759766 -3968.975830 1036.240967
v 13376.343750 -3958.140381 1041.809937
v 13398.329102 -4087.493408 1068.617188
v 12591.543945 -4034.421143 25.478483
v 13157.910156 -4086.654785 750.807251
v 13129.765625 -4090.092773 782.625122
v 12559.825195 -4036.721924 50.556946
v 12530.480469 -4024.974365 76.591133
v 12640.898438 -3985.200928 -9.230154
v 13211.370117 -4036.198730 718.677185
v 13186.419922 -4067.551270 729.486572
v 12619.048828 -4015.364014 5.091228
v 12654.386719 -3906.985596 -13.492451
v 13232.053711 -3956.256592 722.778687
v 13228.000977 -3997.127686 716.119507
v 12652.976562 -3946.863281 -15.761232
v 12652.976562 -3946.863281 -15.761232
v 13228.000977 -3997.127686 716.119507
v 12616.700195 -3844.328857 20.414230
v 13195.098633 -3891.929688 760.189392
v 13220.545898 -3919.568115 739.097290
v 12640.583008 -3871.552490 -0.224567
v 12552.443359 -3832.740234 70.144806
v 13121.529297 -3879.300049 801.844910
v 13159.493164 -3877.571533 781.091370
v 12585.332031 -3831.350830 44.982933
v 12500.478516 -3882.736084 106.969475
v 13065.649414 -3930.611328 836.804749
v 13088.998047 -3898.290527 822.334900
v 12522.653320 -3851.815186 91.641472
v 12492.797852 -3962.616943 107.462471
v 13057.250977 -4012.814453 836.527649
v 13054.199219 -3970.855957 840.276978
v 12490.922852 -3921.995850 111.355225
v 13176.617188 -4088.283691 774.813782
v 13300.560547 -4099.074219 933.868103
v 13273.559570 -4102.612305 967.153625
v 13148.622070 -4091.735107 806.824036
v 13246.699219 -4090.124756 998.214417
v 13230.167969 -4037.835449 742.800964
v 13354.716797 -4048.679443 902.633667
v 13329.025391 -4079.967529 912.489929
v 13205.120117 -4069.179688 753.485291
v 13251.076172 -3957.913086 747.189575
v 13377.105469 -3968.885254 908.921875
v 13372.240234 -4009.686035 901.220398
v 13246.916992 -3998.774902 740.393433
v 13372.240234 -4009.686035 901.220398
v 13246.916992 -3998.774902 740.393433
v 13214.183594 -3893.591553 784.681763
v 13340.635742 -3904.600830 946.955078
v 13367.958008 -3935.152344 922.035034
v 13239.639648 -3921.230713 763.601685
v 13140.368164 -3880.940674 826.019470
v 13265.180664 -3891.807373 986.189819
v 13304.138672 -3890.165527 966.713684
v 13178.462891 -3879.223389 805.433899
v 13084.409180 -3932.244385 860.878906
v 13208.701172 -3943.065918 1020.381592
v 13232.232422 -3910.761475 1006.145935
v 13107.782227 -3899.926025 846.439636
v 13312.357422 -3937.736816 1157.892212
v 13322.497070 -3958.372314 1151.987915
v 13320.621094 -3948.435303 1163.513062
v 13310.791016 -3929.984131 1169.368652
v 13075.991211 -4014.446045 860.577454
v 13200.157227 -4025.256592 1019.918396
v 13196.938477 -3983.283691 1023.453613
v 13072.916992 -3972.486084 864.298462
v 13333.297852 -4091.818848 1123.631714
v 13341.460938 -4092.742676 1134.601562
v 13329.206055 -4109.092285 1143.980591
v 13323.094727 -4108.347168 1135.643799
v 13318.176758 -4078.734131 1128.331055
v 13307.973633 -4095.262451 1140.343384
v 13219.468750 -4062.773193 1013.951538
v 13420.816406 -4072.138184 1051.573853
v 13442.537109 -4047.151611 1045.428955
v 13458.376953 -4016.074951 1046.017456
v 13463.984375 -3983.568604 1053.691040
v 13456.129883 -3954.329346 1068.582764
v 13435.330078 -3932.087402 1085.444458
v 13404.356445 -3920.153809 1099.474365
v 13371.256836 -3921.135986 1113.033569
v 13343.984375 -3936.311523 1128.268921
v 13276.685547 -3936.236084 1109.831909
v 13272.606445 -3929.781250 1115.230103
v 13324.820312 -3962.349854 1139.298950
v 13315.125000 -3994.683838 1140.861206
v 13318.256836 -4028.419189 1138.194092
v 13335.584961 -4058.632324 1135.800781
v 13309.729492 -4092.571777 1087.207153
v 13299.527344 -4105.201660 1095.784180
v 13367.470703 -4053.400879 1044.297607
v 13352.053711 -4054.832520 1057.271484
v 13337.170898 -4048.730957 1070.150513
v 13390.665039 -4028.396240 1028.336914
v 13380.368164 -4044.080322 1034.765015
v 13399.505859 -3988.250244 1025.082886
v 13397.853516 -4008.913574 1024.551636
v 13381.617188 -3955.178955 1041.718872
v 13393.654297 -3969.207031 1031.340332
v 13347.701172 -3949.955322 1067.080933
v 13365.166016 -3948.491211 1054.248657
v 13321.623047 -3976.323242 1085.461792
v 13332.458984 -3959.790527 1078.113525
v 13317.232422 -3996.687500 1087.297852
v 12507.579102 -3998.269531 95.657425
v 12486.504883 -3996.344971 68.446129
v 12509.305664 -4023.031006 49.329372
v 13238.120117 -4081.909668 1005.864319
v 13343.562500 -4091.987793 1136.420166
v 13341.460938 -4092.742676 1134.601562
v 13349.372070 -4083.153564 1135.510986
v 13325.280273 -4079.709961 1137.767212
v 13338.587891 -4073.002441 1140.330078
v 13315.076172 -4096.238281 1149.778931
v 13333.360352 -4108.515625 1148.432495
v 13329.206055 -4109.092285 1143.980591
v 13227.739258 -4094.913818 1014.555176
v 13328.384766 -4089.531006 1152.342163
v 13339.168945 -4099.682129 1147.523193
v 13127.884766 -4107.055176 879.732849
v 13104.578125 -4089.461914 897.266968
v 13100.169922 -4079.764893 874.094971
v 13112.758789 -4092.716064 866.197937
v 13298.589844 -3927.948730 1156.901367
v 13287.083984 -3916.587891 1106.924194
v 13305.756836 -3928.829834 1165.255859
v 13305.756836 -3928.829834 1165.255859
v 13339.785156 -3922.396973 1152.483276
v 13344.399414 -3928.661377 1139.382812
v 13308.923828 -3936.598389 1156.380737
v 13301.580078 -3935.662598 1147.913940
v 13308.923828 -3936.598389 1156.380737
v 13293.994141 -3920.060059 1099.523560
v 12472.681641 -3960.828369 81.479317
v 12470.848633 -3920.254639 85.376945
v 12480.335938 -3881.029785 80.959061
v 12502.468750 -3850.159180 65.600288
v 12532.162109 -3831.080566 44.067738
v 12564.870117 -3829.703613 18.748636
v 12596.086914 -3842.632324 -5.950232
v 12619.914062 -3869.841553 -26.573160
v 12633.799805 -3905.229736 -39.732685
v 12632.483398 -3945.072021 -41.844894
v 12620.567383 -3983.383545 -35.172256
v 12632.483398 -3945.072021 -41.844894
v 12598.828125 -4013.504150 -20.725142
v 12571.359375 -4032.559570 -0.371498
v 12539.514648 -4034.819824 24.466732
vn 0.2972 0.3168 -0.9007
vn 0.0587 -0.2295 -0.9715
vn -0.9092 0.3775 -0.1757
vn 0.2970 0.3171 -0.9007
vn -0.5136 0.8254 -0.2343
vn 0.9771 0.2113 0.0265
vn 0.9114 -0.3849 0.1458
vn 0.0591 -0.2295 -0.9715
vn 0.9771 0.2111 0.0266
vn 0.2971 0.3171 -0.9006
vn -0.5134 0.8255 -0.2345
vn -0.9091 0.3776 -0.1758
vn -0.0871 0.2412 0.9666
vn -0.0871 0.2413 0.9665
vn 0.1815 0.7100 0.6804
vn 0.1816 0.7101 0.6803
vn 0.9771 0.2112 0.0264
vn 0.2973 0.3169 -0.9006
vn 0.1817 0.7102 0.6801
vn 0.2972 0.3173 -0.9006
vn -0.5136 0.8254 -0.2342
vn 0.5619 -0.7797 0.2762
vn -0.2348 -0.2798 0.9309
vn -0.9661 -0.2552 0.0381
vn -0.9661 -0.2555 0.0379
vn -0.1566 -0.7628 -0.6274
vn -0.0871 0.2414 0.9665
vn 0.9115 -0.3846 0.1458
vn 0.1816 0.7101 0.6802
vn 0.9115 -0.3847 0.1454
vn 0.9771 0.2113 0.0267
vn 0.9364 -0.3251 0.1318
vn 0.5623 -0.7795 0.2762
vn -0.1566 -0.7629 -0.6272
vn 0.9365 -0.3249 0.1317
vn -0.1566 -0.7630 -0.6271
vn 0.0336 -0.2912 -0.9561
vn -0.0620 0.3006 0.9517
vn -0.2347 -0.2801 0.9308
vn -0.0617 0.3008 0.9517
vn 0.5620 -0.7798 0.2760
vn 0.9365 -0.3251 0.1315
vn -0.9350 0.3163 -0.1602
vn -0.9661 -0.2552 0.0377
vn -0.2347 -0.2801 0.9309
vn -0.9351 0.3161 -0.1604
vn -0.0613 0.3007 0.9517
vn 0.0333 -0.2913 -0.9561
vn -0.9351 0.3165 -0.1597
vn 0.0338 -0.2913 -0.9560
vn 0.0591 -0.2297 -0.9715
vn 0.9365 -0.3251 0.1316
vn 0.0335 -0.2910 -0.9561
vn 0.0591 -0.2294 -0.9715
vn 0.9365 -0.3250 0.1319
vn 0.0590 -0.2296 -0.9715
vn 0.9110 -0.3856 0.1461
vn -0.0616 0.3008 0.9517
vn 0.9365 -0.3253 0.1309
vn 0.9113 -0.3849 0.1459
vn -0.0616 0.3007 0.9517
vn 0.9113 -0.3849 0.1460
vn -0.0875 0.2418 0.9664
vn -0.9351 0.3162 -0.1601
vn -0.0613 0.3006 0.9518
vn -0.0872 0.2414 0.9665
vn -0.9352 0.3161 -0.1599
vn -0.0872 0.2415 0.9665
vn 0.0339 -0.2910 -0.9561
vn -0.1567 -0.7628 -0.6274
vn -0.9662 -0.2551 0.0377
vn 0.0337 -0.2909 -0.9561
vn -0.9661 -0.2553 0.0379
vn -0.9351 0.3161 -0.1603
vn 0.9359 -0.3508 0.0315
vn 0.9043 -0.1805 0.3868
vn 0.9387 0.3376 -0.0704
vn 0.9042 -0.1805 0.3871
vn 0.9358 -0.3511 0.0313
vn 0.8090 -0.1924 0.5554
vn -0.0747 0.3226 0.9436
vn 0.5385 0.1201 0.8340
vn 0.4185 0.0544 0.9066
vn -0.4540 0.8545 -0.2525
vn -0.3876 0.9209 0.0414
vn 0.3728 0.8987 -0.2310
vn 0.9379 0.3462 -0.0233
vn 0.9087 0.2965 -0.2939
vn 0.3727 0.8987 -0.2311
vn -0.3878 0.9208 0.0416
vn -0.2639 0.9243 0.2759
vn 0.3729 0.8987 -0.2310
vn 0.9087 0.2965 -0.2940
vn 0.7816 0.2641 -0.5651
vn -0.2125 0.6370 -0.7410
vn -0.3651 0.7590 -0.5391
vn 0.7079 0.5522 0.4404
vn 0.8670 0.4448 0.2245
vn 0.3728 0.8987 -0.2311
vn -0.3648 0.7590 -0.5393
vn -0.4542 0.8544 -0.2525
vn 0.3726 0.8987 -0.2311
vn 0.1993 0.7991 0.5672
vn 0.4767 0.6898 0.5449
vn 0.8670 0.4448 0.2246
vn 0.9380 0.3458 -0.0235
vn 0.3727 0.8987 -0.2310
vn 0.2781 0.3958 -0.8752
vn 0.0135 0.5245 -0.8513
vn 0.4766 0.6898 0.5450
vn 0.7079 0.5525 0.4401
vn 0.0132 0.5246 -0.8512
vn -0.2125 0.6369 -0.7411
vn 0.3725 0.8988 -0.2310
vn -0.2638 0.9243 0.2758
vn -0.0617 0.8912 0.4495
vn 0.3727 0.8987 -0.2312
vn 0.7818 0.2637 -0.5651
vn 0.5543 0.3189 -0.7688
vn -0.0618 0.8913 0.4493
vn 0.1991 0.7990 0.5674
vn 0.3726 0.8988 -0.2310
vn 0.5542 0.3190 -0.7688
vn 0.2781 0.3959 -0.8752
vn 0.5384 0.1201 0.8341
vn -0.0745 0.3226 0.9436
vn 0.3927 0.7569 0.5225
vn 0.9025 -0.4063 -0.1429
vn 0.9045 -0.4203 -0.0730
vn 0.8845 -0.4638 -0.0514
vn 0.9024 -0.4065 -0.1430
vn 0.8844 -0.4638 -0.0515
vn 0.9280 -0.3649 -0.0751
vn 0.8493 -0.2537 0.4629
vn 0.7664 -0.4730 0.4346
vn 0.7817 -0.5923 0.1952
vn 0.8493 -0.2538 0.4628
vn 0.7816 -0.5925 0.1951
vn 0.9147 -0.3645 0.1745
vn 0.8486 -0.2314 0.4756
vn 0.8494 -0.2538 0.4628
vn 0.9147 -0.3647 0.1741
vn 0.8486 -0.2314 0.4757
vn 0.9147 -0.3648 0.1740
vn 0.9241 -0.3413 0.1718
vn 0.9240 -0.3416 0.1718
vn 0.9145 -0.3650 0.1744
vn 0.8788 -0.4420 -0.1799
vn 0.9240 -0.3417 0.1720
vn 0.8786 -0.4422 -0.1801
vn 0.8887 -0.4190 -0.1862
vn 0.9146 -0.3649 0.1743
vn 0.7818 -0.5923 0.1950
vn 0.7414 -0.6624 -0.1072
vn 0.9145 -0.3650 0.1745
vn 0.7413 -0.6625 -0.1074
vn 0.8788 -0.4420 -0.1797
vn 0.8788 -0.4419 -0.1801
vn 0.7412 -0.6627 -0.1070
vn 0.7958 -0.6040 0.0441
vn 0.8789 -0.4418 -0.1800
vn 0.7960 -0.6037 0.0439
vn 0.9023 -0.4173 -0.1084
vn 0.8887 -0.4187 -0.1867
vn 0.9023 -0.4173 -0.1085
vn 0.8887 -0.4188 -0.1865
vn 0.9039 -0.4069 -0.1320
vn -0.4854 -0.1570 -0.8601
vn -0.3430 -0.0914 -0.9349
vn -0.0407 -0.2052 -0.9779
vn -0.4854 -0.1573 -0.8600
vn -0.1113 -0.3325 -0.9365
vn 0.1188 0.5724 -0.8113
vn 0.8506 0.4890 -0.1931
vn 0.9583 -0.1260 -0.2566
vn 0.1187 0.5723 -0.8114
vn 0.9583 -0.1261 -0.2564
vn 0.1069 -0.0083 -0.9942
vn 0.0701 -0.2837 -0.9563
vn -0.1067 -0.4455 -0.8889
vn -0.0291 -0.5296 -0.8477
vn 0.0699 -0.2838 -0.9563
vn -0.0293 -0.5297 -0.8477
vn 0.0372 -0.2904 -0.9562
vn 0.0718 -0.2749 -0.9588
vn 0.0372 -0.2905 -0.9561
vn 0.0718 -0.2748 -0.9588
vn 0.0436 -0.2660 -0.9630
vn 0.0434 -0.2662 -0.9629
vn 0.0373 -0.2908 -0.9561
vn -0.3238 -0.1363 -0.9362
vn 0.0434 -0.2663 -0.9629
vn -0.3238 -0.1363 -0.9363
vn -0.3189 -0.1099 -0.9414
vn 0.0373 -0.2907 -0.9561
vn -0.0288 -0.5297 -0.8477
vn -0.3638 -0.4021 -0.8402
vn 0.0371 -0.2907 -0.9561
vn -0.3640 -0.4023 -0.8400
vn -0.3238 -0.1365 -0.9362
vn -0.3237 -0.1360 -0.9363
vn -0.3638 -0.4023 -0.8401
vn -0.6776 -0.2480 -0.6923
vn -0.3237 -0.1362 -0.9363
vn -0.6776 -0.2482 -0.6923
vn -0.6224 0.0263 -0.7823
vn -0.3187 -0.1097 -0.9415
vn -0.6216 0.0259 -0.7829
vn -0.6141 0.0523 -0.7875
vn -0.6146 0.0528 -0.7871
vn -0.6224 0.0262 -0.7823
vn -0.8398 0.1868 -0.5098
vn -0.8397 0.1867 -0.5099
vn -0.8311 0.2106 -0.5148
vn -0.6222 0.0266 -0.7824
vn -0.6780 -0.2479 -0.6920
vn -0.9112 -0.0740 -0.4052
vn -0.9111 -0.0740 -0.4055
vn -0.8398 0.1870 -0.5097
vn -0.8399 0.1867 -0.5097
vn -0.9112 -0.0737 -0.4054
vn -0.9973 0.0723 -0.0122
vn -0.8398 0.1868 -0.5097
vn -0.9973 0.0723 -0.0120
vn -0.9371 0.3275 -0.1205
vn -0.8311 0.2100 -0.5149
vn -0.8397 0.1866 -0.5099
vn -0.9371 0.3276 -0.1203
vn -0.8311 0.2101 -0.5149
vn -0.9371 0.3278 -0.1202
vn -0.9284 0.3505 -0.1232
vn -0.9283 0.3507 -0.1234
vn -0.9371 0.3277 -0.1205
vn -0.8705 0.4037 0.2817
vn -0.9283 0.3508 -0.1235
vn -0.8705 0.4036 0.2816
vn -0.8626 0.4273 0.2708
vn -0.9370 0.3278 -0.1207
vn -0.9973 0.0722 -0.0122
vn -0.9151 0.1425 0.3773
vn -0.9150 0.1424 0.3775
vn -0.8706 0.4036 0.2813
vn -0.8705 0.4036 0.2819
vn -0.9149 0.1430 0.3775
vn -0.7349 0.1428 0.6630
vn -0.8705 0.4036 0.2818
vn -0.7349 0.1430 0.6629
vn -0.6950 0.4102 0.5905
vn -0.8626 0.4272 0.2710
vn -0.8704 0.4038 0.2817
vn -0.6951 0.4101 0.5905
vn -0.8626 0.4273 0.2709
vn -0.6950 0.4101 0.5906
vn -0.6884 0.4344 0.5809
vn -0.4829 -0.8528 0.1986
vn -0.5404 -0.8361 0.0948
vn -0.3941 -0.9001 0.1858
vn -0.4830 -0.8528 0.1988
vn -0.3939 -0.9002 0.1854
vn -0.3770 -0.8989 0.2232
vn -0.5402 -0.8362 0.0943
vn -0.5509 -0.8328 -0.0545
vn -0.4651 -0.8832 -0.0601
vn -0.5404 -0.8361 0.0942
vn -0.4650 -0.8833 -0.0601
vn -0.3943 -0.9000 0.1860
vn -0.3942 -0.9001 0.1854
vn -0.4650 -0.8833 -0.0597
vn -0.3709 -0.9278 -0.0401
vn -0.3942 -0.9001 0.1858
vn -0.3710 -0.9278 -0.0399
vn -0.3009 -0.9486 0.0984
vn -0.3768 -0.8990 0.2231
vn -0.3943 -0.9000 0.1859
vn -0.3009 -0.9486 0.0983
vn -0.3769 -0.8990 0.2231
vn -0.3009 -0.9486 0.0985
vn -0.2875 -0.9418 0.1743
vn -0.6884 0.4345 0.5808
vn -0.6950 0.4103 0.5905
vn -0.4324 0.3624 0.8256
vn -0.4325 0.3624 0.8256
vn -0.4249 0.3856 0.8190
vn -0.6950 0.4103 0.5904
vn -0.4963 0.1071 0.8615
vn -0.6951 0.4102 0.5904
vn -0.4964 0.1072 0.8614
vn -0.4324 0.3622 0.8257
vn -0.4966 0.1076 0.8613
vn -0.2006 0.0222 0.9794
vn -0.4328 0.3623 0.8255
vn -0.2006 0.0219 0.9794
vn -0.0799 0.2520 0.9644
vn -0.4246 0.3857 0.8191
vn -0.4324 0.3624 0.8257
vn -0.0799 0.2518 0.9645
vn -0.4245 0.3855 0.8193
vn -0.0677 0.2733 0.9595
vn -0.0679 0.2734 0.9595
vn -0.0797 0.2521 0.9644
vn 0.2829 0.0954 0.9544
vn -0.0676 0.2733 0.9596
vn 0.2831 0.0953 0.9543
vn 0.2988 0.1173 0.9471
vn -0.0801 0.2521 0.9644
vn -0.2006 0.0214 0.9794
vn 0.1113 -0.1345 0.9846
vn -0.0800 0.2521 0.9644
vn 0.1111 -0.1343 0.9847
vn 0.2830 0.0954 0.9544
vn 0.2832 0.0956 0.9543
vn 0.1114 -0.1347 0.9846
vn 0.4012 -0.2527 0.8804
vn 0.2833 0.0956 0.9543
vn 0.4014 -0.2527 0.8804
vn 0.5620 -0.0432 0.8260
vn 0.2990 0.1172 0.9470
vn 0.2830 0.0955 0.9543
vn 0.5619 -0.0434 0.8260
vn 0.2987 0.1173 0.9471
vn 0.5620 -0.0434 0.8260
vn 0.5770 -0.0327 0.8161
vn -0.5620 -0.8221 0.0912
vn -0.1381 -0.6874 0.7130
vn -0.3283 -0.6111 0.7202
vn -0.5621 -0.8220 0.0911
vn -0.3284 -0.6111 0.7202
vn -0.6265 -0.7660 0.1441
vn 0.3160 -0.9258 0.2076
vn 0.1994 -0.9652 0.1690
vn 0.7817 -0.5924 0.1948
vn 0.3159 -0.9258 0.2076
vn 0.7818 -0.5922 0.1950
vn 0.7664 -0.4732 0.4345
vn 0.4145 -0.7954 -0.4421
vn 0.8508 -0.4972 -0.1700
vn 0.9028 -0.4291 -0.0303
vn 0.4146 -0.7954 -0.4421
vn 0.9026 -0.4294 -0.0301
vn 0.5858 -0.8102 0.0188
vn 0.1653 -0.9801 0.1099
vn 0.5437 -0.7551 0.3665
vn 0.7958 -0.6039 0.0439
vn 0.1650 -0.9802 0.1098
vn 0.7959 -0.6039 0.0435
vn 0.7412 -0.6626 -0.1074
vn 0.1996 -0.9652 0.1689
vn 0.1654 -0.9801 0.1096
vn 0.7414 -0.6625 -0.1073
vn 0.1995 -0.9653 0.1688
vn 0.7414 -0.6624 -0.1074
vn 0.7816 -0.5925 0.1952
vn -0.4674 -0.6429 -0.6068
vn -0.1666 -0.9369 -0.3073
vn -0.0291 -0.5300 -0.8475
vn -0.4677 -0.6426 -0.6069
vn -0.1064 -0.4458 -0.8888
vn -0.5278 -0.0603 -0.8472
vn -0.4855 -0.1574 -0.8600
vn -0.1112 -0.3324 -0.9366
vn -0.5278 -0.0601 -0.8472
vn -0.1112 -0.3326 -0.9365
vn -0.2952 -0.7449 -0.5984
vn -0.3244 -0.8852 -0.3335
vn -0.5661 -0.7870 -0.2453
vn -0.6776 -0.2476 -0.6925
vn -0.3247 -0.8851 -0.3334
vn -0.6779 -0.2474 -0.6923
vn -0.3637 -0.4020 -0.8403
vn -0.1665 -0.9368 -0.3077
vn -0.3639 -0.4022 -0.8401
vn -0.1666 -0.9368 -0.3075
vn -0.3640 -0.4022 -0.8401
vn -0.0291 -0.5298 -0.8476
vn -0.7612 -0.6481 -0.0248
vn -0.8038 -0.5388 0.2521
vn -0.9973 0.0722 -0.0119
vn -0.7611 -0.6482 -0.0249
vn -0.9973 0.0719 -0.0120
vn -0.9112 -0.0737 -0.4053
vn -0.5665 -0.7867 -0.2453
vn -0.7610 -0.6483 -0.0248
vn -0.9112 -0.0735 -0.4054
vn -0.5663 -0.7869 -0.2453
vn -0.9111 -0.0734 -0.4055
vn -0.6776 -0.2477 -0.6924
vn -0.7074 -0.5110 0.4883
vn -0.5720 -0.5363 0.6207
vn -0.7347 0.1428 0.6632
vn -0.7348 0.1427 0.6631
vn -0.9151 0.1427 0.3772
vn -0.8037 -0.5390 0.2522
vn -0.7073 -0.5113 0.4882
vn -0.9151 0.1426 0.3771
vn -0.8035 -0.5392 0.2524
vn -0.9152 0.1426 0.3770
vn -0.9973 0.0722 -0.0117
vn -0.4874 -0.5559 0.6734
vn -0.4524 -0.5484 0.7033
vn -0.2005 0.0218 0.9794
vn -0.4874 -0.5561 0.6732
vn -0.4967 0.1075 0.8612
vn -0.5718 -0.5367 0.6205
vn -0.4873 -0.5557 0.6736
vn -0.4970 0.1078 0.8610
vn -0.5720 -0.5365 0.6205
vn -0.4967 0.1076 0.8612
vn -0.7349 0.1424 0.6631
vn -0.3286 -0.6111 0.7201
vn -0.1380 -0.6876 0.7129
vn 0.4010 -0.2523 0.8806
vn -0.3286 -0.6110 0.7202
vn 0.4012 -0.2523 0.8805
vn 0.1112 -0.1345 0.9847
vn -0.4523 -0.5484 0.7034
vn -0.3285 -0.6111 0.7202
vn 0.1116 -0.1346 0.9846
vn -0.4523 -0.5483 0.7034
vn -0.2008 0.0219 0.9794
vn -0.8075 -0.5651 -0.1688
vn -0.8205 -0.5680 0.0649
vn -0.9630 -0.2596 -0.0722
vn -0.8075 -0.5652 -0.1689
vn -0.9630 -0.2596 -0.0723
vn -0.8712 -0.3046 -0.3850
vn -0.7231 -0.3791 -0.5773
vn -0.8712 -0.3047 -0.3849
vn -0.8283 -0.3970 -0.3953
vn -0.7233 -0.3788 -0.5773
vn -0.8284 -0.3970 -0.3951
vn -0.7266 -0.4492 -0.5199
vn -0.8284 -0.3972 -0.3949
vn -0.9371 -0.3369 -0.0908
vn -0.7626 -0.6457 -0.0396
vn -0.8283 -0.3972 -0.3950
vn -0.7626 -0.6456 -0.0396
vn -0.6655 -0.6975 -0.2658
vn -0.7264 -0.4495 -0.5199
vn -0.8283 -0.3972 -0.3951
vn -0.6652 -0.6977 -0.2659
vn -0.7266 -0.4494 -0.5197
vn -0.6651 -0.6981 -0.2653
vn -0.6716 -0.6967 -0.2523
vn -0.8713 -0.3047 -0.3848
vn -0.9631 -0.2593 -0.0723
vn -0.9372 -0.3368 -0.0909
vn -0.8712 -0.3046 -0.3849
vn -0.9372 -0.3368 -0.0908
vn -0.8284 -0.3970 -0.3952
vn -0.9631 -0.2591 -0.0722
vn -0.9382 -0.2088 0.2760
vn -0.9151 -0.2775 0.2926
vn -0.9632 -0.2590 -0.0722
vn -0.9151 -0.2775 0.2927
vn -0.9373 -0.3364 -0.0909
vn -0.9148 -0.2780 0.2929
vn -0.7618 -0.2554 0.5954
vn -0.6313 -0.5832 0.5112
vn -0.9149 -0.2777 0.2929
vn -0.6311 -0.5834 0.5112
vn -0.7470 -0.5915 0.3036
vn -0.9373 -0.3366 -0.0909
vn -0.7467 -0.5917 0.3039
vn -0.9374 -0.3363 -0.0909
vn -0.7467 -0.5918 0.3038
vn -0.7626 -0.6457 -0.0394
vn -0.9382 -0.2090 0.2760
vn -0.7908 -0.1712 0.5877
vn -0.7616 -0.2554 0.5955
vn -0.9382 -0.2088 0.2761
vn -0.7616 -0.2554 0.5956
vn -0.9150 -0.2776 0.2929
vn -0.7909 -0.1710 0.5875
vn -0.5312 -0.1825 0.8274
vn -0.5121 -0.2869 0.8096
vn -0.7909 -0.1711 0.5876
vn -0.5120 -0.2868 0.8097
vn -0.7618 -0.2552 0.5954
vn -0.1527 -0.3689 0.9169
vn -0.1783 -0.7008 0.6907
vn -0.5119 -0.2868 0.8098
vn -0.1782 -0.7005 0.6910
vn -0.4613 -0.6193 0.6353
vn -0.7620 -0.2550 0.5953
vn -0.5116 -0.2871 0.8099
vn -0.4619 -0.6190 0.6352
vn -0.7619 -0.2550 0.5954
vn -0.6307 -0.5835 0.5116
vn -0.5307 -0.1830 0.8276
vn -0.1735 -0.2426 0.9545
vn -0.1528 -0.3691 0.9167
vn -0.5310 -0.1827 0.8274
vn -0.1526 -0.3690 0.9168
vn -0.5121 -0.2867 0.8097
vn -0.1734 -0.2427 0.9545
vn 0.1847 -0.3197 0.9294
vn 0.1863 -0.4551 0.8708
vn -0.1735 -0.2423 0.9546
vn 0.1861 -0.4552 0.8707
vn -0.1531 -0.3688 0.9168
vn 0.1862 -0.4554 0.8706
vn 0.3863 -0.5301 0.7548
vn 0.1251 -0.8097 0.5733
vn 0.1861 -0.4555 0.8706
vn 0.0607 -0.7723 0.6323
vn -0.1530 -0.3686 0.9169
vn 0.0610 -0.7725 0.6321
vn 0.0611 -0.7724 0.6322
vn -0.1779 -0.7007 0.6910
vn 0.1848 -0.3197 0.9293
vn 0.4446 -0.4144 0.7941
vn 0.3865 -0.5299 0.7549
vn 0.1849 -0.3197 0.9293
vn 0.3868 -0.5301 0.7546
vn 0.1863 -0.4552 0.8707
vn 0.4447 -0.4143 0.7941
vn 0.6089 -0.5495 0.5721
vn 0.5094 -0.6235 0.5931
vn 0.4447 -0.4144 0.7941
vn 0.3867 -0.5300 0.7547
vn 0.5095 -0.6236 0.5929
vn 0.5725 -0.7520 0.3268
vn 0.1866 -0.8862 0.4240
vn 0.5095 -0.6234 0.5932
vn 0.1869 -0.8861 0.4241
vn 0.1440 -0.8317 0.5363
vn 0.3865 -0.5302 0.7546
vn 0.5092 -0.6236 0.5931
vn 0.1439 -0.8316 0.5364
vn 0.3863 -0.5302 0.7548
vn 0.1438 -0.8315 0.5365
vn 0.1251 -0.8097 0.5734
vn 0.6086 -0.5497 0.5723
vn 0.6623 -0.7066 0.2491
vn 0.5725 -0.7518 0.3270
vn 0.6085 -0.5498 0.5722
vn 0.5724 -0.7520 0.3270
vn 0.5092 -0.6237 0.5931
vn 0.6624 -0.7065 0.2490
vn 0.5783 -0.8125 -0.0732
vn 0.5272 -0.8493 0.0265
vn 0.6623 -0.7067 0.2488
vn 0.5270 -0.8495 0.0266
vn 0.5727 -0.7519 0.3266
vn 0.5270 -0.8494 0.0267
vn 0.3888 -0.8987 -0.2028
vn 0.1508 -0.9863 0.0676
vn 0.5271 -0.8494 0.0266
vn 0.1508 -0.9862 0.0676
vn 0.2058 -0.9479 0.2433
vn 0.5725 -0.7519 0.3270
vn 0.5268 -0.8496 0.0261
vn 0.2051 -0.9479 0.2436
vn 0.5727 -0.7517 0.3271
vn 0.2054 -0.9479 0.2435
vn 0.1866 -0.8860 0.4244
vn 0.5783 -0.8125 -0.0734
vn 0.4145 -0.8614 -0.2936
vn 0.3889 -0.8987 -0.2026
vn 0.5782 -0.8126 -0.0733
vn 0.3892 -0.8986 -0.2025
vn 0.5269 -0.8495 0.0264
vn 0.4145 -0.8615 -0.2932
vn 0.1594 -0.8571 -0.4899
vn 0.1252 -0.8991 -0.4195
vn 0.4146 -0.8615 -0.2932
vn 0.1253 -0.8989 -0.4198
vn 0.3889 -0.8988 -0.2024
vn 0.1253 -0.8989 -0.4199
vn -0.2863 -0.7603 -0.5831
vn -0.4346 -0.8595 -0.2692
vn 0.1251 -0.8989 -0.4199
vn -0.4344 -0.8596 -0.2690
vn -0.0542 -0.9905 -0.1263
vn 0.3888 -0.8988 -0.2026
vn 0.1249 -0.8989 -0.4200
vn -0.0542 -0.9904 -0.1268
vn -0.0543 -0.9905 -0.1265
vn 0.1508 -0.9863 0.0673
vn 0.1594 -0.8570 -0.4901
vn -0.2145 -0.7297 -0.6492
vn -0.2863 -0.7604 -0.5830
vn 0.1594 -0.8570 -0.4900
vn -0.2860 -0.7604 -0.5831
vn 0.1252 -0.8988 -0.4201
vn -0.2147 -0.7297 -0.6492
vn -0.5325 -0.5222 -0.6662
vn -0.5999 -0.5495 -0.5815
vn -0.2146 -0.7297 -0.6492
vn -0.2866 -0.7605 -0.5826
vn -0.6000 -0.5496 -0.5814
vn -0.7265 -0.4493 -0.5199
vn -0.6713 -0.6969 -0.2524
vn -0.6001 -0.5496 -0.5812
vn -0.6713 -0.6969 -0.2523
vn -0.6769 -0.6902 -0.2557
vn -0.2865 -0.7603 -0.5829
vn -0.5999 -0.5498 -0.5813
vn -0.6767 -0.6904 -0.2556
vn -0.2865 -0.7604 -0.5829
vn -0.6767 -0.6904 -0.2559
vn -0.4345 -0.8595 -0.2693
vn -0.4483 -0.8476 0.2839
vn -0.4557 -0.8559 0.2446
vn -0.3722 -0.8991 0.2304
vn -0.4485 -0.8474 0.2841
vn -0.3720 -0.8992 0.2302
vn -0.3692 -0.8988 0.2364
vn -0.4556 -0.8559 0.2447
vn -0.4829 -0.8528 0.1988
vn -0.4557 -0.8559 0.2444
vn -0.3770 -0.8990 0.2230
vn -0.3723 -0.8991 0.2304
vn -0.3770 -0.8989 0.2231
vn -0.2875 -0.9418 0.1742
vn -0.3723 -0.8991 0.2302
vn -0.2874 -0.9418 0.1743
vn -0.2761 -0.9398 0.2013
vn -0.3689 -0.8989 0.2362
vn -0.3724 -0.8990 0.2304
vn -0.2761 -0.9398 0.2012
vn -0.3690 -0.8989 0.2362
vn -0.2761 -0.9398 0.2011
vn -0.2454 -0.9384 0.2434
vn -0.3526 -0.7999 0.4857
vn -0.4323 -0.8232 0.3680
vn -0.3563 -0.8953 0.2674
vn -0.3525 -0.8000 0.4855
vn -0.3561 -0.8955 0.2671
vn -0.2577 -0.8316 0.4920
vn -0.4322 -0.8234 0.3678
vn -0.4484 -0.8476 0.2837
vn -0.3691 -0.8988 0.2363
vn -0.4323 -0.8232 0.3679
vn -0.3691 -0.8989 0.2363
vn -0.3564 -0.8952 0.2676
vn -0.3561 -0.8954 0.2673
vn -0.3693 -0.8987 0.2364
vn -0.2454 -0.9384 0.2433
vn -0.3563 -0.8953 0.2675
vn -0.2455 -0.9383 0.2434
vn -0.1845 -0.9221 0.3401
vn -0.2575 -0.8317 0.4920
vn -0.1843 -0.9222 0.3400
vn -0.2574 -0.8317 0.4919
vn -0.1842 -0.9222 0.3400
vn -0.1611 -0.8663 0.4728
vn -0.6264 -0.7661 0.1438
vn -0.3285 -0.6112 0.7201
vn -0.4527 -0.5483 0.7032
vn -0.6264 -0.7661 0.1439
vn -0.4525 -0.5483 0.7033
vn -0.5081 -0.8534 0.1161
vn -0.0659 0.2776 0.9584
vn -0.0661 0.2761 0.9589
vn 0.2999 0.1203 0.9464
vn -0.0659 0.2775 0.9585
vn 0.3000 0.1203 0.9463
vn 0.3013 0.1213 0.9458
vn 0.3011 0.1209 0.9459
vn 0.2995 0.1201 0.9465
vn 0.3015 0.1211 0.9457
vn 0.6152 -0.0503 0.7868
vn -0.6869 0.4386 0.5795
vn -0.6878 0.4370 0.5796
vn -0.4233 0.3883 0.8185
vn -0.6869 0.4387 0.5795
vn -0.4235 0.3882 0.8185
vn -0.4224 0.3897 0.8183
vn -0.4224 0.3894 0.8185
vn -0.4233 0.3879 0.8187
vn -0.0662 0.2757 0.9590
vn -0.4224 0.3895 0.8185
vn -0.0663 0.2757 0.9589
vn -0.0657 0.2773 0.9585
vn -0.9253 0.3554 -0.1325
vn -0.9259 0.3541 -0.1319
vn -0.8615 0.4300 0.2700
vn -0.9253 0.3553 -0.1325
vn -0.8616 0.4298 0.2699
vn -0.8613 0.4314 0.2684
vn -0.8613 0.4312 0.2688
vn -0.8617 0.4298 0.2699
vn -0.6878 0.4370 0.5797
vn -0.8613 0.4313 0.2686
vn -0.6878 0.4369 0.5797
vn -0.6869 0.4385 0.5795
vn -0.6128 0.0570 -0.7882
vn -0.6136 0.0552 -0.7877
vn -0.8280 0.2136 -0.5184
vn -0.6128 0.0569 -0.7881
vn -0.8279 0.2140 -0.5184
vn -0.8272 0.2159 -0.5188
vn -0.8274 0.2155 -0.5186
vn -0.8281 0.2137 -0.5182
vn -0.9261 0.3535 -0.1319
vn -0.8274 0.2151 -0.5187
vn -0.9261 0.3535 -0.1320
vn -0.9255 0.3548 -0.1322
vn 0.0451 -0.2622 -0.9640
vn 0.0440 -0.2634 -0.9637
vn -0.3177 -0.1074 -0.9421
vn 0.0452 -0.2619 -0.9640
vn -0.3170 -0.1056 -0.9425
vn -0.3170 -0.1057 -0.9425
vn -0.3174 -0.1072 -0.9422
vn -0.6137 0.0553 -0.7876
vn -0.6138 0.0554 -0.7875
vn -0.6129 0.0568 -0.7881
vn 0.7138 -0.4339 -0.5498
vn 0.7131 -0.4357 -0.5492
vn 0.4108 -0.3812 -0.8282
vn 0.7138 -0.4340 -0.5497
vn 0.4114 -0.3795 -0.8287
vn 0.4113 -0.3794 -0.8288
vn 0.4106 -0.3811 -0.8284
vn 0.0439 -0.2634 -0.9637
vn 0.4113 -0.3795 -0.8287
vn 0.0452 -0.2617 -0.9641
vn 0.9257 -0.3373 0.1714
vn 0.9251 -0.3381 0.1730
vn 0.8896 -0.4164 -0.1874
vn 0.8896 -0.4164 -0.1875
vn 0.8903 -0.4147 -0.1880
vn 0.8903 -0.4146 -0.1882
vn 0.8897 -0.4164 -0.1874
vn 0.7133 -0.4353 -0.5494
vn 0.8903 -0.4146 -0.1883
vn 0.7132 -0.4355 -0.5493
vn 0.7138 -0.4339 -0.5497
vn -0.0674 0.2744 0.9592
vn -0.0671 0.2743 0.9593
vn 0.2995 0.1182 0.9467
vn 0.2995 0.1180 0.9468
vn 0.2994 0.1182 0.9468
vn -0.0673 0.2743 0.9593
vn -0.0678 0.2733 0.9595
vn 0.2989 0.1174 0.9470
vn -0.0670 0.2743 0.9593
vn 0.2991 0.1174 0.9470
vn 0.2994 0.1179 0.9468
vn 0.2989 0.1173 0.9471
vn 0.5769 -0.0328 0.8161
vn 0.5770 -0.0328 0.8161
vn 0.5466 -0.0166 0.8372
vn 0.2993 0.1181 0.9468
vn 0.5467 -0.0166 0.8372
vn 0.2996 0.1180 0.9467
vn 0.4184 0.0547 0.9066
vn -0.6882 0.4353 0.5804
vn -0.4242 0.3867 0.8188
vn -0.6882 0.4353 0.5805
vn -0.4243 0.3866 0.8188
vn -0.4244 0.3866 0.8188
vn -0.4245 0.3859 0.8191
vn -0.4246 0.3858 0.8191
vn -0.4244 0.3865 0.8188
vn -0.4244 0.3867 0.8188
vn -0.4245 0.3857 0.8191
vn -0.0677 0.2734 0.9595
vn -0.4245 0.3866 0.8187
vn -0.0673 0.2741 0.9593
vn -0.4242 0.3867 0.8189
vn -0.0672 0.2740 0.9594
vn -0.4245 0.3865 0.8188
vn -0.9265 0.3547 -0.1258
vn -0.9275 0.3546 -0.1186
vn -0.8622 0.4283 0.2705
vn -0.9265 0.3545 -0.1259
vn -0.8624 0.4281 0.2702
vn -0.9274 0.3547 -0.1187
vn -0.9283 0.3508 -0.1234
vn -0.8625 0.4274 0.2708
vn -0.8625 0.4275 0.2708
vn -0.8623 0.4282 0.2703
vn -0.8623 0.4282 0.2705
vn -0.6884 0.4344 0.5808
vn -0.8622 0.4283 0.2706
vn -0.6882 0.4351 0.5806
vn -0.8623 0.4281 0.2705
vn -0.6881 0.4352 0.5806
vn -0.6137 0.0535 -0.7877
vn -0.6136 0.0532 -0.7878
vn -0.8358 0.2172 -0.5042
vn -0.6138 0.0536 -0.7876
vn -0.8359 0.2171 -0.5041
vn -0.8300 0.2153 -0.5145
vn -0.6137 0.0534 -0.7877
vn -0.6141 0.0522 -0.7875
vn -0.8290 0.2063 -0.5198
vn -0.6137 0.0534 -0.7878
vn -0.8310 0.2105 -0.5150
vn -0.8359 0.2174 -0.5039
vn -0.9285 0.3503 -0.1234
vn -0.9284 0.3506 -0.1233
vn -0.9275 0.3546 -0.1184
vn -0.8301 0.2151 -0.5145
vn -0.9275 0.3545 -0.1184
vn -0.8301 0.2152 -0.5145
vn -0.9275 0.3547 -0.1184
vn -0.9265 0.3546 -0.1258
vn 0.0436 -0.2653 -0.9632
vn 0.0436 -0.2654 -0.9632
vn -0.3185 -0.1090 -0.9416
vn 0.0435 -0.2654 -0.9632
vn -0.3185 -0.1089 -0.9416
vn -0.3185 -0.1100 -0.9415
vn 0.0434 -0.2653 -0.9632
vn -0.3189 -0.1100 -0.9414
vn -0.3187 -0.1090 -0.9416
vn -0.3186 -0.1089 -0.9416
vn -0.3188 -0.1099 -0.9414
vn -0.6142 0.0524 -0.7874
vn -0.3183 -0.1090 -0.9417
vn -0.6141 0.0524 -0.7875
vn -0.6135 0.0532 -0.7879
vn -0.3186 -0.1086 -0.9416
vn -0.6137 0.0532 -0.7878
vn -0.3185 -0.1088 -0.9417
vn -0.6138 0.0533 -0.7876
vn -0.6136 0.0535 -0.7878
vn 0.7125 -0.4374 -0.5486
vn 0.8847 -0.2801 -0.3726
vn 0.2661 -0.1785 -0.9473
vn 0.7125 -0.4376 -0.5485
vn 0.2659 -0.1788 -0.9473
vn 0.4100 -0.3830 -0.8278
vn 0.8411 -0.2569 0.4761
vn 0.1195 -0.5583 0.8210
vn 0.3203 -0.6913 0.6477
vn 0.8413 -0.2569 0.4757
vn 0.3202 -0.6912 0.6479
vn 0.5087 -0.8607 0.0216
vn 0.2661 -0.1788 -0.9472
vn 0.0719 -0.2748 -0.9588
vn 0.0434 -0.2661 -0.9630
vn 0.0433 -0.2661 -0.9630
vn 0.0435 -0.2652 -0.9632
vn 0.4099 -0.3826 -0.8280
vn 0.2660 -0.1788 -0.9472
vn 0.0437 -0.2651 -0.9632
vn 0.4098 -0.3827 -0.8280
vn 0.0436 -0.2652 -0.9632
vn 0.9244 -0.3406 0.1717
vn 0.9244 -0.3407 0.1717
vn 0.8891 -0.4180 -0.1866
vn 0.9243 -0.3410 0.1715
vn 0.8889 -0.4183 -0.1868
vn 0.8892 -0.4179 -0.1865
vn 0.8887 -0.4190 -0.1863
vn 0.9243 -0.3408 0.1716
vn 0.8887 -0.4189 -0.1865
vn 0.8891 -0.4179 -0.1867
vn 0.8886 -0.4190 -0.1865
vn 0.8890 -0.4180 -0.1868
vn 0.9040 -0.4067 -0.1319
vn 0.8847 -0.2800 -0.3728
vn 0.8846 -0.2802 -0.3729
vn 0.7125 -0.4373 -0.5487
vn 0.0729 0.1738 0.9821
vn -0.0684 0.0945 0.9932
vn 0.1468 0.1088 0.9832
vn 0.0729 0.1737 0.9821
vn 0.1469 0.1089 0.9831
vn 0.1637 0.1919 0.9677
vn 0.9223 -0.3728 -0.1020
vn 0.9024 -0.4066 -0.1429
vn 0.9280 -0.3650 -0.0750
vn 0.9223 -0.3728 -0.1019
vn 0.9280 -0.3648 -0.0752
vn 0.9420 -0.3268 -0.0767
vn 0.8424 -0.2243 0.4899
vn 0.8487 -0.2315 0.4755
vn 0.9241 -0.3414 0.1717
vn 0.8425 -0.2243 0.4899
vn 0.9240 -0.3417 0.1716
vn 0.9245 -0.3404 0.1716
vn 0.8091 -0.1922 0.5554
vn 0.9245 -0.3405 0.1714
vn 0.8091 -0.1924 0.5553
vn -0.4342 -0.8597 -0.2690
vn -0.6767 -0.6904 -0.2558
vn -0.6261 -0.7664 0.1439
vn -0.6263 -0.7662 0.1441
vn -0.5081 -0.8534 0.1162
vn -0.5620 -0.8221 0.0913
vn -0.6768 -0.6904 -0.2557
vn -0.6262 -0.7662 0.1441
vn -0.5081 -0.8534 0.1164
vn -0.4524 -0.5482 0.7034
vn -0.4872 -0.5559 0.6735
vn -0.5079 -0.8536 0.1161
vn -0.4872 -0.5560 0.6734
vn -0.2508 -0.9474 0.1988
vn -0.2510 -0.9473 0.1991
vn -0.4869 -0.5562 0.6735
vn -0.5719 -0.5363 0.6208
vn -0.2509 -0.9473 0.1991
vn -0.5717 -0.5365 0.6207
vn -0.1475 -0.9352 0.3220
vn -0.0546 -0.9905 -0.1263
vn -0.2512 -0.9473 0.1989
vn 0.1510 -0.9862 0.0674
vn -0.2511 -0.9473 0.1989
vn -0.1474 -0.9352 0.3219
vn -0.0544 -0.9905 -0.1266
vn -0.4343 -0.8597 -0.2690
vn -0.5079 -0.8536 0.1159
vn -0.0546 -0.9904 -0.1267
vn -0.5080 -0.8535 0.1159
vn -0.2508 -0.9473 0.1993
vn -0.1474 -0.9352 0.3220
vn -0.5717 -0.5365 0.6208
vn -0.7074 -0.5112 0.4882
vn -0.1474 -0.9353 0.3218
vn -0.7074 -0.5112 0.4881
vn -0.1805 -0.9001 0.3965
vn -0.1804 -0.9001 0.3966
vn -0.7076 -0.5110 0.4881
vn -0.8037 -0.5389 0.2522
vn -0.1804 -0.9002 0.3964
vn -0.8038 -0.5387 0.2524
vn -0.2442 -0.8756 0.4169
vn 0.1865 -0.8862 0.4242
vn 0.2055 -0.9479 0.2435
vn -0.1802 -0.9003 0.3962
vn 0.1793 -0.8864 0.4268
vn -0.2441 -0.8757 0.4167
vn 0.2056 -0.9478 0.2437
vn 0.1507 -0.9862 0.0678
vn -0.1476 -0.9352 0.3220
vn 0.2054 -0.9479 0.2436
vn -0.1475 -0.9352 0.3219
vn -0.1804 -0.9001 0.3965
vn -0.7611 -0.6482 -0.0248
vn -0.2442 -0.8756 0.4167
vn -0.7613 -0.6479 -0.0249
vn -0.2607 -0.8941 0.3641
vn -0.2607 -0.8942 0.3640
vn -0.7609 -0.6483 -0.0251
vn -0.5664 -0.7868 -0.2453
vn -0.5662 -0.7869 -0.2453
vn -0.1814 -0.9407 0.2866
vn 0.1251 -0.8099 0.5730
vn 0.1440 -0.8318 0.5361
vn 0.1251 -0.8100 0.5730
vn -0.1814 -0.9406 0.2868
vn 0.1439 -0.8318 0.5362
vn 0.1865 -0.8862 0.4241
vn -0.2445 -0.8756 0.4167
vn -0.2445 -0.8756 0.4166
vn -0.1816 -0.9408 0.2864
vn -0.5661 -0.7869 -0.2454
vn -0.3244 -0.8852 -0.3334
vn -0.1814 -0.9407 0.2867
vn -0.3243 -0.8852 -0.3335
vn -0.1091 -0.9501 0.2923
vn -0.1090 -0.9501 0.2923
vn -0.3243 -0.8852 -0.3334
vn -0.1664 -0.9368 -0.3076
vn -0.1090 -0.9501 0.2924
vn -0.1665 -0.9369 -0.3074
vn -0.2029 -0.9134 0.3529
vn 0.0606 -0.7725 0.6321
vn -0.1091 -0.9500 0.2924
vn -0.1781 -0.7009 0.6907
vn -0.1092 -0.9501 0.2922
vn -0.2028 -0.9136 0.3525
vn 0.0603 -0.7726 0.6321
vn 0.1250 -0.8100 0.5729
vn -0.1812 -0.9407 0.2868
vn 0.0606 -0.7725 0.6322
vn -0.1817 -0.9405 0.2870
vn -0.1133 -0.9491 0.2939
vn -0.2028 -0.9135 0.3526
vn -0.1668 -0.9368 -0.3074
vn -0.4673 -0.6431 -0.6066
vn -0.2029 -0.9135 0.3527
vn -0.4677 -0.6428 -0.6067
vn -0.5240 -0.7505 0.4028
vn 0.8505 0.4891 -0.1932
vn 0.8888 -0.2609 0.3768
vn 0.9118 -0.3964 -0.1073
vn 0.8506 0.4889 -0.1934
vn 0.9118 -0.3965 -0.1073
vn 0.9582 -0.1261 -0.2566
vn -0.6311 -0.5836 0.5110
vn -0.4615 -0.6194 0.6351
vn -0.5238 -0.7508 0.4025
vn -0.6310 -0.5837 0.5110
vn -0.5238 -0.7506 0.4027
vn -0.4173 -0.7441 0.5216
vn -0.4614 -0.6191 0.6355
vn -0.1783 -0.7007 0.6908
vn -0.2026 -0.9136 0.3526
vn -0.4615 -0.6191 0.6354
vn -0.5236 -0.7506 0.4030
vn -0.4171 -0.7443 0.5216
vn 0.5436 -0.7551 0.3664
vn 0.1654 -0.9801 0.1098
vn -0.4171 -0.7445 0.5214
vn 0.1654 -0.9801 0.1100
vn -0.4606 -0.8469 0.2659
vn -0.4606 -0.8467 0.2664
vn 0.1653 -0.9801 0.1096
vn 0.1996 -0.9652 0.1690
vn -0.4604 -0.8469 0.2662
vn 0.1997 -0.9652 0.1690
vn -0.4533 -0.8900 0.0489
vn -0.7626 -0.6457 -0.0392
vn -0.7469 -0.5917 0.3034
vn -0.4607 -0.8466 0.2663
vn -0.4605 -0.8468 0.2661
vn -0.4536 -0.8899 0.0486
vn -0.7468 -0.5917 0.3035
vn -0.6308 -0.5834 0.5116
vn -0.4174 -0.7442 0.5214
vn -0.4175 -0.7442 0.5213
vn -0.4604 -0.8467 0.2665
vn -0.4532 -0.8901 0.0488
vn 0.1994 -0.9653 0.1686
vn 0.3157 -0.9260 0.2072
vn -0.4533 -0.8900 0.0488
vn 0.3157 -0.9260 0.2070
vn -0.3989 -0.9090 -0.1209
vn 0.1437 0.1831 0.9725
vn 0.0726 0.1736 0.9821
vn 0.1636 0.1918 0.9677
vn 0.1434 0.1828 0.9726
vn 0.1637 0.1920 0.9676
vn 0.1266 0.2195 0.9674
vn -0.6714 -0.6968 -0.2525
vn -0.6652 -0.6978 -0.2657
vn -0.3986 -0.9092 -0.1205
vn -0.6714 -0.6968 -0.2523
vn -0.3986 -0.9091 -0.1209
vn -0.6652 -0.6978 -0.2658
vn -0.4533 -0.8900 0.0490
vn -0.6651 -0.6979 -0.2657
vn -0.4535 -0.8899 0.0493
vn -0.3987 -0.9091 -0.1207
vn -0.5324 -0.5221 -0.6663
vn -0.7230 -0.3793 -0.5774
vn -0.7266 -0.4491 -0.5200
vn -0.5325 -0.5221 -0.6662
vn -0.7264 -0.4494 -0.5199
vn -0.2643 -0.8672 -0.4221
vn -0.5174 -0.6993 -0.4932
vn -0.5325 -0.5222 -0.6661
vn -0.2641 -0.8672 -0.4221
vn -0.2151 -0.7297 -0.6491
vn -0.5176 -0.6992 -0.4931
vn -0.7091 -0.5839 -0.3953
vn -0.7233 -0.3793 -0.5770
vn -0.5177 -0.6991 -0.4932
vn -0.7232 -0.3792 -0.5773
vn -0.5326 -0.5220 -0.6662
vn 0.1040 -0.9892 -0.1033
vn -0.0331 -0.9681 -0.2485
vn 0.1595 -0.8572 -0.4897
vn 0.1043 -0.9892 -0.1031
vn -0.0331 -0.9680 -0.2486
vn -0.2641 -0.8673 -0.4220
vn -0.2146 -0.7296 -0.6494
vn -0.2147 -0.7296 -0.6493
vn 0.3068 -0.9176 0.2527
vn 0.2155 -0.9759 0.0337
vn 0.5782 -0.8126 -0.0732
vn 0.3068 -0.9176 0.2529
vn 0.5786 -0.8124 -0.0730
vn 0.6623 -0.7066 0.2490
vn 0.2155 -0.9759 0.0336
vn 0.1039 -0.9892 -0.1036
vn 0.4150 -0.8613 -0.2933
vn 0.2156 -0.9759 0.0335
vn 0.4147 -0.8613 -0.2935
vn 0.5778 -0.8129 -0.0732
vn 0.2286 -0.6512 0.7236
vn 0.3125 -0.8040 0.5059
vn 0.6088 -0.5495 0.5722
vn 0.2285 -0.6513 0.7236
vn 0.4446 -0.4142 0.7942
vn 0.3125 -0.8039 0.5060
vn 0.3067 -0.9175 0.2533
vn 0.6623 -0.7066 0.2492
vn 0.3127 -0.8039 0.5060
vn 0.6624 -0.7065 0.2492
vn 0.6085 -0.5497 0.5723
vn -0.2959 -0.4936 0.8178
vn 0.0054 -0.5368 0.8437
vn 0.1847 -0.3197 0.9293
vn -0.2958 -0.4935 0.8179
vn 0.1843 -0.3198 0.9294
vn -0.1738 -0.2426 0.9544
vn 0.0056 -0.5369 0.8436
vn 0.4445 -0.4143 0.7942
vn 0.0057 -0.5370 0.8436
vn 0.1848 -0.3195 0.9294
vn -0.7103 -0.5080 0.4874
vn -0.5501 -0.4956 0.6721
vn -0.5310 -0.1824 0.8275
vn -0.7103 -0.5079 0.4874
vn -0.5310 -0.1826 0.8275
vn -0.7909 -0.1710 0.5876
vn -0.5504 -0.4956 0.6719
vn -0.2954 -0.4936 0.8180
vn -0.1734 -0.2425 0.9545
vn -0.5502 -0.4956 0.6721
vn -0.1733 -0.2426 0.9545
vn -0.5309 -0.1827 0.8275
vn -0.8203 -0.5683 0.0649
vn -0.7914 -0.5436 0.2795
vn -0.9382 -0.2089 0.2760
vn -0.9631 -0.2592 -0.0723
vn -0.7914 -0.5438 0.2793
vn -0.7102 -0.5078 0.4876
vn -0.7907 -0.1712 0.5878
vn -0.7915 -0.5435 0.2795
vn -0.7907 -0.1713 0.5878
vn -0.9381 -0.2091 0.2761
vn -0.7092 -0.5838 -0.3953
vn -0.8073 -0.5655 -0.1688
vn -0.8712 -0.3047 -0.3850
vn -0.7092 -0.5838 -0.3952
vn -0.8712 -0.3045 -0.3850
vn -0.7232 -0.3793 -0.5772
vn -0.5507 -0.8329 -0.0543
vn -0.5402 -0.8362 0.0946
vn -0.8073 -0.5654 -0.1689
vn -0.5508 -0.8328 -0.0544
vn -0.8073 -0.5654 -0.1691
vn -0.7093 -0.5835 -0.3955
vn -0.5403 -0.8362 0.0944
vn -0.4831 -0.8527 0.1985
vn -0.5401 -0.8363 0.0945
vn -0.8203 -0.5682 0.0652
vn -0.8073 -0.5655 -0.1690
vn -0.4830 -0.8528 0.1986
vn -0.4559 -0.8558 0.2446
vn -0.7916 -0.5435 0.2792
vn -0.4830 -0.8528 0.1984
vn -0.7917 -0.5434 0.2790
vn -0.8203 -0.5682 0.0649
vn -0.4557 -0.8560 0.2443
vn -0.4484 -0.8475 0.2841
vn -0.4555 -0.8560 0.2446
vn -0.7101 -0.5079 0.4876
vn -0.7915 -0.5437 0.2791
vn -0.4483 -0.8476 0.2838
vn -0.4325 -0.8231 0.3681
vn -0.5504 -0.4957 0.6718
vn -0.4484 -0.8476 0.2838
vn -0.7101 -0.5081 0.4875
vn -0.4322 -0.8231 0.3683
vn -0.3525 -0.8000 0.4856
vn -0.2953 -0.4936 0.8181
vn -0.4319 -0.8233 0.3682
vn -0.2954 -0.4938 0.8179
vn -0.5503 -0.4958 0.6718
vn -0.3525 -0.8001 0.4853
vn -0.2577 -0.8317 0.4918
vn 0.0055 -0.5370 0.8436
vn -0.3526 -0.8000 0.4855
vn 0.0055 -0.5369 0.8436
vn -0.2957 -0.4935 0.8179
vn -0.2578 -0.8317 0.4918
vn -0.1616 -0.8663 0.4727
vn 0.2286 -0.6511 0.7237
vn -0.2578 -0.8318 0.4916
vn 0.2288 -0.6511 0.7237
vn 0.0057 -0.5369 0.8436
vn -0.1613 -0.8665 0.4725
vn -0.1845 -0.9221 0.3402
vn 0.3122 -0.8041 0.5059
vn -0.1616 -0.8664 0.4725
vn 0.3126 -0.8039 0.5060
vn 0.2285 -0.6510 0.7239
vn -0.1843 -0.9221 0.3402
vn -0.2453 -0.9383 0.2438
vn 0.3067 -0.9176 0.2530
vn -0.1843 -0.9221 0.3401
vn 0.3123 -0.8042 0.5057
vn -0.2453 -0.9384 0.2434
vn 0.2155 -0.9759 0.0335
vn 0.3068 -0.9175 0.2530
vn 0.1042 -0.9892 -0.1030
vn -0.2763 -0.9397 0.2014
vn 0.1039 -0.9892 -0.1032
vn 0.2156 -0.9759 0.0333
vn -0.2875 -0.9417 0.1745
vn -0.3007 -0.9486 0.0982
vn -0.0333 -0.9680 -0.2488
vn -0.2874 -0.9418 0.1744
vn -0.0330 -0.9680 -0.2486
vn 0.1040 -0.9892 -0.1030
vn -0.3010 -0.9485 0.0982
vn -0.3708 -0.9278 -0.0403
vn -0.2645 -0.8672 -0.4220
vn -0.3012 -0.9485 0.0982
vn -0.2640 -0.8673 -0.4220
vn -0.0335 -0.9679 -0.2491
vn -0.3708 -0.9279 -0.0398
vn -0.4649 -0.8834 -0.0597
vn -0.5175 -0.6990 -0.4936
vn -0.3707 -0.9279 -0.0399
vn -0.5176 -0.6990 -0.4935
vn -0.2642 -0.8673 -0.4220
vn -0.4650 -0.8833 -0.0595
vn -0.5509 -0.8328 -0.0542
vn -0.7091 -0.5836 -0.3957
vn -0.4649 -0.8833 -0.0595
vn -0.7092 -0.5836 -0.3955
vn 0.8346 -0.2131 0.5079
vn 0.9043 -0.1805 0.3869
vn 0.9252 -0.3380 0.1727
vn 0.9250 -0.3383 0.1728
vn 0.9257 -0.3371 0.1714
vn 0.1438 0.1831 0.9725
vn 0.5771 -0.0327 0.8160
vn 0.0729 0.1739 0.9821
vn 0.5619 -0.0432 0.8261
vn -0.0685 0.0945 0.9932
vn 0.5621 -0.0435 0.8259
vn 0.5622 -0.0432 0.8259
vn 0.4013 -0.2529 0.8803
vn 0.6150 -0.0501 0.7869
vn 0.8345 -0.2132 0.5080
vn 0.8670 0.4446 0.2250
vn 0.6149 -0.0502 0.7870
vn 0.7080 0.5520 0.4405
vn 0.1440 0.1831 0.9725
vn 0.0345 0.2266 0.9734
vn 0.5468 -0.0165 0.8371
vn 0.1440 0.1830 0.9725
vn 0.5468 -0.0166 0.8371
vn 0.5771 -0.0328 0.8160
vn -0.4877 -0.2775 0.8277
vn -0.0682 0.0944 0.9932
vn 0.4011 -0.2523 0.8806
vn -0.4875 -0.2773 0.8279
vn 0.4015 -0.2525 0.8804
vn -0.1378 -0.6876 0.7129
vn -0.5151 -0.8472 0.1298
vn -0.4874 -0.2778 0.8278
vn -0.1383 -0.6878 0.7126
vn -0.5130 -0.8488 0.1281
vn -0.1379 -0.6876 0.7129
vn -0.5620 -0.8221 0.0911
vn 0.9223 -0.3727 -0.1020
vn 0.8511 -0.4969 -0.1698
vn 0.7664 -0.4729 0.4348
vn 0.9224 -0.3725 -0.1019
vn 0.7667 -0.4728 0.4343
vn 0.8493 -0.2538 0.4629
vn 0.9024 -0.4063 -0.1431
vn 0.9223 -0.3728 -0.1017
vn 0.8493 -0.2540 0.4628
vn 0.9024 -0.4065 -0.1431
vn 0.8493 -0.2539 0.4629
vn 0.8486 -0.2319 0.4756
vn 0.8511 -0.4968 -0.1700
vn 0.4142 -0.7957 -0.4418
vn 0.3158 -0.9259 0.2075
vn 0.8509 -0.4971 -0.1698
vn 0.3158 -0.9260 0.2070
vn 0.7663 -0.4732 0.4346
vn 0.9044 -0.4204 -0.0729
vn 0.9024 -0.4064 -0.1430
vn 0.8486 -0.2316 0.4757
vn 0.9045 -0.4202 -0.0729
vn 0.8485 -0.2316 0.4758
vn 0.8425 -0.2244 0.4897
vn 0.9359 -0.3508 0.0314
vn 0.9045 -0.4201 -0.0731
vn 0.8424 -0.2242 0.4899
vn 0.9359 -0.3509 0.0315
vn 0.8091 -0.1925 0.5553
vn -0.3005 -0.9383 -0.1709
vn -0.5130 -0.8488 0.1279
vn -0.5622 -0.8220 0.0913
vn -0.3006 -0.9383 -0.1709
vn -0.3985 -0.9092 -0.1207
vn 0.4147 -0.7954 -0.4420
vn -0.3006 -0.9382 -0.1713
vn -0.3985 -0.9092 -0.1208
vn 0.4143 -0.7955 -0.4422
vn -0.3987 -0.9091 -0.1208
vn 0.3157 -0.9260 0.2069
vn 0.1267 0.2194 0.9674
vn 0.1640 0.1922 0.9676
vn 0.9419 -0.3269 -0.0768
vn 0.1269 0.2195 0.9673
vn 0.9419 -0.3269 -0.0766
vn 0.9280 -0.3648 -0.0754
vn 0.1470 0.1089 0.9831
vn 0.9026 -0.4294 -0.0302
vn 0.1640 0.1923 0.9675
vn 0.9419 -0.3268 -0.0769
vn -0.1104 -0.4095 0.9056
vn 0.5856 -0.8104 0.0191
vn 0.9026 -0.4295 -0.0303
vn -0.1105 -0.4094 0.9056
vn 0.9025 -0.4296 -0.0300
vn 0.1469 0.1084 0.9832
vn 0.9044 -0.1805 0.3866
vn 0.5384 0.1202 0.8341
vn 0.3927 0.7568 0.5225
vn 0.9043 -0.1807 0.3869
vn 0.3927 0.7569 0.5224
vn 0.9387 0.3375 -0.0709
vn 0.1241 0.1600 0.9793
vn 0.1268 0.2196 0.9673
vn 0.1243 0.1598 0.9793
vn 0.8844 -0.4639 -0.0518
vn 0.0165 -0.9602 -0.2788
vn 0.5858 -0.8102 0.0190
vn -0.1106 -0.4100 0.9054
vn 0.0168 -0.9602 -0.2787
vn -0.1104 -0.4098 0.9055
vn -0.5569 -0.6936 0.4569
vn 0.0346 0.2266 0.9734
vn 0.1436 0.1828 0.9726
vn 0.1240 0.1599 0.9793
vn -0.0686 0.0944 0.9932
vn -0.4878 -0.2777 0.8276
vn -0.1105 -0.4098 0.9055
vn -0.1105 -0.4097 0.9055
vn 0.1465 0.1088 0.9832
vn -0.5130 -0.8488 0.1280
vn 0.0167 -0.9602 -0.2789
vn -0.5131 -0.8488 0.1277
vn -0.5570 -0.6936 0.4569
vn -0.4878 -0.2773 0.8277
vn -0.5131 -0.8487 0.1281
vn -0.5571 -0.6936 0.4567
vn -0.4876 -0.2776 0.8278
vn -0.5571 -0.6937 0.4564
vn -0.1108 -0.4096 0.9055
vn -0.3009 -0.9382 -0.1712
vn 0.4142 -0.7955 -0.4423
vn 0.5857 -0.8103 0.0189
vn -0.3007 -0.9382 -0.1711
vn 0.5857 -0.8103 0.0187
vn 0.0165 -0.9602 -0.2790
vn 0.0344 0.2265 0.9734
vn -0.0745 0.3223 0.9437
vn 0.1241 0.1602 0.9793
vn 0.0946 0.3979 0.9125
vn 0.8509 -0.4971 -0.1699
vn 0.9224 -0.3727 -0.1018
vn 0.9420 -0.3269 -0.0763
vn 0.8508 -0.4973 -0.1698
vn 0.9027 -0.4292 -0.0299
vn 0.0946 0.3980 0.9125
vn 0.9798 -0.1928 0.0538
vn 0.9546 0.2534 -0.1564
vn 0.0945 0.3979 0.9125
vn 0.9546 0.2536 -0.1562
vn 0.3043 0.7516 0.5852
vn 0.3046 0.7516 0.5851
vn 0.9386 0.3377 -0.0706
vn 0.3047 0.7516 0.5850
vn 0.3929 0.7569 0.5223
vn 0.0946 0.3981 0.9124
vn 0.1240 0.1598 0.9793
vn 0.8844 -0.4640 -0.0515
vn 0.0945 0.3977 0.9126
vn 0.8845 -0.4636 -0.0518
vn 0.9798 -0.1927 0.0541
vn 0.0345 0.2267 0.9734
vn -0.0743 0.3228 0.9436
vn 0.4186 0.0545 0.9065
vn 0.0346 0.2267 0.9733
vn 0.4186 0.0548 0.9065
vn 0.5470 -0.0166 0.8370
vn 0.9044 -0.1801 0.3868
vn 0.8091 -0.1923 0.5553
vn 0.9045 -0.1798 0.3866
vn 0.9245 -0.3405 0.1712
vn 0.9251 -0.3382 0.1728
vn 0.8899 -0.4160 -0.1874
vn 0.7126 -0.4373 -0.5487
vn 0.8898 -0.4161 -0.1874
vn 0.9250 -0.3382 0.1730
vn 0.9243 -0.3409 0.1717
vn 0.8890 -0.4182 -0.1866
vn 0.8897 -0.4164 -0.1872
vn 0.4108 -0.3811 -0.8283
vn 0.4099 -0.3827 -0.8280
vn 0.0435 -0.2651 -0.9632
vn 0.4108 -0.3810 -0.8283
vn 0.0441 -0.2633 -0.9637
vn 0.7131 -0.4357 -0.5493
vn 0.4101 -0.3829 -0.8278
vn 0.4108 -0.3813 -0.8282
vn -0.3176 -0.1071 -0.9422
vn -0.3177 -0.1071 -0.9421
vn -0.6137 0.0536 -0.7877
vn -0.6135 0.0554 -0.7877
vn 0.0436 -0.2658 -0.9630
vn -0.3188 -0.1088 -0.9416
vn -0.3175 -0.1075 -0.9421
vn -0.8281 0.2136 -0.5183
vn -0.8300 0.2152 -0.5145
vn -0.9264 0.3549 -0.1255
vn -0.9266 0.3546 -0.1254
vn -0.9260 0.3536 -0.1321
vn -0.6136 0.0553 -0.7877
vn -0.8298 0.2155 -0.5147
vn -0.8299 0.2153 -0.5148
vn -0.8280 0.2142 -0.5182
vn -0.8617 0.4297 0.2700
vn -0.8616 0.4298 0.2700
vn -0.9260 0.3536 -0.1322
vn -0.9264 0.3548 -0.1258
vn -0.8617 0.4298 0.2698
vn -0.4234 0.3879 0.8187
vn -0.4242 0.3864 0.8190
vn -0.0674 0.2741 0.9593
vn -0.4233 0.3882 0.8186
vn -0.0662 0.2756 0.9590
vn -0.6877 0.4371 0.5796
vn -0.4242 0.3868 0.8188
vn -0.4235 0.3884 0.8184
vn 0.3000 0.1201 0.9463
vn 0.2992 0.1182 0.9468
vn 0.4183 0.0547 0.9067
vn 0.2998 0.1203 0.9464
vn 0.4185 0.0545 0.9066
vn 0.5386 0.1199 0.8340
vn -0.0664 0.2762 0.9588
vn -0.0663 0.2761 0.9588
vn 0.2998 0.1204 0.9464
vn -0.0747 0.3225 0.9436
vn 0.0945 0.3980 0.9125
vn 0.3052 0.7516 0.5847
vn -0.0746 0.3224 0.9437
vn 0.3051 0.7516 0.5848
vn 0.3929 0.7568 0.5223
vn 0.9044 -0.4205 -0.0725
vn 0.9359 -0.3508 0.0316
vn 0.9797 -0.1929 0.0541
vn 0.9044 -0.4205 -0.0726
vn 0.9798 -0.1927 0.0540
vn 0.8845 -0.4637 -0.0516
vn 0.9798 -0.1928 0.0539
vn 0.9359 -0.3510 0.0315
vn 0.9386 0.3376 -0.0706
vn 0.9386 0.3376 -0.0705
vn 0.9547 0.2537 -0.1559
vn 0.9118 -0.3962 -0.1074
vn 0.9002 -0.3891 -0.1955
vn -0.0405 -0.2053 -0.9779
vn 0.9118 -0.3965 -0.1072
vn -0.0407 -0.2053 -0.9778
vn -0.0797 -0.2022 -0.9761
vn 0.9002 -0.3890 -0.1956
vn 0.8324 -0.5400 -0.1247
vn -0.1112 -0.3325 -0.9365
vn 0.9003 -0.3890 -0.1955
vn -0.0408 -0.2052 -0.9779
vn 0.5084 -0.8608 0.0218
vn -0.2956 -0.7451 -0.5979
vn -0.1111 -0.3324 -0.9366
vn 0.5087 -0.8606 0.0218
vn -0.1113 -0.3323 -0.9366
vn 0.8323 -0.5402 -0.1246
vn 0.9583 -0.1262 -0.2564
vn 0.9118 -0.3964 -0.1070
vn -0.0798 -0.2020 -0.9761
vn 0.9583 -0.1259 -0.2565
vn -0.0797 -0.2021 -0.9761
vn 0.1070 -0.0082 -0.9942
vn -0.7560 -0.5563 -0.3449
vn -0.2954 -0.7451 -0.5980
vn 0.5087 -0.8606 0.0219
vn -0.7558 -0.5566 -0.3450
vn 0.5086 -0.8607 0.0218
vn 0.3202 -0.6913 0.6477
vn -0.9064 -0.4183 -0.0587
vn -0.5280 -0.0604 -0.8471
vn -0.2955 -0.7450 -0.5980
vn -0.9064 -0.4185 -0.0584
vn -0.2952 -0.7452 -0.5979
vn -0.7558 -0.5565 -0.3452
vn 0.7980 -0.3365 0.5000
vn 0.8411 -0.2569 0.4759
vn 0.7980 -0.3364 0.5000
vn 0.5084 -0.8609 0.0218
vn 0.8324 -0.5400 -0.1245
vn 0.8747 -0.2639 0.4064
vn 0.7976 -0.3366 0.5005
vn 0.8746 -0.2640 0.4066
vn 0.8322 -0.5403 -0.1246
vn 0.9004 -0.3889 -0.1953
vn -0.2954 -0.1112 -0.9489
vn 0.1188 0.5721 -0.8115
vn 0.1070 -0.0081 -0.9942
vn -0.2955 -0.1114 -0.9488
vn 0.1070 -0.0083 -0.9942
vn -0.0798 -0.2017 -0.9762
vn 0.1196 -0.5583 0.8210
vn -0.9064 -0.4184 -0.0585
vn -0.7560 -0.5564 -0.3448
vn -0.7559 -0.5564 -0.3450
vn 0.8887 -0.2608 0.3769
vn 0.8746 -0.2639 0.4067
vn 0.8888 -0.2609 0.3769
vn 0.9003 -0.3891 -0.1953
vn 0.9119 -0.3962 -0.1072
vn -0.3431 -0.0916 -0.9348
vn -0.2954 -0.1116 -0.9488
vn -0.3431 -0.0919 -0.9348
vn -0.0798 -0.2023 -0.9761
vn 0.0701 -0.2838 -0.9563
vn 0.0717 -0.2749 -0.9588
vn -0.2956 -0.1117 -0.9488
vn 0.0700 -0.2840 -0.9563
vn -0.2956 -0.1114 -0.9488
vn -0.3432 -0.0916 -0.9348
vn 0.9039 -0.4069 -0.1319
vn 0.9022 -0.4176 -0.1083
vn 0.8749 -0.2638 0.4063
vn 0.9039 -0.4070 -0.1317
vn 0.8748 -0.2638 0.4064
vn 0.8888 -0.2606 0.3769
vn -0.4175 -0.7443 0.5213
vn -0.5239 -0.7504 0.4030
vn -0.9064 -0.4184 -0.0584
vn -0.4174 -0.7443 0.5214
vn -0.9065 -0.4183 -0.0583
vn 0.1199 -0.5584 0.8209
vn 0.0719 -0.2750 -0.9588
vn 0.1189 0.5723 -0.8114
vn 0.0720 -0.2749 -0.9588
vn 0.1187 0.5725 -0.8112
vn -0.2954 -0.1115 -0.9488
vn 0.9021 -0.4176 -0.1086
vn 0.7961 -0.6035 0.0436
vn 0.7978 -0.3366 0.5003
vn 0.9022 -0.4174 -0.1083
vn 0.7978 -0.3364 0.5003
vn 0.8748 -0.2636 0.4065
vn 0.7957 -0.6040 0.0443
vn 0.5435 -0.7550 0.3669
vn 0.8412 -0.2570 0.4758
vn 0.7958 -0.6039 0.0440
vn 0.7979 -0.3364 0.5002
vn -0.5237 -0.7507 0.4027
vn -0.4676 -0.6428 -0.6067
vn -0.5278 -0.0602 -0.8472
vn -0.5237 -0.7506 0.4029
vn -0.9062 -0.4189 -0.0583
vn 0.8847 -0.2801 -0.3727
vn 0.8889 -0.2607 0.3768
vn 0.8847 -0.2802 -0.3726
vn 0.8889 -0.2607 0.3767
vn 0.8506 0.4890 -0.1934
vn 0.5435 -0.7550 0.3668
vn -0.4176 -0.7443 0.5212
vn 0.1200 -0.5582 0.8210
vn 0.5436 -0.7549 0.3669
vn 0.1199 -0.5582 0.8210
vn 0.8411 -0.2570 0.4759
vn -0.4675 -0.6429 -0.6067
vn -0.1063 -0.4457 -0.8889
vn -0.4852 -0.1574 -0.8601
vn -0.4676 -0.6427 -0.6069
vn -0.4853 -0.1578 -0.8600
vn 0.2663 -0.1789 -0.9471
vn 0.8845 -0.2802 -0.3730
vn 0.8507 0.4888 -0.1934
vn 0.8505 0.4891 -0.1933
vn 0.1191 0.5724 -0.8113
vn -0.1064 -0.4457 -0.8888
vn 0.0701 -0.2839 -0.9563
vn -0.3429 -0.0914 -0.9349
vn -0.1065 -0.4458 -0.8888
vn -0.4853 -0.1573 -0.8601
vn 0.5383 0.1197 0.8342
vn 0.9042 -0.1804 0.3870
vn 0.8345 -0.2133 0.5080
vn 0.8345 -0.2136 0.5079
vn 0.6160 -0.0514 0.7861
vn 0.8671 0.4445 0.2248
vn 0.8347 -0.2134 0.5077
vn 0.9257 -0.3372 0.1713
vn 0.8670 0.4447 0.2248
vn 0.9257 -0.3373 0.1711
vn 0.9379 0.3460 -0.0234
vn 0.9086 0.2966 -0.2941
vn 0.8902 -0.4148 -0.1883
vn 0.7139 -0.4339 -0.5497
vn 0.9086 0.2968 -0.2937
vn 0.7139 -0.4335 -0.5499
vn 0.7818 0.2639 -0.5650
vn 0.9256 -0.3374 0.1714
vn 0.8903 -0.4147 -0.1883
vn 0.9379 0.3460 -0.0232
vn 0.8902 -0.4149 -0.1882
vn 0.9087 0.2964 -0.2941
vn 0.5543 0.3190 -0.7688
vn 0.4112 -0.3791 -0.8290
vn 0.0450 -0.2618 -0.9641
vn 0.5544 0.3191 -0.7687
vn 0.0450 -0.2619 -0.9641
vn 0.7818 0.2638 -0.5650
vn 0.4114 -0.3794 -0.8287
vn 0.7817 0.2638 -0.5651
vn 0.4114 -0.3796 -0.8287
vn 0.5544 0.3189 -0.7688
vn 0.0129 0.5245 -0.8513
vn -0.3168 -0.1054 -0.9426
vn -0.6127 0.0568 -0.7883
vn 0.0130 0.5245 -0.8513
vn -0.6133 0.0571 -0.7878
vn -0.2128 0.6367 -0.7412
vn 0.2781 0.3961 -0.8751
vn 0.0449 -0.2620 -0.9640
vn -0.3171 -0.1056 -0.9425
vn 0.2782 0.3960 -0.8751
vn 0.0129 0.5246 -0.8512
vn -0.3647 0.7590 -0.5394
vn -0.8274 0.2157 -0.5185
vn -0.9254 0.3551 -0.1322
vn -0.3646 0.7589 -0.5395
vn -0.9253 0.3554 -0.1323
vn -0.4542 0.8544 -0.2523
vn -0.2127 0.6366 -0.7413
vn -0.8273 0.2156 -0.5187
vn -0.8273 0.2155 -0.5188
vn -0.3650 0.7589 -0.5393
vn -0.3877 0.9209 0.0411
vn -0.8612 0.4315 0.2686
vn -0.6868 0.4385 0.5796
vn -0.3877 0.9209 0.0414
vn -0.6870 0.4385 0.5794
vn -0.2659 0.9246 0.2729
vn -0.4541 0.8544 -0.2524
vn -0.9252 0.3557 -0.1324
vn -0.8623 0.4302 0.2671
vn -0.3875 0.9209 0.0419
vn -0.0618 0.8913 0.4492
vn -0.0658 0.2773 0.9585
vn -0.0619 0.8913 0.4491
vn 0.1994 0.7992 0.5671
vn -0.2639 0.9242 0.2759
vn -0.6868 0.4387 0.5795
vn -0.4225 0.3898 0.8183
vn -0.2639 0.9242 0.2760
vn -0.4224 0.3899 0.8182
vn 0.4767 0.6897 0.5450
vn 0.3010 0.1210 0.9459
vn 0.6150 -0.0502 0.7869
vn 0.4770 0.6896 0.5450
vn 0.7078 0.5522 0.4406
vn 0.1993 0.7991 0.5673
vn -0.0655 0.2774 0.9585
vn 0.3012 0.1212 0.9458
vn 0.1994 0.7991 0.5671
vn 0.3016 0.1212 0.9457
vn 0.4768 0.6894 0.5454
vt 0.440930 0.423510
vt 0.440660 0.405650
vt 0.435480 0.405710
vt 0.435710 0.423590
vt 0.445990 0.423990
vt 0.445870 0.405890
vt 0.456160 0.423480
vt 0.456360 0.405610
vt 0.451160 0.405870
vt 0.451090 0.423980
vt 0.445520 0.429050
vt 0.440450 0.428580
vt 0.440540 0.364550
vt 0.435300 0.364540
vt 0.435280 0.369780
vt 0.440520 0.369790
vt 0.445780 0.387640
vt 0.445680 0.369340
vt 0.440470 0.387870
vt 0.451070 0.387590
vt 0.450860 0.369310
vt 0.456360 0.387760
vt 0.456010 0.369680
vt 0.435230 0.387900
vt 0.543070 0.547890
vt 0.540760 0.535040
vt 0.536400 0.539130
vt 0.544760 0.547110
vt 0.522040 0.548590
vt 0.524520 0.535710
vt 0.520560 0.548060
vt 0.178350 0.259340
vt 0.188000 0.267850
vt 0.206640 0.240250
vt 0.234540 0.222130
vt 0.225480 0.212600
vt 0.200180 0.272690
vt 0.213770 0.206770
vt 0.173800 0.233810
vt 0.173770 0.247220
vt 0.239380 0.247130
vt 0.239180 0.234250
vt 0.224890 0.268470
vt 0.233980 0.259130
vt 0.188170 0.211630
vt 0.179080 0.221400
vt 0.213020 0.272750
vt 0.200570 0.206770
vt 0.528730 0.539410
vt 0.538950 0.624860
vt 0.541470 0.592320
vt 0.535740 0.592240
vt 0.533380 0.625410
vt 0.543510 0.638000
vt 0.543570 0.641230
vt 0.555590 0.638230
vt 0.555630 0.635040
vt 0.543580 0.625410
vt 0.555910 0.622620
vt 0.567800 0.634880
vt 0.568450 0.622590
vt 0.567660 0.638040
vt 0.579420 0.639600
vt 0.579700 0.636430
vt 0.580490 0.623830
vt 0.596990 0.642000
vt 0.596720 0.638710
vt 0.593280 0.640230
vt 0.593380 0.643330
vt 0.594720 0.595250
vt 0.587050 0.595370
vt 0.589030 0.599840
vt 0.592090 0.599410
vt 0.600390 0.637110
vt 0.600560 0.640390
vt 0.613180 0.641260
vt 0.613130 0.637960
vt 0.599800 0.624420
vt 0.612830 0.625160
vt 0.625960 0.640770
vt 0.625870 0.627750
vt 0.625950 0.644130
vt 0.639040 0.646850
vt 0.639070 0.643430
vt 0.639100 0.630220
vt 0.652230 0.643780
vt 0.652370 0.630450
vt 0.652190 0.647210
vt 0.664980 0.645770
vt 0.665040 0.642320
vt 0.665260 0.628990
vt 0.677870 0.640230
vt 0.678130 0.626850
vt 0.677760 0.643690
vt 0.457340 0.638600
vt 0.457440 0.641950
vt 0.470030 0.639150
vt 0.469990 0.635820
vt 0.457130 0.625580
vt 0.469870 0.622960
vt 0.729460 0.254680
vt 0.728530 0.250190
vt 0.722560 0.248940
vt 0.721770 0.252950
vt 0.726950 0.247460
vt 0.723010 0.246240
vt 0.719000 0.245790
vt 0.716700 0.247620
vt 0.714230 0.251200
vt 0.482320 0.633570
vt 0.482310 0.620840
vt 0.482330 0.636880
vt 0.494350 0.637000
vt 0.494370 0.633720
vt 0.494480 0.621030
vt 0.506680 0.637180
vt 0.507060 0.624440
vt 0.506600 0.640440
vt 0.518770 0.643300
vt 0.518900 0.640040
vt 0.519900 0.627310
vt 0.739930 0.229520
vt 0.742970 0.223860
vt 0.728840 0.220080
vt 0.728250 0.226470
vt 0.754100 0.235830
vt 0.758210 0.250720
vt 0.759320 0.250720
vt 0.755160 0.235730
vt 0.752470 0.231630
vt 0.755300 0.232040
vt 0.757810 0.225560
vt 0.755570 0.225680
vt 0.758200 0.265990
vt 0.754470 0.281500
vt 0.755650 0.281600
vt 0.759320 0.266130
vt 0.739400 0.296480
vt 0.721630 0.298620
vt 0.721760 0.299710
vt 0.739530 0.297800
vt 0.745100 0.296800
vt 0.745190 0.298350
vt 0.750820 0.297860
vt 0.749900 0.295440
vt 0.706310 0.295910
vt 0.693390 0.288620
vt 0.692780 0.289500
vt 0.706140 0.296980
vt 0.684230 0.277780
vt 0.680090 0.264320
vt 0.679000 0.264270
vt 0.683230 0.278260
vt 0.682270 0.250110
vt 0.689570 0.237090
vt 0.688810 0.236300
vt 0.681290 0.249610
vt 0.700300 0.226870
vt 0.713630 0.220810
vt 0.713260 0.219780
vt 0.699760 0.225910
vt 0.743230 0.222810
vt 0.728750 0.219010
vt 0.731590 0.250380
vt 0.733340 0.255370
vt 0.740450 0.254120
vt 0.738200 0.246080
vt 0.733070 0.239860
vt 0.745630 0.240480
vt 0.738410 0.231840
vt 0.748580 0.252180
vt 0.750060 0.251830
vt 0.746910 0.239470
vt 0.739310 0.230480
vt 0.740460 0.262620
vt 0.748760 0.264340
vt 0.744950 0.276480
vt 0.746280 0.277510
vt 0.750250 0.264640
vt 0.737640 0.270700
vt 0.730980 0.276620
vt 0.734930 0.285320
vt 0.721820 0.288510
vt 0.721700 0.290110
vt 0.735630 0.286870
vt 0.722300 0.279020
vt 0.713720 0.278240
vt 0.709410 0.287030
vt 0.699130 0.281820
vt 0.698050 0.282920
vt 0.708710 0.288400
vt 0.706330 0.274560
vt 0.701310 0.268430
vt 0.692280 0.273550
vt 0.689410 0.263230
vt 0.687880 0.263580
vt 0.690920 0.274340
vt 0.699320 0.261100
vt 0.700450 0.253550
vt 0.691290 0.252410
vt 0.697090 0.242540
vt 0.695820 0.241840
vt 0.689790 0.252210
vt 0.704330 0.246590
vt 0.710140 0.241420
vt 0.705600 0.234960
vt 0.715770 0.230450
vt 0.715570 0.229020
vt 0.704760 0.233790
vt 0.717040 0.238280
vt 0.725190 0.237410
vt 0.727630 0.229030
vt 0.728050 0.227580
vt 0.727460 0.264840
vt 0.729200 0.259890
vt 0.720620 0.257700
vt 0.719290 0.262460
vt 0.712260 0.255730
vt 0.711400 0.260500
vt 0.721430 0.270140
vt 0.724350 0.268480
vt 0.718090 0.266510
vt 0.717250 0.269220
vt 0.712010 0.264840
vt 0.713430 0.267630
vt 0.715330 0.227870
vt 0.500350 0.211180
vt 0.496770 0.515910
vt 0.510420 0.519040
vt 0.513690 0.211400
vt 0.527110 0.212010
vt 0.474240 0.211020
vt 0.470500 0.516920
vt 0.483750 0.515490
vt 0.487420 0.211000
vt 0.661090 0.211190
vt 0.664790 0.518660
vt 0.678180 0.516760
vt 0.674210 0.210860
vt 0.460780 0.210940
vt 0.456930 0.518790
vt 0.634190 0.211540
vt 0.637330 0.520070
vt 0.651300 0.520050
vt 0.647870 0.211360
vt 0.606820 0.211440
vt 0.609460 0.516320
vt 0.623280 0.518290
vt 0.620430 0.211450
vt 0.579730 0.211480
vt 0.582580 0.515820
vt 0.595980 0.515760
vt 0.593210 0.211400
vt 0.552970 0.211470
vt 0.554870 0.516620
vt 0.568900 0.515610
vt 0.566380 0.211400
vt 0.496380 0.525740
vt 0.494730 0.588030
vt 0.507340 0.591220
vt 0.509520 0.529160
vt 0.520020 0.593480
vt 0.470390 0.526700
vt 0.469790 0.589620
vt 0.482410 0.587770
vt 0.483530 0.525250
vt 0.664860 0.528700
vt 0.665460 0.594400
vt 0.678490 0.592230
vt 0.678190 0.526770
vt 0.456870 0.591940
vt 0.457010 0.528650
vt 0.637480 0.530130
vt 0.638780 0.596020
vt 0.653770 0.595400
vt 0.651420 0.530120
vt 0.609490 0.526070
vt 0.611950 0.592050
vt 0.625260 0.594060
vt 0.623410 0.528270
vt 0.583110 0.525580
vt 0.582060 0.591460
vt 0.598870 0.591870
vt 0.596280 0.525380
vt 0.755910 0.287770
vt 0.750130 0.282310
vt 0.751390 0.287050
vt 0.754740 0.292030
vt 0.555840 0.526880
vt 0.556510 0.590020
vt 0.569390 0.590070
vt 0.569410 0.525570
vt 0.522070 0.639680
vt 0.521970 0.643620
vt 0.528480 0.644010
vt 0.528450 0.641020
vt 0.540300 0.637570
vt 0.534020 0.639250
vt 0.543790 0.592270
vt 0.704120 0.232820
vt 0.694880 0.241190
vt 0.688700 0.251970
vt 0.686780 0.263740
vt 0.689960 0.274860
vt 0.697340 0.283740
vt 0.708310 0.289470
vt 0.721690 0.291320
vt 0.736210 0.288020
vt 0.584040 0.624620
vt 0.586980 0.625140
vt 0.747370 0.278310
vt 0.751460 0.264890
vt 0.751240 0.251630
vt 0.747930 0.238820
vt 0.521750 0.626820
vt 0.527350 0.627320
vt 0.718180 0.244600
vt 0.723300 0.244610
vt 0.728230 0.246590
vt 0.710530 0.250200
vt 0.713980 0.246620
vt 0.707580 0.259780
vt 0.708180 0.254880
vt 0.712190 0.268350
vt 0.708970 0.264510
vt 0.722070 0.271450
vt 0.716740 0.270790
vt 0.731600 0.266280
vt 0.727270 0.269890
vt 0.733570 0.260980
vt 0.539770 0.211920
vt 0.539880 0.200780
vt 0.527100 0.200820
vt 0.524070 0.593580
vt 0.746800 0.225230
vt 0.746910 0.224150
vt 0.744860 0.228800
vt 0.540380 0.641030
vt 0.748980 0.233470
vt 0.534060 0.642610
vt 0.752680 0.223280
vt 0.753330 0.221420
vt 0.529530 0.593880
vt 0.753750 0.227080
vt 0.751300 0.224750
vt 0.528850 0.550060
vt 0.534700 0.549670
vt 0.534700 0.544540
vt 0.530110 0.545110
vt 0.587480 0.639690
vt 0.594020 0.625590
vt 0.587380 0.642790
vt 0.757050 0.292760
vt 0.745500 0.293200
vt 0.740800 0.291390
vt 0.757350 0.287820
vt 0.584470 0.638160
vt 0.584120 0.641390
vt 0.597250 0.625140
vt 0.552980 0.200730
vt 0.566350 0.200620
vt 0.579700 0.200660
vt 0.593170 0.200560
vt 0.606760 0.200570
vt 0.620350 0.200510
vt 0.634100 0.200530
vt 0.647760 0.200360
vt 0.660970 0.200230
vt 0.460920 0.199960
vt 0.474360 0.200120
vt 0.674070 0.199960
vt 0.487540 0.200150
vt 0.500460 0.200360
vt 0.513770 0.200550
s 0
usemtl mat0.1056
f 1/1/1 2/2/2 3/3/3
f 1/1/4 3/3/3 4/4/5
f 5/5/6 6/6/7 2/2/8
f 5/5/9 2/2/8 1/1/10
f 7/7/11 8/8/12 9/9/13
f 7/7/11 9/9/14 10/10/15
f 11/11/16 5/5/17 1/1/18
f 11/11/19 1/1/20 12/12/21
f 13/13/22 14/14/23 15/15/24
f 13/13/22 15/15/25 16/16/26
f 10/10/16 9/9/27 6/6/28
f 10/10/29 6/6/30 5/5/31
f 17/17/32 18/18/33 16/16/34
f 17/17/35 16/16/36 19/19/37
f 20/20/38 21/21/39 18/18/22
f 20/20/40 18/18/41 17/17/42
f 22/22/43 23/23/44 21/21/45
f 22/22/46 21/21/39 20/20/47
f 19/19/48 24/24/49 3/3/12
f 19/19/50 3/3/12 2/2/51
f 17/17/52 19/19/53 2/2/54
f 17/17/55 2/2/56 6/6/57
f 20/20/58 17/17/59 6/6/60
f 20/20/61 6/6/62 9/9/63
f 22/22/64 20/20/65 9/9/66
f 22/22/67 9/9/68 8/8/3
f 19/19/69 16/16/70 15/15/71
f 19/19/72 15/15/73 24/24/74
f 25/25/75 26/26/76 27/27/77
f 26/26/78 25/25/79 28/28/80
f 29/29/81 30/30/82 31/31/83
f 32/32/84 33/33/85 34/34/86
f 35/35/87 36/36/88 34/34/89
f 33/33/90 37/37/91 34/34/92
f 36/36/93 38/38/94 34/34/86
f 39/39/95 40/40/96 34/34/86
f 41/41/97 42/42/98 34/34/99
f 40/40/100 32/32/101 34/34/102
f 43/43/103 44/44/104 34/34/99
f 42/42/105 35/35/106 34/34/107
f 45/45/108 46/46/109 34/34/89
f 44/44/110 41/41/111 34/34/102
f 46/46/112 39/39/113 34/34/114
f 37/37/115 47/47/116 34/34/117
f 38/38/118 48/48/119 34/34/99
f 47/47/120 43/43/121 34/34/122
f 48/48/123 45/45/124 34/34/89
f 30/30/125 29/29/126 49/49/127
f 50/50/128 51/51/129 52/52/130
f 50/50/131 52/52/132 53/53/133
f 54/54/134 55/55/135 56/56/136
f 54/54/137 56/56/138 57/57/139
f 58/58/140 54/54/141 57/57/142
f 58/58/143 57/57/144 59/59/145
f 59/59/146 57/57/147 60/60/148
f 59/59/149 60/60/150 61/61/151
f 57/57/152 56/56/153 62/62/154
f 57/57/155 62/62/156 60/60/157
f 60/60/158 62/62/159 63/63/160
f 60/60/161 63/63/162 64/64/163
f 61/61/164 60/60/158 64/64/165
f 61/61/166 64/64/163 65/65/167
f 66/66/168 67/67/169 68/68/170
f 66/66/171 68/68/170 69/69/172
f 70/70/173 71/71/174 72/72/175
f 70/70/176 72/72/177 73/73/178
f 74/74/179 75/75/180 76/76/181
f 74/74/182 76/76/183 77/77/184
f 78/78/185 74/74/179 77/77/186
f 78/78/187 77/77/186 79/79/188
f 79/79/189 77/77/190 80/80/191
f 79/79/192 80/80/193 81/81/194
f 77/77/195 76/76/196 82/82/197
f 77/77/198 82/82/199 80/80/200
f 80/80/201 82/82/202 83/83/203
f 80/80/204 83/83/205 84/84/206
f 81/81/207 80/80/193 84/84/206
f 81/81/207 84/84/208 85/85/209
f 85/85/210 84/84/211 86/86/212
f 85/85/209 86/86/213 87/87/214
f 84/84/215 83/83/216 88/88/217
f 84/84/206 88/88/218 86/86/219
f 86/86/220 88/88/221 89/89/222
f 86/86/223 89/89/224 90/90/225
f 87/87/226 86/86/227 90/90/228
f 87/87/229 90/90/230 91/91/231
f 91/91/232 90/90/233 92/92/234
f 91/91/235 92/92/236 93/93/237
f 90/90/238 89/89/239 94/94/240
f 90/90/238 94/94/241 92/92/242
f 95/95/243 96/96/244 97/97/245
f 95/95/246 97/97/247 98/98/248
f 99/99/249 95/95/250 98/98/251
f 99/99/252 98/98/253 100/100/254
f 101/101/255 102/102/256 103/103/257
f 101/101/258 103/103/259 104/104/260
f 102/102/261 105/105/262 106/106/263
f 102/102/264 106/106/265 103/103/266
f 103/103/267 106/106/268 107/107/269
f 103/103/270 107/107/271 108/108/272
f 104/104/273 103/103/274 108/108/275
f 104/104/276 108/108/277 109/109/278
f 100/100/279 98/98/280 110/110/281
f 100/100/279 110/110/282 111/111/283
f 98/98/284 97/97/245 112/112/285
f 98/98/286 112/112/287 110/110/282
f 110/110/288 112/112/289 113/113/290
f 110/110/291 113/113/292 114/114/293
f 111/111/294 110/110/295 114/114/296
f 111/111/297 114/114/296 115/115/298
f 115/115/299 114/114/300 116/116/301
f 115/115/302 116/116/303 117/117/304
f 114/114/305 113/113/306 118/118/307
f 114/114/308 118/118/309 116/116/310
f 116/116/311 118/118/312 119/119/313
f 116/116/314 119/119/315 120/120/316
f 117/117/317 116/116/318 120/120/319
f 117/117/320 120/120/321 121/121/322
f 122/122/323 123/123/324 124/124/325
f 122/122/326 124/124/327 125/125/328
f 126/126/329 127/127/330 128/128/331
f 126/126/332 128/128/333 129/129/334
f 130/130/335 131/131/336 132/132/337
f 130/130/338 132/132/339 133/133/340
f 134/134/341 135/135/342 136/136/343
f 134/134/344 136/136/345 137/137/346
f 127/127/347 134/134/348 137/137/349
f 127/127/350 137/137/351 128/128/352
f 138/138/353 139/139/354 140/140/355
f 138/138/356 140/140/355 141/141/357
f 142/142/358 143/143/359 144/144/360
f 142/142/361 144/144/362 145/145/363
f 146/146/364 147/147/365 148/148/366
f 146/146/367 148/148/368 149/149/369
f 139/139/370 146/146/364 149/149/371
f 139/139/372 149/149/373 140/140/374
f 150/150/375 151/151/376 152/152/377
f 150/150/378 152/152/379 153/153/380
f 147/147/381 150/150/382 153/153/383
f 147/147/384 153/153/385 148/148/386
f 154/154/387 155/155/388 156/156/389
f 154/154/387 156/156/390 157/157/391
f 151/151/392 154/154/393 157/157/394
f 151/151/395 157/157/396 152/152/397
f 158/158/398 159/159/399 160/160/400
f 158/158/401 160/160/400 161/161/402
f 155/155/403 158/158/404 161/161/405
f 155/155/406 161/161/407 156/156/408
f 124/124/409 123/123/410 162/162/411
f 124/124/412 162/162/413 163/163/414
f 159/159/415 124/124/416 163/163/417
f 159/159/418 163/163/312 160/160/419
f 164/164/420 165/165/421 166/166/422
f 164/164/423 166/166/424 167/167/425
f 168/168/426 167/167/427 169/169/428
f 168/168/429 169/169/430 170/170/431
f 169/169/432 171/171/433 172/172/434
f 169/169/435 172/172/436 173/173/437
f 170/170/438 169/169/439 173/173/440
f 170/170/441 173/173/442 174/174/443
f 167/167/444 166/166/445 171/171/446
f 167/167/447 171/171/448 169/169/449
f 166/166/450 175/175/451 176/176/452
f 166/166/453 176/176/454 171/171/455
f 176/176/456 177/177/457 178/178/458
f 176/176/459 178/178/460 179/179/461
f 171/171/462 176/176/452 179/179/463
f 171/171/464 179/179/465 172/172/466
f 175/175/467 180/180/468 177/177/469
f 175/175/470 177/177/471 176/176/472
f 180/180/473 181/181/474 182/182/475
f 180/180/476 182/182/477 177/177/478
f 182/182/477 183/183/479 184/184/480
f 182/182/481 184/184/482 185/185/483
f 177/177/484 182/182/485 185/185/486
f 177/177/487 185/185/486 178/178/488
f 181/181/489 186/186/490 183/183/491
f 181/181/492 183/183/493 182/182/494
f 186/186/495 187/187/496 188/188/497
f 186/186/498 188/188/499 183/183/500
f 188/188/501 189/189/502 190/190/503
f 188/188/504 190/190/503 191/191/505
f 183/183/506 188/188/501 191/191/507
f 183/183/506 191/191/508 184/184/509
f 187/187/510 192/192/511 189/189/512
f 187/187/513 189/189/514 188/188/515
f 192/192/516 193/193/517 194/194/518
f 192/192/519 194/194/518 189/189/520
f 194/194/521 195/195/522 196/196/523
f 194/194/524 196/196/525 197/197/526
f 189/189/527 194/194/528 197/197/529
f 189/189/530 197/197/531 190/190/532
f 193/193/533 198/198/534 195/195/535
f 193/193/536 195/195/537 194/194/538
f 198/198/539 199/199/540 200/200/541
f 198/198/542 200/200/543 195/195/544
f 200/200/545 201/201/546 202/202/547
f 200/200/548 202/202/549 203/203/550
f 195/195/551 200/200/552 203/203/553
f 195/195/554 203/203/555 196/196/556
f 199/199/557 204/204/558 201/201/559
f 199/199/560 201/201/561 200/200/562
f 204/204/563 205/205/564 206/206/565
f 204/204/566 206/206/567 201/201/568
f 206/206/569 207/207/570 208/208/571
f 206/206/572 208/208/573 209/209/574
f 201/201/575 206/206/576 209/209/577
f 201/201/559 209/209/578 202/202/579
f 205/205/580 210/210/581 207/207/582
f 205/205/583 207/207/584 206/206/585
f 210/210/586 211/211/587 212/212/588
f 210/210/589 212/212/588 207/207/590
f 212/212/591 170/170/592 174/174/593
f 212/212/594 174/174/595 213/213/596
f 207/207/597 212/212/598 213/213/599
f 207/207/600 213/213/601 208/208/602
f 214/214/603 215/215/604 216/216/605
f 214/214/606 216/216/607 217/217/608
f 215/215/609 101/101/610 104/104/276
f 215/215/611 104/104/612 216/216/613
f 216/216/605 104/104/614 109/109/615
f 216/216/616 109/109/617 218/218/618
f 217/217/619 216/216/620 218/218/621
f 217/217/622 218/218/623 219/219/624
f 220/220/625 221/221/626 222/222/627
f 220/220/628 222/222/629 223/223/630
f 221/221/631 214/214/632 217/217/633
f 221/221/634 217/217/635 222/222/636
f 222/222/637 217/217/638 219/219/639
f 222/222/640 219/219/641 224/224/642
f 223/223/643 222/222/627 224/224/644
f 223/223/645 224/224/646 225/225/647
f 125/125/648 124/124/649 159/159/650
f 125/125/651 159/159/652 226/226/653
f 227/227/654 228/228/655 229/229/656
f 227/227/657 229/229/658 230/230/659
f 230/230/660 229/229/661 30/30/125
f 230/230/662 30/30/125 231/231/663
f 232/232/664 233/233/665 234/234/666
f 232/232/667 234/234/668 235/235/669
f 235/235/670 234/234/671 228/228/672
f 235/235/673 228/228/674 227/227/675
f 236/236/676 237/237/677 238/238/678
f 236/236/679 238/238/680 239/239/681
f 240/240/682 241/241/683 233/233/684
f 240/240/685 233/233/686 232/232/687
f 242/242/688 243/243/689 244/244/690
f 242/242/691 244/244/692 245/245/693
f 245/245/694 244/244/695 237/237/696
f 245/245/697 237/237/698 236/236/699
f 246/246/700 247/247/701 248/248/702
f 246/246/703 248/248/702 249/249/704
f 249/249/705 248/248/706 243/243/707
f 249/249/704 243/243/708 242/242/709
f 250/250/710 251/251/711 252/252/712
f 250/250/713 252/252/712 253/253/714
f 253/253/715 252/252/716 247/247/717
f 253/253/718 247/247/701 246/246/719
f 254/254/720 255/255/721 256/256/722
f 254/254/720 256/256/723 257/257/724
f 257/257/725 256/256/726 251/251/727
f 257/257/728 251/251/729 250/250/730
f 258/258/731 259/259/732 260/260/733
f 258/258/731 260/260/734 261/261/735
f 259/259/736 115/115/737 117/117/738
f 259/259/739 117/117/740 260/260/734
f 260/260/741 117/117/742 121/121/743
f 260/260/734 121/121/744 262/262/745
f 261/261/741 260/260/746 262/262/747
f 261/261/748 262/262/747 31/31/749
f 263/263/750 264/264/750 265/265/751
f 263/263/752 265/265/753 266/266/754
f 264/264/752 100/100/279 111/111/755
f 264/264/752 111/111/756 265/265/757
f 265/265/758 111/111/759 115/115/760
f 265/265/761 115/115/737 259/259/762
f 266/266/754 265/265/763 259/259/764
f 266/266/765 259/259/762 258/258/762
f 267/267/766 268/268/767 269/269/768
f 267/267/769 269/269/768 270/270/770
f 268/268/771 91/91/772 93/93/773
f 268/268/767 93/93/774 269/269/775
f 271/271/776 99/99/252 100/100/777
f 271/271/778 100/100/254 264/264/779
f 272/272/780 271/271/780 264/264/779
f 272/272/776 264/264/752 263/263/781
f 273/273/782 274/274/783 275/275/784
f 273/273/785 275/275/786 276/276/787
f 274/274/788 85/85/789 87/87/790
f 274/274/791 87/87/792 275/275/793
f 275/275/786 87/87/229 91/91/794
f 275/275/786 91/91/795 268/268/796
f 276/276/797 275/275/786 268/268/798
f 276/276/799 268/268/800 267/267/801
f 277/277/802 278/278/803 279/279/804
f 277/277/805 279/279/804 280/280/806
f 278/278/803 79/79/189 81/81/807
f 278/278/808 81/81/809 279/279/810
f 279/279/811 81/81/812 85/85/813
f 279/279/814 85/85/815 274/274/816
f 280/280/817 279/279/811 274/274/818
f 280/280/819 274/274/820 273/273/821
f 281/281/822 282/282/823 283/283/824
f 281/281/825 283/283/826 284/284/827
f 285/285/828 286/286/829 287/287/830
f 285/285/831 287/287/832 288/288/833
f 283/283/834 78/78/835 79/79/836
f 283/283/834 79/79/837 278/278/838
f 284/284/839 283/283/840 278/278/841
f 284/284/842 278/278/838 277/277/843
f 289/289/844 290/290/845 291/291/846
f 289/289/847 291/291/848 292/292/849
f 290/290/845 59/59/146 61/61/850
f 290/290/851 61/61/852 291/291/846
f 291/291/853 61/61/854 65/65/167
f 291/291/855 65/65/856 282/282/823
f 292/292/853 291/291/855 282/282/857
f 292/292/853 282/282/858 281/281/859
f 293/293/860 294/294/861 295/295/862
f 293/293/863 295/295/864 296/296/865
f 297/297/866 50/50/867 53/53/868
f 297/297/869 53/53/870 298/298/871
f 299/299/872 58/58/873 59/59/874
f 299/299/875 59/59/876 290/290/877
f 28/28/878 299/299/872 290/290/879
f 28/28/880 290/290/845 289/289/845
f 208/208/881 213/213/882 125/125/883
f 208/208/881 125/125/884 226/226/885
f 213/213/599 174/174/595 122/122/886
f 213/213/887 122/122/886 125/125/888
f 226/226/889 159/159/890 158/158/891
f 226/226/892 158/158/893 300/300/894
f 300/300/895 158/158/896 155/155/897
f 300/300/898 155/155/899 301/301/900
f 202/202/579 209/209/901 300/300/902
f 202/202/903 300/300/904 301/301/905
f 209/209/906 208/208/907 226/226/908
f 209/209/909 226/226/910 300/300/911
f 301/301/912 155/155/913 154/154/914
f 301/301/915 154/154/916 302/302/917
f 302/302/918 154/154/919 151/151/920
f 302/302/921 151/151/922 303/303/923
f 196/196/924 203/203/925 302/302/926
f 196/196/927 302/302/917 303/303/928
f 203/203/929 202/202/930 301/301/931
f 203/203/932 301/301/933 302/302/934
f 303/303/928 151/151/920 150/150/935
f 303/303/936 150/150/937 304/304/938
f 304/304/939 150/150/940 147/147/941
f 304/304/939 147/147/942 305/305/943
f 190/190/944 197/197/945 304/304/939
f 190/190/946 304/304/939 305/305/947
f 197/197/948 196/196/949 303/303/950
f 197/197/948 303/303/951 304/304/939
f 305/305/952 147/147/953 146/146/954
f 305/305/955 146/146/956 306/306/957
f 306/306/958 146/146/959 139/139/960
f 306/306/961 139/139/962 307/307/963
f 184/184/480 191/191/964 306/306/965
f 184/184/966 306/306/967 307/307/968
f 191/191/969 190/190/970 305/305/971
f 191/191/972 305/305/973 306/306/974
f 307/307/975 139/139/976 138/138/977
f 307/307/978 138/138/979 308/308/980
f 71/71/981 309/309/982 310/310/983
f 71/71/984 310/310/985 72/72/986
f 178/178/987 185/185/988 308/308/989
f 178/178/990 308/308/991 311/311/992
f 185/185/993 184/184/994 307/307/995
f 185/185/996 307/307/995 308/308/997
f 311/311/998 135/135/999 134/134/1000
f 311/311/1001 134/134/1002 312/312/1003
f 312/312/1004 134/134/1005 127/127/1006
f 312/312/1007 127/127/1008 313/313/1009
f 172/172/1010 179/179/1011 312/312/1012
f 172/172/466 312/312/1013 313/313/1014
f 179/179/1015 178/178/1016 311/311/1017
f 179/179/461 311/311/1018 312/312/1019
f 313/313/1020 127/127/1021 126/126/1022
f 313/313/1023 126/126/1024 314/314/1025
f 315/315/1026 293/293/1027 296/296/1028
f 315/315/1029 296/296/1030 316/316/1031
f 174/174/1032 173/173/1033 314/314/1034
f 174/174/1035 314/314/1036 122/122/323
f 173/173/1037 172/172/436 313/313/1038
f 173/173/1039 313/313/1040 314/314/1041
f 211/211/1042 168/168/1043 170/170/1044
f 211/211/1045 170/170/1046 212/212/588
f 317/317/1047 318/318/1048 211/211/1049
f 317/317/1050 211/211/1042 210/210/1051
f 318/318/1052 319/319/1053 168/168/1054
f 318/318/1055 168/168/1056 211/211/1057
f 320/320/1058 321/321/1059 205/205/1060
f 320/320/1061 205/205/564 204/204/566
f 321/321/1062 317/317/1063 210/210/1064
f 321/321/1062 210/210/1065 205/205/564
f 322/322/1066 323/323/1067 199/199/1068
f 322/322/1069 199/199/1070 198/198/1071
f 323/323/1072 320/320/1073 204/204/1074
f 323/323/1075 204/204/1076 199/199/1077
f 324/324/1078 325/325/1079 193/193/1080
f 324/324/1081 193/193/517 192/192/1082
f 325/325/1083 322/322/1084 198/198/1085
f 325/325/1086 198/198/1087 193/193/1088
f 326/326/1089 327/327/1090 187/187/1091
f 326/326/1092 187/187/1093 186/186/1094
f 327/327/1095 324/324/1081 192/192/1096
f 327/327/1097 192/192/519 187/187/1098
f 328/328/1099 329/329/1100 181/181/1101
f 328/328/1102 181/181/1103 180/180/1104
f 329/329/1105 326/326/1106 186/186/1107
f 329/329/1108 186/186/1109 181/181/1110
f 165/165/1111 330/330/1112 175/175/470
f 165/165/1111 175/175/1113 166/166/1114
f 330/330/1115 328/328/1116 180/180/1117
f 330/330/1118 180/180/1119 175/175/1120
f 319/319/1121 164/164/1122 167/167/1123
f 319/319/1124 167/167/1125 168/168/1126
f 105/105/1127 102/102/1128 164/164/1129
f 105/105/1130 164/164/1131 319/319/1132
f 102/102/1133 101/101/1134 165/165/1111
f 102/102/1135 165/165/1136 164/164/1137
f 101/101/1138 215/215/1139 330/330/1140
f 101/101/1141 330/330/1142 165/165/1143
f 215/215/1144 214/214/1145 328/328/1116
f 215/215/1146 328/328/1147 330/330/1148
f 214/214/1149 221/221/1150 329/329/1151
f 214/214/1152 329/329/1105 328/328/1153
f 221/221/1154 220/220/1155 326/326/1156
f 221/221/1157 326/326/1158 329/329/1159
f 220/220/1160 223/223/1161 327/327/1162
f 220/220/1163 327/327/1164 326/326/1165
f 223/223/1166 225/225/1167 324/324/1168
f 223/223/1169 324/324/1170 327/327/1171
f 225/225/1172 224/224/1173 325/325/1174
f 225/225/1175 325/325/1176 324/324/1177
f 224/224/1178 219/219/1179 322/322/1180
f 224/224/1181 322/322/1069 325/325/1182
f 219/219/1183 218/218/618 323/323/1075
f 219/219/1183 323/323/1184 322/322/1185
f 218/218/621 109/109/615 320/320/1186
f 218/218/1187 320/320/1188 323/323/1189
f 109/109/1190 108/108/1191 321/321/1192
f 109/109/1193 321/321/1194 320/320/1195
f 108/108/1196 107/107/1197 317/317/1198
f 108/108/1199 317/317/1200 321/321/1201
f 107/107/1202 106/106/1203 318/318/1204
f 107/107/1205 318/318/1206 317/317/1207
f 106/106/1208 105/105/1209 319/319/1210
f 106/106/1211 319/319/1212 318/318/1055
f 331/331/1213 26/26/1214 255/255/1215
f 331/331/1213 255/255/1216 254/254/1217
f 293/293/860 315/315/1218 121/121/1219
f 293/293/1220 121/121/744 120/120/1221
f 294/294/1222 293/293/1220 120/120/1223
f 294/294/1222 120/120/1224 119/119/1225
f 231/231/1226 331/331/1227 332/332/1228
f 231/231/1229 332/332/1228 333/333/1230
f 315/315/1231 334/334/1232 262/262/1233
f 315/315/1234 262/262/1235 121/121/1236
f 335/335/1237 336/336/1238 162/162/1239
f 335/335/1240 162/162/1241 123/123/1242
f 337/337/1243 335/335/1244 123/123/1245
f 337/337/1246 123/123/1247 122/122/1248
f 297/297/1249 338/338/1250 55/55/1251
f 297/297/1252 55/55/1253 54/54/1254
f 50/50/1255 297/297/1256 54/54/1257
f 50/50/1258 54/54/1259 58/58/1260
f 131/131/1261 130/130/1262 126/126/1263
f 131/131/1264 126/126/1265 129/129/1266
f 51/51/1267 50/50/1268 58/58/1269
f 51/51/1270 58/58/1271 299/299/1272
f 25/25/1273 51/51/1274 299/299/1275
f 25/25/1276 299/299/875 28/28/1277
f 339/339/1278 337/337/1279 122/122/1280
f 339/339/1281 122/122/886 314/314/1282
f 130/130/1283 339/339/1284 314/314/1285
f 130/130/1286 314/314/1287 126/126/1288
f 316/316/1289 296/296/1290 298/298/1291
f 316/316/1292 298/298/1293 53/53/1294
f 296/296/1290 295/295/1295 340/340/1296
f 296/296/1297 340/340/1296 298/298/1298
f 341/341/1299 133/133/1300 132/132/1301
f 341/341/1302 132/132/1303 342/342/1304
f 26/26/1305 30/30/1306 49/49/1307
f 26/26/1308 49/49/1309 27/27/1310
f 343/343/1311 316/316/1312 53/53/133
f 343/343/1313 53/53/870 52/52/1314
f 344/344/1315 133/133/1316 341/341/1317
f 344/344/1318 341/341/1319 345/345/1320
f 334/334/1321 315/315/1322 316/316/1289
f 334/334/1321 316/316/1312 343/343/1323
f 336/336/1324 335/335/1325 341/341/1326
f 336/336/861 341/341/1327 342/342/1328
f 337/337/1329 339/339/1284 344/344/1330
f 337/337/1331 344/344/1315 345/345/1332
f 335/335/1333 337/337/1334 345/345/1335
f 335/335/1336 345/345/1337 341/341/1338
f 339/339/1339 130/130/1340 133/133/1341
f 339/339/1342 133/133/1343 344/344/1344
f 29/29/126 334/334/1345 343/343/1311
f 29/29/1346 343/343/1347 346/346/1348
f 338/338/1349 297/297/1350 298/298/1351
f 338/338/1352 298/298/871 340/340/1353
f 346/346/1354 347/347/1355 348/348/1356
f 346/346/1357 348/348/1358 349/349/1359
f 349/349/1360 348/348/1358 27/27/1361
f 349/349/1362 27/27/1361 49/49/1363
f 346/346/1364 343/343/1365 52/52/1366
f 346/346/1367 52/52/1368 347/347/1369
f 334/334/1370 29/29/1371 31/31/1372
f 334/334/1373 31/31/1374 262/262/1375
f 26/26/1376 28/28/1377 289/289/845
f 26/26/1378 289/289/1379 255/255/1380
f 256/256/1381 292/292/855 281/281/1382
f 256/256/1383 281/281/859 251/251/729
f 255/255/1384 289/289/1385 292/292/846
f 255/255/1384 292/292/1386 256/256/1387
f 252/252/1388 284/284/1389 277/277/1390
f 252/252/1391 277/277/1390 247/247/1392
f 251/251/1393 281/281/822 284/284/1394
f 251/251/1393 284/284/1394 252/252/1395
f 248/248/1396 280/280/806 273/273/782
f 248/248/1397 273/273/1398 243/243/1399
f 247/247/717 277/277/1400 280/280/1401
f 247/247/701 280/280/806 248/248/1402
f 244/244/1403 276/276/1404 267/267/1405
f 244/244/695 267/267/1406 237/237/1407
f 243/243/1408 273/273/788 276/276/1409
f 243/243/1408 276/276/1410 244/244/1411
f 241/241/1412 272/272/776 263/263/781
f 241/241/1413 263/263/781 233/233/686
f 237/237/1414 267/267/1415 270/270/768
f 237/237/1407 270/270/768 238/238/1416
f 234/234/1417 266/266/1418 258/258/1419
f 234/234/1420 258/258/762 228/228/1421
f 233/233/684 263/263/750 266/266/754
f 233/233/1422 266/266/1423 234/234/1424
f 229/229/1425 261/261/1426 31/31/1427
f 229/229/1428 31/31/1429 30/30/1430
f 228/228/1431 258/258/739 261/261/735
f 228/228/1432 261/261/733 229/229/1433
f 29/29/1434 346/346/1435 349/349/1436
f 29/29/1437 349/349/1438 49/49/1439
f 51/51/1440 25/25/1441 347/347/1442
f 51/51/1443 347/347/1444 52/52/1445
f 347/347/1446 25/25/1447 27/27/1448
f 347/347/1369 27/27/1449 348/348/1450
f 310/310/1451 350/350/1452 68/68/1453
f 310/310/1454 68/68/1455 351/351/1456
f 350/350/1457 352/352/1458 69/69/1459
f 350/350/1460 69/69/1459 68/68/1461
f 288/288/1462 145/145/1463 144/144/1464
f 288/288/1465 144/144/1466 353/353/1467
f 72/72/1468 310/310/1469 351/351/1470
f 72/72/1471 351/351/1472 73/73/1473
f 354/354/1474 145/145/1475 288/288/1476
f 354/354/1477 288/288/1478 287/287/1479
f 355/355/1480 142/142/1481 145/145/1482
f 355/355/1483 145/145/1484 354/354/1485
f 356/356/1486 285/285/1487 288/288/1462
f 356/356/1488 288/288/1489 353/353/1490
f 357/357/1491 358/358/1492 352/352/1467
f 357/357/1493 352/352/1494 350/350/1495
f 359/359/1496 70/70/1497 73/73/1498
f 359/359/1499 73/73/1500 351/351/1501
f 286/286/1502 355/355/1503 354/354/1504
f 286/286/1502 354/354/1505 287/287/832
f 309/309/1506 357/357/1507 350/350/1460
f 309/309/1508 350/350/1509 310/310/1510
f 67/67/1511 359/359/1512 351/351/1472
f 67/67/1513 351/351/1514 68/68/1461
f 74/74/1515 78/78/1516 359/359/1517
f 74/74/1518 359/359/1519 67/67/1520
f 65/65/1521 64/64/1522 357/357/1523
f 65/65/1524 357/357/1525 309/309/1526
f 311/311/1527 308/308/1528 355/355/1529
f 311/311/1530 355/355/1531 286/286/1532
f 78/78/1533 283/283/824 70/70/1534
f 78/78/1535 70/70/1536 359/359/1537
f 64/64/1538 63/63/1539 358/358/1540
f 64/64/1541 358/358/1542 357/357/1543
f 136/136/1544 135/135/1545 285/285/1546
f 136/136/1547 285/285/1546 356/356/1548
f 308/308/1549 138/138/1550 142/142/1551
f 308/308/1552 142/142/361 355/355/1553
f 282/282/1554 65/65/856 309/309/1555
f 282/282/1556 309/309/1557 71/71/1558
f 135/135/1559 311/311/1560 286/286/1561
f 135/135/1562 286/286/1563 285/285/1564
f 138/138/1565 141/141/1566 143/143/1567
f 138/138/1568 143/143/1569 142/142/1481
f 283/283/1570 282/282/1571 71/71/1572
f 283/283/1570 71/71/1573 70/70/1574
f 75/75/1575 74/74/1576 67/67/1577
f 75/75/1578 67/67/169 66/66/1579
f 30/30/1580 26/26/1581 331/331/1582
f 30/30/82 331/331/1583 231/231/1584
f 332/332/1585 331/331/1586 254/254/1587
f 332/332/1588 254/254/1589 360/360/1590
f 361/361/1591 257/257/1592 250/250/1593
f 361/361/1594 250/250/1595 362/362/1596
f 360/360/1590 254/254/1597 257/257/1598
f 360/360/1599 257/257/1600 361/361/1601
f 363/363/1602 253/253/1603 246/246/1604
f 363/363/1605 246/246/1606 364/364/108
f 362/362/1607 250/250/710 253/253/1608
f 362/362/1609 253/253/1610 363/363/1611
f 365/365/1612 249/249/1613 242/242/1614
f 365/365/1615 242/242/1616 366/366/1617
f 364/364/1618 246/246/1619 249/249/1620
f 364/364/1621 249/249/1620 365/365/1622
f 367/367/1623 245/245/1624 236/236/1625
f 367/367/1626 236/236/1627 368/368/1628
f 366/366/1629 242/242/688 245/245/1630
f 366/366/1617 245/245/1631 367/367/1632
f 369/369/1633 240/240/1634 232/232/1635
f 369/369/1636 232/232/1637 370/370/1638
f 368/368/1639 236/236/1640 239/239/1641
f 368/368/1628 239/239/681 371/371/1642
f 372/372/1643 235/235/669 227/227/1644
f 372/372/1645 227/227/1644 373/373/1646
f 370/370/1647 232/232/1648 235/235/1649
f 370/370/1650 235/235/1651 372/372/1643
f 374/374/1652 230/230/1653 231/231/1654
f 374/374/1655 231/231/1229 333/333/1656
f 373/373/1657 227/227/1658 230/230/1659
f 373/373/1660 230/230/1661 374/374/1662
