# Blender 4.2.3 LTS
# www.blender.org
mtllib cross.mtl
o dynamic
v 8.115502 -598.548157 -52.560444
v 3.468766 -617.842224 -64.048927
v 9.302526 -618.730347 -61.158916
v 2.281754 -597.659973 -55.450581
v 3.785081 -623.220703 -66.340424
v 9.618844 -624.108948 -63.450428
v 16.491226 -625.155273 -60.045826
v 16.174889 -619.776733 -57.754253
v 4.231568 -630.813904 -69.575485
v 10.065450 -631.702087 -66.685410
v -3.403682 -616.795837 -67.453720
v -3.087241 -622.174438 -69.745125
v 6.836316 -620.733948 -56.796581
v -0.184440 -599.663574 -51.088158
v 5.649343 -600.551636 -48.198116
v 1.002522 -619.845764 -59.686638
v 9.302526 -618.730347 -61.158916
v 7.152707 -626.112549 -59.088024
v 16.174889 -619.776733 -57.754253
v 9.302526 -618.730347 -61.158916
v 13.708615 -621.780334 -53.392010
v 16.491226 -625.155273 -60.045826
v 16.174889 -619.776733 -57.754253
v 14.024907 -627.158813 -55.683376
v 9.618844 -624.108948 -63.450428
v 16.491226 -625.155273 -60.045826
v 1.318841 -625.224365 -61.978119
v 10.065450 -631.702087 -66.685410
v 9.618844 -624.108948 -63.450428
v 7.599210 -633.705750 -62.323078
v 10.065450 -631.702087 -66.685410
v 1.765393 -632.817383 -65.213127
v 4.231568 -630.813904 -69.575485
v 3.785081 -623.220703 -66.340424
v 4.231568 -630.813904 -69.575485
v -3.087241 -622.174438 -69.745125
v 3.785081 -623.220703 -66.340424
v -5.553435 -624.177979 -65.382690
v -3.403682 -616.795837 -67.453720
v -5.869769 -618.799438 -63.091290
v -3.087241 -622.174438 -69.745125
v 3.468766 -617.842224 -64.048927
v -3.403682 -616.795837 -67.453720
v 8.115502 -598.548157 -52.560444
v 2.281754 -597.659973 -55.450581
v 3.468766 -617.842224 -64.048927
vn 0.4570 0.3712 -0.8083
vn 0.4569 0.3712 -0.8083
vn 0.4569 0.3713 -0.8083
vn 0.4570 0.3713 -0.8083
vn -0.4570 -0.3712 0.8083
vn 0.8878 -0.1352 0.4398
vn -0.4569 -0.3712 0.8083
vn -0.0540 0.9186 0.3914
vn 0.8878 -0.1352 0.4399
vn 0.0540 -0.9186 -0.3914
vn -0.4570 -0.3713 0.8083
vn 0.8879 -0.1352 0.4398
vn 0.0540 -0.9187 -0.3913
vn -0.8878 0.1352 -0.4399
vn -0.8878 0.1352 -0.4398
vn -0.8879 0.1352 -0.4398
vt 0.973700 0.418570
vt 0.974110 0.430990
vt 0.977390 0.430790
vt 0.977200 0.418510
vt 0.973650 0.415440
vt 0.977150 0.415390
vt 0.981280 0.415320
vt 0.981330 0.418440
vt 0.973580 0.411030
vt 0.977080 0.410980
vt 0.969570 0.418630
vt 0.969520 0.415510
vt 0.961250 0.431150
vt 0.962140 0.418100
vt 0.957180 0.418130
vt 0.958460 0.431140
vt 0.954990 0.420460
vt 0.957220 0.413590
vt 0.953100 0.416990
vt 0.951560 0.418560
vt 0.953890 0.420520
vt 0.952790 0.414300
vt 0.950450 0.413820
vt 0.949500 0.415850
vt 0.955410 0.411410
vt 0.952170 0.411110
vt 0.958070 0.409220
vt 0.962030 0.413540
vt 0.956370 0.407820
vt 0.954630 0.410410
vt 0.958100 0.406260
vt 0.961030 0.408750
vt 0.960810 0.405400
vt 0.964100 0.411580
vt 0.964240 0.408080
vt 0.966010 0.414080
vt 0.967370 0.412360
vt 0.964980 0.410760
vt 0.968950 0.416850
vt 0.969690 0.414780
vt 0.966580 0.416690
vt 0.964240 0.419930
vt 0.967530 0.419820
vt 0.955270 0.431700
vt 0.964240 0.430940
vt 0.964500 0.421010
s 0
usemtl mat0.988
f 2/1/1 4/2/1 1/3/1
f 1/3/2 3/4/2 2/1/2
f 5/5/1 2/1/1 3/4/1
f 3/4/3 6/6/3 5/5/3
f 7/7/4 6/6/4 3/4/4
f 3/4/4 8/8/4 7/7/4
f 9/9/4 5/5/4 6/6/4
f 6/6/1 10/10/1 9/9/1
f 11/11/1 2/1/1 5/5/1
f 5/5/1 12/12/1 11/11/1
f 14/13/5 16/14/5 13/15/5
f 13/15/5 15/16/5 14/13/5
f 15/16/6 13/15/6 17/17/6
f 18/18/7 13/15/7 16/14/7
f 21/19/5 13/15/5 18/18/5
f 13/15/8 21/19/8 19/20/8
f 19/20/8 20/21/8 13/15/8
f 21/19/9 24/22/9 22/23/9
f 22/23/9 23/24/9 21/19/9
f 18/18/5 24/22/5 21/19/5
f 24/22/10 18/18/10 25/25/10
f 25/25/10 26/26/10 24/22/10
f 30/27/11 18/18/11 27/28/11
f 16/14/5 27/28/5 18/18/5
f 18/18/6 30/27/6 28/29/6
f 28/29/12 29/30/12 18/18/12
f 31/31/10 30/27/10 32/32/10
f 27/28/11 32/32/11 30/27/11
f 32/32/13 33/33/13 31/31/13
f 32/32/14 27/28/14 34/34/14
f 34/34/15 35/35/15 32/32/15
f 27/28/10 38/36/10 36/37/10
f 36/37/10 37/38/10 27/28/10
f 38/36/5 27/28/5 16/14/5
f 39/39/15 41/40/15 38/36/15
f 38/36/16 40/41/16 39/39/16
f 16/14/5 40/41/5 38/36/5
f 42/42/8 43/43/8 40/41/8
f 40/41/8 16/14/8 42/42/8
f 17/17/6 44/44/6 15/16/6
f 16/14/15 14/13/15 45/45/15
f 45/45/14 46/46/14 16/14/14
