# Blender 4.2.3 LTS
# www.blender.org
mtllib paper_umbrella.mtl
o obj4
v 0.173583 1.452527 0.127835
v 0.181976 1.448693 0.120338
v 0.176519 1.450841 0.116438
v 0.169145 1.447761 0.137781
v 0.176010 1.446202 0.137604
v 0.163688 1.449909 0.133881
v 0.169654 1.452400 0.116615
v 0.164002 1.452775 0.120800
v 0.181661 1.445827 0.133419
v 0.161723 1.451824 0.127395
v 0.183940 1.446778 0.126824
v 0.166182 1.440737 0.140594
v 0.158550 1.443741 0.135140
v 0.151944 1.415378 0.128765
v 0.159576 1.412374 0.134219
v 0.166894 1.447225 0.110991
v 0.176496 1.445044 0.110744
v 0.169890 1.416681 0.104369
v 0.160288 1.418862 0.104616
v 0.155802 1.446419 0.126068
v 0.149197 1.418056 0.119694
v 0.047853 1.363483 -0.193464
v 0.160288 1.418862 0.104616
v 0.169890 1.416681 0.104369
v 0.232675 1.321506 -0.198218
v 0.158990 1.447750 0.116844
v 0.152384 1.419387 0.110470
v 0.175784 1.438557 0.140347
v 0.169178 1.410193 0.133972
v 0.184128 1.442041 0.116198
v 0.177522 1.413678 0.109823
v 0.186875 1.439362 0.125269
v 0.183688 1.438031 0.134493
v 0.177082 1.409668 0.128119
v 0.180269 1.410999 0.118894
v 0.177082 1.409668 0.128119
v 0.371112 1.186520 0.258921
v 0.432460 1.212137 0.081371
v 0.180269 1.410999 0.118894
v 0.152384 1.419387 0.110470
v -0.104288 1.373594 -0.080794
v -0.165636 1.347976 0.096756
v 0.149197 1.418056 0.119694
v 0.379582 1.263698 -0.093241
v 0.177522 1.413678 0.109823
v -0.112758 1.296415 0.271368
v 0.151944 1.415378 0.128765
v 0.169178 1.410193 0.133972
v 0.218971 1.196630 0.371591
v 0.034149 1.238606 0.376345
v 0.159576 1.412374 0.134219
v 0.027203 0.830863 -0.006611
v 0.159576 1.412374 0.134219
v 0.151944 1.415378 0.128765
v 0.024589 0.831891 -0.008479
v 0.030491 0.830116 -0.006696
v 0.033198 0.829936 -0.008701
v 0.177082 1.409668 0.128119
v 0.169178 1.410193 0.133972
v 0.023648 0.832808 -0.011586
v 0.149197 1.418056 0.119694
v 0.152384 1.419387 0.110470
v 0.024740 0.833264 -0.014745
v 0.033349 0.831309 -0.014966
v 0.177522 1.413678 0.109823
v 0.180269 1.410999 0.118894
v 0.034290 0.830392 -0.011860
v 0.030735 0.832338 -0.016834
v 0.169890 1.416681 0.104369
v 0.160288 1.418862 0.104616
v 0.027447 0.833085 -0.016749
v 0.027447 0.833085 -0.016749
v 0.160288 1.418862 0.104616
v 0.033198 0.829936 -0.008701
v 0.030491 0.830116 -0.006696
v 0.034290 0.830392 -0.011860
v 0.024589 0.831891 -0.008479
v 0.027203 0.830863 -0.006611
v 0.033349 0.831309 -0.014966
v 0.030735 0.832338 -0.016834
v 0.027447 0.833085 -0.016749
v 0.024740 0.833264 -0.014745
v 0.023648 0.832808 -0.011586
vn 0.3881 0.0362 0.9209
vn 0.3882 0.0362 0.9209
vn 0.2045 -0.4957 0.8441
vn 0.0347 -0.4444 0.8952
vn 0.0346 -0.4444 0.8952
vn 0.0461 0.0274 0.9986
vn 0.3769 -0.4356 0.8175
vn 0.3769 -0.4356 0.8174
vn 0.3768 -0.4356 0.8175
vn -0.0675 -0.3013 0.9511
vn -0.0674 -0.3013 0.9511
vn 0.4905 -0.1068 0.8649
vn 0.4906 -0.1069 0.8648
vn -0.0632 -0.1211 0.9906
vn -0.0631 -0.1211 0.9906
vn 0.4861 -0.2871 0.8254
vn 0.4862 -0.2871 0.8254
vn 0.2184 0.0875 0.9719
vn 0.2186 0.0874 0.9719
vn -0.5920 -0.8048 -0.0430
vn -0.5920 -0.8048 -0.0429
vn -0.5921 -0.8047 -0.0430
vn 0.0235 0.9765 0.2140
vn 0.0236 0.9765 0.2140
vn 0.0234 0.9765 0.2140
vn -0.9344 -0.3256 0.1445
vn -0.9344 -0.3256 0.1444
vn 0.2081 0.2539 0.9446
vn 0.2080 0.2539 0.9446
vn -0.5539 0.7754 0.3032
vn -0.5540 0.7753 0.3033
vn -0.5540 0.7754 0.3032
vn -0.5540 0.7753 0.3032
vn -0.0235 -0.9765 -0.2140
vn 0.5921 0.8047 0.0430
vn 0.5920 0.8048 0.0429
vn 0.9199 -0.2779 -0.2767
vn 0.9344 0.3256 -0.1445
vn -0.9199 0.2779 0.2767
vn -0.9199 0.2780 0.2767
vn 0.6159 -0.3169 0.7213
vn 0.6160 -0.3169 0.7212
vn 0.6159 -0.3168 0.7213
vn -0.2211 -0.0640 0.9731
vn -0.2213 -0.0640 0.9731
vn -0.2212 -0.0640 0.9731
vn 0.6225 -0.0422 0.7815
vn 0.6226 -0.0422 0.7814
vn 0.6225 -0.0422 0.7814
vn -0.2279 -0.3386 0.9129
vn -0.2278 -0.3386 0.9129
vn 0.4494 -0.5432 0.7092
vn 0.4495 -0.5432 0.7091
vn -0.0548 0.1624 0.9852
vn -0.0547 0.1624 0.9852
vn 0.5540 -0.7754 -0.3032
vn 0.5540 -0.7753 -0.3033
vn 0.5541 -0.7753 -0.3033
vn 0.5539 -0.7754 -0.3032
vn -0.0720 -0.5566 0.8276
vn -0.0721 -0.5566 0.8276
vn -0.0722 -0.5566 0.8276
vn 0.1866 -0.6348 0.7498
vn 0.1867 -0.6348 0.7498
vn 0.1885 -0.6349 0.7493
vn 0.1865 -0.6348 0.7498
vn 0.4667 0.1758 0.8668
vn 0.4666 0.1758 0.8668
vn 0.4668 0.1757 0.8667
vn -0.3788 -0.7929 0.4772
vn -0.3788 -0.7929 0.4773
vn -0.3787 -0.7929 0.4773
vn -0.6548 0.1186 0.7465
vn -0.6548 0.1186 0.7464
vn -0.6549 0.1185 0.7464
vn 0.0998 -0.9375 0.3334
vn 0.0999 -0.9375 0.3333
vn 0.0999 -0.9375 0.3334
vn 0.0998 -0.9375 0.3333
vn 0.1394 0.7067 0.6937
vn 0.8940 -0.3494 0.2805
vn 0.8940 -0.3494 0.2806
vn -0.6671 -0.3895 0.6351
vn -0.6670 -0.3895 0.6351
vn -0.6670 -0.3895 0.6352
vn 0.6179 0.5622 0.5497
vn 0.6180 0.5620 0.5497
vn 0.6180 0.5621 0.5497
vn -0.3467 0.5373 0.7689
vn -0.3468 0.5372 0.7689
vn -0.3467 0.5372 0.7689
vn 0.5861 -0.7680 0.2582
vn 0.5860 -0.7680 0.2582
vn 0.5859 -0.7681 0.2583
vn 0.5860 -0.7681 0.2582
vn 0.5859 -0.7681 0.2582
vn 0.5861 -0.7680 0.2581
vn 0.9062 0.1587 0.3919
vn 0.9062 0.1587 0.3920
vn -0.5955 -0.8012 -0.0584
vn -0.5956 -0.8012 -0.0584
vn 0.5503 -0.7718 -0.3186
vn 0.5504 -0.7717 -0.3187
vn 0.5503 -0.7717 -0.3187
vn -0.9234 0.2814 0.2612
vn -0.9234 0.2813 0.2612
vn -0.9233 0.2814 0.2612
vn 0.9307 0.3291 -0.1599
vn 0.9162 -0.2744 -0.2922
vn 0.9162 -0.2744 -0.2921
vn 0.5883 0.8082 0.0275
vn 0.5884 0.8081 0.0275
vn 0.5883 0.8082 0.0274
vn -0.0271 -0.9729 -0.2295
vn -0.0272 -0.9729 -0.2295
vn -0.5576 0.7786 0.2878
vn -0.5575 0.7787 0.2877
vn -0.5576 0.7787 0.2877
vn -0.5576 0.7786 0.2877
vn -0.9379 -0.3221 0.1290
vn -0.9379 -0.3221 0.1289
vn 0.0200 0.9799 0.1985
vn 0.0198 0.9799 0.1985
vn 0.0199 0.9799 0.1985
vn -0.2215 0.2139 -0.9514
vn -0.2217 0.2139 -0.9514
vn -0.2216 0.2139 -0.9514
vn -0.2216 0.2138 -0.9514
vn -0.2215 0.2138 -0.9514
vn -0.2214 0.2138 -0.9514
vt 0.275970 0.044940
vt 0.276530 0.044820
vt 0.276310 0.044570
vt 0.275780 0.045510
vt 0.276090 0.045570
vt 0.275570 0.045260
vt 0.275990 0.044500
vt 0.275700 0.044650
vt 0.276390 0.045450
vt 0.275540 0.044930
vt 0.276560 0.045160
vt 0.275540 0.045920
vt 0.275200 0.045420
vt 0.275670 0.060570
vt 0.285030 0.058040
vt 0.275960 0.044110
vt 0.276520 0.044210
vt 0.267470 0.032710
vt 0.261840 0.040070
vt 0.275170 0.044840
vt 0.266750 0.057200
vt 0.267030 0.216750
vt 0.144490 0.177480
vt 0.142170 0.180660
vt 0.219170 0.283740
vt 0.275450 0.044350
vt 0.261540 0.049380
vt 0.276150 0.046070
vt 0.290710 0.050180
vt 0.276940 0.044640
vt 0.276350 0.029990
vt 0.277030 0.045240
vt 0.276730 0.045800
vt 0.290710 0.040620
vt 0.285200 0.032960
vt 0.132440 0.177470
vt 0.011370 0.218660
vt 0.061130 0.285670
vt 0.134730 0.180620
vt 0.144440 0.173550
vt 0.267030 0.134420
vt 0.218630 0.067090
vt 0.142090 0.170410
vt 0.140610 0.310340
vt 0.138440 0.181850
vt 0.139660 0.040950
vt 0.138360 0.169240
vt 0.132440 0.173600
vt 0.011030 0.134670
vt 0.060230 0.066530
vt 0.134670 0.170460
vt 0.804470 0.962420
vt 0.801790 0.708670
vt 0.797710 0.708740
vt 0.803070 0.962440
vt 0.805870 0.962410
vt 0.807260 0.962420
vt 0.809940 0.708670
vt 0.805870 0.708650
vt 0.801680 0.962480
vt 0.793630 0.708840
vt 0.789550 0.709000
vt 0.800280 0.962530
vt 0.810060 0.962480
vt 0.818100 0.708840
vt 0.814020 0.708740
vt 0.808660 0.962440
vt 0.811450 0.962530
vt 0.822180 0.709000
vt 0.785480 0.709190
vt 0.798880 0.962600
vt 0.812850 0.962600
vt 0.826250 0.709190
vt 0.271160 0.312050
vt 0.271160 0.314050
vt 0.272340 0.310430
vt 0.274240 0.316280
vt 0.272340 0.315660
vt 0.274240 0.309820
vt 0.276140 0.310430
vt 0.277310 0.312050
vt 0.277310 0.314050
vt 0.276140 0.315660
s 0
usemtl mat0.029
f 1/1/1 2/2/1 3/3/2
f 1/1/3 4/4/3 5/5/3
f 1/1/4 6/6/5 4/4/4
f 1/1/6 7/7/6 8/8/6
f 1/1/7 5/5/8 9/9/9
f 1/1/10 10/10/11 6/6/10
f 1/1/12 11/11/12 2/2/13
f 1/1/14 8/8/14 10/10/15
f 1/1/16 9/9/17 11/11/16
f 3/3/18 7/7/19 1/1/18
f 12/12/20 13/13/20 14/14/20
f 15/15/21 12/12/20 14/14/22
f 16/16/23 17/17/24 18/18/25
f 19/19/23 16/16/25 18/18/23
f 13/13/26 20/20/26 21/21/27
f 14/14/27 13/13/27 21/21/26
f 22/22/28 23/23/29 24/24/29
f 25/25/29 22/22/29 24/24/29
f 26/26/30 16/16/31 19/19/32
f 27/27/31 26/26/32 19/19/33
f 28/28/34 12/12/34 15/15/34
f 29/29/34 28/28/34 15/15/34
f 17/17/35 30/30/36 31/31/35
f 18/18/36 17/17/35 31/31/35
f 32/32/37 33/33/37 34/34/37
f 35/35/37 32/32/37 34/34/37
f 30/30/38 32/32/38 35/35/38
f 31/31/38 30/30/38 35/35/38
f 20/20/39 26/26/39 27/27/40
f 21/21/39 20/20/40 27/27/39
f 36/36/41 37/37/42 38/38/43
f 39/39/43 36/36/43 38/38/41
f 40/40/44 41/41/45 42/42/46
f 43/43/45 40/40/45 42/42/45
f 39/39/47 38/38/48 44/44/48
f 45/45/47 39/39/49 44/44/47
f 43/43/50 42/42/51 46/46/50
f 47/47/50 43/43/51 46/46/51
f 48/48/52 49/49/52 37/37/52
f 36/36/52 48/48/53 37/37/53
f 23/23/54 22/22/55 41/41/54
f 40/40/55 23/23/55 41/41/55
f 33/33/56 28/28/57 29/29/57
f 34/34/58 33/33/57 29/29/59
f 47/47/60 46/46/61 50/50/62
f 51/51/60 47/47/61 50/50/61
f 51/51/63 50/50/64 49/49/63
f 48/48/63 51/51/65 49/49/66
f 45/45/67 44/44/67 25/25/67
f 24/24/68 45/45/67 25/25/69
f 4/4/70 6/6/71 13/13/72
f 12/12/72 4/4/71 13/13/71
f 10/10/73 8/8/74 26/26/75
f 20/20/75 10/10/74 26/26/73
f 5/5/76 4/4/77 12/12/78
f 28/28/76 5/5/76 12/12/79
f 7/7/80 3/3/80 17/17/80
f 16/16/80 7/7/80 17/17/80
f 11/11/81 9/9/82 33/33/82
f 32/32/82 11/11/81 33/33/82
f 6/6/83 10/10/84 20/20/85
f 13/13/84 6/6/83 20/20/83
f 3/3/86 2/2/87 30/30/88
f 17/17/88 3/3/88 30/30/86
f 8/8/89 7/7/90 16/16/91
f 26/26/90 8/8/90 16/16/89
f 9/9/92 5/5/93 28/28/94
f 33/33/95 9/9/96 28/28/97
f 2/2/98 11/11/98 32/32/99
f 30/30/98 2/2/98 32/32/98
f 52/52/100 53/53/101 54/54/100
f 55/55/100 52/52/101 54/54/100
f 56/56/102 57/57/103 58/58/104
f 59/59/103 56/56/104 58/58/104
f 60/60/105 61/61/105 62/62/105
f 63/63/106 60/60/105 62/62/107
f 64/64/108 65/65/108 66/66/108
f 67/67/108 64/64/108 66/66/108
f 67/67/109 66/66/109 58/58/109
f 57/57/110 67/67/110 58/58/110
f 68/68/111 69/69/112 65/65/111
f 64/64/112 68/68/113 65/65/113
f 56/56/114 59/59/114 53/53/114
f 52/52/114 56/56/114 53/53/115
f 63/63/116 62/62/117 70/70/116
f 71/71/118 63/63/119 70/70/119
f 55/55/120 54/54/120 61/61/121
f 60/60/121 55/55/120 61/61/120
f 72/72/122 73/73/123 69/69/122
f 68/68/124 72/72/122 69/69/123
f 74/74/125 75/75/126 76/76/125
f 75/75/127 77/77/127 76/76/127
f 78/78/128 77/77/127 75/75/127
f 76/76/126 77/77/127 79/79/128
f 79/79/129 77/77/126 80/80/127
f 80/80/126 77/77/127 81/81/127
f 81/81/127 77/77/125 82/82/125
f 83/83/125 82/82/130 77/77/127
