# Blender 4.2.3 LTS
# www.blender.org
mtllib stamp.mtl
o obj2
v 29.046288 6.366520 100.846153
v 28.394409 6.360889 101.224228
v 26.965687 6.348546 100.390106
v 27.799778 6.355752 101.818878
v 27.421722 6.352486 102.470779
v 27.421726 6.352489 80.601181
v 27.799782 6.355754 81.253082
v 26.965691 6.348549 82.681862
v 28.394415 6.360892 81.847740
v 29.046293 6.366523 82.225807
v 27.417065 6.891781 102.470779
v 27.795204 6.885083 101.818878
v 26.961897 6.926117 100.391304
v 28.389839 6.890220 101.224228
v 29.041630 6.905816 100.846153
v 29.041634 6.905818 82.225807
v 28.389843 6.890223 81.847740
v 26.961903 6.926120 82.680664
v 27.795210 6.885086 81.253082
v 27.417068 6.891784 80.601181
v 22.427675 6.309345 81.116394
v 26.086411 6.340952 83.561180
v 28.531097 6.362072 87.220047
v 23.750729 6.320776 85.622917
v 29.389555 6.369488 91.535980
v 24.215322 6.324789 91.535980
v 28.531094 6.362072 95.851913
v 23.750727 6.320775 97.449043
v 26.086407 6.340950 99.510788
v 22.427670 6.309342 101.955566
v 18.111902 6.272061 80.257904
v 18.111900 6.272061 85.062080
v 18.111898 6.272059 91.535980
v 18.111897 6.272059 98.009880
v 18.111897 6.272058 102.814056
v 13.796130 6.234777 81.116394
v 12.473072 6.223347 85.622917
v 12.008474 6.219331 91.535980
v 12.473069 6.223345 97.449043
v 13.796124 6.234774 101.955566
v 10.137394 6.203168 83.561172
v 7.692704 6.182048 87.220047
v 6.834243 6.174630 91.535980
v 7.692702 6.182047 95.851913
v 10.137390 6.203166 99.510780
v 7.687158 6.824172 87.220047
v 6.828696 6.816755 91.535980
v 7.866804 7.761497 91.535980
v 8.645630 7.768226 87.620422
v 26.080858 6.983074 99.510788
v 28.525547 7.004196 95.851913
v 27.550907 7.931550 95.451538
v 25.333004 7.912387 98.770988
v 10.131847 6.845293 83.561172
v 10.863533 7.787387 84.300972
v 22.422123 6.951467 101.955566
v 22.013678 7.883712 100.988976
v 13.790583 6.876901 81.116394
v 14.182859 7.816063 82.082993
v 18.106350 6.914183 102.814056
v 18.098267 7.849886 101.767822
v 22.422127 6.951470 81.116394
v 18.106356 6.914186 80.257904
v 18.098270 7.849889 81.304138
v 22.013683 7.883715 82.082993
v 13.790577 6.876898 101.955566
v 14.182855 7.816061 100.988976
v 26.080862 6.983076 83.561180
v 25.333008 7.912389 84.300980
v 10.131844 6.845291 99.510780
v 10.863529 7.787385 98.770988
v 28.525551 7.004197 87.220047
v 27.550909 7.931551 87.620422
v 7.687156 6.824172 95.851913
v 8.645628 7.768225 95.451538
v 29.384008 7.011613 91.535980
v 28.329731 7.938279 91.535980
v 13.796124 6.234774 101.955566
v 18.111897 6.272058 102.814056
v 18.111902 6.272061 80.257904
v 13.796130 6.234777 81.116394
v 22.427675 6.309345 81.116394
v 22.427670 6.309342 101.955566
v 10.137394 6.203168 83.561172
v 7.692704 6.182048 87.220047
v 6.834243 6.174630 91.535980
v 28.531094 6.362072 95.851913
v 29.389555 6.369488 91.535980
v 29.384008 7.011613 91.535980
v 28.525547 7.004196 95.851913
v 7.692702 6.182047 95.851913
v 28.531097 6.362072 87.220047
v 28.525551 7.004197 87.220047
v 10.137390 6.203166 99.510780
v 21.100653 7.875827 84.287323
v 23.645950 7.897815 85.988098
v 15.095884 7.823949 98.784645
v 12.550589 7.801960 97.083862
v 25.346663 7.912508 88.533485
v 10.849874 7.787268 94.538475
v 25.943872 7.917667 91.535980
v 10.252665 7.782109 91.535980
v 25.346661 7.912507 94.538475
v 10.849876 7.787269 88.533485
v 23.645947 7.897813 97.083870
v 12.550591 7.801962 85.988091
v 21.100649 7.875825 98.784645
v 15.095888 7.823951 84.287315
v 18.098267 7.849887 99.381874
v 18.098270 7.849889 83.690086
v 12.560034 6.708590 97.083862
v 10.859321 6.693898 94.538475
v 25.953318 6.824296 91.535980
v 25.356106 6.819137 94.538475
v 15.105330 6.730578 98.784645
v 23.655392 6.804442 97.083870
v 18.107712 6.756516 99.381874
v 21.110094 6.782454 98.784645
v 15.105333 6.730580 84.287315
v 18.107716 6.756518 83.690086
v 12.560037 6.708592 85.988091
v 21.110098 6.782456 84.287323
v 10.859323 6.693899 88.533485
v 23.655396 6.804444 85.988098
v 10.262111 6.688738 91.535980
v 25.356108 6.819138 88.533485
v 21.110098 6.782456 84.287323
v 22.030518 6.790408 87.422401
v 25.356108 6.819138 88.533485
v 23.655396 6.804444 85.988098
v 22.353724 6.793200 91.535980
v 25.953318 6.824296 91.535980
v 22.030516 6.790408 95.649559
v 25.356106 6.819137 94.538475
v 21.110094 6.782454 98.784645
v 23.655392 6.804442 97.083870
v 18.107716 6.756518 83.690086
v 18.107716 6.756518 87.032242
v 18.107714 6.756517 91.535980
v 18.107712 6.756517 96.039726
v 18.107712 6.756516 99.381874
v 15.105333 6.730580 84.287315
v 14.184913 6.722630 87.422401
v 13.861703 6.719836 91.535980
v 14.184910 6.722628 95.649559
v 15.105330 6.730578 98.784645
v 12.560037 6.708592 85.988091
v 10.859323 6.693899 88.533485
v 10.262111 6.688738 91.535980
v 10.859321 6.693898 94.538475
v 12.560034 6.708590 97.083862
v 32.341362 6.394990 83.443062
v 29.046293 6.366523 82.225807
v 32.336048 7.009894 83.443062
v 26.204519 6.341970 105.765976
v 27.421722 6.352486 102.470779
v 26.199207 6.956874 105.765976
v 22.427675 6.309345 81.116394
v 22.422127 6.951470 81.116394
v 25.058125 6.974243 77.171204
v 25.063671 6.332119 77.171204
v 29.046288 6.366520 100.846153
v 32.341354 6.394989 99.628906
v 32.336044 7.009892 99.628906
v 27.421726 6.352489 80.601181
v 26.204527 6.341974 77.305992
v 26.199215 6.956878 77.305992
v 22.422123 6.951467 101.955566
v 22.427670 6.309342 101.955566
v 25.063663 6.332115 105.900764
v 25.058117 6.974239 105.900764
v 32.476143 6.396155 84.583954
v 32.470596 7.038280 84.583954
v 28.531094 6.362072 95.851913
v 28.525547 7.004196 95.851913
v 32.470596 7.038278 98.488014
v 32.476143 6.396153 98.488014
v 25.468178 6.974138 76.804352
v 25.473694 6.335660 76.804352
v 25.885847 6.967782 76.853691
v 25.891277 6.339268 76.853691
v 28.394415 6.360892 81.847740
v 27.799782 6.355754 81.253082
v 25.885841 6.967778 106.218277
v 25.891270 6.339264 106.218277
v 25.468172 6.974134 106.267609
v 25.473688 6.335657 106.267609
v 28.394409 6.360889 101.224228
v 27.799778 6.355752 101.818878
v 32.837460 7.037799 98.898048
v 32.842976 6.399322 98.898048
v 32.788212 7.027410 99.315651
v 32.793640 6.398896 99.315651
v 32.788216 7.027411 83.756317
v 32.793644 6.398898 83.756325
v 32.837463 7.037801 84.173920
v 32.842979 6.399324 84.173920
v 26.080862 6.983076 83.561180
v 26.080858 6.983074 99.510788
v 32.476143 6.396155 84.583954
v 32.793644 6.398898 83.756325
v 32.842979 6.399324 84.173920
v 32.341362 6.394990 83.443062
v 32.793640 6.398896 99.315651
v 32.476143 6.396153 98.488014
v 32.842976 6.399322 98.898048
v 32.341354 6.394989 99.628906
v 28.531094 6.362072 95.851913
v 26.086407 6.340950 99.510788
v 26.204527 6.341974 77.305992
v 25.891277 6.339268 76.853691
v 25.473694 6.335660 76.804352
v 25.063671 6.332119 77.171204
v 26.204519 6.341970 105.765976
v 25.891270 6.339264 106.218277
v 22.427670 6.309342 101.955566
v 25.473688 6.335657 106.267609
v 25.063663 6.332115 105.900764
vn 0.0086 -1.0000 -0.0000
vn 0.0182 0.9998 0.0030
vn 0.0255 0.9996 0.0139
vn 0.0053 0.9999 0.0139
vn 0.0052 0.9994 0.0341
vn -0.0056 0.9996 0.0268
vn 0.0053 0.9999 0.0140
vn -0.0056 0.9996 -0.0268
vn 0.0052 0.9994 -0.0341
vn 0.0053 0.9999 -0.0140
vn 0.0254 0.9996 -0.0139
vn 0.0053 0.9999 -0.0139
vn 0.0255 0.9996 -0.0139
vn 0.0182 0.9998 -0.0030
vn -0.6223 0.7400 -0.2551
vn -0.6731 0.7396 -0.0001
vn 0.4650 0.7494 0.4714
vn 0.6094 0.7507 0.2552
vn -0.4779 0.7413 -0.4714
vn -0.6223 0.7400 -0.2552
vn -0.4778 0.7413 -0.4714
vn 0.2487 0.7475 0.6159
vn 0.4649 0.7494 0.4714
vn -0.2616 0.7431 -0.6159
vn -0.0064 0.7453 0.6667
vn 0.2486 0.7475 0.6159
vn 0.2487 0.7475 -0.6159
vn -0.0064 0.7453 -0.6666
vn -0.0064 0.7453 -0.6667
vn -0.0065 0.7453 -0.6667
vn -0.2615 0.7431 -0.6159
vn -0.2615 0.7431 0.6159
vn -0.0065 0.7453 0.6666
vn -0.0065 0.7453 0.6667
vn 0.4649 0.7494 -0.4714
vn 0.2487 0.7476 -0.6159
vn -0.4778 0.7413 0.4714
vn -0.2616 0.7431 0.6159
vn 0.6094 0.7507 -0.2552
vn 0.4650 0.7494 -0.4714
vn -0.6223 0.7400 0.2552
vn -0.4779 0.7413 0.4714
vn 0.6602 0.7511 -0.0001
vn 0.6095 0.7507 -0.2551
vn -0.6731 0.7396 0.0001
vn -0.6224 0.7400 0.2551
vn -0.6223 0.7400 0.2551
vn 0.6095 0.7507 0.2551
vn 0.6602 0.7511 0.0001
vn -0.3826 -0.0033 0.9239
vn -0.0000 -0.0000 1.0000
vn -0.0000 -0.0000 -1.0000
vn -0.3826 -0.0033 -0.9239
vn 0.1951 0.0017 -0.9808
vn 0.1951 0.0017 0.9808
vn -0.3827 -0.0033 -0.9239
vn -0.7071 -0.0061 -0.7071
vn -0.7071 -0.0062 -0.7071
vn -0.9238 -0.0080 -0.3827
vn -0.9239 -0.0081 -0.3826
vn -1.0000 -0.0086 -0.0000
vn -0.9239 -0.0080 -0.3826
vn 0.9807 0.0085 0.1951
vn 1.0000 0.0086 -0.0000
vn 1.0000 0.0087 -0.0000
vn -0.9239 -0.0080 0.3826
vn -1.0000 -0.0087 -0.0000
vn 0.9807 0.0085 -0.1951
vn -0.9238 -0.0080 0.3827
vn -0.7071 -0.0061 0.7071
vn -0.3827 -0.0033 0.9239
vn -0.0086 1.0000 -0.0000
vn 0.9238 0.0080 -0.3827
vn 0.7071 0.0061 -0.7071
vn 0.3827 0.0033 -0.9239
vn 0.3826 0.0033 -0.9239
vn 0.3826 0.0033 0.9239
vn 0.3827 0.0033 0.9239
vn 0.7071 0.0061 0.7071
vn 0.9238 0.0080 0.3827
vn 0.9239 0.0080 0.3826
vn 0.9239 0.0080 -0.3826
vn 0.4616 0.0040 -0.8871
vn 0.4256 0.0037 -0.9049
vn 0.4248 0.0037 -0.9053
vn 0.4632 0.0040 -0.8863
vn 0.8871 0.0076 0.4616
vn 0.9049 0.0078 0.4256
vn 0.9052 0.0078 0.4248
vn 0.8871 0.0077 0.4616
vn 0.8862 0.0077 0.4632
vn -0.8314 -0.0072 -0.5556
vn -0.7553 -0.0065 -0.6554
vn -0.7551 -0.0065 -0.6556
vn 0.4256 0.0037 0.9049
vn 0.4616 0.0040 0.8871
vn 0.4632 0.0040 0.8863
vn 0.4248 0.0037 0.9053
vn 0.9049 0.0078 -0.4256
vn 0.8871 0.0077 -0.4616
vn 0.8862 0.0077 -0.4632
vn 0.9052 0.0078 -0.4248
vn -0.8314 -0.0072 0.5556
vn -0.7551 -0.0065 0.6556
vn -0.7553 -0.0065 0.6554
vn 0.5555 0.0048 0.8315
vn 0.6555 0.0057 0.7551
vn 0.6556 0.0057 0.7551
vn 0.6554 0.0057 0.7553
vn 0.5555 0.0048 -0.8315
vn 0.6554 0.0057 -0.7553
vn 0.6556 0.0057 -0.7551
vn -0.7552 -0.0065 -0.6554
vn -0.6667 -0.0058 -0.7453
vn 0.1173 0.0010 -0.9931
vn 0.8221 0.0071 -0.5694
vn 0.8862 0.0076 -0.4633
vn 0.8862 0.0077 -0.4633
vn 0.4257 0.0037 -0.9049
vn 0.6095 0.0053 -0.7928
vn 0.6090 0.0070 -0.7931
vn 0.6091 0.0053 -0.7931
vn 0.7927 0.0068 -0.6095
vn 0.7927 0.0069 -0.6095
vn 0.7930 0.0069 -0.6091
vn 0.7931 0.0068 -0.6091
vn 0.9048 0.0078 -0.4257
vn 0.7931 0.0069 -0.6091
vn 0.9052 0.0067 -0.4248
vn 0.8870 0.0077 0.4616
vn 0.8862 0.0077 0.4633
vn 0.8221 0.0071 0.5694
vn 0.8220 0.0071 0.5694
vn 0.1173 0.0010 0.9931
vn -0.6667 -0.0058 0.7453
vn -0.7552 -0.0065 0.6554
vn 0.4257 0.0037 0.9049
vn 0.4248 0.0025 0.9053
vn 0.6090 0.0053 0.7931
vn 0.6095 0.0053 0.7928
vn 0.6091 0.0053 0.7931
vn 0.7930 0.0069 0.6091
vn 0.7930 0.0068 0.6091
vn 0.7927 0.0068 0.6095
vn 0.7931 0.0086 0.6091
vn 0.9048 0.0078 0.4257
vn 0.6554 0.0057 -0.7552
vn 0.7452 0.0064 -0.6668
vn 0.9931 0.0086 0.1173
vn 0.5693 0.0049 0.8221
vn 0.4632 0.0040 0.8862
vn 0.4632 0.0040 -0.8862
vn 0.5693 0.0049 -0.8221
vn 0.5694 0.0049 -0.8221
vn 0.9931 0.0086 -0.1173
vn 0.7452 0.0064 0.6668
vn 0.6554 0.0057 0.7552
vn 0.6556 0.0056 0.7551
vn 0.0137 0.9999 -0.0012
vn 0.0031 0.9999 -0.0118
vn 0.0032 0.9999 -0.0118
vn -0.0074 0.9997 0.0223
vn 0.0031 0.9999 0.0118
vn -0.0074 0.9997 -0.0223
vn 0.0137 0.9999 0.0012
vt 0.829370 0.625640
vt 0.827790 0.619700
vt 0.814740 0.616270
vt 0.827790 0.612840
vt 0.829370 0.606900
vt 0.891370 0.617680
vt 0.897330 0.616170
vt 0.900910 0.603160
vt 0.904190 0.616250
vt 0.910110 0.617900
vt 0.809340 0.695680
vt 0.810860 0.702280
vt 0.825220 0.706160
vt 0.810830 0.710170
vt 0.809440 0.716690
vt 0.855130 0.767050
vt 0.848790 0.769010
vt 0.846110 0.783650
vt 0.840960 0.769740
vt 0.834270 0.768820
vt 0.865900 0.585610
vt 0.901030 0.593020
vt 0.936310 0.586420
vt 0.899740 0.567630
vt 0.966390 0.566820
vt 0.936880 0.536630
vt 0.986670 0.537200
vt 0.968730 0.500200
vt 0.994080 0.502080
vt 0.987480 0.466790
vt 0.836290 0.565330
vt 0.864310 0.537940
vt 0.902080 0.501020
vt 0.939850 0.464110
vt 0.967880 0.436720
vt 0.816690 0.535250
vt 0.835430 0.501840
vt 0.867280 0.465410
vt 0.904430 0.434410
vt 0.938260 0.416430
vt 0.810090 0.499970
vt 0.817490 0.464840
vt 0.837780 0.435230
vt 0.867850 0.415630
vt 0.903140 0.409030
vt 0.646260 0.213960
vt 0.619560 0.240440
vt 0.629530 0.247390
vt 0.652820 0.224110
vt 0.715480 0.399370
vt 0.753690 0.385120
vt 0.746900 0.374130
vt 0.713700 0.386520
vt 0.680910 0.199830
vt 0.683060 0.211670
vt 0.674370 0.396840
vt 0.678210 0.384350
vt 0.718190 0.200050
vt 0.715730 0.211820
vt 0.640170 0.376710
vt 0.647990 0.367570
vt 0.782640 0.239650
vt 0.752820 0.213940
vt 0.746280 0.224210
vt 0.771820 0.247420
vt 0.615840 0.348080
vt 0.626430 0.342190
vt 0.798990 0.278020
vt 0.786080 0.280580
vt 0.603370 0.312640
vt 0.615400 0.310930
vt 0.798990 0.319270
vt 0.786230 0.316610
vt 0.604620 0.275010
vt 0.616460 0.277790
vt 0.783030 0.356910
vt 0.772420 0.349500
vt 0.610730 0.350940
vt 0.636310 0.381210
vt 0.755840 0.209050
vt 0.719370 0.194360
vt 0.786460 0.235190
vt 0.671230 0.402150
vt 0.679860 0.194080
vt 0.643070 0.209030
vt 0.614740 0.237080
vt 0.889700 0.873800
vt 0.890060 0.836810
vt 0.884660 0.836750
vt 0.884310 0.873740
vt 0.598900 0.273660
vt 0.890410 0.799820
vt 0.885010 0.799760
vt 0.597570 0.313470
vt 0.754600 0.259770
vt 0.765130 0.285240
vt 0.643400 0.332180
vt 0.634850 0.307690
vt 0.765400 0.312760
vt 0.635770 0.281820
vt 0.754960 0.337850
vt 0.645970 0.258170
vt 0.735610 0.356540
vt 0.663740 0.240050
vt 0.710470 0.365830
vt 0.686940 0.230510
vt 0.683750 0.364220
vt 0.712100 0.230850
vt 0.660320 0.352000
vt 0.735700 0.240960
vt 0.643580 0.306480
vt 0.644320 0.283870
vt 0.747420 0.332570
vt 0.730810 0.348740
vt 0.651120 0.327890
vt 0.709270 0.356820
vt 0.665980 0.345110
vt 0.686330 0.355500
vt 0.710150 0.239230
vt 0.730590 0.248180
vt 0.688370 0.238890
vt 0.746820 0.264770
vt 0.668390 0.247190
vt 0.755830 0.287030
vt 0.653190 0.263120
vt 0.756270 0.310890
vt 0.994600 0.144290
vt 0.951040 0.167070
vt 0.944400 0.219410
vt 0.976970 0.186840
vt 0.891290 0.183910
vt 0.901850 0.237030
vt 0.829640 0.191220
vt 0.855790 0.237030
vt 0.780680 0.186840
vt 0.813240 0.219410
vt 0.994600 0.098230
vt 0.945280 0.108040
vt 0.878820 0.121260
vt 0.812370 0.134480
vt 0.763050 0.144290
vt 0.976970 0.055680
vt 0.928010 0.051300
vt 0.866360 0.058600
vt 0.806610 0.075450
vt 0.763050 0.098230
vt 0.944400 0.023110
vt 0.901850 0.005490
vt 0.855790 0.005490
vt 0.813240 0.023110
vt 0.780680 0.055680
vt 0.879510 0.753380
vt 0.853820 0.762970
vt 0.879730 0.758040
vt 0.797590 0.669810
vt 0.805070 0.696670
vt 0.802330 0.670000
vt 0.805220 0.807480
vt 0.810430 0.806450
vt 0.803460 0.769720
vt 0.797590 0.769000
vt 0.805230 0.715740
vt 0.797890 0.742420
vt 0.802610 0.742170
vt 0.834880 0.764480
vt 0.807400 0.759400
vt 0.808050 0.764130
vt 0.844820 0.668430
vt 0.845360 0.663000
vt 0.806180 0.659470
vt 0.807480 0.665030
vt 0.890410 0.760920
vt 0.885050 0.762680
vt 0.845360 0.748820
vt 0.844800 0.743570
vt 0.807740 0.747200
vt 0.806530 0.752940
vt 0.803260 0.766290
vt 0.799330 0.763480
vt 0.804780 0.764750
vt 0.802530 0.760730
vt 0.848020 0.764490
vt 0.841020 0.765000
vt 0.802430 0.666750
vt 0.798440 0.664890
vt 0.804040 0.665410
vt 0.800990 0.661620
vt 0.806240 0.709790
vt 0.806130 0.702750
vt 0.804330 0.747100
vt 0.801220 0.750740
vt 0.802940 0.745460
vt 0.798780 0.747340
vt 0.882930 0.757860
vt 0.884420 0.753780
vt 0.884390 0.759330
vt 0.887850 0.756000
vt 0.847090 0.794660
vt 0.836310 0.706160
vt 0.943430 0.624460
vt 0.940410 0.631040
vt 0.943130 0.628940
vt 0.936000 0.630180
vt 0.842160 0.656090
vt 0.835560 0.659030
vt 0.840040 0.658780
vt 0.841360 0.651670
vt 0.797590 0.651480
vt 0.804600 0.616270
vt 0.865210 0.629370
vt 0.860780 0.630120
vt 0.858120 0.627970
vt 0.857920 0.623480
vt 0.841360 0.580870
vt 0.842160 0.576450
vt 0.797590 0.581060
vt 0.840040 0.573760
vt 0.835560 0.573510
s 0
g obj2_mat0.050
usemtl mat0.050
f 1/1/1 2/2/1 3/3/1
f 2/2/1 4/4/1 3/3/1
f 4/4/1 5/5/1 3/3/1
f 6/6/1 7/7/1 8/8/1
f 7/7/1 9/9/1 8/8/1
f 9/9/1 10/10/1 8/8/1
f 11/11/2 12/12/3 13/13/4
f 12/12/3 14/14/5 13/13/4
f 14/14/5 15/15/6 13/13/7
f 16/16/8 17/17/9 18/18/10
f 17/17/9 19/19/11 18/18/12
f 19/19/13 20/20/14 18/18/12
f 21/21/1 22/22/1 23/23/1
f 21/21/1 23/23/1 24/24/1
f 24/24/1 23/23/1 25/25/1
f 24/24/1 25/25/1 26/26/1
f 26/26/1 25/25/1 27/27/1
f 26/26/1 27/27/1 28/28/1
f 28/28/1 27/27/1 29/29/1
f 28/28/1 29/29/1 30/30/1
f 31/31/1 21/21/1 24/24/1
f 31/31/1 24/24/1 32/32/1
f 32/32/1 24/24/1 26/26/1
f 32/32/1 26/26/1 33/33/1
f 33/33/1 26/26/1 28/28/1
f 33/33/1 28/28/1 34/34/1
f 34/34/1 28/28/1 30/30/1
f 34/34/1 30/30/1 35/35/1
f 36/36/1 31/31/1 32/32/1
f 36/36/1 32/32/1 37/37/1
f 37/37/1 32/32/1 33/33/1
f 37/37/1 33/33/1 38/38/1
f 38/38/1 33/33/1 34/34/1
f 38/38/1 34/34/1 39/39/1
f 39/39/1 34/34/1 35/35/1
f 39/39/1 35/35/1 40/40/1
f 41/41/1 36/36/1 37/37/1
f 41/41/1 37/37/1 42/42/1
f 42/42/1 37/37/1 38/38/1
f 42/42/1 38/38/1 43/43/1
f 43/43/1 38/38/1 39/39/1
f 43/43/1 39/39/1 44/44/1
f 44/44/1 39/39/1 40/40/1
f 44/44/1 40/40/1 45/45/1
f 46/46/15 47/47/16 48/48/16
f 46/46/15 48/48/16 49/49/15
f 50/50/17 51/51/18 52/52/18
f 50/50/17 52/52/18 53/53/17
f 54/54/19 46/46/20 49/49/20
f 54/54/21 49/49/20 55/55/19
f 56/56/22 50/50/23 53/53/23
f 56/56/22 53/53/23 57/57/22
f 58/58/24 54/54/21 55/55/21
f 58/58/24 55/55/21 59/59/24
f 60/60/25 56/56/26 57/57/26
f 60/60/25 57/57/26 61/61/25
f 62/62/27 63/63/28 64/64/29
f 62/62/27 64/64/29 65/65/27
f 63/63/30 58/58/31 59/59/31
f 63/63/30 59/59/31 64/64/30
f 66/66/32 60/60/33 61/61/34
f 66/66/32 61/61/34 67/67/32
f 68/68/35 62/62/36 65/65/27
f 68/68/35 65/65/27 69/69/35
f 70/70/37 66/66/38 67/67/38
f 70/70/37 67/67/38 71/71/37
f 72/72/39 68/68/40 69/69/40
f 72/72/39 69/69/40 73/73/39
f 74/74/41 70/70/37 71/71/42
f 74/74/41 71/71/42 75/75/41
f 76/76/43 72/72/44 73/73/44
f 76/76/43 73/73/44 77/77/43
f 47/47/45 74/74/46 75/75/47
f 47/47/45 75/75/47 48/48/45
f 51/51/48 76/76/49 77/77/49
f 51/51/48 77/77/49 52/52/48
f 78/78/50 79/79/51 60/60/51
f 78/78/50 60/60/51 66/66/50
f 80/80/52 81/81/53 58/58/53
f 80/80/52 58/58/53 63/63/52
f 82/82/54 80/80/52 63/63/52
f 82/82/54 63/63/52 62/62/54
f 79/79/51 83/83/55 56/56/55
f 79/79/51 56/56/55 60/60/51
f 81/81/56 84/84/57 54/54/57
f 81/81/56 54/54/58 58/58/56
f 84/84/57 85/85/59 46/46/59
f 84/84/57 46/46/59 54/54/57
f 85/85/60 86/86/61 47/47/61
f 85/85/62 47/47/61 46/46/62
f 87/87/63 88/88/64 89/89/65
f 87/87/63 89/89/64 90/90/63
f 86/86/61 91/91/66 74/74/66
f 86/86/67 74/74/66 47/47/61
f 88/88/64 92/92/68 93/93/68
f 88/88/64 93/93/68 89/89/64
f 91/91/69 94/94/70 70/70/70
f 91/91/69 70/70/70 74/74/69
f 94/94/70 78/78/71 66/66/71
f 94/94/70 66/66/71 70/70/70
f 69/69/72 65/65/72 95/95/72
f 69/69/72 95/95/72 96/96/72
f 71/71/72 67/67/72 97/97/72
f 71/71/72 97/97/72 98/98/72
f 73/73/72 69/69/72 96/96/72
f 73/73/72 96/96/72 99/99/72
f 75/75/72 71/71/72 98/98/72
f 75/75/72 98/98/72 100/100/72
f 77/77/72 73/73/72 99/99/72
f 77/77/72 99/99/72 101/101/72
f 48/48/72 75/75/72 100/100/72
f 48/48/72 100/100/72 102/102/72
f 52/52/72 77/77/72 101/101/72
f 52/52/72 101/101/72 103/103/72
f 49/49/72 48/48/72 102/102/72
f 49/49/72 102/102/72 104/104/72
f 53/53/72 52/52/72 103/103/72
f 53/53/72 103/103/72 105/105/72
f 55/55/72 49/49/72 104/104/72
f 55/55/72 104/104/72 106/106/72
f 57/57/72 53/53/72 105/105/72
f 57/57/72 105/105/72 107/107/72
f 59/59/72 55/55/72 106/106/72
f 59/59/72 106/106/72 108/108/72
f 61/61/72 57/57/72 107/107/72
f 61/61/72 107/107/72 109/109/72
f 65/65/72 64/64/72 110/110/72
f 65/65/72 110/110/72 95/95/72
f 64/64/72 59/59/72 108/108/72
f 64/64/72 108/108/72 110/110/72
f 67/67/72 61/61/72 109/109/72
f 67/67/72 109/109/72 97/97/72
f 100/100/73 98/98/74 111/111/74
f 100/100/73 111/111/74 112/112/73
f 103/103/62 101/101/61 113/113/61
f 103/103/62 113/113/61 114/114/62
f 98/98/74 97/97/75 115/115/75
f 98/98/74 115/115/75 111/111/74
f 105/105/57 103/103/59 114/114/59
f 105/105/57 114/114/59 116/116/57
f 97/97/76 109/109/52 117/117/52
f 97/97/76 117/117/52 115/115/76
f 107/107/56 105/105/57 116/116/57
f 107/107/56 116/116/57 118/118/56
f 110/110/51 108/108/77 119/119/77
f 110/110/51 119/119/77 120/120/51
f 109/109/52 107/107/53 118/118/53
f 109/109/52 118/118/53 117/117/52
f 108/108/78 106/106/79 121/121/79
f 108/108/78 121/121/79 119/119/78
f 95/95/50 110/110/51 120/120/51
f 95/95/50 120/120/51 122/122/50
f 106/106/79 104/104/80 123/123/80
f 106/106/79 123/123/80 121/121/79
f 96/96/70 95/95/71 122/122/71
f 96/96/70 122/122/71 124/124/70
f 104/104/81 102/102/64 125/125/65
f 104/104/81 125/125/64 123/123/81
f 99/99/69 96/96/70 124/124/70
f 99/99/69 124/124/70 126/126/69
f 102/102/64 100/100/82 112/112/82
f 102/102/64 112/112/82 125/125/64
f 101/101/61 99/99/66 126/126/66
f 101/101/67 126/126/66 113/113/61
f 127/127/72 128/128/72 129/129/72
f 127/127/72 129/129/72 130/130/72
f 128/128/72 131/131/72 132/132/72
f 128/128/72 132/132/72 129/129/72
f 131/131/72 133/133/72 134/134/72
f 131/131/72 134/134/72 132/132/72
f 133/133/72 135/135/72 136/136/72
f 133/133/72 136/136/72 134/134/72
f 137/137/72 138/138/72 128/128/72
f 137/137/72 128/128/72 127/127/72
f 138/138/72 139/139/72 131/131/72
f 138/138/72 131/131/72 128/128/72
f 139/139/72 140/140/72 133/133/72
f 139/139/72 133/133/72 131/131/72
f 140/140/72 141/141/72 135/135/72
f 140/140/72 135/135/72 133/133/72
f 142/142/72 143/143/72 138/138/72
f 142/142/72 138/138/72 137/137/72
f 143/143/72 144/144/72 139/139/72
f 143/143/72 139/139/72 138/138/72
f 144/144/72 145/145/72 140/140/72
f 144/144/72 140/140/72 139/139/72
f 145/145/72 146/146/72 141/141/72
f 145/145/72 141/141/72 140/140/72
f 147/147/72 148/148/72 143/143/72
f 147/147/72 143/143/72 142/142/72
f 148/148/72 149/149/72 144/144/72
f 148/148/72 144/144/72 143/143/72
f 149/149/72 150/150/72 145/145/72
f 149/149/72 145/145/72 144/144/72
f 150/150/72 151/151/72 146/146/72
f 150/150/72 146/146/72 145/145/72
f 152/152/83 153/153/84 16/16/85
f 152/152/83 16/16/85 154/154/86
f 155/155/87 156/156/88 11/11/89
f 155/155/90 11/11/89 157/157/91
f 158/158/92 159/159/92 160/160/93
f 158/158/92 160/160/93 161/161/94
f 162/162/95 163/163/96 164/164/97
f 162/162/95 164/164/97 15/15/98
f 165/165/99 166/166/100 167/167/101
f 165/165/99 167/167/101 20/20/102
f 168/168/103 169/169/103 170/170/104
f 168/168/103 170/170/104 171/171/105
f 93/93/106 92/92/106 172/172/107
f 93/93/106 172/172/108 173/173/109
f 174/174/110 175/175/110 176/176/111
f 174/174/110 176/176/111 177/177/112
f 161/161/94 160/160/113 178/178/114
f 161/161/94 178/178/114 179/179/114
f 179/179/115 178/178/115 180/180/115
f 179/179/115 180/180/115 181/181/115
f 181/181/116 180/180/116 167/167/117
f 181/181/116 167/167/118 166/166/100
f 16/16/85 153/153/119 182/182/120
f 16/16/85 182/182/120 17/17/121
f 17/17/122 182/182/120 183/183/123
f 17/17/122 183/183/124 19/19/125
f 19/19/126 183/183/123 165/165/127
f 19/19/128 165/165/127 20/20/129
f 155/155/130 157/157/131 184/184/132
f 155/155/90 184/184/133 185/185/133
f 185/185/134 184/184/134 186/186/134
f 185/185/134 186/186/134 187/187/134
f 187/187/135 186/186/135 171/171/136
f 187/187/135 171/171/136 170/170/104
f 162/162/137 15/15/138 14/14/139
f 162/162/137 14/14/139 188/188/140
f 188/188/140 14/14/141 12/12/142
f 188/188/140 12/12/143 189/189/144
f 189/189/144 12/12/145 11/11/89
f 189/189/144 11/11/89 156/156/146
f 177/177/112 176/176/147 190/190/148
f 177/177/112 190/190/148 191/191/148
f 191/191/149 190/190/149 192/192/149
f 191/191/149 192/192/149 193/193/149
f 193/193/150 192/192/150 164/164/151
f 193/193/150 164/164/151 163/163/96
f 152/152/83 154/154/152 194/194/153
f 152/152/83 194/194/154 195/195/154
f 195/195/155 194/194/155 196/196/155
f 195/195/155 196/196/155 197/197/155
f 197/197/156 196/196/156 173/173/109
f 197/197/156 173/173/157 172/172/158
f 167/167/159 18/18/12 20/20/14
f 18/18/10 167/167/159 198/198/160
f 198/198/160 167/167/159 180/180/159
f 198/198/161 180/180/159 159/159/159
f 159/159/159 180/180/159 178/178/159
f 159/159/159 178/178/159 160/160/159
f 176/176/162 192/192/162 190/190/162
f 192/192/162 176/176/162 164/164/162
f 164/164/162 176/176/162 175/175/162
f 164/164/162 175/175/162 15/15/6
f 15/15/6 175/175/162 13/13/4
f 13/13/4 175/175/162 199/199/163
f 200/200/1 201/201/1 202/202/1
f 201/201/1 200/200/1 203/203/1
f 203/203/1 200/200/1 23/23/1
f 203/203/1 23/23/1 10/10/1
f 10/10/1 23/23/1 8/8/1
f 8/8/1 23/23/1 22/22/1
f 194/194/164 173/173/164 196/196/164
f 173/173/164 194/194/164 154/154/164
f 173/173/164 154/154/164 93/93/164
f 93/93/164 154/154/164 16/16/8
f 93/93/164 16/16/8 18/18/12
f 93/93/164 18/18/12 198/198/160
f 204/204/1 205/205/1 206/206/1
f 205/205/1 204/204/1 207/207/1
f 205/205/1 207/207/1 208/208/1
f 208/208/1 207/207/1 1/1/1
f 208/208/1 1/1/1 3/3/1
f 208/208/1 3/3/1 209/209/1
f 8/8/1 210/210/1 6/6/1
f 210/210/1 8/8/1 22/22/1
f 210/210/1 22/22/1 211/211/1
f 211/211/1 22/22/1 21/21/1
f 211/211/1 21/21/1 212/212/1
f 212/212/1 21/21/1 213/213/1
f 13/13/7 157/157/165 11/11/2
f 157/157/165 13/13/4 199/199/163
f 157/157/165 199/199/163 184/184/165
f 184/184/165 199/199/163 168/168/165
f 184/184/165 168/168/165 186/186/165
f 186/186/165 168/168/165 171/171/165
f 214/214/1 3/3/1 5/5/1
f 3/3/1 214/214/1 209/209/1
f 209/209/1 214/214/1 215/215/1
f 209/209/1 215/215/1 216/216/1
f 216/216/1 215/215/1 217/217/1
f 216/216/1 217/217/1 218/218/1
