# Blender 4.2.3 LTS
# www.blender.org
mtllib cape.mtl
o dynamic
v 1594.874146 -18333.742188 -4904.020996
v 1575.384766 -18383.099609 -4879.071777
v 1698.481201 -18466.744141 -4946.542969
v 1669.796021 -18541.316406 -4868.305664
v 1555.189087 -18429.355469 -4828.266602
v 1537.808716 -18478.968750 -4789.857422
v 1669.796021 -18541.316406 -4868.305664
v 1643.356323 -18621.498047 -4801.467773
v 1523.181396 -18517.380859 -4750.239746
v 1507.261475 -18556.755859 -4719.952148
v 1643.356323 -18621.498047 -4801.467773
v 1619.162598 -18707.292969 -4746.029785
v 1491.110840 -18601.785156 -4689.735840
v 1479.637329 -18646.953125 -4663.583984
v 1619.162598 -18707.292969 -4746.029785
v 1596.399536 -18797.480469 -4706.120605
v 1467.686401 -18694.302734 -4642.631348
v 1454.689453 -18746.083984 -4625.881348
v 1596.399536 -18797.480469 -4706.120605
v 1573.928101 -18896.570312 -4679.746582
v 1443.507935 -18800.154297 -4613.264648
v 1434.711060 -18854.257812 -4605.778320
v 1573.928101 -18896.570312 -4679.746582
v 1552.795288 -19000.128906 -4662.704102
v 1424.867798 -18912.796875 -4602.493652
v 1411.409546 -18975.886719 -4585.885742
v 1552.795288 -19000.128906 -4662.704102
v 1535.723389 -19111.583984 -4661.195801
v 1411.198975 -19056.427734 -4575.489746
v 1381.017090 -19111.970703 -4564.205566
v 1535.723389 -19111.583984 -4661.195801
v 1469.037842 -18276.585938 -4897.971191
v 1450.409912 -18332.591797 -4887.554688
v 1426.259033 -18401.867188 -4884.611816
v 1410.509644 -18453.916016 -4837.941406
v 1389.482300 -18489.828125 -4796.322266
v 1372.901367 -18531.533203 -4758.840332
v 1355.843262 -18575.416016 -4726.556641
v 1340.600586 -18621.589844 -4698.406738
v 1327.511475 -18673.449219 -4675.459473
v 1317.714722 -18726.480469 -4659.709473
v 1306.871460 -18783.949219 -4648.161621
v 1297.843994 -18843.707031 -4640.747070
v 1290.631592 -18905.750000 -4637.465820
v 1273.927368 -18973.093750 -4632.321777
v 1264.163330 -19033.443359 -4575.331055
v 1251.659912 -19092.173828 -4548.323730
v 1265.367432 -18224.845703 -4929.304199
v 1254.185059 -18289.849609 -4947.814453
v 1238.679077 -18378.173828 -4989.400391
v 1216.821777 -18436.623047 -4954.263672
v 1191.733276 -18464.636719 -4897.111816
v 1169.906006 -18508.457031 -4854.566895
v 1151.709839 -18556.853516 -4820.287109
v 1130.637085 -18587.333984 -4760.006348
v 1115.363647 -18648.136719 -4739.265137
v 1117.027832 -18712.638672 -4749.312988
v 1102.754272 -18774.511719 -4736.835938
v 1091.203491 -18839.812500 -4730.558105
v 1087.868774 -18909.902344 -4730.415039
v 1073.841553 -18975.246094 -4712.809570
v 1057.908691 -19027.443359 -4653.745605
v 1048.468018 -19071.132812 -4571.752441
v 1124.390747 -18233.767578 -5023.460449
v 1119.408569 -18292.296875 -5036.635254
v 1111.350098 -18367.751953 -5044.893066
v 1089.154297 -18422.804688 -5008.687012
v 1063.157715 -18449.673828 -4949.469238
v 1041.669434 -18496.892578 -4907.992676
v 1021.226868 -18539.673828 -4862.314453
v 997.861633 -18570.050781 -4803.099609
v 982.358032 -18636.505859 -4782.428711
v 985.205811 -18701.927734 -4813.134766
v 975.040161 -18766.195312 -4803.724609
v 959.628174 -18832.576172 -4789.251465
v 949.462646 -18896.839844 -4779.841309
v 938.543701 -18963.507812 -4757.039551
v 918.117493 -19015.417969 -4706.304688
v 910.537292 -19077.759766 -4678.235352
v 984.014648 -18214.871094 -5080.078613
v 986.432129 -18276.970703 -5103.518555
v 975.081604 -18351.250000 -5104.578613
v 951.070618 -18404.013672 -5064.239258
v 924.504883 -18433.138672 -5004.022461
v 901.201233 -18478.070312 -4958.413086
v 877.697388 -18514.025391 -4905.466309
v 854.101379 -18550.050781 -4846.322754
v 839.028198 -18619.830078 -4832.917969
v 848.029907 -18684.283203 -4870.753906
v 835.341248 -18754.095703 -4862.480957
v 820.406494 -18818.294922 -4842.808105
v 807.764404 -18882.601562 -4822.070312
v 796.029663 -18948.052734 -4803.398438
v 786.265198 -19019.337891 -4777.534668
v 767.792908 -19067.955078 -4724.665039
v 857.346741 -18202.121094 -5142.766113
v 858.379333 -18265.255859 -5169.338867
v 845.121521 -18337.322266 -5160.068359
v 821.587341 -18387.906250 -5114.529297
v 794.314392 -18424.865234 -5059.583984
v 771.148987 -18464.216797 -5007.706543
v 746.198914 -18486.652344 -4944.286133
v 719.941406 -18533.806641 -4892.547363
v 709.975769 -18607.046875 -4890.474609
v 718.977234 -18671.498047 -4928.310547
v 705.674011 -18738.136719 -4900.376953
v 687.539490 -18801.085938 -4879.704102
v 676.327576 -18869.787109 -4874.495605
v 665.839111 -18939.781250 -4858.959473
v 646.951355 -19005.132812 -4824.894043
v 637.033020 -19061.935547 -4779.228027
v 727.140015 -18184.720703 -5203.384277
v 727.603577 -18250.111328 -5228.958984
v 713.776672 -18324.433594 -5218.690430
v 687.857971 -18374.984375 -5168.020996
v 661.153748 -18409.689453 -5114.073242
v 635.265564 -18445.609375 -5055.995117
v 608.161438 -18462.359375 -4987.373047
v 583.489258 -18517.453125 -4939.839355
v 575.907776 -18590.726562 -4942.896973
v 585.248108 -18658.576172 -4981.801270
v 571.037170 -18724.068359 -4951.802246
v 553.810120 -18788.164062 -4933.195312
v 542.936890 -18860.263672 -4929.055664
v 529.725037 -18926.824219 -4907.319824
v 506.637848 -18989.857422 -4863.989746
v 502.165344 -19053.523438 -4830.724121
v 603.902588 -18167.568359 -5267.001465
v 599.366760 -18238.546875 -5282.385254
v 585.539978 -18312.867188 -5272.117188
v 560.528748 -18364.562500 -5223.513672
v 533.055664 -18392.542969 -5161.230957
v 505.921204 -18423.923828 -5100.017090
v 480.063080 -18445.212891 -5034.530762
v 453.436951 -18503.599609 -4989.131836
v 443.471222 -18576.843750 -4987.058594
v 452.811432 -18644.693359 -5025.962891
v 448.091888 -18715.818359 -5028.952637
v 432.926483 -18785.673828 -5009.351562
v 413.314972 -18849.732422 -4985.614258
v 394.565857 -18909.507812 -4945.280273
v 373.862823 -18972.574219 -4907.083008
v 374.267212 -19045.357422 -4885.219238
v 481.572601 -18151.558594 -5332.684570
v 470.791199 -18223.583984 -5334.741699
v 454.671783 -18297.796875 -5325.539551
v 429.091675 -18351.746094 -5275.938965
v 401.619019 -18379.726562 -5213.656250
v 374.853149 -18399.875000 -5146.103027
v 346.472168 -18426.712891 -5081.753906
v 322.476929 -18488.601562 -5036.356934
v 312.849945 -18565.244141 -5035.353516
v 318.990112 -18631.843750 -5073.257324
v 319.946747 -18704.179688 -5088.576172
v 306.935516 -18779.718750 -5074.176758
v 284.170715 -18837.023438 -5036.973633
v 260.882812 -18891.080078 -4986.306641
v 240.041367 -18959.724609 -4954.376953
v 242.261047 -19034.794922 -4936.646973
v 365.643250 -18138.050781 -5400.369629
v 346.462128 -18205.435547 -5383.898926
v 329.773773 -18281.904297 -5373.698242
v 305.440002 -18340.394531 -5327.232910
v 276.489929 -18369.488281 -5261.885742
v 248.708527 -18379.441406 -5191.125977
v 219.758789 -18408.533203 -5125.778320
v 196.102051 -18473.820312 -5081.451172
v 187.382858 -18551.603516 -5082.514160
v 192.045776 -18619.314453 -5117.354004
v 196.956085 -18690.498047 -5147.064941
v 182.806793 -18770.546875 -5130.670410
v 156.410660 -18823.279297 -5085.200195
v 132.215363 -18876.191406 -5032.467285
v 110.804771 -18947.091797 -4999.539062
v 118.039978 -19025.699219 -4986.943359
v 247.421204 -18124.435547 -5469.120605
v 219.840530 -18187.179688 -5434.120605
v 203.629135 -18261.468750 -5418.720703
v 177.341812 -18323.250000 -5374.390625
v 149.068909 -18359.140625 -5311.181641
v 120.610138 -18362.294922 -5238.283203
v 93.045219 -18390.351562 -5169.803711
v 67.434601 -18458.931641 -5127.611816
v 60.530830 -18539.003906 -5132.807129
v 65.194336 -18606.714844 -5167.646484
v 71.011330 -18679.041016 -5199.424805
v 57.769779 -18760.232422 -5185.097168
v 31.851051 -18810.783203 -5134.427734
v 6.747871 -18862.552734 -5079.627930
v -14.324166 -18936.849609 -5047.769043
v -9.381055 -19015.349609 -5036.238770
v 126.814819 -18110.787109 -5532.740723
v 98.034462 -18163.486328 -5482.139160
v 76.576950 -18239.888672 -5461.676758
v 50.381561 -18301.597656 -5423.543945
v 21.309332 -18345.392578 -5359.408203
v -5.426285 -18350.912109 -5284.446777
v -34.237484 -18374.425781 -5212.831543
v -57.555485 -18443.111328 -5169.573242
v -66.321671 -18526.400391 -5183.101562
v -60.272884 -18593.076172 -5214.807617
v -54.363895 -18665.326172 -5252.783203
v -71.374481 -18747.523438 -5236.456543
v -96.247269 -18793.638672 -5181.585938
v -117.811470 -18850.058594 -5128.854980
v -137.068359 -18926.642578 -5101.130371
v -132.786560 -19007.472656 -5082.404785
v 12.393616 -18114.417969 -5593.376465
v -18.510330 -18146.802734 -5530.165039
v -40.736057 -18216.484375 -5501.366699
v -65.208351 -18280.552734 -5461.170410
v -92.465492 -18326.636719 -5401.167969
v -123.000328 -18347.789062 -5331.615723
v -151.581589 -18365.648438 -5259.929688
v -172.853790 -18430.970703 -5220.733398
v -178.188614 -18509.857422 -5235.191406
v -179.094147 -18585.410156 -5258.841797
v -169.753525 -18653.259766 -5297.746582
v -188.441010 -18727.589844 -5271.018066
v -215.406006 -18782.576172 -5224.550293
v -235.724243 -18843.537109 -5174.956055
v -255.135956 -18916.574219 -5158.556152
v -254.237793 -18996.302734 -5126.436035
v -109.998016 -18083.853516 -5645.454590
v -140.424362 -18114.056641 -5577.043457
v -168.142471 -18171.445312 -5517.183594
v -192.799500 -18246.597656 -5495.720215
v -219.886673 -18316.289062 -5450.463379
v -248.698395 -18339.802734 -5378.848633
v -277.110382 -18337.455078 -5293.484863
v -306.565521 -18416.238281 -5238.041016
v -309.086273 -18498.482422 -5264.895996
v -294.085815 -18558.414062 -5321.185059
v -292.744598 -18639.578125 -5356.234863
v -311.893097 -18725.214844 -5329.649902
v -344.165527 -18767.761719 -5264.513184
v -364.576080 -18828.794922 -5208.722168
v -386.355286 -18910.925781 -5182.133789
v -372.812256 -18992.109375 -5165.342285
v -246.880829 -18064.173828 -5685.479980
v -270.399780 -18080.070312 -5606.461914
v -299.979309 -18140.675781 -5554.934082
v -322.728180 -18207.107422 -5512.673340
v -350.247223 -18284.408203 -5491.278809
v -378.842255 -18326.025391 -5421.943848
v -405.439240 -18325.964844 -5340.713867
v -430.619171 -18397.867188 -5305.788086
v -438.000366 -18480.121094 -5316.183594
v -428.476135 -18547.820312 -5367.481445
v -423.457855 -18628.056641 -5398.333008
v -449.545502 -18698.816406 -5361.340820
v -475.171143 -18747.333984 -5293.077148
v -497.196838 -18815.058594 -5240.489258
v -510.145203 -18894.218750 -5208.568848
v -498.463043 -18978.619141 -5200.108398
vn 0.9006 -0.3433 -0.2667
vn 0.9156 -0.2084 -0.3438
vn 0.6821 -0.1739 -0.7103
vn 0.6825 -0.1737 -0.7100
vn 0.9157 -0.2081 -0.3438
vn 0.8077 -0.1440 -0.5717
vn 0.9157 -0.2079 -0.3439
vn 0.9717 -0.0829 -0.2213
vn 0.8078 -0.1440 -0.5716
vn 0.9766 -0.0204 -0.2139
vn 0.8078 -0.1439 -0.5716
vn 0.8078 -0.1441 -0.5715
vn 0.9766 -0.0204 -0.2140
vn 0.8092 -0.2719 -0.5208
vn 0.9766 -0.0202 -0.2141
vn 0.9739 -0.0343 -0.2246
vn 0.8091 -0.2719 -0.5210
vn 0.9738 -0.0342 -0.2248
vn 0.9759 -0.1230 -0.1800
vn 0.8092 -0.2720 -0.5208
vn 0.9759 -0.1229 -0.1801
vn 0.7814 -0.3594 -0.5102
vn 0.9760 -0.1227 -0.1801
vn 0.9728 -0.1701 -0.1573
vn 0.7813 -0.3594 -0.5103
vn 0.9728 -0.1700 -0.1574
vn 0.9593 -0.2454 -0.1397
vn 0.7815 -0.3595 -0.5100
vn 0.7813 -0.3595 -0.5102
vn 0.9593 -0.2455 -0.1397
vn 0.7583 -0.4628 -0.4590
vn 0.9592 -0.2456 -0.1398
vn 0.9377 -0.3329 -0.0995
vn 0.7583 -0.4630 -0.4589
vn 0.9378 -0.3327 -0.0995
vn 0.9121 -0.4068 -0.0504
vn 0.7584 -0.4629 -0.4589
vn 0.7585 -0.4628 -0.4588
vn 0.9120 -0.4071 -0.0502
vn 0.7543 -0.5267 -0.3920
vn 0.9121 -0.4069 -0.0502
vn 0.8836 -0.4680 -0.0109
vn 0.7542 -0.5268 -0.3919
vn 0.8836 -0.4681 -0.0108
vn 0.8498 -0.5266 0.0245
vn 0.7544 -0.5265 -0.3920
vn 0.8497 -0.5267 0.0245
vn 0.6915 -0.6384 -0.3381
vn 0.8707 -0.4914 0.0202
vn 0.6916 -0.6383 -0.3381
vn 0.8674 -0.4971 0.0217
vn 0.8836 -0.4670 0.0345
vn 0.6916 -0.6382 -0.3381
vn 0.6914 -0.6384 -0.3382
vn 0.8834 -0.4674 0.0346
vn 0.5471 -0.6857 -0.4802
vn 0.8835 -0.4672 0.0343
vn 0.8433 -0.5101 -0.1690
vn 0.5471 -0.6857 -0.4801
vn 0.8433 -0.5102 -0.1688
vn 0.8544 -0.5103 -0.0975
vn 0.5470 -0.6858 -0.4801
vn 0.9006 -0.3432 -0.2667
vn 0.9139 -0.3805 0.1411
vn 0.9157 -0.2078 -0.3439
vn 0.9157 -0.2081 -0.3437
vn 0.8872 -0.3726 0.2722
vn 0.9716 -0.0827 -0.2218
vn 0.9142 -0.3800 0.1408
vn 0.8873 -0.3722 0.2723
vn 0.9157 -0.2081 -0.3439
vn 0.8873 -0.3721 0.2724
vn 0.9166 -0.1172 0.3823
vn 0.9716 -0.0827 -0.2215
vn 0.9716 -0.0831 -0.2217
vn 0.9167 -0.1172 0.3821
vn 0.9765 -0.0205 -0.2143
vn 0.9766 -0.0204 -0.2142
vn 0.9497 0.2433 0.1970
vn 0.9738 -0.0343 -0.2250
vn 0.9167 -0.1173 0.3821
vn 0.9498 0.2430 0.1972
vn 0.9737 -0.0345 -0.2250
vn 0.9540 0.2509 0.1641
vn 0.9759 -0.1229 -0.1803
vn 0.9497 0.2433 0.1971
vn 0.9738 -0.0344 -0.2250
vn 0.9539 0.2511 0.1641
vn 0.9699 0.1379 0.2008
vn 0.9758 -0.1233 -0.1805
vn 0.9759 -0.1230 -0.1802
vn 0.9699 0.1381 0.2006
vn 0.9727 -0.1701 -0.1578
vn 0.9727 -0.1703 -0.1579
vn 0.9694 0.0568 0.2387
vn 0.9592 -0.2459 -0.1398
vn 0.9694 0.0566 0.2389
vn 0.9727 -0.1701 -0.1577
vn 0.9592 -0.2457 -0.1401
vn 0.9714 -0.0384 0.2344
vn 0.9377 -0.3327 -0.0998
vn 0.9694 0.0567 0.2387
vn 0.9713 -0.0388 0.2346
vn 0.9592 -0.2456 -0.1400
vn 0.9376 -0.3329 -0.0998
vn 0.9409 -0.1903 0.2803
vn 0.9120 -0.4070 -0.0505
vn 0.9713 -0.0387 0.2346
vn 0.9410 -0.1898 0.2800
vn 0.9377 -0.3329 -0.0998
vn 0.9121 -0.4067 -0.0505
vn 0.8870 -0.2778 0.3689
vn 0.8836 -0.4681 -0.0111
vn 0.9410 -0.1898 0.2802
vn 0.8872 -0.2776 0.3686
vn 0.9120 -0.4070 -0.0507
vn 0.8871 -0.2775 0.3688
vn 0.8529 -0.3145 0.4168
vn 0.8837 -0.4679 -0.0110
vn 0.8528 -0.3146 0.4168
vn 0.8497 -0.5267 0.0242
vn 0.8498 -0.5266 0.0243
vn 0.8132 -0.3803 0.4405
vn 0.8676 -0.4968 0.0211
vn 0.8528 -0.3145 0.4169
vn 0.8134 -0.3800 0.4404
vn 0.8498 -0.5266 0.0242
vn 0.8677 -0.4967 0.0209
vn 0.8084 -0.3686 0.4589
vn 0.8834 -0.4674 0.0341
vn 0.8084 -0.3685 0.4589
vn 0.8676 -0.4969 0.0212
vn 0.8085 -0.3686 0.4588
vn 0.9279 -0.1209 0.3526
vn 0.8835 -0.4672 0.0341
vn 0.8836 -0.4671 0.0342
vn 0.9279 -0.1212 0.3526
vn 0.8432 -0.5103 -0.1692
vn 0.8433 -0.5101 -0.1691
vn 0.9905 -0.0213 0.1362
vn 0.8544 -0.5103 -0.0978
vn 0.9278 -0.1208 0.3529
vn 0.9901 -0.0234 0.1382
vn 0.8431 -0.5104 -0.1693
vn 0.9904 -0.0214 0.1366
vn 0.9892 -0.0935 0.1132
vn 0.8544 -0.5103 -0.0977
vn 0.9141 -0.3802 0.1410
vn 0.6209 -0.5513 0.5573
vn 0.8874 -0.3721 0.2721
vn 0.6208 -0.5516 0.5571
vn 0.5446 -0.5682 0.6169
vn 0.8874 -0.3722 0.2721
vn 0.8873 -0.3722 0.2722
vn 0.5444 -0.5682 0.6171
vn 0.9165 -0.1170 0.3824
vn 0.7815 -0.2744 0.5604
vn 0.9498 0.2431 0.1970
vn 0.5445 -0.5684 0.6168
vn 0.7817 -0.2744 0.5600
vn 0.9290 0.2980 0.2195
vn 0.9496 0.2438 0.1971
vn 0.9498 0.2430 0.1969
vn 0.9292 0.2977 0.2191
vn 0.9540 0.2510 0.1639
vn 0.9290 0.2981 0.2193
vn 0.9167 0.3819 0.1174
vn 0.9540 0.2511 0.1641
vn 0.9168 0.3817 0.1173
vn 0.9698 0.1384 0.2007
vn 0.9168 0.3817 0.1174
vn 0.9498 0.1825 0.2540
vn 0.9699 0.1382 0.2007
vn 0.9698 0.1381 0.2009
vn 0.9499 0.1826 0.2537
vn 0.9693 0.0572 0.2392
vn 0.9498 0.1829 0.2539
vn 0.9480 0.2857 0.1402
vn 0.9693 0.0571 0.2392
vn 0.9693 0.0568 0.2394
vn 0.9480 0.2858 0.1403
vn 0.9713 -0.0384 0.2348
vn 0.9713 -0.0384 0.2346
vn 0.9773 0.1473 0.1521
vn 0.9409 -0.1897 0.2804
vn 0.9479 0.2860 0.1403
vn 0.9773 0.1471 0.1523
vn 0.9714 -0.0386 0.2344
vn 0.9773 0.1472 0.1522
vn 0.8187 -0.3822 0.4285
vn 0.9409 -0.1901 0.2804
vn 0.9409 -0.1899 0.2804
vn 0.8187 -0.3824 0.4285
vn 0.8871 -0.2776 0.3688
vn 0.8186 -0.3825 0.4284
vn 0.7397 -0.4200 0.5257
vn 0.8871 -0.2775 0.3689
vn 0.8871 -0.2770 0.3691
vn 0.7398 -0.4202 0.5255
vn 0.8528 -0.3145 0.4170
vn 0.7397 -0.4205 0.5254
vn 0.8173 -0.2669 0.5106
vn 0.8528 -0.3144 0.4170
vn 0.8529 -0.3143 0.4169
vn 0.8173 -0.2670 0.5107
vn 0.8133 -0.3802 0.4404
vn 0.8173 -0.2671 0.5106
vn 0.7665 -0.3606 0.5314
vn 0.8084 -0.3687 0.4589
vn 0.7664 -0.3607 0.5315
vn 0.8184 -0.3148 0.4807
vn 0.8086 -0.3684 0.4588
vn 0.8184 -0.3150 0.4806
vn 0.9277 -0.1209 0.3531
vn 0.8183 -0.3150 0.4808
vn 0.9511 0.0381 0.3065
vn 0.9278 -0.1210 0.3529
vn 0.9278 -0.1209 0.3529
vn 0.9512 0.0381 0.3063
vn 0.9905 -0.0215 0.1362
vn 0.9512 0.0381 0.3062
vn 0.9336 0.3402 0.1121
vn 0.9904 -0.0211 0.1364
vn 0.9904 -0.0214 0.1363
vn 0.9335 0.3407 0.1121
vn 0.9892 -0.0936 0.1131
vn 0.9335 0.3406 0.1123
vn 0.9182 0.3922 0.0554
vn 0.6210 -0.5514 0.5570
vn 0.5792 -0.5306 0.6189
vn 0.5445 -0.5683 0.6169
vn 0.5791 -0.5307 0.6188
vn 0.5981 -0.5249 0.6057
vn 0.5445 -0.5682 0.6170
vn 0.5443 -0.5684 0.6169
vn 0.5981 -0.5250 0.6055
vn 0.7818 -0.2745 0.5599
vn 0.8682 -0.2006 0.4539
vn 0.9291 0.2978 0.2191
vn 0.5981 -0.5249 0.6056
vn 0.8684 -0.2004 0.4536
vn 0.7816 -0.2747 0.5600
vn 0.8683 -0.2005 0.4537
vn 0.9390 0.3123 0.1441
vn 0.9292 0.2977 0.2190
vn 0.9389 0.3125 0.1442
vn 0.9167 0.3820 0.1173
vn 0.9167 0.3818 0.1175
vn 0.9266 0.3612 0.1048
vn 0.9499 0.1827 0.2537
vn 0.9389 0.3126 0.1443
vn 0.9264 0.3615 0.1050
vn 0.9166 0.3820 0.1175
vn 0.9596 0.2162 0.1798
vn 0.9498 0.1828 0.2538
vn 0.9498 0.1825 0.2541
vn 0.9596 0.2164 0.1796
vn 0.9480 0.2858 0.1400
vn 0.9341 0.3554 0.0345
vn 0.9773 0.1472 0.1521
vn 0.9596 0.2167 0.1794
vn 0.9341 0.3553 0.0344
vn 0.9480 0.2859 0.1401
vn 0.9780 0.1281 0.1649
vn 0.9774 0.1472 0.1520
vn 0.9779 0.1285 0.1650
vn 0.8186 -0.3825 0.4286
vn 0.9779 0.1283 0.1648
vn 0.7211 -0.4998 0.4798
vn 0.8185 -0.3825 0.4286
vn 0.8186 -0.3822 0.4287
vn 0.7183 -0.5052 0.4783
vn 0.7395 -0.4202 0.5258
vn 0.6392 -0.5266 0.5604
vn 0.7209 -0.4998 0.4801
vn 0.6388 -0.5266 0.5609
vn 0.8316 -0.2580 0.4919
vn 0.7666 -0.3606 0.5314
vn 0.6392 -0.5268 0.5603
vn 0.8316 -0.2577 0.4919
vn 0.8172 -0.2671 0.5108
vn 0.8317 -0.2579 0.4918
vn 0.8465 -0.2765 0.4550
vn 0.7665 -0.3607 0.5314
vn 0.7664 -0.3606 0.5316
vn 0.8463 -0.2772 0.4549
vn 0.8184 -0.3152 0.4805
vn 0.8186 -0.3145 0.4807
vn 0.8868 -0.2546 0.3858
vn 0.9511 0.0379 0.3064
vn 0.8464 -0.2770 0.4549
vn 0.8869 -0.2544 0.3856
vn 0.8183 -0.3149 0.4808
vn 0.8868 -0.2544 0.3858
vn 0.9648 0.0141 0.2627
vn 0.9512 0.0379 0.3062
vn 0.9648 0.0138 0.2625
vn 0.9335 0.3405 0.1121
vn 0.9648 0.0140 0.2627
vn 0.9228 0.1138 0.3680
vn 0.9336 0.3404 0.1119
vn 0.9335 0.3405 0.1122
vn 0.9229 0.1140 0.3679
vn 0.9182 0.3923 0.0550
vn 0.9228 0.1139 0.3680
vn 0.8481 0.0268 0.5291
vn 0.9182 0.3922 0.0550
vn 0.5791 -0.5305 0.6190
vn 0.4670 -0.6462 0.6036
vn 0.4668 -0.6464 0.6035
vn 0.5926 -0.5410 0.5968
vn 0.5980 -0.5249 0.6057
vn 0.5980 -0.5248 0.6057
vn 0.5930 -0.5403 0.5970
vn 0.8684 -0.2002 0.4536
vn 0.8683 -0.2004 0.4537
vn 0.8991 -0.1318 0.4175
vn 0.9390 0.3123 0.1439
vn 0.5925 -0.5410 0.5969
vn 0.8991 -0.1317 0.4175
vn 0.8683 -0.2007 0.4536
vn 0.9389 0.3125 0.1444
vn 0.9366 0.3291 0.1205
vn 0.9264 0.3615 0.1049
vn 0.8992 -0.1317 0.4173
vn 0.9368 0.3286 0.1204
vn 0.9266 0.3613 0.1048
vn 0.9231 0.3699 0.1052
vn 0.9596 0.2164 0.1797
vn 0.9367 0.3288 0.1205
vn 0.9230 0.3701 0.1055
vn 0.9264 0.3616 0.1049
vn 0.9230 0.3700 0.1053
vn 0.9436 0.3115 0.1119
vn 0.9596 0.2168 0.1794
vn 0.9596 0.2163 0.1798
vn 0.9436 0.3115 0.1120
vn 0.9436 0.3116 0.1121
vn 0.9220 0.3869 -0.0119
vn 0.9340 0.3555 0.0347
vn 0.9341 0.3554 0.0347
vn 0.9220 0.3870 -0.0119
vn 0.9779 0.1285 0.1648
vn 0.9780 0.1280 0.1649
vn 0.9757 0.0482 0.2138
vn 0.7211 -0.4998 0.4799
vn 0.9757 0.0478 0.2138
vn 0.9780 0.1283 0.1648
vn 0.6304 -0.5706 0.5263
vn 0.7208 -0.4998 0.4802
vn 0.6302 -0.5707 0.5265
vn 0.6389 -0.5267 0.5607
vn 0.6390 -0.5266 0.5607
vn 0.5914 -0.5778 0.5625
vn 0.8316 -0.2579 0.4918
vn 0.6301 -0.5708 0.5265
vn 0.5913 -0.5778 0.5626
vn 0.5913 -0.5778 0.5625
vn 0.8761 -0.2468 0.4142
vn 0.8317 -0.2580 0.4917
vn 0.8317 -0.2576 0.4918
vn 0.8760 -0.2472 0.4142
vn 0.8465 -0.2767 0.4548
vn 0.9141 -0.2132 0.3450
vn 0.8869 -0.2542 0.3857
vn 0.8761 -0.2469 0.4142
vn 0.9141 -0.2128 0.3451
vn 0.8463 -0.2771 0.4549
vn 0.9142 -0.2128 0.3448
vn 0.9034 -0.2242 0.3655
vn 0.8869 -0.2545 0.3854
vn 0.8869 -0.2543 0.3856
vn 0.9033 -0.2246 0.3655
vn 0.9648 0.0139 0.2626
vn 0.9648 0.0140 0.2626
vn 0.8977 -0.1521 0.4136
vn 0.9228 0.1140 0.3680
vn 0.9033 -0.2243 0.3656
vn 0.8978 -0.1520 0.4135
vn 0.9228 0.1141 0.3681
vn 0.9397 0.0593 0.3367
vn 0.8484 0.0267 0.5287
vn 0.8976 -0.1518 0.4138
vn 0.9398 0.0591 0.3367
vn 0.9228 0.1142 0.3680
vn 0.9399 0.0591 0.3363
vn 0.9549 0.2410 0.1735
vn 0.8483 0.0268 0.5289
vn 0.4668 -0.6462 0.6037
vn 0.4312 -0.6681 0.6063
vn 0.5924 -0.5411 0.5969
vn 0.4311 -0.6685 0.6060
vn 0.6425 -0.5071 0.5745
vn 0.5927 -0.5409 0.5968
vn 0.6426 -0.5071 0.5744
vn 0.8990 -0.1317 0.4177
vn 0.8991 -0.1315 0.4175
vn 0.9263 -0.0507 0.3733
vn 0.9368 0.3286 0.1203
vn 0.6425 -0.5073 0.5743
vn 0.9262 -0.0508 0.3735
vn 0.8991 -0.1316 0.4174
vn 0.9366 0.3288 0.1207
vn 0.9348 0.3216 0.1504
vn 0.9229 0.3702 0.1055
vn 0.9263 -0.0509 0.3733
vn 0.9350 0.3213 0.1502
vn 0.9367 0.3287 0.1204
vn 0.9232 0.3697 0.1051
vn 0.9184 0.3780 0.1167
vn 0.9437 0.3113 0.1118
vn 0.9349 0.3215 0.1501
vn 0.9183 0.3781 0.1169
vn 0.9231 0.3699 0.1054
vn 0.9183 0.3782 0.1167
vn 0.8974 0.4410 0.0108
vn 0.9436 0.3115 0.1121
vn 0.8974 0.4410 0.0111
vn 0.9221 0.3867 -0.0120
vn 0.8975 0.4409 0.0108
vn 0.9117 0.4101 -0.0251
vn 0.9220 0.3869 -0.0118
vn 0.9116 0.4102 -0.0249
vn 0.9757 0.0481 0.2136
vn 0.9454 -0.0814 0.3156
vn 0.6302 -0.5706 0.5265
vn 0.9117 0.4100 -0.0251
vn 0.9454 -0.0815 0.3156
vn 0.9758 0.0481 0.2135
vn 0.6303 -0.5705 0.5266
vn 0.5548 -0.6237 0.5506
vn 0.5913 -0.5779 0.5625
vn 0.9453 -0.0815 0.3158
vn 0.5549 -0.6237 0.5506
vn 0.5548 -0.6238 0.5505
vn 0.6830 -0.5158 0.5172
vn 0.5914 -0.5779 0.5624
vn 0.6833 -0.5159 0.5166
vn 0.6833 -0.5160 0.5166
vn 0.9303 -0.1500 0.3347
vn 0.8761 -0.2470 0.4141
vn 0.8763 -0.2466 0.4138
vn 0.9303 -0.1501 0.3347
vn 0.9304 -0.1500 0.3344
vn 0.8774 -0.2621 0.4018
vn 0.9141 -0.2133 0.3448
vn 0.9142 -0.2129 0.3448
vn 0.8773 -0.2626 0.4018
vn 0.9034 -0.2243 0.3655
vn 0.9034 -0.2241 0.3656
vn 0.8304 -0.3040 0.4669
vn 0.8978 -0.1519 0.4134
vn 0.8773 -0.2620 0.4021
vn 0.8307 -0.3035 0.4668
vn 0.9033 -0.2243 0.3657
vn 0.8305 -0.3039 0.4668
vn 0.9105 -0.1447 0.3873
vn 0.8977 -0.1520 0.4135
vn 0.8977 -0.1518 0.4137
vn 0.9104 -0.1447 0.3876
vn 0.9398 0.0590 0.3365
vn 0.9399 0.0591 0.3364
vn 0.9671 0.0547 0.2486
vn 0.9549 0.2412 0.1733
vn 0.9106 -0.1447 0.3870
vn 0.9670 0.0545 0.2488
vn 0.9400 0.0591 0.3361
vn 0.9670 0.0550 0.2488
vn 0.9579 0.0961 0.2705
vn 0.9548 0.2415 0.1732
vn 0.4311 -0.6684 0.6061
vn 0.4464 -0.6557 0.6090
vn 0.6424 -0.5071 0.5746
vn 0.4463 -0.6558 0.6089
vn 0.6705 -0.4879 0.5589
vn 0.6422 -0.5073 0.5746
vn 0.6427 -0.5071 0.5743
vn 0.6706 -0.4882 0.5585
vn 0.9262 -0.0507 0.3735
vn 0.6707 -0.4881 0.5585
vn 0.9322 -0.0247 0.3611
vn 0.9263 -0.0507 0.3735
vn 0.9263 -0.0507 0.3734
vn 0.9323 -0.0247 0.3608
vn 0.9350 0.3213 0.1501
vn 0.9323 -0.0249 0.3609
vn 0.9290 0.3402 0.1460
vn 0.9349 0.3215 0.1502
vn 0.9349 0.3215 0.1503
vn 0.9289 0.3403 0.1461
vn 0.9183 0.3782 0.1169
vn 0.9068 0.4177 0.0573
vn 0.9183 0.3783 0.1168
vn 0.9183 0.3782 0.1168
vn 0.8975 0.4409 0.0110
vn 0.8975 0.4410 0.0110
vn 0.8606 0.5056 -0.0616
vn 0.9116 0.4102 -0.0250
vn 0.9067 0.4178 0.0574
vn 0.8604 0.5058 -0.0618
vn 0.8974 0.4411 0.0111
vn 0.9169 0.3990 0.0135
vn 0.9454 -0.0816 0.3156
vn 0.8606 0.5055 -0.0618
vn 0.9169 0.3990 0.0134
vn 0.9117 0.4101 -0.0252
vn 0.9454 -0.0814 0.3157
vn 0.9163 -0.1608 0.3667
vn 0.5548 -0.6236 0.5508
vn 0.9170 0.3987 0.0134
vn 0.9163 -0.1606 0.3669
vn 0.5549 -0.6235 0.5507
vn 0.5489 -0.6506 0.5247
vn 0.6831 -0.5159 0.5169
vn 0.5489 -0.6506 0.5249
vn 0.5547 -0.6236 0.5509
vn 0.6833 -0.5159 0.5167
vn 0.7170 -0.4994 0.4863
vn 0.9302 -0.1498 0.3351
vn 0.5490 -0.6506 0.5247
vn 0.7168 -0.4995 0.4865
vn 0.8928 -0.1295 0.4314
vn 0.8773 -0.2621 0.4022
vn 0.7169 -0.4996 0.4863
vn 0.8928 -0.1292 0.4314
vn 0.9303 -0.1499 0.3348
vn 0.8773 -0.2621 0.4021
vn 0.8191 -0.2304 0.5254
vn 0.8305 -0.3039 0.4667
vn 0.8928 -0.1293 0.4314
vn 0.8192 -0.2303 0.5252
vn 0.8772 -0.2622 0.4022
vn 0.8191 -0.2302 0.5254
vn 0.8455 -0.2394 0.4774
vn 0.8305 -0.3038 0.4669
vn 0.8306 -0.3036 0.4668
vn 0.8452 -0.2401 0.4775
vn 0.9105 -0.1446 0.3873
vn 0.9106 -0.1448 0.3871
vn 0.9549 -0.0523 0.2924
vn 0.9670 0.0548 0.2487
vn 0.8454 -0.2398 0.4773
vn 0.9548 -0.0525 0.2924
vn 0.9106 -0.1448 0.3870
vn 0.9548 -0.0528 0.2924
vn 0.9682 -0.0059 0.2502
vn 0.9671 0.0547 0.2485
vn 0.9671 0.0546 0.2486
vn 0.9682 -0.0058 0.2501
vn 0.9580 0.0962 0.2703
vn 0.9681 -0.0057 0.2504
vn 0.9307 -0.0942 0.3535
vn 0.9579 0.0962 0.2704
vn 0.4462 -0.6557 0.6091
vn 0.5666 -0.5650 0.5998
vn 0.6705 -0.4881 0.5587
vn 0.5665 -0.5650 0.5998
vn 0.7348 -0.4277 0.5264
vn 0.6705 -0.4881 0.5588
vn 0.7349 -0.4280 0.5261
vn 0.9323 -0.0246 0.3608
vn 0.9342 -0.0350 0.3550
vn 0.9289 0.3404 0.1459
vn 0.7348 -0.4280 0.5262
vn 0.9342 -0.0352 0.3550
vn 0.9323 -0.0245 0.3608
vn 0.9342 -0.0352 0.3551
vn 0.9213 0.3716 0.1147
vn 0.9289 0.3403 0.1460
vn 0.9212 0.3718 0.1148
vn 0.9211 0.3719 0.1149
vn 0.8736 0.4866 -0.0011
vn 0.9067 0.4178 0.0573
vn 0.8737 0.4864 -0.0008
vn 0.8606 0.5056 -0.0617
vn 0.8493 0.5231 -0.0716
vn 0.9168 0.3991 0.0133
vn 0.8737 0.4865 -0.0009
vn 0.8490 0.5235 -0.0718
vn 0.8606 0.5056 -0.0614
vn 0.9170 0.3986 0.0132
vn 0.9310 0.3601 0.0600
vn 0.9164 -0.1605 0.3668
vn 0.8492 0.5232 -0.0717
vn 0.9308 0.3604 0.0601
vn 0.9163 -0.1607 0.3669
vn 0.9196 -0.1598 0.3588
vn 0.5489 -0.6506 0.5248
vn 0.9310 0.3601 0.0597
vn 0.9196 -0.1593 0.3592
vn 0.9162 -0.1606 0.3670
vn 0.5491 -0.6504 0.5248
vn 0.5805 -0.6391 0.5045
vn 0.7168 -0.4996 0.4865
vn 0.9197 -0.1594 0.3588
vn 0.5805 -0.6390 0.5047
vn 0.5490 -0.6504 0.5249
vn 0.5806 -0.6391 0.5044
vn 0.5612 -0.6269 0.5404
vn 0.7167 -0.4999 0.4863
vn 0.7170 -0.4995 0.4861
vn 0.5613 -0.6270 0.5401
vn 0.8929 -0.1291 0.4313
vn 0.8928 -0.1291 0.4317
vn 0.7736 -0.2995 0.5585
vn 0.8190 -0.2301 0.5256
vn 0.5613 -0.6270 0.5402
vn 0.7740 -0.2992 0.5580
vn 0.8928 -0.1291 0.4316
vn 0.7738 -0.2993 0.5583
vn 0.8567 -0.1247 0.5006
vn 0.8189 -0.2301 0.5258
vn 0.8191 -0.2299 0.5255
vn 0.8567 -0.1248 0.5004
vn 0.8452 -0.2396 0.4777
vn 0.8454 -0.2397 0.4774
vn 0.9384 -0.0118 0.3454
vn 0.9548 -0.0526 0.2926
vn 0.8569 -0.1246 0.5002
vn 0.9383 -0.0120 0.3455
vn 0.8453 -0.2398 0.4774
vn 0.9384 -0.0118 0.3453
vn 0.9742 0.0415 0.2219
vn 0.9549 -0.0525 0.2922
vn 0.9549 -0.0525 0.2923
vn 0.9742 0.0418 0.2218
vn 0.9682 -0.0060 0.2500
vn 0.9681 -0.0058 0.2503
vn 0.9369 -0.1154 0.3299
vn 0.9308 -0.0943 0.3533
vn 0.9742 0.0417 0.2218
vn 0.9390 -0.1092 0.3262
vn 0.9368 -0.1152 0.3302
vn 0.8624 -0.2481 0.4412
vn 0.9306 -0.0942 0.3537
vn 0.6981 -0.4170 0.5821
vn 0.7348 -0.4279 0.5263
vn 0.6981 -0.4168 0.5822
vn 0.7965 -0.3460 0.4959
vn 0.7348 -0.4278 0.5264
vn 0.7349 -0.4278 0.5262
vn 0.7965 -0.3463 0.4957
vn 0.7965 -0.3461 0.4958
vn 0.9385 -0.0530 0.3412
vn 0.9342 -0.0352 0.3549
vn 0.9385 -0.0529 0.3411
vn 0.9213 0.3717 0.1147
vn 0.9385 -0.0530 0.3411
vn 0.9219 0.3710 0.1119
vn 0.9213 0.3716 0.1148
vn 0.9211 0.3719 0.1150
vn 0.9218 0.3713 0.1120
vn 0.8737 0.4864 -0.0010
vn 0.8737 0.4865 -0.0011
vn 0.8342 0.5507 -0.0287
vn 0.8490 0.5234 -0.0716
vn 0.9217 0.3713 0.1119
vn 0.8341 0.5509 -0.0289
vn 0.8738 0.4863 -0.0010
vn 0.8343 0.5506 -0.0288
vn 0.8257 0.5563 -0.0936
vn 0.8491 0.5233 -0.0717
vn 0.8492 0.5232 -0.0718
vn 0.8257 0.5563 -0.0934
vn 0.9308 0.3605 0.0602
vn 0.8257 0.5563 -0.0935
vn 0.9453 0.3153 0.0833
vn 0.9309 0.3603 0.0600
vn 0.9454 0.3151 0.0829
vn 0.9197 -0.1597 0.3588
vn 0.9454 0.3152 0.0828
vn 0.9142 -0.1773 0.3645
vn 0.9197 -0.1596 0.3588
vn 0.9142 -0.1775 0.3644
vn 0.5805 -0.6391 0.5046
vn 0.5714 -0.6363 0.5183
vn 0.5612 -0.6270 0.5402
vn 0.9142 -0.1772 0.3645
vn 0.5713 -0.6363 0.5184
vn 0.5807 -0.6389 0.5046
vn 0.4850 -0.6957 0.5299
vn 0.5611 -0.6271 0.5403
vn 0.5610 -0.6270 0.5405
vn 0.4852 -0.6953 0.5302
vn 0.7736 -0.2992 0.5586
vn 0.7738 -0.2993 0.5582
vn 0.7178 -0.4317 0.5463
vn 0.8570 -0.1247 0.5001
vn 0.4849 -0.6956 0.5301
vn 0.7177 -0.4315 0.5466
vn 0.7737 -0.2997 0.5582
vn 0.7176 -0.4320 0.5463
vn 0.8990 -0.0827 0.4301
vn 0.8568 -0.1248 0.5003
vn 0.8568 -0.1248 0.5004
vn 0.8990 -0.0828 0.4301
vn 0.9382 -0.0119 0.3459
vn 0.9384 -0.0119 0.3453
vn 0.9609 0.1427 0.2374
vn 0.9741 0.0420 0.2221
vn 0.8991 -0.0830 0.4299
vn 0.9609 0.1425 0.2376
vn 0.9384 -0.0117 0.3453
vn 0.9742 0.0417 0.2217
vn 0.9697 0.0717 0.2335
vn 0.9369 -0.1153 0.3299
vn 0.9609 0.1426 0.2374
vn 0.9697 0.0715 0.2338
vn 0.9742 0.0415 0.2217
vn 0.9696 0.0719 0.2337
vn 0.9088 -0.1837 0.3746
vn 0.9369 -0.1152 0.3300
vn 0.9088 -0.1839 0.3746
vn 0.8624 -0.2484 0.4411
vn 0.9088 -0.1836 0.3746
vn 0.8386 -0.3128 0.4459
vn 0.6984 -0.4168 0.5819
vn 0.8421 -0.1983 0.5015
vn 0.7964 -0.3460 0.4960
vn 0.8423 -0.1981 0.5012
vn 0.8678 -0.2301 0.4404
vn 0.7966 -0.3460 0.4957
vn 0.8679 -0.2302 0.4401
vn 0.9385 -0.0531 0.3412
vn 0.9390 -0.0795 0.3345
vn 0.9219 0.3710 0.1118
vn 0.8679 -0.2298 0.4403
vn 0.9390 -0.0795 0.3346
vn 0.9385 -0.0529 0.3412
vn 0.9218 0.3711 0.1119
vn 0.9352 0.3355 0.1135
vn 0.9353 0.3352 0.1132
vn 0.9220 0.3708 0.1116
vn 0.8016 0.5943 -0.0656
vn 0.8341 0.5508 -0.0286
vn 0.8342 0.5508 -0.0288
vn 0.8017 0.5941 -0.0655
vn 0.8258 0.5562 -0.0935
vn 0.8018 0.5940 -0.0656
vn 0.7952 0.5967 -0.1077
vn 0.8257 0.5563 -0.0938
vn 0.7951 0.5969 -0.1075
vn 0.9453 0.3156 0.0832
vn 0.7951 0.5969 -0.1076
vn 0.9502 0.2958 0.0978
vn 0.9453 0.3154 0.0833
vn 0.9454 0.3150 0.0830
vn 0.9504 0.2955 0.0974
vn 0.9143 -0.1770 0.3642
vn 0.9143 -0.1773 0.3643
vn 0.9035 -0.2051 0.3762
vn 0.5714 -0.6362 0.5184
vn 0.9504 0.2955 0.0975
vn 0.9035 -0.2048 0.3764
vn 0.5744 -0.6295 0.5233
vn 0.4851 -0.6957 0.5298
vn 0.9035 -0.2049 0.3764
vn 0.5742 -0.6295 0.5234
vn 0.5713 -0.6363 0.5185
vn 0.4167 -0.7288 0.5434
vn 0.4850 -0.6957 0.5298
vn 0.4848 -0.6958 0.5300
vn 0.4167 -0.7285 0.5438
vn 0.7176 -0.4315 0.5467
vn 0.7178 -0.4316 0.5463
vn 0.6673 -0.5018 0.5504
vn 0.4167 -0.7286 0.5436
vn 0.6671 -0.5016 0.5508
vn 0.7176 -0.4315 0.5466
vn 0.9278 -0.0326 0.3716
vn 0.9608 0.1430 0.2376
vn 0.6674 -0.5018 0.5502
vn 0.9279 -0.0326 0.3715
vn 0.8990 -0.0827 0.4300
vn 0.9279 -0.0328 0.3714
vn 0.9553 0.2192 0.1981
vn 0.9609 0.1425 0.2375
vn 0.9553 0.2194 0.1980
vn 0.9697 0.0716 0.2336
vn 0.9696 0.0716 0.2339
vn 0.9640 0.0887 0.2507
vn 0.9089 -0.1834 0.3745
vn 0.9553 0.2196 0.1980
vn 0.9640 0.0883 0.2508
vn 0.9697 0.0716 0.2335
vn 0.9640 0.0887 0.2506
vn 0.8876 -0.2190 0.4052
vn 0.9088 -0.1837 0.3745
vn 0.8877 -0.2191 0.4050
vn 0.8386 -0.3130 0.4459
vn 0.8877 -0.2189 0.4050
vn 0.7938 -0.3726 0.4806
vn 0.8422 -0.1982 0.5014
vn 0.9292 0.0275 0.3686
vn 0.8679 -0.2296 0.4405
vn 0.9269 -0.1041 0.3606
vn 0.9390 -0.0798 0.3345
vn 0.9293 0.0273 0.3682
vn 0.9269 -0.1043 0.3605
vn 0.8678 -0.2302 0.4404
vn 0.9482 -0.0869 0.3056
vn 0.9391 -0.0795 0.3343
vn 0.9391 -0.0797 0.3342
vn 0.9482 -0.0870 0.3055
vn 0.9352 0.3355 0.1137
vn 0.9540 0.2748 0.1202
vn 0.8016 0.5942 -0.0654
vn 0.9481 -0.0872 0.3057
vn 0.9541 0.2743 0.1202
vn 0.9354 0.3351 0.1132
vn 0.9541 0.2745 0.1202
vn 0.8014 0.5936 -0.0735
vn 0.8017 0.5942 -0.0651
vn 0.8018 0.5940 -0.0655
vn 0.8017 0.5932 -0.0734
vn 0.7953 0.5966 -0.1076
vn 0.8018 0.5931 -0.0736
vn 0.7647 0.6338 -0.1165
vn 0.7950 0.5969 -0.1078
vn 0.7646 0.6339 -0.1164
vn 0.9502 0.2959 0.0977
vn 0.7648 0.6338 -0.1161
vn 0.9482 0.2997 0.1053
vn 0.9502 0.2960 0.0978
vn 0.9483 0.2995 0.1048
vn 0.9036 -0.2048 0.3762
vn 0.8889 -0.2428 0.3883
vn 0.5743 -0.6295 0.5234
vn 0.9483 0.2995 0.1049
vn 0.8889 -0.2425 0.3886
vn 0.9034 -0.2049 0.3766
vn 0.8890 -0.2426 0.3883
vn 0.5498 -0.6426 0.5336
vn 0.5742 -0.6294 0.5236
vn 0.5498 -0.6427 0.5335
vn 0.4167 -0.7287 0.5435
vn 0.3982 -0.7394 0.5429
vn 0.6670 -0.5019 0.5506
vn 0.5498 -0.6428 0.5335
vn 0.3982 -0.7395 0.5427
vn 0.4168 -0.7286 0.5435
vn 0.6674 -0.5017 0.5504
vn 0.6504 -0.5374 0.5368
vn 0.9278 -0.0328 0.3716
vn 0.6579 -0.5275 0.5375
vn 0.6670 -0.5019 0.5507
vn 0.9279 -0.0328 0.3715
vn 0.9374 -0.0140 0.3479
vn 0.9553 0.2196 0.1979
vn 0.6582 -0.5275 0.5371
vn 0.9374 -0.0142 0.3479
vn 0.9278 -0.0325 0.3716
vn 0.9375 -0.0141 0.3478
vn 0.9528 0.2553 0.1641
vn 0.9553 0.2196 0.1981
vn 0.9553 0.2194 0.1982
vn 0.9528 0.2555 0.1639
vn 0.9640 0.0886 0.2506
vn 0.9528 0.2557 0.1637
vn 0.9608 0.0881 0.2628
vn 0.9641 0.0886 0.2505
vn 0.9639 0.0885 0.2510
vn 0.9608 0.0883 0.2627
vn 0.8877 -0.2187 0.4051
vn 0.8878 -0.2188 0.4049
vn 0.8688 -0.2314 0.4377
vn 0.7937 -0.3730 0.4806
vn 0.9608 0.0884 0.2628
vn 0.8689 -0.2310 0.4378
vn 0.8689 -0.2311 0.4377
vn 0.7992 -0.3630 0.4791
vn 0.9292 0.0275 0.3685
vn 0.9312 0.2425 0.2720
vn 0.9268 -0.1041 0.3608
vn 0.9543 0.0428 0.2958
vn 0.9312 0.2426 0.2721
vn 0.9544 0.0426 0.2956
vn 0.9269 -0.1044 0.3604
vn 0.9544 0.0426 0.2955
vn 0.9525 -0.0805 0.2936
vn 0.9483 -0.0866 0.3054
vn 0.9482 -0.0871 0.3055
vn 0.9526 -0.0806 0.2933
vn 0.9541 0.2744 0.1200
vn 0.9525 -0.0806 0.2938
vn 0.9697 0.2035 0.1355
vn 0.9541 0.2744 0.1199
vn 0.9540 0.2747 0.1202
vn 0.9696 0.2036 0.1355
vn 0.8016 0.5934 -0.0733
vn 0.9697 0.2036 0.1352
vn 0.8287 0.5546 -0.0745
vn 0.8015 0.5935 -0.0733
vn 0.8289 0.5544 -0.0744
vn 0.7647 0.6338 -0.1164
vn 0.8289 0.5544 -0.0745
vn 0.7567 0.6474 -0.0912
vn 0.7648 0.6337 -0.1163
vn 0.7645 0.6340 -0.1166
vn 0.7565 0.6476 -0.0909
vn 0.9482 0.2999 0.1047
vn 0.9484 0.2994 0.1048
vn 0.9328 0.3395 0.1208
vn 0.7566 0.6475 -0.0910
vn 0.9326 0.3399 0.1212
vn 0.9482 0.2998 0.1049
vn 0.8889 -0.2426 0.3885
vn 0.8639 -0.2583 0.4323
vn 0.5498 -0.6426 0.5337
vn 0.9327 0.3398 0.1207
vn 0.8639 -0.2581 0.4325
vn 0.8889 -0.2426 0.3886
vn 0.8640 -0.2580 0.4324
vn 0.5166 -0.6423 0.5662
vn 0.5497 -0.6427 0.5336
vn 0.5500 -0.6427 0.5334
vn 0.5167 -0.6423 0.5661
vn 0.3982 -0.7394 0.5428
vn 0.3934 -0.7405 0.5449
vn 0.3982 -0.7395 0.5428
vn 0.6578 -0.5278 0.5374
vn 0.6583 -0.5274 0.5371
vn 0.6437 -0.5555 0.5265
vn 0.6479 -0.5498 0.5272
vn 0.6481 -0.5497 0.5270
vn 0.9642 0.0147 0.2648
vn 0.9375 -0.0139 0.3478
vn 0.9375 -0.0143 0.3477
vn 0.9643 0.0148 0.2645
vn 0.9528 0.2559 0.1637
vn 0.9528 0.2554 0.1642
vn 0.9592 0.2402 0.1490
vn 0.9608 0.0882 0.2627
vn 0.9643 0.0145 0.2644
vn 0.9592 0.2402 0.1493
vn 0.9528 0.2556 0.1640
vn 0.9593 0.2401 0.1488
vn 0.9502 0.0454 0.3084
vn 0.9609 0.0882 0.2625
vn 0.9502 0.0456 0.3083
vn 0.8688 -0.2311 0.4379
vn 0.8689 -0.2310 0.4379
vn 0.8588 -0.2195 0.4629
vn 0.7991 -0.3634 0.4790
vn 0.9501 0.0457 0.3085
vn 0.8589 -0.2189 0.4629
vn 0.8588 -0.2194 0.4629
vn 0.8439 -0.2824 0.4562
vn 0.7991 -0.3633 0.4790
vn 0.9312 0.2421 0.2724
vn 0.9030 0.4288 0.0260
vn 0.9543 0.0424 0.2958
vn 0.9746 0.1659 0.1507
vn 0.9525 -0.0805 0.2938
vn 0.9029 0.4291 0.0260
vn 0.9746 0.1657 0.1508
vn 0.9544 0.0427 0.2954
vn 0.9525 -0.0806 0.2936
vn 0.9848 -0.0640 0.1614
vn 0.9697 0.2036 0.1353
vn 0.9847 -0.0645 0.1617
vn 0.9526 -0.0803 0.2934
vn 0.9696 0.2037 0.1355
vn 0.9902 0.1161 0.0778
vn 0.8288 0.5545 -0.0744
vn 0.9848 -0.0643 0.1613
vn 0.9902 0.1160 0.0779
vn 0.9697 0.2034 0.1352
vn 0.8290 0.5543 -0.0746
vn 0.8898 0.4563 0.0037
vn 0.7568 0.6472 -0.0911
vn 0.9902 0.1161 0.0775
vn 0.8897 0.4566 0.0037
vn 0.7564 0.6477 -0.0912
vn 0.7775 0.6278 -0.0369
vn 0.9327 0.3400 0.1207
vn 0.8896 0.4567 0.0037
vn 0.7775 0.6278 -0.0371
vn 0.9328 0.3396 0.1206
vn 0.9284 0.3652 0.0689
vn 0.8638 -0.2580 0.4329
vn 0.7776 0.6277 -0.0371
vn 0.9282 0.3655 0.0691
vn 0.9326 0.3401 0.1208
vn 0.8640 -0.2581 0.4323
vn 0.8779 -0.3116 0.3636
vn 0.5165 -0.6422 0.5664
vn 0.9283 0.3653 0.0689
vn 0.8779 -0.3114 0.3638
vn 0.8779 -0.3115 0.3637
vn 0.5777 -0.6626 0.4766
vn 0.5167 -0.6422 0.5662
vn 0.5166 -0.6422 0.5662
vn 0.5776 -0.6627 0.4766
vn 0.3933 -0.7405 0.5450
vn 0.3840 -0.7336 0.5607
vn 0.3935 -0.7406 0.5447
vn 0.3841 -0.7336 0.5607
vn 0.6480 -0.5498 0.5271
vn 0.6482 -0.5498 0.5268
vn 0.6774 -0.4969 0.5424
vn 0.9642 0.0148 0.2648
vn 0.3841 -0.7335 0.5607
vn 0.6773 -0.4968 0.5427
vn 0.9643 0.0147 0.2645
vn 0.9510 0.0348 0.3071
vn 0.9592 0.2403 0.1490
vn 0.6775 -0.4968 0.5424
vn 0.9510 0.0344 0.3072
vn 0.9593 0.2400 0.1491
vn 0.9582 0.1930 0.2113
vn 0.9502 0.0455 0.3084
vn 0.9510 0.0346 0.3072
vn 0.9582 0.1928 0.2115
vn 0.9593 0.2400 0.1490
vn 0.9582 0.1930 0.2112
vn 0.9495 -0.0375 0.3115
vn 0.9501 0.0456 0.3086
vn 0.9496 -0.0375 0.3112
vn 0.8588 -0.2193 0.4630
vn 0.9495 -0.0376 0.3114
vn 0.9066 -0.2222 0.3588
vn 0.8587 -0.2192 0.4632
vn 0.8588 -0.2191 0.4631
vn 0.9064 -0.2223 0.3592
vn 0.8437 -0.2827 0.4564
vn 0.9065 -0.2224 0.3589
vn 0.9122 -0.2158 0.3483
vn 0.8437 -0.2828 0.4563
vn 0.9028 0.4293 0.0260
vn 0.8809 0.4661 -0.0824
vn 0.8809 0.4661 -0.0823
vn 0.9503 0.3046 -0.0653
vn 0.9745 0.1660 0.1508
vn 0.9746 0.1658 0.1508
vn 0.9503 0.3044 -0.0651
vn 0.9848 -0.0644 0.1614
vn 0.9848 -0.0645 0.1613
vn 0.9942 -0.0521 0.0945
vn 0.9902 0.1162 0.0777
vn 0.9503 0.3045 -0.0652
vn 0.9941 -0.0522 0.0947
vn 0.9848 -0.0643 0.1612
vn 0.9942 -0.0519 0.0946
vn 0.9810 -0.0968 0.1682
vn 0.9902 0.1162 0.0780
vn 0.9902 0.1160 0.0777
vn 0.9811 -0.0969 0.1678
vn 0.8897 0.4565 0.0038
vn 0.9810 -0.0965 0.1681
vn 0.9567 0.2867 0.0504
vn 0.8899 0.4561 0.0035
vn 0.9567 0.2868 0.0504
vn 0.9567 0.2867 0.0505
vn 0.7503 0.6440 -0.1493
vn 0.7776 0.6276 -0.0370
vn 0.7776 0.6276 -0.0372
vn 0.7503 0.6440 -0.1492
vn 0.9282 0.3657 0.0689
vn 0.9284 0.3653 0.0689
vn 0.8985 0.4368 -0.0437
vn 0.7504 0.6439 -0.1492
vn 0.8984 0.4370 -0.0436
vn 0.9284 0.3653 0.0688
vn 0.8440 -0.3520 0.4048
vn 0.8779 -0.3117 0.3634
vn 0.8778 -0.3114 0.3640
vn 0.8438 -0.3521 0.4050
vn 0.5778 -0.6626 0.4765
vn 0.8439 -0.3520 0.4050
vn 0.3685 -0.7506 0.5485
vn 0.5778 -0.6626 0.4766
vn 0.5777 -0.6627 0.4766
vn 0.3687 -0.7505 0.5485
vn 0.3842 -0.7336 0.5606
vn 0.3688 -0.7506 0.5483
vn 0.2546 -0.7740 0.5798
vn 0.3840 -0.7335 0.5608
vn 0.2580 -0.7681 0.5861
vn 0.6773 -0.4969 0.5426
vn 0.7186 -0.4690 0.5134
vn 0.9509 0.0348 0.3074
vn 0.7187 -0.4688 0.5136
vn 0.6773 -0.4968 0.5426
vn 0.9509 0.0348 0.3075
vn 0.9695 0.0989 0.2242
vn 0.9581 0.1933 0.2113
vn 0.7188 -0.4688 0.5135
vn 0.9695 0.0983 0.2245
vn 0.9509 0.0350 0.3076
vn 0.9582 0.1926 0.2116
vn 0.9668 0.2495 0.0549
vn 0.9496 -0.0377 0.3111
vn 0.9696 0.0983 0.2241
vn 0.9668 0.2496 0.0551
vn 0.9581 0.1931 0.2115
vn 0.9667 0.2499 0.0547
vn 0.9782 -0.0502 0.2017
vn 0.9497 -0.0379 0.3110
vn 0.9497 -0.0376 0.3110
vn 0.9782 -0.0500 0.2016
vn 0.9067 -0.2222 0.3585
vn 0.9782 -0.0502 0.2015
vn 0.9103 -0.2908 0.2947
vn 0.9066 -0.2223 0.3587
vn 0.9067 -0.2221 0.3585
vn 0.9101 -0.2912 0.2948
vn 0.9123 -0.2160 0.3479
vn 0.9101 -0.2908 0.2952
vn 0.8334 -0.3887 0.3929
vn 0.9122 -0.2160 0.3481
vn 0.8809 0.4661 -0.0826
vn 0.8118 0.5482 -0.2012
vn 0.9503 0.3044 -0.0654
vn 0.9250 0.3635 -0.1102
vn 0.9942 -0.0522 0.0944
vn 0.8121 0.5477 -0.2013
vn 0.9250 0.3636 -0.1103
vn 0.9941 -0.0522 0.0948
vn 0.9947 -0.0133 0.1021
vn 0.9810 -0.0964 0.1682
vn 0.9251 0.3633 -0.1105
vn 0.9947 -0.0136 0.1021
vn 0.9942 -0.0518 0.0945
vn 0.9947 -0.0135 0.1018
vn 0.9850 -0.1311 0.1122
vn 0.9811 -0.0965 0.1679
vn 0.9811 -0.0967 0.1679
vn 0.9851 -0.1309 0.1119
vn 0.9567 0.2868 0.0505
vn 0.9819 0.1202 0.1462
vn 0.7504 0.6439 -0.1493
vn 0.9850 -0.1310 0.1123
vn 0.9819 0.1198 0.1466
vn 0.9566 0.2868 0.0508
vn 0.7505 0.6439 -0.1492
vn 0.7855 0.6123 -0.0902
vn 0.8984 0.4371 -0.0437
vn 0.9820 0.1198 0.1462
vn 0.7851 0.6127 -0.0902
vn 0.7502 0.6442 -0.1491
vn 0.8983 0.4371 -0.0440
vn 0.8855 0.4562 0.0881
vn 0.8438 -0.3519 0.4052
vn 0.8853 0.4566 0.0879
vn 0.8984 0.4371 -0.0435
vn 0.8853 0.4567 0.0880
vn 0.8101 -0.2783 0.5160
vn 0.8439 -0.3518 0.4051
vn 0.8440 -0.3519 0.4048
vn 0.8102 -0.2785 0.5158
vn 0.3684 -0.7504 0.5487
vn 0.3689 -0.7503 0.5486
vn 0.4422 -0.7180 0.5375
vn 0.2545 -0.7742 0.5796
vn 0.8101 -0.2784 0.5160
vn 0.4417 -0.7181 0.5378
vn 0.3684 -0.7503 0.5490
vn 0.2544 -0.7741 0.5797
vn 0.3480 -0.7957 0.4957
vn 0.7186 -0.4689 0.5136
vn 0.3480 -0.7958 0.4956
vn 0.2545 -0.7740 0.5798
vn 0.3480 -0.7957 0.4958
vn 0.7927 -0.4628 0.3968
vn 0.7186 -0.4691 0.5134
vn 0.7188 -0.4689 0.5133
vn 0.7926 -0.4630 0.3967
vn 0.9695 0.0985 0.2243
vn 0.7927 -0.4630 0.3965
vn 0.9897 0.1221 0.0750
vn 0.9696 0.0985 0.2241
vn 0.9695 0.0984 0.2244
vn 0.9897 0.1224 0.0748
vn 0.9667 0.2499 0.0552
vn 0.9897 0.1221 0.0747
vn 0.9765 0.2076 0.0584
vn 0.9668 0.2497 0.0551
vn 0.9668 0.2495 0.0551
vn 0.9765 0.2076 0.0581
vn 0.9782 -0.0504 0.2014
vn 0.9782 -0.0501 0.2016
vn 0.9771 -0.0580 0.2045
vn 0.9103 -0.2907 0.2949
vn 0.9764 0.2078 0.0580
vn 0.9772 -0.0583 0.2044
vn 0.9782 -0.0501 0.2015
vn 0.9103 -0.2907 0.2946
vn 0.9079 -0.2993 0.2936
vn 0.9772 -0.0582 0.2043
vn 0.9079 -0.2989 0.2937
vn 0.9079 -0.2992 0.2937
vn 0.7961 -0.4567 0.3970
vn 0.8333 -0.3890 0.3928
vt 0.587540 0.039860
vt 0.587540 0.087650
vt 0.627160 0.087650
vt 0.627160 0.135470
vt 0.587540 0.135470
vt 0.587540 0.183290
vt 0.627160 0.183290
vt 0.627160 0.231090
vt 0.587540 0.231090
vt 0.587540 0.278910
vt 0.627160 0.278910
vt 0.627160 0.326730
vt 0.587540 0.326730
vt 0.587540 0.374550
vt 0.627160 0.374550
vt 0.627160 0.422350
vt 0.587540 0.422350
vt 0.587540 0.470170
vt 0.627160 0.470170
vt 0.627160 0.517990
vt 0.587540 0.517990
vt 0.587540 0.565810
vt 0.627160 0.565810
vt 0.627160 0.613610
vt 0.587540 0.613610
vt 0.587540 0.661430
vt 0.627160 0.661430
vt 0.627160 0.709250
vt 0.587540 0.709250
vt 0.587540 0.757040
vt 0.627160 0.757040
vt 0.547960 0.039860
vt 0.547960 0.087650
vt 0.547960 0.135470
vt 0.547960 0.183290
vt 0.547960 0.231090
vt 0.547960 0.278910
vt 0.547960 0.326730
vt 0.547960 0.374550
vt 0.547960 0.422350
vt 0.547960 0.470170
vt 0.547960 0.517990
vt 0.547960 0.565810
vt 0.547960 0.613610
vt 0.547960 0.661430
vt 0.547960 0.709250
vt 0.547960 0.757040
vt 0.508350 0.039860
vt 0.508350 0.087650
vt 0.508350 0.135470
vt 0.508350 0.183290
vt 0.508350 0.231090
vt 0.508350 0.278910
vt 0.508350 0.326730
vt 0.508350 0.374550
vt 0.508350 0.422350
vt 0.508350 0.470170
vt 0.508350 0.517990
vt 0.508350 0.565810
vt 0.508350 0.613610
vt 0.508350 0.661430
vt 0.508350 0.709250
vt 0.508350 0.757040
vt 0.468730 0.039860
vt 0.468730 0.087650
vt 0.468730 0.135470
vt 0.468730 0.183290
vt 0.468730 0.231090
vt 0.468730 0.278910
vt 0.468730 0.326730
vt 0.468730 0.374550
vt 0.468730 0.422350
vt 0.468730 0.470170
vt 0.468730 0.517990
vt 0.468730 0.565810
vt 0.468730 0.613610
vt 0.468730 0.661430
vt 0.468730 0.709250
vt 0.468730 0.757040
vt 0.429120 0.039860
vt 0.429120 0.087650
vt 0.429120 0.135470
vt 0.429120 0.183290
vt 0.429120 0.231090
vt 0.429120 0.278910
vt 0.429120 0.326730
vt 0.429120 0.374550
vt 0.429120 0.422350
vt 0.429120 0.470170
vt 0.429120 0.517990
vt 0.429120 0.565810
vt 0.429120 0.613610
vt 0.429120 0.661430
vt 0.429120 0.709250
vt 0.429120 0.757040
vt 0.389510 0.039860
vt 0.389510 0.087650
vt 0.389510 0.135470
vt 0.389510 0.183290
vt 0.389510 0.231090
vt 0.389510 0.278910
vt 0.389510 0.326730
vt 0.389510 0.374550
vt 0.389510 0.422350
vt 0.389510 0.470170
vt 0.389510 0.517990
vt 0.389510 0.565810
vt 0.389510 0.613610
vt 0.389510 0.661430
vt 0.389510 0.709250
vt 0.389510 0.757040
vt 0.349900 0.039860
vt 0.349900 0.087650
vt 0.349900 0.135470
vt 0.349900 0.183290
vt 0.349900 0.231090
vt 0.349900 0.278910
vt 0.349900 0.326730
vt 0.349900 0.374550
vt 0.349900 0.422350
vt 0.349900 0.470170
vt 0.349900 0.517990
vt 0.349900 0.565810
vt 0.349900 0.613610
vt 0.349900 0.661430
vt 0.349900 0.709250
vt 0.349900 0.757040
vt 0.310280 0.039860
vt 0.310280 0.087650
vt 0.310280 0.135470
vt 0.310280 0.183290
vt 0.310280 0.231090
vt 0.310280 0.278910
vt 0.310280 0.326730
vt 0.310280 0.374550
vt 0.310280 0.422350
vt 0.310280 0.470170
vt 0.310280 0.517990
vt 0.310280 0.565810
vt 0.310280 0.613610
vt 0.310280 0.661430
vt 0.310280 0.709250
vt 0.310280 0.757040
vt 0.270670 0.039860
vt 0.270670 0.087650
vt 0.270670 0.135470
vt 0.270670 0.183290
vt 0.270670 0.231090
vt 0.270670 0.278910
vt 0.270670 0.326730
vt 0.270670 0.374550
vt 0.270670 0.422350
vt 0.270670 0.470170
vt 0.270670 0.517990
vt 0.270670 0.565810
vt 0.270670 0.613610
vt 0.270670 0.661430
vt 0.270670 0.709250
vt 0.270670 0.757040
vt 0.231060 0.039860
vt 0.231060 0.087650
vt 0.231060 0.135470
vt 0.231060 0.183290
vt 0.231060 0.231090
vt 0.231060 0.278910
vt 0.231060 0.326730
vt 0.231060 0.374550
vt 0.231060 0.422350
vt 0.231060 0.470170
vt 0.231060 0.517990
vt 0.231060 0.565810
vt 0.231060 0.613610
vt 0.231060 0.661430
vt 0.231060 0.709250
vt 0.231060 0.757040
vt 0.191440 0.039860
vt 0.191440 0.087650
vt 0.191440 0.135470
vt 0.191440 0.183290
vt 0.191440 0.231090
vt 0.191440 0.278910
vt 0.191440 0.326730
vt 0.191440 0.374550
vt 0.191440 0.422350
vt 0.191440 0.470170
vt 0.191440 0.517990
vt 0.191440 0.565810
vt 0.191440 0.613610
vt 0.191440 0.661430
vt 0.191440 0.709250
vt 0.191440 0.757040
vt 0.151830 0.039860
vt 0.151830 0.087650
vt 0.151830 0.135470
vt 0.151830 0.183290
vt 0.151830 0.231090
vt 0.151830 0.278910
vt 0.151830 0.326730
vt 0.151830 0.374550
vt 0.151830 0.422350
vt 0.151830 0.470170
vt 0.151830 0.517990
vt 0.151830 0.565810
vt 0.151830 0.613610
vt 0.151830 0.661430
vt 0.151830 0.709250
vt 0.151830 0.757040
vt 0.112220 0.039860
vt 0.112220 0.087650
vt 0.112220 0.135470
vt 0.112220 0.183290
vt 0.112220 0.231090
vt 0.112220 0.278910
vt 0.112220 0.326730
vt 0.112220 0.374550
vt 0.112220 0.422350
vt 0.112220 0.470170
vt 0.112220 0.517990
vt 0.112220 0.565810
vt 0.112220 0.613610
vt 0.112220 0.661430
vt 0.112220 0.709250
vt 0.112220 0.757040
vt 0.072630 0.039860
vt 0.072630 0.087650
vt 0.072630 0.135470
vt 0.072630 0.183290
vt 0.072630 0.231090
vt 0.072630 0.278910
vt 0.072630 0.326730
vt 0.072630 0.374550
vt 0.072630 0.422350
vt 0.072630 0.470170
vt 0.072630 0.517990
vt 0.072630 0.565810
vt 0.072630 0.613610
vt 0.072630 0.661430
vt 0.072630 0.709250
vt 0.072630 0.757040
vt 0.033020 0.039860
vt 0.033020 0.087650
vt 0.033020 0.135470
vt 0.033020 0.183290
vt 0.033020 0.231090
vt 0.033020 0.278910
vt 0.033020 0.326730
vt 0.033020 0.374550
vt 0.033020 0.422350
vt 0.033020 0.470170
vt 0.033020 0.517990
vt 0.033020 0.565810
vt 0.033020 0.613610
vt 0.033020 0.661430
vt 0.033020 0.709250
vt 0.033020 0.757040
s 0
usemtl mat0.1082
f 1/1/1 2/2/2 3/3/3
f 3/3/4 2/2/5 4/4/6
f 2/2/7 5/5/8 4/4/9
f 5/5/8 6/6/10 7/7/11
f 7/7/12 6/6/13 8/8/14
f 6/6/15 9/9/16 8/8/17
f 9/9/18 10/10/19 11/11/20
f 11/11/14 10/10/21 12/12/22
f 10/10/23 13/13/24 12/12/25
f 13/13/26 14/14/27 15/15/28
f 15/15/29 14/14/30 16/16/31
f 14/14/32 17/17/33 16/16/34
f 17/17/35 18/18/36 19/19/37
f 19/19/38 18/18/39 20/20/40
f 18/18/41 21/21/42 20/20/43
f 21/21/44 22/22/45 23/23/43
f 23/23/46 22/22/47 24/24/48
f 22/22/45 25/25/49 24/24/50
f 25/25/51 26/26/52 27/27/53
f 27/27/54 26/26/55 28/28/56
f 26/26/57 29/29/58 28/28/59
f 29/29/60 30/30/61 31/31/62
f 1/1/63 32/32/64 2/2/65
f 2/2/66 33/33/67 5/5/68
f 32/32/69 33/33/70 2/2/71
f 33/33/72 34/34/73 5/5/74
f 5/5/75 34/34/76 6/6/77
f 6/6/78 35/35/79 9/9/80
f 34/34/81 35/35/82 6/6/77
f 9/9/83 36/36/84 10/10/85
f 35/35/86 36/36/84 9/9/87
f 36/36/88 37/37/89 10/10/90
f 10/10/91 37/37/92 13/13/93
f 13/13/94 38/38/95 14/14/96
f 37/37/92 38/38/97 13/13/98
f 14/14/99 39/39/100 17/17/101
f 38/38/102 39/39/103 14/14/104
f 17/17/105 40/40/106 18/18/107
f 39/39/108 40/40/109 17/17/110
f 18/18/111 41/41/112 21/21/113
f 40/40/114 41/41/115 18/18/116
f 41/41/117 42/42/118 21/21/113
f 21/21/119 42/42/120 22/22/121
f 22/22/122 43/43/123 25/25/124
f 42/42/125 43/43/126 22/22/127
f 25/25/128 44/44/129 26/26/130
f 43/43/123 44/44/131 25/25/132
f 44/44/133 45/45/134 26/26/135
f 26/26/136 45/45/137 29/29/138
f 29/29/139 46/46/140 30/30/141
f 45/45/142 46/46/143 29/29/144
f 46/46/145 47/47/146 30/30/147
f 32/32/148 48/48/149 33/33/150
f 48/48/151 49/49/152 33/33/153
f 33/33/154 49/49/155 34/34/76
f 34/34/156 50/50/157 35/35/158
f 49/49/159 50/50/160 34/34/73
f 50/50/157 51/51/161 35/35/162
f 35/35/163 51/51/164 36/36/165
f 51/51/166 52/52/167 36/36/168
f 36/36/84 52/52/169 37/37/170
f 52/52/171 53/53/172 37/37/173
f 37/37/174 53/53/175 38/38/176
f 53/53/177 54/54/178 38/38/179
f 38/38/180 54/54/181 39/39/182
f 39/39/183 55/55/184 40/40/185
f 54/54/186 55/55/187 39/39/188
f 55/55/189 56/56/190 40/40/191
f 40/40/192 56/56/193 41/41/194
f 56/56/195 57/57/196 41/41/197
f 41/41/198 57/57/199 42/42/200
f 57/57/201 58/58/202 42/42/203
f 42/42/204 58/58/205 43/43/206
f 58/58/207 59/59/208 43/43/206
f 43/43/206 59/59/208 44/44/209
f 59/59/210 60/60/211 44/44/212
f 44/44/131 60/60/213 45/45/214
f 60/60/215 61/61/216 45/45/217
f 45/45/218 61/61/219 46/46/220
f 61/61/221 62/62/222 46/46/223
f 46/46/224 62/62/225 47/47/226
f 62/62/227 63/63/228 47/47/226
f 48/48/229 64/64/230 49/49/231
f 64/64/232 65/65/233 49/49/234
f 49/49/235 65/65/236 50/50/237
f 50/50/237 66/66/238 51/51/239
f 65/65/240 66/66/241 50/50/242
f 66/66/243 67/67/244 51/51/245
f 51/51/161 67/67/246 52/52/247
f 52/52/248 68/68/249 53/53/250
f 67/67/251 68/68/252 52/52/253
f 68/68/249 69/69/254 53/53/255
f 53/53/256 69/69/257 54/54/258
f 54/54/186 70/70/259 55/55/260
f 69/69/261 70/70/262 54/54/263
f 70/70/259 71/71/264 55/55/265
f 55/55/189 71/71/266 56/56/267
f 71/71/268 72/72/269 56/56/270
f 56/56/271 72/72/272 57/57/273
f 57/57/199 73/73/274 58/58/205
f 72/72/275 73/73/276 57/57/273
f 58/58/207 74/74/277 59/59/278
f 73/73/279 74/74/280 58/58/281
f 74/74/282 75/75/283 59/59/284
f 59/59/285 75/75/286 60/60/287
f 60/60/288 76/76/289 61/61/290
f 75/75/291 76/76/292 60/60/293
f 76/76/294 77/77/295 61/61/221
f 61/61/296 77/77/297 62/62/298
f 77/77/299 78/78/300 62/62/301
f 62/62/302 78/78/303 63/63/304
f 78/78/305 79/79/306 63/63/307
f 64/64/308 80/80/309 65/65/240
f 80/80/310 81/81/311 65/65/312
f 65/65/313 81/81/314 66/66/315
f 66/66/316 82/82/317 67/67/318
f 81/81/319 82/82/320 66/66/321
f 67/67/322 83/83/323 68/68/324
f 82/82/325 83/83/326 67/67/244
f 68/68/327 84/84/328 69/69/329
f 83/83/330 84/84/331 68/68/332
f 84/84/333 85/85/334 69/69/335
f 69/69/336 85/85/337 70/70/262
f 85/85/338 86/86/339 70/70/340
f 70/70/341 86/86/342 71/71/343
f 71/71/344 87/87/345 72/72/346
f 86/86/342 87/87/347 71/71/348
f 87/87/345 88/88/349 72/72/269
f 72/72/350 88/88/351 73/73/352
f 73/73/353 89/89/354 74/74/355
f 88/88/356 89/89/357 73/73/352
f 89/89/358 90/90/359 74/74/360
f 74/74/361 90/90/362 75/75/291
f 75/75/363 91/91/364 76/76/365
f 90/90/366 91/91/367 75/75/368
f 91/91/369 92/92/370 76/76/371
f 76/76/372 92/92/373 77/77/374
f 77/77/375 93/93/376 78/78/377
f 92/92/378 93/93/379 77/77/295
f 78/78/380 94/94/381 79/79/382
f 93/93/383 94/94/384 78/78/385
f 94/94/386 95/95/387 79/79/388
f 80/80/389 96/96/390 81/81/391
f 96/96/392 97/97/393 81/81/311
f 81/81/394 97/97/395 82/82/396
f 82/82/397 98/98/398 83/83/399
f 97/97/400 98/98/401 82/82/402
f 83/83/403 99/99/404 84/84/405
f 98/98/406 99/99/407 83/83/408
f 84/84/409 100/100/410 85/85/411
f 99/99/412 100/100/413 84/84/414
f 100/100/415 101/101/416 85/85/334
f 85/85/417 101/101/418 86/86/419
f 101/101/420 102/102/421 86/86/422
f 86/86/339 102/102/423 87/87/424
f 87/87/347 103/103/425 88/88/426
f 102/102/427 103/103/428 87/87/429
f 88/88/430 104/104/431 89/89/432
f 103/103/433 104/104/434 88/88/349
f 104/104/435 105/105/436 89/89/432
f 89/89/437 105/105/438 90/90/366
f 105/105/439 106/106/440 90/90/441
f 90/90/442 106/106/443 91/91/369
f 106/106/444 107/107/445 91/91/446
f 91/91/447 107/107/448 92/92/449
f 92/92/450 108/108/451 93/93/452
f 107/107/453 108/108/454 92/92/455
f 108/108/456 109/109/457 93/93/458
f 93/93/459 109/109/460 94/94/461
f 94/94/462 110/110/463 95/95/464
f 109/109/465 110/110/466 94/94/467
f 110/110/468 111/111/469 95/95/470
f 96/96/471 112/112/472 97/97/473
f 112/112/474 113/113/475 97/97/476
f 97/97/477 113/113/478 98/98/479
f 113/113/480 114/114/481 98/98/482
f 98/98/483 114/114/484 99/99/485
f 114/114/486 115/115/487 99/99/488
f 99/99/489 115/115/490 100/100/491
f 115/115/490 116/116/492 100/100/493
f 100/100/494 116/116/492 101/101/495
f 101/101/496 117/117/497 102/102/498
f 116/116/499 117/117/500 101/101/501
f 102/102/421 118/118/502 103/103/503
f 117/117/504 118/118/505 102/102/506
f 103/103/507 119/119/508 104/104/509
f 118/118/510 119/119/511 103/103/428
f 104/104/512 120/120/513 105/105/514
f 119/119/511 120/120/515 104/104/516
f 105/105/517 121/121/518 106/106/519
f 120/120/520 121/121/521 105/105/514
f 106/106/519 122/122/522 107/107/523
f 121/121/524 122/122/525 106/106/526
f 107/107/527 123/123/528 108/108/529
f 122/122/530 123/123/531 107/107/532
f 123/123/533 124/124/534 108/108/535
f 108/108/536 124/124/537 109/109/538
f 109/109/539 125/125/540 110/110/541
f 124/124/542 125/125/543 109/109/544
f 125/125/545 126/126/546 110/110/547
f 110/110/548 126/126/549 111/111/550
f 126/126/551 127/127/552 111/111/553
f 112/112/554 128/128/555 113/113/556
f 128/128/557 129/129/558 113/113/559
f 113/113/480 129/129/560 114/114/484
f 114/114/561 130/130/562 115/115/563
f 129/129/564 130/130/565 114/114/566
f 130/130/567 131/131/568 115/115/569
f 115/115/490 131/131/570 116/116/492
f 131/131/571 132/132/572 116/116/573
f 116/116/499 132/132/574 117/117/575
f 117/117/504 133/133/576 118/118/577
f 132/132/578 133/133/579 117/117/580
f 118/118/581 134/134/582 119/119/583
f 133/133/584 134/134/585 118/118/505
f 119/119/586 135/135/587 120/120/588
f 134/134/589 135/135/590 119/119/591
f 120/120/592 136/136/593 121/121/594
f 135/135/595 136/136/596 120/120/597
f 136/136/598 137/137/599 121/121/600
f 121/121/601 137/137/602 122/122/603
f 122/122/604 138/138/605 123/123/606
f 137/137/607 138/138/608 122/122/609
f 138/138/610 139/139/611 123/123/612
f 123/123/613 139/139/614 124/124/615
f 124/124/616 140/140/617 125/125/618
f 139/139/619 140/140/620 124/124/621
f 140/140/622 141/141/623 125/125/624
f 125/125/625 141/141/626 126/126/627
f 126/126/628 142/142/629 127/127/630
f 141/141/631 142/142/632 126/126/549
f 142/142/633 143/143/634 127/127/635
f 128/128/555 144/144/636 129/129/637
f 144/144/638 145/145/639 129/129/640
f 129/129/641 145/145/642 130/130/567
f 145/145/643 146/146/644 130/130/562
f 130/130/645 146/146/646 131/131/647
f 146/146/648 147/147/649 131/131/650
f 131/131/651 147/147/652 132/132/653
f 132/132/654 148/148/655 133/133/656
f 147/147/657 148/148/658 132/132/659
f 148/148/660 149/149/661 133/133/662
f 133/133/663 149/149/664 134/134/665
f 149/149/666 150/150/667 134/134/665
f 134/134/668 150/150/669 135/135/670
f 150/150/671 151/151/672 135/135/673
f 135/135/673 151/151/674 136/136/596
f 136/136/675 152/152/676 137/137/677
f 151/151/678 152/152/679 136/136/680
f 152/152/676 153/153/681 137/137/682
f 137/137/683 153/153/684 138/138/685
f 138/138/686 154/154/687 139/139/688
f 153/153/689 154/154/690 138/138/691
f 154/154/692 155/155/693 139/139/694
f 139/139/695 155/155/696 140/140/697
f 140/140/698 156/156/699 141/141/700
f 155/155/701 156/156/702 140/140/703
f 141/141/704 157/157/705 142/142/706
f 156/156/707 157/157/708 141/141/709
f 157/157/710 158/158/711 142/142/712
f 142/142/712 158/158/713 143/143/714
f 158/158/715 159/159/716 143/143/714
f 144/144/717 160/160/718 145/145/719
f 160/160/720 161/161/721 145/145/642
f 145/145/722 161/161/723 146/146/644
f 146/146/724 162/162/725 147/147/726
f 161/161/727 162/162/728 146/146/729
f 147/147/730 163/163/731 148/148/655
f 162/162/728 163/163/732 147/147/733
f 163/163/731 164/164/734 148/148/735
f 148/148/736 164/164/737 149/149/738
f 164/164/739 165/165/740 149/149/738
f 149/149/741 165/165/742 150/150/743
f 165/165/744 166/166/745 150/150/746
f 150/150/747 166/166/748 151/151/749
f 151/151/750 167/167/751 152/152/752
f 166/166/753 167/167/754 151/151/678
f 152/152/679 168/168/755 153/153/756
f 167/167/757 168/168/758 152/152/759
f 168/168/755 169/169/760 153/153/761
f 153/153/762 169/169/763 154/154/764
f 154/154/765 170/170/766 155/155/693
f 169/169/767 170/170/768 154/154/769
f 155/155/693 171/171/770 156/156/771
f 170/170/772 171/171/773 155/155/774
f 171/171/775 172/172/776 156/156/699
f 156/156/777 172/172/778 157/157/779
f 157/157/780 173/173/781 158/158/782
f 172/172/783 173/173/784 157/157/785
f 173/173/786 174/174/787 158/158/711
f 158/158/788 174/174/789 159/159/790
f 174/174/791 175/175/792 159/159/790
f 160/160/793 176/176/794 161/161/795
f 161/161/721 177/177/796 162/162/797
f 176/176/798 177/177/799 161/161/800
f 177/177/799 178/178/801 162/162/802
f 162/162/803 178/178/804 163/163/732
f 163/163/805 179/179/806 164/164/807
f 178/178/808 179/179/809 163/163/810
f 179/179/811 180/180/812 164/164/813
f 164/164/814 180/180/815 165/165/816
f 180/180/817 181/181/818 165/165/816
f 165/165/819 181/181/820 166/166/821
f 181/181/822 182/182/823 166/166/824
f 166/166/748 182/182/825 167/167/757
f 167/167/826 183/183/827 168/168/828
f 182/182/829 183/183/830 167/167/831
f 183/183/832 184/184/833 168/168/834
f 168/168/828 184/184/835 169/169/836
f 169/169/836 185/185/837 170/170/838
f 184/184/839 185/185/840 169/169/841
f 170/170/842 186/186/843 171/171/844
f 185/185/837 186/186/845 170/170/846
f 171/171/847 187/187/848 172/172/849
f 186/186/850 187/187/851 171/171/852
f 187/187/853 188/188/854 172/172/855
f 172/172/856 188/188/857 173/173/858
f 188/188/859 189/189/860 173/173/861
f 173/173/862 189/189/863 174/174/864
f 174/174/865 190/190/866 175/175/867
f 189/189/868 190/190/869 174/174/787
f 190/190/870 191/191/871 175/175/867
f 176/176/872 192/192/873 177/177/874
f 177/177/799 193/193/875 178/178/804
f 192/192/876 193/193/877 177/177/878
f 193/193/879 194/194/880 178/178/881
f 178/178/882 194/194/883 179/179/884
f 194/194/885 195/195/886 179/179/887
f 179/179/888 195/195/889 180/180/890
f 195/195/891 196/196/892 180/180/893
f 180/180/815 196/196/894 181/181/895
f 196/196/896 197/197/897 181/181/898
f 181/181/899 197/197/900 182/182/901
f 182/182/902 198/198/903 183/183/830
f 197/197/904 198/198/905 182/182/906
f 183/183/907 199/199/908 184/184/909
f 198/198/910 199/199/911 183/183/912
f 199/199/913 200/200/914 184/184/915
f 184/184/916 200/200/917 185/185/918
f 200/200/917 201/201/919 185/185/920
f 185/185/840 201/201/919 186/186/921
f 186/186/922 202/202/923 187/187/848
f 201/201/919 202/202/924 186/186/845
f 202/202/925 203/203/926 187/187/927
f 187/187/928 203/203/929 188/188/930
f 188/188/931 204/204/932 189/189/933
f 203/203/934 204/204/935 188/188/936
f 204/204/937 205/205/938 189/189/939
f 189/189/868 205/205/940 190/190/941
f 190/190/942 206/206/943 191/191/944
f 205/205/945 206/206/946 190/190/941
f 206/206/947 207/207/948 191/191/949
f 192/192/950 208/208/951 193/193/875
f 193/193/952 209/209/953 194/194/954
f 208/208/955 209/209/956 193/193/957
f 194/194/958 210/210/959 195/195/960
f 209/209/953 210/210/961 194/194/962
f 195/195/963 211/211/964 196/196/965
f 210/210/966 211/211/967 195/195/968
f 196/196/969 212/212/970 197/197/971
f 211/211/972 212/212/973 196/196/965
f 197/197/974 213/213/975 198/198/976
f 212/212/977 213/213/978 197/197/900
f 198/198/979 214/214/980 199/199/981
f 213/213/982 214/214/983 198/198/984
f 199/199/985 215/215/986 200/200/987
f 214/214/988 215/215/989 199/199/981
f 215/215/990 216/216/991 200/200/992
f 200/200/993 216/216/994 201/201/995
f 216/216/991 217/217/996 201/201/995
f 201/201/997 217/217/998 202/202/999
f 202/202/1000 218/218/1001 203/203/1002
f 217/217/1003 218/218/1004 202/202/999
f 203/203/1005 219/219/1006 204/204/1007
f 218/218/1008 219/219/1009 203/203/929
f 204/204/1010 220/220/1011 205/205/1012
f 219/219/1013 220/220/1014 204/204/1015
f 220/220/1016 221/221/1017 205/205/945
f 205/205/1018 221/221/1019 206/206/1020
f 221/221/1021 222/222/1022 206/206/1023
f 206/206/1024 222/222/1025 207/207/1026
f 222/222/1027 223/223/1028 207/207/1029
f 208/208/1030 224/224/1031 209/209/953
f 224/224/1032 225/225/1033 209/209/1034
f 209/209/1035 225/225/1036 210/210/1037
f 210/210/1038 226/226/1039 211/211/1040
f 225/225/1041 226/226/1042 210/210/1043
f 226/226/1044 227/227/1045 211/211/1046
f 211/211/1047 227/227/1048 212/212/1049
f 227/227/1050 228/228/1051 212/212/1052
f 212/212/1049 228/228/1053 213/213/982
f 228/228/1054 229/229/1055 213/213/1056
f 213/213/1057 229/229/1058 214/214/1059
f 214/214/1060 230/230/1061 215/215/986
f 229/229/1062 230/230/1063 214/214/1064
f 230/230/1063 231/231/1065 215/215/1066
f 215/215/1067 231/231/1068 216/216/1069
f 231/231/1070 232/232/1071 216/216/1072
f 216/216/1073 232/232/1074 217/217/1075
f 232/232/1076 233/233/1077 217/217/1003
f 217/217/1078 233/233/1079 218/218/1080
f 218/218/1008 234/234/1081 219/219/1082
f 233/233/1077 234/234/1083 218/218/1084
f 219/219/1085 235/235/1086 220/220/1087
f 234/234/1088 235/235/1089 219/219/1090
f 220/220/1091 236/236/1092 221/221/1093
f 235/235/1094 236/236/1095 220/220/1096
f 236/236/1097 237/237/1098 221/221/1099
f 221/221/1100 237/237/1101 222/222/1102
f 237/237/1103 238/238/1104 222/222/1105
f 222/222/1106 238/238/1107 223/223/1108
f 238/238/1109 239/239/1110 223/223/1111
f 224/224/1112 240/240/1113 225/225/1041
f 225/225/1114 241/241/1115 226/226/1116
f 240/240/1117 241/241/1118 225/225/1041
f 226/226/1119 242/242/1120 227/227/1121
f 241/241/1122 242/242/1123 226/226/1124
f 242/242/1125 243/243/1126 227/227/1127
f 227/227/1128 243/243/1129 228/228/1054
f 228/228/1130 244/244/1131 229/229/1132
f 243/243/1133 244/244/1134 228/228/1135
f 229/229/1136 245/245/1137 230/230/1138
f 244/244/1139 245/245/1140 229/229/1141
f 230/230/1142 246/246/1143 231/231/1144
f 245/245/1137 246/246/1145 230/230/1146
f 246/246/1147 247/247/1148 231/231/1149
f 231/231/1150 247/247/1151 232/232/1152
f 232/232/1153 248/248/1154 233/233/1155
f 247/247/1156 248/248/1157 232/232/1158
f 233/233/1159 249/249/1160 234/234/1161
f 248/248/1154 249/249/1162 233/233/1163
f 249/249/1164 250/250/1165 234/234/1166
f 234/234/1167 250/250/1168 235/235/1169
f 250/250/1170 251/251/1171 235/235/1172
f 235/235/1173 251/251/1174 236/236/1175
f 251/251/1176 252/252/1177 236/236/1178
f 236/236/1179 252/252/1180 237/237/1181
f 237/237/1182 253/253/1183 238/238/1184
f 252/252/1185 253/253/1186 237/237/1187
f 238/238/1188 254/254/1189 239/239/1110
f 253/253/1190 254/254/1191 238/238/1184
f 254/254/1192 255/255/1193 239/239/1194
