# Blender 4.2.3 LTS
# www.blender.org
mtllib stamp.mtl
o dynamic
v 1059.527222 5953.831543 2312.529541
v 1049.557251 5950.007812 2325.797363
v 1059.139771 5922.001953 2348.640869
v 1035.741089 5949.466309 2338.836670
v 1021.779785 5952.354980 2348.153564
v 1435.219604 5694.246582 2266.141602
v 1424.532593 5706.746582 2261.713867
v 1393.910156 5713.006348 2282.234131
v 1415.865356 5721.323730 2253.134766
v 1411.540649 5734.072266 2242.702148
v 1015.522583 5944.541504 2341.199463
v 1029.599487 5941.797852 2332.010986
v 1052.421509 5913.663574 2341.176025
v 1043.415771 5942.338379 2318.971436
v 1053.270386 5946.018555 2305.575439
v 1405.283447 5726.259277 2235.748535
v 1409.723999 5713.654785 2246.309082
v 1387.236938 5704.640137 2274.760254
v 1418.391113 5699.078125 2254.888428
v 1428.962402 5686.434082 2259.187500
v 1403.855469 5636.844727 2358.856201
v 1373.479614 5712.207031 2301.515137
v 1314.894897 5786.465332 2270.796387
v 1324.389526 5706.849609 2351.705078
v 1237.020386 5848.314941 2271.375977
v 1214.615967 5782.541992 2365.433838
v 1151.711792 5888.340332 2303.166260
v 1100.819336 5846.422363 2396.053711
v 1071.955811 5900.446289 2361.326904
v 1009.895813 5882.791016 2437.004150
v 1401.397827 5571.851562 2434.089355
v 1310.575928 5628.550781 2452.104980
v 1188.188477 5704.957031 2476.382812
v 1065.801025 5781.362305 2500.660400
v 974.979065 5838.062012 2518.676025
v 1366.481445 5527.122559 2515.761475
v 1275.557495 5563.490723 2556.711914
v 1161.761230 5627.371582 2587.331543
v 1051.987671 5703.063965 2601.060303
v 972.521362 5773.068848 2593.909424
v 1304.421021 5509.467285 2591.438477
v 1224.665405 5521.573242 2649.599121
v 1139.356445 5561.598145 2681.389404
v 1061.481934 5623.447754 2681.968994
v 1002.897400 5697.706055 2651.250244
v 1217.215210 5512.270508 2641.319092
v 1131.906372 5552.294922 2673.109375
v 1125.580078 5552.037598 2642.026123
v 1202.975098 5515.726562 2613.185059
v 1064.505859 5891.143066 2353.047119
v 1144.261475 5879.037109 2294.886230
v 1136.788696 5848.468750 2298.889160
v 1064.432007 5859.452148 2351.654785
v 1296.971069 5500.164062 2583.158447
v 1275.332031 5504.743164 2560.419434
v 1002.445496 5873.488770 2428.724121
v 1008.128845 5843.435059 2420.311279
v 1359.030884 5517.819824 2507.481445
v 1331.635010 5520.760254 2491.762939
v 967.528748 5828.758789 2510.395996
v 976.451233 5802.854980 2494.406982
v 1396.405151 5627.541992 2350.575928
v 1393.947754 5562.548340 2425.809326
v 1363.312500 5561.340332 2417.667236
v 1365.541992 5620.304199 2349.413330
v 965.071045 5763.766113 2585.628906
v 974.221436 5743.891602 2562.661133
v 1366.029297 5702.904297 2293.235107
v 1337.984131 5688.675293 2297.391602
v 995.447083 5688.403320 2642.969971
v 1001.779602 5675.520020 2614.682617
v 1307.444946 5777.163086 2262.516357
v 1284.834351 5756.045410 2269.522217
v 1054.031616 5614.145020 2673.689209
v 1054.929688 5608.149902 2642.551758
v 1229.570068 5839.012695 2263.095947
v 1214.183716 5812.157715 2270.048340
v 972.521362 5773.068848 2593.909424
v 974.979065 5838.062012 2518.676025
v 1401.397827 5571.851562 2434.089355
v 1366.481445 5527.122559 2515.761475
v 1403.855469 5636.844727 2358.856201
v 1009.895813 5882.791016 2437.004150
v 1304.421021 5509.467285 2591.438477
v 1224.665405 5521.573242 2649.599121
v 1139.356445 5561.598145 2681.389404
v 1151.711792 5888.340332 2303.166260
v 1237.020386 5848.314941 2271.375977
v 1229.570068 5839.012695 2263.095947
v 1144.261475 5879.037109 2294.886230
v 1061.481934 5623.447754 2681.968994
v 1314.894897 5786.465332 2270.796387
v 1307.444946 5777.163086 2262.516357
v 1002.897400 5697.706055 2651.250244
v 1319.916260 5634.713379 2374.276367
v 1298.784546 5687.141602 2334.385986
v 1019.847473 5729.481934 2537.797607
v 1040.979248 5677.054199 2577.688232
v 1258.028564 5738.801758 2313.015381
v 1081.735107 5625.393555 2599.058594
v 1203.853149 5781.829102 2313.418945
v 1135.910400 5582.366699 2598.655518
v 1144.505615 5809.673340 2335.534424
v 1195.258057 5554.522461 2576.540039
v 1089.021729 5818.095215 2375.995361
v 1250.742065 5546.100098 2536.078613
v 1045.847900 5805.812500 2428.642090
v 1293.915894 5558.382324 2483.431885
v 1021.557007 5774.695801 2485.459473
v 1318.206787 5589.499512 2426.614502
v 1053.664795 5692.894531 2591.787109
v 1094.421021 5641.233887 2613.157471
v 1216.538818 5797.669434 2327.517334
v 1157.191406 5825.514160 2349.632812
v 1032.533081 5745.322266 2551.896484
v 1101.707520 5833.936035 2390.093994
v 1034.242798 5790.536133 2499.558105
v 1058.533447 5821.653320 2442.741211
v 1306.601807 5574.222656 2497.530518
v 1330.892334 5605.339844 2440.713379
v 1263.427856 5561.940430 2550.177490
v 1332.601929 5650.553711 2388.375244
v 1207.943970 5570.362793 2590.638428
v 1311.470337 5702.981934 2348.484619
v 1148.596436 5598.206543 2612.754395
v 1270.714355 5754.642090 2327.114014
v 1332.601929 5650.553711 2388.375244
v 1277.319458 5699.254395 2383.400635
v 1270.714355 5754.642090 2327.114014
v 1311.470337 5702.981934 2348.484619
v 1200.952637 5751.912109 2392.951416
v 1216.538818 5797.669434 2327.517334
v 1121.786865 5796.352539 2414.252930
v 1157.191406 5825.514160 2349.632812
v 1058.533447 5821.653320 2442.741211
v 1101.707520 5833.936035 2390.093994
v 1330.892334 5605.339844 2440.713379
v 1267.709717 5644.784668 2453.246582
v 1182.567627 5697.937988 2470.135742
v 1097.425537 5751.091797 2487.025146
v 1034.242798 5790.536133 2499.558105
v 1306.601807 5574.222656 2497.530518
v 1243.348267 5599.523438 2526.018799
v 1164.182373 5643.963867 2547.320068
v 1087.815552 5696.621582 2556.871094
v 1032.533081 5745.322266 2551.896484
v 1263.427856 5561.940430 2550.177490
v 1207.943970 5570.362793 2590.638428
v 1148.596436 5598.206543 2612.754395
v 1094.421021 5641.233887 2613.157471
v 1053.664795 5692.894531 2591.787109
v 1402.796509 5790.324219 2187.369141
v 1411.540649 5734.072266 2242.702148
v 1395.661987 5781.416016 2179.439941
v 954.214539 5975.772461 2382.637207
v 1021.779785 5952.354980 2348.153564
v 947.080078 5966.863770 2374.708252
v 1403.855469 5636.844727 2358.856201
v 1396.405151 5627.541992 2350.575928
v 1482.401733 5614.488281 2287.864014
v 1489.852051 5623.791016 2296.144043
v 1059.527222 5953.831543 2312.529541
v 1096.806641 5981.352051 2248.066650
v 1089.672363 5972.443359 2240.137695
v 1435.219604 5694.246582 2266.141602
v 1492.244141 5639.883789 2275.910889
v 1485.109619 5630.975586 2267.981689
v 1002.445496 5873.488770 2428.724121
v 1009.895813 5882.791016 2437.004150
v 946.726440 5962.860840 2403.880859
v 939.276123 5953.558594 2395.600830
v 1381.811523 5805.502930 2189.197510
v 1374.361450 5796.199707 2180.917236
v 1151.711792 5888.340332 2303.166260
v 1144.261475 5879.037109 2294.886230
v 1111.508301 5960.297363 2233.057617
v 1118.958618 5969.600586 2241.338135
v 1491.154907 5615.423340 2279.082031
v 1498.562866 5624.673340 2287.314941
v 1492.146118 5621.458008 2271.804688
v 1499.438354 5630.563965 2279.909180
v 1415.865356 5721.323730 2253.134766
v 1424.532593 5706.746582 2261.713867
v 937.015320 5968.022949 2381.922852
v 944.307373 5977.128418 2390.027588
v 934.158997 5963.152832 2389.570557
v 941.566711 5972.402832 2397.803467
v 1049.557251 5950.007812 2325.797363
v 1035.741089 5949.466309 2338.836670
v 1105.387451 5969.852051 2227.974365
v 1112.795288 5979.103027 2236.207031
v 1097.394897 5974.298828 2230.565430
v 1104.687256 5983.403809 2238.670166
v 1391.540405 5790.665039 2172.217529
v 1398.832275 5799.770996 2180.321777
v 1383.743774 5796.076172 2172.758545
v 1391.151855 5805.326172 2180.991211
v 1366.029297 5702.904297 2293.235107
v 1064.505859 5891.143066 2353.047119
v 1381.811523 5805.502930 2189.197510
v 1398.832275 5799.770996 2180.321777
v 1391.151855 5805.326172 2180.991211
v 1402.796509 5790.324219 2187.369141
v 1104.687256 5983.403809 2238.670166
v 1118.958618 5969.600586 2241.338135
v 1112.795288 5979.103027 2236.207031
v 1096.806641 5981.352051 2248.066650
v 1151.711792 5888.340332 2303.166260
v 1071.955811 5900.446289 2361.326904
v 1492.244141 5639.883789 2275.910889
v 1499.438354 5630.563965 2279.909180
v 1498.562866 5624.673340 2287.314941
v 1489.852051 5623.791016 2296.144043
v 954.214539 5975.772461 2382.637207
v 944.307373 5977.128418 2390.027588
v 1009.895813 5882.791016 2437.004150
v 941.566711 5972.402832 2397.803467
v 946.726440 5962.860840 2403.880859
vn 0.5134 0.6410 0.5705
vn 0.5134 0.6410 0.5706
vn -0.5106 -0.6241 -0.5915
vn -0.5182 -0.6141 -0.5953
vn -0.5222 -0.6259 -0.5793
vn -0.5181 -0.6142 -0.5953
vn -0.5389 -0.6151 -0.5756
vn -0.5222 -0.6258 -0.5793
vn -0.5389 -0.6150 -0.5756
vn -0.5351 -0.6251 -0.5683
vn -0.5224 -0.6257 -0.5793
vn -0.4902 -0.6531 -0.5773
vn -0.4819 -0.6506 -0.5870
vn -0.4989 -0.6404 -0.5840
vn -0.4819 -0.6506 -0.5869
vn -0.4948 -0.6288 -0.5999
vn -0.4990 -0.6402 -0.5840
vn -0.4949 -0.6285 -0.6000
vn -0.5056 -0.6272 -0.5925
vn -0.4990 -0.6403 -0.5840
vn -0.2873 -0.9574 0.0279
vn -0.5101 -0.8529 0.1110
vn -0.5102 -0.8529 0.1109
vn -0.2874 -0.9574 0.0279
vn -0.6865 0.0335 -0.7263
vn -0.4782 0.0019 -0.8782
vn -0.4783 0.0017 -0.8782
vn -0.6866 0.0335 -0.7263
vn -0.4782 0.0019 -0.8783
vn -0.0787 -0.9891 -0.1242
vn -0.2871 -0.9575 0.0278
vn -0.2870 -0.9575 0.0276
vn -0.0787 -0.9891 -0.1243
vn -0.2870 -0.9575 0.0278
vn -0.8489 -0.0125 -0.5284
vn -0.6868 0.0334 -0.7261
vn -0.8489 -0.0126 -0.5284
vn -0.6868 0.0336 -0.7261
vn 0.0836 -0.9430 -0.3220
vn -0.0785 -0.9891 -0.1245
vn -0.0786 -0.9891 -0.1245
vn 0.0837 -0.9430 -0.3222
vn -0.9403 -0.1295 -0.3147
vn -0.8491 -0.0128 -0.5281
vn -0.8491 -0.0127 -0.5281
vn 0.1815 -0.6560 -0.7326
vn 0.1751 -0.8259 -0.5360
vn 0.1751 -0.8258 -0.5360
vn 0.1750 -0.8261 -0.5356
vn 0.0838 -0.9429 -0.3224
vn 0.0836 -0.9429 -0.3224
vn 0.1750 -0.8261 -0.5357
vn -0.9468 -0.2996 -0.1179
vn -0.9403 -0.1297 -0.3146
vn -0.9467 -0.2996 -0.1180
vn -0.9404 -0.1297 -0.3145
vn 0.1020 -0.4589 -0.8826
vn 0.1813 -0.6558 -0.7328
vn 0.1814 -0.6559 -0.7327
vn 0.1814 -0.6558 -0.7328
vn -0.8673 -0.4967 0.0320
vn -0.9467 -0.2998 -0.1176
vn -0.9467 -0.2999 -0.1177
vn -0.9467 -0.2998 -0.1177
vn -0.0510 -0.2649 -0.9629
vn 0.1019 -0.4587 -0.8827
vn -0.0511 -0.2647 -0.9630
vn 0.1021 -0.4587 -0.8827
vn -0.7142 -0.6908 0.1125
vn -0.8673 -0.4968 0.0321
vn -0.8672 -0.4969 0.0322
vn -0.7142 -0.6909 0.1124
vn -0.2547 -0.1029 -0.9615
vn -0.0514 -0.2646 -0.9630
vn -0.5105 -0.8527 0.1110
vn -0.7139 -0.6912 0.1125
vn -0.7140 -0.6911 0.1123
vn -0.5106 -0.8526 0.1111
vn -0.7140 -0.6911 0.1125
vn -0.4780 0.0018 -0.8784
vn -0.2552 -0.1028 -0.9614
vn -0.2552 -0.1027 -0.9614
vn -0.4779 0.0018 -0.8784
vn -0.2551 -0.1028 -0.9614
vn -0.8462 0.2674 0.4610
vn -0.8365 0.5222 0.1661
vn -0.8365 0.5222 0.1660
vn -0.8461 0.2674 0.4611
vn -0.8366 0.5221 0.1661
vn 0.8365 -0.5222 -0.1658
vn 0.6996 -0.6977 0.1544
vn 0.8365 -0.5223 -0.1657
vn 0.6996 -0.6977 0.1543
vn 0.8365 -0.5223 -0.1658
vn 0.8578 -0.4024 -0.3197
vn 0.8365 -0.5222 -0.1661
vn 0.8578 -0.4025 -0.3197
vn 0.8365 -0.5221 -0.1661
vn -0.8365 0.5223 0.1656
vn -0.7830 0.6219 0.0058
vn -0.8365 0.5223 0.1658
vn -0.7831 0.6219 0.0058
vn 0.6994 -0.6978 0.1547
vn 0.4561 -0.7670 0.4513
vn 0.6994 -0.6978 0.1546
vn 0.4562 -0.7670 0.4513
vn 0.4559 -0.7670 0.4516
vn 0.1434 -0.7195 0.6796
vn 0.4559 -0.7670 0.4515
vn 0.1434 -0.7196 0.6794
vn 0.1428 -0.7194 0.6798
vn -0.1914 -0.5626 0.8042
vn -0.1914 -0.5626 0.8043
vn 0.1429 -0.7195 0.6796
vn 0.0247 0.6535 -0.7565
vn 0.1914 0.5626 -0.8043
vn 0.1914 0.5624 -0.8044
vn 0.1913 0.5626 -0.8043
vn -0.1919 -0.5624 0.8043
vn -0.4968 -0.3200 0.8067
vn -0.1916 -0.5623 0.8044
vn -0.4969 -0.3200 0.8066
vn -0.1917 -0.5624 0.8043
vn 0.1917 0.5624 -0.8043
vn 0.3511 0.4498 -0.8212
vn 0.1918 0.5624 -0.8043
vn 0.3511 0.4497 -0.8213
vn 0.1917 0.5624 -0.8044
vn -0.4973 -0.3196 0.8066
vn -0.7269 -0.0287 0.6861
vn -0.7269 -0.0286 0.6861
vn -0.4973 -0.3196 0.8065
vn -0.7271 -0.0282 0.6859
vn -0.8461 0.2671 0.4612
vn -0.8462 0.2670 0.4612
vn -0.7270 -0.0282 0.6861
vn -0.7271 -0.0283 0.6860
vn -0.5134 -0.6410 -0.5706
vn -0.5134 -0.6410 -0.5705
vn 0.4973 0.3196 -0.8066
vn 0.7269 0.0287 -0.6861
vn 0.4974 0.3196 -0.8065
vn 0.7269 0.0286 -0.6862
vn 0.1429 -0.7194 0.6797
vn -0.1913 -0.5626 0.8043
vn -0.1915 -0.5626 0.8042
vn 0.1429 -0.7194 0.6798
vn 0.1429 -0.7195 0.6797
vn 0.7271 0.0283 -0.6860
vn 0.8461 -0.2671 -0.4613
vn 0.8461 -0.2670 -0.4613
vn 0.7271 0.0284 -0.6860
vn 0.7270 0.0284 -0.6860
vn 0.1434 -0.7195 0.6795
vn 0.1433 -0.7195 0.6795
vn 0.8462 -0.2675 -0.4609
vn 0.4560 -0.7671 0.4513
vn -0.8365 0.5224 0.1657
vn -0.6996 0.6977 -0.1542
vn -0.6997 0.6976 -0.1544
vn -0.8364 0.5224 0.1658
vn -0.6997 0.6976 -0.1542
vn 0.8364 -0.5224 -0.1657
vn 0.6997 -0.6976 0.1543
vn 0.8364 -0.5224 -0.1658
vn -0.6994 0.6978 -0.1547
vn -0.4561 0.7670 -0.4513
vn -0.4562 0.7669 -0.4513
vn -0.6994 0.6978 -0.1546
vn -0.4562 0.7670 -0.4513
vn -0.8462 0.2675 0.4609
vn -0.8365 0.5221 0.1661
vn -0.4559 0.7670 -0.4515
vn -0.1434 0.7195 -0.6795
vn -0.1433 0.7196 -0.6795
vn -0.8461 0.2671 0.4613
vn -0.7271 -0.0284 0.6860
vn -0.1429 0.7195 -0.6797
vn -0.1429 0.7195 -0.6796
vn -0.1429 0.7194 -0.6798
vn -0.7269 -0.0286 0.6862
vn -0.4973 -0.3195 0.8066
vn 0.4969 0.3200 -0.8066
vn 0.4968 0.3200 -0.8067
vn 0.1917 0.5623 -0.8044
vn 0.4968 0.3201 -0.8067
vn -0.1917 -0.5624 0.8044
vn -0.4969 -0.3202 0.8066
vn -0.4968 -0.3201 0.8067
vn -0.5133 -0.6410 -0.5706
vn 0.8305 -0.2037 -0.5185
vn 0.8385 -0.2333 -0.4924
vn 0.8387 -0.2339 -0.4918
vn 0.8305 -0.2037 -0.5184
vn 0.8387 -0.2338 -0.4919
vn 0.8301 -0.2024 -0.5196
vn -0.2161 0.7400 -0.6370
vn -0.1826 0.7312 -0.6573
vn -0.1818 0.7310 -0.6577
vn -0.2160 0.7399 -0.6371
vn -0.2175 0.7404 -0.6360
vn 0.3055 -0.7578 0.5766
vn 0.4034 -0.7671 0.4988
vn 0.3054 -0.7578 0.5766
vn 0.4033 -0.7671 0.4989
vn 0.4036 -0.7671 0.4987
vn -0.6754 0.7119 -0.1922
vn -0.6537 0.7229 -0.2240
vn -0.6528 0.7232 -0.2254
vn -0.6754 0.7120 -0.1922
vn -0.6527 0.7233 -0.2254
vn -0.6760 0.7116 -0.1913
vn 0.5293 0.2868 -0.7985
vn 0.5560 0.2580 -0.7901
vn 0.5572 0.2566 -0.7898
vn 0.5294 0.2868 -0.7985
vn 0.5572 0.2567 -0.7897
vn 0.5287 0.2874 -0.7987
vn -0.6240 -0.1775 0.7610
vn -0.6930 -0.0825 0.7162
vn -0.6929 -0.0826 0.7163
vn -0.5891 0.7467 -0.3089
vn -0.5062 0.7631 -0.4018
vn -0.5061 0.7631 -0.4019
vn 0.8019 -0.1217 -0.5849
vn 0.7574 -0.0260 -0.6525
vn 0.8020 -0.1217 -0.5848
vn 0.7574 -0.0257 -0.6525
vn 0.4038 -0.7671 0.4985
vn 0.4037 -0.7671 0.4986
vn 0.4956 -0.7642 0.4126
vn 0.4957 -0.7642 0.4126
vn 0.8532 -0.4527 -0.2591
vn 0.8532 -0.4526 -0.2591
vn 0.6338 0.1650 -0.7557
vn 0.5575 0.2565 -0.7896
vn 0.6338 0.1651 -0.7557
vn 0.5574 0.2564 -0.7897
vn 0.5561 0.2578 -0.7901
vn 0.8386 -0.2338 -0.4920
vn 0.8385 -0.2331 -0.4926
vn 0.7800 -0.0713 -0.6217
vn 0.7793 -0.0728 -0.6224
vn 0.7801 -0.0715 -0.6216
vn 0.7799 -0.0710 -0.6219
vn 0.6619 0.1276 -0.7387
vn 0.6618 0.1274 -0.7387
vn 0.6616 0.1278 -0.7389
vn 0.6614 0.1282 -0.7390
vn 0.6617 0.1277 -0.7389
vn 0.5295 0.2866 -0.7984
vn 0.6614 0.1281 -0.7390
vn 0.5296 0.2866 -0.7984
vn 0.5294 0.2880 -0.7980
vn -0.2164 0.7400 -0.6369
vn -0.2179 0.7404 -0.6358
vn -0.3188 0.7597 -0.5668
vn -0.2163 0.7400 -0.6369
vn -0.3188 0.7597 -0.5667
vn -0.8083 0.5846 0.0704
vn -0.7511 0.0142 0.6600
vn -0.6930 -0.0824 0.7162
vn -0.7512 0.0142 0.6600
vn -0.6932 -0.0822 0.7161
vn -0.6753 0.7120 -0.1923
vn -0.6753 0.7125 -0.1909
vn -0.5469 0.7568 -0.3581
vn -0.5469 0.7567 -0.3582
vn -0.5464 0.7568 -0.3587
vn -0.5463 0.7569 -0.3588
vn -0.5467 0.7568 -0.3584
vn -0.3578 0.7641 -0.5368
vn -0.5463 0.7568 -0.3588
vn -0.3577 0.7642 -0.5367
vn -0.3581 0.7642 -0.5364
vn -0.3578 0.7642 -0.5366
vn -0.3583 0.7631 -0.5378
vn -0.1820 0.7311 -0.6575
vn -0.3578 0.7643 -0.5365
vn -0.1827 0.7312 -0.6572
vn 0.7572 -0.0255 -0.6527
vn 0.7573 -0.0258 -0.6526
vn 0.7005 0.0710 -0.7101
vn 0.7006 0.0710 -0.7101
vn 0.0921 0.6198 -0.7793
vn 0.0920 0.6199 -0.7793
vn -0.5786 0.7496 -0.3215
vn -0.6525 0.7234 -0.2256
vn -0.5786 0.7496 -0.3216
vn -0.6525 0.7234 -0.2257
vn -0.6535 0.7229 -0.2242
vn 0.8305 -0.2035 -0.5185
vn 0.8300 -0.2022 -0.5198
vn 0.7968 -0.1091 -0.5944
vn 0.8305 -0.2036 -0.5185
vn 0.7968 -0.1090 -0.5944
vn 0.2885 0.4973 -0.8182
vn 0.2883 0.4973 -0.8183
vn -0.4149 0.7674 -0.4888
vn -0.5060 0.7631 -0.4020
vn -0.4150 0.7673 -0.4888
vn -0.5061 0.7631 -0.4020
vn -0.5060 0.7631 -0.4021
vn -0.5079 -0.6289 -0.5886
vn -0.4990 -0.6402 -0.5841
vn -0.4988 -0.6403 -0.5841
vn -0.5080 -0.6289 -0.5886
vn -0.5012 -0.6405 -0.5819
vn -0.5012 -0.6405 -0.5818
vn -0.5316 -0.6285 -0.5677
vn -0.5316 -0.6286 -0.5677
vn -0.5350 -0.6251 -0.5683
vn -0.5223 -0.6258 -0.5794
vn -0.5210 -0.6282 -0.5779
vn 0.5133 0.6410 0.5706
vn -0.4943 -0.6518 -0.5752
vn -0.4944 -0.6518 -0.5751
vn -0.4902 -0.6531 -0.5771
vn -0.4902 -0.6531 -0.5772
vn -0.4990 -0.6403 -0.5839
vn 0.5134 0.6411 0.5705
vn -0.5223 -0.6257 -0.5794
vn -0.5099 -0.6277 -0.5882
vn -0.5105 -0.6241 -0.5915
vn -0.5100 -0.6276 -0.5882
vn -0.5222 -0.6258 -0.5794
vn -0.5210 -0.6281 -0.5779
vn -0.5210 -0.6281 -0.5780
vn -0.5100 -0.6277 -0.5881
vn 0.5133 0.6410 0.5707
vt 0.829370 0.625640
vt 0.827790 0.619700
vt 0.814740 0.616270
vt 0.827790 0.612840
vt 0.829370 0.606900
vt 0.891370 0.617680
vt 0.897330 0.616170
vt 0.900910 0.603160
vt 0.904190 0.616250
vt 0.910110 0.617900
vt 0.809340 0.695680
vt 0.810860 0.702280
vt 0.825220 0.706160
vt 0.810830 0.710170
vt 0.809440 0.716690
vt 0.855130 0.767050
vt 0.848790 0.769010
vt 0.846110 0.783650
vt 0.840960 0.769740
vt 0.834270 0.768820
vt 0.865900 0.585610
vt 0.901030 0.593020
vt 0.936310 0.586420
vt 0.899740 0.567630
vt 0.966390 0.566820
vt 0.936880 0.536630
vt 0.986670 0.537200
vt 0.968730 0.500200
vt 0.994080 0.502080
vt 0.987480 0.466790
vt 0.836290 0.565330
vt 0.864310 0.537940
vt 0.902080 0.501020
vt 0.939850 0.464110
vt 0.967880 0.436720
vt 0.816690 0.535250
vt 0.835430 0.501840
vt 0.867280 0.465410
vt 0.904430 0.434410
vt 0.938260 0.416430
vt 0.810090 0.499970
vt 0.817490 0.464840
vt 0.837780 0.435230
vt 0.867850 0.415630
vt 0.903140 0.409030
vt 0.646260 0.213960
vt 0.619560 0.240440
vt 0.629530 0.247390
vt 0.652820 0.224110
vt 0.715480 0.399370
vt 0.753690 0.385120
vt 0.746900 0.374130
vt 0.713700 0.386520
vt 0.680910 0.199830
vt 0.683060 0.211670
vt 0.674370 0.396840
vt 0.678210 0.384350
vt 0.718190 0.200050
vt 0.715730 0.211820
vt 0.640170 0.376710
vt 0.647990 0.367570
vt 0.782640 0.239650
vt 0.752820 0.213940
vt 0.746280 0.224210
vt 0.771820 0.247420
vt 0.615840 0.348080
vt 0.626430 0.342190
vt 0.798990 0.278020
vt 0.786080 0.280580
vt 0.603370 0.312640
vt 0.615400 0.310930
vt 0.798990 0.319270
vt 0.786230 0.316610
vt 0.604620 0.275010
vt 0.616460 0.277790
vt 0.783030 0.356910
vt 0.772420 0.349500
vt 0.610730 0.350940
vt 0.636310 0.381210
vt 0.755840 0.209050
vt 0.719370 0.194360
vt 0.786460 0.235190
vt 0.671230 0.402150
vt 0.679860 0.194080
vt 0.643070 0.209030
vt 0.614740 0.237080
vt 0.889700 0.873800
vt 0.890060 0.836810
vt 0.884660 0.836750
vt 0.884310 0.873740
vt 0.598900 0.273660
vt 0.890410 0.799820
vt 0.885010 0.799760
vt 0.597570 0.313470
vt 0.754600 0.259770
vt 0.765130 0.285240
vt 0.643400 0.332180
vt 0.634850 0.307690
vt 0.765400 0.312760
vt 0.635770 0.281820
vt 0.754960 0.337850
vt 0.645970 0.258170
vt 0.735610 0.356540
vt 0.663740 0.240050
vt 0.710470 0.365830
vt 0.686940 0.230510
vt 0.683750 0.364220
vt 0.712100 0.230850
vt 0.660320 0.352000
vt 0.735700 0.240960
vt 0.643580 0.306480
vt 0.644320 0.283870
vt 0.747420 0.332570
vt 0.730810 0.348740
vt 0.651120 0.327890
vt 0.709270 0.356820
vt 0.665980 0.345110
vt 0.686330 0.355500
vt 0.710150 0.239230
vt 0.730590 0.248180
vt 0.688370 0.238890
vt 0.746820 0.264770
vt 0.668390 0.247190
vt 0.755830 0.287030
vt 0.653190 0.263120
vt 0.756270 0.310890
vt 0.994600 0.144290
vt 0.951040 0.167070
vt 0.944400 0.219410
vt 0.976970 0.186840
vt 0.891290 0.183910
vt 0.901850 0.237030
vt 0.829640 0.191220
vt 0.855790 0.237030
vt 0.780680 0.186840
vt 0.813240 0.219410
vt 0.994600 0.098230
vt 0.945280 0.108040
vt 0.878820 0.121260
vt 0.812370 0.134480
vt 0.763050 0.144290
vt 0.976970 0.055680
vt 0.928010 0.051300
vt 0.866360 0.058600
vt 0.806610 0.075450
vt 0.763050 0.098230
vt 0.944400 0.023110
vt 0.901850 0.005490
vt 0.855790 0.005490
vt 0.813240 0.023110
vt 0.780680 0.055680
vt 0.879510 0.753380
vt 0.853820 0.762970
vt 0.879730 0.758040
vt 0.797590 0.669810
vt 0.805070 0.696670
vt 0.802330 0.670000
vt 0.805220 0.807480
vt 0.810430 0.806450
vt 0.803460 0.769720
vt 0.797590 0.769000
vt 0.805230 0.715740
vt 0.797890 0.742420
vt 0.802610 0.742170
vt 0.834880 0.764480
vt 0.807400 0.759400
vt 0.808050 0.764130
vt 0.844820 0.668430
vt 0.845360 0.663000
vt 0.806180 0.659470
vt 0.807480 0.665030
vt 0.890410 0.760920
vt 0.885050 0.762680
vt 0.845360 0.748820
vt 0.844800 0.743570
vt 0.807740 0.747200
vt 0.806530 0.752940
vt 0.803260 0.766290
vt 0.799330 0.763480
vt 0.804780 0.764750
vt 0.802530 0.760730
vt 0.848020 0.764490
vt 0.841020 0.765000
vt 0.802430 0.666750
vt 0.798440 0.664890
vt 0.804040 0.665410
vt 0.800990 0.661620
vt 0.806240 0.709790
vt 0.806130 0.702750
vt 0.804330 0.747100
vt 0.801220 0.750740
vt 0.802940 0.745460
vt 0.798780 0.747340
vt 0.882930 0.757860
vt 0.884420 0.753780
vt 0.884390 0.759330
vt 0.887850 0.756000
vt 0.847090 0.794660
vt 0.836310 0.706160
vt 0.943430 0.624460
vt 0.940410 0.631040
vt 0.943130 0.628940
vt 0.936000 0.630180
vt 0.842160 0.656090
vt 0.835560 0.659030
vt 0.840040 0.658780
vt 0.841360 0.651670
vt 0.797590 0.651480
vt 0.804600 0.616270
vt 0.865210 0.629370
vt 0.860780 0.630120
vt 0.858120 0.627970
vt 0.857920 0.623480
vt 0.841360 0.580870
vt 0.842160 0.576450
vt 0.797590 0.581060
vt 0.840040 0.573760
vt 0.835560 0.573510
s 0
usemtl mat0.1066
f 1/1/1 2/2/1 3/3/1
f 2/2/2 4/4/2 3/3/2
f 4/4/1 5/5/1 3/3/1
f 6/6/2 7/7/2 8/8/2
f 7/7/1 9/9/1 8/8/1
f 9/9/1 10/10/1 8/8/1
f 11/11/3 12/12/4 13/13/5
f 12/12/6 14/14/7 13/13/8
f 14/14/9 15/15/10 13/13/11
f 16/16/12 17/17/13 18/18/14
f 17/17/15 19/19/16 18/18/17
f 19/19/18 20/20/19 18/18/20
f 21/21/1 22/22/1 23/23/1
f 21/21/1 23/23/1 24/24/1
f 24/24/1 23/23/1 25/25/1
f 24/24/2 25/25/2 26/26/2
f 26/26/1 25/25/1 27/27/1
f 26/26/2 27/27/2 28/28/2
f 28/28/2 27/27/2 29/29/2
f 28/28/1 29/29/1 30/30/1
f 31/31/2 21/21/2 24/24/2
f 31/31/2 24/24/2 32/32/2
f 32/32/2 24/24/2 26/26/2
f 32/32/2 26/26/2 33/33/2
f 33/33/1 26/26/1 28/28/1
f 33/33/1 28/28/1 34/34/1
f 34/34/1 28/28/1 30/30/1
f 34/34/2 30/30/2 35/35/2
f 36/36/1 31/31/1 32/32/1
f 36/36/1 32/32/1 37/37/1
f 37/37/1 32/32/1 33/33/1
f 37/37/1 33/33/1 38/38/1
f 38/38/1 33/33/1 34/34/1
f 38/38/2 34/34/2 39/39/2
f 39/39/2 34/34/2 35/35/2
f 39/39/2 35/35/2 40/40/2
f 41/41/1 36/36/1 37/37/1
f 41/41/2 37/37/2 42/42/2
f 42/42/2 37/37/2 38/38/2
f 42/42/2 38/38/2 43/43/2
f 43/43/1 38/38/1 39/39/1
f 43/43/2 39/39/2 44/44/2
f 44/44/2 39/39/2 40/40/2
f 44/44/2 40/40/2 45/45/2
f 46/46/21 47/47/22 48/48/23
f 46/46/24 48/48/23 49/49/24
f 50/50/25 51/51/26 52/52/27
f 50/50/28 52/52/29 53/53/28
f 54/54/30 46/46/31 49/49/32
f 54/54/33 49/49/34 55/55/30
f 56/56/35 50/50/36 53/53/36
f 56/56/37 53/53/38 57/57/35
f 58/58/39 54/54/40 55/55/41
f 58/58/42 55/55/40 59/59/42
f 60/60/43 56/56/44 57/57/44
f 60/60/43 57/57/45 61/61/43
f 62/62/46 63/63/47 64/64/47
f 62/62/46 64/64/48 65/65/46
f 63/63/49 58/58/50 59/59/51
f 63/63/49 59/59/50 64/64/52
f 66/66/53 60/60/54 61/61/54
f 66/66/55 61/61/56 67/67/55
f 68/68/57 62/62/58 65/65/59
f 68/68/57 65/65/60 69/69/57
f 70/70/61 66/66/62 67/67/63
f 70/70/61 67/67/64 71/71/61
f 72/72/65 68/68/66 69/69/66
f 72/72/67 69/69/68 73/73/67
f 74/74/69 70/70/70 71/71/71
f 74/74/69 71/71/71 75/75/72
f 76/76/73 72/72/74 73/73/74
f 76/76/73 73/73/74 77/77/73
f 47/47/75 74/74/76 75/75/77
f 47/47/78 75/75/79 48/48/78
f 51/51/80 76/76/81 77/77/82
f 51/51/83 77/77/84 52/52/83
f 78/78/85 79/79/86 60/60/87
f 78/78/88 60/60/89 66/66/85
f 80/80/90 81/81/91 58/58/91
f 80/80/92 58/58/93 63/63/94
f 82/82/95 80/80/96 63/63/96
f 82/82/97 63/63/98 62/62/97
f 79/79/99 83/83/100 56/56/100
f 79/79/101 56/56/102 60/60/101
f 81/81/103 84/84/104 54/54/104
f 81/81/105 54/54/106 58/58/105
f 84/84/107 85/85/108 46/46/108
f 84/84/109 46/46/110 54/54/109
f 85/85/111 86/86/112 47/47/113
f 85/85/111 47/47/113 46/46/114
f 87/87/115 88/88/116 89/89/117
f 87/87/115 89/89/118 90/90/115
f 86/86/119 91/91/120 74/74/120
f 86/86/121 74/74/122 47/47/123
f 88/88/124 92/92/125 93/93/125
f 88/88/126 93/93/127 89/89/128
f 91/91/129 94/94/130 70/70/130
f 91/91/129 70/70/131 74/74/132
f 94/94/133 78/78/134 66/66/135
f 94/94/136 66/66/134 70/70/137
f 69/69/138 65/65/138 95/95/138
f 69/69/138 95/95/138 96/96/138
f 71/71/138 67/67/138 97/97/138
f 71/71/138 97/97/138 98/98/138
f 73/73/139 69/69/139 96/96/139
f 73/73/138 96/96/138 99/99/138
f 75/75/139 71/71/139 98/98/139
f 75/75/138 98/98/138 100/100/138
f 77/77/139 73/73/139 99/99/139
f 77/77/139 99/99/139 101/101/139
f 48/48/139 75/75/139 100/100/139
f 48/48/139 100/100/139 102/102/139
f 52/52/139 77/77/139 101/101/139
f 52/52/139 101/101/139 103/103/139
f 49/49/138 48/48/138 102/102/138
f 49/49/139 102/102/139 104/104/139
f 53/53/139 52/52/139 103/103/139
f 53/53/138 103/103/138 105/105/138
f 55/55/139 49/49/139 104/104/139
f 55/55/139 104/104/139 106/106/139
f 57/57/138 53/53/138 105/105/138
f 57/57/139 105/105/139 107/107/139
f 59/59/139 55/55/139 106/106/139
f 59/59/138 106/106/138 108/108/138
f 61/61/139 57/57/139 107/107/139
f 61/61/138 107/107/138 109/109/138
f 65/65/138 64/64/138 110/110/138
f 65/65/138 110/110/138 95/95/138
f 64/64/139 59/59/139 108/108/139
f 64/64/138 108/108/138 110/110/138
f 67/67/139 61/61/139 109/109/139
f 67/67/139 109/109/139 97/97/139
f 100/100/140 98/98/141 111/111/141
f 100/100/142 111/111/143 112/112/140
f 103/103/144 101/101/145 113/113/146
f 103/103/147 113/113/113 114/114/148
f 98/98/149 97/97/150 115/115/151
f 98/98/152 115/115/151 111/111/153
f 105/105/109 103/103/154 114/114/108
f 105/105/109 114/114/155 116/116/109
f 97/97/156 109/109/96 117/117/96
f 97/97/156 117/117/98 115/115/156
f 107/107/103 105/105/104 116/116/157
f 107/107/103 116/116/106 118/118/103
f 110/110/158 108/108/159 119/119/160
f 110/110/161 119/119/162 120/120/101
f 109/109/163 107/107/164 118/118/93
f 109/109/165 118/118/93 117/117/94
f 108/108/166 106/106/167 121/121/168
f 108/108/169 121/121/170 119/119/169
f 95/95/171 110/110/86 120/120/86
f 95/95/85 120/120/172 122/122/85
f 106/106/173 104/104/174 123/123/174
f 106/106/173 123/123/175 121/121/173
f 96/96/137 95/95/176 122/122/134
f 96/96/136 122/122/176 124/124/177
f 104/104/178 102/102/116 125/125/117
f 104/104/179 125/125/118 123/123/180
f 99/99/129 96/96/130 124/124/130
f 99/99/129 124/124/181 126/126/182
f 102/102/128 100/100/183 112/112/184
f 102/102/185 112/112/186 125/125/185
f 101/101/187 99/99/122 126/126/188
f 101/101/121 126/126/189 113/113/123
f 127/127/139 128/128/139 129/129/139
f 127/127/190 129/129/190 130/130/190
f 128/128/139 131/131/139 132/132/139
f 128/128/139 132/132/139 129/129/139
f 131/131/138 133/133/138 134/134/138
f 131/131/138 134/134/138 132/132/138
f 133/133/138 135/135/138 136/136/138
f 133/133/139 136/136/139 134/134/139
f 137/137/139 138/138/139 128/128/139
f 137/137/139 128/128/139 127/127/139
f 138/138/138 139/139/138 131/131/138
f 138/138/139 131/131/139 128/128/139
f 139/139/138 140/140/138 133/133/138
f 139/139/139 133/133/139 131/131/139
f 140/140/138 141/141/138 135/135/138
f 140/140/139 135/135/139 133/133/139
f 142/142/138 143/143/138 138/138/138
f 142/142/138 138/138/138 137/137/138
f 143/143/138 144/144/138 139/139/138
f 143/143/138 139/139/138 138/138/138
f 144/144/138 145/145/138 140/140/138
f 144/144/138 140/140/138 139/139/138
f 145/145/139 146/146/139 141/141/139
f 145/145/138 141/141/138 140/140/138
f 147/147/139 148/148/139 143/143/139
f 147/147/138 143/143/138 142/142/138
f 148/148/139 149/149/139 144/144/139
f 148/148/139 144/144/139 143/143/139
f 149/149/138 150/150/138 145/145/138
f 149/149/139 145/145/139 144/144/139
f 150/150/138 151/151/138 146/146/138
f 150/150/139 146/146/139 145/145/139
f 152/152/191 153/153/192 16/16/193
f 152/152/194 16/16/195 154/154/196
f 155/155/197 156/156/198 11/11/199
f 155/155/200 11/11/199 157/157/201
f 158/158/202 159/159/202 160/160/203
f 158/158/204 160/160/205 161/161/206
f 162/162/207 163/163/208 164/164/209
f 162/162/210 164/164/211 15/15/212
f 165/165/213 166/166/214 167/167/215
f 165/165/216 167/167/217 20/20/218
f 168/168/219 169/169/219 170/170/220
f 168/168/219 170/170/220 171/171/221
f 93/93/222 92/92/222 172/172/223
f 93/93/222 172/172/224 173/173/223
f 174/174/225 175/175/225 176/176/226
f 174/174/227 176/176/226 177/177/228
f 161/161/229 160/160/230 178/178/231
f 161/161/229 178/178/232 179/179/232
f 179/179/233 178/178/233 180/180/233
f 179/179/234 180/180/234 181/181/234
f 181/181/235 180/180/235 167/167/236
f 181/181/237 167/167/238 166/166/239
f 16/16/240 153/153/241 182/182/242
f 16/16/195 182/182/242 17/17/243
f 17/17/244 182/182/245 183/183/246
f 17/17/244 183/183/247 19/19/248
f 19/19/249 183/183/250 165/165/251
f 19/19/252 165/165/253 20/20/254
f 155/155/255 157/157/256 184/184/257
f 155/155/258 184/184/259 185/185/259
f 185/185/260 184/184/260 186/186/260
f 185/185/260 186/186/260 187/187/260
f 187/187/261 186/186/261 171/171/262
f 187/187/263 171/171/220 170/170/264
f 162/162/265 15/15/266 14/14/267
f 162/162/265 14/14/268 188/188/269
f 188/188/270 14/14/271 12/12/272
f 188/188/273 12/12/274 189/189/275
f 189/189/276 12/12/277 11/11/278
f 189/189/279 11/11/278 156/156/280
f 177/177/281 176/176/282 190/190/283
f 177/177/281 190/190/284 191/191/284
f 191/191/285 190/190/285 192/192/285
f 191/191/286 192/192/286 193/193/286
f 193/193/287 192/192/287 164/164/288
f 193/193/289 164/164/290 163/163/291
f 152/152/292 154/154/293 194/194/294
f 152/152/295 194/194/296 195/195/296
f 195/195/297 194/194/297 196/196/297
f 195/195/298 196/196/298 197/197/298
f 197/197/299 196/196/299 173/173/300
f 197/197/301 173/173/302 172/172/303
f 167/167/304 18/18/305 20/20/19
f 18/18/306 167/167/307 198/198/308
f 198/198/309 167/167/304 180/180/304
f 198/198/308 180/180/307 159/159/307
f 159/159/307 180/180/307 178/178/307
f 159/159/307 178/178/307 160/160/307
f 176/176/310 192/192/310 190/190/310
f 192/192/311 176/176/311 164/164/311
f 164/164/311 176/176/311 175/175/311
f 164/164/311 175/175/311 15/15/312
f 15/15/312 175/175/310 13/13/5
f 13/13/313 175/175/310 199/199/314
f 200/200/315 201/201/315 202/202/315
f 201/201/1 200/200/1 203/203/1
f 203/203/2 200/200/2 23/23/2
f 203/203/1 23/23/1 10/10/1
f 10/10/2 23/23/2 8/8/2
f 8/8/2 23/23/2 22/22/2
f 194/194/316 173/173/316 196/196/316
f 173/173/317 194/194/317 154/154/317
f 173/173/317 154/154/317 93/93/317
f 93/93/317 154/154/317 16/16/318
f 93/93/317 16/16/319 18/18/320
f 93/93/317 18/18/320 198/198/308
f 204/204/321 205/205/321 206/206/321
f 205/205/315 204/204/315 207/207/315
f 205/205/2 207/207/2 208/208/2
f 208/208/2 207/207/2 1/1/2
f 208/208/1 1/1/1 3/3/1
f 208/208/2 3/3/2 209/209/2
f 8/8/2 210/210/2 6/6/2
f 210/210/1 8/8/1 22/22/1
f 210/210/321 22/22/321 211/211/321
f 211/211/1 22/22/1 21/21/1
f 211/211/2 21/21/2 212/212/2
f 212/212/315 21/21/315 213/213/315
f 13/13/322 157/157/323 11/11/324
f 157/157/325 13/13/326 199/199/327
f 157/157/325 199/199/328 184/184/325
f 184/184/329 199/199/314 168/168/329
f 184/184/323 168/168/323 186/186/323
f 186/186/323 168/168/323 171/171/323
f 214/214/1 3/3/1 5/5/1
f 3/3/2 214/214/2 209/209/2
f 209/209/2 214/214/2 215/215/2
f 209/209/1 215/215/1 216/216/1
f 216/216/321 215/215/321 217/217/321
f 216/216/330 217/217/330 218/218/330
