# Blender 4.2.3 LTS
# www.blender.org
mtllib paper_umbrella.mtl
o dynamic
v 3.699022 -4.785216 -3.772728
v 3.691819 -4.777834 -3.778642
v 3.694921 -4.781986 -3.783410
v 3.706950 -4.783236 -3.764093
v 3.701550 -4.778845 -3.763015
v 3.710051 -4.787388 -3.768861
v 3.700321 -4.786376 -3.784489
v 3.705955 -4.789329 -3.781466
v 3.695916 -4.775894 -3.766037
v 3.709672 -4.789716 -3.775497
v 3.692200 -4.775506 -3.772006
v 3.713151 -4.778308 -3.762276
v 3.717489 -4.784116 -3.768945
v 3.734318 -4.761214 -3.777941
v 3.729980 -4.755406 -3.771274
v 3.703879 -4.782701 -3.790801
v 3.696327 -4.776560 -3.789292
v 3.713156 -4.753656 -3.798290
v 3.720709 -4.759798 -3.799799
v 3.716958 -4.787371 -3.778225
v 3.733786 -4.764468 -3.787222
v 3.784805 -4.747330 -4.116495
v 3.720709 -4.759798 -3.799799
v 3.713156 -4.753656 -3.798290
v 3.639453 -4.629120 -4.087457
v 3.711759 -4.786831 -3.786574
v 3.728589 -4.763928 -3.795571
v 3.705599 -4.772168 -3.760767
v 3.722428 -4.749265 -3.769766
v 3.691989 -4.770754 -3.782624
v 3.708818 -4.747850 -3.791622
v 3.692521 -4.767498 -3.773345
v 3.697719 -4.768038 -3.764995
v 3.714549 -4.745135 -3.773992
v 3.709350 -4.744595 -3.782341
v 3.714549 -4.745135 -3.773992
v 3.666237 -4.465078 -3.619765
v 3.566175 -4.454678 -3.780462
v 3.709350 -4.744595 -3.782341
v 3.728589 -4.763928 -3.795571
v 3.936478 -4.826815 -4.035126
v 4.036541 -4.837213 -3.874430
v 3.733786 -4.764468 -3.787222
v 3.555943 -4.517338 -3.959104
v 3.708818 -4.747850 -3.791622
v 4.046773 -4.774554 -3.695787
v 3.734318 -4.761214 -3.777941
v 3.722428 -4.749265 -3.769766
v 3.817911 -4.544561 -3.538397
v 3.963263 -4.662772 -3.567434
v 3.729980 -4.755406 -3.771274
v 4.070329 -4.284111 -3.965067
v 3.729980 -4.755406 -3.771274
v 3.734318 -4.761214 -3.777941
v 4.071815 -4.286100 -3.967352
v 4.067743 -4.282008 -3.964551
v 4.065044 -4.280595 -3.965999
v 3.714549 -4.745135 -3.773992
v 3.722428 -4.749265 -3.769766
v 4.071634 -4.287215 -3.970530
v 3.733786 -4.764468 -3.787222
v 3.728589 -4.763928 -3.795571
v 4.069851 -4.287030 -3.973389
v 4.063082 -4.281525 -3.972037
v 3.708818 -4.747850 -3.791622
v 3.709350 -4.744595 -3.782341
v 4.063263 -4.280409 -3.968859
v 4.064567 -4.283514 -3.974321
v 3.713156 -4.753656 -3.798290
v 3.720709 -4.759798 -3.799799
v 4.067153 -4.285616 -3.974836
v 4.067153 -4.285616 -3.974836
v 3.720709 -4.759798 -3.799799
v 4.065044 -4.280595 -3.965999
v 4.067743 -4.282008 -3.964551
v 4.063263 -4.280409 -3.968859
v 4.071815 -4.286100 -3.967352
v 4.070329 -4.284111 -3.965067
v 4.063082 -4.281525 -3.972037
v 4.064567 -4.283514 -3.974321
v 4.067153 -4.285616 -3.974836
v 4.069851 -4.287030 -3.973389
v 4.071634 -4.287215 -3.970530
vn -0.1754 0.1006 0.9793
vn -0.1755 0.1007 0.9793
vn 0.2011 0.5026 0.8408
vn 0.2009 0.5026 0.8408
vn 0.2012 0.5026 0.8408
vn 0.3382 0.3807 0.8606
vn 0.3386 0.3805 0.8605
vn 0.3385 0.3806 0.8606
vn 0.1444 -0.0429 0.9886
vn 0.1445 -0.0430 0.9886
vn 0.0182 0.5243 0.8514
vn 0.0182 0.5244 0.8513
vn 0.0183 0.5244 0.8513
vn 0.3773 0.2053 0.9030
vn 0.3770 0.2054 0.9031
vn 0.3773 0.2054 0.9030
vn -0.2147 0.2758 0.9369
vn -0.2147 0.2759 0.9369
vn -0.2147 0.2761 0.9368
vn 0.3033 0.0435 0.9519
vn 0.3034 0.0435 0.9519
vn 0.3033 0.0436 0.9519
vn -0.1407 0.4377 0.8880
vn -0.1406 0.4377 0.8881
vn -0.0383 -0.0212 0.9990
vn -0.0385 -0.0210 0.9990
vn -0.0382 -0.0211 0.9990
vn 0.8607 0.4687 -0.1987
vn 0.8605 0.4691 -0.1986
vn 0.8606 0.4689 -0.1987
vn 0.8606 0.4690 -0.1984
vn 0.8607 0.4688 -0.1986
vn -0.4012 -0.8769 0.2649
vn -0.4014 -0.8768 0.2649
vn -0.4010 -0.8770 0.2648
vn -0.4011 -0.8769 0.2648
vn -0.4011 -0.8769 0.2649
vn 0.9914 -0.1181 -0.0566
vn 0.9914 -0.1183 -0.0566
vn 0.9914 -0.1182 -0.0568
vn 0.9914 -0.1182 -0.0567
vn 0.9914 -0.1182 -0.0566
vn -0.1066 -0.1743 0.9789
vn -0.1064 -0.1745 0.9789
vn -0.1066 -0.1744 0.9789
vn -0.1065 -0.1743 0.9789
vn 0.2113 -0.9501 0.2296
vn 0.2118 -0.9499 0.2297
vn 0.2115 -0.9500 0.2295
vn 0.2117 -0.9500 0.2297
vn 0.4011 0.8769 -0.2648
vn 0.4012 0.8769 -0.2649
vn 0.4011 0.8769 -0.2649
vn 0.4012 0.8769 -0.2648
vn -0.8607 -0.4687 0.1987
vn -0.8606 -0.4690 0.1985
vn -0.8606 -0.4688 0.1988
vn -0.8607 -0.4689 0.1985
vn -0.7435 0.6601 -0.1070
vn -0.7434 0.6602 -0.1070
vn -0.7435 0.6602 -0.1070
vn -0.9914 0.1182 0.0565
vn -0.9914 0.1183 0.0566
vn -0.9914 0.1183 0.0567
vn 0.7435 -0.6601 0.1070
vn 0.7435 -0.6601 0.1069
vn 0.7434 -0.6603 0.1069
vn 0.7434 -0.6603 0.1070
vn -0.2625 0.5249 0.8097
vn -0.2626 0.5249 0.8097
vn -0.2625 0.5248 0.8097
vn -0.2625 0.5248 0.8098
vn -0.2625 0.5247 0.8098
vn 0.4142 -0.0756 0.9071
vn 0.4143 -0.0758 0.9070
vn 0.4142 -0.0757 0.9070
vn 0.4144 -0.0758 0.9069
vn -0.3753 0.2782 0.8842
vn -0.3754 0.2782 0.8841
vn -0.3755 0.2782 0.8841
vn -0.3753 0.2781 0.8842
vn -0.3755 0.2783 0.8841
vn 0.5270 0.1709 0.8325
vn 0.5271 0.1708 0.8325
vn 0.5269 0.1710 0.8325
vn -0.0203 0.6567 0.7539
vn -0.0203 0.6568 0.7538
vn -0.0204 0.6568 0.7538
vn -0.0205 0.6568 0.7538
vn 0.1722 -0.2078 0.9629
vn 0.1721 -0.2077 0.9629
vn 0.1722 -0.2077 0.9629
vn -0.2115 0.9500 -0.2295
vn -0.2117 0.9500 -0.2297
vn -0.2116 0.9500 -0.2297
vn -0.2119 0.9499 -0.2297
vn -0.2113 0.9500 -0.2297
vn 0.4675 0.4380 0.7679
vn 0.4675 0.4379 0.7679
vn 0.4677 0.4377 0.7679
vn 0.4676 0.4378 0.7679
vn 0.4676 0.4379 0.7679
vn 0.2584 0.6236 0.7378
vn 0.2582 0.6237 0.7378
vn 0.2583 0.6236 0.7378
vn 0.2568 0.6245 0.7376
vn 0.2586 0.6237 0.7377
vn -0.3157 0.0111 0.9488
vn -0.3157 0.0112 0.9488
vn -0.3156 0.0110 0.9488
vn -0.3158 0.0112 0.9488
vn -0.3157 0.0113 0.9488
vn 0.7705 0.5309 0.3527
vn 0.7706 0.5308 0.3528
vn 0.7704 0.5309 0.3529
vn 0.7705 0.5308 0.3529
vn 0.7704 0.5309 0.3530
vn 0.6718 -0.4198 0.6103
vn 0.6720 -0.4198 0.6101
vn 0.6721 -0.4197 0.6101
vn 0.6720 -0.4197 0.6101
vn 0.6718 -0.4199 0.6102
vn 0.6718 -0.4197 0.6103
vn 0.3836 0.8743 0.2974
vn 0.3836 0.8744 0.2972
vn 0.3838 0.8742 0.2974
vn 0.3837 0.8743 0.2973
vn -0.2917 -0.6021 0.7432
vn -0.2916 -0.6022 0.7432
vn -0.2919 -0.6019 0.7433
vn -0.2918 -0.6020 0.7433
vn -0.2916 -0.6021 0.7433
vn -0.5799 0.6919 0.4301
vn -0.5797 0.6919 0.4303
vn -0.5798 0.6919 0.4302
vn 0.8807 0.0365 0.4723
vn 0.8805 0.0365 0.4726
vn 0.8805 0.0365 0.4727
vn 0.8805 0.0364 0.4726
vn 0.8806 0.0364 0.4725
vn 0.8806 0.0365 0.4724
vn -0.6785 -0.2590 0.6875
vn -0.6786 -0.2585 0.6875
vn -0.6787 -0.2585 0.6874
vn -0.6786 -0.2586 0.6875
vn -0.6785 -0.2588 0.6875
vn 0.2240 -0.6635 0.7138
vn 0.2244 -0.6634 0.7138
vn 0.2241 -0.6635 0.7139
vn 0.2243 -0.6635 0.7138
vn 0.2241 -0.6635 0.7138
vn 0.2239 -0.6636 0.7138
vn -0.1324 0.9357 0.3269
vn -0.1322 0.9357 0.3271
vn -0.1322 0.9357 0.3270
vn -0.1318 0.9357 0.3271
vn -0.1324 0.9358 0.3268
vn -0.7885 0.2356 0.5682
vn -0.7885 0.2355 0.5681
vn -0.7885 0.2356 0.5681
vn -0.7886 0.2356 0.5680
vn 0.8592 0.4647 -0.2142
vn 0.8592 0.4646 -0.2142
vn 0.8592 0.4647 -0.2141
vn 0.8592 0.4647 -0.2143
vn 0.8591 0.4648 -0.2141
vn -0.2126 0.9459 -0.2452
vn -0.2132 0.9457 -0.2453
vn -0.2130 0.9458 -0.2453
vn -0.2131 0.9458 -0.2452
vn -0.2129 0.9458 -0.2453
vn 0.7420 -0.6642 0.0913
vn 0.7420 -0.6641 0.0913
vn 0.7421 -0.6641 0.0913
vn 0.7420 -0.6642 0.0912
vn 0.7419 -0.6643 0.0913
vn -0.9926 0.1141 0.0411
vn -0.9926 0.1140 0.0410
vn -0.9926 0.1140 0.0409
vn -0.9926 0.1139 0.0409
vn -0.7448 0.6560 -0.1227
vn -0.7448 0.6559 -0.1227
vn -0.7448 0.6559 -0.1226
vn -0.7447 0.6560 -0.1225
vn -0.8620 -0.4728 0.1829
vn -0.8620 -0.4729 0.1829
vn -0.8619 -0.4729 0.1828
vn -0.8619 -0.4731 0.1827
vn -0.8619 -0.4730 0.1828
vn 0.3997 0.8727 -0.2805
vn 0.3997 0.8727 -0.2806
vn 0.3997 0.8727 -0.2804
vn 0.3998 0.8726 -0.2804
vn 0.3998 0.8726 -0.2805
vn 0.2103 -0.9539 0.2139
vn 0.2101 -0.9540 0.2139
vn 0.2104 -0.9539 0.2140
vn 0.2102 -0.9540 0.2138
vn 0.2105 -0.9539 0.2139
vn 0.2103 -0.9540 0.2139
vn 0.9899 -0.1223 -0.0723
vn 0.9899 -0.1222 -0.0723
vn 0.9898 -0.1224 -0.0724
vn 0.9899 -0.1222 -0.0722
vn -0.4026 -0.8808 0.2491
vn -0.4024 -0.8809 0.2492
vn -0.4025 -0.8808 0.2492
vn -0.4024 -0.8809 0.2491
vn -0.4028 -0.8807 0.2492
vn -0.0855 -0.2522 -0.9639
vn -0.0852 -0.2523 -0.9639
vn -0.0853 -0.2523 -0.9639
vn -0.0854 -0.2521 -0.9639
vn -0.0852 -0.2524 -0.9639
vn -0.0853 -0.2524 -0.9639
vn -0.0852 -0.2522 -0.9639
vn -0.0855 -0.2520 -0.9639
vn -0.0850 -0.2524 -0.9639
vn -0.0854 -0.2522 -0.9639
vn -0.0851 -0.2525 -0.9639
vn -0.0853 -0.2522 -0.9639
vn -0.0854 -0.2524 -0.9639
vn -0.0856 -0.2521 -0.9639
vn -0.0857 -0.2520 -0.9639
vt 0.275970 0.044940
vt 0.276530 0.044820
vt 0.276310 0.044570
vt 0.275780 0.045510
vt 0.276090 0.045570
vt 0.275570 0.045260
vt 0.275990 0.044500
vt 0.275700 0.044650
vt 0.276390 0.045450
vt 0.275540 0.044930
vt 0.276560 0.045160
vt 0.275540 0.045920
vt 0.275200 0.045420
vt 0.275670 0.060570
vt 0.285030 0.058040
vt 0.275960 0.044110
vt 0.276520 0.044210
vt 0.267470 0.032710
vt 0.261840 0.040070
vt 0.275170 0.044840
vt 0.266750 0.057200
vt 0.267030 0.216750
vt 0.144490 0.177480
vt 0.142170 0.180660
vt 0.219170 0.283740
vt 0.275450 0.044350
vt 0.261540 0.049380
vt 0.276150 0.046070
vt 0.290710 0.050180
vt 0.276940 0.044640
vt 0.276350 0.029990
vt 0.277030 0.045240
vt 0.276730 0.045800
vt 0.290710 0.040620
vt 0.285200 0.032960
vt 0.132440 0.177470
vt 0.011370 0.218660
vt 0.061130 0.285670
vt 0.134730 0.180620
vt 0.144440 0.173550
vt 0.267030 0.134420
vt 0.218630 0.067090
vt 0.142090 0.170410
vt 0.140610 0.310340
vt 0.138440 0.181850
vt 0.139660 0.040950
vt 0.138360 0.169240
vt 0.132440 0.173600
vt 0.011030 0.134670
vt 0.060230 0.066530
vt 0.134670 0.170460
vt 0.804470 0.962420
vt 0.801790 0.708670
vt 0.797710 0.708740
vt 0.803070 0.962440
vt 0.805870 0.962410
vt 0.807260 0.962420
vt 0.809940 0.708670
vt 0.805870 0.708650
vt 0.801680 0.962480
vt 0.793630 0.708840
vt 0.789550 0.709000
vt 0.800280 0.962530
vt 0.810060 0.962480
vt 0.818100 0.708840
vt 0.814020 0.708740
vt 0.808660 0.962440
vt 0.811450 0.962530
vt 0.822180 0.709000
vt 0.785480 0.709190
vt 0.798880 0.962600
vt 0.812850 0.962600
vt 0.826250 0.709190
vt 0.271160 0.312050
vt 0.271160 0.314050
vt 0.272340 0.310430
vt 0.274240 0.316280
vt 0.272340 0.315660
vt 0.274240 0.309820
vt 0.276140 0.310430
vt 0.277310 0.312050
vt 0.277310 0.314050
vt 0.276140 0.315660
s 0
usemtl mat0.096
f 1/1/1 2/2/1 3/3/2
f 1/1/3 4/4/4 5/5/5
f 1/1/6 6/6/7 4/4/8
f 1/1/9 7/7/10 8/8/10
f 1/1/11 5/5/12 9/9/13
f 1/1/14 10/10/15 6/6/16
f 1/1/17 11/11/18 2/2/19
f 1/1/20 8/8/21 10/10/22
f 1/1/23 9/9/23 11/11/24
f 3/3/25 7/7/26 1/1/27
f 12/12/28 13/13/29 14/14/30
f 15/15/31 12/12/32 14/14/28
f 16/16/33 17/17/34 18/18/35
f 19/19/33 16/16/36 18/18/37
f 13/13/38 20/20/39 21/21/40
f 14/14/41 13/13/40 21/21/42
f 22/22/43 23/23/44 24/24/43
f 25/25/44 22/22/45 24/24/46
f 26/26/47 16/16/48 19/19/49
f 27/27/50 26/26/49 19/19/49
f 28/28/51 12/12/52 15/15/53
f 29/29/54 28/28/51 15/15/51
f 17/17/55 30/30/56 31/31/57
f 18/18/58 17/17/55 31/31/55
f 32/32/59 33/33/60 34/34/60
f 35/35/60 32/32/61 34/34/59
f 30/30/62 32/32/63 35/35/63
f 31/31/63 30/30/64 35/35/62
f 20/20/65 26/26/66 27/27/67
f 21/21/66 20/20/68 27/27/66
f 36/36/69 37/37/70 38/38/71
f 39/39/72 36/36/73 38/38/69
f 40/40/74 41/41/75 42/42/76
f 43/43/77 40/40/76 42/42/76
f 39/39/78 38/38/79 44/44/80
f 45/45/81 39/39/82 44/44/78
f 43/43/83 42/42/83 46/46/84
f 47/47/84 43/43/85 46/46/83
f 48/48/86 49/49/87 37/37/88
f 36/36/88 48/48/89 37/37/89
f 23/23/90 22/22/91 41/41/92
f 40/40/91 23/23/91 41/41/91
f 33/33/93 28/28/94 29/29/95
f 34/34/96 33/33/95 29/29/97
f 47/47/98 46/46/99 50/50/100
f 51/51/99 47/47/101 50/50/102
f 51/51/103 50/50/104 49/49/105
f 48/48/103 51/51/106 49/49/107
f 45/45/108 44/44/108 25/25/109
f 24/24/110 45/45/111 25/25/112
f 4/4/113 6/6/114 13/13/115
f 12/12/116 4/4/116 13/13/117
f 10/10/118 8/8/119 26/26/120
f 20/20/121 10/10/122 26/26/123
f 5/5/124 4/4/125 12/12/126
f 28/28/127 5/5/126 12/12/125
f 7/7/128 3/3/129 17/17/130
f 16/16/131 7/7/130 17/17/132
f 11/11/133 9/9/134 33/33/135
f 32/32/135 11/11/133 33/33/135
f 6/6/136 10/10/137 20/20/138
f 13/13/139 6/6/140 20/20/141
f 3/3/142 2/2/143 30/30/144
f 17/17/145 3/3/143 30/30/146
f 8/8/147 7/7/148 16/16/149
f 26/26/150 8/8/151 16/16/152
f 9/9/153 5/5/153 28/28/154
f 33/33/155 9/9/156 28/28/157
f 2/2/158 11/11/159 32/32/160
f 30/30/161 2/2/161 32/32/161
f 52/52/162 53/53/163 54/54/164
f 55/55/165 52/52/162 54/54/166
f 56/56/167 57/57/168 58/58/169
f 59/59/170 56/56/171 58/58/171
f 60/60/172 61/61/172 62/62/173
f 63/63/174 60/60/175 62/62/176
f 64/64/177 65/65/178 66/66/179
f 67/67/180 64/64/178 66/66/178
f 67/67/181 66/66/181 58/58/182
f 57/57/183 67/67/183 58/58/184
f 68/68/185 69/69/186 65/65/187
f 64/64/185 68/68/188 65/65/189
f 56/56/190 59/59/190 53/53/191
f 52/52/192 56/56/193 53/53/194
f 63/63/195 62/62/196 70/70/197
f 71/71/198 63/63/199 70/70/200
f 55/55/201 54/54/202 61/61/203
f 60/60/203 55/55/201 61/61/204
f 72/72/205 73/73/206 69/69/207
f 68/68/208 72/72/209 69/69/206
f 74/74/210 75/75/211 76/76/212
f 75/75/212 77/77/212 76/76/212
f 78/78/213 77/77/214 75/75/215
f 76/76/214 77/77/210 79/79/216
f 79/79/217 77/77/218 80/80/219
f 80/80/220 77/77/221 81/81/211
f 81/81/222 77/77/210 82/82/223
f 83/83/212 82/82/224 77/77/211
