# Blender 4.2.3 LTS
# www.blender.org
mtllib star.mtl
o dynamic
v -1899.304688 -3766.276123 -1457.591064
v -1973.924683 -3651.302979 -1315.490967
v -1945.556152 -3766.629150 -1361.023926
v -2009.913330 -3872.839844 -1333.538086
v -1908.278564 -3861.337891 -1409.142822
v -1853.291748 -3957.787598 -1471.207520
v -1818.846558 -3835.352783 -1472.401123
v -1720.505615 -3788.751953 -1538.245605
v -1800.852539 -3724.584717 -1463.377930
v -1795.061035 -3599.334473 -1442.007080
v -1879.162964 -3682.111084 -1394.542969
v -1945.556152 -3766.629150 -1361.023926
v -1973.924683 -3651.302979 -1315.490967
v -1841.773926 -3781.730713 -1382.604492
v -2009.913330 -3872.839844 -1333.538086
v -1908.278564 -3861.337891 -1409.142822
v -1853.291748 -3957.787598 -1471.207520
v -1818.846558 -3835.352783 -1472.401123
v -1720.505615 -3788.751953 -1538.245605
v -1800.852539 -3724.584717 -1463.377930
v -1795.061035 -3599.334473 -1442.007080
v -1879.162964 -3682.111084 -1394.542969
vn -0.0021 -0.7121 -0.7021
vn -0.0018 -0.7120 -0.7022
vn -0.0019 -0.7119 -0.7023
vn -0.2577 -0.9605 0.1049
vn -0.2576 -0.9605 0.1048
vn -0.2576 -0.9606 0.1048
vn -0.4043 -0.8587 -0.3150
vn -0.4042 -0.8586 -0.3153
vn 0.3145 -0.9306 0.1874
vn 0.3146 -0.9306 0.1873
vn 0.3142 -0.9307 0.1874
vn -0.1431 -0.9720 0.1862
vn -0.1428 -0.9722 0.1858
vn -0.1429 -0.9721 0.1860
vn 0.5599 -0.7679 -0.3111
vn 0.5602 -0.7677 -0.3113
vn 0.5600 -0.7679 -0.3111
vn 0.4261 -0.8982 0.1085
vn 0.4261 -0.8982 0.1082
vn 0.4260 -0.8982 0.1083
vn 0.1393 -0.7008 -0.6996
vn 0.1396 -0.7006 -0.6998
vn 0.1392 -0.7008 -0.6996
vn 0.5133 -0.7366 -0.4405
vn 0.5132 -0.7366 -0.4405
vn 0.5134 -0.7365 -0.4405
vn -0.3653 -0.8176 -0.4452
vn -0.3652 -0.8176 -0.4452
vn -0.3652 -0.8175 -0.4452
vn -0.4143 0.7100 0.5695
vn -0.4143 0.7099 0.5695
vn -0.4142 0.7100 0.5696
vn -0.5614 0.8139 0.1493
vn -0.5612 0.8141 0.1493
vn 0.1575 0.7414 0.6523
vn 0.1575 0.7415 0.6522
vn 0.1575 0.7413 0.6524
vn -0.2997 0.6980 0.6503
vn -0.2996 0.6980 0.6504
vn -0.2995 0.6981 0.6503
vn 0.4031 0.9022 0.1535
vn 0.4034 0.9021 0.1531
vn 0.4031 0.9022 0.1534
vn 0.2691 0.7739 0.5733
vn 0.2690 0.7739 0.5733
vn -0.0179 0.9719 -0.2349
vn -0.0179 0.9718 -0.2349
vn -0.0183 0.9719 -0.2347
vn 0.3567 0.9339 0.0242
vn 0.3566 0.9339 0.0245
vn 0.3568 0.9339 0.0242
vn -0.5224 0.8525 0.0187
vn -0.5223 0.8526 0.0188
vn -0.5222 0.8526 0.0188
vn -0.1589 0.9581 -0.2382
vn -0.1591 0.9581 -0.2383
vt 0.870600 0.206480
vt 0.870760 0.137520
vt 0.795760 0.240260
vt 0.805130 0.158680
vt 0.749880 0.097950
vt 0.830350 0.081640
vt 0.871040 0.010330
vt 0.911410 0.081830
vt 0.991810 0.098490
vt 0.936290 0.158980
vt 0.945290 0.240590
vt 0.686780 0.159530
vt 0.621730 0.136670
vt 0.694020 0.241320
vt 0.743600 0.100250
vt 0.663580 0.081860
vt 0.624760 0.009510
vt 0.582540 0.079930
vt 0.501730 0.094500
vt 0.555660 0.156410
vt 0.544540 0.237760
vt 0.620090 0.205610
s 0
usemtl mat3.211
f 11/1/1 1/2/2 2/3/3
f 1/2/4 3/4/5 2/3/6
f 3/4/7 1/2/8 4/5/8
f 4/5/9 1/2/10 5/6/11
f 5/6/12 1/2/13 6/7/14
f 6/7/15 1/2/16 7/8/17
f 7/8/18 1/2/19 8/9/20
f 8/9/21 1/2/22 9/10/23
f 9/10/24 1/2/25 10/11/26
f 10/11/27 1/2/28 11/1/29
f 12/12/30 14/13/31 13/14/32
f 14/13/33 12/12/34 15/15/33
f 14/13/35 15/15/36 16/16/37
f 14/13/38 16/16/39 17/17/40
f 14/13/41 17/17/42 18/18/43
f 14/13/44 18/18/45 19/19/45
f 14/13/46 19/19/47 20/20/48
f 14/13/49 20/20/50 21/21/51
f 14/13/52 21/21/53 22/22/54
f 14/13/55 22/22/55 13/14/56
