# Blender 4.2.3 LTS
# www.blender.org
mtllib rooster_comb.mtl
o dynamic
v -1057.910522 -5040.061035 -1526.203369
v -849.145874 -4942.992676 -1739.605835
v -1038.242188 -5152.246094 -1625.982666
v -885.973633 -4804.575684 -1575.737183
v -927.786987 -4792.482910 -1497.851562
v -1032.130493 -4925.315430 -1483.954346
v -1214.165161 -5146.059570 -1358.326294
v -1124.708008 -5007.381836 -1415.149414
v -1244.893066 -5348.666504 -1523.056152
v -985.046143 -5348.081055 -1799.298340
v -1106.307739 -5563.566406 -1669.405762
v -1002.072510 -5710.667969 -1834.896851
v -1006.138062 -5829.123535 -2108.433594
v -892.555908 -5435.883789 -1981.057739
v -733.326660 -5196.491211 -2088.846436
v -842.922607 -5132.252441 -1879.977295
v -839.077026 -5597.969238 -2223.198730
v -845.978760 -5851.055176 -2466.251709
v -1033.968140 -6091.017090 -2342.282715
v -670.258057 -5370.093262 -2336.488037
v -568.908325 -5030.330078 -2183.228516
v -524.229004 -5125.791016 -2325.397461
v -652.929443 -5583.592285 -2577.936768
v -531.122925 -5269.626953 -2452.381592
v -517.584717 -5403.537109 -2597.624268
v -364.313965 -5164.811035 -2584.501953
v -465.671387 -5494.684570 -2757.433594
v -636.970459 -5766.540039 -2762.186035
v -817.156494 -5992.172852 -2683.273193
v -773.804443 -6033.336426 -2781.498047
v -665.818359 -5885.316895 -2817.353027
v -761.036133 -6057.040527 -2819.260010
v -885.930420 -6174.916992 -2735.072754
v -999.889771 -6192.172363 -2581.270264
v -408.301025 -4889.084961 -2273.208008
v -673.252930 -4903.051270 -1930.631104
v -614.340088 -4937.378906 -2035.826782
v -536.703979 -4708.555176 -1940.350952
v -904.491699 -4903.591309 -1782.327148
v -1137.093140 -4983.689453 -1587.322266
v -1138.843018 -5080.627441 -1703.633301
v -932.871582 -4771.188477 -1611.936523
v -929.287842 -5070.768555 -1946.640137
v -1141.610229 -5236.621094 -1920.146606
v -1063.105103 -5314.468262 -2112.700928
v -814.086426 -5138.997559 -2151.181885
v -728.608887 -4863.642090 -1973.359985
v -671.744873 -4896.511230 -2080.135986
v -583.103027 -4675.522949 -1976.165039
v -746.746582 -5315.640625 -2395.526855
v -624.248779 -4990.933105 -2225.944336
v -992.472168 -5488.764648 -2341.601318
v -1248.427734 -5938.341797 -2507.817871
v -985.739502 -5751.558594 -2574.130859
v -1241.416992 -5661.625488 -2290.040039
v -1361.837402 -5454.547852 -2112.589844
v -1388.816406 -5362.446289 -1887.466187
v -1357.506104 -5268.496094 -1609.979004
v -1339.753174 -5056.651855 -1455.264771
v -1089.152466 -4884.720703 -1527.968750
v -1199.759766 -4953.951172 -1473.079834
v -983.906860 -4752.530762 -1541.169434
v -920.554565 -5918.562012 -2763.085449
v -713.202881 -5540.683105 -2624.458984
v -701.032715 -5720.934082 -2811.633789
v -512.070557 -5461.651855 -2793.248047
v -874.197266 -5961.866211 -2858.988770
v -742.369629 -5830.820801 -2876.439453
v -861.901123 -5985.234375 -2897.114990
v -1009.628906 -6086.855957 -2830.551758
v -1139.797852 -6092.570801 -2689.260742
v -586.833984 -5229.965820 -2495.384277
v -570.215088 -5366.068848 -2638.248047
v -410.712158 -5131.779297 -2620.316406
v -582.328491 -5084.428711 -2370.242920
v -454.700073 -4856.053223 -2309.022217
v -742.369629 -5830.820801 -2876.439453
v -811.466553 -6021.134766 -2858.186523
v -704.092529 -5858.066406 -2846.895264
v -861.901123 -5985.234375 -2897.114990
v -701.032715 -5720.934082 -2811.633789
v -669.001465 -5743.737305 -2786.909912
v -636.970459 -5766.540039 -2762.186035
v -665.818359 -5885.316895 -2817.353027
v -761.036133 -6057.040527 -2819.260010
v -947.779785 -6130.883789 -2782.810059
v -885.930420 -6174.916992 -2735.072754
v -999.889771 -6192.172363 -2581.270264
v -1069.844238 -6142.371582 -2635.263916
v -1009.628906 -6086.855957 -2830.551758
v -1139.797852 -6092.570801 -2689.260742
v -932.871582 -4771.188477 -1611.936523
v -876.818481 -4923.291504 -1760.966309
v -909.422485 -4787.881836 -1593.836426
v -904.491699 -4903.591309 -1782.327148
v -983.906860 -4752.530762 -1541.169434
v -955.861938 -4772.622559 -1519.597900
v -927.786987 -4792.482910 -1497.851562
v -885.973633 -4804.575684 -1575.737183
v -849.145874 -4942.992676 -1739.605835
v -842.922607 -5132.252441 -1879.977295
v -886.105957 -5101.510742 -1913.308594
v -929.287842 -5070.768555 -1946.640137
v -570.215088 -5366.068848 -2638.248047
v -683.065552 -5562.137695 -2601.198242
v -543.899658 -5384.802734 -2617.936523
v -713.202881 -5540.683105 -2624.458984
v -410.712158 -5131.779297 -2620.316406
v -387.513184 -5148.295410 -2602.409668
v -364.313965 -5164.811035 -2584.501953
v -517.584717 -5403.537109 -2597.624268
v -652.929443 -5583.592285 -2577.936768
v -1069.844238 -6142.371582 -2635.263916
v -1248.427734 -5938.341797 -2507.817871
v -1142.230713 -6017.363770 -2426.188721
v -1139.797852 -6092.570801 -2689.260742
v -1033.968140 -6091.017090 -2342.282715
v -999.889771 -6192.172363 -2581.270264
v -1123.968750 -5745.767578 -2199.351562
v -1006.138062 -5829.123535 -2108.433594
v -1002.072510 -5710.667969 -1834.896851
v -1181.955078 -5582.607422 -1973.743164
v -1361.837402 -5454.547852 -2112.589844
v -1241.416992 -5661.625488 -2290.040039
v -1240.550781 -5483.191895 -1806.136963
v -1388.816406 -5362.446289 -1887.466187
v -1301.199707 -5308.581055 -1566.517334
v -1106.307739 -5563.566406 -1669.405762
v -1244.893066 -5348.666504 -1523.056152
v -1214.165161 -5146.059570 -1358.326294
v -1276.959473 -5101.355469 -1406.795410
v -1357.506104 -5268.496094 -1609.979004
v -1339.753174 -5056.651855 -1455.264771
v -1089.152466 -4884.720703 -1527.968750
v -955.861938 -4772.622559 -1519.597900
v -1060.655029 -4905.003906 -1505.930542
v -983.906860 -4752.530762 -1541.169434
v -1199.759766 -4953.951172 -1473.079834
v -1162.234131 -4980.666016 -1444.114136
v -1339.753174 -5056.651855 -1455.264771
v -1276.959473 -5101.355469 -1406.795410
v -1214.165161 -5146.059570 -1358.326294
v -1124.708008 -5007.381836 -1415.149414
v -1032.130493 -4925.315430 -1483.954346
v -927.786987 -4792.482910 -1497.851562
v -586.833984 -5229.965820 -2495.384277
v -387.513184 -5148.295410 -2602.409668
v -558.978516 -5249.795898 -2473.883057
v -410.712158 -5131.779297 -2620.316406
v -746.746582 -5315.640625 -2395.526855
v -708.502441 -5342.866211 -2366.007812
v -670.258057 -5370.093262 -2336.488037
v -531.122925 -5269.626953 -2452.381592
v -364.313965 -5164.811035 -2584.501953
v -582.328491 -5084.428711 -2370.242920
v -708.502441 -5342.866211 -2366.007812
v -553.278564 -5105.109863 -2347.820068
v -746.746582 -5315.640625 -2395.526855
v -454.700073 -4856.053223 -2309.022217
v -431.500732 -4872.568359 -2291.114502
v -408.301025 -4889.084961 -2273.208008
v -524.229004 -5125.791016 -2325.397461
v -670.258057 -5370.093262 -2336.488037
v -624.248779 -4990.933105 -2225.944336
v -431.500732 -4872.568359 -2291.114502
v -596.578369 -5010.632324 -2204.586914
v -454.700073 -4856.053223 -2309.022217
v -814.086426 -5138.997559 -2151.181885
v -773.706787 -5167.744629 -2120.014648
v -733.326660 -5196.491211 -2088.846436
v -568.908325 -5030.330078 -2183.228516
v -408.301025 -4889.084961 -2273.208008
v -713.202881 -5540.683105 -2624.458984
v -488.870850 -5478.167480 -2775.340332
v -683.065552 -5562.137695 -2601.198242
v -512.070557 -5461.651855 -2793.248047
v -652.929443 -5583.592285 -2577.936768
v -465.671387 -5494.684570 -2757.433594
v -512.070557 -5461.651855 -2793.248047
v -669.001465 -5743.737305 -2786.909912
v -488.870850 -5478.167480 -2775.340332
v -701.032715 -5720.934082 -2811.633789
v -465.671387 -5494.684570 -2757.433594
v -636.970459 -5766.540039 -2762.186035
v -728.608887 -4863.642090 -1973.359985
v -559.903809 -4692.039062 -1958.258179
v -700.931396 -4883.346191 -1951.994873
v -583.103027 -4675.522949 -1976.165039
v -929.287842 -5070.768555 -1946.640137
v -886.105957 -5101.510742 -1913.308594
v -842.922607 -5132.252441 -1879.977295
v -673.252930 -4903.051270 -1930.631104
v -536.703979 -4708.555176 -1940.350952
v -583.103027 -4675.522949 -1976.165039
v -643.041992 -4916.944824 -2057.981934
v -559.903809 -4692.039062 -1958.258179
v -671.744873 -4896.511230 -2080.135986
v -773.706787 -5167.744629 -2120.014648
v -814.086426 -5138.997559 -2151.181885
v -614.340088 -4937.378906 -2035.826782
v -733.326660 -5196.491211 -2088.846436
v -536.703979 -4708.555176 -1940.350952
vn 0.8444 -0.2753 0.4595
vn 0.8146 -0.2959 0.4988
vn 0.7416 -0.4126 0.5290
vn 0.7416 -0.4125 0.5290
vn 0.7436 -0.3308 0.5810
vn 0.8444 -0.2752 0.4596
vn 0.7418 -0.4123 0.5290
vn 0.4586 -0.4169 0.7847
vn 0.7417 -0.4126 0.5289
vn 0.8146 -0.2962 0.4987
vn 0.5862 -0.1225 0.8008
vn 0.5862 -0.1229 0.8008
vn 0.6044 -0.1657 0.7793
vn 0.7414 -0.4125 0.5293
vn 0.4584 -0.4173 0.7847
vn 0.7417 -0.4125 0.5289
vn 0.6045 -0.1656 0.7792
vn 0.6045 -0.1654 0.7793
vn 0.3758 0.1799 0.9090
vn 0.4586 -0.4170 0.7847
vn 0.4587 -0.4173 0.7845
vn 0.3732 -0.5349 0.7580
vn 0.7436 -0.3310 0.5809
vn 0.7798 -0.2297 0.5824
vn 0.7435 -0.3308 0.5812
vn 0.3728 -0.5352 0.7580
vn 0.3412 -0.5655 0.7509
vn 0.7799 -0.2291 0.5825
vn 0.7799 -0.2292 0.5824
vn 0.3413 -0.5657 0.7507
vn 0.4028 -0.7177 0.5680
vn 0.8505 -0.2919 0.4376
vn 0.4024 -0.7175 0.5686
vn 0.4261 -0.6956 0.5785
vn 0.4024 -0.7176 0.5684
vn 0.8504 -0.2914 0.4382
vn 0.7800 -0.2292 0.5823
vn 0.4262 -0.6956 0.5783
vn 0.8383 -0.3878 0.3832
vn 0.8503 -0.2919 0.4380
vn 0.7738 -0.2879 0.5642
vn 0.7798 -0.2294 0.5824
vn 0.8503 -0.2917 0.4381
vn 0.7961 -0.3596 0.4868
vn 0.8503 -0.2918 0.4380
vn 0.7960 -0.3596 0.4869
vn 0.7740 -0.2878 0.5640
vn 0.8049 -0.4019 0.4366
vn 0.8382 -0.3881 0.3832
vn 0.8073 -0.4322 0.4018
vn 0.4571 -0.6813 0.5718
vn 0.8382 -0.3880 0.3832
vn 0.4261 -0.6956 0.5784
vn 0.4570 -0.6813 0.5719
vn 0.8048 -0.4019 0.4367
vn 0.8046 -0.4021 0.4369
vn 0.8353 -0.4831 0.2626
vn 0.6647 -0.2867 0.6899
vn 0.6647 -0.2866 0.6899
vn 0.7959 -0.3597 0.4869
vn 0.8047 -0.4021 0.4369
vn 0.8072 -0.4323 0.4018
vn 0.7963 -0.4157 0.4394
vn 0.7122 -0.2892 0.6396
vn 0.8046 -0.4022 0.4368
vn 0.7962 -0.4160 0.4393
vn 0.7961 -0.4160 0.4395
vn 0.7990 -0.5374 0.2698
vn 0.7122 -0.2892 0.6397
vn 0.8828 -0.2932 0.3670
vn 0.7121 -0.2895 0.6396
vn 0.7992 -0.5373 0.2696
vn 0.8863 -0.2959 0.3562
vn 0.8239 -0.4444 0.3516
vn 0.8240 -0.4442 0.3516
vn 0.8072 -0.4323 0.4019
vn 0.8073 -0.4323 0.4018
vn 0.7837 -0.4489 0.4293
vn 0.8240 -0.4443 0.3515
vn 0.7836 -0.4488 0.4297
vn 0.7488 -0.4232 0.5100
vn 0.7488 -0.4234 0.5099
vn 0.9143 -0.4048 -0.0118
vn 0.9144 -0.4047 -0.0119
vn 0.4986 -0.5983 -0.6272
vn 0.4988 -0.5982 -0.6272
vn 0.4596 -0.8880 -0.0148
vn 0.4595 -0.8880 -0.0147
vn 0.7836 -0.4487 0.4297
vn 0.4983 -0.7777 0.3833
vn 0.4595 -0.8881 -0.0146
vn 0.4573 -0.6812 0.5717
vn 0.4983 -0.7776 0.3834
vn 0.7837 -0.4490 0.4293
vn 0.7838 -0.4487 0.4294
vn 0.4569 -0.6813 0.5719
vn 0.8793 -0.2297 0.4172
vn 0.6645 -0.2867 0.6901
vn 0.8353 -0.4830 0.2626
vn 0.7438 -0.3306 0.5809
vn 0.7739 -0.2878 0.5642
vn 0.5607 -0.2840 0.7778
vn 0.7738 -0.2880 0.5642
vn 0.7436 -0.3308 0.5811
vn 0.7958 -0.3597 0.4871
vn 0.8788 -0.4182 0.2297
vn 0.5607 -0.2844 0.7777
vn 0.8338 -0.1940 0.5168
vn 0.5606 -0.2844 0.7777
vn 0.8789 -0.4181 0.2297
vn -0.6316 0.5650 -0.5309
vn -0.5270 0.6591 -0.5365
vn -0.4827 0.6694 -0.5647
vn -0.4827 0.6695 -0.5645
vn -0.6143 0.6359 -0.4672
vn -0.6315 0.5651 -0.5309
vn -0.6142 0.6360 -0.4671
vn -0.4828 0.6694 -0.5646
vn -0.5714 0.6697 -0.4743
vn -0.4777 0.6537 -0.5869
vn -0.5450 0.7135 -0.4402
vn -0.5713 0.6698 -0.4743
vn -0.5713 0.6699 -0.4742
vn -0.5450 0.7136 -0.4401
vn -0.6142 0.6361 -0.4671
vn -0.5622 0.6073 -0.5614
vn -0.4778 0.6536 -0.5869
vn -0.5623 0.6072 -0.5614
vn -0.5715 0.6697 -0.4743
vn -0.7361 0.6389 -0.2233
vn -0.7362 0.6389 -0.2233
vn -0.4089 0.4987 -0.7643
vn -0.5623 0.6072 -0.5613
vn -0.4702 0.7342 -0.4897
vn -0.7361 0.6390 -0.2232
vn -0.5029 0.5671 -0.6523
vn -0.4776 0.6536 -0.5871
vn -0.5621 0.6073 -0.5615
vn -0.5621 0.6072 -0.5616
vn -0.5536 0.5652 -0.6116
vn -0.5031 0.5671 -0.6521
vn -0.5538 0.5649 -0.6117
vn -0.5623 0.6071 -0.5614
vn -0.6682 0.6623 -0.3389
vn -0.8589 0.2554 -0.4440
vn -0.8749 0.2306 -0.4259
vn -0.5029 0.5670 -0.6523
vn -0.5031 0.5670 -0.6522
vn -0.5483 0.5327 -0.6446
vn -0.8588 0.2556 -0.4439
vn -0.5483 0.5328 -0.6446
vn -0.5030 0.5671 -0.6522
vn -0.5536 0.5651 -0.6117
vn -0.8749 0.2308 -0.4258
vn -0.8750 0.2307 -0.4256
vn -0.8836 0.1979 -0.4243
vn -0.4774 0.6536 -0.5873
vn -0.5446 0.7139 -0.4403
vn -0.4774 0.6538 -0.5870
vn -0.8836 0.1980 -0.4243
vn -0.8836 0.1977 -0.4245
vn -0.9176 0.3307 -0.2206
vn -0.5447 0.7139 -0.4401
vn -0.5449 0.7139 -0.4399
vn -0.9175 0.3306 -0.2212
vn -0.9008 0.3715 -0.2248
vn -0.9006 0.3718 -0.2253
vn -0.6145 0.6359 -0.4668
vn -0.5453 0.7133 -0.4402
vn -0.6143 0.6358 -0.4673
vn -0.9006 0.3719 -0.2250
vn -0.8363 0.5044 -0.2149
vn -0.6548 0.7308 -0.1926
vn -0.6315 0.5652 -0.5308
vn -0.8362 0.5047 -0.2147
vn -0.8361 0.5048 -0.2146
vn -0.5271 0.8230 0.2118
vn -0.6546 0.7310 -0.1926
vn -0.8362 0.5046 -0.2147
vn -0.6315 0.5653 -0.5307
vn -0.6317 0.5651 -0.5306
vn -0.6550 0.7307 -0.1926
vn -0.6423 0.7520 -0.1478
vn -0.6422 0.7522 -0.1475
vn -0.5270 0.6590 -0.5367
vn -0.8588 0.2554 -0.4440
vn -0.5808 0.5228 -0.6240
vn -0.5186 0.5115 -0.6851
vn -0.5810 0.5226 -0.6240
vn -0.5484 0.5327 -0.6446
vn -0.5650 0.5535 -0.6118
vn -0.5483 0.5330 -0.6445
vn -0.5652 0.5536 -0.6117
vn -0.5188 0.5117 -0.6849
vn -0.4187 0.6331 -0.6510
vn -0.5188 0.5116 -0.6849
vn -0.5654 0.5536 -0.6114
vn -0.5188 0.5115 -0.6850
vn -0.2207 0.4035 -0.8880
vn -0.6245 0.5545 -0.5500
vn -0.6245 0.5544 -0.5501
vn -0.5810 0.5229 -0.6237
vn -0.5189 0.5116 -0.6849
vn -0.2208 0.4034 -0.8880
vn 0.0797 -0.2999 -0.9506
vn 0.0799 -0.2998 -0.9507
vn -0.5680 -0.1564 -0.8080
vn -0.5809 0.5228 -0.6238
vn -0.6245 0.5544 -0.5502
vn -0.5681 -0.1565 -0.8079
vn -0.5681 -0.1564 -0.8080
vn -0.7838 0.1351 -0.6061
vn -0.5811 0.5228 -0.6237
vn -0.5809 0.5225 -0.6241
vn -0.7839 0.1352 -0.6060
vn -0.8588 0.2557 -0.4440
vn -0.6309 0.6667 -0.3968
vn -0.5229 0.4038 -0.7507
vn -0.5654 0.5535 -0.6115
vn -0.5655 0.5534 -0.6116
vn -0.6308 0.6668 -0.3968
vn -0.4251 0.6378 -0.6423
vn -0.6309 0.6666 -0.3970
vn -0.4189 0.6946 -0.5848
vn -0.4791 0.4526 -0.7520
vn -0.6683 0.6622 -0.3389
vn -0.4792 0.4524 -0.7521
vn -0.5539 0.5650 -0.6116
vn 0.2844 -0.4924 -0.8226
vn 0.0802 -0.3000 -0.9506
vn -0.2208 0.4035 -0.8879
vn 0.5587 -0.1072 -0.8224
vn 0.5588 -0.1067 -0.8224
vn -0.5186 0.5116 -0.6850
vn 0.5498 -0.1235 -0.8261
vn 0.5588 -0.1068 -0.8224
vn 0.5498 -0.1236 -0.8261
vn 0.8241 -0.4441 0.3515
vn 0.8241 -0.4442 0.3514
vn 0.9144 -0.4046 -0.0117
vn 0.4985 -0.5979 -0.6277
vn 0.2842 -0.4923 -0.8227
vn 0.2845 -0.4923 -0.8226
vn 0.5586 -0.1072 -0.8225
vn 0.9144 -0.4046 -0.0118
vn 0.4984 -0.5982 -0.6275
vn 0.4598 -0.8879 -0.0143
vn -0.1432 -0.8130 -0.5644
vn -0.1431 -0.8129 -0.5646
vn 0.2841 -0.4928 -0.8224
vn 0.4984 -0.5983 -0.6275
vn -0.5814 -0.8136 0.0030
vn -0.1436 -0.8132 -0.5640
vn 0.4598 -0.8879 -0.0144
vn 0.4599 -0.8878 -0.0144
vn 0.4980 -0.7779 0.3833
vn -0.5814 -0.8136 0.0029
vn -0.5683 -0.1559 -0.8079
vn -0.1437 -0.8132 -0.5640
vn -0.7838 0.1345 -0.6062
vn -0.5682 -0.1561 -0.8080
vn -0.1431 -0.8131 -0.5643
vn -0.5685 -0.1560 -0.8078
vn 0.0800 -0.3003 -0.9505
vn 0.0802 -0.3004 -0.9504
vn 0.2841 -0.4929 -0.8224
vn -0.1431 -0.8130 -0.5644
vn 0.7233 0.5043 -0.4718
vn -0.4823 0.6696 -0.5648
vn -0.5267 0.6593 -0.5367
vn -0.5268 0.6591 -0.5367
vn 0.6727 0.7065 -0.2200
vn 0.7233 0.5044 -0.4717
vn 0.6725 0.7067 -0.2197
vn -0.5267 0.6592 -0.5366
vn -0.6420 0.7523 -0.1476
vn -0.6420 0.7524 -0.1476
vn -0.1129 0.6532 0.7487
vn 0.6727 0.7066 -0.2196
vn 0.6726 0.7066 -0.2196
vn 0.5864 -0.1223 0.8007
vn 0.5862 -0.1221 0.8009
vn 0.8147 -0.2957 0.4988
vn 0.6726 0.7067 -0.2197
vn 0.8148 -0.2958 0.4986
vn 0.8446 -0.2749 0.4595
vn 0.7232 0.5044 -0.4718
vn 0.6727 0.7065 -0.2198
vn 0.8445 -0.2750 0.4595
vn 0.7737 -0.2881 0.5643
vn 0.2763 0.8578 0.4335
vn 0.2762 0.8578 0.4334
vn 0.7232 0.5041 -0.4721
vn -0.5716 0.6697 -0.4741
vn -0.4823 0.6697 -0.5648
vn -0.4825 0.6696 -0.5647
vn 0.7232 0.5040 -0.4721
vn 0.2761 0.8580 0.4332
vn 0.6824 0.6866 -0.2508
vn -0.5226 0.4036 -0.7510
vn -0.5225 0.4034 -0.7511
vn 0.4291 -0.3151 -0.8465
vn 0.6822 0.6868 -0.2508
vn 0.4292 -0.3150 -0.8465
vn -0.4247 0.6380 -0.6423
vn -0.4250 0.6379 -0.6423
vn 0.7169 0.5668 -0.4060
vn 0.7169 0.5668 -0.4059
vn 0.8830 -0.2928 0.3670
vn 0.8828 -0.2930 0.3671
vn 0.7992 -0.5374 0.2693
vn 0.6824 0.6867 -0.2507
vn 0.7992 -0.5375 0.2692
vn 0.7991 -0.5375 0.2692
vn 0.7962 -0.4157 0.4396
vn -0.8590 0.2551 -0.4439
vn -0.7841 0.1348 -0.6058
vn -0.5816 -0.8135 0.0033
vn -0.5817 -0.8134 0.0033
vn -0.7206 -0.5386 0.4367
vn -0.8590 0.2551 -0.4438
vn 0.4568 -0.6815 0.5718
vn -0.7205 -0.5387 0.4367
vn 0.4979 -0.7778 0.3835
vn 0.4568 -0.6814 0.5718
vn 0.4569 -0.6812 0.5721
vn 0.4260 -0.6954 0.5788
vn -0.7195 -0.5478 0.4269
vn -0.7195 -0.5479 0.4268
vn -0.7205 -0.5383 0.4371
vn 0.4568 -0.6814 0.5719
vn -0.6833 -0.6845 0.2541
vn -0.7195 -0.5483 0.4263
vn 0.4260 -0.6956 0.5785
vn 0.4024 -0.7176 0.5685
vn -0.8837 0.1979 -0.4242
vn -0.8750 0.2305 -0.4257
vn -0.6833 -0.6845 0.2540
vn -0.6814 -0.6889 0.2474
vn -0.7209 -0.5473 0.4253
vn -0.6814 -0.6888 0.2475
vn 0.4024 -0.7177 0.5684
vn -0.6815 -0.6888 0.2474
vn -0.9176 0.3305 -0.2209
vn -0.9176 0.3306 -0.2208
vn -0.6814 -0.6887 0.2477
vn -0.7173 -0.5644 0.4087
vn -0.7174 -0.5643 0.4086
vn 0.3414 -0.5656 0.7507
vn 0.3414 -0.5657 0.7507
vn -0.6814 -0.6888 0.2474
vn 0.3412 -0.5655 0.7508
vn 0.3729 -0.5353 0.7579
vn 0.3728 -0.5350 0.7582
vn 0.4582 -0.4176 0.7846
vn -0.6396 -0.0681 0.7657
vn -0.6395 -0.0681 0.7658
vn -0.7174 -0.5639 0.4091
vn 0.3726 -0.5350 0.7582
vn -0.8364 0.5045 -0.2144
vn -0.9008 0.3716 -0.2246
vn -0.9008 0.3715 -0.2246
vn -0.7173 -0.5640 0.4091
vn -0.7173 -0.5643 0.4088
vn -0.9008 0.3715 -0.2249
vn -0.9176 0.3305 -0.2210
vn -0.8751 0.2305 -0.4256
vn -0.8589 0.2554 -0.4438
vn -0.8590 0.2554 -0.4437
vn -0.7206 -0.5382 0.4372
vn -0.1129 0.6530 0.7489
vn -0.6422 0.7523 -0.1473
vn -0.6546 0.7312 -0.1921
vn -0.6548 0.7309 -0.1923
vn -0.2324 0.5472 0.8041
vn -0.1129 0.6531 0.7488
vn -0.2315 0.5472 0.8044
vn -0.6546 0.7311 -0.1922
vn -0.5274 0.8228 0.2120
vn -0.5272 0.8229 0.2117
vn -0.2007 0.5767 0.7919
vn -0.2314 0.5472 0.8044
vn -0.2010 0.5763 0.7921
vn -0.5273 0.8229 0.2117
vn -0.8363 0.5046 -0.2143
vn -0.8362 0.5047 -0.2144
vn -0.6396 -0.0682 0.7657
vn -0.2011 0.5763 0.7921
vn -0.6395 -0.0682 0.7657
vn 0.4584 -0.4170 0.7849
vn 0.4581 -0.4171 0.7850
vn 0.3760 0.1799 0.9090
vn 0.3760 0.1800 0.9090
vn 0.6042 -0.1651 0.7795
vn -0.2312 0.5471 0.8045
vn -0.2313 0.5472 0.8044
vn 0.3760 0.1798 0.9090
vn -0.1130 0.6531 0.7488
vn -0.2318 0.5467 0.8046
vn 0.6042 -0.1652 0.7795
vn 0.5858 -0.1226 0.8011
vn -0.1131 0.6532 0.7487
vn -0.4246 0.6378 -0.6426
vn -0.6306 0.6671 -0.3966
vn -0.6308 0.6669 -0.3967
vn 0.0268 0.7519 0.6587
vn 0.7168 0.5668 -0.4061
vn 0.0269 0.7519 0.6587
vn -0.6307 0.6670 -0.3967
vn -0.5536 0.5650 -0.6118
vn 0.7228 0.4226 -0.5468
vn 0.7230 0.4226 -0.5466
vn 0.8047 -0.4021 0.4368
vn 0.7121 -0.2891 0.6398
vn 0.0268 0.7519 0.6588
vn 0.7169 0.5667 -0.4060
vn 0.7121 -0.2890 0.6398
vn 0.7120 -0.2890 0.6399
vn 0.8828 -0.2933 0.3669
vn 0.7229 0.4228 -0.5465
vn -0.5538 0.5651 -0.6115
vn -0.4788 0.4524 -0.7524
vn -0.4790 0.4523 -0.7523
vn 0.5155 -0.1835 -0.8370
vn 0.7227 0.4229 -0.5467
vn 0.5156 -0.1832 -0.8370
vn -0.4789 0.4525 -0.7523
vn -0.4187 0.6947 -0.5848
vn 0.6895 0.6697 -0.2757
vn 0.6896 0.6696 -0.2757
vn 0.8794 -0.2292 0.4172
vn 0.8794 -0.2294 0.4172
vn 0.8354 -0.4831 0.2621
vn 0.8354 -0.4832 0.2621
vn 0.8046 -0.4019 0.4371
vn 0.6896 0.6695 -0.2760
vn -0.4186 0.6946 -0.5850
vn -0.6681 0.6626 -0.3385
vn -0.6682 0.6625 -0.3385
vn -0.1536 0.6192 0.7701
vn 0.6896 0.6695 -0.2761
vn -0.1539 0.6189 0.7702
vn -0.5623 0.6069 -0.5617
vn 0.6819 0.6877 -0.2492
vn -0.1538 0.6190 0.7702
vn 0.7960 -0.3597 0.4868
vn 0.7959 -0.3599 0.4869
vn 0.6645 -0.2864 0.6903
vn 0.6645 -0.2865 0.6902
vn 0.8795 -0.2295 0.4169
vn 0.6896 0.6695 -0.2762
vn 0.6897 0.6694 -0.2760
vn 0.6646 -0.2864 0.6902
vn 0.7236 0.4965 -0.4795
vn -0.4184 0.6331 -0.6513
vn -0.5652 0.5533 -0.6119
vn -0.5653 0.5534 -0.6117
vn 0.6823 0.6868 -0.2505
vn 0.7237 0.4964 -0.4795
vn 0.7235 0.4965 -0.4796
vn 0.6824 0.6867 -0.2506
vn 0.7963 -0.4160 0.4391
vn 0.7963 -0.4160 0.4393
vn 0.8863 -0.2960 0.3562
vn 0.7233 0.4966 -0.4798
vn 0.5495 -0.1241 -0.8262
vn -0.5188 0.5114 -0.6851
vn -0.4185 0.6332 -0.6510
vn -0.4188 0.6331 -0.6510
vn 0.7234 0.4966 -0.4797
vn 0.5494 -0.1241 -0.8263
vn 0.8865 -0.2953 0.3562
vn 0.8864 -0.2956 0.3563
vn 0.8240 -0.4444 0.3514
vn 0.5748 0.8182 0.0099
vn -0.4699 0.7344 -0.4897
vn -0.7362 0.6391 -0.2226
vn -0.7363 0.6389 -0.2226
vn -0.3665 0.3974 0.8413
vn 0.5749 0.8182 0.0100
vn -0.3664 0.3975 0.8413
vn -0.7360 0.6393 -0.2227
vn -0.5713 0.6698 -0.4744
vn -0.5714 0.6696 -0.4744
vn 0.2761 0.8578 0.4334
vn 0.7739 -0.2879 0.5640
vn 0.7740 -0.2880 0.5639
vn 0.5603 -0.2839 0.7781
vn -0.3666 0.3973 0.8413
vn 0.5604 -0.2838 0.7781
vn 0.8340 -0.1940 0.5166
vn 0.6033 -0.0172 -0.7973
vn -0.4084 0.4987 -0.7646
vn -0.4702 0.7345 -0.4893
vn 0.5747 0.8183 0.0101
vn 0.6818 0.6878 -0.2490
vn -0.5624 0.6073 -0.5612
vn -0.4085 0.4985 -0.7646
vn 0.6031 -0.0175 -0.7975
vn 0.6817 0.6879 -0.2490
vn 0.8790 -0.4182 0.2291
vn 0.7958 -0.3597 0.4872
vn 0.6819 0.6878 -0.2490
vn 0.6032 -0.0175 -0.7974
vn 0.8791 -0.4181 0.2290
vn 0.8337 -0.1938 0.5171
vn 0.8791 -0.4180 0.2292
vn 0.6032 -0.0172 -0.7974
vn 0.5748 0.8183 0.0101
vn 0.8338 -0.1935 0.5171
vt 0.034050 0.085820
vt 0.033280 0.071740
vt 0.051990 0.076110
vt 0.053850 0.085810
vt 0.067080 0.069710
vt 0.036260 0.066780
vt 0.046810 0.069850
vt 0.055860 0.068340
vt 0.073560 0.085420
vt 0.056240 0.103220
vt 0.074530 0.104460
vt 0.073040 0.120230
vt 0.051650 0.117190
vt 0.069160 0.139060
vt 0.049430 0.136520
vt 0.038790 0.100300
vt 0.031710 0.114420
vt 0.029780 0.134270
vt 0.053390 0.158930
vt 0.074530 0.161130
vt 0.013810 0.125170
vt 0.015450 0.113860
vt 0.031240 0.155030
vt 0.016700 0.136980
vt 0.017670 0.149710
vt 0.001820 0.140520
vt 0.014890 0.161740
vt 0.033050 0.171710
vt 0.051940 0.175700
vt 0.049100 0.182560
vt 0.037570 0.179070
vt 0.048490 0.185490
vt 0.060830 0.185240
vt 0.070530 0.177520
vt 0.000470 0.114070
vt 0.020710 0.095510
vt 0.017070 0.102740
vt 0.006480 0.089730
vt 0.333360 0.350940
vt 0.328620 0.350940
vt 0.329760 0.363620
vt 0.333360 0.363620
vt 0.330350 0.372300
vt 0.333360 0.372300
vt 0.327540 0.338580
vt 0.333360 0.338580
vt 0.333360 0.326130
vt 0.326780 0.326130
vt 0.334910 0.627390
vt 0.332310 0.627390
vt 0.332710 0.641500
vt 0.334910 0.641500
vt 0.332270 0.647270
vt 0.334910 0.647260
vt 0.330850 0.612170
vt 0.334910 0.612170
vt 0.333940 0.464820
vt 0.331110 0.464820
vt 0.331470 0.479480
vt 0.333940 0.479480
vt 0.331760 0.497900
vt 0.333940 0.497900
vt 0.308830 0.630600
vt 0.312250 0.647240
vt 0.318830 0.647270
vt 0.318920 0.630780
vt 0.307840 0.607780
vt 0.318910 0.607800
vt 0.318910 0.589350
vt 0.301990 0.589350
vt 0.318920 0.576160
vt 0.305630 0.573900
vt 0.318900 0.556520
vt 0.313600 0.556530
vt 0.312980 0.539490
vt 0.318880 0.539480
vt 0.317210 0.429050
vt 0.314570 0.429040
vt 0.314530 0.440030
vt 0.317210 0.440030
vt 0.313680 0.449180
vt 0.317210 0.449180
vt 0.311300 0.460250
vt 0.317210 0.460250
vt 0.334700 0.498840
vt 0.332520 0.498840
vt 0.332080 0.514220
vt 0.334700 0.514220
vt 0.331110 0.527620
vt 0.334700 0.527620
vt 0.334450 0.538780
vt 0.330850 0.538780
vt 0.331720 0.557230
vt 0.334450 0.557230
vt 0.332270 0.574650
vt 0.334450 0.574650
vt 0.591540 0.326570
vt 0.591540 0.328750
vt 0.606590 0.329170
vt 0.606590 0.326570
vt 0.622900 0.330360
vt 0.622900 0.326570
vt 0.318150 0.429040
vt 0.318150 0.431220
vt 0.335930 0.431880
vt 0.335930 0.429040
vt 0.313870 0.382010
vt 0.310860 0.382010
vt 0.311690 0.402840
vt 0.313870 0.402840
vt 0.591540 0.331310
vt 0.591540 0.333490
vt 0.606960 0.333910
vt 0.606960 0.331310
vt 0.625690 0.335370
vt 0.625690 0.331310
vt 0.334650 0.594380
vt 0.331950 0.594380
vt 0.332470 0.611220
vt 0.334650 0.611220
vt 0.334650 0.575600
vt 0.330850 0.575600
s 0
usemtl mat0.1005
f 2/1/1 4/2/2 1/3/3
f 1/3/4 3/4/5 2/1/6
f 3/4/5 1/3/7 7/5/8
f 1/3/9 4/2/10 5/6/11
f 5/6/12 6/7/13 1/3/14
f 7/5/15 1/3/16 6/7/17
f 6/7/18 8/8/19 7/5/20
f 7/5/21 9/9/22 3/4/23
f 10/10/24 3/4/25 9/9/22
f 9/9/26 11/11/27 10/10/28
f 10/10/29 11/11/30 12/12/31
f 14/13/32 12/12/33 13/14/34
f 12/12/35 14/13/36 10/10/37
f 13/14/38 17/15/39 14/13/40
f 16/16/41 10/10/42 14/13/43
f 15/17/44 14/13/45 17/15/39
f 14/13/45 15/17/46 16/16/47
f 20/18/48 17/15/49 18/19/50
f 19/20/51 18/19/50 17/15/52
f 17/15/49 13/14/53 19/20/54
f 17/15/39 20/18/55 15/17/46
f 20/18/56 22/21/57 21/22/58
f 21/22/59 15/17/60 20/18/61
f 18/19/62 23/23/63 20/18/48
f 24/24/64 20/18/65 23/23/66
f 23/23/67 25/25/68 24/24/69
f 26/26/70 24/24/71 25/25/72
f 27/27/73 23/23/66 28/28/74
f 28/28/75 23/23/63 18/19/76
f 18/19/77 29/29/78 28/28/79
f 28/28/75 29/29/80 30/30/81
f 30/30/82 31/31/83 28/28/79
f 31/31/84 30/30/82 32/32/85
f 32/32/86 30/30/82 33/33/87
f 33/33/88 30/30/82 29/29/80
f 29/29/89 34/34/90 33/33/91
f 19/20/92 34/34/93 29/29/94
f 29/29/95 18/19/77 19/20/96
f 35/35/97 21/22/98 22/21/99
f 3/4/100 10/10/42 16/16/101
f 36/36/102 16/16/103 15/17/60
f 16/16/103 2/1/6 3/4/104
f 15/17/105 37/37/106 36/36/107
f 38/38/108 36/36/109 37/37/110
f 40/3/111 42/2/112 39/1/113
f 39/1/114 41/4/115 40/3/116
f 41/4/117 39/1/118 43/16/119
f 45/13/120 44/10/121 43/16/122
f 43/16/123 44/10/124 41/4/125
f 43/16/123 46/17/126 45/13/127
f 46/17/128 43/16/129 47/36/130
f 47/36/131 48/37/132 46/17/133
f 49/38/134 48/37/132 47/36/135
f 52/15/136 45/13/137 46/17/138
f 46/17/139 50/18/140 52/15/141
f 50/18/142 46/17/143 51/22/144
f 53/20/145 55/14/146 52/15/147
f 52/15/148 54/19/149 53/20/150
f 54/19/151 52/15/152 50/18/153
f 45/13/137 52/15/152 55/14/154
f 55/14/155 56/12/156 45/13/157
f 44/10/158 45/13/159 56/12/160
f 56/12/161 57/11/162 44/10/163
f 44/10/164 57/11/165 58/9/166
f 58/9/167 41/4/168 44/10/169
f 41/4/170 58/9/171 59/5/172
f 60/7/173 40/3/174 59/5/175
f 59/5/176 61/8/177 60/7/178
f 59/5/179 40/3/180 41/4/125
f 40/3/181 60/7/182 62/6/183
f 62/6/184 42/2/185 40/3/111
f 53/20/186 54/19/149 63/29/187
f 65/28/188 63/29/189 54/19/190
f 50/18/153 64/23/191 54/19/192
f 54/19/192 64/23/193 65/28/194
f 66/27/195 65/28/196 64/23/197
f 65/28/198 68/31/199 67/30/200
f 67/30/201 63/29/202 65/28/203
f 68/31/204 69/32/205 67/30/201
f 69/32/206 70/33/207 67/30/201
f 63/29/208 67/30/209 70/33/210
f 70/33/211 71/34/212 63/29/213
f 63/29/214 71/34/215 53/20/216
f 72/24/217 73/25/218 64/23/219
f 64/23/220 50/18/142 72/24/221
f 74/26/222 73/25/218 72/24/223
f 76/35/224 75/21/225 51/22/226
f 51/22/226 75/21/227 50/18/228
f 78/39/229 80/40/230 77/41/204
f 77/41/231 79/42/232 78/39/229
f 79/42/233 77/41/231 81/43/234
f 81/43/234 82/44/235 79/42/233
f 79/42/236 82/44/237 83/43/238
f 83/43/239 84/41/240 79/42/233
f 84/41/84 85/40/241 78/39/242
f 78/39/243 79/42/244 84/41/245
f 85/40/246 87/45/247 86/46/248
f 86/46/249 78/39/250 85/40/251
f 89/47/252 86/46/253 87/45/254
f 87/45/255 88/48/256 89/47/257
f 90/45/258 86/46/259 89/47/252
f 89/47/257 91/48/260 90/45/261
f 86/46/262 90/45/263 80/40/264
f 80/40/265 78/39/266 86/46/267
f 93/49/268 95/50/269 92/51/270
f 92/51/271 94/52/272 93/49/273
f 94/52/274 92/51/275 96/53/276
f 96/53/277 97/54/278 94/52/279
f 94/52/280 97/54/278 98/53/281
f 98/53/282 99/51/283 94/52/284
f 99/51/285 100/50/286 93/49/268
f 93/49/287 94/52/288 99/51/283
f 100/50/289 101/55/290 102/56/291
f 102/56/292 93/49/293 100/50/289
f 102/56/292 103/55/294 95/50/295
f 95/50/296 93/49/297 102/56/298
f 105/57/299 107/58/219 104/59/300
f 104/59/301 106/60/302 105/57/303
f 106/60/304 104/59/300 108/61/305
f 108/61/306 109/62/307 106/60/304
f 106/60/304 109/62/308 110/61/309
f 110/61/310 111/59/311 106/60/304
f 105/57/312 106/60/302 111/59/313
f 111/59/314 112/58/315 105/57/312
f 114/63/316 116/64/317 113/65/318
f 113/65/319 115/66/320 114/63/321
f 117/63/322 115/66/323 113/65/319
f 113/65/319 118/64/324 117/63/325
f 117/63/326 120/67/327 119/68/328
f 119/68/329 115/66/330 117/63/331
f 122/69/332 119/68/333 120/67/334
f 120/67/334 121/70/335 122/69/332
f 122/69/332 123/70/336 124/67/337
f 123/70/156 122/69/338 125/71/339
f 124/67/337 119/68/340 122/69/332
f 125/71/341 122/69/332 121/70/342
f 125/71/343 126/72/344 123/70/156
f 126/72/345 125/71/346 127/73/347
f 127/73/348 125/71/346 128/72/349
f 121/70/342 128/72/350 125/71/351
f 128/72/352 129/74/353 127/73/347
f 129/74/354 130/75/355 131/76/356
f 131/76/357 127/73/358 129/74/359
f 131/76/356 133/75/360 132/74/361
f 132/74/362 127/73/363 131/76/357
f 127/73/364 132/74/365 126/72/366
f 119/68/328 124/67/367 114/63/368
f 114/63/369 115/66/370 119/68/329
f 135/77/371 137/78/372 134/79/373
f 134/79/374 136/80/375 135/77/376
f 136/80/377 134/79/378 138/81/379
f 138/81/380 139/82/381 136/80/382
f 139/82/383 138/81/384 140/83/385
f 140/83/386 141/84/387 139/82/383
f 139/82/388 141/84/389 142/83/390
f 142/83/391 143/81/392 139/82/383
f 143/81/393 144/79/394 136/80/395
f 136/80/396 139/82/381 143/81/397
f 135/77/398 136/80/399 144/79/400
f 144/79/400 145/78/401 135/77/402
f 147/85/307 149/86/403 146/87/404
f 146/87/405 148/88/406 147/85/407
f 148/88/408 146/87/409 150/89/410
f 150/89/142 151/90/411 148/88/408
f 148/88/408 151/90/412 152/89/48
f 152/89/413 153/87/414 148/88/415
f 147/85/416 148/88/406 153/87/417
f 153/87/418 154/86/419 147/85/307
f 156/91/420 158/92/421 155/93/422
f 155/93/423 157/94/424 156/91/425
f 157/94/426 155/93/427 159/95/428
f 159/95/428 160/96/429 157/94/426
f 157/94/426 160/96/430 161/95/431
f 161/95/432 162/93/433 157/94/426
f 156/91/420 157/94/424 162/93/433
f 162/93/434 163/92/435 156/91/420
f 165/97/436 167/98/437 164/99/438
f 164/99/439 166/100/440 165/97/441
f 166/100/442 164/99/439 168/101/139
f 168/101/443 169/102/444 166/100/445
f 166/100/445 169/102/444 170/101/446
f 170/101/447 171/99/448 166/100/442
f 171/99/449 172/98/450 165/97/451
f 165/97/452 166/100/440 171/99/453
f 174/103/454 176/104/455 173/105/456
f 173/105/457 175/106/458 174/103/459
f 174/103/460 175/106/461 177/105/462
f 177/105/463 178/104/464 174/103/465
f 180/107/466 182/108/467 179/109/468
f 179/109/469 181/110/470 180/107/471
f 180/107/471 181/110/454 183/109/472
f 183/109/473 184/108/474 180/107/466
f 186/111/475 188/112/476 185/113/477
f 185/113/478 187/114/479 186/111/480
f 187/114/481 185/113/482 189/115/483
f 189/115/484 190/116/485 187/114/481
f 187/114/481 190/116/485 191/115/486
f 191/115/487 192/113/488 187/114/481
f 186/111/475 187/114/489 192/113/490
f 192/113/488 193/112/491 186/111/475
f 195/117/492 197/118/493 194/119/494
f 194/119/494 196/120/495 195/117/492
f 198/121/496 199/122/497 197/118/498
f 197/118/498 195/117/499 198/121/500
f 200/118/501 201/122/502 198/121/503
f 198/121/503 195/117/504 200/118/505
f 202/119/506 200/118/507 195/117/508
f 195/117/508 196/120/509 202/119/510
