# Blender 4.2.3 LTS
# www.blender.org
mtllib star.mtl
o dynamic
v 53.942394 -143.408798 -30.663055
v 51.296547 -137.061462 -23.111488
v 54.520832 -142.383469 -25.250565
v 55.808525 -147.690536 -21.580149
v 57.428562 -146.691330 -27.878731
v 60.706146 -151.002060 -31.616430
v 58.483086 -145.062531 -33.370098
v 59.221050 -142.419662 -39.350552
v 56.227085 -139.748016 -34.135769
v 53.405594 -133.803909 -34.094193
v 53.778290 -138.092255 -29.117632
v 54.520832 -142.383469 -25.250565
v 51.296547 -137.061462 -23.111488
v 58.232761 -141.382263 -29.238068
v 55.808525 -147.690536 -21.580149
v 57.428562 -146.691330 -27.878731
v 60.706146 -151.002060 -31.616430
v 58.483086 -145.062531 -33.370098
v 59.221050 -142.419662 -39.350552
v 56.227085 -139.748016 -34.135769
v 53.405594 -133.803909 -34.094193
v 53.778290 -138.092255 -29.117632
vn 0.0694 -0.8704 -0.4874
vn 0.0695 -0.8704 -0.4875
vn 0.0694 -0.8704 -0.4875
vn 0.3892 -0.8581 0.3349
vn 0.3892 -0.8581 0.3348
vn 0.0402 -0.9964 0.0753
vn 0.0401 -0.9964 0.0750
vn 0.8141 -0.5777 0.0594
vn 0.8140 -0.5778 0.0597
vn 0.5131 -0.7910 0.3333
vn 0.5132 -0.7911 0.3329
vn 0.5132 -0.7910 0.3331
vn 0.6734 -0.5436 -0.5011
vn 0.6733 -0.5434 -0.5013
vn 0.6734 -0.5435 -0.5011
vn 0.8395 -0.5384 -0.0730
vn 0.8394 -0.5385 -0.0731
vn 0.8394 -0.5385 -0.0730
vn 0.1641 -0.8050 -0.5701
vn 0.1642 -0.8049 -0.5703
vn 0.1641 -0.8051 -0.5700
vn 0.5649 -0.5868 -0.5801
vn 0.5649 -0.5866 -0.5803
vn -0.0134 -0.9983 -0.0561
vn -0.0134 -0.9983 -0.0562
vn -0.4222 0.6541 0.6276
vn -0.4221 0.6542 0.6276
vn -0.7726 0.5174 0.3679
vn -0.7726 0.5175 0.3679
vn 0.0019 0.9358 0.3525
vn 0.0017 0.9359 0.3524
vn -0.2982 0.7208 0.6257
vn -0.2982 0.7209 0.6256
vn -0.1379 0.9683 -0.2085
vn -0.1379 0.9682 -0.2087
vn -0.1380 0.9683 -0.2083
vn 0.0272 0.9751 0.2199
vn 0.0271 0.9751 0.2200
vn -0.6486 0.7089 -0.2771
vn -0.6488 0.7088 -0.2768
vn -0.2465 0.9255 -0.2875
vn -0.2464 0.9256 -0.2873
vn -0.2464 0.9255 -0.2875
vn -0.8251 0.5132 0.2364
vn -0.8250 0.5133 0.2364
vn -0.8250 0.5134 0.2363
vn -0.7422 0.6412 -0.1949
vn -0.7422 0.6412 -0.1950
vn -0.7423 0.6411 -0.1949
vt 0.870600 0.206480
vt 0.870760 0.137520
vt 0.795760 0.240260
vt 0.805130 0.158680
vt 0.749880 0.097950
vt 0.830350 0.081640
vt 0.871040 0.010330
vt 0.911410 0.081830
vt 0.991810 0.098490
vt 0.936290 0.158980
vt 0.945290 0.240590
vt 0.686780 0.159530
vt 0.621730 0.136670
vt 0.694020 0.241320
vt 0.743600 0.100250
vt 0.663580 0.081860
vt 0.624760 0.009510
vt 0.582540 0.079930
vt 0.501730 0.094500
vt 0.555660 0.156410
vt 0.544540 0.237760
vt 0.620090 0.205610
s 0
usemtl mat3.006
f 11/1/1 1/2/2 2/3/3
f 1/2/4 3/4/5 2/3/5
f 3/4/6 1/2/7 4/5/7
f 4/5/8 1/2/8 5/6/9
f 5/6/10 1/2/11 6/7/12
f 6/7/13 1/2/14 7/8/15
f 7/8/16 1/2/17 8/9/18
f 8/9/19 1/2/20 9/10/21
f 9/10/22 1/2/22 10/11/23
f 10/11/24 1/2/24 11/1/25
f 12/12/26 14/13/26 13/14/27
f 14/13/28 12/12/29 15/15/28
f 14/13/30 15/15/31 16/16/30
f 14/13/32 16/16/32 17/17/33
f 14/13/34 17/17/35 18/18/36
f 14/13/37 18/18/38 19/19/38
f 14/13/39 19/19/39 20/20/40
f 14/13/41 20/20/42 21/21/43
f 14/13/44 21/21/45 22/22/46
f 14/13/47 22/22/48 13/14/49
