# Blender 4.2.3 LTS
# www.blender.org
mtllib star.mtl
o dynamic
v 199.762253 -98.573448 61.486511
v 193.871628 -93.032135 67.724258
v 199.807419 -94.633720 65.379768
v 205.405090 -94.243370 68.816162
v 204.661789 -96.237183 62.589828
v 209.580750 -98.221100 58.695824
v 203.185577 -97.851784 57.192234
v 200.628021 -99.468277 51.349205
v 197.418869 -97.246185 56.646294
v 190.919266 -96.261307 56.929100
v 195.331039 -95.257301 61.706451
v 199.807419 -94.633720 65.379768
v 193.871628 -93.032135 67.724258
v 200.399643 -93.917023 59.919312
v 205.405090 -94.243370 68.816162
v 204.661789 -96.237183 62.589828
v 209.580750 -98.221100 58.695824
v 203.185577 -97.851784 57.192234
v 200.628021 -99.468277 51.349205
v 197.418869 -97.246185 56.646294
v 190.919266 -96.261307 56.929100
v 195.331039 -95.257301 61.706451
vn 0.7204 -0.6468 -0.2502
vn 0.7204 -0.6468 -0.2504
vn 0.7203 -0.6469 -0.2504
vn 0.9682 0.0384 0.2474
vn 0.9682 0.0383 0.2473
vn 0.8772 -0.4088 0.2518
vn 0.8771 -0.4091 0.2516
vn 0.8771 -0.4090 0.2516
vn 0.9156 0.3023 -0.2651
vn 0.9157 0.3023 -0.2648
vn 0.9743 0.1528 0.1654
vn 0.9744 0.1526 0.1650
vn 0.9744 0.1527 0.1652
vn 0.7501 -0.0925 -0.6548
vn 0.7499 -0.0926 -0.6550
vn 0.8800 0.2634 -0.3952
vn 0.8800 0.2632 -0.3953
vn 0.8801 0.2633 -0.3952
vn 0.7038 -0.5986 -0.3825
vn 0.7036 -0.5986 -0.3828
vn 0.7038 -0.5986 -0.3824
vn 0.7222 -0.2307 -0.6520
vn 0.7221 -0.2307 -0.6522
vn 0.8363 -0.5200 0.1737
vn 0.8363 -0.5200 0.1736
vn 0.8363 -0.5201 0.1736
vn -0.7010 0.3856 0.5999
vn -0.7010 0.3856 0.6000
vn -0.7010 0.3857 0.5999
vn -0.7940 -0.0619 0.6047
vn -0.7941 -0.0619 0.6046
vn -0.7550 0.6498 0.0879
vn -0.7551 0.6496 0.0879
vn -0.7550 0.6499 0.0880
vn -0.6944 0.4997 0.5177
vn -0.6944 0.4998 0.5177
vn -0.6945 0.4997 0.5176
vn -0.9186 0.2546 -0.3022
vn -0.9186 0.2544 -0.3025
vn -0.9187 0.2546 -0.3021
vn -0.7907 0.6108 -0.0422
vn -0.7907 0.6107 -0.0421
vn -0.7907 0.6107 -0.0422
vn -0.9674 -0.2514 -0.0293
vn -0.9675 -0.2513 -0.0289
vn -0.9470 0.1166 -0.2995
vn -0.9470 0.1168 -0.2994
vn -0.9469 0.1166 -0.2996
vn -0.8324 -0.1735 0.5263
vn -0.8324 -0.1734 0.5263
vn -0.8325 -0.1734 0.5262
vn -0.9484 -0.3002 0.1024
vn -0.9484 -0.3003 0.1023
vn -0.9483 -0.3003 0.1025
vt 0.870600 0.206480
vt 0.870760 0.137520
vt 0.795760 0.240260
vt 0.805130 0.158680
vt 0.749880 0.097950
vt 0.830350 0.081640
vt 0.871040 0.010330
vt 0.911410 0.081830
vt 0.991810 0.098490
vt 0.936290 0.158980
vt 0.945290 0.240590
vt 0.686780 0.159530
vt 0.621730 0.136670
vt 0.694020 0.241320
vt 0.743600 0.100250
vt 0.663580 0.081860
vt 0.624760 0.009510
vt 0.582540 0.079930
vt 0.501730 0.094500
vt 0.555660 0.156410
vt 0.544540 0.237760
vt 0.620090 0.205610
s 0
usemtl mat3.006
f 11/1/1 1/2/2 2/3/3
f 1/2/4 3/4/5 2/3/5
f 3/4/6 1/2/7 4/5/8
f 4/5/9 1/2/9 5/6/10
f 5/6/11 1/2/12 6/7/13
f 6/7/14 1/2/15 7/8/14
f 7/8/16 1/2/17 8/9/18
f 8/9/19 1/2/20 9/10/21
f 9/10/22 1/2/22 10/11/23
f 10/11/24 1/2/25 11/1/26
f 12/12/27 14/13/28 13/14/29
f 14/13/30 12/12/31 15/15/30
f 14/13/32 15/15/33 16/16/34
f 14/13/35 16/16/36 17/17/37
f 14/13/38 17/17/39 18/18/40
f 14/13/41 18/18/42 19/19/43
f 14/13/44 19/19/44 20/20/45
f 14/13/46 20/20/47 21/21/48
f 14/13/49 21/21/50 22/22/51
f 14/13/52 22/22/53 13/14/54
