# Blender 4.2.3 LTS
# www.blender.org
mtllib honey.mtl
o dynamic
v -10.577065 0.558940 -3.236311
v -10.667552 -0.290203 -3.753430
v -10.254663 -1.069293 -2.980822
v -10.029186 -0.474862 -2.211109
v -9.386193 2.071038 -2.574396
v -10.093936 1.408538 -2.817634
v -9.462564 0.217191 -1.636199
v -8.733192 0.838877 -1.352486
v -8.456499 -1.220004 -1.267335
v -7.692665 -0.647545 -0.970995
v -7.345314 -2.517945 -1.809900
v -6.543419 -1.989945 -1.532138
v -6.426756 -3.328848 -3.118492
v -5.593393 -2.828629 -2.885561
v -5.946948 -3.435435 -4.842492
v -5.097149 -2.938868 -4.668612
v -6.034451 -2.809150 -6.519949
v -5.187650 -2.291129 -6.403526
v -6.665822 -1.617802 -7.701385
v -5.840652 -1.058968 -7.625436
v -7.671889 -0.180609 -8.070238
v -6.881179 0.427454 -8.006927
v -8.783073 1.117333 -7.527683
v -8.030424 1.769855 -7.445785
v -8.425720 -2.269294 -6.947183
v -8.012831 -3.048384 -6.174574
v -7.824477 -3.360929 -6.420650
v -8.316167 -2.433151 -7.340711
v -9.701631 1.928236 -6.219090
v -8.980451 2.608538 -6.092361
v -9.476695 2.718778 -4.309310
v -10.181444 2.034831 -4.495090
v -5.584909 4.095507 -4.976501
v -6.491423 3.956923 -5.352589
v -6.920538 4.052256 -3.810759
v -5.945884 4.175697 -3.679487
v -5.880053 3.704522 -2.417479
v -6.842275 3.492140 -2.310554
v -6.277620 2.426679 -1.253950
v -5.405052 2.808233 -1.528647
v -9.596738 -2.009156 -2.739613
v -9.156162 -1.722000 -1.891033
v -4.893847 3.485440 -5.961006
v -5.669928 3.231707 -6.522903
v -7.801391 3.483539 -3.999244
v -7.361210 3.385751 -5.580847
v -7.640065 3.239738 -5.665259
v -8.088393 3.339334 -4.054378
v -7.744035 3.406639 -5.763698
v -6.827421 2.597452 -7.069522
v -4.057866 2.508954 -6.369190
v -4.676167 2.070910 -7.008133
v -9.439552 0.306244 -7.323489
v -9.810305 -0.480640 -6.833590
v -10.410996 0.049648 -5.977826
v -10.236640 1.009912 -6.187947
v -5.718589 1.302259 -7.610936
v -3.300973 1.427711 -6.091687
v -3.776408 0.785579 -6.678252
v -8.475312 -0.820058 -7.794297
v -9.083638 -1.329438 -7.188402
v -4.714660 -0.131898 -7.242857
v -2.825968 0.531414 -5.202847
v -3.211754 -0.279882 -5.621650
v -7.602294 -2.067189 -7.474220
v -4.084625 -1.320725 -6.063921
v -2.760135 0.060240 -3.940848
v -3.133495 -0.839989 -4.121453
v -7.054416 -3.100991 -6.449020
v -3.997303 -1.945689 -4.390018
v -3.121111 0.140428 -2.643825
v -3.562604 -0.744664 -2.579623
v -6.978478 -3.644461 -4.993401
v -7.955604 -3.457949 -5.077600
v -4.476100 -1.839323 -2.669668
v -3.812177 0.750504 -1.659328
v -4.384100 -0.019449 -1.409299
v -7.394842 -3.551963 -3.497384
v -8.269381 -3.388243 -3.950178
v -5.392715 -1.030137 -1.363834
v -4.648153 1.726983 -1.251146
v -5.377869 1.141343 -0.924072
v -8.191928 -2.848295 -2.361840
v -8.870077 -2.857947 -3.094415
v -6.501538 0.265063 -0.822428
v -7.505475 1.699213 -1.190498
v -8.135509 2.888041 -2.369445
v -10.652996 1.102405 -4.691939
v -10.724772 0.119356 -4.850414
v -5.051818 3.488093 -2.763343
v -5.097384 3.814223 -3.636854
v -4.723042 2.867721 -2.148130
v -4.199148 2.119321 -1.956046
v -3.620514 1.443438 -2.238584
v -3.142192 1.021174 -2.920011
v -2.892338 0.965671 -3.817758
v -2.937905 1.291798 -4.691261
v -3.266680 1.912172 -5.306481
v -3.790575 2.660571 -5.498558
v -4.369208 3.336456 -5.216028
v -4.847531 3.758718 -4.534594
v -7.935829 3.657210 -3.988214
v -7.849998 3.042886 -2.342789
v -6.564161 2.757233 -6.962893
v -7.465180 3.552652 -5.679285
v -5.474199 1.484083 -7.495095
v -4.487350 0.074338 -7.133276
v -3.868034 -1.094262 -5.974399
v -3.782197 -1.708592 -4.328982
v -4.252847 -1.604035 -2.637902
v -5.153866 -0.808616 -1.354295
v -6.243826 0.464536 -0.822102
v -7.230682 1.874286 -1.183911
v -8.222832 3.513006 -4.043348
v -9.656867 0.023222 -1.759852
v -8.674392 -1.380271 -1.399645
v -8.650004 -1.347964 -1.611095
v -9.569939 -0.033813 -1.948370
v -8.006630 2.754139 -2.486985
v -8.088393 3.339334 -4.054378
v -6.160627 -2.678056 -6.404873
v -6.752751 -1.560767 -7.512866
v -4.131741 -1.772018 -4.378988
v -4.580070 -1.672422 -2.768106
v -9.890327 1.694142 -6.235269
v -10.358884 1.798232 -4.551704
v -10.227267 1.628205 -4.562503
v -9.788538 1.530742 -6.138895
v -7.801391 3.483539 -3.999244
v -7.721113 2.908977 -2.460331
v -5.499109 1.451084 -7.279115
v -6.518514 2.641819 -6.781365
v -6.309142 -2.932153 -6.529072
v -6.925711 -1.768735 -7.682811
v -7.012641 -1.711701 -7.494286
v -6.435318 -2.801060 -6.413997
v -8.432112 -1.187698 -1.478784
v -7.390003 -2.404953 -1.987619
v -7.416683 1.640957 -1.383065
v -7.640065 3.239738 -5.665259
v -6.781774 2.482039 -6.887996
v -4.356817 -1.437134 -2.736341
v -3.916635 -1.534921 -4.317953
v -7.589269 -2.647770 -1.929480
v -7.633958 -2.534778 -2.107200
v -7.696277 -0.212915 -7.858790
v -4.213505 -1.186822 -5.946381
v -7.141884 1.816022 -1.376477
v -7.361210 3.385751 -5.580847
v -7.908181 -0.365249 -8.043018
v -7.932569 -0.397556 -7.831570
v -6.528545 -3.165448 -3.214866
v -6.476628 0.298062 -1.038409
v -3.996914 -0.960360 -5.856856
v -6.692247 -3.439664 -3.207386
v -6.794036 -3.276264 -3.303760
v -8.738384 1.004342 -7.349962
v -6.518514 2.641819 -6.781365
v -6.781774 2.482039 -6.887996
v -5.499109 1.451084 -7.279115
v -5.743499 1.269260 -7.394956
v -4.576141 0.132596 -6.940720
v -4.803452 -0.073640 -7.050302
v -3.996914 -0.960360 -5.856856
v -4.213505 -1.186822 -5.946381
v -3.916635 -1.534921 -4.317953
v -4.131741 -1.772018 -4.378988
v -4.356817 -1.437134 -2.736341
v -4.580070 -1.672422 -2.768106
v -5.199512 -0.693201 -1.535831
v -5.438360 -0.914722 -1.545371
v -6.218916 0.497535 -1.038083
v -6.476628 0.298062 -1.038409
v -7.141884 1.816022 -1.376477
v -7.416683 1.640957 -1.383065
v -7.721113 2.908977 -2.460331
v -8.006630 2.754139 -2.486985
v -9.788538 1.530742 -6.138895
v -10.227267 1.628205 -4.562503
v -10.049828 1.864802 -4.505888
v -9.599842 1.764836 -6.122716
v -8.948622 0.789264 -7.335456
v -8.738384 1.004342 -7.349962
v -7.932569 -0.397556 -7.831570
v -7.696277 -0.212915 -7.858790
v -7.012641 -1.711701 -7.494286
v -6.752751 -1.560767 -7.512866
v -6.435318 -2.801060 -6.413997
v -6.160627 -2.678056 -6.404873
v -6.355306 -3.373725 -4.880162
v -6.078566 -3.265407 -4.831695
v -6.794036 -3.276264 -3.303760
v -6.528545 -3.165448 -3.214866
v -7.633958 -2.534778 -2.107200
v -7.390003 -2.404953 -1.987619
v -8.650004 -1.347964 -1.611095
v -8.432112 -1.187698 -1.478784
v -9.569939 -0.033813 -1.948370
v -9.375637 0.160155 -1.824716
v -10.147255 1.055538 -3.028658
v -9.967760 1.277444 -2.932709
v -5.199512 -0.693201 -1.535831
v -5.743499 1.269260 -7.394956
v -9.599842 1.764836 -6.122716
v -10.049828 1.864802 -4.505888
v -9.375637 0.160155 -1.824716
v -6.223689 -3.543753 -4.890960
v -6.355306 -3.373725 -4.880162
v -4.576141 0.132596 -6.940720
v -5.438360 -0.914722 -1.545371
v -6.078566 -3.265407 -4.831695
v -8.993309 0.902257 -7.513184
v -8.948622 0.789264 -7.335456
v -10.273433 1.186632 -2.913583
v -10.147255 1.055538 -3.028658
v -6.218916 0.497535 -1.038083
v -4.803452 -0.073640 -7.050302
v -9.967760 1.277444 -2.932709
v -8.409853 -4.140114 -3.787481
v -9.163608 -3.474702 -2.713662
v -9.542019 -3.663215 -2.913819
v -8.826678 -4.294717 -3.932905
v -8.845331 -3.134150 -2.752633
v -8.129991 -3.765652 -3.771719
v -10.680346 0.328378 -6.186353
v -11.054004 0.411386 -4.843768
v -10.985860 -0.076345 -3.537421
v -10.494170 -1.004124 -2.617361
v -9.099652 -1.313919 -7.627964
v -7.756338 -3.848664 -5.114313
v -9.710678 -2.123363 -2.330109
v -9.965006 -0.303125 -7.205439
v -8.684989 -3.408124 -6.234279
v -8.631377 -3.791832 -5.206553
v -8.392958 -3.691860 -5.163780
v -8.448200 -3.296466 -6.222818
v -11.490893 0.261240 -4.917097
v -11.097171 0.173777 -6.331785
v -11.377034 -0.200687 -6.347539
v -11.750691 -0.117679 -5.004954
v -10.900992 -1.230289 -2.571125
v -11.419089 -0.252680 -3.540601
v -11.682548 -0.605410 -3.698607
v -11.190858 -1.533189 -2.778547
v -9.431590 -1.556717 -7.850810
v -8.606026 -2.736057 -7.548132
v -9.012855 -2.962216 -7.501897
v -9.796340 -1.842983 -7.789150
v -8.016129 -4.227577 -5.202170
v -8.453019 -4.377724 -5.275498
v -10.075429 -2.409629 -2.268449
v -10.407366 -2.652427 -2.491295
v -10.343411 -0.491644 -7.405595
v -10.661695 -0.832190 -7.366625
v -8.087934 -3.713658 -6.578657
v -8.521165 -3.889994 -6.581837
v -10.785291 -1.553979 -3.242144
v -11.172112 -0.824074 -3.965984
v -11.011123 -0.633661 -3.885404
v -10.612511 -1.385809 -3.139513
v -11.508801 -0.430161 -5.024799
v -11.450654 -0.846338 -3.910102
v -9.488117 -3.229712 -3.348565
v -10.168905 -2.434504 -3.016156
v -9.977340 -2.293170 -2.906635
v -9.275803 -3.112614 -3.249178
v -8.925343 -3.726527 -4.150311
v -8.695878 -3.624572 -4.075348
v -9.013744 -3.994420 -4.110028
v -8.694904 -4.065248 -5.255654
v -9.071812 -2.678221 -6.958110
v -8.846811 -2.544316 -6.968719
v -9.688198 -1.797696 -7.184098
v -9.481983 -1.636957 -7.201587
v -10.368985 -1.002488 -6.851688
v -10.183519 -0.817511 -6.859054
v -10.931760 -0.505671 -6.049952
v -10.763444 -0.305553 -6.032884
v -11.066369 -0.238257 -4.944451
v -10.324347 -0.258019 -5.844784
v -10.591845 -0.198588 -4.883661
v -11.031095 -1.638014 -3.125012
v -10.362546 -2.593053 -2.879903
v -9.841159 -1.902356 -7.400552
v -10.579559 -1.039852 -7.040013
v -8.753052 -3.649071 -6.370353
v -9.624146 -3.455557 -3.240440
v -11.189960 -0.500990 -6.170426
v -9.172611 -2.857396 -7.155441
v -11.225725 -0.440366 -4.993711
v -8.498602 -3.188845 -4.116206
v -9.010703 -2.736760 -3.386666
v -8.923990 -2.496744 -3.565017
v -8.479583 -2.889067 -4.198127
v -10.543056 -0.547750 -3.948477
v -10.191068 -1.211925 -3.289827
v -8.631886 -2.234930 -6.671170
v -9.192764 -1.433700 -6.876808
v -8.231110 -3.248266 -5.077338
v -9.630185 -2.013164 -3.084184
v -9.812251 -0.710094 -6.574332
v -8.279892 -2.899113 -6.012513
v -4.324096 -0.704669 -2.942855
v -4.998921 -0.108931 -1.981494
v -3.951420 1.279428 -2.414557
v -3.507007 0.887097 -3.047668
v -10.064001 -0.345635 -5.698229
v -10.296136 -0.294066 -4.864143
v -10.253802 -0.597071 -4.052568
v -9.948339 -1.173457 -3.480978
v -8.595245 -2.061245 -6.415378
v -9.081988 -1.365920 -6.593833
v -8.247440 -2.940641 -5.032220
v -9.461590 -1.868789 -3.302522
v -9.619594 -0.737958 -6.331339
v -8.289782 -2.637631 -5.843787
v -7.082490 3.235792 -3.954183
v -6.729993 3.157481 -5.220723
v -5.091431 3.430536 -4.547769
v -5.323566 3.482105 -3.713684
v -6.554358 1.900449 -1.853883
v -7.018202 2.775682 -2.721826
v -5.281232 3.179101 -2.902108
v -4.975763 2.602708 -2.330518
v -5.238832 1.608207 -6.580683
v -4.499729 0.552364 -6.309704
v -3.622675 1.714926 -5.264917
v -4.109418 2.410252 -5.443374
v -3.971598 -0.782978 -4.209405
v -3.274870 0.835530 -3.881761
v -5.815249 0.844610 -1.582895
v -4.489020 1.907382 -2.152062
v -6.055166 2.561744 -6.182093
v -4.647017 3.038207 -5.180879
v -4.035887 -0.322870 -5.441752
v -3.317206 1.138533 -4.693328
v -6.552798 -2.234214 -6.024068
v -7.016641 -1.358980 -6.892020
v -5.639791 -0.480989 -6.857619
v -5.122493 -1.457090 -5.889639
v -9.599409 1.324443 -4.536500
v -9.535120 0.864333 -3.304143
v -8.448508 1.998558 -2.856255
v -8.520205 2.511692 -4.230634
v -8.572084 0.650394 -6.764410
v -9.246912 1.246132 -5.803041
v -8.127085 2.424357 -5.643138
v -7.374494 1.759958 -6.715303
v -8.332169 -1.066739 -2.165213
v -7.515833 -2.020274 -2.563809
v -6.196514 -1.218495 -2.030601
v -7.106927 -0.155068 -1.586068
v -6.488515 -2.694314 -4.791720
v -5.050796 -1.970222 -4.515269
v -7.755751 -0.303142 -7.162999
v -6.464079 0.696532 -7.159837
v -9.071277 -0.010900 -2.436199
v -7.931215 1.022452 -1.888285
v -6.841007 -2.616013 -3.525170
v -5.443917 -1.882890 -3.102757
v -9.036993 -1.812098 -7.780280
v -9.422434 -1.312220 -7.746374
v -9.487347 -1.677150 -7.882620
v -9.449227 -1.322732 -7.898651
v -9.063433 -1.822761 -7.933695
v -9.504778 -1.708281 -8.028956
v -9.876816 -1.934266 -7.332708
v -9.781972 -1.823613 -7.919024
v -10.529898 -0.949982 -7.553836
v -10.430746 -1.287235 -7.062242
v -11.175395 0.035730 -6.343481
v -10.398606 -0.399647 -7.192332
v -10.471593 -0.355606 -7.322352
v -11.268702 0.099779 -6.449540
v -11.407826 -0.198386 -6.347597
v -10.818477 -0.662019 -7.273502
v -9.219809 -2.872811 -7.086782
v -8.993796 -2.993428 -7.473436
v -9.685246 -1.805645 -7.022965
v -9.091885 -2.651098 -6.797672
v -10.154330 -1.257724 -6.793919
v -10.213009 -1.380887 -6.719833
v -9.781120 -1.885363 -6.930713
v -10.845312 -0.614018 -7.357656
v -11.536181 -0.204266 -6.434479
v -10.230522 -2.205911 -7.366314
v -10.506900 -1.365017 -7.037938
v -10.598587 -0.927899 -7.644696
v -10.096766 -2.056077 -8.092092
v -9.348239 -2.956336 -7.062558
v -9.061392 -3.070281 -7.589981
v -9.204315 -2.705625 -6.705782
v -10.792991 -0.558172 -6.100724
v -11.048357 -0.520560 -6.059392
v -11.025859 -0.484208 -5.954113
v -10.770492 -0.521818 -5.995455
v -10.506900 -1.365017 -7.037938
v -10.213009 -1.380887 -6.719833
v -10.738839 -1.032545 -6.763015
v -11.284597 -0.694531 -6.117095
v -10.444808 -0.931040 -6.548523
v -10.792991 -0.558172 -6.100724
v -10.834048 -0.696802 -6.044330
v -10.503184 -1.053541 -6.473682
v -11.188970 -0.572693 -6.125299
v -10.154330 -1.257724 -6.793919
v -10.057038 -0.669566 -7.455491
v -9.422434 -1.312220 -7.746374
v -10.131704 -0.627050 -7.584945
v -10.721028 -0.985377 -6.797282
v -10.818477 -0.662019 -7.273502
v -8.635836 -2.484508 -7.617265
v -8.640738 -2.525233 -7.766027
v -9.063433 -1.822761 -7.933695
v -8.734955 -2.848403 -7.519272
v -8.737512 -2.888358 -7.659998
v -8.277237 -2.500812 -7.413373
v -8.279786 -2.540761 -7.554098
v -8.212502 -2.288291 -7.627817
v -8.208382 -2.248032 -7.481441
v -8.277856 -2.212658 -7.534442
v -7.946220 -1.971362 -7.359284
v -8.015707 -1.935986 -7.412287
v -8.277856 -2.212658 -7.534442
v -8.282750 -2.253378 -7.683204
v -8.020601 -1.976706 -7.561049
v -7.950345 -2.011615 -7.505661
v -8.015707 -1.935986 -7.412287
v -7.955172 -1.876412 -7.602397
v -7.884923 -1.911326 -7.547010
v -7.880796 -1.871072 -7.400643
v -7.950275 -1.835690 -7.453644
v -7.923390 -1.860847 -7.569668
v -7.920196 -1.834032 -7.471519
v -7.888640 -1.850054 -7.447471
v -7.891410 -1.876781 -7.544429
v -7.950275 -1.835690 -7.453644
v -11.048357 -0.520560 -6.059392
v -11.083512 -0.640762 -6.010126
v -10.770492 -0.521818 -5.995455
v -10.811543 -0.660444 -5.939050
v -11.083512 -0.640762 -6.010126
v -11.061020 -0.604403 -5.904848
v -10.990902 -0.511953 -5.911155
v -11.006914 -0.566673 -5.888803
v -10.830744 -0.606203 -5.912841
v -10.810720 -0.538535 -5.940436
v -11.025859 -0.484208 -5.954113
v -11.061020 -0.604403 -5.904848
v -10.057038 -0.669566 -7.455491
v -10.721028 -0.985377 -6.797282
v -10.444808 -0.931040 -6.548523
v -10.738839 -1.032545 -6.763015
v -9.063433 -1.822761 -7.933695
v -9.504778 -1.708281 -8.028956
v -8.734955 -2.848403 -7.519272
v -8.277237 -2.500812 -7.413373
v -8.635836 -2.484508 -7.617265
v -9.036993 -1.812098 -7.780280
v -10.537318 -1.920338 -2.903610
v -10.954967 -2.565827 -2.521514
v -10.719003 -2.583162 -3.394207
v -10.537318 -1.920338 -2.903610
v -11.135886 -1.735763 -2.316461
v -10.537318 -1.920338 -2.903610
v -10.719003 -2.583162 -3.394207
v -10.754090 -1.763795 -3.728515
v -10.537318 -1.920338 -2.903610
v -11.011742 -1.240078 -3.062420
v -10.537318 -1.920338 -2.903610
v -11.687516 -2.284516 -2.444180
v -11.429866 -2.808234 -3.110274
v -11.305721 -2.312549 -3.856234
v -11.486634 -1.482492 -3.651181
v -11.722599 -1.465158 -2.778486
v -11.305721 -2.312549 -3.856234
v -11.904290 -2.127987 -3.269085
v -11.904290 -2.127987 -3.269085
v -11.904290 -2.127987 -3.269085
v -11.904290 -2.127987 -3.269085
v -11.904290 -2.127987 -3.269085
v -10.167789 -2.365833 -2.656937
v -10.635243 -2.566920 -2.375474
v -10.270679 -2.925735 -2.712299
v -10.167789 -2.365833 -2.656937
v -10.644381 -2.033532 -2.632059
v -10.167789 -2.365833 -2.656937
v -10.270679 -2.925735 -2.712299
v -10.054503 -2.614096 -3.177064
v -10.167789 -2.365833 -2.656937
v -10.285462 -2.062682 -3.127473
v -10.167789 -2.365833 -2.656937
v -11.041825 -2.388059 -2.672038
v -10.810866 -2.939483 -2.721642
v -10.451954 -2.968626 -3.217053
v -10.461091 -2.435238 -3.473639
v -10.825643 -2.076426 -3.136811
v -10.451954 -2.968626 -3.217053
v -10.928540 -2.636335 -3.192168
v -10.928540 -2.636335 -3.192168
v -10.928540 -2.636335 -3.192168
v -10.928540 -2.636335 -3.192168
v -10.928540 -2.636335 -3.192168
v -8.644355 -3.717149 -2.798210
v -9.032983 -3.826886 -2.567332
v -8.878488 -4.112700 -2.812982
v -8.644355 -3.717149 -2.798210
v -9.050531 -3.491817 -2.773259
v -8.644355 -3.717149 -2.798210
v -8.878488 -4.112700 -2.812982
v -8.800560 -3.954270 -3.170732
v -8.644355 -3.717149 -2.798210
v -8.906890 -3.570538 -3.146181
v -8.644355 -3.717149 -2.798210
v -9.535701 -3.748105 -2.772610
v -9.429372 -4.131837 -2.797159
v -9.285730 -4.210560 -3.170073
v -9.303286 -3.875495 -3.376009
v -9.457774 -3.589676 -3.130359
v -9.285730 -4.210560 -3.170073
v -9.691916 -3.985233 -3.145123
v -9.691916 -3.985233 -3.145123
v -9.691916 -3.985233 -3.145123
v -9.691916 -3.985233 -3.145123
v -9.691916 -3.985233 -3.145123
v -8.044958 -3.101167 -2.691413
v -8.196296 -3.127903 -2.514453
v -8.085021 -3.301054 -2.673000
v -8.044958 -3.101167 -2.691413
v -8.224659 -2.935044 -2.645242
v -8.044958 -3.101167 -2.691413
v -8.085021 -3.301054 -2.673000
v -8.044612 -3.215205 -2.901784
v -8.044958 -3.101167 -2.691413
v -8.130912 -2.988998 -2.884624
v -8.044958 -3.101167 -2.691413
v -8.375784 -3.032262 -2.598298
v -8.289484 -3.258468 -2.615459
v -8.195738 -3.312422 -2.854841
v -8.224101 -3.119563 -2.985630
v -8.335376 -2.946414 -2.827083
v -8.195738 -3.312422 -2.854841
v -8.375439 -3.146300 -2.808671
v -8.375439 -3.146300 -2.808671
v -8.375439 -3.146300 -2.808671
v -8.375439 -3.146300 -2.808671
v -8.375439 -3.146300 -2.808671
v -8.546257 -3.598347 -2.720644
v -8.723717 -3.644920 -2.549738
v -8.623819 -3.826710 -2.710917
v -8.546257 -3.598347 -2.720644
v -8.734520 -3.438727 -2.676455
v -8.546257 -3.598347 -2.720644
v -8.623819 -3.826710 -2.710917
v -8.572880 -3.732865 -2.937256
v -8.546257 -3.598347 -2.720644
v -8.641296 -3.493078 -2.915957
v -8.546257 -3.598347 -2.720644
v -8.928443 -3.568443 -2.639422
v -8.860027 -3.808232 -2.660712
v -8.766803 -3.862582 -2.900213
v -8.777605 -3.656388 -3.026939
v -8.877510 -3.474603 -2.865763
v -8.766803 -3.862582 -2.900213
v -8.955073 -3.702968 -2.856028
v -8.955073 -3.702968 -2.856028
v -8.955073 -3.702968 -2.856028
v -8.955073 -3.702968 -2.856028
v -8.955073 -3.702968 -2.856028
v -7.392691 -2.269715 -7.263996
v -7.548242 -2.294756 -7.090482
v -7.440443 -2.468326 -7.250946
v -7.392691 -2.269715 -7.263996
v -7.566986 -2.098079 -7.217258
v -7.392691 -2.269715 -7.263996
v -7.440443 -2.468326 -7.250946
v -7.392561 -2.378927 -7.476902
v -7.392691 -2.269715 -7.263996
v -7.470776 -2.150101 -7.456090
v -7.392691 -2.269715 -7.263996
v -7.722463 -2.190627 -7.175325
v -7.644248 -2.419452 -7.196150
v -7.548037 -2.471474 -7.434980
v -7.566775 -2.274804 -7.561757
v -7.674580 -2.101227 -7.401294
v -7.548037 -2.471474 -7.434980
v -7.722326 -2.299845 -7.388243
v -7.722326 -2.299845 -7.388243
v -7.722326 -2.299845 -7.388243
v -7.722326 -2.299845 -7.388243
v -7.722326 -2.299845 -7.388243
v -8.478438 -3.944925 -5.465129
v -8.634583 -4.298860 -5.325369
v -8.593929 -4.210599 -5.747519
v -8.478438 -3.944925 -5.465129
v -8.715973 -3.937912 -5.129412
v -8.478438 -3.944925 -5.465129
v -8.593929 -4.210599 -5.747519
v -8.650200 -3.795091 -5.812469
v -8.478438 -3.944925 -5.465129
v -8.725629 -3.626563 -5.430446
v -8.478438 -3.944925 -5.465129
v -8.978279 -4.199243 -5.204309
v -8.902843 -4.367764 -5.586330
v -8.912500 -4.056428 -5.887366
v -8.993896 -3.695473 -5.691409
v -9.034544 -3.783741 -5.269258
v -8.912500 -4.056428 -5.887366
v -9.150041 -4.049408 -5.551649
v -9.150041 -4.049408 -5.551649
v -9.150041 -4.049408 -5.551649
v -9.150041 -4.049408 -5.551649
v -9.150041 -4.049408 -5.551649
vn -0.2077 -0.9498 0.2338
vn -0.8910 -0.3088 0.3328
vn -0.6585 -0.1545 0.7366
vn -0.6584 -0.1545 0.7366
vn -0.0138 -0.8210 0.5707
vn -0.7243 -0.6036 0.3332
vn -0.1012 -0.9736 0.2048
vn 0.0747 -0.8568 0.5102
vn -0.7242 -0.6037 0.3333
vn 0.0746 -0.8569 0.5101
vn -0.4790 -0.4410 0.7590
vn 0.0747 -0.8567 0.5103
vn 0.3447 -0.6579 0.6696
vn 0.3446 -0.6579 0.6696
vn -0.1027 -0.1637 0.9811
vn -0.1026 -0.1638 0.9811
vn 0.3447 -0.6579 0.6695
vn 0.6366 -0.4302 0.6400
vn 0.6366 -0.4302 0.6401
vn 0.3041 0.1538 0.9401
vn 0.3041 0.1536 0.9402
vn 0.6364 -0.4302 0.6402
vn 0.8719 -0.2346 0.4298
vn 0.3040 0.1537 0.9402
vn 0.6321 0.4263 0.6471
vn 0.6322 0.4263 0.6470
vn 0.8719 -0.2346 0.4299
vn 0.9878 -0.1236 0.0951
vn 0.9878 -0.1236 0.0950
vn 0.7938 0.5808 0.1803
vn 0.7938 0.5809 0.1802
vn 0.9531 -0.1269 -0.2747
vn 0.7938 0.5809 0.1804
vn 0.9532 -0.1268 -0.2745
vn 0.7454 0.5764 -0.3350
vn 0.7454 0.5763 -0.3350
vn 0.9531 -0.1270 -0.2746
vn 0.7772 -0.2438 -0.5801
vn 0.7454 0.5763 -0.3351
vn 0.7772 -0.2437 -0.5801
vn 0.5003 0.4135 -0.7607
vn 0.5004 0.4136 -0.7607
vn 0.7773 -0.2437 -0.5800
vn 0.5072 -0.4426 -0.7395
vn 0.5003 0.4137 -0.7606
vn 0.5072 -0.4427 -0.7394
vn 0.1239 0.1363 -0.9829
vn 0.1238 0.1364 -0.9829
vn 0.2154 -0.6703 -0.7102
vn -0.2828 -0.1811 -0.9419
vn 0.2702 0.6560 -0.7047
vn 0.5028 0.8104 -0.3009
vn 0.0833 0.9763 -0.1997
vn 0.2703 0.6559 -0.7048
vn -0.0893 0.8618 -0.4994
vn -0.2828 -0.1812 -0.9419
vn 0.2154 -0.6704 -0.7101
vn -0.0200 -0.8659 -0.4998
vn -0.0199 -0.8659 -0.4998
vn -0.6109 -0.4537 -0.6489
vn -0.7724 -0.6084 -0.1821
vn -0.1359 -0.9769 -0.1649
vn -0.1011 -0.9736 0.2048
vn -0.7724 -0.6085 -0.1821
vn -0.1012 -0.9736 0.2047
vn -0.8717 0.2221 -0.4368
vn -0.8072 -0.1073 -0.5804
vn -0.9567 -0.2502 -0.1487
vn -0.8717 0.2221 -0.4369
vn -0.9568 -0.2500 -0.1487
vn -0.9892 0.1095 -0.0974
vn -0.9540 0.1129 0.2776
vn -0.9121 -0.2459 0.3280
vn -0.6852 -0.0954 0.7221
vn -0.9541 0.1128 0.2776
vn -0.6853 -0.0954 0.7220
vn -0.7758 0.2311 0.5872
vn -0.6109 -0.4537 -0.6488
vn -0.1359 -0.9769 -0.1648
vn -0.7724 -0.6085 -0.1820
vn -0.0136 -0.8210 0.5707
vn -0.6585 -0.1546 0.7365
vn -0.3014 0.1085 0.9473
vn -0.0136 -0.8211 0.5706
vn -0.3013 0.1084 0.9473
vn 0.2841 -0.6017 0.7465
vn -0.6331 0.4202 -0.6501
vn -0.5036 0.1450 -0.8517
vn -0.8073 -0.1072 -0.5803
vn -0.8716 0.2220 -0.4370
vn -0.1177 -0.9795 -0.1633
vn -0.0040 -0.8705 -0.4922
vn -0.8563 0.3997 -0.3271
vn -0.1177 -0.9795 -0.1632
vn -0.8563 0.3997 -0.3270
vn -0.9482 0.3118 -0.0617
vn -0.8717 0.2190 -0.4384
vn -0.8717 0.2191 -0.4384
vn -0.6322 0.4181 -0.6523
vn -0.3372 0.6512 -0.6799
vn -0.1274 0.4388 -0.8895
vn -0.5037 0.1451 -0.8516
vn -0.6330 0.4202 -0.6502
vn 0.1415 -0.6153 -0.7755
vn -0.4724 0.0920 -0.8766
vn -0.7836 -0.1665 -0.5985
vn 0.1415 -0.6154 -0.7754
vn -0.1181 -0.8311 -0.5434
vn -0.2829 -0.1812 -0.9419
vn -0.6323 0.4181 -0.6522
vn -0.6324 0.4180 -0.6522
vn -0.3355 0.6497 -0.6822
vn -0.0633 0.8528 -0.5183
vn 0.2208 0.6953 -0.6840
vn -0.1275 0.4387 -0.8895
vn -0.0634 0.8528 -0.5183
vn -0.3371 0.6512 -0.6799
vn 0.4634 -0.3642 -0.8078
vn -0.0865 0.3930 -0.9155
vn -0.4724 0.0918 -0.8766
vn 0.4634 -0.3642 -0.8079
vn 0.1416 -0.6155 -0.7753
vn 0.5003 0.4136 -0.7607
vn -0.3356 0.6496 -0.6822
vn 0.5002 0.4135 -0.7607
vn -0.0609 0.8519 -0.5201
vn 0.1149 0.9712 -0.2086
vn 0.4478 0.8458 -0.2900
vn 0.2209 0.6953 -0.6840
vn 0.7613 -0.1448 -0.6320
vn 0.2703 0.6560 -0.7047
vn -0.0867 0.3930 -0.9154
vn -0.0866 0.3930 -0.9155
vn 0.4635 -0.3642 -0.8078
vn 0.7454 0.5762 -0.3351
vn 0.5002 0.4137 -0.7607
vn -0.0607 0.8519 -0.5202
vn 0.7455 0.5762 -0.3350
vn 0.1179 0.9707 -0.2095
vn 0.1501 0.9746 0.1663
vn 0.4923 0.8501 0.1869
vn 0.4476 0.8459 -0.2900
vn 0.1500 0.9746 0.1662
vn 0.4476 0.8459 -0.2901
vn 0.1150 0.9712 -0.2086
vn 0.9553 -0.0160 -0.2951
vn 0.5029 0.8103 -0.3010
vn 0.2702 0.6560 -0.7048
vn 0.7613 -0.1449 -0.6320
vn 0.7936 0.5810 0.1804
vn 0.7936 0.5811 0.1804
vn 0.1180 0.9707 -0.2095
vn 0.1533 0.9741 0.1665
vn 0.0326 0.8620 0.5059
vn 0.3428 0.7071 0.6185
vn 0.4923 0.8502 0.1866
vn 0.4923 0.8502 0.1867
vn 0.9935 -0.0123 0.1128
vn 0.5486 0.8147 0.1878
vn 0.5029 0.8102 -0.3011
vn 0.9936 -0.0122 0.1126
vn 0.7936 0.5811 0.1803
vn 0.1533 0.9741 0.1663
vn 0.6322 0.4262 0.6471
vn 0.1532 0.9741 0.1666
vn 0.0353 0.8612 0.5071
vn -0.2061 0.6638 0.7189
vn 0.0394 0.4548 0.8897
vn 0.3429 0.7070 0.6186
vn 0.3428 0.7070 0.6186
vn 0.0326 0.8621 0.5056
vn 0.8657 -0.1347 0.4821
vn 0.3955 0.6679 0.6305
vn 0.8658 -0.1347 0.4820
vn 0.5486 0.8147 0.1877
vn 0.3041 0.1538 0.9402
vn 0.6322 0.4262 0.6470
vn 0.0353 0.8612 0.5070
vn 0.3040 0.1538 0.9402
vn -0.2041 0.6623 0.7209
vn -0.5019 0.4329 0.7488
vn -0.3370 0.1612 0.9276
vn 0.0394 0.4549 0.8897
vn -0.5020 0.4328 0.7488
vn 0.0393 0.4549 0.8897
vn -0.2061 0.6638 0.7190
vn 0.6060 -0.3505 0.7141
vn 0.0843 0.4095 0.9084
vn 0.3954 0.6680 0.6304
vn 0.6060 -0.3505 0.7140
vn -0.1026 -0.1638 0.9812
vn 0.3041 0.1537 0.9401
vn -0.2040 0.6623 0.7209
vn -0.2042 0.6622 0.7209
vn -0.5008 0.4307 0.7508
vn -0.7757 0.2312 0.5872
vn -0.6851 -0.0954 0.7221
vn -0.3370 0.1611 0.9276
vn -0.5020 0.4329 0.7487
vn 0.2843 -0.6017 0.7465
vn -0.3015 0.1084 0.9473
vn 0.0842 0.4095 0.9084
vn 0.0842 0.4096 0.9084
vn 0.6061 -0.3505 0.7140
vn -0.4789 -0.4412 0.7590
vn -0.1027 -0.1637 0.9812
vn -0.4790 -0.4411 0.7589
vn -0.7755 0.2285 0.5886
vn -0.7242 -0.6037 0.3332
vn -0.4789 -0.4410 0.7591
vn -0.7754 0.2285 0.5888
vn -0.7242 -0.6038 0.3332
vn -0.7754 0.2285 0.5887
vn -0.9543 0.1097 0.2780
vn -0.2459 -0.9535 -0.1740
vn -0.9368 -0.3133 -0.1559
vn -0.8910 -0.3089 0.3327
vn -0.2459 -0.9535 -0.1741
vn -0.8910 -0.3088 0.3327
vn -0.2076 -0.9499 0.2338
vn -0.9892 0.1092 -0.0975
vn -0.9541 0.1127 0.2775
vn -0.8010 0.5804 0.1466
vn -0.9892 0.1093 -0.0973
vn -0.8010 0.5804 0.1465
vn -0.8153 0.5791 -0.0055
vn -0.9541 0.1128 0.2774
vn -0.7757 0.2311 0.5872
vn -0.7286 0.6286 0.2722
vn -0.9541 0.1128 0.2775
vn -0.7286 0.6284 0.2723
vn -0.8011 0.5804 0.1466
vn -0.7758 0.2312 0.5871
vn -0.5018 0.4330 0.7488
vn -0.6176 0.7103 0.3378
vn -0.6175 0.7103 0.3379
vn -0.7286 0.6285 0.2721
vn -0.2061 0.6637 0.7190
vn -0.4975 0.8041 0.3255
vn -0.5019 0.4328 0.7489
vn -0.4975 0.8040 0.3256
vn 0.0327 0.8620 0.5058
vn -0.4007 0.8845 0.2392
vn -0.2060 0.6638 0.7189
vn -0.4006 0.8845 0.2391
vn -0.4974 0.8041 0.3256
vn 0.0326 0.8621 0.5057
vn -0.3529 0.9302 0.1013
vn 0.0326 0.8621 0.5058
vn -0.3529 0.9301 0.1014
vn -0.4007 0.8844 0.2392
vn 0.1150 0.9712 -0.2088
vn -0.3673 0.9287 -0.0507
vn 0.1502 0.9746 0.1663
vn -0.3673 0.9287 -0.0506
vn -0.3529 0.9301 0.1015
vn -0.0633 0.8528 -0.5184
vn -0.4395 0.8808 -0.1763
vn 0.1150 0.9712 -0.2087
vn -0.4395 0.8807 -0.1765
vn -0.3672 0.9287 -0.0507
vn -0.0634 0.8529 -0.5183
vn -0.3371 0.6513 -0.6798
vn -0.5507 0.7989 -0.2420
vn -0.5507 0.7989 -0.2419
vn -0.4396 0.8807 -0.1763
vn -0.6708 0.7051 -0.2298
vn -0.6708 0.7051 -0.2299
vn -0.5507 0.7989 -0.2421
vn -0.8717 0.2219 -0.4369
vn -0.7676 0.6247 -0.1430
vn -0.6331 0.4202 -0.6500
vn -0.7676 0.6247 -0.1433
vn -0.6707 0.7053 -0.2298
vn -0.9892 0.1092 -0.0974
vn -0.8152 0.5791 -0.0056
vn -0.8152 0.5791 -0.0055
vn -0.7676 0.6247 -0.1434
vn -0.9567 -0.2502 -0.1485
vn -0.9120 -0.2460 0.3281
vn -0.9892 0.1094 -0.0973
vn -0.9121 -0.2460 0.3281
vn -0.9541 0.1129 0.2775
vn -0.9567 -0.2504 -0.1486
vn -0.3210 -0.9300 -0.1791
vn -0.2805 -0.9261 0.2522
vn -0.2805 -0.9261 0.2523
vn -0.9120 -0.2459 0.3282
vn -0.5038 0.1450 -0.8516
vn 0.0890 -0.5724 -0.8152
vn -0.1856 -0.8007 -0.5697
vn -0.5037 0.1450 -0.8516
vn -0.1856 -0.8006 -0.5698
vn -0.8073 -0.1071 -0.5804
vn 0.4294 -0.3067 -0.8495
vn 0.0890 -0.5723 -0.8152
vn 0.0889 -0.5724 -0.8152
vn 0.2209 0.6953 -0.6839
vn 0.7445 -0.0745 -0.6635
vn 0.4294 -0.3067 -0.8494
vn 0.2208 0.6953 -0.6839
vn 0.4476 0.8458 -0.2902
vn 0.9497 0.0617 -0.3072
vn 0.7445 -0.0746 -0.6635
vn 0.4478 0.8458 -0.2901
vn 0.2209 0.6952 -0.6840
vn 0.4924 0.8501 0.1867
vn 0.9901 0.0657 0.1242
vn 0.9497 0.0617 -0.3071
vn 0.8548 -0.0640 0.5150
vn 0.9901 0.0657 0.1244
vn 0.3429 0.7071 0.6185
vn 0.9901 0.0656 0.1242
vn 0.4924 0.8501 0.1866
vn 0.0394 0.4547 0.8898
vn 0.5802 -0.2922 0.7602
vn 0.8548 -0.0639 0.5150
vn 0.0395 0.4548 0.8897
vn 0.8549 -0.0639 0.5149
vn 0.3430 0.7070 0.6185
vn 0.2397 -0.5577 0.7947
vn 0.5802 -0.2921 0.7603
vn -0.0754 -0.7899 0.6086
vn 0.2397 -0.5579 0.7945
vn -0.6852 -0.0955 0.7220
vn 0.2398 -0.5579 0.7945
vn -0.3369 0.1611 0.9276
vn -0.0753 -0.7899 0.6086
vn -0.9121 -0.2459 0.3282
vn -0.6852 -0.0955 0.7221
vn -0.6109 -0.4538 -0.6488
vn -0.7725 -0.6083 -0.1821
vn -0.9895 0.1063 -0.0979
vn -0.6108 -0.4537 -0.6489
vn -0.8717 0.2191 -0.4383
vn -0.8073 -0.1071 -0.5803
vn -0.1857 -0.8005 -0.5698
vn -0.9567 -0.2504 -0.1487
vn -0.6113 0.7898 0.0501
vn -0.6114 0.7898 0.0502
vn -0.6114 0.7898 0.0501
vn 0.6114 -0.7898 -0.0502
vn 0.6113 -0.7898 -0.0501
vn -0.6114 0.7898 0.0503
vn 0.6114 -0.7898 -0.0501
vn 0.6114 -0.7897 -0.0504
vn 0.6114 -0.7898 -0.0503
vn -0.7725 -0.6084 -0.1820
vn -0.7241 -0.6038 0.3333
vn -0.9543 0.1096 0.2780
vn -0.9543 0.1096 0.2781
vn 0.6113 -0.7898 -0.0500
vn -0.6113 0.7898 0.0500
vn 0.6114 -0.7897 -0.0503
vn -0.1179 -0.8310 -0.5436
vn -0.9368 -0.3132 -0.1559
vn -0.1180 -0.8311 -0.5434
vn -0.0039 -0.8706 -0.4920
vn 0.2271 -0.6785 -0.6986
vn -0.6699 0.5547 -0.4936
vn -0.6699 0.5546 -0.4936
vn -0.8564 0.3997 -0.3270
vn 0.2273 -0.6784 -0.6986
vn 0.5139 -0.4548 -0.7274
vn -0.4386 0.7352 -0.5169
vn -0.6698 0.5547 -0.4936
vn 0.5138 -0.4550 -0.7273
vn 0.7789 -0.2595 -0.5709
vn -0.2247 0.8927 -0.3907
vn -0.4386 0.7351 -0.5170
vn 0.7789 -0.2596 -0.5709
vn 0.9516 -0.1449 -0.2710
vn -0.0854 0.9852 -0.1486
vn -0.2248 0.8927 -0.3906
vn 0.9856 -0.1416 0.0920
vn -0.0579 0.9878 0.1442
vn -0.0578 0.9879 0.1442
vn 0.8718 -0.2506 0.4208
vn -0.1497 0.8999 0.4096
vn -0.0579 0.9879 0.1441
vn 0.6407 -0.4427 0.6274
vn -0.3363 0.7450 0.5761
vn 0.8718 -0.2506 0.4209
vn -0.3362 0.7450 0.5761
vn -0.1497 0.8999 0.4095
vn 0.6407 -0.4427 0.6273
vn 0.3541 -0.6663 0.6562
vn -0.5674 0.5645 0.5995
vn -0.3361 0.7450 0.5762
vn 0.0889 -0.8616 0.4998
vn -0.7814 0.4070 0.4732
vn 0.3542 -0.6663 0.6562
vn -0.7814 0.4069 0.4732
vn -0.5674 0.5646 0.5994
vn 0.0890 -0.8616 0.4997
vn -0.0837 -0.9763 0.1997
vn -0.9207 0.3144 0.2311
vn 0.0889 -0.8616 0.4997
vn -0.0838 -0.9763 0.1997
vn -0.9481 0.3118 -0.0617
vn -0.0837 -0.9763 0.1998
vn -0.9207 0.3144 0.2312
vn -0.8713 0.2099 -0.4435
vn -0.9904 0.0959 -0.0996
vn 0.1004 -0.9852 -0.1391
vn 0.1864 -0.9028 -0.3875
vn -0.6296 0.4108 -0.6595
vn -0.8714 0.2099 -0.4434
vn 0.1865 -0.9028 -0.3875
vn 0.1865 -0.9028 -0.3874
vn 0.3612 -0.7576 -0.5436
vn -0.3300 0.6446 -0.6896
vn -0.6296 0.4107 -0.6595
vn 0.3611 -0.7576 -0.5437
vn 0.3611 -0.7577 -0.5436
vn 0.5777 -0.5886 -0.5655
vn -0.0526 0.8488 -0.5261
vn -0.3299 0.6446 -0.6897
vn 0.5778 -0.5886 -0.5654
vn -0.0527 0.8488 -0.5261
vn 0.5778 -0.5887 -0.5653
vn 0.7782 -0.4410 -0.4471
vn 0.1280 0.9688 -0.2123
vn -0.0526 0.8488 -0.5260
vn 0.7783 -0.4409 -0.4471
vn 0.9088 -0.3542 -0.2204
vn 0.1636 0.9722 0.1672
vn 0.1280 0.9688 -0.2124
vn 0.1636 0.9722 0.1674
vn 0.9346 -0.3517 0.0539
vn 0.0446 0.8582 0.5114
vn 0.0447 0.8582 0.5114
vn 0.9346 -0.3517 0.0540
vn 0.8485 -0.4341 0.3026
vn -0.1971 0.6574 0.7273
vn 0.0445 0.8582 0.5113
vn 0.8485 -0.4341 0.3027
vn -0.1972 0.6573 0.7273
vn 0.8485 -0.4341 0.3025
vn 0.6738 -0.5794 0.4586
vn -0.4969 0.4235 0.7575
vn -0.1972 0.6573 0.7274
vn 0.6738 -0.5794 0.4587
vn 0.4573 -0.7483 0.4806
vn -0.7742 0.2192 0.5938
vn -0.4968 0.4235 0.7575
vn 0.4571 -0.7484 0.4806
vn -0.7741 0.2193 0.5938
vn 0.4570 -0.7484 0.4806
vn 0.2566 -0.8961 0.3622
vn -0.9548 0.0994 0.2800
vn 0.2567 -0.8961 0.3622
vn -0.9548 0.0993 0.2801
vn 0.2569 -0.8959 0.3623
vn 0.1262 -0.9827 0.1354
vn 0.1261 -0.9827 0.1356
vn 0.1261 -0.9827 0.1355
vn 0.1002 -0.9852 -0.1390
vn -0.6114 0.7897 0.0503
vn 0.6215 0.4402 0.6481
vn 0.2933 0.1673 0.9413
vn 0.6566 -0.4959 0.5683
vn 0.6218 0.4401 0.6478
vn 0.8681 -0.3201 0.3794
vn 0.3953 0.6680 0.6305
vn 0.0843 0.4094 0.9085
vn -0.2274 0.6787 0.6983
vn 0.3953 0.6681 0.6304
vn -0.2274 0.6788 0.6983
vn 0.0035 0.8707 0.4919
vn -0.8717 0.2510 -0.4208
vn -0.8718 0.2510 -0.4206
vn -0.9856 0.1421 -0.0919
vn -0.6585 -0.1547 0.7365
vn -0.9516 0.1453 0.2709
vn -0.6586 -0.1545 0.7365
vn -0.9516 0.1453 0.2708
vn -0.7789 0.2600 0.5707
vn 0.2702 0.6559 -0.7048
vn -0.0893 0.8617 -0.4995
vn -0.0893 0.8618 -0.4993
vn -0.3544 0.6665 -0.6558
vn 0.0035 0.8707 0.4918
vn 0.1173 0.9796 0.1632
vn -0.3015 0.1085 0.9473
vn -0.5139 0.4552 0.7271
vn -0.4723 0.0919 -0.8766
vn -0.3544 0.6665 -0.6559
vn -0.6407 0.4430 -0.6271
vn -0.8910 -0.3087 0.3329
vn -0.9856 0.1421 -0.0920
vn -0.8910 -0.3088 0.3329
vn -0.9516 0.1454 0.2709
vn 0.5028 0.8103 -0.3010
vn 0.5486 0.8148 0.1877
vn 0.5028 0.8103 -0.3011
vn 0.0832 0.9763 -0.1996
vn 0.0841 0.4094 0.9084
vn -0.7835 -0.1665 -0.5986
vn -0.4725 0.0919 -0.8765
vn -0.6408 0.4430 -0.6270
vn -0.5731 -0.7572 0.3134
vn -0.6201 -0.7616 -0.1880
vn -0.6852 -0.7041 -0.1866
vn -0.6374 -0.6994 0.3232
vn -0.7832 -0.5947 -0.1813
vn -0.6216 -0.4399 -0.6481
vn 0.0666 -0.8875 -0.4559
vn -0.7832 -0.5947 -0.1812
vn 0.0667 -0.8875 -0.4560
vn -0.0375 -0.9872 -0.1550
vn -0.4896 -0.4275 0.7600
vn -0.7349 -0.5901 0.3341
vn -0.0064 -0.9842 0.1770
vn -0.0063 -0.9842 0.1771
vn 0.1517 -0.8793 0.4515
vn 0.1133 0.1500 -0.9822
vn 0.4897 0.4274 -0.7600
vn 0.7831 -0.3284 -0.5282
vn 0.7831 -0.3283 -0.5282
vn 0.5404 -0.5070 -0.6714
vn 0.7832 0.5948 0.1812
vn 0.6217 0.4400 0.6480
vn 0.7833 0.5948 0.1810
vn 0.9722 -0.2204 0.0785
vn -0.1133 -0.1501 0.9822
vn -0.4897 -0.4273 0.7600
vn 0.1517 -0.8792 0.4516
vn -0.1133 -0.1500 0.9822
vn 0.3943 -0.7006 0.5948
vn -0.2935 -0.1674 -0.9412
vn 0.1132 0.1501 -0.9822
vn 0.5403 -0.5071 -0.6715
vn 0.2782 -0.7117 -0.6451
vn 0.7349 0.5901 -0.3342
vn 0.9722 -0.2206 0.0786
vn 0.9722 -0.2205 0.0785
vn 0.9411 -0.2233 -0.2537
vn 0.2935 0.1675 0.9412
vn 0.3944 -0.7006 0.5947
vn 0.3945 -0.7006 0.5946
vn -0.6216 -0.4402 -0.6480
vn -0.2934 -0.1676 -0.9412
vn 0.2781 -0.7116 -0.6452
vn -0.6216 -0.4401 -0.6480
vn 0.2783 -0.7117 -0.6451
vn 0.0667 -0.8874 -0.4562
vn -0.7350 -0.5900 0.3342
vn -0.7832 -0.5948 -0.1811
vn -0.0374 -0.9872 -0.1551
vn -0.7350 -0.5900 0.3341
vn 0.4898 0.4272 -0.7600
vn 0.7350 0.5901 -0.3340
vn 0.9411 -0.2233 -0.2538
vn 0.4897 0.4272 -0.7600
vn 0.9411 -0.2235 -0.2536
vn 0.6181 0.2327 -0.7509
vn 0.8566 0.3910 -0.3366
vn 0.8165 0.4682 -0.3378
vn 0.6181 0.2326 -0.7509
vn 0.8165 0.4682 -0.3379
vn 0.5739 0.3071 -0.7591
vn 0.8568 -0.5153 0.0202
vn 0.8390 -0.5170 -0.1697
vn -0.0064 -0.9841 0.1772
vn 0.8568 -0.5153 0.0201
vn -0.0062 -0.9842 0.1770
vn -0.0373 -0.9872 -0.1551
vn -0.1438 -0.3460 -0.9272
vn 0.2519 -0.0371 -0.9670
vn 0.2016 0.0328 -0.9789
vn -0.2008 -0.2813 -0.9384
vn -0.4630 -0.6112 -0.6419
vn -0.1437 -0.3459 -0.9272
vn -0.2008 -0.2812 -0.9384
vn -0.4630 -0.6112 -0.6420
vn -0.5254 -0.5510 -0.6483
vn 0.3394 -0.8964 -0.2852
vn 0.2799 -0.9533 -0.1134
vn 0.9722 -0.2205 0.0784
vn 0.3394 -0.8964 -0.2851
vn 0.8681 -0.3202 0.3794
vn -0.6202 -0.7617 -0.1878
vn -0.4629 -0.6113 -0.6419
vn -0.5255 -0.5510 -0.6483
vn -0.6200 -0.7617 -0.1881
vn -0.5253 -0.5510 -0.6484
vn -0.3347 -0.5987 0.7277
vn -0.5731 -0.7571 0.3136
vn -0.6375 -0.6994 0.3231
vn -0.3346 -0.5987 0.7277
vn -0.3949 -0.5383 0.7446
vn 0.0316 -0.3290 0.9438
vn -0.3347 -0.5988 0.7276
vn -0.3948 -0.5385 0.7444
vn 0.0315 -0.3290 0.9438
vn -0.3948 -0.5384 0.7444
vn -0.0226 -0.2641 0.9642
vn 0.4271 -0.0203 0.9040
vn -0.0224 -0.2641 0.9642
vn -0.0225 -0.2640 0.9643
vn 0.3798 0.0498 0.9237
vn 0.7464 0.2451 0.6187
vn 0.4273 -0.0202 0.9039
vn 0.3798 0.0500 0.9237
vn 0.7465 0.2451 0.6186
vn 0.7045 0.3198 0.6336
vn 0.6180 0.2326 -0.7510
vn 0.5739 0.3070 -0.7592
vn 0.2520 -0.0371 -0.9670
vn 0.5738 0.3070 -0.7592
vn 0.2017 0.0327 -0.9789
vn -0.0895 0.8617 -0.4995
vn 0.0832 0.9763 -0.1997
vn 0.7349 0.5901 -0.3341
vn -0.0895 0.8617 -0.4994
vn 0.7348 0.5902 -0.3342
vn 0.4896 0.4275 -0.7600
vn -0.9856 0.1422 -0.0919
vn -0.7832 -0.5947 -0.1814
vn -0.9515 0.1453 0.2710
vn -0.7832 -0.5948 -0.1812
vn -0.7350 -0.5901 0.3342
vn -0.8718 0.2511 -0.4206
vn -0.6408 0.4429 -0.6271
vn -0.2935 -0.1673 -0.9412
vn -0.2936 -0.1673 -0.9412
vn -0.6218 -0.4401 -0.6478
vn -0.2275 0.6787 0.6983
vn -0.5139 0.4551 0.7272
vn -0.1132 -0.1501 0.9822
vn 0.2935 0.1674 0.9412
vn 0.0831 0.9763 -0.1996
vn 0.1171 0.9796 0.1632
vn 0.7832 0.5947 0.1812
vn 0.7350 0.5900 -0.3342
vn -0.6409 0.4430 -0.6270
vn -0.3545 0.6665 -0.6558
vn 0.1133 0.1501 -0.9822
vn -0.2935 -0.1675 -0.9412
vn -0.5140 0.4552 0.7271
vn -0.7789 0.2601 0.5706
vn -0.4897 -0.4274 0.7600
vn -0.5139 0.4553 0.7270
vn -0.4897 -0.4274 0.7599
vn 0.1173 0.9796 0.1631
vn 0.0034 0.8707 0.4918
vn 0.6218 0.4399 0.6480
vn 0.6217 0.4399 0.6480
vn 0.7832 0.5947 0.1813
vn -0.3543 0.6665 -0.6559
vn -0.0894 0.8617 -0.4995
vn 0.4897 0.4273 -0.7600
vn -0.3543 0.6666 -0.6558
vn -0.7790 0.2599 0.5706
vn -0.7350 -0.5901 0.3340
vn -0.7790 0.2600 0.5706
vn -0.7348 -0.5903 0.3342
vn -0.4896 -0.4273 0.7601
vn -0.6218 -0.4400 -0.6479
vn -0.9856 0.1422 -0.0918
vn -0.6217 -0.4400 -0.6480
vn -0.2276 0.6788 0.6982
vn 0.2934 0.1676 0.9412
vn 0.6217 0.4401 0.6480
vn -0.8306 -0.0363 -0.5557
vn -0.1181 -0.8312 -0.5434
vn -0.2460 -0.9535 -0.1740
vn -0.9748 -0.1744 -0.1391
vn -0.9748 -0.1743 -0.1391
vn -0.2077 -0.9499 0.2336
vn -0.2077 -0.9499 0.2337
vn -0.9317 -0.1702 0.3208
vn -0.3770 0.2227 0.8991
vn 0.2842 -0.6016 0.7465
vn -0.3771 0.2227 0.8990
vn 0.6060 -0.3504 0.7141
vn -0.0139 0.5057 0.8626
vn -0.0141 0.5059 0.8625
vn 0.6062 -0.3504 0.7140
vn 0.8657 -0.1348 0.4821
vn -0.0140 0.5059 0.8625
vn 0.2790 0.7492 0.6008
vn 0.2787 0.7492 0.6009
vn 0.4230 0.8872 0.1844
vn 0.9936 -0.0123 0.1127
vn 0.9553 -0.0161 -0.2951
vn 0.4230 0.8872 0.1843
vn 0.3799 0.8831 -0.2755
vn 0.3798 0.8831 -0.2755
vn 0.7614 -0.1448 -0.6319
vn 0.7613 -0.1447 -0.6320
vn 0.1610 0.7378 -0.6555
vn 0.1610 0.7377 -0.6556
vn -0.1749 0.4904 -0.8537
vn -0.1749 0.4904 -0.8538
vn 0.4633 -0.3643 -0.8078
vn 0.1417 -0.6154 -0.7753
vn -0.1748 0.4904 -0.8538
vn -0.5378 0.2070 -0.8173
vn -0.5379 0.2071 -0.8172
vn 0.1416 -0.6154 -0.7754
vn -0.8306 -0.0362 -0.5557
vn -0.7129 -0.0250 0.7008
vn 0.2842 -0.6017 0.7465
vn -0.3771 0.2226 0.8990
vn -0.9317 -0.1702 0.3209
vn -0.9317 -0.1701 0.3209
vn -0.7130 -0.0248 0.7008
vn 0.8643 0.4727 0.1720
vn 0.7045 0.3197 0.6336
vn 0.8713 -0.2072 0.4449
vn 0.8642 0.4728 0.1718
vn 0.8713 -0.2071 0.4449
vn 0.9906 -0.0927 0.1001
vn 0.7487 -0.5769 -0.3266
vn 0.6101 -0.6790 -0.4084
vn 0.3944 -0.7005 0.5947
vn 0.5267 -0.7895 0.3150
vn 0.6764 -0.6727 0.2999
vn 0.2781 -0.7118 -0.6450
vn 0.5268 -0.7896 0.3148
vn 0.2781 -0.7117 -0.6450
vn 0.5405 -0.5071 -0.6714
vn 0.2977 -0.9516 0.0764
vn 0.9411 -0.2234 -0.2538
vn 0.9411 -0.2235 -0.2537
vn 0.6101 -0.6790 -0.4083
vn 0.4603 -0.7959 -0.3932
vn 0.6764 -0.6727 0.2998
vn 0.7973 -0.5722 0.1922
vn 0.0667 -0.8874 -0.4561
vn 0.2782 -0.7118 -0.6449
vn 0.8390 -0.5170 -0.1696
vn 0.7487 -0.5771 -0.3263
vn 0.3881 -0.8916 0.2332
vn 0.7831 -0.3283 -0.5283
vn 0.4604 -0.7959 -0.3932
vn 0.3394 -0.8963 -0.2853
vn 0.4603 -0.7959 -0.3933
vn 0.6566 -0.4958 0.5684
vn 0.7973 -0.5722 0.1921
vn 0.7973 -0.5722 0.1920
vn 0.9036 0.3955 0.1649
vn 0.7464 0.2450 0.6188
vn 0.7045 0.3196 0.6337
vn 0.9036 0.3954 0.1646
vn 0.7044 0.3196 0.6337
vn 0.8643 0.4726 0.1720
vn 0.3881 -0.8916 0.2333
vn 0.5266 -0.7895 0.3152
vn 0.3880 -0.8916 0.2334
vn 0.5404 -0.5070 -0.6715
vn -0.0475 -0.8573 -0.5126
vn 0.1951 -0.6558 -0.7293
vn -0.1285 -0.3627 -0.9230
vn -0.0474 -0.8573 -0.5126
vn -0.1285 -0.3626 -0.9230
vn -0.4458 -0.6263 -0.6395
vn 0.5739 0.3069 -0.7592
vn 0.8166 0.4681 -0.3378
vn 0.9549 -0.0962 -0.2807
vn 0.9549 -0.0962 -0.2808
vn 0.7738 -0.2164 -0.5953
vn -0.3950 -0.5383 0.7444
vn 0.0502 -0.8479 0.5277
vn -0.0224 -0.2642 0.9642
vn 0.0502 -0.8480 0.5277
vn 0.3283 -0.6430 0.6920
vn -0.6853 -0.7040 -0.1865
vn -0.5255 -0.5509 -0.6484
vn -0.0474 -0.8574 -0.5125
vn -0.6853 -0.7039 -0.1867
vn -0.0473 -0.8573 -0.5126
vn -0.1667 -0.9716 -0.1677
vn 0.7738 -0.2165 -0.5954
vn 0.7738 -0.2165 -0.5953
vn 0.4957 -0.4213 -0.7594
vn -0.0225 -0.2641 0.9642
vn 0.3283 -0.6431 0.6918
vn 0.3799 0.0499 0.9237
vn 0.3283 -0.6429 0.6920
vn 0.6288 -0.4085 0.6616
vn -0.6376 -0.6994 0.3231
vn -0.6853 -0.7040 -0.1866
vn -0.1667 -0.9716 -0.1678
vn -0.1667 -0.9717 -0.1676
vn -0.1310 -0.9682 0.2132
vn -0.2009 -0.2812 -0.9384
vn 0.4956 -0.4213 -0.7595
vn 0.4956 -0.4214 -0.7595
vn 0.1951 -0.6559 -0.7292
vn 0.7045 0.3195 0.6337
vn 0.7045 0.3197 0.6337
vn 0.8713 -0.2072 0.4450
vn 0.8643 0.4727 0.1719
vn 0.9907 -0.0927 0.1001
vn 0.9550 -0.0963 -0.2807
vn -0.3949 -0.5384 0.7445
vn -0.6374 -0.6995 0.3232
vn -0.1309 -0.9682 0.2131
vn -0.1310 -0.9682 0.2130
vn -0.5254 -0.5511 -0.6483
vn -0.2007 -0.2812 -0.9384
vn 0.1952 -0.6559 -0.7292
vn -0.0472 -0.8573 -0.5126
vn -0.3866 -0.6750 -0.6284
vn -0.0765 -0.4174 -0.9055
vn 0.3386 -0.7461 -0.5733
vn -0.3865 -0.6750 -0.6285
vn 0.1530 -0.9002 -0.4077
vn 0.9906 -0.0928 0.1001
vn 0.7567 0.2249 0.6139
vn 0.9906 -0.0928 0.1000
vn 0.7566 0.2250 0.6140
vn 0.9129 0.3745 0.1625
vn 0.7737 -0.2164 -0.5954
vn 0.9543 -0.0937 -0.2837
vn 0.8661 0.3701 -0.3359
vn 0.8662 0.3701 -0.3359
vn 0.6290 0.2126 -0.7477
vn 0.3282 -0.6431 0.6919
vn 0.0502 -0.8479 0.5278
vn -0.3182 -0.6141 0.7222
vn 0.3282 -0.6432 0.6918
vn -0.3182 -0.6139 0.7224
vn 0.0457 -0.3458 0.9372
vn -0.4458 -0.6264 -0.6395
vn -0.6021 -0.7760 -0.1880
vn 0.4957 -0.4214 -0.7594
vn 0.7738 -0.2164 -0.5954
vn 0.6290 0.2127 -0.7478
vn 0.2649 -0.0555 -0.9627
vn 0.0459 -0.3459 0.9371
vn 0.6288 -0.4085 0.6617
vn 0.0458 -0.3458 0.9372
vn 0.4393 -0.0387 0.8975
vn -0.1310 -0.9682 0.2131
vn -0.1309 -0.9682 0.2132
vn -0.6021 -0.7759 -0.1881
vn -0.5554 -0.7715 0.3105
vn 0.1951 -0.6560 -0.7291
vn 0.2649 -0.0556 -0.9627
vn 0.4392 -0.0386 0.8976
vn 0.7566 0.2249 0.6139
vn 0.8663 0.3699 -0.3358
vn 0.0501 -0.8478 0.5279
vn -0.1311 -0.9682 0.2132
vn -0.5553 -0.7715 0.3104
vn 0.0501 -0.8480 0.5277
vn -0.5554 -0.7715 0.3104
vn -0.3182 -0.6140 0.7223
vn 0.9405 0.3024 0.1547
vn 0.7880 0.1563 0.5955
vn 0.8557 -0.4029 0.3248
vn 0.9469 -0.3157 0.0611
vn 0.6632 0.1443 -0.7344
vn 0.8950 0.2981 -0.3319
vn 0.9196 -0.3182 -0.2302
vn 0.6633 0.1443 -0.7344
vn 0.9196 -0.3183 -0.2302
vn 0.7812 -0.4100 -0.4708
vn 0.0938 -0.4011 0.9112
vn -0.2618 -0.6630 0.7013
vn 0.2277 -0.8930 0.3881
vn 0.2276 -0.8931 0.3881
vn 0.4403 -0.7364 0.5136
vn -0.5390 -0.8212 -0.1875
vn -0.3864 -0.6750 -0.6286
vn 0.1487 -0.9045 -0.3997
vn -0.5390 -0.8212 -0.1876
vn 0.1532 -0.9003 -0.4075
vn 0.0619 -0.9877 -0.1438
vn 0.3077 -0.1175 -0.9442
vn 0.6630 0.1448 -0.7345
vn 0.7810 -0.4102 -0.4708
vn 0.3078 -0.1176 -0.9442
vn 0.7811 -0.4101 -0.4709
vn 0.5685 -0.5667 -0.5964
vn 0.4780 -0.1011 0.8725
vn 0.4405 -0.7364 0.5135
vn 0.4780 -0.1012 0.8725
vn 0.4404 -0.7364 0.5135
vn 0.6701 -0.5572 0.4903
vn -0.4934 -0.8168 0.2991
vn 0.0619 -0.9877 -0.1437
vn -0.4934 -0.8167 0.2991
vn 0.0892 -0.9850 0.1474
vn -0.0764 -0.4175 -0.9055
vn 0.3078 -0.1177 -0.9441
vn 0.5684 -0.5668 -0.5964
vn 0.5683 -0.5669 -0.5964
vn 0.3385 -0.7462 -0.5732
vn 0.7879 0.1564 0.5956
vn 0.6703 -0.5569 0.4904
vn 0.6703 -0.5570 0.4904
vn 0.8556 -0.4030 0.3248
vn 0.8949 0.2981 -0.3322
vn 0.9469 -0.3157 0.0612
vn 0.9469 -0.3156 0.0610
vn 0.9197 -0.3181 -0.2303
vn -0.2618 -0.6629 0.7014
vn -0.4934 -0.8167 0.2992
vn 0.0889 -0.9851 0.1475
vn 0.0890 -0.9851 0.1474
vn 0.2276 -0.8931 0.3880
vn -0.3183 -0.6140 0.7223
vn -0.8949 -0.2982 0.3321
vn -0.3182 -0.6141 0.7223
vn -0.8949 -0.2982 0.3320
vn -0.6633 -0.1442 0.7343
vn -0.7349 -0.5901 0.3342
vn -0.4935 -0.8167 0.2992
vn -0.2619 -0.6629 0.7014
vn 0.9128 0.3746 0.1625
vn 0.5390 0.8212 0.1876
vn 0.5390 0.8211 0.1877
vn 0.4934 0.8167 -0.2992
vn 0.9405 0.3025 0.1547
vn 0.9405 0.3026 0.1547
vn 0.8950 0.2980 -0.3320
vn 0.7566 0.2249 0.6140
vn 0.4393 -0.0388 0.8975
vn 0.0765 0.4174 0.9055
vn 0.3864 0.6750 0.6286
vn 0.6216 0.4400 0.6480
vn 0.4779 -0.1011 0.8726
vn 0.7880 0.1563 0.5956
vn 0.2650 -0.0556 -0.9626
vn -0.0938 0.4011 -0.9112
vn -0.1284 -0.3625 -0.9231
vn -0.0937 0.4010 -0.9113
vn -0.4776 0.1008 -0.8728
vn -0.2934 -0.1674 -0.9412
vn 0.3078 -0.1177 -0.9442
vn 0.3077 -0.1177 -0.9442
vn -0.0765 -0.4176 -0.9054
vn -0.6022 -0.7759 -0.1880
vn -0.9405 -0.3024 -0.1547
vn -0.8950 -0.2980 0.3320
vn -0.5391 -0.8211 -0.1876
vn -0.7350 -0.5901 0.3339
vn 0.4392 -0.0387 0.8975
vn -0.3078 0.1176 0.9442
vn -0.3078 0.1176 0.9441
vn 0.0765 0.4175 0.9054
vn 0.0937 -0.4011 0.9112
vn 0.2936 0.1674 0.9412
vn 0.0937 -0.4010 0.9113
vn 0.6290 0.2126 -0.7478
vn 0.2617 0.6630 -0.7014
vn 0.4898 0.4273 -0.7599
vn 0.6633 0.1444 -0.7343
vn -0.6022 -0.7759 -0.1878
vn -0.7879 -0.1564 -0.5957
vn -0.9406 -0.3024 -0.1546
vn -0.6216 -0.4400 -0.6480
vn -0.3865 -0.6749 -0.6286
vn -0.5391 -0.8211 -0.1877
vn 0.0456 -0.3459 0.9372
vn -0.3181 -0.6140 0.7223
vn -0.6633 -0.1443 0.7343
vn 0.0458 -0.3459 0.9372
vn -0.6633 -0.1444 0.7343
vn -0.2618 -0.6630 0.7014
vn 0.0939 -0.4010 0.9112
vn 0.6290 0.2125 -0.7478
vn 0.8662 0.3700 -0.3358
vn 0.4935 0.8167 -0.2991
vn 0.4936 0.8167 -0.2990
vn 0.2618 0.6629 -0.7014
vn 0.8949 0.2980 -0.3321
vn 0.7565 0.2249 0.6141
vn 0.3864 0.6750 0.6285
vn 0.5390 0.8212 0.1877
vn 0.7879 0.1563 0.5956
vn 0.7832 0.5948 0.1813
vn -0.4779 0.1013 -0.8725
vn -0.4459 -0.6263 -0.6395
vn -0.4779 0.1013 -0.8726
vn -0.7880 -0.1564 -0.5955
vn -0.6216 -0.4401 -0.6481
vn -0.0766 -0.4174 -0.9055
vn -0.7879 -0.1563 -0.5956
vn -0.4780 0.1011 -0.8725
vn 0.5391 0.8211 0.1877
vn 0.3865 0.6749 0.6286
vn 0.5391 0.8211 0.1876
vn 0.2618 0.6629 -0.7015
vn 0.4935 0.8167 -0.2992
vn 0.2620 0.6629 -0.7013
vn -0.3077 0.1176 0.9442
vn -0.4898 -0.4273 0.7599
vn -0.9405 -0.3026 -0.1547
vn -0.7880 -0.1563 -0.5955
vn -0.6216 -0.4400 -0.6481
vn -0.9405 -0.3025 -0.1547
vn -0.0938 0.4012 -0.9112
vn 0.2618 0.6630 -0.7013
vn 0.4896 0.4273 -0.7601
vn 0.0765 0.4175 0.9055
vn -0.3079 0.1176 0.9441
vn 0.0765 0.4176 0.9054
vn -0.8949 -0.2980 0.3321
vn -0.2936 -0.1674 -0.9412
vn 0.0766 0.4174 0.9055
vn -0.8950 -0.2980 0.3321
vn 0.8568 -0.5153 0.0200
vn 0.9036 0.3955 0.1646
vn 0.7487 -0.5769 -0.3265
vn 0.8389 -0.5171 -0.1697
vn 0.8566 0.3909 -0.3368
vn 0.7487 -0.5770 -0.3263
vn 0.8566 0.3909 -0.3367
vn 0.6100 -0.6791 -0.4083
vn 0.7486 -0.5770 -0.3266
vn 0.6102 -0.6790 -0.4082
vn 0.2520 -0.0372 -0.9670
vn 0.3395 -0.8963 -0.2852
vn -0.1438 -0.3461 -0.9271
vn 0.3396 -0.8963 -0.2853
vn 0.2801 -0.9532 -0.1134
vn -0.4631 -0.6112 -0.6419
vn 0.2802 -0.9532 -0.1133
vn -0.4631 -0.6111 -0.6420
vn -0.6202 -0.7616 -0.1879
vn 0.2979 -0.9515 0.0764
vn 0.2802 -0.9532 -0.1134
vn -0.5732 -0.7571 0.3135
vn 0.2978 -0.9516 0.0764
vn -0.5731 -0.7571 0.3134
vn -0.3346 -0.5989 0.7276
vn 0.5267 -0.7895 0.3149
vn 0.3881 -0.8916 0.2331
vn 0.5268 -0.7895 0.3150
vn 0.6764 -0.6727 0.3000
vn 0.5267 -0.7896 0.3150
vn 0.0316 -0.3291 0.9438
vn 0.7972 -0.5723 0.1921
vn 0.6765 -0.6726 0.2999
vn 0.7973 -0.5723 0.1921
vn 0.4272 -0.0202 0.9039
vn 0.7464 0.2449 0.6188
vn 0.7464 0.2450 0.6187
vn 0.8567 -0.5153 0.0201
vn 0.8643 0.4726 0.1719
vn 0.8166 0.4680 -0.3379
vn -0.6708 0.7052 -0.2298
vn -0.4396 0.8806 -0.1768
vn -0.4397 0.8807 -0.1763
vn -0.4396 0.8807 -0.1764
vn -0.7676 0.6247 -0.1432
vn -0.3672 0.9288 -0.0506
vn -0.3672 0.9288 -0.0507
vn -0.8153 0.5789 -0.0055
vn -0.8153 0.5790 -0.0056
vn -0.3529 0.9302 0.1014
vn -0.4006 0.8845 0.2392
vn -0.8153 0.5790 -0.0057
vn -0.8010 0.5805 0.1465
vn -0.7286 0.6283 0.2726
vn -0.7287 0.6285 0.2721
vn -0.4976 0.8040 0.3256
vn -0.6176 0.7103 0.3377
vn 0.2277 -0.8931 0.3880
vn 0.6702 -0.5569 0.4905
vn 0.6703 -0.5569 0.4905
vn 0.2276 -0.8930 0.3882
vn 0.0891 -0.9851 0.1473
vn 0.8557 -0.4029 0.3247
vn 0.0891 -0.9851 0.1474
vn 0.9469 -0.3156 0.0609
vn 0.1531 -0.9003 -0.4075
vn 0.1530 -0.9003 -0.4075
vn 0.9197 -0.3181 -0.2301
vn 0.7812 -0.4101 -0.4707
vn 0.1531 -0.9002 -0.4076
vn 0.3386 -0.7462 -0.5732
vn 0.7811 -0.4101 -0.4708
vn -0.6766 0.5782 0.4559
vn -0.5036 0.6400 0.5803
vn -0.1461 -0.1437 0.9788
vn -0.3837 0.4652 -0.7978
vn -0.0456 0.6478 -0.7604
vn 0.1635 0.1243 -0.9787
vn -0.5486 0.7967 -0.2535
vn -0.4845 0.4185 0.7682
vn -0.2285 0.5877 0.7762
vn -0.5487 0.7967 -0.2533
vn -0.6382 0.7095 -0.2988
vn -0.5797 0.3090 0.7539
vn -0.3935 0.7341 0.5534
vn -0.6950 0.1518 -0.7028
vn -0.5797 0.3090 0.7540
vn -0.6950 0.1517 -0.7029
vn -0.9364 -0.2508 -0.2457
vn -0.5797 0.3089 0.7540
vn -0.5418 -0.1053 0.8339
vn -0.0979 0.7177 0.6895
vn -0.5797 0.3091 0.7539
vn -0.0977 0.7177 0.6895
vn 0.2403 0.9121 0.3323
vn 0.2663 0.5473 0.7935
vn 0.2403 0.9120 0.3324
vn -0.4846 0.4187 0.7681
vn -0.5486 0.7967 -0.2534
vn -0.5487 0.7967 -0.2534
vn -0.5867 0.8033 -0.1029
vn -0.1105 0.9571 0.2677
vn -0.5488 0.7967 -0.2533
vn -0.1104 0.9572 0.2677
vn 0.2404 0.9120 0.3324
vn -0.5867 0.8032 -0.1030
vn -0.6184 0.7847 -0.0420
vn 0.0946 0.0563 0.9939
vn 0.0946 0.0564 0.9939
vn -0.2053 -0.0633 0.9767
vn -0.9364 -0.2507 -0.2456
vn -0.6950 0.1516 -0.7028
vn 0.0952 -0.7196 -0.6878
vn -0.9364 -0.2508 -0.2456
vn 0.0951 -0.7197 -0.6878
vn -0.2573 -0.9646 -0.0585
vn 0.4966 -0.8157 0.2967
vn 0.4841 -0.8210 0.3027
vn 0.1271 -0.6397 -0.7580
vn 0.1271 -0.6397 -0.7581
vn 0.5029 -0.4931 -0.7099
vn 0.7538 -0.2715 0.5984
vn 0.4965 -0.8158 0.2967
vn 0.5029 -0.4930 -0.7100
vn 0.7537 -0.2716 0.5985
vn 0.5030 -0.4931 -0.7099
vn 0.9882 0.0930 -0.1221
vn 0.4965 -0.8157 0.2968
vn 0.7538 -0.2716 0.5984
vn 0.0580 0.1108 0.9922
vn 0.4966 -0.8157 0.2966
vn 0.0581 0.1109 0.9921
vn -0.5866 0.7203 -0.3703
vn -0.8586 -0.3193 -0.4011
vn -0.9023 -0.4287 -0.0466
vn -0.5865 0.7202 -0.3705
vn -0.9023 -0.4287 -0.0464
vn -0.5593 0.8269 -0.0583
vn 0.4840 -0.8210 0.3029
vn 0.4965 -0.8157 0.2967
vn -0.2052 -0.0633 0.9767
vn 0.4840 -0.8210 0.3028
vn -0.2051 -0.0632 0.9767
vn 0.6879 -0.6877 0.2320
vn 0.3240 -0.7679 0.5526
vn -0.2572 -0.9646 -0.0586
vn 0.6880 -0.6877 0.2321
vn -0.6628 0.7439 -0.0858
vn -0.5865 0.7203 -0.3703
vn 0.6449 0.3661 0.6709
vn -0.6628 0.7438 -0.0859
vn 0.6449 0.3662 0.6709
vn 0.3482 0.2317 0.9083
vn -0.2052 -0.0634 0.9767
vn 0.0580 0.1108 0.9921
vn -0.9266 -0.1022 0.3620
vn -0.5420 -0.1052 0.8338
vn -0.2572 -0.9646 -0.0588
vn 0.3238 -0.7680 0.5525
vn -0.5419 -0.1054 0.8338
vn -0.5797 0.3091 0.7540
vn -0.9363 -0.2508 -0.2456
vn -0.5420 -0.1054 0.8338
vn -0.9363 -0.2508 -0.2457
vn -0.2573 -0.9646 -0.0587
vn 0.2402 0.9120 0.3325
vn -0.1103 0.9571 0.2678
vn 0.0581 0.1108 0.9921
vn 0.2403 0.9120 0.3323
vn -0.6184 0.7848 -0.0419
vn -0.5867 0.8033 -0.1030
vn -0.5865 0.8034 -0.1028
vn -0.4741 0.6714 0.5696
vn -0.5036 0.6400 0.5802
vn -0.3836 0.4652 -0.7978
vn -0.4742 0.6714 0.5696
vn -0.5347 0.3109 -0.7858
vn 0.2664 0.5474 0.7934
vn 0.7537 -0.2716 0.5984
vn 0.9882 0.0931 -0.1219
vn -0.7025 0.6376 -0.3162
vn -0.0978 0.7177 0.6894
vn -0.5419 -0.1053 0.8338
vn -0.7024 0.6377 -0.3163
vn -0.9265 -0.1022 0.3621
vn -0.6826 0.5737 0.4526
vn -0.8602 -0.2080 0.4656
vn 0.1920 0.4319 -0.8813
vn -0.6827 0.5737 0.4524
vn 0.1920 0.4318 -0.8813
vn -0.0457 0.6479 -0.7603
vn 0.2242 0.2483 0.9424
vn 0.2665 0.5472 0.7934
vn 0.9882 0.0931 -0.1220
vn 0.2242 0.2484 0.9423
vn 0.8237 0.4832 -0.2966
vn -0.0184 0.4045 0.9144
vn 0.6424 0.7596 -0.1021
vn 0.5224 0.7671 -0.3723
vn -0.0185 0.4046 0.9143
vn -0.0096 0.2171 0.9761
vn 0.2242 0.2484 0.9424
vn 0.8236 0.4832 -0.2969
vn 0.6423 0.7596 -0.1021
vn 0.2243 0.2484 0.9423
vn -0.0184 0.4047 0.9143
vn -0.7118 -0.6799 0.1764
vn -0.0097 0.2170 0.9761
vn -0.0415 0.2852 0.9576
vn -0.6426 -0.6976 0.3170
vn 0.1919 0.4319 -0.8813
vn -0.8602 -0.2079 0.4657
vn 0.1919 0.4320 -0.8812
vn -0.7118 -0.6799 0.1763
vn -0.1437 -0.0202 -0.9894
vn 0.5224 0.7671 -0.3724
vn -0.0487 -0.2657 -0.9628
vn 0.5225 0.7671 -0.3722
vn 0.6786 0.7302 -0.0802
vn -0.0097 0.2171 0.9761
vn 0.5223 0.7672 -0.3724
vn 0.6784 0.7302 -0.0803
vn 0.6784 0.7303 -0.0803
vn -0.0414 0.2851 0.9576
vn -0.1437 -0.0203 -0.9894
vn -0.6425 -0.6976 0.3169
vn -0.1436 -0.0202 -0.9894
vn -0.6426 -0.6975 0.3170
vn -0.0486 -0.2657 -0.9628
vn 0.6785 0.7302 -0.0802
vn -0.0986 -0.1601 -0.9822
vn 0.6785 0.7302 -0.0803
vn 0.3943 0.8566 -0.3328
vn -0.6425 -0.6977 0.3169
vn -0.0416 0.2851 0.9576
vn -0.4763 0.6487 0.5935
vn -0.6426 -0.6977 0.3168
vn -0.4762 0.6487 0.5936
vn -0.9070 -0.4211 0.0110
vn -0.5755 0.3983 -0.7142
vn -0.9279 0.2271 -0.2956
vn -0.7052 0.7059 -0.0660
vn -0.5756 0.3983 -0.7142
vn -0.7052 0.7059 -0.0662
vn -0.3055 0.8348 -0.4581
vn -0.0415 0.2850 0.9576
vn 0.3944 0.8566 -0.3328
vn -0.0985 -0.1601 -0.9822
vn -0.9069 -0.4211 0.0111
vn -0.9279 0.2273 -0.2956
vn -0.0984 -0.1601 -0.9822
vn -0.9279 0.2274 -0.2956
vn -0.5756 0.3982 -0.7142
vn -0.4763 0.6488 0.5935
vn 0.3942 0.8566 -0.3329
vn -0.3054 0.8348 -0.4580
vn -0.4764 0.6488 0.5934
vn -0.3055 0.8348 -0.4580
vn -0.7051 0.7060 -0.0661
vn 0.3942 0.8566 -0.3328
vn -0.0986 -0.1600 -0.9822
vn -0.5755 0.3983 -0.7143
vn 0.3943 0.8566 -0.3327
vn -0.5755 0.3982 -0.7143
vn -0.4763 0.6487 0.5936
vn -0.9070 -0.4211 0.0111
vn -0.7051 0.7061 -0.0662
vn -0.6425 -0.6977 0.3170
vn -0.9070 -0.4211 0.0112
vn -0.0985 -0.1602 -0.9821
vn -0.3837 0.4651 -0.7978
vn -0.5035 0.6402 0.5802
vn -0.6827 0.5738 0.4525
vn -0.3836 0.4651 -0.7978
vn -0.6827 0.5737 0.4525
vn -0.0457 0.6479 -0.7604
vn -0.8586 -0.3180 -0.4020
vn -0.9265 -0.1023 0.3620
vn 0.3239 -0.7679 0.5527
vn -0.8586 -0.3194 -0.4010
vn 0.3238 -0.7679 0.5527
vn 0.2713 -0.6814 0.6798
vn 0.6450 0.3662 0.6708
vn -0.5591 0.8271 -0.0582
vn -0.5591 0.8270 -0.0584
vn 0.4933 0.5297 0.6899
vn 0.2712 -0.6813 0.6799
vn 0.4933 0.5299 0.6898
vn 0.0949 -0.7080 0.6998
vn -0.8202 -0.0772 0.5668
vn -0.3573 -0.1940 0.9136
vn -0.1645 0.3730 0.9131
vn -0.8202 -0.0772 0.5669
vn -0.1645 0.3731 0.9131
vn -0.6514 0.4951 0.5749
vn 0.4933 0.5299 0.6899
vn -0.6512 0.4954 0.5749
vn 0.4932 0.5299 0.6899
vn -0.6513 0.4951 0.5751
vn -0.9023 -0.4285 -0.0465
vn 0.0952 -0.7080 0.6998
vn -0.3573 -0.1939 0.9136
vn -0.5592 0.8270 -0.0584
vn -0.9023 -0.4286 -0.0464
vn -0.8203 -0.0772 0.5668
vn -0.5592 0.8270 -0.0583
vn -0.8202 -0.0773 0.5669
vn -0.6513 0.4952 0.5750
vn 0.0951 -0.7079 0.6999
vn 0.4934 0.5297 0.6899
vn -0.1646 0.3732 0.9130
vn 0.0950 -0.7079 0.6999
vn -0.1647 0.3731 0.9131
vn -0.3573 -0.1939 0.9137
vn -0.8585 -0.3194 -0.4011
vn 0.2713 -0.6813 0.6799
vn 0.0951 -0.7080 0.6998
vn -0.9022 -0.4287 -0.0465
vn -0.2285 0.5876 0.7762
vn -0.3936 0.7340 0.5535
vn -0.6383 0.7095 -0.2988
vn -0.7024 0.6377 -0.3162
vn -0.6184 0.7848 -0.0421
vn -0.6627 0.7439 -0.0859
vn -0.6383 0.7095 -0.2987
vn -0.2285 0.5877 0.7761
vn -0.6343 0.7082 -0.3099
vn -0.5346 0.3108 -0.7859
vn -0.5331 0.3088 -0.7877
vn 0.3482 0.2318 0.9083
vn 0.6880 -0.6876 0.2321
vn 0.6880 -0.6876 0.2320
vn 0.0950 -0.7197 -0.6878
vn 0.1270 -0.6397 -0.7580
vn 0.0945 0.0564 0.9939
vn -0.6185 0.7847 -0.0419
vn -0.6629 0.7438 -0.0859
vn -0.6628 0.7439 -0.0861
vn -0.5346 0.3109 -0.7859
vn -0.4740 0.6714 0.5696
vn -0.6949 0.1517 -0.7029
vn -0.3934 0.7341 0.5535
vn 0.1920 0.4319 -0.8812
vn 0.8237 0.4832 -0.2968
vn 0.1921 0.4319 -0.8812
vn 0.9882 0.0932 -0.1220
vn 0.5030 -0.4930 -0.7099
vn -0.0457 0.6480 -0.7603
vn 0.1634 0.1242 -0.9787
vn -0.6628 0.7438 -0.0858
vn -0.9265 -0.1024 0.3621
vn -0.5866 0.7202 -0.3704
vn -0.8585 -0.3195 -0.4011
vn -0.3835 0.4651 -0.7979
vn 0.1634 0.1243 -0.9787
vn -0.3835 0.4651 -0.7978
vn -0.5347 0.3108 -0.7858
vn 0.2243 0.2483 0.9424
vn -0.0185 0.4048 0.9142
vn -0.8602 -0.2081 0.4655
vn 0.3481 0.2315 0.9084
vn 0.3238 -0.7680 0.5526
vn 0.3481 0.2316 0.9084
vn 0.6448 0.3663 0.6709
vn 0.2711 -0.6814 0.6799
vn 0.1917 0.4319 -0.8813
vn 0.6423 0.7597 -0.1020
vn 0.8237 0.4831 -0.2968
vn 0.6423 0.7596 -0.1020
vn 0.1919 0.4318 -0.8813
vn 0.5222 0.7672 -0.3724
vn 0.2664 0.5473 0.7934
vn 0.2663 0.5473 0.7934
vn -0.8602 -0.2081 0.4656
vn -0.4844 0.4186 0.7682
vn -0.8602 -0.2080 0.4655
vn -0.6827 0.5738 0.4524
vn -0.4844 0.4187 0.7682
vn -0.1460 -0.1436 0.9788
vn -0.5035 0.6401 0.5803
vn -0.1460 -0.1438 0.9788
vn -0.2284 0.5876 0.7762
vn -0.5037 0.6400 0.5803
vn -0.6113 0.7898 0.0502
vn 0.0563 0.5573 0.8284
vn 0.4242 0.9006 -0.0949
vn -0.7671 -0.0681 0.6379
vn -0.1721 0.4874 -0.8560
vn -0.1721 0.4874 -0.8561
vn -0.9083 -0.1113 -0.4032
vn -0.7671 -0.0680 0.6379
vn 0.0564 0.5573 0.8284
vn 0.1720 -0.4873 0.8561
vn 0.4243 0.9006 -0.0949
vn 0.9083 0.1112 0.4032
vn -0.1720 0.4873 -0.8561
vn 0.7671 0.0681 -0.6379
vn -0.9084 -0.1112 -0.4030
vn -0.0564 -0.5572 -0.8285
vn -0.7672 -0.0680 0.6378
vn -0.9083 -0.1114 -0.4032
vn -0.4242 -0.9006 0.0949
vn 0.0564 0.5572 0.8285
vn 0.1721 -0.4874 0.8560
vn 0.9084 0.1112 0.4031
vn 0.4243 0.9005 -0.0949
vn 0.9083 0.1113 0.4032
vn -0.1720 0.4874 -0.8561
vn 0.7671 0.0680 -0.6379
vn -0.0564 -0.5573 -0.8284
vn -0.0563 -0.5574 -0.8284
vn -0.4243 -0.9006 0.0949
vn 0.1721 -0.4874 0.8561
vn 0.9083 0.1111 0.4032
vn 0.7672 0.0679 -0.6378
vn 0.6114 -0.7898 -0.0500
vn -0.0563 -0.5573 -0.8284
vn 0.6113 -0.7898 -0.0502
vn -0.6114 0.7897 0.0501
vn 0.4241 0.9007 -0.0948
vn -0.6112 0.7899 0.0502
vn 0.4241 0.9006 -0.0948
vn -0.6114 0.7897 0.0502
vn -0.1721 0.4875 -0.8560
vn -0.9084 -0.1113 -0.4031
vn -0.9084 -0.1112 -0.4031
vn -0.7670 -0.0683 0.6380
vn 0.1721 -0.4873 0.8561
vn 0.9084 0.1113 0.4031
vn 0.4241 0.9006 -0.0949
vn -0.0563 -0.5572 -0.8285
vn -0.9084 -0.1111 -0.4032
vn -0.4241 -0.9006 0.0949
vn 0.0564 0.5571 0.8285
vn -0.0565 -0.5573 -0.8284
vn -0.4242 -0.9006 0.0948
vn 0.1722 -0.4875 0.8560
vn 0.6115 -0.7896 -0.0502
vn 0.7671 0.0682 -0.6379
vn 0.7670 0.0683 -0.6380
vn 0.6112 -0.7899 -0.0502
vn -0.6115 0.7896 0.0503
vn 0.0562 0.5571 0.8285
vn 0.4164 0.9050 -0.0872
vn 0.0565 0.5573 0.8284
vn -0.1723 0.4874 -0.8560
vn -0.9083 -0.1112 -0.4032
vn -0.9083 -0.1113 -0.4031
vn -0.7672 -0.0681 0.6378
vn 0.0563 0.5572 0.8285
vn 0.4242 0.9006 -0.0948
vn 0.0566 0.5573 0.8284
vn 0.4241 0.9006 -0.0950
vn 0.9083 0.1113 0.4031
vn 0.7672 0.0682 -0.6378
vn 0.1722 -0.4874 0.8560
vn 0.1720 -0.4874 0.8561
vn 0.6112 -0.7898 -0.0502
vn 0.7670 0.0682 -0.6380
vn 0.6115 -0.7896 -0.0503
vn -0.4240 -0.9007 0.0947
vn 0.1723 -0.4875 0.8560
vn 0.6114 -0.7897 -0.0501
vn -0.6457 0.7614 0.0586
vn 0.0383 0.5612 0.8268
vn 0.4176 0.9038 -0.0939
vn 0.0382 0.5612 0.8268
vn -0.6457 0.7614 0.0588
vn -0.7862 -0.0391 0.6167
vn -0.6456 0.7615 0.0586
vn 0.4176 0.9037 -0.0940
vn -0.1933 0.4941 -0.8476
vn -0.6456 0.7614 0.0589
vn -0.1933 0.4942 -0.8476
vn -0.9234 -0.0788 -0.3756
vn -0.9234 -0.0789 -0.3756
vn -0.7862 -0.0392 0.6167
vn 0.0382 0.5613 0.8268
vn 0.1931 -0.4941 0.8477
vn 0.4176 0.9038 -0.0938
vn 0.9234 0.0788 0.3757
vn -0.1931 0.4943 -0.8476
vn 0.7863 0.0390 -0.6166
vn -0.9234 -0.0789 -0.3757
vn -0.1949 0.4890 -0.8502
vn -0.0383 -0.5612 -0.8268
vn -0.4176 -0.9038 0.0940
vn 0.0381 0.5612 0.8268
vn 0.1933 -0.4941 0.8476
vn 0.9234 0.0789 0.3757
vn 0.7863 0.0391 -0.6167
vn -0.1932 0.4941 -0.8476
vn 0.7862 0.0392 -0.6167
vn -0.0382 -0.5613 -0.8267
vn -0.9234 -0.0787 -0.3756
vn -0.0381 -0.5612 -0.8268
vn -0.4178 -0.9037 0.0940
vn -0.7862 -0.0390 0.6167
vn 0.1931 -0.4942 0.8476
vn 0.9234 0.0788 0.3756
vn 0.1933 -0.4941 0.8477
vn 0.6456 -0.7614 -0.0587
vn 0.9234 0.0787 0.3756
vn 0.6457 -0.7613 -0.0588
vn 0.7862 0.0391 -0.6167
vn 0.6457 -0.7614 -0.0588
vn -0.0383 -0.5613 -0.8267
vn 0.6457 -0.7614 -0.0586
vn -0.4176 -0.9037 0.0940
vn 0.4240 0.9007 -0.0949
vn -0.7670 -0.0682 0.6380
vn -0.1722 0.4874 -0.8561
vn -0.9084 -0.1111 -0.4031
vn 0.4242 0.9006 -0.0947
vn -0.1720 0.4874 -0.8560
vn -0.1722 0.4873 -0.8561
vn -0.9083 -0.1111 -0.4032
vn -0.4241 -0.9006 0.0950
vn 0.0564 0.5572 0.8284
vn 0.9083 0.1112 0.4033
vn 0.7672 0.0681 -0.6378
vn -0.4241 -0.9006 0.0948
vn -0.4242 -0.9006 0.0947
vn 0.1720 -0.4874 0.8560
vn -0.4240 -0.9007 0.0950
vn 0.1722 -0.4873 0.8561
vn -0.6456 0.7614 0.0587
vn 0.4175 0.9038 -0.0939
vn 0.0381 0.5613 0.8268
vn -0.6457 0.7614 0.0587
vn -0.6455 0.7615 0.0587
vn -0.6456 0.7614 0.0588
vn -0.1933 0.4943 -0.8475
vn -0.6457 0.7613 0.0587
vn -0.7863 -0.0391 0.6167
vn 0.1932 -0.4941 0.8476
vn 0.4176 0.9038 -0.0940
vn -0.7863 -0.0392 0.6166
vn -0.9234 -0.0788 -0.3757
vn -0.4175 -0.9038 0.0940
vn 0.4175 0.9038 -0.0940
vn 0.7863 0.0392 -0.6166
vn -0.1932 0.4942 -0.8476
vn -0.0382 -0.5612 -0.8268
vn -0.4177 -0.9038 0.0938
vn -0.7863 -0.0390 0.6166
vn -0.4176 -0.9037 0.0939
vn 0.6457 -0.7613 -0.0587
vn -0.0381 -0.5613 -0.8268
vn 0.6457 -0.7614 -0.0587
vn -0.4175 -0.9038 0.0938
vn 0.1935 -0.4942 0.8475
vn -0.4177 -0.9037 0.0939
vn 0.6455 -0.7615 -0.0587
vn -0.7671 -0.0679 0.6379
vn 0.0563 0.5572 0.8284
vn -0.1722 0.4874 -0.8560
vn -0.1721 0.4873 -0.8561
vn -0.0563 -0.5572 -0.8284
vn -0.0564 -0.5572 -0.8284
vn 0.1721 -0.4875 0.8560
vn 0.6113 -0.7898 -0.0503
vn -0.0565 -0.5574 -0.8283
vn 0.7672 0.0679 -0.6379
vt 0.695580 0.334080
vt 0.689430 0.291700
vt 0.703210 0.291700
vt 0.713870 0.334080
vt 0.163260 0.592390
vt 0.162280 0.529580
vt 0.183350 0.529580
vt 0.185060 0.592390
vt 0.191060 0.529580
vt 0.193030 0.592390
vt 0.133500 0.529580
vt 0.133500 0.592390
vt 0.104710 0.529580
vt 0.103730 0.592390
vt 0.083640 0.529580
vt 0.081930 0.592390
vt 0.075930 0.529580
vt 0.073960 0.592390
vt 0.638000 0.291700
vt 0.651780 0.291700
vt 0.648190 0.286450
vt 0.631780 0.286450
vt 0.648950 0.694710
vt 0.644860 0.640240
vt 0.670600 0.640240
vt 0.670600 0.694710
vt 0.692260 0.694710
vt 0.696350 0.640240
vt 0.715190 0.640240
vt 0.708110 0.694710
vt 0.708250 0.291700
vt 0.720560 0.334080
vt 0.633100 0.694710
vt 0.626020 0.640240
vt 0.670600 0.748180
vt 0.644200 0.748180
vt 0.643710 0.727900
vt 0.670600 0.727900
vt 0.104770 0.687490
vt 0.083750 0.687490
vt 0.627300 0.694710
vt 0.619120 0.640240
vt 0.627340 0.334080
vt 0.645630 0.334080
vt 0.076050 0.687490
vt 0.620650 0.334080
vt 0.632960 0.291700
vt 0.133500 0.687490
vt 0.670600 0.334080
vt 0.670600 0.291700
vt 0.162220 0.687490
vt 0.183240 0.687490
vt 0.713910 0.694710
vt 0.722090 0.640240
vt 0.190940 0.687490
vt 0.685590 0.723650
vt 0.670600 0.723650
vt 0.696570 0.723650
vt 0.700580 0.723650
vt 0.655620 0.723650
vt 0.644640 0.723650
vt 0.640630 0.723650
vt 0.670600 0.573010
vt 0.698840 0.573010
vt 0.621700 0.573010
vt 0.642370 0.573010
vt 0.614140 0.573010
vt 0.719510 0.573010
vt 0.727070 0.573010
vt 0.719290 0.376460
vt 0.726820 0.376460
vt 0.723240 0.376460
vt 0.716190 0.376460
vt 0.160390 0.687490
vt 0.106500 0.529580
vt 0.086740 0.529580
vt 0.642500 0.376460
vt 0.670600 0.376460
vt 0.644290 0.376460
vt 0.697010 0.573010
vt 0.617790 0.573010
vt 0.624870 0.573010
vt 0.621920 0.376460
vt 0.625020 0.376460
vt 0.187480 0.529580
vt 0.180250 0.529580
vt 0.180080 0.687490
vt 0.106600 0.687490
vt 0.086910 0.687490
vt 0.079510 0.529580
vt 0.716340 0.573010
vt 0.644200 0.573010
vt 0.614390 0.376460
vt 0.617970 0.376460
vt 0.160490 0.529580
vt 0.187280 0.687490
vt 0.698710 0.376460
vt 0.696920 0.376460
vt 0.624870 0.748180
vt 0.624020 0.727900
vt 0.617790 0.748180
vt 0.616820 0.727900
vt 0.697010 0.748180
vt 0.697500 0.727900
vt 0.716340 0.748180
vt 0.717190 0.727900
vt 0.723420 0.748180
vt 0.724390 0.727900
vt 0.644290 0.720600
vt 0.670600 0.720600
vt 0.670600 0.738950
vt 0.643610 0.738950
vt 0.625020 0.720600
vt 0.623850 0.738950
vt 0.617970 0.720600
vt 0.616620 0.738950
vt 0.696920 0.720600
vt 0.697600 0.738950
vt 0.716190 0.720600
vt 0.717360 0.738950
vt 0.723240 0.720600
vt 0.724590 0.738950
vt 0.079710 0.687490
vt 0.723420 0.573010
vt 0.694220 0.258300
vt 0.711510 0.258300
vt 0.709430 0.230150
vt 0.693020 0.230150
vt 0.709430 0.286450
vt 0.693020 0.286450
vt 0.670600 0.286450
vt 0.625770 0.286450
vt 0.715430 0.286450
vt 0.652970 0.244150
vt 0.670600 0.244150
vt 0.670600 0.260230
vt 0.652430 0.260230
vt 0.670600 0.258300
vt 0.646990 0.258300
vt 0.648190 0.230150
vt 0.670600 0.230150
vt 0.623370 0.258300
vt 0.629700 0.258300
vt 0.631780 0.230150
vt 0.625770 0.230150
vt 0.717840 0.258300
vt 0.715430 0.230150
vt 0.701150 0.244150
vt 0.688240 0.244150
vt 0.688780 0.260230
vt 0.702080 0.260230
vt 0.689730 0.230150
vt 0.705870 0.244150
vt 0.706950 0.260230
vt 0.640060 0.244150
vt 0.639130 0.260230
vt 0.635340 0.244150
vt 0.634260 0.260230
vt 0.654560 0.285940
vt 0.670600 0.285940
vt 0.703730 0.230150
vt 0.708860 0.230150
vt 0.632350 0.230150
vt 0.637480 0.230150
vt 0.651480 0.230150
vt 0.686650 0.285940
vt 0.698400 0.285940
vt 0.694720 0.297230
vt 0.684530 0.297230
vt 0.642810 0.285940
vt 0.638510 0.285940
vt 0.702700 0.285940
vt 0.691750 0.599840
vt 0.707230 0.599840
vt 0.694720 0.699060
vt 0.684530 0.699060
vt 0.656680 0.297230
vt 0.670600 0.297230
vt 0.646490 0.297230
vt 0.642750 0.297230
vt 0.698460 0.297230
vt 0.670600 0.599840
vt 0.649460 0.599840
vt 0.656680 0.699060
vt 0.670600 0.699060
vt 0.628310 0.599840
vt 0.633980 0.599840
vt 0.646490 0.699060
vt 0.642750 0.699060
vt 0.712900 0.599840
vt 0.698460 0.699060
vt 0.649460 0.396450
vt 0.633980 0.396450
vt 0.629760 0.498140
vt 0.647020 0.498140
vt 0.670600 0.396450
vt 0.691750 0.396450
vt 0.694190 0.498140
vt 0.670600 0.498140
vt 0.712900 0.396450
vt 0.707230 0.396450
vt 0.711450 0.498140
vt 0.717770 0.498140
vt 0.628310 0.396450
vt 0.623440 0.498140
vt 0.624850 0.258300
vt 0.622020 0.258300
vt 0.624550 0.244450
vt 0.624660 0.258300
vt 0.622130 0.258300
vt 0.624130 0.249370
vt 0.630720 0.230150
vt 0.636330 0.230150
vt 0.632770 0.258300
vt 0.632700 0.258300
vt 0.634720 0.230150
vt 0.638860 0.244150
vt 0.638780 0.244150
vt 0.634670 0.230150
vt 0.636350 0.230150
vt 0.630780 0.230150
vt 0.650890 0.244150
vt 0.652170 0.236620
vt 0.640560 0.230150
vt 0.643000 0.244150
vt 0.650830 0.244150
vt 0.643080 0.244150
vt 0.628630 0.258300
vt 0.624720 0.258300
vt 0.628680 0.258300
vt 0.640520 0.230150
vt 0.628460 0.258300
vt 0.628490 0.258300
vt 0.624810 0.258300
vt 0.630690 0.244840
vt 0.630570 0.246440
vt 0.629120 0.254690
vt 0.629140 0.254190
vt 0.628660 0.257300
vt 0.628640 0.257220
vt 0.628950 0.255380
vt 0.628950 0.255630
vt 0.652310 0.237990
vt 0.652010 0.238030
vt 0.652060 0.238580
vt 0.651050 0.243170
vt 0.651070 0.243100
vt 0.181820 1.000000
vt 0.272730 0.842540
vt 0.090910 0.842540
vt 0.363640 1.000000
vt 0.454550 0.842540
vt 0.909090 1.000000
vt 1.000000 0.842540
vt 0.818180 0.842540
vt 0.727270 1.000000
vt 0.636360 0.842540
vt 0.545450 1.000000
vt 0.363640 0.685080
vt 0.181820 0.685080
vt 0.909090 0.685080
vt 0.727270 0.685080
vt 0.545450 0.685080
vt 0.000000 0.685080
vt 0.272730 0.527620
vt 0.090910 0.527620
vt 0.818180 0.527620
vt 0.636360 0.527620
vt 0.454550 0.527620
s 0
usemtl mat0.1015
f 1/1/1 2/2/2 3/3/3
f 1/1/1 3/3/4 4/4/5
f 5/5/6 6/6/7 7/7/8
f 5/5/9 7/7/10 8/8/11
f 8/8/11 7/7/12 9/9/13
f 8/8/11 9/9/14 10/10/15
f 10/10/16 9/9/17 11/7/18
f 10/10/16 11/7/19 12/8/20
f 12/8/21 11/7/22 13/6/23
f 12/8/24 13/6/23 14/5/25
f 14/5/26 13/6/27 15/11/28
f 14/5/26 15/11/29 16/12/30
f 16/12/31 15/11/29 17/13/32
f 16/12/33 17/13/34 18/14/35
f 18/14/36 17/13/37 19/15/38
f 18/14/39 19/15/40 20/16/41
f 20/16/42 19/15/43 21/17/44
f 20/16/45 21/17/46 22/18/47
f 22/18/48 21/17/44 23/15/49
f 22/18/48 23/15/49 24/16/50
f 25/19/51 26/20/52 27/21/53
f 25/19/54 27/21/53 28/22/55
f 24/16/56 23/15/57 29/13/58
f 24/16/56 29/13/59 30/14/60
f 31/12/61 32/11/62 6/6/63
f 31/12/64 6/6/65 5/5/9
f 33/23/66 34/24/67 35/25/68
f 33/23/69 35/25/70 36/26/71
f 37/27/72 38/28/73 39/29/74
f 37/27/75 39/29/76 40/30/77
f 30/14/78 29/13/59 32/11/62
f 30/14/78 32/11/79 31/12/80
f 4/4/81 3/3/82 41/31/83
f 4/4/84 41/31/85 42/32/86
f 43/33/87 44/34/88 34/24/89
f 43/33/87 34/24/89 33/23/90
f 45/35/91 46/36/92 47/37/93
f 45/35/94 47/37/95 48/38/96
f 24/16/50 30/14/78 49/39/97
f 24/16/50 49/39/98 50/40/99
f 51/41/100 52/42/101 44/34/88
f 51/41/100 44/34/102 43/33/103
f 53/43/104 54/19/105 55/20/106
f 53/43/107 55/20/106 56/44/108
f 22/18/48 24/16/109 50/40/110
f 22/18/48 50/40/111 57/45/112
f 58/33/113 59/34/114 52/42/115
f 58/33/116 52/42/115 51/41/117
f 60/46/118 61/47/119 54/19/120
f 60/46/121 54/19/120 53/43/122
f 20/16/123 22/18/47 57/45/124
f 20/16/125 57/45/124 62/40/126
f 63/23/127 64/24/128 59/34/114
f 63/23/127 59/34/129 58/33/116
f 65/43/130 25/19/131 61/47/132
f 65/43/130 61/47/133 60/46/134
f 18/14/135 20/16/136 62/40/137
f 18/14/138 62/40/126 66/39/139
f 67/26/140 68/25/141 64/24/142
f 67/26/143 64/24/144 63/23/145
f 69/44/146 26/20/147 25/19/148
f 69/44/146 25/19/148 65/43/149
f 16/12/150 18/14/36 66/39/139
f 16/12/151 66/39/152 70/48/153
f 71/27/154 72/28/155 68/25/156
f 71/27/154 68/25/157 67/26/143
f 73/49/158 74/50/159 26/20/160
f 73/49/161 26/20/160 69/44/146
f 14/5/26 16/12/162 70/48/163
f 14/5/164 70/48/165 75/51/166
f 76/30/167 77/29/168 72/28/169
f 76/30/167 72/28/170 71/27/171
f 78/1/172 79/2/173 74/50/159
f 78/1/174 74/50/175 73/49/158
f 12/8/176 14/5/177 75/51/178
f 12/8/179 75/51/178 80/52/180
f 81/53/181 82/54/182 77/29/183
f 81/53/184 77/29/185 76/30/186
f 83/4/187 84/3/188 79/2/189
f 83/4/190 79/2/189 78/1/172
f 10/10/191 12/8/192 80/52/193
f 10/10/16 80/52/194 85/55/195
f 40/30/196 39/29/197 82/54/198
f 40/30/196 82/54/198 81/53/199
f 42/32/200 41/31/201 84/3/202
f 42/32/200 84/3/203 83/4/204
f 8/8/205 10/10/206 85/55/195
f 8/8/207 85/55/195 86/52/208
f 5/5/209 8/8/210 86/52/211
f 5/5/212 86/52/213 87/51/214
f 88/49/215 89/50/216 2/2/217
f 88/49/218 2/2/219 1/1/220
f 36/26/221 37/27/222 90/56/223
f 36/26/224 90/56/225 91/57/226
f 37/27/227 40/30/228 92/58/229
f 37/27/230 92/58/231 90/56/232
f 40/30/233 81/53/234 93/59/235
f 40/30/233 93/59/236 92/58/237
f 81/53/181 76/30/238 94/58/239
f 81/53/240 94/58/241 93/59/235
f 76/30/186 71/27/242 95/56/243
f 76/30/244 95/56/245 94/58/246
f 71/27/247 67/26/140 96/57/248
f 71/27/249 96/57/250 95/56/251
f 67/26/140 63/23/252 97/60/253
f 67/26/254 97/60/255 96/57/256
f 63/23/145 58/33/257 98/61/258
f 63/23/259 98/61/260 97/60/261
f 58/33/262 51/41/263 99/62/264
f 58/33/116 99/62/265 98/61/266
f 51/41/117 43/33/87 100/61/267
f 51/41/263 100/61/268 99/62/269
f 43/33/87 33/23/270 101/60/271
f 43/33/272 101/60/273 100/61/274
f 33/23/270 36/26/275 91/57/276
f 33/23/270 91/57/277 101/60/278
f 36/26/71 35/25/279 38/28/280
f 36/26/281 38/28/282 37/27/283
f 35/25/284 102/63/285 103/64/286
f 35/25/284 103/64/287 38/28/288
f 44/34/289 104/65/290 105/66/291
f 44/34/292 105/66/293 34/24/294
f 52/42/101 106/67/295 104/65/296
f 52/42/101 104/65/297 44/34/289
f 59/34/298 107/65/299 106/67/300
f 59/34/301 106/67/295 52/42/101
f 64/24/302 108/66/303 107/65/304
f 64/24/305 107/65/304 59/34/306
f 68/25/307 109/63/308 108/66/309
f 68/25/307 108/66/309 64/24/144
f 72/28/170 110/64/310 109/63/311
f 72/28/312 109/63/313 68/25/314
f 77/29/315 111/68/316 110/64/317
f 77/29/318 110/64/319 72/28/320
f 82/54/198 112/69/321 111/68/322
f 82/54/182 111/68/322 77/29/185
f 39/29/76 113/68/323 112/69/324
f 39/29/325 112/69/326 82/54/327
f 38/28/288 103/64/286 113/68/328
f 38/28/329 113/68/328 39/29/330
f 30/14/331 31/12/332 114/48/333
f 30/14/334 114/48/333 49/39/335
f 34/24/336 105/66/337 102/63/285
f 34/24/294 102/63/285 35/25/338
f 115/70/339 116/71/340 117/72/341
f 115/70/339 117/72/339 118/73/341
f 114/48/340 87/51/340 119/74/341
f 114/48/339 119/74/340 120/48/340
f 19/15/342 17/13/342 121/75/342
f 19/15/343 121/75/343 122/76/342
f 75/51/344 70/48/340 123/48/339
f 75/51/340 123/48/339 124/74/341
f 125/77/339 126/78/341 127/78/339
f 125/77/340 127/78/339 128/79/340
f 103/64/342 102/63/342 129/63/345
f 103/64/346 129/63/345 130/80/342
f 104/65/342 106/67/343 131/81/342
f 104/65/342 131/81/342 132/82/342
f 133/77/340 134/83/340 135/84/339
f 133/77/340 135/84/340 136/79/339
f 11/7/347 9/9/343 137/85/342
f 11/7/342 137/85/342 138/86/342
f 87/51/341 86/52/340 139/87/340
f 87/51/340 139/87/341 119/74/340
f 50/40/340 49/39/339 140/88/339
f 50/40/339 140/88/341 141/89/339
f 109/63/342 110/64/342 142/80/342
f 109/63/345 142/80/347 143/63/342
f 31/12/348 5/5/349 87/51/350
f 31/12/348 87/51/351 114/48/333
f 116/71/340 144/70/340 145/73/339
f 116/71/340 145/73/340 117/72/341
f 21/17/352 19/15/342 122/76/342
f 21/17/342 122/76/342 146/90/345
f 70/48/340 66/39/340 147/88/353
f 70/48/339 147/88/340 123/48/339
f 113/68/343 103/64/345 130/80/342
f 113/68/342 130/80/347 148/91/342
f 105/66/345 104/65/343 132/82/343
f 105/66/343 132/82/343 149/92/342
f 134/83/339 150/93/340 151/94/339
f 134/83/339 151/94/339 135/84/339
f 13/6/343 11/7/343 138/86/343
f 13/6/343 138/86/343 152/95/342
f 86/52/339 85/55/340 153/96/341
f 86/52/339 153/96/339 139/87/340
f 49/39/339 114/48/341 120/48/339
f 49/39/341 120/48/344 140/88/340
f 108/66/345 109/63/342 143/63/342
f 108/66/342 143/63/342 154/92/342
f 144/70/340 155/97/340 156/98/339
f 144/70/339 156/98/340 145/73/341
f 23/15/342 21/17/343 146/90/354
f 23/15/342 146/90/347 157/76/342
f 56/44/355 55/20/106 89/50/356
f 56/44/357 89/50/216 88/49/218
f 46/36/358 158/99/359 159/100/360
f 46/36/358 159/100/361 47/37/362
f 158/99/363 160/101/364 161/102/365
f 158/99/363 161/102/365 159/100/366
f 160/101/367 162/99/368 163/100/369
f 160/101/367 163/100/369 161/102/370
f 162/99/371 164/36/372 165/37/373
f 162/99/371 165/37/373 163/100/374
f 164/36/372 166/35/375 167/38/376
f 164/36/372 167/38/377 165/37/373
f 166/35/375 168/103/378 169/104/379
f 166/35/375 169/104/379 167/38/380
f 168/103/378 170/105/381 171/106/382
f 168/103/383 171/106/384 169/104/385
f 170/105/386 172/107/387 173/108/388
f 170/105/386 173/108/388 171/106/389
f 172/107/387 174/105/390 175/106/391
f 172/107/392 175/106/393 173/108/394
f 174/105/395 176/103/396 177/104/397
f 174/105/398 177/104/397 175/106/393
f 176/103/399 45/35/91 48/38/400
f 176/103/401 48/38/400 177/104/402
f 178/109/403 179/110/404 180/111/405
f 178/109/403 180/111/405 181/112/406
f 182/113/407 178/109/408 181/112/409
f 182/113/407 181/112/410 183/114/411
f 184/115/412 182/113/413 183/114/414
f 184/115/412 183/114/415 185/116/416
f 186/113/417 184/115/418 185/116/419
f 186/113/420 185/116/421 187/114/422
f 188/109/423 186/113/424 187/114/425
f 188/109/423 187/114/425 189/112/426
f 190/110/427 188/109/428 189/112/426
f 190/110/429 189/112/426 191/111/430
f 192/117/431 190/110/429 191/111/430
f 192/117/432 191/111/433 193/118/434
f 194/119/435 192/117/436 193/118/437
f 194/119/438 193/118/439 195/120/440
f 196/121/441 194/119/442 195/120/443
f 196/121/441 195/120/440 197/122/444
f 198/119/445 196/121/446 197/122/447
f 198/119/448 197/122/449 199/120/450
f 200/117/451 198/119/448 199/120/452
f 200/117/453 199/120/454 201/118/455
f 179/110/404 200/117/453 201/118/456
f 179/110/404 201/118/457 180/111/458
f 110/64/343 111/68/345 202/91/343
f 110/64/343 202/91/345 142/80/342
f 57/45/340 50/40/339 141/89/344
f 57/45/341 141/89/340 203/123/340
f 32/11/342 29/13/345 204/75/342
f 32/11/342 204/75/342 205/11/342
f 9/9/342 7/7/342 206/86/343
f 9/9/343 206/86/352 137/85/342
f 207/78/353 133/77/340 136/79/341
f 207/78/339 136/79/340 208/78/339
f 106/67/342 107/65/342 209/82/343
f 106/67/342 209/82/352 131/81/345
f 80/52/341 75/51/340 124/74/339
f 80/52/339 124/74/340 210/87/339
f 17/13/343 15/11/342 211/11/342
f 17/13/342 211/11/343 121/75/342
f 212/83/340 125/77/339 128/79/339
f 212/83/339 128/79/340 213/84/340
f 214/97/340 115/70/340 118/73/459
f 214/97/340 118/73/340 215/98/340
f 111/68/342 112/69/343 216/124/342
f 111/68/347 216/124/342 202/91/342
f 62/40/339 57/45/340 203/123/339
f 62/40/339 203/123/339 217/89/339
f 29/13/343 23/15/345 157/76/345
f 29/13/345 157/76/345 204/75/342
f 7/7/345 6/6/342 218/95/342
f 7/7/342 218/95/342 206/86/342
f 155/97/339 207/78/340 208/78/341
f 155/97/340 208/78/339 156/98/341
f 107/65/347 108/66/342 154/92/342
f 107/65/342 154/92/345 209/82/342
f 126/78/340 214/97/340 215/98/353
f 126/78/339 215/98/353 127/78/340
f 85/55/340 80/52/339 210/87/340
f 85/55/340 210/87/340 153/96/339
f 15/11/342 13/6/342 152/95/342
f 15/11/345 152/95/342 211/11/342
f 150/93/340 212/83/339 213/84/344
f 150/93/340 213/84/340 151/94/340
f 102/63/347 105/66/343 149/92/346
f 102/63/342 149/92/342 129/63/342
f 6/6/343 32/11/342 205/11/342
f 6/6/343 205/11/343 218/95/342
f 112/69/352 113/68/342 148/91/343
f 112/69/343 148/91/342 216/124/342
f 66/39/339 62/40/340 217/89/340
f 66/39/340 217/89/341 147/88/339
f 219/125/460 220/126/461 221/127/462
f 219/125/463 221/127/462 222/128/464
f 79/2/465 84/3/466 223/129/467
f 79/2/468 223/129/469 224/130/470
f 89/50/216 55/20/106 225/21/471
f 89/50/216 225/21/472 226/131/473
f 3/3/474 2/2/2 227/130/475
f 3/3/476 227/130/477 228/129/478
f 61/47/132 25/19/479 28/22/480
f 61/47/132 28/22/481 229/132/482
f 74/50/159 79/2/468 224/130/483
f 74/50/159 224/130/483 230/131/484
f 41/31/201 3/3/3 228/129/478
f 41/31/485 228/129/478 231/133/486
f 54/19/487 61/47/133 229/132/488
f 54/19/105 229/132/488 232/22/489
f 2/2/490 89/50/216 226/131/491
f 2/2/492 226/131/491 227/130/493
f 26/20/494 74/50/495 230/131/484
f 26/20/496 230/131/484 27/21/497
f 84/3/498 41/31/201 231/133/486
f 84/3/498 231/133/486 223/129/469
f 55/20/499 54/19/500 232/22/501
f 55/20/499 232/22/489 225/21/472
f 233/134/502 234/135/503 235/136/504
f 233/134/502 235/136/504 236/137/505
f 237/138/506 238/139/507 239/140/508
f 237/138/509 239/140/510 240/141/511
f 241/126/512 242/125/513 243/128/514
f 241/126/512 243/128/515 244/127/516
f 245/142/517 246/143/518 247/144/519
f 245/142/517 247/144/520 248/145/521
f 249/138/522 219/125/523 222/128/464
f 249/138/524 222/128/464 250/141/525
f 251/146/526 241/126/527 244/127/528
f 251/146/529 244/127/528 252/147/530
f 253/143/531 245/142/532 248/145/533
f 253/143/531 248/145/533 254/144/534
f 255/139/535 249/138/522 250/141/536
f 255/139/535 250/141/537 256/140/538
f 220/126/539 251/146/526 252/147/540
f 220/126/539 252/147/541 221/127/462
f 238/139/542 253/143/543 254/144/544
f 238/139/545 254/144/546 239/140/547
f 242/125/548 237/138/549 240/141/550
f 242/125/551 240/141/550 243/128/514
f 246/143/552 255/139/553 256/140/554
f 246/143/555 256/140/556 247/144/520
f 257/148/557 258/149/558 259/150/559
f 257/148/560 259/150/561 260/151/562
f 261/141/563 262/152/564 243/128/565
f 261/141/566 243/128/567 240/141/568
f 263/148/569 264/153/570 265/154/571
f 263/148/569 265/154/571 266/151/572
f 267/149/573 263/148/574 266/151/575
f 267/149/576 266/151/575 268/150/577
f 269/152/578 270/141/579 250/141/580
f 269/152/581 250/141/580 222/128/582
f 234/135/583 267/149/584 268/150/585
f 234/135/586 268/150/587 235/136/504
f 271/155/588 233/134/589 236/137/590
f 271/155/591 236/137/590 272/156/592
f 273/157/593 271/155/594 272/156/595
f 273/157/596 272/156/597 274/158/598
f 275/155/599 273/157/593 274/158/600
f 275/155/599 274/158/601 276/156/602
f 277/134/603 275/155/604 276/156/605
f 277/134/606 276/156/605 278/137/607
f 264/153/570 257/148/608 260/151/609
f 264/153/610 260/151/611 265/154/612
f 28/22/613 27/21/614 255/139/615
f 28/22/616 255/139/617 246/143/618
f 227/130/493 226/131/619 237/138/620
f 227/130/621 237/138/622 242/125/623
f 225/21/624 232/22/625 253/143/626
f 225/21/624 253/143/627 238/139/628
f 223/129/629 231/133/630 251/146/631
f 223/129/629 251/146/631 220/126/632
f 27/21/633 230/131/634 249/138/635
f 27/21/497 249/138/522 255/139/636
f 232/22/637 229/132/638 245/142/639
f 232/22/501 245/142/639 253/143/640
f 231/133/641 228/129/642 241/126/643
f 231/133/644 241/126/645 251/146/529
f 230/131/646 224/130/647 219/125/648
f 230/131/634 219/125/649 249/138/650
f 229/132/651 28/22/652 246/143/653
f 229/132/654 246/143/653 245/142/639
f 228/129/655 227/130/621 242/125/656
f 228/129/657 242/125/658 241/126/659
f 226/131/619 225/21/624 238/139/660
f 226/131/661 238/139/662 237/138/622
f 224/130/483 223/129/663 220/126/539
f 224/130/483 220/126/664 219/125/665
f 125/77/666 56/44/667 88/49/668
f 125/77/666 88/49/668 126/78/669
f 126/78/670 88/49/668 1/1/671
f 126/78/669 1/1/672 214/97/673
f 116/71/674 42/32/675 83/4/187
f 116/71/676 83/4/677 144/70/678
f 144/70/679 83/4/680 78/1/681
f 144/70/682 78/1/681 155/97/683
f 155/97/684 78/1/681 73/49/158
f 155/97/684 73/49/158 207/78/685
f 207/78/685 73/49/686 69/44/687
f 207/78/688 69/44/146 133/77/689
f 133/77/690 69/44/687 65/43/691
f 133/77/690 65/43/692 134/83/693
f 134/83/694 65/43/130 60/46/134
f 134/83/694 60/46/134 150/93/695
f 150/93/696 60/46/697 53/43/698
f 150/93/699 53/43/122 212/83/700
f 212/83/701 53/43/702 56/44/357
f 212/83/701 56/44/357 125/77/703
f 115/70/704 4/4/84 42/32/705
f 115/70/704 42/32/705 116/71/706
f 214/97/707 1/1/671 4/4/84
f 214/97/708 4/4/84 115/70/709
f 279/136/710 278/137/711 280/159/712
f 279/136/713 280/159/714 281/160/715
f 282/161/716 283/162/717 252/147/718
f 282/161/716 252/147/718 244/127/516
f 284/163/719 285/164/720 254/144/721
f 284/163/722 254/144/723 248/145/724
f 270/141/579 286/165/725 256/140/726
f 270/141/579 256/140/727 250/141/580
f 283/162/728 287/161/729 221/127/462
f 283/162/728 221/127/462 252/147/718
f 285/164/730 288/165/731 239/140/732
f 285/164/720 239/140/732 254/144/733
f 262/152/734 282/161/735 244/127/528
f 262/152/734 244/127/516 243/128/515
f 286/165/725 289/164/736 247/144/520
f 286/165/725 247/144/737 256/140/726
f 287/161/738 269/152/739 222/128/582
f 287/161/740 222/128/582 221/127/741
f 288/165/742 261/141/566 240/141/568
f 288/165/743 240/141/568 239/140/510
f 290/135/744 277/134/745 278/137/746
f 290/135/747 278/137/748 279/136/749
f 289/164/750 284/163/751 248/145/724
f 289/164/752 248/145/753 247/144/520
f 291/166/754 292/167/755 293/168/756
f 291/166/757 293/168/758 294/169/759
f 260/151/760 259/150/761 295/166/762
f 260/151/760 295/166/763 296/167/764
f 274/158/600 272/156/765 297/170/766
f 274/158/767 297/170/768 298/171/769
f 235/136/770 268/150/771 291/166/772
f 235/136/773 291/166/774 299/160/775
f 265/154/571 260/151/609 296/167/776
f 265/154/571 296/167/777 300/172/778
f 276/156/605 274/158/779 298/171/780
f 276/156/781 298/171/782 301/170/783
f 236/137/784 235/136/785 299/160/786
f 236/137/784 299/160/787 302/159/788
f 266/151/789 265/154/571 300/172/790
f 266/151/575 300/172/791 292/167/792
f 278/137/793 276/156/781 301/170/783
f 278/137/794 301/170/783 280/159/795
f 259/150/561 279/136/796 281/160/797
f 259/150/761 281/160/715 295/166/798
f 272/156/799 236/137/800 302/159/801
f 272/156/595 302/159/802 297/170/766
f 268/150/803 266/151/804 292/167/805
f 268/150/577 292/167/805 291/166/806
f 303/173/807 304/174/808 305/175/809
f 303/173/810 305/175/809 306/176/811
f 281/160/812 280/159/714 307/177/813
f 281/160/814 307/177/815 308/178/816
f 296/167/817 295/166/818 309/169/819
f 296/167/817 309/169/820 310/168/821
f 298/171/822 297/170/823 311/179/824
f 298/171/825 311/179/826 312/180/827
f 299/160/787 291/166/774 294/169/828
f 299/160/775 294/169/759 313/178/829
f 300/172/830 296/167/831 310/168/832
f 300/172/830 310/168/832 314/181/833
f 301/170/783 298/171/780 312/180/834
f 301/170/835 312/180/836 315/179/837
f 302/159/838 299/160/775 313/178/829
f 302/159/839 313/178/840 316/177/841
f 292/167/842 300/172/830 314/181/843
f 292/167/792 314/181/843 293/168/758
f 280/159/712 301/170/783 315/179/837
f 280/159/712 315/179/844 307/177/845
f 295/166/798 281/160/812 308/178/816
f 295/166/798 308/178/816 309/169/846
f 297/170/847 302/159/848 316/177/849
f 297/170/850 316/177/851 311/179/852
f 317/182/853 318/183/854 319/184/855
f 317/182/853 319/184/855 320/185/856
f 321/174/857 322/173/858 323/176/859
f 321/174/860 323/176/861 324/175/862
f 325/186/863 326/187/864 327/188/865
f 325/186/863 327/188/866 328/189/867
f 329/182/868 303/173/869 306/176/870
f 329/182/871 306/176/872 330/185/873
f 331/190/874 321/174/875 324/175/876
f 331/190/877 324/175/878 332/191/879
f 333/187/880 325/186/863 328/189/881
f 333/187/882 328/189/883 334/188/884
f 335/183/885 329/182/871 330/185/886
f 335/183/887 330/185/886 336/184/888
f 304/174/889 331/190/890 332/191/891
f 304/174/889 332/191/892 305/175/893
f 318/183/894 333/187/882 334/188/895
f 318/183/894 334/188/896 319/184/897
f 322/173/898 317/182/853 320/185/899
f 322/173/898 320/185/900 323/176/901
f 326/187/902 335/183/903 336/184/904
f 326/187/902 336/184/905 327/188/906
f 311/179/907 316/177/841 337/192/908
f 311/179/909 337/192/910 338/193/911
f 339/194/645 340/195/912 335/183/913
f 339/194/643 335/183/913 326/187/914
f 309/169/819 308/178/915 341/196/916
f 309/169/819 341/196/917 342/197/918
f 343/198/535 344/199/635 317/182/919
f 343/198/535 317/182/920 322/173/921
f 307/177/922 315/179/923 345/193/924
f 307/177/922 345/193/924 346/192/925
f 347/195/926 348/194/632 333/187/880
f 347/195/926 333/187/927 318/183/928
f 293/168/758 314/181/929 349/200/930
f 293/168/931 349/200/932 350/201/933
f 351/202/934 352/203/532 331/190/935
f 351/202/531 331/190/936 304/174/937
f 316/177/851 313/178/938 353/196/939
f 316/177/851 353/196/939 337/192/940
f 340/195/513 354/199/549 329/182/941
f 340/195/942 329/182/941 335/183/913
f 315/179/943 312/180/836 355/204/944
f 315/179/943 355/204/945 345/193/946
f 348/194/539 356/205/526 325/186/947
f 348/194/948 325/186/949 333/187/880
f 314/181/833 310/168/950 357/201/951
f 314/181/833 357/201/951 349/200/930
f 352/203/517 358/202/952 321/174/953
f 352/203/517 321/174/953 331/190/874
f 313/178/954 294/169/828 359/197/955
f 313/178/829 359/197/955 353/196/956
f 354/199/622 360/198/957 303/173/958
f 354/199/622 303/173/958 329/182/959
f 312/180/960 311/179/961 338/193/962
f 312/180/963 338/193/964 355/204/944
f 356/205/526 339/194/527 326/187/864
f 356/205/529 326/187/965 325/186/966
f 310/168/967 309/169/968 342/197/969
f 310/168/967 342/197/970 357/201/971
f 358/202/653 343/198/535 322/173/972
f 358/202/653 322/173/972 321/174/953
f 308/178/915 307/177/973 346/192/974
f 308/178/915 346/192/974 341/196/975
f 344/199/650 347/195/523 318/183/976
f 344/199/977 318/183/976 317/182/919
f 294/169/759 293/168/756 350/201/978
f 294/169/979 350/201/980 359/197/981
f 360/198/982 351/202/543 304/174/983
f 360/198/982 304/174/808 303/173/958
f 359/197/984 350/201/985 351/202/531
f 359/197/984 351/202/531 360/198/957
f 341/196/986 346/192/987 347/195/463
f 341/196/988 347/195/523 344/199/977
f 357/201/989 342/197/990 343/198/535
f 357/201/991 343/198/535 358/202/618
f 355/204/992 338/193/964 339/194/993
f 355/204/992 339/194/645 356/205/529
f 353/196/994 359/197/995 360/198/996
f 353/196/997 360/198/957 354/199/509
f 349/200/998 357/201/999 358/202/653
f 349/200/998 358/202/1000 352/203/639
f 345/193/1001 355/204/1002 356/205/526
f 345/193/1003 356/205/631 348/194/632
f 337/192/1004 353/196/997 354/199/549
f 337/192/1004 354/199/549 340/195/513
f 350/201/985 349/200/932 352/203/639
f 350/201/985 352/203/639 351/202/1005
f 346/192/987 345/193/1006 348/194/539
f 346/192/987 348/194/539 347/195/926
f 342/197/990 341/196/988 344/199/522
f 342/197/990 344/199/522 343/198/535
f 338/193/964 337/192/1007 340/195/912
f 338/193/964 340/195/912 339/194/527
f 262/152/734 261/141/1008 290/135/1009
f 262/152/734 290/135/1009 258/149/558
f 282/161/1010 262/152/1011 258/149/1012
f 282/161/1013 258/149/1014 257/148/560
f 283/162/1015 282/161/1016 257/148/608
f 283/162/717 257/148/608 264/153/570
f 287/161/738 283/162/1017 264/153/1018
f 287/161/738 264/153/610 263/148/569
f 269/152/1019 287/161/729 263/148/1020
f 269/152/1021 263/148/574 267/149/576
f 270/141/1022 269/152/1021 267/149/1023
f 270/141/1024 267/149/1025 234/135/1026
f 286/165/1027 270/141/1028 234/135/1026
f 286/165/1027 234/135/1026 233/134/1029
f 289/164/750 286/165/1030 233/134/502
f 289/164/736 233/134/1031 271/155/1032
f 284/163/1033 289/164/1034 271/155/594
f 284/163/1035 271/155/594 273/157/593
f 285/164/1036 284/163/1037 273/157/596
f 285/164/720 273/157/1038 275/155/599
f 288/165/1039 285/164/1040 275/155/599
f 288/165/1041 275/155/1042 277/134/1043
f 261/141/566 288/165/742 277/134/1044
f 261/141/1045 277/134/1044 290/135/1009
f 258/149/558 290/135/1009 279/136/1046
f 258/149/558 279/136/1046 259/150/1047
f 100/61/1048 98/61/1049 99/62/264
f 98/61/1050 100/61/1048 101/60/273
f 98/61/1051 101/60/1052 97/60/1053
f 97/60/1054 101/60/278 91/57/1055
f 97/60/1054 91/57/1056 96/57/1057
f 96/57/1057 91/57/1056 95/56/1058
f 95/56/1058 91/57/1059 90/56/1060
f 95/56/245 90/56/1060 92/58/1061
f 95/56/245 92/58/1062 94/58/1063
f 94/58/1063 92/58/1062 93/59/1064
f 327/188/1065 334/188/1066 328/189/883
f 334/188/1067 327/188/1068 336/184/1069
f 334/188/896 336/184/1069 319/184/855
f 319/184/1070 336/184/1071 320/185/1072
f 320/185/900 336/184/1071 330/185/873
f 320/185/900 330/185/873 306/176/1073
f 320/185/900 306/176/1074 323/176/1075
f 323/176/1075 306/176/1073 324/175/1076
f 324/175/1076 306/176/1077 305/175/1078
f 324/175/1079 305/175/1078 332/191/891
usemtl mat4.163
f 361/206/1080 362/207/1081 363/208/1082
f 364/209/1083 365/210/1084 366/211/1085
f 367/163/1086 368/145/1087 369/212/1088
f 367/163/1089 369/212/1088 370/213/1090
f 371/139/1091 372/214/1092 373/215/1093
f 371/139/1094 373/215/1095 374/139/1096
f 371/139/1097 375/140/1098 376/216/1099
f 371/139/1100 376/216/1101 372/214/1092
f 377/164/1102 378/144/1103 368/145/1087
f 377/164/1104 368/145/1105 367/163/1106
f 367/163/1107 379/157/1108 380/155/1109
f 367/163/1110 380/155/1111 377/164/1112
f 379/157/1113 381/217/1114 382/218/1115
f 379/157/1113 382/218/1116 383/157/1117
f 374/139/1118 373/215/1119 384/219/1120
f 374/139/1121 384/219/1122 385/140/1123
f 386/163/1124 387/220/1125 388/221/1126
f 386/163/1124 388/221/1127 389/145/1128
f 390/164/1129 386/163/1130 389/145/1131
f 390/164/1132 389/145/1133 391/144/1134
f 386/163/1135 390/164/1136 392/155/1137
f 386/163/1138 392/155/1139 383/157/1117
f 393/222/1140 394/223/1141 395/223/1142
f 393/222/1143 395/223/1144 396/222/1145
f 397/220/1146 386/163/1147 383/157/1148
f 397/220/1149 383/157/1150 398/218/1115
f 399/224/1151 400/165/1152 385/140/1153
f 399/224/1154 385/140/1153 384/219/1120
f 401/225/1155 402/222/1156 403/226/1157
f 401/225/1158 403/226/1159 404/227/1160
f 380/155/1109 379/157/1113 383/157/1117
f 380/155/1109 383/157/1161 392/155/1162
f 405/165/1163 375/140/1164 385/140/1123
f 405/165/1163 385/140/1165 400/165/1166
f 375/140/1167 371/139/1168 374/139/1169
f 375/140/1170 374/139/1171 385/140/1172
f 377/164/1173 380/155/1174 392/155/1175
f 377/164/1176 392/155/1137 390/164/1136
f 370/213/1090 406/217/1177 379/157/1178
f 370/213/1090 379/157/1179 367/163/1106
f 407/228/1180 408/229/1181 364/209/1182
f 407/228/1183 364/209/1182 409/230/1184
f 378/144/1185 377/164/1176 390/164/1186
f 378/144/1185 390/164/1129 391/144/1187
f 410/231/1188 411/216/1189 375/140/1190
f 410/231/1191 375/140/1167 405/165/1192
f 361/206/1193 412/232/1194 413/233/1195
f 361/206/1196 413/233/1197 414/234/1198
f 415/235/1199 378/144/1200 391/144/1201
f 415/235/1202 391/144/1201 416/236/1203
f 417/235/1204 418/236/1205 419/237/1206
f 417/235/1207 419/237/1206 420/238/1208
f 415/235/1209 416/236/1210 418/236/1211
f 415/235/1212 418/236/1211 417/235/1213
f 421/232/1214 420/238/1215 422/238/1216
f 421/232/1214 422/238/1216 423/232/1217
f 413/233/1218 412/232/1219 424/232/1214
f 413/233/1220 424/232/1221 425/233/1222
f 419/237/1223 425/233/1222 426/233/1224
f 419/237/1225 426/233/1224 427/237/1226
f 420/238/1227 419/237/1228 427/237/1229
f 420/238/1227 427/237/1230 422/238/1231
f 425/233/1232 424/232/1214 428/232/1233
f 425/233/1234 428/232/1235 426/233/1236
f 427/237/1237 426/233/1224 429/233/1238
f 427/237/1239 429/233/1238 430/237/1240
f 423/232/1241 422/238/1242 431/238/1243
f 423/232/1244 431/238/1245 432/232/1246
f 433/239/1247 434/240/1248 435/241/1249
f 433/239/1250 435/241/1251 436/242/1252
f 422/238/1253 427/237/1237 430/237/1240
f 422/238/1231 430/237/1254 431/238/1245
f 429/233/1255 437/232/1256 434/240/1257
f 429/233/1258 434/240/1259 433/239/1260
f 431/238/1261 430/237/1262 436/242/1263
f 431/238/1264 436/242/1265 435/241/1266
f 430/237/1267 429/233/1268 433/239/1269
f 430/237/1270 433/239/1271 436/242/1252
f 432/232/1256 431/238/1272 435/241/1266
f 432/232/1273 435/241/1274 434/240/1259
f 426/233/1236 428/232/1275 437/232/1276
f 426/233/1236 437/232/1273 429/233/1277
f 364/209/1278 408/229/1279 361/206/1280
f 364/209/1281 361/206/1282 414/234/1283
f 438/223/1284 405/165/1285 400/165/1286
f 438/223/1287 400/165/1288 439/243/1289
f 403/226/1290 402/222/1143 440/222/1291
f 403/226/1157 440/222/1292 441/226/1293
f 442/243/1294 403/226/1157 441/226/1295
f 442/243/1294 441/226/1295 443/243/1296
f 444/244/1297 445/245/1298 446/246/1299
f 444/244/1300 446/246/1301 447/247/1302
f 441/226/1303 440/222/1292 447/247/1304
f 441/226/1305 447/247/1306 446/246/1299
f 448/223/1307 449/243/1308 445/245/1309
f 448/223/1144 445/245/1309 444/244/1297
f 396/222/1310 395/223/1311 444/244/1312
f 396/222/1313 444/244/1314 447/247/1315
f 443/243/1316 441/226/1317 446/246/1318
f 443/243/1319 446/246/1320 445/245/1321
f 438/223/1322 439/243/1323 449/243/1324
f 438/223/1322 449/243/1308 448/223/1325
f 369/212/1326 450/228/1180 372/214/1327
f 369/212/1326 372/214/1327 376/216/1189
f 406/217/1114 370/213/1328 451/231/1329
f 406/217/1330 451/231/1329 452/225/1331
f 370/213/1332 369/212/1333 411/216/1189
f 370/213/1334 411/216/1189 410/231/1191
f 384/219/1122 373/215/1093 409/230/1335
f 384/219/1120 409/230/1336 388/221/1126
f 404/227/1337 453/224/1338 397/220/1149
f 404/227/1160 397/220/1149 398/218/1115
f 399/224/1339 384/219/1340 388/221/1126
f 399/224/1339 388/221/1341 387/220/1125
f 382/218/1342 381/217/1343 401/225/1344
f 382/218/1116 401/225/1345 404/227/1160
f 407/228/1180 409/230/1346 373/215/1093
f 407/228/1347 373/215/1348 372/214/1349
f 391/144/1187 413/233/1350 416/236/1351
f 413/233/1352 391/144/1353 389/145/1131
f 413/233/1218 389/145/1354 454/234/1355
f 454/234/1355 389/145/1128 366/211/1356
f 405/165/1192 452/225/1344 451/231/1188
f 452/225/1357 405/165/1358 393/222/1359
f 393/222/1359 405/165/1192 394/223/1360
f 389/145/1131 364/209/1361 455/211/1362
f 364/209/1363 389/145/1131 388/221/1127
f 364/209/1361 388/221/1341 409/230/1364
f 420/238/1227 456/235/1365 457/235/1366
f 456/235/1365 420/238/1227 458/232/1367
f 458/232/1367 420/238/1215 421/232/1214
f 404/227/1368 400/165/1286 453/224/1151
f 400/165/1369 404/227/1370 403/226/1159
f 400/165/1369 403/226/1371 442/243/1372
f 413/233/1373 418/236/1374 416/236/1375
f 418/236/1376 413/233/1377 419/237/1378
f 419/237/1228 413/233/1350 425/233/1222
f 458/232/1194 378/144/1379 456/235/1209
f 378/144/1380 458/232/1381 368/145/1382
f 368/145/1382 458/232/1383 459/206/1384
f 368/145/1385 459/206/1384 363/208/1386
f 408/229/1387 368/145/1382 363/208/1388
f 368/145/1385 408/229/1387 369/212/1326
f 369/212/1389 408/229/1390 450/228/1347
f 460/248/1391 461/249/1392 462/250/1393
f 461/249/1392 463/251/353 464/252/1394
f 465/253/339 466/254/1393 467/255/1395
f 468/256/339 467/255/1396 469/257/1397
f 470/258/353 469/257/1397 464/252/1398
f 461/249/1399 464/252/1398 471/259/1400
f 462/250/1401 461/249/1392 472/260/1402
f 467/255/1403 466/254/1393 473/261/1404
f 469/257/1405 467/255/1395 474/262/1406
f 464/252/1407 469/257/1408 475/263/1409
f 461/249/1410 471/259/1411 472/260/1412
f 462/250/1413 472/260/1414 476/264/1404
f 467/255/1415 473/261/1416 474/262/1417
f 469/257/1397 474/262/1418 475/263/1419
f 464/252/1394 475/263/1409 471/259/1420
f 472/260/1421 471/259/1420 477/265/345
f 476/264/1422 472/260/1414 478/266/1423
f 474/262/1417 473/261/1416 479/267/1423
f 475/263/1409 474/262/1424 480/268/1425
f 471/259/1411 475/263/1409 481/269/343
f 482/248/1426 483/249/1399 484/250/1427
f 483/249/1399 485/251/1426 486/252/1394
f 487/253/1428 488/254/1429 489/255/1395
f 490/256/1430 489/255/1431 491/257/1432
f 492/258/1428 491/257/1433 486/252/1434
f 483/249/1392 486/252/1394 493/259/1435
f 484/250/1429 483/249/1399 494/260/1436
f 489/255/1431 488/254/1437 495/261/1404
f 491/257/1397 489/255/1395 496/262/1438
f 486/252/1394 491/257/1439 497/263/1440
f 483/249/1441 493/259/1411 494/260/1414
f 484/250/1429 494/260/1421 498/264/1404
f 489/255/1403 495/261/1404 496/262/1417
f 491/257/1432 496/262/1442 497/263/1443
f 486/252/1394 497/263/1443 493/259/1444
f 494/260/1436 493/259/1420 499/265/1445
f 498/264/1446 494/260/1412 500/266/1425
f 496/262/1417 495/261/1447 501/267/345
f 497/263/1409 496/262/1417 502/268/345
f 493/259/1411 497/263/1443 503/269/1448
f 504/248/1449 505/249/1450 506/250/1451
f 505/249/1452 507/251/1430 508/252/1394
f 509/253/1426 510/254/1393 511/255/1453
f 512/256/339 511/255/1415 513/257/1454
f 514/258/1428 513/257/1455 508/252/1394
f 505/249/1392 508/252/1456 515/259/1420
f 506/250/1437 505/249/1457 516/260/1402
f 511/255/1395 510/254/1458 517/261/1404
f 513/257/1408 511/255/1395 518/262/1442
f 508/252/1398 513/257/1397 519/263/1440
f 505/249/1459 515/259/1411 516/260/1414
f 506/250/1460 516/260/1461 520/264/1416
f 511/255/1396 517/261/1462 518/262/1424
f 513/257/1397 518/262/1417 519/263/1440
f 508/252/1394 519/263/1440 515/259/1463
f 516/260/1414 515/259/1464 521/265/345
f 520/264/1404 516/260/1414 522/266/1465
f 518/262/1417 517/261/1466 523/267/1467
f 519/263/1468 518/262/1417 524/268/1425
f 515/259/1469 519/263/1443 525/269/1470
f 526/248/1471 527/249/1472 528/250/1473
f 527/249/1474 529/251/1475 530/252/1476
f 531/253/1477 532/254/1478 533/255/1479
f 534/256/1480 533/255/1481 535/257/1482
f 536/258/1471 535/257/1483 530/252/1484
f 527/249/1485 530/252/1476 537/259/1486
f 528/250/1487 527/249/1472 538/260/1488
f 533/255/1489 532/254/1473 539/261/1490
f 535/257/1491 533/255/1492 540/262/1493
f 530/252/1476 535/257/1483 541/263/1494
f 527/249/1495 537/259/1496 538/260/1488
f 528/250/1473 538/260/1497 542/264/1498
f 533/255/1499 539/261/1500 540/262/1501
f 535/257/1502 540/262/1503 541/263/1504
f 530/252/1505 541/263/1494 537/259/1506
f 538/260/1507 537/259/1508 543/265/1509
f 542/264/1500 538/260/1510 544/266/1511
f 540/262/1501 539/261/1512 545/267/1513
f 541/263/1494 540/262/1514 546/268/1515
f 537/259/1508 541/263/1516 547/269/1509
f 548/248/1430 549/249/1399 550/250/1517
f 549/249/1399 551/251/1430 552/252/1518
f 553/253/339 554/254/1437 555/255/1519
f 556/256/459 555/255/1431 557/257/1397
f 558/258/341 557/257/1520 552/252/1398
f 549/249/1392 552/252/1394 559/259/1464
f 550/250/1521 549/249/1399 560/260/1414
f 555/255/1522 554/254/1521 561/261/1404
f 557/257/1397 555/255/1523 562/262/1417
f 552/252/1456 557/257/1524 563/263/1525
f 549/249/1526 559/259/1411 560/260/1527
f 550/250/1437 560/260/1421 564/264/1528
f 555/255/1403 561/261/1446 562/262/1424
f 557/257/1454 562/262/1417 563/263/1529
f 552/252/1456 563/263/1530 559/259/1531
f 560/260/1414 559/259/1411 565/265/345
f 564/264/1404 560/260/1421 566/266/342
f 562/262/1417 561/261/1416 567/267/345
f 563/263/1532 562/262/1417 568/268/1425
f 559/259/1533 563/263/1440 569/269/1425
f 570/248/1534 571/249/1472 572/250/1535
f 571/249/1536 573/251/1537 574/252/1484
f 575/253/1538 576/254/1478 577/255/1481
f 578/256/1539 577/255/1540 579/257/1491
f 580/258/1541 579/257/1502 574/252/1542
f 571/249/1495 574/252/1476 581/259/1543
f 572/250/1473 571/249/1485 582/260/1497
f 577/255/1479 576/254/1544 583/261/1490
f 579/257/1482 577/255/1479 584/262/1493
f 574/252/1545 579/257/1546 585/263/1547
f 571/249/1495 581/259/1496 582/260/1507
f 572/250/1548 582/260/1488 586/264/1549
f 577/255/1550 583/261/1500 584/262/1503
f 579/257/1482 584/262/1551 585/263/1552
f 574/252/1553 585/263/1554 581/259/1496
f 582/260/1488 581/259/1496 587/265/1515
f 586/264/1498 582/260/1510 588/266/1555
f 584/262/1556 583/261/1500 589/267/1557
f 585/263/1558 584/262/1493 590/268/1557
f 581/259/1559 585/263/1560 591/269/1561
f 592/248/339 593/249/1399 594/250/1437
f 593/249/1399 595/251/459 596/252/1562
f 597/253/1391 598/254/1393 599/255/1522
f 600/256/341 599/255/1395 601/257/1397
f 602/258/340 601/257/1408 596/252/1394
f 593/249/1563 596/252/1394 603/259/1420
f 594/250/1393 593/249/1526 604/260/1414
f 599/255/1564 598/254/1393 605/261/1404
f 601/257/1397 599/255/1565 606/262/1417
f 596/252/1398 601/257/1454 607/263/1443
f 593/249/1399 603/259/1420 604/260/1414
f 594/250/1458 604/260/1436 608/264/1416
f 599/255/1396 605/261/1404 606/262/1566
f 601/257/1397 606/262/1567 607/263/1409
f 596/252/1394 607/263/1443 603/259/1463
f 604/260/1414 603/259/1568 609/265/342
f 608/264/1404 604/260/1461 610/266/1569
f 606/262/1570 605/261/1571 611/267/1425
f 607/263/1529 606/262/1442 612/268/1425
f 603/259/1435 607/263/1409 613/269/1425
