# Blender 4.2.3 LTS
# www.blender.org
mtllib hat.mtl
o dynamic
v 68.817772 29.257133 424.702484
v 76.384132 32.769375 425.196198
v 76.457542 29.550501 425.105988
v 76.472191 34.442490 424.569031
v 68.709023 32.972118 423.269043
v 64.301224 23.910789 422.035858
v 69.539139 24.449354 423.189117
v 62.703224 27.941280 423.081909
v 62.010307 31.488274 421.987244
v 61.471638 34.127571 419.684204
v 68.197510 35.883778 420.770416
v 68.395981 37.791016 417.694427
v 61.676895 35.906712 416.909698
v 68.067162 38.420635 413.688934
v 62.029072 36.571884 412.953033
v 63.512329 34.967045 409.058044
v 68.680740 36.501362 409.046783
v 75.613152 34.963783 406.388580
v 75.614975 38.279591 410.037109
v 69.081734 34.028019 405.953949
v 75.715385 30.526632 403.649292
v 70.052834 30.093822 404.088257
v 64.148682 32.476597 406.451324
v 64.735847 28.670021 404.537476
v 70.574081 25.813862 403.877899
v 65.354446 25.051382 404.249481
v 70.596642 22.781103 405.352783
v 65.401718 22.357973 405.612732
v 65.639107 20.207781 407.575256
v 71.013832 20.470888 407.479919
v 76.119850 22.649685 404.941559
v 76.474495 20.473454 407.084320
v 75.822472 25.885132 403.164673
v 75.628181 40.058193 414.444153
v 76.212936 39.599030 418.648041
v 76.060394 37.446751 421.616394
v 64.969017 20.980686 419.945343
v 76.458183 26.332912 424.192932
v 70.009048 21.031105 421.209747
v 70.868309 18.618876 417.548767
v 76.537796 22.004990 421.599670
v 65.460205 18.518625 416.453247
v 65.863983 17.794321 413.687408
v 71.150978 17.892538 414.149200
v 65.703209 18.508307 410.202698
v 70.870659 18.713511 410.398163
v 65.639107 20.207781 407.575256
v 71.013832 20.470888 407.479919
v 76.406380 18.715488 410.046082
v 76.474495 20.473454 407.084320
v 76.415245 17.613766 413.351349
v 76.566399 18.599466 417.649506
v 65.028580 20.660532 412.884125
v 65.460205 18.518625 416.453247
v 65.863983 17.794321 413.687408
v 65.703209 18.508307 410.202698
v 64.801453 22.729349 409.773041
v 64.395966 23.693396 416.222931
v 64.969017 20.980686 419.945343
v 63.407055 27.232800 419.057983
v 64.301224 23.910789 422.035858
v 62.703224 27.941280 423.081909
v 62.010307 31.488274 421.987244
v 61.471638 34.127571 419.684204
v 61.676895 35.906712 416.909698
v 63.109730 30.055061 416.117615
v 62.983818 32.347847 413.055847
v 64.168732 26.408245 412.947052
v 63.935032 29.007338 409.924713
v 64.653885 25.254768 407.366455
v 65.401718 22.357973 405.612732
v 65.354446 25.051382 404.249481
v 64.735847 28.670021 404.537476
v 65.639107 20.207781 407.575256
v 64.148682 32.476597 406.451324
v 63.512329 34.967045 409.058044
v 62.029072 36.571884 412.953033
v 74.164375 36.399349 433.303009
v 74.474968 36.954060 432.641083
v 74.233833 33.080601 434.084991
v 72.656532 36.350693 434.992645
v 70.801361 36.002682 436.053436
v 72.873009 33.824207 435.857025
v 70.767204 34.709126 436.764618
v 70.543282 30.670616 438.573303
v 72.934875 29.019690 437.296143
v 74.200470 27.261938 435.326935
v 75.237984 32.082600 431.929199
v 75.052025 25.430885 433.114502
v 75.930046 31.128019 429.528992
v 75.464676 23.499903 430.774811
v 76.839554 26.129633 424.151093
v 76.934723 21.740814 421.659393
v 75.650047 18.721958 424.667389
v 75.774940 13.434427 418.430054
v 76.983383 18.212425 417.569092
v 76.824478 16.828190 413.172180
v 75.253593 8.041302 412.305084
v 74.695404 7.140345 411.236603
v 75.696564 11.684375 406.601227
v 76.661728 18.447517 410.046997
v 76.778130 20.208261 410.821014
v 76.742035 20.241411 406.925446
v 75.405975 14.585927 402.188477
v 76.354729 22.622524 404.650940
v 75.223488 18.164093 398.653137
v 74.258537 12.373233 400.373230
v 74.400543 9.276048 405.525360
v 73.901276 6.544251 410.339447
v 72.832916 7.919827 405.203278
v 72.290291 5.890414 409.210815
v 69.067566 5.225724 407.261139
v 67.427223 5.921478 404.726379
v 72.724648 11.212644 399.477631
v 66.827393 10.075046 398.886902
v 66.728317 14.965270 393.968231
v 68.128380 17.447701 392.736542
v 72.266335 15.899323 395.530365
v 71.356079 19.772192 392.752411
v 73.875664 16.576578 396.631653
v 72.845634 21.150976 393.158447
v 73.689011 22.371609 393.571930
v 74.159729 23.465578 394.217834
v 76.251595 25.518782 402.311615
v 74.563080 30.418308 398.494354
v 76.113327 30.406012 403.256256
v 74.265701 37.495991 402.825500
v 75.988701 34.999710 406.095886
v 73.564171 44.117874 406.844360
v 72.502174 48.150021 409.314087
v 74.633598 44.634624 414.987274
v 75.981583 38.153999 410.036682
v 73.527603 47.580875 416.054016
v 70.748116 51.206303 411.217682
v 72.012909 50.266529 417.232300
v 74.426041 46.214336 421.671600
v 74.599968 42.982254 426.413452
v 72.922630 48.519688 422.782898
v 75.377419 43.348873 420.271271
v 75.663033 40.528271 424.120239
v 76.488770 39.783913 418.728668
v 76.057350 40.271046 414.590759
v 76.241699 36.619843 410.825287
v 76.275009 38.511581 414.546326
v 76.701668 38.063480 418.005432
v 76.631790 36.322357 420.631897
v 76.440170 37.748512 421.858398
v 75.960625 36.654701 427.467621
v 76.704346 34.774193 424.545807
v 76.869766 33.836662 422.925903
v 76.742462 32.924690 425.525421
v 75.971588 34.505363 428.669983
v 75.390091 35.904415 430.927185
v 74.993156 38.290123 430.035461
v 74.137650 37.737495 432.856750
v 73.875130 39.799469 432.170380
v 73.426651 44.920399 428.135803
v 71.447769 46.436218 429.388214
v 71.072166 50.192051 423.594757
v 68.243652 50.998856 423.913361
v 70.428223 51.854580 417.891937
v 68.355019 47.266762 430.236725
v 68.726768 41.821774 434.699768
v 65.035095 44.904949 433.151886
v 64.711517 47.444592 430.734039
v 64.759911 49.646217 427.440277
v 71.739532 41.282516 433.979797
v 71.458466 39.577854 434.596039
v 68.500984 40.401554 435.340302
v 67.210953 40.729462 435.354675
v 66.030479 41.279037 435.285278
v 65.359955 42.474060 434.837830
v 64.908813 51.495876 423.818542
v 68.084167 52.716988 418.030975
v 65.836075 53.101303 417.954315
v 67.569229 53.056713 414.600861
v 69.334785 52.412445 412.708679
v 76.897194 32.234337 423.790771
v 76.832123 29.604446 425.420959
v 76.943336 29.446404 423.674438
v 76.950874 26.679852 422.492981
v 77.042572 22.804735 420.585236
v 77.064217 19.826996 417.137177
v 76.926010 18.956995 413.387512
v 76.235229 34.118752 407.304504
v 76.320564 30.248983 404.903778
v 76.470909 26.090229 404.372925
v 76.531914 23.716227 406.243530
v 76.839722 21.754128 408.208069
v 69.405090 31.506826 438.805634
v 67.815659 35.135197 437.444366
v 63.932251 27.160355 418.955902
v 64.847908 24.268959 421.724091
v 63.308571 28.083553 422.981720
v 62.414883 31.097702 421.406769
v 64.774612 23.624266 416.355682
v 64.439598 26.298532 412.833435
v 63.403313 30.149748 416.177460
v 63.460308 32.279465 412.977203
v 62.160439 33.951401 419.491669
v 62.141457 35.282227 416.561890
v 62.707291 36.509914 413.090790
v 64.100243 34.745964 409.426270
v 64.252831 29.158327 409.836548
v 64.779205 32.552143 406.640503
v 64.886513 25.293797 407.475769
v 65.218643 28.650505 405.212463
v 65.796509 26.116533 404.533508
v 65.916595 22.762497 406.112732
v 65.066269 22.610012 409.652954
v 66.107201 20.732124 407.989899
v 65.254738 20.790455 412.886597
v 66.152435 19.109159 410.492035
v 66.363785 18.165802 413.866180
v 65.892326 19.209517 416.294556
v 65.588043 21.216900 419.945862
v 68.155807 50.699177 423.817810
v 64.873199 51.188072 423.712921
v 64.713287 49.399204 427.245544
v 68.296150 47.003654 430.025085
v 71.250160 46.227005 429.225647
v 70.884720 49.934452 423.506989
v 70.255959 51.572655 417.868225
v 68.011452 52.393036 417.999695
v 67.503784 52.724743 414.596741
v 65.812660 52.764786 417.909241
v 69.134987 52.166130 412.734161
v 70.506393 51.011421 411.238007
v 72.222336 48.002666 409.342743
v 71.720871 50.101055 417.246582
v 72.619484 48.368271 422.753845
v 73.244019 47.437477 416.069092
v 74.131660 46.082649 421.645996
v 73.332024 44.126698 407.003387
v 74.431549 44.616608 415.095917
v 75.121262 43.366409 420.357513
v 75.628181 40.058193 414.444153
v 75.614975 38.279591 410.037109
v 73.972069 37.404350 402.919739
v 75.613152 34.963783 406.388580
v 75.715385 30.526632 403.649292
v 74.229820 30.367571 398.600159
v 75.822472 25.885132 403.164673
v 73.855667 23.476751 394.340179
v 73.403503 22.405346 393.721008
v 74.871475 18.217613 398.763123
v 76.119850 22.649685 404.941559
v 76.474495 20.473454 407.084320
v 75.098434 14.644847 402.254730
v 73.625282 16.681156 396.804657
v 71.208565 19.910992 393.008362
v 72.596436 21.238661 393.351227
v 73.953293 12.521387 400.514801
v 72.117485 16.057207 395.763947
v 66.655975 15.148764 394.223389
v 68.056145 17.631197 392.991638
v 66.705437 10.323556 399.103180
v 72.584671 11.434261 399.671875
v 72.677597 8.166412 405.332672
v 74.139038 9.441525 405.609161
v 74.415031 7.289301 411.286285
v 73.651161 6.738279 410.425507
v 75.341492 11.780240 406.661621
v 76.406380 18.715488 410.046082
v 74.943169 8.141231 412.323303
v 76.415245 17.613766 413.351349
v 75.432701 13.510564 418.386993
v 76.566399 18.599466 417.649506
v 75.301392 18.793388 424.612183
v 75.228409 23.642870 430.790833
v 76.537796 22.004990 421.599670
v 76.458183 26.332912 424.192932
v 75.680466 31.241795 429.537964
v 76.457542 29.550501 425.105988
v 76.384132 32.769375 425.196198
v 75.713989 34.588718 428.687927
v 76.472191 34.442490 424.569031
v 76.060394 37.446751 421.616394
v 75.544182 36.745220 427.527161
v 74.691872 38.206928 429.944305
v 75.340477 40.564411 424.168732
v 74.303238 42.881901 426.351166
v 76.212936 39.599030 418.648041
v 73.154724 44.774117 428.027771
v 73.603149 39.702110 432.013855
v 73.824387 37.680878 432.707520
v 71.588921 41.138905 433.720764
v 71.320892 39.486214 434.320404
v 68.411804 40.310074 435.036041
v 68.627914 41.676346 434.423035
v 67.175453 40.608627 435.065155
v 65.983696 41.127678 434.996124
v 65.309059 42.286236 434.573608
v 65.030716 44.649006 432.921173
v 64.710823 47.183567 430.518250
v 74.171814 36.898346 432.517517
v 74.786667 35.974293 430.980499
v 73.896141 36.342514 433.116547
v 73.968643 33.028469 433.902130
v 74.946266 32.053249 431.810303
v 73.895073 27.235847 435.168762
v 72.705559 28.953712 437.065155
v 70.401970 30.582932 438.284271
v 69.307518 31.389147 438.505310
v 72.640816 33.753845 435.622314
v 70.621239 34.595615 436.487915
v 72.467743 36.254509 434.741943
v 70.655991 35.880672 435.786804
v 67.767647 35.000782 437.135315
v 74.719093 25.421154 433.023438
v 72.127533 6.147051 409.310608
v 68.976143 5.488402 407.387512
v 67.290031 6.197203 404.875122
v 63.308571 28.083553 422.981720
v 76.943336 29.446404 423.674438
v 76.897194 32.234337 423.790771
v 76.950874 26.679852 422.492981
v 64.847908 24.268959 421.724091
v 62.414883 31.097702 421.406769
v 62.160439 33.951401 419.491669
v 76.869766 33.836662 422.925903
v 76.631790 36.322357 420.631897
v 76.701668 38.063480 418.005432
v 62.141457 35.282227 416.561890
v 62.707291 36.509914 413.090790
v 64.100243 34.745964 409.426270
v 76.275009 38.511581 414.546326
v 76.241699 36.619843 410.825287
v 64.779205 32.552143 406.640503
v 76.235229 34.118752 407.304504
v 65.218643 28.650505 405.212463
v 76.320564 30.248983 404.903778
v 76.470909 26.090229 404.372925
v 65.796509 26.116533 404.533508
v 65.916595 22.762497 406.112732
v 76.531914 23.716227 406.243530
v 66.107201 20.732124 407.989899
v 76.839722 21.754128 408.208069
v 77.042572 22.804735 420.585236
v 65.588043 21.216900 419.945862
v 65.892326 19.209517 416.294556
v 77.064217 19.826996 417.137177
v 76.926010 18.956995 413.387512
v 66.363785 18.165802 413.866180
v 76.778130 20.208261 410.821014
v 66.152435 19.109159 410.492035
v 76.839722 21.754128 408.208069
v 66.107201 20.732124 407.989899
v 65.309059 42.286236 434.573608
v 65.035095 44.904949 433.151886
v 65.359955 42.474060 434.837830
v 65.030716 44.649006 432.921173
v 65.983696 41.127678 434.996124
v 66.030479 41.279037 435.285278
v 67.175453 40.608627 435.065155
v 68.411804 40.310074 435.036041
v 67.210953 40.729462 435.354675
v 68.500984 40.401554 435.340302
v 71.458466 39.577854 434.596039
v 71.320892 39.486214 434.320404
v 73.824387 37.680878 432.707520
v 74.137650 37.737495 432.856750
v 74.171814 36.898346 432.517517
v 74.474968 36.954060 432.641083
v 64.711517 47.444592 430.734039
v 64.710823 47.183567 430.518250
v 64.759911 49.646217 427.440277
v 64.713287 49.399204 427.245544
v 64.873199 51.188072 423.712921
v 64.908813 51.495876 423.818542
v 65.836075 53.101303 417.954315
v 65.812660 52.764786 417.909241
v 67.569229 53.056713 414.600861
v 67.503784 52.724743 414.596741
v 69.334785 52.412445 412.708679
v 69.134987 52.166130 412.734161
v 70.748116 51.206303 411.217682
v 70.506393 51.011421 411.238007
v 72.502174 48.150021 409.314087
v 73.564171 44.117874 406.844360
v 72.222336 48.002666 409.342743
v 73.332024 44.126698 407.003387
v 74.265701 37.495991 402.825500
v 73.972069 37.404350 402.919739
v 74.563080 30.418308 398.494354
v 74.229820 30.367571 398.600159
v 74.159729 23.465578 394.217834
v 73.855667 23.476751 394.340179
v 73.689011 22.371609 393.571930
v 73.403503 22.405346 393.721008
v 72.596436 21.238661 393.351227
v 72.845634 21.150976 393.158447
v 71.356079 19.772192 392.752411
v 71.208565 19.910992 393.008362
v 68.128380 17.447701 392.736542
v 66.728317 14.965270 393.968231
v 68.056145 17.631197 392.991638
v 66.655975 15.148764 394.223389
v 66.705437 10.323556 399.103180
v 66.827393 10.075046 398.886902
v 67.427223 5.921478 404.726379
v 67.290031 6.197203 404.875122
v 69.067566 5.225724 407.261139
v 68.976143 5.488402 407.387512
v 72.290291 5.890414 409.210815
v 72.127533 6.147051 409.310608
v 73.901276 6.544251 410.339447
v 73.651161 6.738279 410.425507
v 74.695404 7.140345 411.236603
v 74.415031 7.289301 411.286285
v 75.253593 8.041302 412.305084
v 74.943169 8.141231 412.323303
v 75.774940 13.434427 418.430054
v 75.432701 13.510564 418.386993
v 75.650047 18.721958 424.667389
v 75.301392 18.793388 424.612183
v 75.464676 23.499903 430.774811
v 75.052025 25.430885 433.114502
v 75.228409 23.642870 430.790833
v 74.719093 25.421154 433.023438
v 74.200470 27.261938 435.326935
v 73.895073 27.235847 435.168762
v 72.934875 29.019690 437.296143
v 72.705559 28.953712 437.065155
v 70.401970 30.582932 438.284271
v 70.543282 30.670616 438.573303
v 69.405090 31.506826 438.805634
v 69.307518 31.389147 438.505310
v 67.815659 35.135197 437.444366
v 67.767647 35.000782 437.135315
v 74.164375 36.399349 433.303009
v 72.467743 36.254509 434.741943
v 73.896141 36.342514 433.116547
v 72.656532 36.350693 434.992645
v 74.474968 36.954060 432.641083
v 74.171814 36.898346 432.517517
v 70.655991 35.880672 435.786804
v 70.801361 36.002682 436.053436
v 67.767647 35.000782 437.135315
v 67.815659 35.135197 437.444366
vn 0.6711 -0.2962 0.6796
vn 0.4188 0.4890 0.7652
vn 0.4278 0.6069 0.6698
vn 0.6714 -0.2964 0.6793
vn 0.3170 0.3531 0.8802
vn 0.4188 0.4890 0.7651
vn 0.3036 -0.5092 0.8053
vn 0.3171 0.3534 0.8801
vn 0.6716 -0.2964 0.6791
vn 0.6710 -0.2961 0.6797
vn 0.4279 0.6068 0.6699
vn 0.9240 0.0237 0.3817
vn 0.2952 0.2563 0.9204
vn 0.6712 -0.2962 0.6795
vn 0.9240 0.0235 0.3818
vn 0.0667 0.0715 0.9952
vn 0.2951 0.2565 0.9204
vn 0.0666 0.0716 0.9952
vn 0.3038 -0.5094 0.8051
vn 0.6715 -0.2964 0.6792
vn 0.2951 0.2562 0.9205
vn 0.9239 0.0238 0.3818
vn 0.5034 0.4773 0.7203
vn 0.5058 0.6691 0.5444
vn 0.5032 0.4772 0.7205
vn 0.9239 0.0233 0.3819
vn 0.5057 0.6696 0.5440
vn 0.9239 0.0234 0.3818
vn 0.9642 0.2274 0.1366
vn 0.5059 0.6693 0.5442
vn 0.8903 0.4373 -0.1271
vn 0.5057 0.6693 0.5443
vn 0.8903 0.4373 -0.1270
vn 0.4862 0.8133 0.3197
vn 0.4863 0.8130 0.3202
vn 0.6153 0.6529 -0.4418
vn 0.2550 0.9639 0.0768
vn 0.4862 0.8131 0.3200
vn 0.8904 0.4372 -0.1266
vn 0.6155 0.6528 -0.4417
vn 0.2551 0.9638 0.0770
vn 0.2301 0.7309 -0.6425
vn 0.0113 0.9951 -0.0983
vn 0.2550 0.9639 0.0770
vn 0.6157 0.6524 -0.4419
vn 0.2301 0.7310 -0.6425
vn 0.2297 0.7310 -0.6426
vn -0.0353 0.9876 0.1529
vn -0.1021 0.7214 -0.6850
vn 0.2298 0.7311 -0.6424
vn 0.1527 0.9665 0.2063
vn -0.0354 0.9876 0.1529
vn 0.6157 0.6523 -0.4419
vn 0.1530 0.9664 0.2066
vn 0.2302 0.7311 -0.6422
vn 0.0113 0.9951 -0.0980
vn 0.2300 0.7311 -0.6423
vn -0.1024 0.7215 -0.6848
vn -0.1019 0.7212 -0.6852
vn -0.0353 0.9877 0.1524
vn -0.2533 0.9392 0.2318
vn -0.1022 0.7212 -0.6852
vn -0.2536 0.9391 0.2320
vn -0.4599 0.6282 -0.6276
vn -0.1023 0.7213 -0.6851
vn -0.4598 0.6282 -0.6277
vn -0.4416 0.8954 -0.0575
vn 0.0115 0.9951 -0.0981
vn -0.1024 0.7213 -0.6850
vn -0.1922 0.9774 -0.0880
vn -0.1020 0.7212 -0.6852
vn -0.4414 0.8955 -0.0574
vn -0.1922 0.9774 -0.0883
vn -0.4416 0.8954 -0.0570
vn -0.8101 0.4171 -0.4121
vn -0.7045 0.7096 0.0123
vn -0.4415 0.8954 -0.0571
vn -0.4599 0.6284 -0.6274
vn -0.8101 0.4170 -0.4121
vn -0.9776 0.1532 -0.1445
vn -0.7045 0.7096 0.0119
vn -0.8101 0.4171 -0.4119
vn -0.9777 0.1528 -0.1444
vn -0.7873 0.5596 0.2588
vn -0.7045 0.7096 0.0121
vn -0.9776 0.1529 -0.1448
vn -0.8144 0.4074 0.4133
vn -0.7875 0.5593 0.2589
vn -0.9775 0.1530 -0.1449
vn -0.9975 -0.0365 0.0606
vn -0.8143 0.4077 0.4131
vn -0.5769 0.6709 0.4660
vn -0.9975 -0.0363 0.0612
vn -0.9776 0.1531 -0.1446
vn -0.5771 0.6709 0.4656
vn -0.5710 0.5953 0.5654
vn -0.9975 -0.0362 0.0611
vn -0.5770 0.6709 0.4658
vn -0.4345 0.8228 0.3664
vn -0.5770 0.6708 0.4660
vn -0.9776 0.1531 -0.1447
vn -0.8102 0.4170 -0.4120
vn -0.4343 0.8229 0.3664
vn -0.2532 0.9392 0.2318
vn -0.4344 0.8229 0.3663
vn -0.8102 0.4169 -0.4120
vn 0.6158 0.6525 -0.4416
vn 0.3301 0.8793 0.3434
vn 0.1531 0.9664 0.2065
vn 0.8903 0.4374 -0.1265
vn 0.4051 0.7799 0.4770
vn 0.3301 0.8792 0.3434
vn 0.8902 0.4376 -0.1270
vn 0.3301 0.8794 0.3431
vn 0.6154 0.6528 -0.4418
vn 0.9641 0.2308 0.1312
vn 0.5151 0.6743 0.5291
vn 0.4050 0.7801 0.4769
vn 0.9642 0.2274 0.1365
vn 0.4051 0.7800 0.4769
vn 0.9240 0.0235 0.3817
vn 0.4277 0.6068 0.6700
vn 0.5151 0.6744 0.5290
vn 0.9239 0.0231 0.3819
vn 0.9642 0.2274 0.1362
vn -0.1275 0.0638 0.9898
vn 0.3035 -0.5096 0.8051
vn 0.0667 0.0720 0.9952
vn -0.1274 0.0636 0.9898
vn -0.0055 -0.5668 0.8238
vn 0.3037 -0.5096 0.8051
vn 0.3036 -0.5094 0.8052
vn 0.2144 0.3079 0.9270
vn 0.3171 0.3536 0.8800
vn -0.0051 -0.5668 0.8238
vn 0.2144 0.3081 0.9269
vn 0.3035 -0.5095 0.8052
vn -0.3777 0.0702 0.9233
vn -0.3762 -0.5490 0.7464
vn -0.0051 -0.5671 0.8236
vn -0.3765 -0.5489 0.7463
vn 0.0367 0.2993 0.9535
vn -0.0051 -0.5670 0.8237
vn -0.0051 -0.5668 0.8239
vn 0.0364 0.2998 0.9533
vn 0.2143 0.3082 0.9269
vn -0.3776 0.0704 0.9233
vn -0.0052 -0.5670 0.8237
vn -0.1276 0.0634 0.9898
vn -0.6359 0.0696 0.7687
vn -0.3765 -0.5487 0.7465
vn -0.3774 0.0707 0.9233
vn -0.6359 0.0698 0.7686
vn -0.7236 -0.4155 0.5511
vn -0.3764 -0.5488 0.7464
vn -0.7659 0.2574 0.5892
vn -0.7235 -0.4157 0.5512
vn -0.6363 0.0696 0.7683
vn -0.7657 0.2580 0.5892
vn -0.9349 -0.2194 0.2790
vn -0.7236 -0.4155 0.5512
vn -0.9349 -0.2197 0.2789
vn -0.7659 0.2573 0.5893
vn -0.9975 -0.0361 0.0606
vn -0.9349 -0.2196 0.2789
vn -0.9975 -0.0362 0.0610
vn -0.5693 0.4996 0.6529
vn -0.9349 -0.2194 0.2791
vn -0.5707 0.5954 0.5655
vn -0.5693 0.4996 0.6530
vn -0.9350 -0.2193 0.2787
vn -0.5692 0.4997 0.6529
vn -0.4217 0.4477 0.7885
vn -0.7236 -0.4154 0.5513
vn -0.4217 0.4478 0.7884
vn -0.2114 0.3658 0.9064
vn -0.9348 -0.2197 0.2790
vn -0.4217 0.4479 0.7884
vn -0.7237 -0.4157 0.5509
vn -0.7237 -0.4155 0.5511
vn -0.2113 0.3657 0.9064
vn -0.3761 -0.5490 0.7464
vn -0.2111 0.3656 0.9065
vn 0.0365 0.2992 0.9535
vn -0.1870 0.6987 0.6905
vn -0.3781 0.0704 0.9231
vn -0.1271 0.0636 0.9899
vn -0.1873 0.6987 0.6905
vn -0.6358 0.0695 0.7687
vn -0.3779 0.0705 0.9231
vn -0.7658 0.2575 0.5893
vn -0.6358 0.0696 0.7687
vn -0.1873 0.6986 0.6906
vn -0.1858 0.7373 0.6495
vn -0.1855 0.7377 0.6492
vn -0.1869 0.6987 0.6906
vn -0.1704 0.7057 0.6877
vn -0.1871 0.6987 0.6905
vn -0.1271 0.0637 0.9898
vn -0.1704 0.7058 0.6877
vn -0.2438 0.6954 0.6760
vn -0.1272 0.0635 0.9898
vn 0.0664 0.0716 0.9952
vn -0.2437 0.6955 0.6760
vn -0.1706 0.7058 0.6875
vn -0.1272 0.0638 0.9898
vn -0.2442 0.6952 0.6761
vn 0.0668 0.0717 0.9952
vn 0.5031 0.4773 0.7205
vn -0.2440 0.6955 0.6758
vn 0.2951 0.2566 0.9204
vn 0.5055 0.6693 0.5445
vn -0.2439 0.6954 0.6759
vn 0.5028 0.4773 0.7207
vn 0.5053 0.6695 0.5445
vn -0.2418 0.7274 0.6422
vn -0.2442 0.6953 0.6760
vn 0.4860 0.8133 0.3198
vn -0.2421 0.7294 0.6399
vn 0.5054 0.6696 0.5443
vn -0.2415 0.7277 0.6419
vn -0.1748 0.7387 0.6510
vn 0.4860 0.8133 0.3200
vn -0.2462 0.7604 0.6009
vn -0.2417 0.7276 0.6420
vn -0.1752 0.7442 0.6445
vn -0.2414 0.7279 0.6418
vn -0.2461 0.7604 0.6010
vn -0.1746 0.7386 0.6511
vn -0.1760 0.7788 0.6020
vn -0.1948 0.7777 0.5977
vn -0.1747 0.7384 0.6514
vn -0.2460 0.7605 0.6010
vn -0.1763 0.7786 0.6022
vn -0.1744 0.7386 0.6512
vn -0.1945 0.7775 0.5980
vn -0.1859 0.7429 0.6431
vn -0.1855 0.7378 0.6491
vn -0.1704 0.7060 0.6874
vn -0.2437 0.6955 0.6759
vn -0.1747 0.7386 0.6511
vn -0.1707 0.7057 0.6876
vn -0.1950 0.7775 0.5978
vn -0.8141 0.4077 0.4134
vn -0.1949 0.7775 0.5979
vn -0.7044 0.7097 0.0121
vn -0.7867 0.5627 0.2540
vn -0.1949 0.7775 0.5980
vn -0.4418 0.8953 -0.0573
vn -0.7044 0.7097 0.0122
vn -0.1760 0.7789 0.6019
vn -0.4420 0.8952 -0.0573
vn -0.1946 0.7776 0.5979
vn -0.1950 0.7775 0.5979
vn -0.8142 0.4078 0.4133
vn -0.1859 0.7375 0.6493
vn -0.1861 0.7375 0.6492
vn -0.8142 0.4079 0.4131
vn -0.7658 0.2576 0.5893
vn -0.1758 0.7788 0.6021
vn -0.1919 0.9775 -0.0882
vn -0.4419 0.8952 -0.0574
vn -0.1761 0.7787 0.6021
vn 0.0111 0.9951 -0.0981
vn -0.1917 0.9775 -0.0881
vn 0.0113 0.9951 -0.0979
vn -0.2463 0.7604 0.6009
vn 0.2550 0.9639 0.0769
vn -0.1762 0.7786 0.6022
vn -0.2460 0.7604 0.6010
vn 0.0113 0.9951 -0.0981
vn 0.2549 0.9639 0.0769
vn -0.2463 0.7603 0.6011
vn 0.4857 0.8134 0.3200
vn 0.8831 -0.3320 -0.3316
vn 0.4606 -0.8388 -0.2902
vn 0.7271 -0.6796 -0.0976
vn 0.9066 -0.0725 -0.4157
vn 0.4607 -0.8388 -0.2901
vn 0.8832 -0.3317 -0.3315
vn 0.9065 -0.0726 -0.4159
vn 0.6938 -0.7111 -0.1136
vn 0.4606 -0.8389 -0.2900
vn 0.9506 0.1619 -0.2650
vn 0.6938 -0.7111 -0.1139
vn 0.9064 -0.0726 -0.4161
vn 0.2259 -0.8724 0.4335
vn 0.4604 -0.8390 -0.2900
vn 0.6940 -0.7109 -0.1140
vn 0.9506 0.1620 -0.2647
vn 0.8633 -0.5030 0.0423
vn 0.6937 -0.7112 -0.1140
vn 0.3561 -0.6715 0.6499
vn 0.8631 -0.5032 0.0424
vn 0.6936 -0.7113 -0.1141
vn 0.3561 -0.6716 0.6497
vn 0.0840 -0.9354 0.3434
vn 0.4605 -0.8390 -0.2899
vn 0.2261 -0.8724 0.4333
vn 0.0838 -0.9354 0.3436
vn 0.2751 -0.8704 -0.4083
vn 0.4608 -0.8387 -0.2901
vn 0.0022 -0.9548 0.2971
vn 0.2749 -0.8705 -0.4083
vn 0.0842 -0.9355 0.3433
vn 0.0024 -0.9548 0.2972
vn 0.1722 -0.8692 -0.4634
vn 0.2751 -0.8704 -0.4084
vn -0.0544 -0.9392 0.3390
vn 0.1721 -0.8691 -0.4637
vn 0.0023 -0.9549 0.2970
vn 0.0110 -0.8837 -0.4678
vn 0.0504 -0.8673 -0.4952
vn -0.0546 -0.9392 0.3391
vn -0.0545 -0.9392 0.3390
vn 0.0507 -0.8672 -0.4954
vn 0.1722 -0.8690 -0.4639
vn 0.0108 -0.8837 -0.4678
vn -0.0541 -0.9392 0.3390
vn -0.0924 -0.9215 0.3772
vn -0.1226 -0.9367 0.3281
vn -0.0922 -0.9216 0.3770
vn -0.1225 -0.9367 0.3281
vn -0.0522 -0.8753 -0.4808
vn 0.0107 -0.8839 -0.4676
vn -0.1226 -0.9366 0.3282
vn -0.1023 -0.8300 -0.5483
vn -0.2262 -0.9422 0.2472
vn -0.1020 -0.8300 -0.5484
vn -0.1227 -0.9367 0.3280
vn -0.1059 -0.7962 -0.5958
vn -0.1024 -0.8300 -0.5483
vn -0.3834 -0.8610 0.3343
vn -0.2786 -0.7938 -0.5406
vn -0.2265 -0.9421 0.2473
vn -0.1055 -0.7962 -0.5958
vn -0.2262 -0.9422 0.2470
vn -0.2783 -0.7939 -0.5407
vn 0.6819 -0.4178 -0.6004
vn -0.1018 -0.8300 -0.5484
vn -0.1051 -0.7962 -0.5958
vn 0.6818 -0.4178 -0.6004
vn -0.1050 -0.7962 -0.5958
vn -0.1085 -0.7617 -0.6388
vn -0.1058 -0.7961 -0.5958
vn -0.2936 -0.7400 -0.6051
vn -0.1093 -0.7617 -0.6387
vn -0.1057 -0.7963 -0.5956
vn -0.2784 -0.7939 -0.5406
vn -0.2939 -0.7399 -0.6051
vn -0.2940 -0.7400 -0.6049
vn -0.2784 -0.7940 -0.5404
vn -0.5907 -0.7185 -0.3672
vn -0.2937 -0.7400 -0.6051
vn -0.1196 -0.7278 -0.6753
vn -0.1103 -0.7559 -0.6453
vn -0.2940 -0.7398 -0.6052
vn -0.2938 -0.6787 -0.6731
vn -0.1196 -0.7279 -0.6751
vn -0.6016 -0.6306 -0.4903
vn -0.2941 -0.6787 -0.6729
vn -0.2948 -0.7350 -0.6107
vn -0.2942 -0.7399 -0.6049
vn -0.5910 -0.7182 -0.3672
vn -0.6017 -0.6305 -0.4904
vn -0.4993 -0.6396 0.5845
vn -0.5905 -0.7185 -0.3674
vn -0.4853 -0.7535 0.4435
vn -0.4850 -0.7538 0.4434
vn -0.5911 -0.7182 -0.3672
vn -0.3839 -0.8607 0.3344
vn -0.3836 -0.8609 0.3344
vn -0.5908 -0.7183 -0.3673
vn -0.2785 -0.7938 -0.5407
vn -0.6015 -0.6307 -0.4903
vn -0.5908 -0.7184 -0.3672
vn -0.8431 -0.5217 -0.1304
vn -0.4993 -0.6395 0.5846
vn -0.5889 -0.3121 0.7455
vn -0.8433 -0.5214 -0.1302
vn -0.4994 -0.6393 0.5847
vn -0.7891 0.0964 0.6066
vn -0.8432 -0.5215 -0.1303
vn -0.5886 -0.3118 0.7458
vn -0.8808 -0.3898 -0.2688
vn -0.8851 0.3205 0.3375
vn -0.8810 -0.3895 -0.2685
vn -0.8432 -0.5215 -0.1305
vn -0.7890 0.0963 0.6068
vn -0.8059 0.5855 0.0884
vn -0.8809 -0.3897 -0.2687
vn -0.8850 0.3206 0.3377
vn -0.6492 0.6741 -0.3524
vn -0.8648 -0.2724 -0.4219
vn -0.8060 0.5852 0.0886
vn -0.8059 0.5854 0.0884
vn -0.8646 -0.2660 -0.4262
vn -0.8810 -0.3895 -0.2686
vn -0.5865 0.4395 -0.6803
vn -0.8646 -0.2659 -0.4263
vn -0.6490 0.6742 -0.3524
vn -0.5627 0.2948 -0.7724
vn -0.8645 -0.2661 -0.4265
vn -0.5864 0.4392 -0.6806
vn -0.8809 -0.3896 -0.2688
vn -0.8645 -0.2660 -0.4265
vn -0.6068 -0.5153 -0.6052
vn -0.5628 0.2948 -0.7722
vn -0.6068 -0.5150 -0.6055
vn -0.4512 0.1838 -0.8733
vn -0.6070 -0.5151 -0.6052
vn -0.5626 0.2943 -0.7725
vn -0.2944 0.0841 -0.9520
vn -0.6069 -0.5150 -0.6053
vn -0.4509 0.1833 -0.8736
vn -0.1157 -0.6766 -0.7272
vn -0.2938 -0.6786 -0.6732
vn -0.2943 0.0835 -0.9521
vn -0.1156 -0.6766 -0.7273
vn -0.2943 0.0837 -0.9520
vn -0.1996 0.1814 -0.9629
vn -0.2945 0.0836 -0.9520
vn -0.2938 -0.6788 -0.6730
vn -0.6067 -0.5152 -0.6053
vn -0.1998 0.1816 -0.9629
vn -0.0609 -0.6096 -0.7904
vn -0.1160 -0.6766 -0.7272
vn -0.1547 0.2471 -0.9566
vn -0.0610 -0.6100 -0.7901
vn -0.1996 0.1815 -0.9629
vn 0.0004 -0.5907 -0.8069
vn -0.0610 -0.6099 -0.7901
vn -0.0944 0.2361 -0.9671
vn 0.0003 -0.5906 -0.8070
vn -0.1548 0.2468 -0.9566
vn 0.2807 -0.4896 -0.8255
vn -0.0947 0.2360 -0.9671
vn -0.0370 0.2081 -0.9774
vn 0.2807 -0.4895 -0.8256
vn 0.1783 -0.5549 -0.8126
vn -0.0946 0.2361 -0.9671
vn 0.1784 -0.5551 -0.8124
vn 0.0584 -0.6073 -0.7923
vn -0.0945 0.2361 -0.9671
vn 0.0581 -0.6076 -0.7921
vn 0.0003 -0.5903 -0.8072
vn 0.2803 -0.4899 -0.8255
vn 0.0954 0.3569 -0.9293
vn 0.4624 -0.3475 -0.8157
vn 0.2806 -0.4898 -0.8254
vn -0.0368 0.2077 -0.9775
vn 0.0953 0.3569 -0.9293
vn 0.4625 -0.3478 -0.8156
vn 0.3479 -0.5920 -0.7270
vn 0.2807 -0.4897 -0.8255
vn 0.3477 -0.5921 -0.7270
vn 0.1784 -0.5548 -0.8126
vn 0.2805 -0.4900 -0.8254
vn 0.4623 -0.3480 -0.8156
vn 0.5452 -0.4692 -0.6947
vn 0.3481 -0.5920 -0.7269
vn 0.3723 -0.6987 -0.6109
vn 0.2406 -0.6478 -0.7228
vn 0.3478 -0.5920 -0.7270
vn 0.3726 -0.6985 -0.6109
vn 0.5450 -0.4691 -0.6949
vn 0.3480 -0.5921 -0.7268
vn 0.2402 -0.6476 -0.7231
vn 0.2684 -0.7293 -0.6293
vn 0.2407 -0.6475 -0.7230
vn 0.2684 -0.7294 -0.6292
vn 0.1587 -0.6949 -0.7014
vn 0.2404 -0.6476 -0.7231
vn 0.2401 -0.6478 -0.7230
vn 0.1586 -0.6948 -0.7015
vn 0.1101 -0.6173 -0.7790
vn 0.2401 -0.6477 -0.7231
vn 0.1100 -0.6171 -0.7791
vn 0.1785 -0.5551 -0.8124
vn -0.1631 -0.9860 -0.0339
vn 0.1095 -0.6174 -0.7790
vn -0.3796 -0.8867 -0.2641
vn -0.1631 -0.9860 -0.0342
vn 0.0582 -0.6072 -0.7924
vn 0.1097 -0.6175 -0.7789
vn 0.1782 -0.5548 -0.8127
vn 0.1097 -0.6173 -0.7790
vn -0.3797 -0.8866 -0.2643
vn 0.1096 -0.6176 -0.7788
vn 0.1582 -0.6949 -0.7015
vn -0.3797 -0.8866 -0.2642
vn 0.1582 -0.6951 -0.7013
vn -0.4919 -0.7713 -0.4039
vn -0.4921 -0.7713 -0.4037
vn 0.1751 -0.7469 -0.6414
vn -0.5617 -0.6582 -0.5014
vn -0.4922 -0.7713 -0.4035
vn 0.1582 -0.6950 -0.7014
vn 0.1750 -0.7521 -0.6354
vn 0.2531 -0.7680 -0.5883
vn 0.1757 -0.7519 -0.6354
vn 0.2680 -0.7294 -0.6294
vn 0.2681 -0.7295 -0.6292
vn 0.1756 -0.7521 -0.6352
vn 0.2532 -0.7680 -0.5883
vn 0.1601 -0.7766 -0.6093
vn 0.1753 -0.7520 -0.6354
vn -0.5616 -0.6581 -0.5016
vn 0.1752 -0.7519 -0.6356
vn 0.1595 -0.7766 -0.6095
vn -0.5616 -0.6579 -0.5017
vn 0.1597 -0.7765 -0.6095
vn -0.5356 -0.5417 -0.6478
vn -0.5355 -0.5415 -0.6481
vn 0.1596 -0.7768 -0.6092
vn 0.1409 -0.8225 -0.5510
vn 0.2108 -0.8267 -0.5217
vn 0.1413 -0.8226 -0.5508
vn 0.1599 -0.7766 -0.6093
vn 0.2106 -0.8268 -0.5216
vn 0.1600 -0.7766 -0.6094
vn 0.2530 -0.7683 -0.5880
vn 0.3084 -0.8193 -0.4833
vn 0.2107 -0.8268 -0.5216
vn 0.2532 -0.7680 -0.5882
vn 0.1722 -0.8692 -0.4635
vn 0.1411 -0.8225 -0.5510
vn 0.2107 -0.8266 -0.5219
vn 0.2748 -0.8705 -0.4082
vn 0.1725 -0.8690 -0.4637
vn 0.2106 -0.8268 -0.5217
vn 0.2750 -0.8704 -0.4084
vn 0.2106 -0.8267 -0.5217
vn 0.3086 -0.8191 -0.4836
vn 0.3086 -0.8192 -0.4834
vn 0.4608 -0.8389 -0.2898
vn 0.2752 -0.8704 -0.4083
vn 0.3087 -0.8192 -0.4833
vn 0.7270 -0.6797 -0.0979
vn 0.3563 -0.7500 -0.5573
vn 0.7270 -0.6797 -0.0975
vn 0.3090 -0.8191 -0.4833
vn 0.3087 -0.8191 -0.4835
vn 0.2535 -0.7679 -0.5882
vn 0.3558 -0.7501 -0.5574
vn 0.3563 -0.7501 -0.5572
vn 0.4708 -0.8448 0.2544
vn 0.7270 -0.6797 -0.0976
vn 0.5621 -0.7289 -0.3908
vn 0.4709 -0.8447 0.2545
vn 0.3561 -0.7501 -0.5573
vn 0.5820 -0.6048 -0.5436
vn 0.5620 -0.7291 -0.3907
vn 0.3564 -0.7500 -0.5572
vn 0.3726 -0.6986 -0.6109
vn 0.5820 -0.6049 -0.5435
vn 0.2683 -0.7294 -0.6293
vn 0.3723 -0.6986 -0.6110
vn 0.3559 -0.7502 -0.5573
vn 0.2538 -0.7679 -0.5881
vn 0.2684 -0.7293 -0.6294
vn 0.5620 -0.7292 -0.3905
vn 0.5822 -0.6048 -0.5434
vn 0.8488 -0.3785 -0.3691
vn 0.3727 -0.6985 -0.6108
vn 0.5821 -0.6048 -0.5435
vn 0.5823 -0.6047 -0.5434
vn 0.5452 -0.4690 -0.6948
vn 0.7939 -0.2238 -0.5654
vn 0.7938 -0.2238 -0.5655
vn 0.8488 -0.3786 -0.3690
vn 0.9698 -0.1541 -0.1891
vn 0.7939 -0.2240 -0.5653
vn 0.9132 0.0233 -0.4069
vn 0.9135 0.0232 -0.4062
vn 0.7938 -0.2236 -0.5656
vn 0.6846 -0.1031 -0.7216
vn 0.7941 -0.2237 -0.5651
vn 0.4622 -0.3478 -0.8157
vn 0.6847 -0.1031 -0.7215
vn 0.7941 -0.2238 -0.5652
vn 0.5451 -0.4688 -0.6950
vn 0.4624 -0.3479 -0.8156
vn 0.9694 -0.1511 -0.1936
vn 0.8489 -0.3787 -0.3687
vn 0.8195 -0.5573 -0.1335
vn 0.9698 -0.1539 -0.1892
vn 0.9313 -0.3557 0.0786
vn 0.9699 -0.1538 -0.1887
vn 0.7784 0.3759 0.5027
vn 0.9313 -0.3557 0.0788
vn 0.9700 -0.1537 -0.1886
vn 0.7710 0.5118 0.3789
vn 0.7785 0.3758 0.5028
vn 0.9698 -0.1539 -0.1890
vn 0.7721 0.5949 0.2234
vn 0.7710 0.5122 0.3784
vn 0.9134 0.0234 -0.4064
vn 0.7722 0.5948 0.2235
vn 0.9699 -0.1537 -0.1887
vn 0.8194 -0.5576 -0.1329
vn 0.8488 -0.3785 -0.3692
vn 0.9698 -0.1542 -0.1891
vn 0.8194 -0.5576 -0.1328
vn 0.4706 -0.8448 0.2547
vn 0.5622 -0.7288 -0.3908
vn 0.5621 -0.7288 -0.3910
vn 0.8489 -0.3785 -0.3690
vn 0.8195 -0.5575 -0.1331
vn 0.9312 -0.3557 0.0790
vn 0.3579 -0.7522 0.5533
vn 0.8194 -0.5575 -0.1330
vn 0.3582 -0.7523 0.5529
vn 0.4708 -0.8447 0.2547
vn 0.9314 -0.3555 0.0789
vn 0.3545 -0.5846 0.7298
vn 0.9314 -0.3555 0.0785
vn 0.3614 -0.4520 0.8155
vn 0.3541 -0.5845 0.7300
vn 0.9313 -0.3557 0.0787
vn 0.4463 -0.1460 0.8829
vn 0.3613 -0.4522 0.8154
vn 0.9314 -0.3555 0.0787
vn 0.6821 0.2289 0.6945
vn 0.4465 -0.1460 0.8828
vn 0.9313 -0.3555 0.0788
vn 0.7785 0.3758 0.5026
vn 0.6821 0.2287 0.6946
vn 0.9134 0.0235 -0.4063
vn 0.7086 0.6985 0.0999
vn 0.7722 0.5948 0.2234
vn 0.8071 0.1316 -0.5756
vn 0.7086 0.6984 0.1004
vn 0.9133 0.0232 -0.4066
vn 0.8069 0.1315 -0.5758
vn 0.5284 0.8415 -0.1128
vn 0.7086 0.6985 0.1001
vn 0.8071 0.1318 -0.5755
vn 0.3400 0.8163 -0.4671
vn 0.5282 0.8416 -0.1128
vn 0.6847 -0.1035 -0.7214
vn 0.3398 0.8164 -0.4669
vn 0.8071 0.1322 -0.5755
vn 0.6844 -0.1035 -0.7217
vn 0.2545 0.5782 -0.7752
vn 0.3402 0.8163 -0.4669
vn 0.4621 -0.3479 -0.8157
vn 0.6846 -0.1030 -0.7216
vn 0.2543 0.5781 -0.7753
vn 0.9134 0.0234 -0.4063
vn 0.6844 -0.1030 -0.7218
vn 0.8072 0.1318 -0.5754
vn -0.4539 -0.4696 -0.7573
vn 0.1409 -0.8224 -0.5511
vn 0.0929 -0.8615 -0.4992
vn 0.1408 -0.8226 -0.5509
vn -0.4537 -0.4696 -0.7574
vn 0.0932 -0.8614 -0.4992
vn 0.1412 -0.8225 -0.5510
vn -0.3263 -0.2936 -0.8985
vn 0.0930 -0.8616 -0.4991
vn 0.0505 -0.8672 -0.4954
vn 0.0507 -0.8672 -0.4953
vn 0.0930 -0.8615 -0.4991
vn 0.1721 -0.8691 -0.4638
vn -0.4538 -0.4696 -0.7573
vn 0.0931 -0.8615 -0.4991
vn -0.3260 -0.2941 -0.8985
vn -0.3258 -0.2940 -0.8986
vn 0.0506 -0.8673 -0.4953
vn -0.2179 -0.1842 -0.9584
vn -0.2179 -0.1843 -0.9584
vn 0.0502 -0.8695 -0.4914
vn 0.0110 -0.8838 -0.4678
vn -0.2181 -0.1845 -0.9583
vn 0.0111 -0.8838 -0.4677
vn -0.0163 -0.2197 -0.9754
vn 0.0107 -0.8838 -0.4678
vn 0.2163 -0.2369 -0.9472
vn -0.0165 -0.2199 -0.9754
vn 0.2165 -0.2368 -0.9471
vn 0.4386 -0.3523 -0.8268
vn 0.2165 -0.2367 -0.9471
vn -0.0521 -0.8755 -0.4803
vn -0.1018 -0.8299 -0.5485
vn 0.0109 -0.8837 -0.4680
vn -0.0520 -0.8754 -0.4806
vn 0.2161 -0.2371 -0.9471
vn 0.4385 -0.3525 -0.8267
vn -0.1019 -0.8301 -0.5482
vn 0.0389 -0.9973 -0.0626
vn 0.0582 -0.6073 -0.7923
vn -0.1631 -0.9860 -0.0341
vn 0.2681 -0.9590 -0.0923
vn 0.0004 -0.5905 -0.8071
vn 0.0389 -0.9973 -0.0625
vn 0.0391 -0.9973 -0.0626
vn 0.0005 -0.5904 -0.8071
vn 0.0581 -0.6074 -0.7923
vn -0.1154 -0.6765 -0.7273
vn -0.0607 -0.6100 -0.7901
vn 0.2683 -0.9589 -0.0924
vn -0.0606 -0.6100 -0.7901
vn 0.0004 -0.5905 -0.8070
vn 0.4508 -0.8485 -0.2773
vn 0.6878 -0.6113 -0.3916
vn -0.1155 -0.6766 -0.7273
vn 0.4505 -0.8486 -0.2773
vn 0.6877 -0.6112 -0.3917
vn -0.1193 -0.7278 -0.6753
vn -0.1154 -0.6763 -0.7275
vn 0.6692 -0.5341 -0.5167
vn -0.1192 -0.7277 -0.6755
vn 0.6819 -0.4179 -0.6003
vn -0.1086 -0.7617 -0.6387
vn 0.6693 -0.5339 -0.5167
vn 0.6691 -0.5341 -0.5167
vn -0.1086 -0.7616 -0.6389
vn -0.1191 -0.7278 -0.6753
vn -0.1157 -0.6765 -0.7273
vn -0.1196 -0.7276 -0.6755
vn -0.2937 -0.6788 -0.6731
vn -0.6069 -0.5151 -0.6052
vn -0.6018 -0.6305 -0.4902
vn -0.6068 -0.5151 -0.6054
vn -0.2939 -0.6788 -0.6729
vn -0.8432 -0.5216 -0.1302
vn 0.3561 -0.6714 0.6499
vn 0.8633 -0.5029 0.0421
vn 0.5111 -0.2519 0.8218
vn 0.5112 -0.2519 0.8217
vn 0.8631 -0.5032 0.0419
vn 0.8081 0.4549 0.3742
vn 0.8083 0.4545 0.3744
vn 0.8632 -0.5032 0.0419
vn 0.9505 0.1615 -0.2655
vn 0.1544 -0.6738 -0.7226
vn 0.2322 -0.6729 -0.7024
vn -0.0981 0.0212 -0.9949
vn 0.2329 -0.6729 -0.7021
vn -0.3757 -0.1522 -0.9142
vn -0.0983 0.0211 -0.9949
vn 0.2328 -0.6730 -0.7020
vn -0.4897 -0.5021 -0.7129
vn -0.3756 -0.1525 -0.9141
vn 0.2310 -0.7287 -0.6447
vn -0.4898 -0.5021 -0.7128
vn 0.2327 -0.6728 -0.7023
vn 0.1577 -0.7395 -0.6544
vn 0.2325 -0.6732 -0.7020
vn 0.1578 -0.7393 -0.6546
vn 0.2306 -0.7287 -0.6448
vn 0.2325 -0.6730 -0.7021
vn 0.1577 -0.7393 -0.6546
vn 0.2319 -0.7858 -0.5734
vn 0.2308 -0.7345 -0.6382
vn 0.2309 -0.7287 -0.6447
vn -0.6067 -0.6236 -0.4931
vn -0.4897 -0.5019 -0.7130
vn 0.2322 -0.7856 -0.5735
vn -0.6067 -0.6235 -0.4932
vn 0.2309 -0.7288 -0.6446
vn 0.2325 -0.7855 -0.5736
vn -0.4678 -0.8217 -0.3255
vn -0.6067 -0.6235 -0.4931
vn 0.2325 -0.7855 -0.5735
vn -0.3259 -0.9444 0.0437
vn -0.4680 -0.8218 -0.3251
vn 0.2326 -0.7855 -0.5735
vn -0.0437 -0.9811 0.1884
vn -0.3257 -0.9445 0.0433
vn 0.1670 -0.8085 -0.5643
vn -0.0436 -0.9812 0.1881
vn 0.2319 -0.7854 -0.5739
vn 0.1669 -0.8086 -0.5642
vn 0.1420 -0.9600 0.2412
vn -0.0437 -0.9811 0.1885
vn 0.2549 -0.7932 -0.5531
vn 0.1669 -0.8086 -0.5641
vn 0.2549 -0.7933 -0.5529
vn 0.3985 -0.9094 0.1191
vn 0.1419 -0.9601 0.2411
vn 0.2553 -0.7931 -0.5530
vn 0.7147 -0.6943 0.0849
vn 0.8455 -0.4859 -0.2213
vn 0.7147 -0.6942 0.0850
vn 0.2551 -0.7932 -0.5529
vn 0.8454 -0.4860 -0.2214
vn 0.2552 -0.7931 -0.5530
vn 0.2576 -0.7238 -0.6401
vn 0.8455 -0.4860 -0.2214
vn 0.2576 -0.7256 -0.6381
vn 0.8622 -0.3448 -0.3710
vn 0.8622 -0.3449 -0.3710
vn 0.2575 -0.7239 -0.6401
vn 0.2340 -0.6559 -0.7177
vn 0.8621 -0.3453 -0.3709
vn 0.2340 -0.6558 -0.7177
vn 0.8205 -0.2266 -0.5249
vn 0.8206 -0.2266 -0.5247
vn 0.2341 -0.6558 -0.7177
vn 0.6715 0.0221 -0.7407
vn 0.6712 0.0221 -0.7409
vn 0.2339 -0.6557 -0.7179
vn 0.3404 -0.0115 -0.9402
vn 0.3403 -0.0114 -0.9402
vn 0.2336 -0.6559 -0.7178
vn 0.1539 -0.6737 -0.7228
vn 0.3405 -0.0112 -0.9402
vn 0.1540 -0.6739 -0.7226
vn 0.0668 0.0853 -0.9941
vn 0.1543 -0.6739 -0.7225
vn -0.0983 0.0212 -0.9949
vn 0.0668 0.0852 -0.9941
vn 0.1540 -0.6738 -0.7227
vn 0.2337 -0.6558 -0.7178
vn 0.2570 -0.7241 -0.6400
vn 0.1578 -0.7473 -0.6455
vn 0.2571 -0.7239 -0.6402
vn 0.2570 -0.7239 -0.6402
vn 0.1575 -0.7395 -0.6545
vn 0.1576 -0.7395 -0.6545
vn 0.1667 -0.8085 -0.5644
vn 0.1671 -0.8084 -0.5644
vn 0.2319 -0.7856 -0.5736
vn -0.5673 0.5490 0.6139
vn -0.8083 -0.1344 0.5733
vn -0.9140 -0.0249 0.4050
vn -0.9139 -0.0253 0.4051
vn -0.5830 0.5695 0.5795
vn -0.5674 0.5489 0.6138
vn -0.9702 0.1537 0.1872
vn -0.5829 0.5696 0.5794
vn -0.9140 -0.0251 0.4050
vn -0.8503 0.3766 0.3676
vn -0.9701 0.1542 0.1872
vn -0.9140 -0.0247 0.4049
vn -0.7952 0.2219 0.5643
vn -0.8503 0.3768 0.3675
vn -0.9140 -0.0250 0.4049
vn -0.6865 0.1018 0.7199
vn -0.7954 0.2218 0.5641
vn -0.9140 -0.0252 0.4049
vn -0.8081 -0.1349 0.5735
vn -0.6866 0.1015 0.7199
vn -0.8083 -0.1350 0.5731
vn -0.6372 0.6252 0.4507
vn -0.5689 0.7507 0.3358
vn -0.8082 -0.1347 0.5733
vn -0.5965 0.5719 0.5631
vn -0.6374 0.6252 0.4505
vn -0.5674 0.5491 0.6136
vn -0.5967 0.5717 0.5631
vn -0.8081 -0.1344 0.5735
vn -0.8085 -0.1348 0.5729
vn -0.6861 0.1020 0.7203
vn -0.6866 0.1016 0.7199
vn -0.5689 0.7508 0.3358
vn -0.4734 0.8527 0.2209
vn -0.4652 0.3464 0.8146
vn -0.4737 0.8525 0.2213
vn -0.3778 0.8954 0.2357
vn -0.4734 0.8527 0.2208
vn -0.4647 0.3466 0.8148
vn -0.7953 0.2219 0.5641
vn -0.4651 0.3464 0.8147
vn -0.5480 0.4672 0.6939
vn -0.7954 0.2217 0.5641
vn -0.6867 0.1015 0.7198
vn -0.4649 0.3467 0.8147
vn -0.5479 0.4670 0.6941
vn -0.4650 0.3465 0.8147
vn -0.2930 0.4806 0.8265
vn -0.4652 0.3463 0.8147
vn -0.3779 0.8954 0.2357
vn -0.2927 0.4809 0.8265
vn -0.3601 0.5861 0.7258
vn -0.2927 0.4807 0.8266
vn -0.1813 0.5547 0.8121
vn -0.5478 0.4673 0.6939
vn -0.2930 0.4807 0.8265
vn -0.3604 0.5860 0.7257
vn -0.2928 0.4806 0.8266
vn -0.2455 0.9341 0.2592
vn -0.1810 0.5549 0.8120
vn -0.2931 0.4808 0.8264
vn -0.3775 0.8956 0.2356
vn -0.2456 0.9341 0.2591
vn -0.3602 0.5861 0.7258
vn -0.1813 0.5550 0.8119
vn -0.2405 0.6529 0.7182
vn -0.2403 0.6529 0.7184
vn -0.1810 0.5546 0.8122
vn 0.3300 0.8794 0.3431
vn -0.1811 0.5549 0.8119
vn 0.1531 0.9664 0.2062
vn 0.3299 0.8795 0.3430
vn -0.1811 0.5550 0.8119
vn 0.1532 0.9664 0.2065
vn 0.1534 0.9664 0.2064
vn -0.2452 0.9342 0.2592
vn -0.1362 0.9537 0.2681
vn 0.1534 0.9664 0.2061
vn -0.1368 0.9537 0.2679
vn -0.0353 0.9877 0.1525
vn -0.0355 0.9876 0.1528
vn -0.0671 0.9794 0.1906
vn -0.2533 0.9391 0.2320
vn -0.0355 0.9876 0.1527
vn -0.1361 0.9537 0.2682
vn -0.0672 0.9793 0.1907
vn -0.2537 0.9391 0.2319
vn -0.0665 0.9794 0.1906
vn -0.4343 0.8229 0.3663
vn -0.0669 0.9794 0.1906
vn 0.0589 0.9948 0.0828
vn 0.2858 0.6766 0.6786
vn 0.0592 0.9949 0.0822
vn 0.2212 0.9737 0.0540
vn 0.0590 0.9948 0.0827
vn 0.2856 0.6766 0.6787
vn 0.2857 0.6766 0.6787
vn -0.5704 0.5955 0.5658
vn -0.5767 0.6709 0.4662
vn -0.4342 0.8229 0.3664
vn 0.2857 0.6764 0.6789
vn -0.5766 0.6710 0.4662
vn 0.2952 0.7405 0.6037
vn -0.5703 0.5956 0.5656
vn 0.6014 0.5199 0.6066
vn 0.2960 0.7396 0.6045
vn 0.2858 0.6764 0.6788
vn 0.2213 0.9737 0.0540
vn 0.6014 0.5198 0.6068
vn 0.6014 0.5198 0.6067
vn 0.5742 0.8184 0.0215
vn 0.8643 0.2660 0.4269
vn 0.6013 0.5199 0.6068
vn 0.4295 0.8998 0.0767
vn 0.5744 0.8183 0.0212
vn 0.6017 0.5197 0.6065
vn 0.4294 0.8999 0.0766
vn 0.5956 0.6386 0.4873
vn 0.2960 0.7395 0.6046
vn 0.8642 0.2670 0.4263
vn 0.5964 0.6332 0.4933
vn 0.6015 0.5199 0.6066
vn 0.8643 0.2671 0.4262
vn 0.4268 0.7803 0.4571
vn 0.4297 0.7012 0.5690
vn 0.8642 0.2672 0.4263
vn 0.5536 0.8263 0.1040
vn 0.4268 0.7802 0.4573
vn 0.8644 0.2671 0.4261
vn 0.5743 0.8184 0.0214
vn 0.5537 0.8262 0.1041
vn 0.8641 0.2673 0.4265
vn 0.4298 0.7011 0.5690
vn 0.8791 0.3923 0.2706
vn 0.8642 0.2672 0.4262
vn 0.8794 0.3920 0.2703
vn 0.5966 0.6333 0.4929
vn 0.8433 0.5211 0.1317
vn 0.8791 0.3924 0.2704
vn 0.4296 0.7012 0.5690
vn 0.5861 0.7197 0.3722
vn 0.8792 0.3922 0.2705
vn 0.8434 0.5210 0.1317
vn 0.5863 0.7196 0.3720
vn 0.5966 0.6333 0.4930
vn 0.8792 0.3921 0.2706
vn 0.2882 0.2172 0.9326
vn 0.2722 0.7975 0.5385
vn 0.5862 0.7199 0.3717
vn 0.5864 0.7196 0.3719
vn 0.4908 0.2152 0.8443
vn 0.2883 0.2171 0.9326
vn 0.8433 0.5211 0.1314
vn 0.4909 0.2147 0.8443
vn 0.5861 0.7198 0.3719
vn 0.5860 0.7198 0.3720
vn 0.2721 0.7974 0.5386
vn 0.2959 0.7397 0.6044
vn 0.5862 0.7197 0.3720
vn 0.2961 0.7395 0.6045
vn 0.5964 0.6334 0.4930
vn 0.2880 0.2173 0.9327
vn 0.1044 0.2322 0.9670
vn -0.5705 0.5953 0.5658
vn 0.2719 0.7975 0.5386
vn -0.5690 0.4998 0.6530
vn -0.5689 0.4998 0.6532
vn 0.1040 0.2320 0.9671
vn -0.5704 0.5956 0.5656
vn 0.2953 0.7398 0.6045
vn 0.2719 0.7975 0.5387
vn -0.5689 0.4999 0.6530
vn 0.1040 0.2322 0.9671
vn -0.4218 0.4479 0.7883
vn -0.4221 0.4478 0.7882
vn 0.1041 0.2323 0.9671
vn -0.0196 0.3304 0.9436
vn -0.4219 0.4476 0.7884
vn -0.0193 0.3304 0.9436
vn -0.2118 0.3658 0.9063
vn -0.0198 0.3305 0.9436
vn -0.0909 0.3904 0.9162
vn 0.0367 0.2995 0.9534
vn -0.0908 0.3905 0.9161
vn -0.1641 0.3319 0.9289
vn -0.2112 0.3655 0.9065
vn -0.0908 0.3903 0.9162
vn 0.0367 0.2996 0.9534
vn 0.0366 0.2993 0.9535
vn -0.1642 0.3322 0.9288
vn 0.2144 0.3073 0.9271
vn -0.1830 0.8641 0.4689
vn 0.2144 0.3080 0.9269
vn -0.1643 0.3319 0.9289
vn -0.1829 0.8642 0.4688
vn 0.3169 0.3531 0.8803
vn 0.2147 0.3076 0.9270
vn 0.4186 0.4889 0.7653
vn -0.1828 0.8642 0.4687
vn 0.4185 0.4890 0.7653
vn -0.1830 0.8640 0.4690
vn -0.2329 0.8255 0.5141
vn 0.4276 0.6069 0.6700
vn 0.4185 0.4888 0.7655
vn -0.2332 0.8255 0.5140
vn -0.2604 0.7710 0.5812
vn 0.4275 0.6068 0.6701
vn 0.5149 0.6743 0.5293
vn 0.4263 0.6150 0.6634
vn -0.2605 0.7710 0.5812
vn -0.3502 0.7608 0.5464
vn -0.2654 0.7348 0.6243
vn -0.2607 0.7708 0.5813
vn -0.3501 0.7608 0.5465
vn -0.2606 0.7711 0.5810
vn 0.5150 0.6743 0.5292
vn -0.2603 0.7710 0.5812
vn -0.2650 0.7348 0.6243
vn -0.2654 0.7348 0.6242
vn -0.3601 0.5862 0.7257
vn -0.2410 0.6527 0.7182
vn -0.2656 0.7347 0.6242
vn -0.3769 0.6988 0.6080
vn -0.3602 0.5862 0.7257
vn -0.3770 0.6985 0.6082
vn -0.2653 0.7347 0.6244
vn -0.2650 0.7349 0.6243
vn 0.4046 0.7802 0.4770
vn 0.5149 0.6744 0.5293
vn -0.2652 0.7348 0.6243
vn -0.2404 0.6529 0.7183
vn 0.4048 0.7803 0.4768
vn -0.2401 0.6527 0.7186
vn 0.3300 0.8793 0.3433
vn 0.4047 0.7802 0.4769
vn -0.5826 0.6042 0.5436
vn -0.3603 0.5860 0.7258
vn -0.3771 0.6953 0.6118
vn -0.5592 0.7317 0.3899
vn -0.5825 0.6042 0.5438
vn -0.3773 0.6985 0.6080
vn -0.5593 0.7315 0.3900
vn -0.3772 0.6985 0.6082
vn -0.3506 0.7605 0.5466
vn -0.3506 0.7606 0.5464
vn -0.3553 0.3080 0.8826
vn -0.5594 0.7313 0.3903
vn -0.5594 0.7314 0.3902
vn -0.3553 0.3081 0.8825
vn -0.7655 0.1474 0.6263
vn -0.5594 0.7314 0.3901
vn -0.8195 0.5573 0.1338
vn -0.8193 0.5575 0.1338
vn -0.5826 0.6041 0.5437
vn -0.5595 0.7311 0.3904
vn -0.8192 0.5577 0.1338
vn -0.7657 0.1474 0.6261
vn -0.8905 -0.0024 0.4551
vn -0.8192 0.5576 0.1338
vn -0.8905 -0.0027 0.4549
vn -0.9321 0.3536 -0.0790
vn -0.9320 0.3538 -0.0788
vn -0.8903 -0.0021 0.4553
vn -0.8802 0.0121 0.4744
vn -0.9321 0.3536 -0.0788
vn -0.8802 0.0120 0.4745
vn -0.7377 0.2751 0.6165
vn -0.9321 0.3536 -0.0789
vn -0.5874 0.5823 0.5621
vn -0.9321 0.3534 -0.0789
vn -0.5872 0.5825 0.5621
vn -0.6071 0.6291 0.4854
vn -0.9320 0.3537 -0.0790
vn -0.6069 0.6290 0.4859
vn -0.9702 0.1538 0.1873
vn -0.9702 0.1538 0.1872
vn -0.6069 0.6291 0.4856
vn -0.6074 0.5889 0.5331
vn -0.9703 0.1536 0.1871
vn -0.6073 0.5892 0.5330
vn -0.5831 0.5696 0.5793
vn -0.9701 0.1540 0.1874
vn -0.8193 0.5575 0.1341
vn -0.8504 0.3763 0.3678
vn -0.8503 0.3768 0.3674
vn -0.5826 0.6041 0.5438
vn -0.3506 0.7607 0.5462
vn 0.0805 0.7052 0.7044
vn -0.3554 0.3080 0.8825
vn -0.2903 0.8649 0.4095
vn 0.0806 0.7053 0.7043
vn -0.3047 0.8237 0.4782
vn -0.3048 0.8238 0.4780
vn -0.3502 0.7609 0.5463
vn 0.0807 0.7052 0.7044
vn -0.4536 0.8379 0.3036
vn 0.1140 0.9897 0.0864
vn -0.2904 0.8650 0.4092
vn -0.4536 0.8381 0.3031
vn -0.2330 0.8255 0.5141
vn -0.1831 0.8643 0.4684
vn -0.2902 0.8649 0.4095
vn -0.3366 0.3015 0.8921
vn -0.2905 0.8649 0.4094
vn -0.2332 0.8254 0.5141
vn -0.2904 0.8648 0.4096
vn -0.3047 0.8238 0.4780
vn -0.2904 0.8649 0.4095
vn -0.4934 0.2743 0.8254
vn -0.4536 0.8381 0.3029
vn -0.2909 0.8648 0.4092
vn -0.3371 0.3020 0.8917
vn -0.4936 0.2745 0.8253
vn -0.6530 0.2635 0.7100
vn -0.4535 0.8381 0.3031
vn -0.4938 0.2745 0.8251
vn -0.5665 0.4237 0.7068
vn -0.6952 0.7099 0.1124
vn -0.6529 0.2636 0.7101
vn -0.6528 0.2635 0.7102
vn -0.6951 0.7101 0.1125
vn -0.4535 0.8381 0.3032
vn -0.0110 0.9680 -0.2508
vn -0.8641 0.5012 -0.0455
vn -0.5660 0.4237 0.7071
vn -0.8642 0.5011 -0.0454
vn -0.6950 0.7101 0.1124
vn 0.1139 0.9897 0.0862
vn -0.6953 0.7099 0.1126
vn -0.0111 0.9679 -0.2509
vn 0.1142 0.9897 0.0861
vn -0.4531 0.8383 0.3032
vn -0.6953 0.7099 0.1123
vn -0.0110 0.9680 -0.2507
vn -0.8640 0.5015 -0.0452
vn -0.2303 0.9161 -0.3283
vn -0.2300 0.9162 -0.3282
vn -0.8640 0.5014 -0.0449
vn -0.2220 0.9554 0.1947
vn -0.2222 0.9553 0.1950
vn -0.8640 0.5015 -0.0450
vn -0.1832 0.8642 0.4686
vn -0.2365 0.3006 0.9240
vn -0.3368 0.3019 0.8919
vn -0.1647 0.3319 0.9288
vn -0.2363 0.3006 0.9240
vn -0.3501 0.7611 0.5461
vn -0.2334 0.8254 0.5141
vn -0.3049 0.8238 0.4779
vn -0.5479 0.4672 0.6940
vn -0.5823 0.6044 0.5437
vn -0.5475 0.4674 0.6941
vn -0.3605 0.5862 0.7256
vn 0.8434 0.5209 0.1317
vn 0.6357 0.1809 0.7504
vn 0.4906 0.2150 0.8445
vn 0.8435 0.5207 0.1316
vn 0.5712 0.2569 0.7796
vn 0.6356 0.1809 0.7506
vn 0.8435 0.5208 0.1316
vn 0.4027 0.6036 0.6881
vn 0.5711 0.2568 0.7797
vn 0.4297 0.7012 0.5689
vn 0.4026 0.6037 0.6881
vn -0.8505 0.3765 0.3674
vn -0.7953 0.2221 0.5641
vn -0.5482 0.4671 0.6938
vn -0.3758 -0.1523 -0.9141
vn -0.3259 -0.2941 -0.8985
vn -0.2179 -0.1844 -0.9584
vn -0.3757 -0.1519 -0.9142
vn -0.4542 -0.4696 -0.7571
vn -0.3258 -0.2938 -0.8986
vn -0.4900 -0.5019 -0.7127
vn -0.4540 -0.4696 -0.7572
vn -0.3759 -0.1521 -0.9141
vn -0.3755 -0.1524 -0.9142
vn -0.2180 -0.1843 -0.9584
vn -0.0984 0.0215 -0.9949
vn -0.4900 -0.5020 -0.7127
vn -0.5358 -0.5415 -0.6478
vn -0.4541 -0.4693 -0.7573
vn -0.6069 -0.6234 -0.4930
vn -0.5357 -0.5414 -0.6480
vn -0.4901 -0.5021 -0.7126
vn -0.5620 -0.6578 -0.5014
vn -0.5358 -0.5412 -0.6480
vn -0.4683 -0.8216 -0.3251
vn -0.4924 -0.7711 -0.4037
vn -0.5619 -0.6578 -0.5015
vn -0.4681 -0.8216 -0.3254
vn -0.5619 -0.6580 -0.5013
vn -0.6069 -0.6232 -0.4933
vn -0.3259 -0.9444 0.0438
vn -0.4924 -0.7712 -0.4036
vn -0.4681 -0.8217 -0.3252
vn -0.0436 -0.9810 0.1888
vn -0.3794 -0.8866 -0.2646
vn -0.3258 -0.9445 0.0434
vn -0.3258 -0.9444 0.0435
vn -0.3795 -0.8866 -0.2645
vn -0.4924 -0.7711 -0.4036
vn -0.0436 -0.9810 0.1889
vn -0.1631 -0.9860 -0.0343
vn -0.3797 -0.8865 -0.2644
vn -0.1631 -0.9860 -0.0345
vn 0.1418 -0.9600 0.2415
vn 0.0388 -0.9973 -0.0628
vn -0.1629 -0.9860 -0.0346
vn 0.3983 -0.9095 0.1195
vn 0.0388 -0.9973 -0.0622
vn 0.1421 -0.9600 0.2412
vn 0.3986 -0.9094 0.1191
vn 0.2682 -0.9590 -0.0921
vn 0.0387 -0.9973 -0.0623
vn 0.4505 -0.8486 -0.2772
vn 0.2682 -0.9589 -0.0926
vn 0.7148 -0.6942 0.0852
vn 0.2682 -0.9589 -0.0923
vn 0.3980 -0.9096 0.1194
vn 0.4506 -0.8486 -0.2772
vn 0.7150 -0.6939 0.0848
vn 0.8455 -0.4859 -0.2214
vn 0.6880 -0.6111 -0.3913
vn 0.4507 -0.8486 -0.2772
vn 0.8623 -0.3448 -0.3710
vn 0.6881 -0.6109 -0.3916
vn 0.8455 -0.4860 -0.2212
vn 0.8623 -0.3447 -0.3709
vn 0.6694 -0.5339 -0.5166
vn 0.6881 -0.6110 -0.3915
vn -0.0984 0.0214 -0.9949
vn -0.2177 -0.1846 -0.9584
vn -0.0165 -0.2202 -0.9753
vn -0.0164 -0.2202 -0.9753
vn 0.0671 0.0855 -0.9941
vn 0.0673 0.0854 -0.9941
vn 0.2163 -0.2367 -0.9472
vn 0.3401 -0.0112 -0.9403
vn 0.0671 0.0849 -0.9941
vn -0.0280 -0.2205 -0.9750
vn 0.2162 -0.2363 -0.9473
vn 0.3402 -0.0115 -0.9403
vn 0.2163 -0.2368 -0.9472
vn 0.4384 -0.3523 -0.8269
vn 0.3401 -0.0113 -0.9403
vn 0.4385 -0.3523 -0.8268
vn 0.6714 0.0224 -0.7408
vn 0.6712 0.0222 -0.7409
vn 0.6823 -0.4176 -0.6000
vn 0.6714 0.0222 -0.7407
vn 0.6821 -0.4176 -0.6003
vn 0.8204 -0.2270 -0.5248
vn 0.8206 -0.2265 -0.5247
vn 0.6822 -0.4176 -0.6002
vn 0.6694 -0.5338 -0.5167
vn 0.6695 -0.5339 -0.5165
vn 0.8623 -0.3448 -0.3709
vn -0.5870 0.5827 0.5621
vn 0.7780 0.3763 0.5030
vn -0.6068 0.6292 0.4857
vn -0.5867 0.5826 0.5625
vn 0.6820 0.2287 0.6947
vn 0.7783 0.3759 0.5030
vn -0.7376 0.2753 0.6166
vn -0.5870 0.5823 0.5625
vn -0.7375 0.2754 0.6166
vn 0.4460 -0.1460 0.8830
vn 0.6820 0.2290 0.6946
vn -0.8804 0.0121 0.4741
vn 0.4462 -0.1461 0.8829
vn -0.7377 0.2749 0.6166
vn -0.8905 -0.0028 0.4551
vn 0.3616 -0.4519 0.8155
vn -0.8803 0.0118 0.4742
vn -0.8802 0.0121 0.4745
vn 0.3613 -0.4519 0.8156
vn 0.4463 -0.1463 0.8829
vn -0.8905 -0.0026 0.4550
vn 0.3544 -0.5843 0.7300
vn 0.3617 -0.4520 0.8154
vn -0.7658 0.1473 0.6260
vn 0.3545 -0.5843 0.7300
vn -0.7656 0.1473 0.6262
vn 0.3579 -0.7522 0.5532
vn 0.3546 -0.5845 0.7298
vn 0.3583 -0.7524 0.5528
vn -0.7657 0.1470 0.6262
vn -0.3555 0.3079 0.8825
vn 0.4707 -0.8449 0.2541
vn 0.3578 -0.7524 0.5530
vn 0.0803 0.7052 0.7044
vn -0.3555 0.3083 0.8824
vn 0.0805 0.7051 0.7046
vn 0.7267 -0.6800 -0.0974
vn -0.6067 0.6290 0.4861
vn 0.7782 0.3761 0.5030
vn 0.7707 0.5121 0.3792
vn -0.6068 0.6291 0.4859
vn 0.7708 0.5123 0.3788
vn -0.6072 0.5890 0.5333
vn 0.7706 0.5124 0.3789
vn 0.7719 0.5952 0.2235
vn -0.6069 0.5894 0.5332
vn 0.7716 0.5954 0.2238
vn -0.5826 0.5698 0.5795
vn -0.5827 0.5696 0.5796
vn 0.7083 0.6988 0.1004
vn -0.5672 0.5489 0.6140
vn -0.5826 0.5700 0.5794
vn 0.7716 0.5955 0.2237
vn 0.7083 0.6988 0.1001
vn -0.5673 0.5490 0.6138
vn 0.7083 0.6988 0.1000
vn 0.5284 0.8415 -0.1129
vn -0.5673 0.5492 0.6137
vn 0.5284 0.8415 -0.1127
vn -0.5966 0.5718 0.5631
vn -0.5969 0.5717 0.5629
vn 0.5286 0.8413 -0.1131
vn 0.3399 0.8165 -0.4668
vn -0.6374 0.6251 0.4505
vn 0.3400 0.8163 -0.4670
vn 0.2544 0.5782 -0.7752
vn -0.5968 0.5718 0.5628
vn 0.3400 0.8164 -0.4667
vn -0.6375 0.6252 0.4503
vn -0.6377 0.6251 0.4502
vn 0.2547 0.5783 -0.7750
vn -0.5691 0.7507 0.3356
vn -0.5691 0.7507 0.3355
vn 0.2547 0.5782 -0.7751
vn 0.0952 0.3566 -0.9294
vn -0.5690 0.7508 0.3356
vn 0.0950 0.3565 -0.9295
vn -0.4737 0.8526 0.2206
vn -0.4734 0.8528 0.2206
vn 0.0950 0.3566 -0.9294
vn -0.0372 0.2084 -0.9773
vn -0.4734 0.8528 0.2207
vn -0.3780 0.8953 0.2357
vn -0.3781 0.8953 0.2355
vn -0.0946 0.2364 -0.9670
vn -0.3778 0.8954 0.2354
vn -0.0945 0.2362 -0.9671
vn -0.2458 0.9340 0.2591
vn -0.2456 0.9342 0.2588
vn -0.1549 0.2473 -0.9565
vn -0.1365 0.9537 0.2679
vn -0.2458 0.9341 0.2588
vn -0.1550 0.2471 -0.9565
vn -0.1366 0.9537 0.2680
vn -0.1995 0.1819 -0.9629
vn -0.1364 0.9538 0.2678
vn -0.1994 0.1820 -0.9629
vn -0.0671 0.9794 0.1904
vn -0.0672 0.9794 0.1904
vn -0.2943 0.0838 -0.9520
vn -0.0670 0.9794 0.1903
vn -0.2941 0.0839 -0.9521
vn 0.0586 0.9949 0.0822
vn 0.0588 0.9949 0.0823
vn -0.4510 0.1839 -0.8734
vn 0.2210 0.9738 0.0538
vn 0.0590 0.9949 0.0822
vn -0.4509 0.1837 -0.8734
vn 0.2208 0.9738 0.0538
vn -0.4511 0.1841 -0.8733
vn -0.5622 0.2949 -0.7726
vn 0.2209 0.9738 0.0538
vn -0.5623 0.2949 -0.7725
vn 0.4293 0.8999 0.0766
vn 0.4289 0.9001 0.0766
vn -0.5624 0.2949 -0.7725
vn -0.5862 0.4396 -0.6805
vn 0.4290 0.9001 0.0765
vn -0.5862 0.4397 -0.6805
vn 0.5757 0.8174 0.0192
vn 0.5745 0.8182 0.0210
vn -0.5864 0.4396 -0.6804
vn -0.6489 0.6742 -0.3527
vn 0.5538 0.8261 0.1041
vn -0.6491 0.6741 -0.3525
vn -0.8057 0.5856 0.0887
vn 0.5742 0.8184 0.0213
vn -0.6489 0.6743 -0.3526
vn 0.5539 0.8261 0.1037
vn 0.5539 0.8261 0.1039
vn -0.8058 0.5854 0.0889
vn 0.4266 0.7802 0.4575
vn 0.4263 0.7804 0.4574
vn -0.8056 0.5858 0.0885
vn -0.8849 0.3208 0.3379
vn 0.4266 0.7805 0.4570
vn -0.8848 0.3209 0.3378
vn 0.4291 0.7013 0.5692
vn 0.4294 0.7013 0.5690
vn -0.8849 0.3209 0.3376
vn 0.4027 0.6038 0.6880
vn -0.7892 0.0968 0.6065
vn -0.5889 -0.3118 0.7457
vn 0.4292 0.7015 0.5689
vn -0.7891 0.0964 0.6067
vn 0.4023 0.6036 0.6883
vn 0.4025 0.6039 0.6879
vn 0.5713 0.2565 0.7797
vn 0.5708 0.2567 0.7799
vn -0.5885 -0.3124 0.7457
vn -0.4991 -0.6395 0.5848
vn 0.5711 0.2566 0.7797
vn 0.6356 0.1808 0.7506
vn 0.6355 0.1807 0.7507
vn -0.4993 -0.6393 0.5848
vn -0.4850 -0.7537 0.4436
vn 0.4904 0.2149 0.8446
vn -0.4848 -0.7536 0.4440
vn -0.3837 -0.8608 0.3344
vn -0.4849 -0.7536 0.4438
vn 0.4908 0.2146 0.8444
vn 0.4906 0.2147 0.8445
vn -0.3837 -0.8607 0.3346
vn 0.2882 0.2167 0.9327
vn 0.2882 0.2169 0.9327
vn -0.3836 -0.8608 0.3344
vn -0.2261 -0.9422 0.2472
vn 0.2883 0.2169 0.9327
vn -0.2262 -0.9421 0.2474
vn 0.1043 0.2320 0.9671
vn 0.1041 0.2319 0.9671
vn -0.2261 -0.9422 0.2474
vn -0.1224 -0.9366 0.3284
vn -0.1222 -0.9366 0.3284
vn -0.0199 0.3302 0.9437
vn -0.1225 -0.9366 0.3283
vn -0.0924 -0.9214 0.3775
vn -0.0197 0.3302 0.9437
vn -0.0924 -0.9213 0.3776
vn -0.0909 0.3903 0.9162
vn -0.0908 0.3902 0.9163
vn -0.0543 -0.9391 0.3393
vn -0.1648 0.3317 0.9289
vn -0.0541 -0.9391 0.3393
vn 0.0027 -0.9548 0.2973
vn -0.0877 0.3889 0.9171
vn -0.1646 0.3317 0.9289
vn -0.1644 0.3317 0.9290
vn 0.0025 -0.9547 0.2974
vn -0.2362 0.3002 0.9241
vn -0.2431 0.3007 0.9222
vn 0.0841 -0.9353 0.3437
vn -0.3368 0.3015 0.8920
vn -0.2365 0.3003 0.9241
vn 0.0026 -0.9547 0.2975
vn 0.0839 -0.9354 0.3436
vn -0.3372 0.3014 0.8919
vn 0.0839 -0.9354 0.3435
vn 0.2260 -0.8724 0.4335
vn -0.3370 0.3015 0.8919
vn 0.2260 -0.8724 0.4334
vn -0.4939 0.2742 0.8252
vn -0.4939 0.2743 0.8251
vn 0.3564 -0.6717 0.6495
vn -0.6532 0.2633 0.7100
vn -0.4936 0.2741 0.8254
vn 0.2260 -0.8725 0.4332
vn -0.6529 0.2633 0.7102
vn 0.5110 -0.2519 0.8219
vn -0.6534 0.2633 0.7098
vn 0.5109 -0.2520 0.8218
vn -0.5664 0.4234 0.7071
vn -0.5663 0.4239 0.7068
vn 0.5109 -0.2515 0.8221
vn 0.8081 0.4546 0.3747
vn 0.8078 0.4549 0.3749
vn -0.2220 0.9554 0.1949
vn 0.8831 -0.3319 -0.3317
vn -0.0112 0.9680 -0.2507
vn 0.9063 -0.0730 -0.4162
vn 0.1137 0.9898 0.0860
vn -0.0111 0.9681 -0.2504
vn 0.7267 -0.6800 -0.0976
vn 0.1141 0.9897 0.0862
vn 0.8831 -0.3318 -0.3317
vn 0.7269 -0.6798 -0.0976
vn 0.0804 0.7054 0.7042
vn 0.1173 0.9891 0.0891
vn 0.9064 -0.0727 -0.4161
vn -0.0112 0.9680 -0.2508
vn -0.2304 0.9162 -0.3279
vn 0.9065 -0.0727 -0.4159
vn -0.2303 0.9162 -0.3279
vn 0.9504 0.1620 -0.2655
vn 0.9505 0.1619 -0.2653
vn 0.8079 0.4551 0.3744
vn 0.9505 0.1620 -0.2650
vn -0.2222 0.9553 0.1948
vt 0.537110 0.158690
vt 0.546390 0.204100
vt 0.556640 0.204100
vt 0.527830 0.204100
vt 0.508300 0.158690
vt 0.556640 0.158690
vt 0.538090 0.122070
vt 0.508300 0.122070
vt 0.556640 0.122070
vt 0.581540 0.122070
vt 0.581540 0.158690
vt 0.601070 0.158690
vt 0.601070 0.122070
vt 0.625000 0.158690
vt 0.625000 0.122070
vt 0.651370 0.158690
vt 0.651370 0.122070
vt 0.672850 0.204100
vt 0.672850 0.158690
vt 0.651370 0.204100
vt 0.698240 0.204100
vt 0.698240 0.158690
vt 0.698240 0.122070
vt 0.672850 0.122070
vt 0.719240 0.158690
vt 0.719240 0.122070
vt 0.735350 0.158690
vt 0.735350 0.122070
vt 0.751460 0.122070
vt 0.751460 0.158690
vt 0.735350 0.204100
vt 0.751460 0.204100
vt 0.719240 0.204100
vt 0.625000 0.204100
vt 0.601070 0.204100
vt 0.581540 0.204100
vt 0.479980 0.122070
vt 0.479980 0.158690
vt 0.508300 0.204100
vt 0.450680 0.122070
vt 0.450680 0.158690
vt 0.479980 0.204100
vt 0.425780 0.122070
vt 0.425780 0.158690
vt 0.406740 0.122070
vt 0.406740 0.158690
vt 0.387700 0.122070
vt 0.387700 0.158690
vt 0.406740 0.204100
vt 0.387700 0.204100
vt 0.425780 0.204100
vt 0.450680 0.204100
vt 0.214840 0.073730
vt 0.205570 0.051760
vt 0.180660 0.051760
vt 0.220700 0.057130
vt 0.234380 0.071780
vt 0.222170 0.093260
vt 0.188960 0.076660
vt 0.163570 0.084470
vt 0.161130 0.058590
vt 0.142090 0.075200
vt 0.135250 0.095700
vt 0.136720 0.115720
vt 0.167970 0.107420
vt 0.144530 0.132810
vt 0.195310 0.100590
vt 0.174800 0.128420
vt 0.201170 0.122560
vt 0.225590 0.113280
vt 0.243650 0.104980
vt 0.241210 0.088380
vt 0.241210 0.122070
vt 0.228030 0.138180
vt 0.206540 0.149900
vt 0.186040 0.153320
vt 0.161130 0.148930
vt 0.362790 0.197270
vt 0.342770 0.188960
vt 0.363770 0.217290
vt 0.365720 0.182620
vt 0.350590 0.175780
vt 0.368160 0.167970
vt 0.327150 0.158200
vt 0.360350 0.163570
vt 0.342290 0.148440
vt 0.311520 0.166500
vt 0.332520 0.200680
vt 0.295410 0.174800
vt 0.319820 0.212400
vt 0.277340 0.182130
vt 0.238280 0.226560
vt 0.271480 0.226560
vt 0.230470 0.197750
vt 0.180180 0.217770
vt 0.205570 0.237790
vt 0.185060 0.257810
vt 0.133790 0.239260
vt 0.184570 0.279300
vt 0.125490 0.242680
vt 0.139650 0.277830
vt 0.196290 0.280760
vt 0.184570 0.301270
vt 0.141110 0.308110
vt 0.122070 0.277830
vt 0.189450 0.320800
vt 0.147460 0.336430
vt 0.124020 0.311040
vt 0.106930 0.249510
vt 0.118160 0.245610
vt 0.109860 0.276370
vt 0.087400 0.261230
vt 0.078120 0.276370
vt 0.112300 0.312990
vt 0.077640 0.317870
vt 0.090330 0.356450
vt 0.103030 0.367680
vt 0.119630 0.345700
vt 0.125490 0.374020
vt 0.138180 0.374510
vt 0.130860 0.341310
vt 0.146970 0.375000
vt 0.155270 0.375980
vt 0.195800 0.342770
vt 0.205570 0.382320
vt 0.223630 0.354980
vt 0.259770 0.384770
vt 0.257320 0.355960
vt 0.309570 0.384770
vt 0.354980 0.347660
vt 0.340820 0.384770
vt 0.336430 0.342770
vt 0.286620 0.346190
vt 0.365230 0.384280
vt 0.374020 0.351070
vt 0.365720 0.314940
vt 0.381840 0.318850
vt 0.369140 0.280270
vt 0.346680 0.310550
vt 0.348140 0.280270
vt 0.324220 0.305180
vt 0.312500 0.328610
vt 0.281250 0.336430
vt 0.303710 0.322750
vt 0.312990 0.302730
vt 0.326170 0.280760
vt 0.313960 0.282230
vt 0.344730 0.244630
vt 0.322270 0.254390
vt 0.310060 0.259770
vt 0.315920 0.241700
vt 0.338380 0.228520
vt 0.353030 0.222170
vt 0.366210 0.239260
vt 0.382810 0.228520
vt 0.384770 0.241700
vt 0.386230 0.282230
vt 0.402340 0.285640
vt 0.396480 0.323240
vt 0.421390 0.289060
vt 0.412600 0.328610
vt 0.387700 0.354490
vt 0.405270 0.246090
vt 0.424320 0.249020
vt 0.444340 0.271970
vt 0.444340 0.291500
vt 0.437990 0.313960
vt 0.406250 0.235350
vt 0.426760 0.240230
vt 0.433110 0.242680
vt 0.441410 0.246580
vt 0.444340 0.255860
vt 0.431640 0.336430
vt 0.400390 0.360350
vt 0.411620 0.365720
vt 0.394040 0.378420
vt 0.379390 0.382810
vt 0.305180 0.249510
vt 0.296390 0.230960
vt 0.288570 0.240230
vt 0.269040 0.237790
vt 0.240720 0.235840
vt 0.213380 0.245120
vt 0.197270 0.262700
vt 0.256840 0.346680
vt 0.228520 0.345700
vt 0.206050 0.333980
vt 0.200200 0.316410
vt 0.196290 0.299320
vt 0.349610 0.146000
vt 0.367190 0.150880
vt 0.259280 0.312500
vt 0.236820 0.312500
vt 0.241700 0.332520
vt 0.220700 0.326170
vt 0.212400 0.310550
vt 0.232420 0.291990
vt 0.258300 0.290040
vt 0.233400 0.272460
vt 0.206050 0.294430
vt 0.209470 0.278320
vt 0.215330 0.260250
vt 0.234860 0.250490
vt 0.255860 0.269040
vt 0.251950 0.245610
vt 0.278810 0.271000
vt 0.272460 0.251950
vt 0.285160 0.256350
vt 0.293950 0.272950
vt 0.283200 0.287600
vt 0.296880 0.286620
vt 0.281250 0.306150
vt 0.295900 0.301760
vt 0.290040 0.318360
vt 0.278320 0.325200
vt 0.259770 0.334470
vt 0.031250 0.191890
vt 0.070310 0.210450
vt 0.049320 0.179690
vt 0.020510 0.169430
vt 0.031740 0.139650
vt 0.049800 0.134280
vt 0.063480 0.171390
vt 0.081540 0.201170
vt 0.082520 0.228520
vt 0.099120 0.229000
vt 0.059570 0.220210
vt 0.114260 0.226560
vt 0.093260 0.194820
vt 0.138670 0.217770
vt 0.076660 0.164550
vt 0.110840 0.185550
vt 0.091800 0.156740
vt 0.127440 0.175290
vt 0.166990 0.207030
vt 0.108890 0.148440
vt 0.148930 0.154790
vt 0.176760 0.163570
vt 0.215330 0.189450
vt 0.207520 0.161620
vt 0.264650 0.169920
vt 0.237790 0.150390
vt 0.257810 0.128910
vt 0.312990 0.150880
vt 0.308110 0.107420
vt 0.320800 0.146480
vt 0.258300 0.087400
vt 0.260740 0.106450
vt 0.303710 0.077640
vt 0.324710 0.106930
vt 0.340330 0.136720
vt 0.336430 0.107420
vt 0.328610 0.142580
vt 0.320800 0.074220
vt 0.372070 0.107910
vt 0.368160 0.063960
vt 0.362300 0.125490
vt 0.332030 0.071780
vt 0.320310 0.034180
vt 0.309570 0.040530
vt 0.291990 0.006840
vt 0.293950 0.047360
vt 0.300290 0.007320
vt 0.282710 0.006840
vt 0.250490 0.067380
vt 0.238770 0.049320
vt 0.230960 0.008790
vt 0.214360 0.037600
vt 0.178220 0.010740
vt 0.182130 0.039060
vt 0.128910 0.011720
vt 0.152830 0.050780
vt 0.106930 0.055180
vt 0.136230 0.063480
vt 0.123540 0.079100
vt 0.099120 0.075200
vt 0.120610 0.089840
vt 0.097170 0.090330
vt 0.124510 0.115720
vt 0.078610 0.089360
vt 0.100590 0.121090
vt 0.081050 0.125000
vt 0.130370 0.137210
vt 0.064940 0.129390
vt 0.061520 0.090820
vt 0.063960 0.077150
vt 0.041990 0.083500
vt 0.043460 0.094730
vt 0.022460 0.087890
vt 0.024900 0.097660
vt 0.015620 0.089840
vt 0.007320 0.094730
vt 0.002930 0.104490
vt 0.005370 0.123050
vt 0.008790 0.145510
vt 0.080570 0.073730
vt 0.091800 0.050780
vt 0.087890 0.074220
vt 0.076170 0.047360
vt 0.067380 0.066890
vt 0.091800 0.013180
vt 0.073730 0.013670
vt 0.054200 0.014650
vt 0.045410 0.016600
vt 0.062500 0.043460
vt 0.056150 0.059080
vt 0.047360 0.041990
vt 0.045410 0.051270
vt 0.028810 0.037600
vt 0.110350 0.012210
vt 0.312500 0.007320
vt 0.336910 0.008300
vt 0.353030 0.020510
vt 0.491210 0.021000
vt 0.494140 0.091310
vt 0.502930 0.091310
vt 0.485840 0.091310
vt 0.480470 0.021000
vt 0.502930 0.021000
vt 0.480470 0.091310
vt 0.470210 0.021000
vt 0.470210 0.091310
vt 0.460940 0.021000
vt 0.460940 0.091310
vt 0.449710 0.021000
vt 0.437500 0.021000
vt 0.449710 0.091310
vt 0.437500 0.091310
vt 0.425290 0.021000
vt 0.425290 0.091310
vt 0.412110 0.021000
vt 0.412110 0.091310
vt 0.399410 0.021000
vt 0.399410 0.091310
vt 0.390620 0.021000
vt 0.390620 0.091310
vt 0.382320 0.021000
vt 0.382320 0.091310
vt 0.514650 0.091310
vt 0.514650 0.021000
vt 0.527340 0.091310
vt 0.527340 0.021000
vt 0.535160 0.091310
vt 0.535160 0.021000
vt 0.545410 0.091310
vt 0.545410 0.021000
vt 0.554690 0.091310
vt 0.554690 0.021000
vt 0.447750 0.254880
vt 0.445800 0.271970
vt 0.447750 0.271480
vt 0.445800 0.255370
vt 0.445310 0.243650
vt 0.442870 0.246580
vt 0.435550 0.240720
vt 0.428710 0.237790
vt 0.434570 0.242190
vt 0.428220 0.239750
vt 0.408200 0.232910
vt 0.407710 0.234860
vt 0.384770 0.226070
vt 0.383790 0.228030
vt 0.367680 0.215820
vt 0.364750 0.217290
vt 0.445800 0.291500
vt 0.447750 0.291500
vt 0.439450 0.314450
vt 0.441410 0.315430
vt 0.433110 0.336910
vt 0.435060 0.337400
vt 0.412600 0.366700
vt 0.414060 0.367680
vt 0.395020 0.379390
vt 0.396480 0.380860
vt 0.380370 0.383790
vt 0.380860 0.385250
vt 0.365720 0.385250
vt 0.366700 0.387210
vt 0.341310 0.385740
vt 0.341310 0.387700
vt 0.310060 0.385740
vt 0.311040 0.387210
vt 0.259770 0.385740
vt 0.259280 0.388180
vt 0.205080 0.383300
vt 0.205080 0.385250
vt 0.153810 0.376950
vt 0.153810 0.378910
vt 0.145510 0.375980
vt 0.145020 0.377930
vt 0.136720 0.375000
vt 0.136230 0.376950
vt 0.124020 0.375000
vt 0.123540 0.376460
vt 0.101070 0.368650
vt 0.100100 0.370610
vt 0.088380 0.356930
vt 0.086430 0.357910
vt 0.075680 0.318360
vt 0.073730 0.318850
vt 0.076170 0.276370
vt 0.074220 0.275880
vt 0.085450 0.261230
vt 0.083980 0.259280
vt 0.104980 0.249020
vt 0.104000 0.247070
vt 0.116700 0.245120
vt 0.115720 0.243650
vt 0.124020 0.242190
vt 0.123050 0.240230
vt 0.132320 0.238770
vt 0.131350 0.236820
vt 0.179200 0.216800
vt 0.178220 0.215330
vt 0.229980 0.197270
vt 0.229490 0.195310
vt 0.277340 0.181150
vt 0.277830 0.179200
vt 0.295410 0.173340
vt 0.294430 0.171390
vt 0.312010 0.165530
vt 0.310550 0.163570
vt 0.327640 0.157230
vt 0.326660 0.155270
vt 0.342770 0.146970
vt 0.342290 0.145020
vt 0.350100 0.144530
vt 0.350100 0.142580
vt 0.367680 0.149410
vt 0.369140 0.148440
vt 0.363770 0.196780
vt 0.368160 0.181640
vt 0.366210 0.181640
vt 0.366210 0.196780
vt 0.364260 0.216310
vt 0.367190 0.214840
vt 0.371090 0.166990
vt 0.368650 0.166990
vt 0.369630 0.148930
vt 0.368160 0.150390
s 0
usemtl mat0.1079
f 1/1/1 2/2/2 4/3/3
f 1/1/4 3/4/5 2/2/6
f 7/5/7 3/4/8 1/1/9
f 1/1/10 4/3/11 5/6/12
f 8/7/13 1/1/14 5/6/15
f 6/8/16 1/1/4 8/7/17
f 6/8/18 7/5/19 1/1/20
f 8/7/21 5/6/22 9/9/23
f 10/10/24 9/9/25 5/6/26
f 10/10/27 5/6/28 11/11/29
f 10/10/30 11/11/29 12/12/31
f 10/10/32 12/12/33 13/13/34
f 13/13/35 14/14/36 15/15/37
f 13/13/38 12/12/39 14/14/40
f 15/15/41 17/16/42 16/17/43
f 15/15/44 14/14/45 17/16/46
f 17/16/47 18/18/48 20/19/49
f 17/16/50 19/20/51 18/18/52
f 14/14/53 19/20/54 17/16/55
f 16/17/56 17/16/57 20/19/58
f 20/19/59 18/18/60 21/21/61
f 20/19/62 21/21/63 22/22/64
f 20/19/65 22/22/66 24/23/67
f 16/17/68 20/19/69 23/24/70
f 20/19/71 24/23/72 23/24/73
f 24/23/74 25/25/75 26/26/76
f 24/23/77 22/22/78 25/25/79
f 27/27/80 26/26/81 25/25/82
f 27/27/83 28/28/84 26/26/85
f 27/27/86 29/29/87 28/28/88
f 27/27/89 30/30/90 29/29/91
f 31/31/92 30/30/93 27/27/94
f 31/31/95 32/32/96 30/30/97
f 31/31/98 25/25/79 33/33/99
f 31/31/100 27/27/101 25/25/102
f 33/33/103 22/22/78 21/21/104
f 33/33/105 25/25/106 22/22/78
f 14/14/107 34/34/108 19/20/109
f 12/12/110 35/35/111 34/34/112
f 12/12/113 34/34/114 14/14/115
f 11/11/116 36/36/117 35/35/118
f 11/11/119 35/35/120 12/12/33
f 5/6/121 4/3/122 36/36/123
f 5/6/124 36/36/117 11/11/125
f 37/37/126 7/5/127 6/8/128
f 37/37/129 39/38/130 7/5/131
f 7/5/132 38/39/133 3/4/134
f 39/38/135 38/39/136 7/5/137
f 42/40/138 40/41/139 39/38/140
f 40/41/141 41/42/142 39/38/143
f 39/38/144 41/42/145 38/39/146
f 42/40/147 39/38/148 37/37/149
f 43/43/150 40/41/151 42/40/152
f 43/43/153 44/44/154 40/41/155
f 45/45/156 44/44/157 43/43/158
f 45/45/159 46/46/160 44/44/161
f 47/47/87 46/46/162 45/45/163
f 47/47/91 48/48/164 46/46/165
f 48/48/166 49/49/167 46/46/168
f 48/48/166 50/50/169 49/49/170
f 46/46/171 49/49/172 51/51/173
f 44/44/174 51/51/175 52/52/176
f 46/46/177 51/51/178 44/44/179
f 44/44/180 52/52/181 40/41/155
f 40/41/182 52/52/183 41/42/184
f 53/53/185 54/54/186 59/55/187
f 53/53/188 55/56/189 54/54/190
f 56/57/191 55/56/192 53/53/193
f 57/58/194 56/57/191 53/53/193
f 57/58/195 53/53/196 58/59/197
f 53/53/198 59/55/199 58/59/200
f 60/60/201 59/55/202 61/61/203
f 60/60/204 58/59/205 59/55/206
f 60/60/207 61/61/208 62/62/13
f 63/63/209 60/60/210 62/62/211
f 64/64/212 60/60/213 63/63/214
f 64/64/215 66/65/216 60/60/217
f 65/66/218 66/65/219 64/64/220
f 60/60/201 66/65/221 68/67/222
f 65/66/223 67/68/224 66/65/225
f 68/67/226 66/65/227 67/68/228
f 68/67/229 69/69/230 70/70/231
f 68/67/232 67/68/233 69/69/234
f 68/67/235 70/70/236 57/58/237
f 57/58/238 58/59/239 68/67/235
f 60/60/240 68/67/241 58/59/242
f 70/70/243 71/71/84 74/72/244
f 70/70/245 72/73/246 71/71/247
f 70/70/248 73/74/249 72/73/250
f 69/69/251 73/74/252 70/70/253
f 70/70/254 74/72/255 57/58/256
f 57/58/257 74/72/258 56/57/259
f 69/69/260 75/75/261 73/74/262
f 69/69/263 76/76/264 75/75/265
f 76/76/266 67/68/267 77/77/268
f 69/69/269 67/68/270 76/76/271
f 77/77/272 67/68/273 65/66/274
f 78/78/275 80/79/276 79/80/277
f 81/81/278 80/79/279 78/78/280
f 81/81/281 83/82/282 80/79/283
f 82/83/284 83/82/285 81/81/286
f 86/84/287 80/79/288 83/82/289
f 82/83/290 84/85/291 83/82/292
f 85/86/293 83/82/292 84/85/294
f 86/84/287 83/82/295 85/86/296
f 87/87/297 80/79/298 86/84/299
f 87/87/300 88/88/301 80/79/302
f 89/89/303 88/88/304 87/87/305
f 89/89/306 90/90/307 88/88/308
f 91/91/309 90/90/310 89/89/311
f 93/92/312 92/93/313 91/91/314
f 91/91/315 92/93/316 90/90/317
f 93/92/318 91/91/319 94/94/320
f 95/95/321 93/92/318 94/94/322
f 95/95/323 96/96/324 93/92/325
f 95/95/326 97/97/327 96/96/324
f 98/98/328 97/97/329 95/95/330
f 101/99/331 97/97/332 98/98/328
f 99/100/333 100/101/334 98/98/335
f 101/99/336 98/98/337 100/101/338
f 102/102/339 97/97/340 101/99/341
f 102/102/342 101/99/343 103/103/344
f 101/99/345 104/104/346 103/103/347
f 101/99/348 100/101/349 104/104/350
f 104/104/351 100/101/352 108/105/353
f 104/104/354 105/106/355 103/103/356
f 104/104/357 106/107/358 105/106/359
f 107/108/360 106/107/361 104/104/362
f 104/104/363 108/105/364 107/108/365
f 111/109/366 108/105/367 109/110/368
f 109/110/369 108/105/370 99/100/371
f 99/100/372 108/105/373 100/101/374
f 107/108/375 108/105/376 110/111/377
f 111/109/378 110/111/377 108/105/373
f 112/112/379 110/111/380 111/109/381
f 113/113/382 110/111/383 112/112/384
f 114/114/385 113/113/382 115/115/386
f 114/114/387 110/111/388 113/113/389
f 116/116/390 114/114/391 115/115/392
f 117/117/393 118/118/394 116/116/395
f 116/116/396 118/118/397 114/114/398
f 119/119/399 118/118/400 117/117/401
f 121/120/402 118/118/403 119/119/404
f 114/114/405 118/118/406 120/121/407
f 121/120/408 120/121/409 118/118/406
f 122/122/410 120/121/411 121/120/412
f 123/123/413 120/121/414 122/122/415
f 124/124/416 106/107/417 123/123/418
f 124/124/419 123/123/420 125/125/421
f 123/123/422 106/107/423 120/121/424
f 125/125/425 126/126/426 124/124/427
f 127/127/428 126/126/429 125/125/430
f 127/127/428 128/128/431 126/126/432
f 129/129/433 128/128/434 127/127/435
f 133/130/436 129/129/437 130/131/438
f 133/130/439 131/132/440 129/129/441
f 131/132/442 132/133/443 129/129/437
f 129/129/444 132/133/445 128/128/446
f 133/130/447 134/134/448 135/135/449
f 133/130/450 130/131/451 134/134/452
f 135/135/453 136/136/454 133/130/455
f 136/136/456 131/132/457 133/130/458
f 135/135/459 138/137/460 136/136/461
f 137/138/462 139/139/463 136/136/464
f 137/138/465 136/136/461 138/137/466
f 136/136/467 139/139/468 131/132/457
f 137/138/462 140/140/469 139/139/470
f 140/140/471 141/141/472 139/139/473
f 139/139/474 141/141/475 142/142/476
f 139/139/477 142/142/478 131/132/479
f 143/143/480 142/142/481 144/144/482
f 143/143/483 132/133/484 142/142/485
f 131/132/486 142/142/487 132/133/443
f 144/144/488 142/142/489 141/141/490
f 144/144/491 141/141/492 145/145/493
f 145/145/494 147/146/495 146/147/496
f 145/145/497 141/141/498 147/146/499
f 148/148/500 147/146/501 140/140/502
f 140/140/503 147/146/504 141/141/475
f 148/148/505 149/149/506 147/146/507
f 146/147/508 147/146/509 149/149/510
f 146/147/511 149/149/512 150/150/513
f 150/150/514 149/149/515 151/151/516
f 152/152/517 151/151/518 149/149/519
f 152/152/520 149/149/521 148/148/522
f 153/153/523 152/152/524 148/148/525
f 90/90/526 151/151/527 152/152/528
f 88/88/529 90/90/530 152/152/531
f 88/88/532 152/152/533 153/153/534
f 153/153/535 80/79/536 88/88/537
f 153/153/538 79/80/539 80/79/283
f 154/154/540 79/80/541 153/153/542
f 153/153/543 148/148/544 154/154/545
f 154/154/546 155/155/547 79/80/548
f 156/156/549 155/155/550 154/154/551
f 154/154/540 157/157/552 156/156/553
f 154/154/554 137/138/555 157/157/556
f 154/154/545 140/140/557 137/138/558
f 154/154/559 148/148/560 140/140/561
f 156/156/562 157/157/563 158/158/564
f 137/138/565 138/137/466 157/157/566
f 157/157/567 138/137/568 159/159/569
f 157/157/563 159/159/570 158/158/571
f 162/160/572 159/159/573 160/161/574
f 160/161/575 159/159/576 161/162/577
f 159/159/578 135/135/579 161/162/580
f 159/159/581 138/137/582 135/135/583
f 162/160/584 158/158/585 159/159/570
f 167/163/586 162/160/587 163/164/588
f 162/160/589 164/165/590 163/164/591
f 162/160/592 165/166/593 164/165/594
f 162/160/595 166/167/596 165/166/597
f 160/161/598 166/167/599 162/160/600
f 167/163/601 158/158/602 162/160/603
f 167/163/604 155/155/605 156/156/606
f 156/156/607 158/158/608 167/163/609
f 163/164/610 168/168/611 167/163/612
f 167/163/604 168/168/613 155/155/614
f 163/164/615 169/169/616 168/168/611
f 163/164/617 170/170/618 169/169/619
f 163/164/620 171/171/621 170/170/622
f 163/164/623 172/172/624 171/171/625
f 163/164/626 164/165/627 172/172/628
f 160/161/629 173/173/630 166/167/631
f 174/174/632 173/173/633 160/161/634
f 174/174/635 175/175/636 173/173/637
f 174/174/638 176/176/639 175/175/640
f 161/162/641 176/176/642 174/174/643
f 161/162/644 177/177/645 176/176/646
f 135/135/647 177/177/645 161/162/648
f 135/135/459 134/134/452 177/177/649
f 160/161/650 161/162/651 174/174/652
f 178/178/653 151/151/654 179/179/655
f 150/150/514 151/151/656 178/178/657
f 90/90/310 179/179/658 151/151/659
f 180/180/660 179/179/661 92/93/662
f 92/93/663 179/179/664 90/90/665
f 178/178/666 179/179/667 180/180/668
f 180/180/669 92/93/670 181/181/671
f 181/181/672 92/93/673 93/92/674
f 181/181/675 93/92/676 182/182/677
f 93/92/678 183/183/679 182/182/680
f 183/183/681 97/97/340 184/184/682
f 183/183/683 96/96/684 97/97/685
f 93/92/686 96/96/687 183/183/688
f 102/102/339 184/184/689 97/97/690
f 185/185/691 132/133/692 143/143/693
f 186/186/694 128/128/695 185/185/696
f 185/185/697 128/128/698 132/133/699
f 124/124/700 126/126/701 186/186/702
f 186/186/694 126/126/703 128/128/704
f 124/124/700 186/186/702 187/187/705
f 188/188/706 124/124/707 187/187/708
f 188/188/709 105/106/710 124/124/711
f 189/189/712 105/106/713 188/188/706
f 102/102/714 103/103/715 189/189/716
f 189/189/717 103/103/718 105/106/719
f 124/124/720 105/106/721 106/107/722
f 114/114/387 120/121/723 107/108/724
f 107/108/375 120/121/725 106/107/726
f 107/108/724 110/111/727 114/114/398
f 85/86/728 84/85/729 190/190/730
f 190/190/731 84/85/732 191/191/733
f 191/191/734 84/85/735 82/83/736
f 196/192/737 192/193/738 193/194/739
f 192/193/740 194/195/741 193/194/742
f 192/193/743 195/196/744 194/195/745
f 198/197/746 195/196/747 192/193/748
f 197/198/749 192/193/750 196/192/737
f 197/198/751 198/197/752 192/193/753
f 197/198/754 199/199/755 198/197/756
f 198/197/757 200/200/758 195/196/759
f 199/199/760 200/200/761 198/197/762
f 199/199/763 201/201/764 200/200/765
f 199/199/766 202/202/767 201/201/768
f 199/199/769 203/203/770 202/202/771
f 204/204/772 203/203/773 199/199/774
f 204/204/775 205/205/776 203/203/777
f 206/206/778 205/205/776 204/204/779
f 206/206/780 207/207/781 205/205/782
f 206/206/783 208/208/784 207/207/781
f 209/209/785 208/208/786 206/206/787
f 209/209/788 206/206/789 210/210/790
f 209/209/791 210/210/792 211/211/793
f 211/211/794 210/210/795 212/212/796
f 211/211/797 212/212/798 213/213/799
f 213/213/800 212/212/801 214/214/802
f 214/214/803 212/212/804 215/215/805
f 215/215/806 212/212/807 196/192/808
f 215/215/809 196/192/810 216/216/811
f 196/192/812 193/194/813 216/216/814
f 196/192/815 212/212/816 210/210/817
f 197/198/818 210/210/819 206/206/780
f 196/192/810 210/210/820 197/198/821
f 197/198/822 206/206/778 204/204/823
f 197/198/754 204/204/824 199/199/825
f 218/217/826 224/218/827 217/219/828
f 217/219/829 219/220/830 218/217/831
f 220/221/832 219/220/833 217/219/834
f 217/219/834 221/222/835 220/221/836
f 217/219/837 222/223/838 221/222/839
f 217/219/840 223/224/841 222/223/842
f 217/219/843 224/218/844 223/224/845
f 224/218/846 225/225/847 227/226/848
f 224/218/849 226/227/850 225/225/851
f 218/217/852 226/227/853 224/218/854
f 224/218/855 227/226/848 223/224/856
f 223/224/857 227/226/858 228/228/859
f 230/229/860 228/228/861 229/230/862
f 223/224/857 228/228/863 230/229/864
f 222/223/865 230/229/866 231/231/867
f 222/223/868 223/224/869 230/229/870
f 231/231/871 230/229/872 232/232/873
f 230/229/874 229/230/875 232/232/876
f 233/233/877 232/232/878 235/234/879
f 231/231/880 232/232/881 233/233/882
f 232/232/883 234/235/884 235/234/885
f 232/232/886 229/230/887 234/235/888
f 233/233/889 235/234/890 236/236/891
f 236/236/892 235/234/893 237/237/894
f 235/234/895 238/238/896 237/237/897
f 235/234/898 234/235/888 238/238/899
f 238/238/900 234/235/901 239/239/902
f 238/238/903 239/239/904 240/240/905
f 240/240/906 242/241/907 241/242/908
f 240/240/909 239/239/910 242/241/911
f 241/242/912 242/241/913 243/243/914
f 243/243/105 242/241/915 244/244/916
f 246/245/917 244/244/918 245/246/919
f 243/243/914 244/244/920 246/245/921
f 246/245/922 248/247/923 247/248/924
f 243/243/925 246/245/926 247/248/927
f 246/245/921 249/249/928 248/247/929
f 250/250/930 249/249/931 246/245/932
f 246/245/922 245/246/933 250/250/934
f 250/250/935 251/251/936 254/252/937
f 250/250/938 252/253/939 251/251/940
f 250/250/941 245/246/933 252/253/942
f 250/250/930 253/254/943 249/249/944
f 254/252/945 253/254/946 250/250/947
f 254/252/948 255/255/949 257/256/950
f 254/252/951 256/257/952 255/255/953
f 254/252/954 251/251/955 256/257/956
f 254/252/957 257/256/958 258/258/959
f 254/252/960 258/258/961 253/254/962
f 259/259/963 258/258/964 257/256/965
f 260/260/966 258/258/967 259/259/968
f 260/260/969 253/254/970 258/258/971
f 261/261/972 263/262/973 260/260/974
f 260/260/975 262/263/976 261/261/977
f 259/259/978 262/263/979 260/260/980
f 260/260/981 263/262/982 249/249/983
f 260/260/984 249/249/985 253/254/986
f 261/261/987 265/264/988 263/262/982
f 248/247/989 263/262/990 264/265/991
f 264/265/992 263/262/990 265/264/993
f 248/247/994 249/249/995 263/262/996
f 264/265/997 265/264/998 266/266/999
f 266/266/1000 265/264/1001 267/267/1002
f 266/266/1003 267/267/1004 268/268/1005
f 268/268/176 267/267/1006 269/269/1007
f 271/270/1008 269/269/1009 270/271/1010
f 268/268/1011 269/269/1012 271/270/1013
f 271/270/1014 270/271/1015 272/272/1016
f 273/273/1017 272/272/1018 270/271/1019
f 273/273/1020 274/274/1021 272/272/1022
f 275/275/1023 274/274/5 273/273/1024
f 275/275/1025 273/273/1026 276/276/1027
f 276/276/1027 277/277/1028 275/275/1029
f 276/276/1030 279/278/1031 277/277/1032
f 278/279/1033 277/277/1034 279/278/1035
f 280/280/1036 281/281/1037 279/278/1038
f 280/280/1039 279/278/1040 276/276/1030
f 278/279/1041 279/278/1042 281/281/1043
f 281/281/1044 233/233/1045 236/236/1046
f 281/281/1047 282/282/1048 233/233/1049
f 280/280/1036 282/282/1050 281/281/1051
f 281/281/1052 283/283/1053 278/279/1054
f 281/281/1055 236/236/1056 283/283/1057
f 236/236/1058 237/237/1059 283/283/1060
f 284/284/1061 233/233/1062 282/282/1063
f 285/285/1064 284/284/1065 282/282/1066
f 285/285/1067 282/282/1068 280/280/1069
f 280/280/1070 286/286/1071 285/285/1072
f 285/285/1073 286/286/1074 288/287/1075
f 285/285/1076 288/287/1075 287/288/1077
f 287/288/1078 284/284/1079 285/285/1080
f 287/288/1081 288/287/1082 289/289/1083
f 287/288/1084 289/289/1085 290/290/1086
f 290/290/1087 289/289/1088 291/291/1089
f 290/290/1090 291/291/1091 292/292/1092
f 290/290/1093 292/292/1092 293/293/1094
f 290/290/1095 293/293/1096 294/294/1097
f 290/290/1098 294/294/1099 220/221/1100
f 220/221/1101 294/294/1102 295/295/1103
f 220/221/1104 295/295/1105 219/220/1106
f 220/221/1107 287/288/1108 290/290/1098
f 220/221/1107 221/222/1109 287/288/1108
f 287/288/1081 221/222/1110 284/284/1111
f 280/280/1112 296/296/1113 286/286/1114
f 300/297/1115 296/296/1116 297/298/1117
f 297/298/1118 296/296/1116 280/280/1119
f 296/296/1120 299/299/1121 298/300/1122
f 300/297/1123 299/299/1124 296/296/1116
f 276/276/1125 273/273/1126 300/297/1127
f 273/273/1017 301/301/1128 300/297/1129
f 276/276/1130 300/297/1131 297/298/1132
f 300/297/1133 302/302/1134 299/299/1135
f 300/297/1136 301/301/1137 302/302/1138
f 303/303/1139 299/299/1140 302/302/1141
f 304/304/1142 305/305/1143 303/303/1144
f 303/303/1145 305/305/1146 299/299/1147
f 307/306/1148 305/305/1146 306/307/1149
f 304/304/1150 306/307/1151 305/305/1152
f 298/300/1153 305/305/1154 307/306/1155
f 298/300/1156 299/299/1157 305/305/1158
f 307/306/1159 306/307/1160 308/308/1161
f 308/308/1162 306/307/1163 309/309/1164
f 309/309/1165 306/307/1166 304/304/1142
f 273/273/1167 310/310/1168 301/301/1169
f 273/273/1020 270/271/1170 310/310/1171
f 280/280/1172 276/276/1173 297/298/1174
f 221/222/835 231/231/1175 284/284/1061
f 284/284/1176 231/231/1177 233/233/1178
f 259/259/1179 311/311/1180 262/263/1181
f 259/259/1182 312/312/1183 311/311/1184
f 259/259/1185 313/313/1186 312/312/1187
f 259/259/968 257/256/1188 313/313/1189
f 221/222/1190 222/223/1191 231/231/1192
f 314/314/1193 315/315/1194 317/316/1195
f 314/314/1196 316/317/1197 315/315/1198
f 319/318/1199 316/317/1200 314/314/1201
f 314/314/1202 317/316/1203 318/319/1204
f 319/318/1205 321/320/1206 316/317/1207
f 320/321/1208 321/320/1209 319/318/1210
f 320/321/1208 322/322/1211 321/320/1212
f 324/323/1213 323/324/1214 322/322/1215
f 324/323/1216 322/322/1217 320/321/1218
f 325/325/1219 323/324/1220 324/323/1221
f 326/326/1222 327/327/1223 325/325/1224
f 325/325/1225 327/327/1226 323/324/1227
f 326/326/1228 328/328/1229 327/327/1230
f 329/329/776 328/328/1231 326/326/777
f 329/329/1232 330/330/1233 328/328/1234
f 331/331/1235 330/330/1236 329/329/1237
f 331/331/1238 332/332/1239 330/330/1240
f 334/333/784 333/334/1241 332/332/1242
f 334/333/1243 332/332/1244 331/331/1245
f 335/335/785 333/334/1246 334/333/1247
f 335/335/1248 336/336/1249 333/334/1250
f 337/337/1251 336/336/1252 335/335/1253
f 337/337/1254 338/338/1255 336/336/1256
f 318/319/1257 317/316/1258 339/339/1259
f 318/319/1257 339/339/1260 340/340/1261
f 340/340/1262 342/341/1263 341/342/1264
f 340/340/1265 339/339/1266 342/341/1267
f 341/342/1268 342/341/1269 343/343/1270
f 341/342/1271 343/343/1272 344/344/1273
f 344/344/1274 343/343/682 345/345/1275
f 344/344/1276 345/345/1277 346/346/1278
f 346/346/1279 345/345/1280 347/347/1281
f 346/346/800 347/347/1282 348/348/1283
f 349/349/1284 350/350/1285 352/351/1286
f 349/349/1287 351/352/1288 350/350/1289
f 353/353/1290 351/352/624 349/349/1291
f 353/353/1292 354/354/1293 351/352/1294
f 355/355/1295 354/354/1296 353/353/1297
f 356/356/1298 357/357/1299 355/355/1300
f 355/355/1301 357/357/1302 354/354/1303
f 356/356/1304 358/358/1305 357/357/1306
f 360/359/1307 358/358/1308 356/356/1304
f 360/359/1309 359/360/1310 358/358/1311
f 361/361/1071 359/360/1312 360/359/1313
f 361/361/1314 362/362/1315 359/360/1316
f 363/363/1317 362/362/605 361/361/1318
f 363/363/1319 364/364/1320 362/362/614
f 352/351/1321 350/350/1322 365/365/1323
f 352/351/1324 365/365/1325 366/366/1326
f 366/366/1105 365/365/1327 367/367/1328
f 366/366/1329 367/367/1330 368/368/1331
f 368/368/1332 370/369/1333 369/370/1334
f 368/368/1335 367/367/1336 370/369/1337
f 369/370/1338 370/369/1339 371/371/1340
f 369/370/1341 371/371/1342 372/372/1343
f 372/372/1344 371/371/1345 373/373/1346
f 374/374/1347 373/373/1348 375/375/1349
f 372/372/1350 373/373/1351 374/374/1352
f 374/374/1353 375/375/1354 376/376/1355
f 376/376/1356 375/375/1357 377/377/1358
f 376/376/1359 377/377/1360 378/378/1361
f 378/378/1362 377/377/1363 379/379/1364
f 378/378/1365 379/379/1364 381/380/1366
f 381/380/1367 379/379/1364 380/381/1368
f 381/380/1369 380/381/1370 382/382/1371
f 382/382/1372 383/383/1373 384/384/1374
f 382/382/1375 380/381/1370 383/383/1376
f 384/384/1377 383/383/1373 385/385/1378
f 384/384/1379 385/385/1380 386/386/1381
f 386/386/1382 385/385/1378 387/387/1383
f 386/386/1384 387/387/1385 388/388/1386
f 388/388/1387 389/389/1388 390/390/1389
f 388/388/1390 387/387/420 389/389/1391
f 390/390/1392 389/389/1393 392/391/1394
f 390/390/1395 392/391/1396 391/392/1397
f 391/392/1398 392/391/1399 393/393/1400
f 391/392/1401 393/393/1402 394/394/1403
f 394/394/1404 393/393/1405 395/395/1406
f 397/396/1407 395/395/1408 396/397/1409
f 394/394/1410 395/395/1411 397/396/1412
f 397/396/1413 396/397/1414 398/398/1415
f 398/398/1416 396/397/1417 400/399/1418
f 398/398/1419 400/399/1420 399/400/1421
f 399/400/1422 400/399/1423 401/401/389
f 402/402/1424 401/401/1425 403/403/1426
f 399/400/1427 401/401/1428 402/402/1429
f 402/402/1430 403/403/379 404/404/1431
f 404/404/1432 403/403/1433 405/405/1434
f 404/404/1435 405/405/1434 406/406/1436
f 406/406/1437 405/405/1438 407/407/1439
f 408/408/1440 407/407/1441 409/409/1442
f 406/406/1436 407/407/1443 408/408/1444
f 408/408/1445 409/409/1446 410/410/1447
f 410/410/1448 409/409/1449 411/411/1450
f 410/410/1451 411/411/1452 412/412/1453
f 412/412/1454 411/411/1455 413/413/1456
f 412/412/993 413/413/1457 414/414/1458
f 414/414/1458 413/413/1459 415/415/1460
f 414/414/1461 415/415/1462 416/416/1463
f 416/416/1464 415/415/1460 417/417/1465
f 419/418/1466 417/417/1467 418/419/1468
f 416/416/1469 417/417/1465 419/418/1470
f 419/418/1471 418/419/1472 420/420/1473
f 420/420/1474 421/421/1475 422/422/1476
f 420/420/1477 418/419/1478 421/421/1479
f 422/422/1480 421/421/1481 423/423/1482
f 422/422/1483 423/423/1484 424/424/1485
f 424/424/1486 426/425/1487 425/426/1488
f 424/424/1489 423/423/1490 426/425/728
f 425/426/1491 426/425/728 427/427/1492
f 425/426/1493 427/427/1494 428/428/1495
f 428/428/1496 427/427/1497 429/429/1498
f 428/428/1142 429/429/1499 430/430/1500
f 431/431/1501 432/432/1502 434/433/1503
f 431/431/1501 433/434/1504 432/432/1505
f 435/435/1506 433/434/1507 431/431/1508
f 435/435/1509 436/436/1510 433/434/1511
f 434/433/1512 432/432/1513 437/437/1514
f 434/433/1515 437/437/1516 438/438/1517
f 438/438/1518 439/439/1164 440/440/1519
f 438/438/1520 437/437/1516 439/439/1521
