# Blender 4.2.3 LTS
# www.blender.org
mtllib pearl.mtl
o dynamic
v -37.433002 -109.588120 71.060089
v -35.849236 -108.972794 71.347496
v -36.385651 -107.820282 72.289581
v -38.146469 -108.423347 72.017448
v -36.817589 -110.519806 69.622452
v -35.263145 -109.924324 69.904694
v -36.278889 -110.947433 68.088783
v -34.810913 -110.340607 68.467903
v -35.857262 -110.940857 66.497993
v -34.371738 -110.322495 66.925453
v -35.570320 -110.561028 65.065323
v -34.053677 -109.930252 65.569511
v -35.410740 -109.879311 63.788502
v -33.858982 -109.217041 64.302200
v -33.883976 -108.289429 63.197304
v -35.389912 -108.915466 62.669670
v -35.492004 -107.601379 61.732647
v -35.788418 -106.000603 61.124065
v -34.262356 -105.345444 61.738697
v -33.982494 -106.910347 62.268925
v -32.635899 -108.250214 65.032295
v -32.828140 -108.937874 66.167259
v -31.761301 -106.896751 65.851830
v -31.988951 -107.721458 66.871429
v -31.421007 -105.757599 66.758461
v -31.608488 -106.439751 67.856873
v -31.442333 -104.519211 67.643951
v -31.673632 -105.312981 68.797661
v -31.765387 -103.329491 68.224411
v -32.018562 -104.242432 69.542946
v -33.146839 -109.347839 67.277351
v -33.598179 -109.479660 68.575699
v -32.406784 -108.316879 67.881325
v -32.129055 -107.227455 68.916573
v -32.254646 -106.222549 69.871666
v -32.628086 -105.179062 70.644821
v -33.992832 -109.027229 70.005592
v -34.459858 -108.185684 71.235611
v -34.991348 -107.115601 72.131775
v -33.312176 -107.286461 70.807007
v -33.671669 -106.202171 71.577446
v -32.827614 -108.591835 68.710144
v -32.970284 -108.056343 69.759300
v -31.825233 -106.103546 64.886986
v -31.485641 -105.024353 65.786339
v -32.107063 -105.403236 64.051544
v -31.762285 -104.357666 64.909111
v -32.848305 -106.244499 63.129471
v -33.218952 -104.857979 62.552769
v -32.544193 -104.611870 63.359669
v -32.654560 -107.363052 63.994328
v -32.464485 -103.722282 63.708759
v -32.547653 -102.585983 64.301270
v -31.818661 -103.203453 65.589516
v -31.506111 -103.842278 66.622421
v -31.832613 -102.745598 67.216713
v -32.060116 -102.304527 66.328728
v -32.880775 -101.701187 64.748596
v -36.817589 -110.519806 69.622452
v -38.484318 -110.609917 69.338989
v -37.818111 -111.127510 67.704628
v -36.278889 -110.947433 68.088783
v -39.665310 -110.473404 68.822983
v -39.165524 -110.937881 67.406693
v -40.860317 -110.101799 67.865982
v -40.188454 -110.565193 67.084908
v -41.271217 -109.883057 66.593262
v -40.251453 -110.469254 66.066162
v -41.414936 -109.473358 65.261101
v -40.226299 -110.146561 64.866676
v -41.319771 -108.804962 63.932041
v -40.093140 -109.529228 63.635700
v -37.492809 -111.135918 66.162781
v -35.857262 -110.940857 66.497993
v -38.997059 -110.937256 66.062820
v -37.206184 -110.773132 64.743393
v -35.570320 -110.561028 65.065323
v -38.814556 -110.607941 64.689713
v -37.031185 -110.108543 63.498753
v -35.410740 -109.879311 63.788502
v -36.972973 -109.156723 62.409695
v -35.389912 -108.915466 62.669670
v -37.092808 -107.900299 61.519524
v -35.492004 -107.601379 61.732647
v -37.462807 -106.451187 60.963055
v -35.788418 -106.000603 61.124065
v -38.584854 -109.983940 63.451244
v -38.473751 -109.041374 62.376316
v -38.522812 -107.806000 61.547695
v -38.593521 -106.464630 61.064705
v -39.891735 -108.587585 62.526096
v -39.705067 -107.478371 61.745960
v -39.421581 -106.451424 61.275681
v -40.721119 -106.814499 62.015537
v -40.038357 -105.760277 61.390537
v -41.066036 -107.853912 62.796520
v -41.556023 -109.331810 68.639557
v -41.950382 -108.487091 69.393555
v -42.819923 -107.958748 67.901619
v -42.220367 -108.964722 67.263298
v -37.433002 -109.588120 71.060089
v -38.840530 -109.719528 70.683479
v -40.214928 -109.664558 69.935471
v -40.531216 -108.726357 70.804718
v -39.275597 -108.648323 71.577209
v -38.146469 -108.423347 72.017448
v -43.189423 -107.339256 66.618622
v -42.513283 -108.444626 65.903572
v -42.536591 -107.714996 64.642029
v -42.264450 -106.887642 63.521915
v -41.761269 -105.857994 62.586403
v -40.853603 -104.878304 61.795441
v -42.319321 -104.838791 63.133915
v -41.341278 -103.896683 62.287380
v -42.978191 -105.812408 64.261169
v -43.228237 -106.565681 65.319595
v -36.945492 -106.461441 72.875793
v -38.584560 -106.950111 72.665466
v -37.525867 -104.740967 73.059082
v -39.129913 -105.222809 72.845985
v -37.905983 -103.250542 72.782578
v -39.483955 -103.605309 72.556885
v -38.088909 -101.807274 72.107422
v -39.703102 -102.130936 71.859344
v -38.090672 -100.682434 71.197334
v -39.761433 -100.960152 70.907982
v -37.975979 -99.785988 70.041550
v -39.694115 -100.067085 69.759796
v -39.520100 -99.454132 68.427406
v -37.852112 -99.199341 68.729118
v -37.471199 -98.918503 67.132423
v -36.987919 -99.101822 65.538307
v -38.717030 -99.291817 65.206757
v -39.181198 -99.150269 66.875641
v -36.405834 -100.742203 71.154808
v -36.262218 -99.943115 70.087624
v -34.851475 -101.164070 70.861977
v -34.565178 -100.473701 69.760612
v -33.511578 -102.080223 70.509888
v -33.362221 -101.310760 69.464622
v -32.610321 -103.167213 70.103500
v -32.384228 -102.361519 68.957024
v -36.498150 -101.670723 71.949310
v -36.471092 -102.898491 72.580727
v -35.156555 -102.017761 71.714684
v -33.984882 -102.976089 71.503754
v -33.192646 -104.073769 71.179337
v -36.029606 -104.361443 72.844963
v -35.493202 -105.818512 72.676155
v -34.268673 -105.095329 72.140427
v -35.346321 -102.822060 72.221367
v -34.797512 -103.870567 72.306572
v -33.331833 -100.795158 68.360039
v -34.498264 -99.980263 68.613342
v -33.466614 -100.453423 67.285057
v -34.603954 -99.683472 67.532341
v -34.727184 -99.611107 66.402916
v -35.649517 -99.290100 65.941162
v -35.948586 -99.142410 67.451485
v -36.133427 -99.393768 68.844078
v -34.050549 -100.088989 65.919861
v -32.632030 -101.340202 66.723396
v -33.276157 -100.917152 65.316856
v -32.401527 -101.791084 67.870720
v -39.483955 -103.605309 72.556885
v -40.878838 -104.116074 71.971481
v -40.536560 -105.908684 72.199928
v -39.129913 -105.222809 72.845985
v -41.892628 -104.690742 71.208420
v -41.528492 -106.205292 71.420357
v -42.566879 -105.116837 70.400543
v -42.549599 -106.232033 70.220963
v -42.907570 -104.384689 69.768974
v -43.171043 -105.530991 69.241753
v -43.116352 -103.526108 68.895592
v -43.503963 -104.687874 68.173340
v -43.089409 -102.665459 67.812721
v -43.510574 -103.786346 66.986153
v -39.703102 -102.130936 71.859344
v -41.162514 -102.729485 71.278572
v -42.222370 -103.548805 70.559113
v -39.761433 -100.960152 70.907982
v -41.226089 -101.564445 70.347374
v -42.367630 -102.468704 69.642914
v -39.694115 -100.067085 69.759796
v -41.145744 -100.683022 69.234726
v -39.520100 -99.454132 68.427406
v -40.940075 -100.069023 67.940086
v -39.181198 -99.150269 66.875641
v -40.630894 -99.795380 66.451828
v -38.717030 -99.291817 65.206757
v -40.289425 -99.976097 64.903542
v -42.266533 -101.550041 68.583725
v -42.021233 -100.914894 67.321754
v -41.649372 -100.643715 65.906342
v -41.116962 -100.684013 64.582535
v -42.788204 -101.952431 66.563934
v -42.292236 -101.551773 65.352638
v -41.663616 -101.315399 64.401245
v -41.704140 -101.944382 63.712746
v -42.597103 -102.517052 64.630768
v -43.173355 -103.026543 65.734253
v -43.146706 -106.842705 68.554680
v -42.381451 -107.440987 69.790237
v -39.850109 -107.406769 72.090919
v -38.584560 -106.950111 72.665466
v -41.112801 -107.607735 71.187172
v -43.540043 -106.092590 67.334930
v -43.578960 -105.327171 66.095139
v -43.291759 -104.534309 64.954063
v -42.653988 -103.813042 63.830868
v -41.689167 -102.964195 62.960278
vn 0.0374 -0.7418 0.6696
vn 0.2641 -0.6578 0.7054
vn 0.1614 -0.4631 0.8715
vn 0.0373 -0.7417 0.6697
vn 0.1614 -0.4630 0.8715
vn -0.0563 -0.5306 0.8458
vn 0.0375 -0.7419 0.6695
vn 0.1081 -0.8867 0.4496
vn 0.3467 -0.7938 0.4996
vn 0.0374 -0.7419 0.6694
vn 0.3466 -0.7938 0.4998
vn 0.2639 -0.6581 0.7052
vn 0.1081 -0.8868 0.4493
vn 0.1971 -0.9617 0.1905
vn 0.4347 -0.8666 0.2451
vn 0.1081 -0.8868 0.4494
vn 0.4346 -0.8666 0.2451
vn 0.3467 -0.7940 0.4994
vn 0.1971 -0.9617 0.1903
vn 0.2672 -0.9617 -0.0606
vn 0.5061 -0.8625 0.0032
vn 0.4347 -0.8667 0.2448
vn 0.2674 -0.9616 -0.0611
vn 0.3193 -0.8987 -0.3007
vn 0.5617 -0.7948 -0.2298
vn 0.2673 -0.9617 -0.0609
vn 0.5617 -0.7948 -0.2297
vn 0.5062 -0.8624 0.0029
vn 0.3194 -0.8985 -0.3011
vn 0.3502 -0.7841 -0.5124
vn 0.5911 -0.6809 -0.4325
vn 0.5616 -0.7947 -0.2302
vn 0.5907 -0.5187 -0.6181
vn 0.5910 -0.6807 -0.4329
vn 0.3502 -0.7839 -0.5127
vn 0.5906 -0.5188 -0.6181
vn 0.3501 -0.7840 -0.5126
vn 0.3560 -0.6187 -0.7004
vn 0.3406 -0.4014 -0.8502
vn 0.3184 -0.2773 -0.9065
vn 0.5298 -0.1858 -0.8275
vn 0.3405 -0.4014 -0.8503
vn 0.5296 -0.1857 -0.8277
vn 0.5570 -0.3116 -0.7698
vn 0.5619 -0.7946 -0.2299
vn 0.5913 -0.6806 -0.4326
vn 0.7984 -0.5132 -0.3149
vn 0.5620 -0.7946 -0.2298
vn 0.7984 -0.5133 -0.3148
vn 0.7648 -0.6294 -0.1376
vn 0.7649 -0.6293 -0.1374
vn 0.7986 -0.5130 -0.3148
vn 0.9257 -0.3275 -0.1892
vn 0.7650 -0.6292 -0.1375
vn 0.9257 -0.3276 -0.1893
vn 0.9007 -0.4343 -0.0078
vn 0.3560 -0.6184 -0.7006
vn 0.3406 -0.4016 -0.8501
vn 0.5574 -0.3119 -0.7694
vn 0.5574 -0.3120 -0.7694
vn 0.5906 -0.5186 -0.6183
vn 0.9258 -0.3273 -0.1891
vn 0.9924 -0.1213 -0.0181
vn 0.9582 -0.2439 0.1498
vn 0.9258 -0.3273 -0.1892
vn 0.9582 -0.2438 0.1499
vn 0.9009 -0.4339 -0.0077
vn 0.9925 -0.1210 -0.0179
vn 0.9894 0.0719 0.1263
vn 0.9504 -0.0508 0.3068
vn 0.9925 -0.1209 -0.0180
vn 0.9504 -0.0508 0.3069
vn 0.9582 -0.2436 0.1500
vn 0.9894 0.0721 0.1263
vn 0.9365 0.2552 0.2405
vn 0.8957 0.1348 0.4238
vn 0.9893 0.0722 0.1264
vn 0.8957 0.1347 0.4238
vn 0.9504 -0.0505 0.3070
vn 0.5064 -0.8623 0.0030
vn 0.7648 -0.6295 -0.1373
vn 0.6964 -0.7157 0.0532
vn 0.5063 -0.8623 0.0032
vn 0.6965 -0.7156 0.0535
vn 0.6148 -0.7383 0.2775
vn 0.5063 -0.8624 0.0032
vn 0.4348 -0.8666 0.2450
vn 0.7650 -0.6292 -0.1373
vn 0.9007 -0.4343 -0.0077
vn 0.8413 -0.5174 0.1563
vn 0.8412 -0.5175 0.1565
vn 0.6966 -0.7155 0.0533
vn 0.9008 -0.4342 -0.0074
vn 0.9581 -0.2439 0.1501
vn 0.8743 -0.3582 0.3276
vn 0.9009 -0.4340 -0.0076
vn 0.8743 -0.3583 0.3276
vn 0.8414 -0.5172 0.1566
vn 0.9582 -0.2437 0.1501
vn 0.9503 -0.0509 0.3070
vn 0.8479 -0.2010 0.4905
vn 0.8479 -0.2011 0.4905
vn 0.8743 -0.3579 0.3278
vn 0.9503 -0.0506 0.3072
vn 0.8956 0.1346 0.4241
vn 0.7888 -0.0281 0.6141
vn 0.7886 -0.0281 0.6143
vn 0.8479 -0.2008 0.4906
vn 0.4348 -0.8665 0.2451
vn 0.6147 -0.7382 0.2778
vn 0.5595 -0.6595 0.5020
vn 0.4347 -0.8665 0.2452
vn 0.3471 -0.7938 0.4994
vn 0.3469 -0.7937 0.4997
vn 0.5595 -0.6593 0.5023
vn 0.4911 -0.5239 0.6960
vn 0.4910 -0.5241 0.6959
vn 0.2643 -0.6579 0.7052
vn 0.2643 -0.6578 0.7053
vn 0.4911 -0.5236 0.6962
vn 0.4157 -0.3337 0.8460
vn 0.2642 -0.6577 0.7054
vn 0.4157 -0.3336 0.8461
vn 0.1615 -0.4629 0.8716
vn 0.4914 -0.5235 0.6960
vn 0.6940 -0.3500 0.6292
vn 0.6291 -0.1888 0.7540
vn 0.4912 -0.5235 0.6962
vn 0.6292 -0.1888 0.7540
vn 0.4159 -0.3336 0.8460
vn 0.6943 -0.3498 0.6290
vn 0.8476 -0.2010 0.4910
vn 0.7885 -0.0283 0.6144
vn 0.6943 -0.3497 0.6290
vn 0.7884 -0.0282 0.6145
vn 0.6295 -0.1886 0.7538
vn 0.6966 -0.7155 0.0535
vn 0.8412 -0.5176 0.1566
vn 0.7508 -0.5895 0.2982
vn 0.7508 -0.5894 0.2982
vn 0.6151 -0.7380 0.2775
vn 0.6148 -0.7381 0.2778
vn 0.7507 -0.5894 0.2984
vn 0.7376 -0.4869 0.4678
vn 0.6149 -0.7380 0.2779
vn 0.7376 -0.4871 0.4677
vn 0.5597 -0.6594 0.5019
vn 0.5598 -0.6591 0.5022
vn 0.7376 -0.4868 0.4680
vn 0.6940 -0.3502 0.6290
vn 0.6940 -0.3503 0.6290
vn 0.4914 -0.5238 0.6958
vn 0.6942 -0.3501 0.6289
vn 0.7378 -0.4867 0.4678
vn 0.8742 -0.3580 0.3280
vn 0.8741 -0.3582 0.3281
vn 0.8478 -0.2013 0.4907
vn 0.8742 -0.3582 0.3279
vn 0.7378 -0.4868 0.4677
vn 0.7508 -0.5893 0.2984
vn 0.8742 -0.3583 0.3277
vn 0.7509 -0.5893 0.2982
vn 0.8413 -0.5174 0.1568
vn 0.9259 -0.3271 -0.1892
vn 0.9153 -0.2035 -0.3475
vn 0.9834 0.0007 -0.1814
vn 0.9925 -0.1210 -0.0184
vn 0.9153 -0.2034 -0.3477
vn 0.8751 -0.0672 -0.4792
vn 0.9281 0.1281 -0.3495
vn 0.9154 -0.2034 -0.3475
vn 0.9282 0.1280 -0.3494
vn 0.9834 0.0007 -0.1816
vn 0.8749 -0.0673 -0.4795
vn 0.7434 -0.2008 -0.6380
vn 0.6984 -0.1158 -0.7063
vn 0.8749 -0.0674 -0.4796
vn 0.6984 -0.1159 -0.7063
vn 0.8448 0.0043 -0.5350
vn 0.5914 -0.6805 -0.4327
vn 0.5909 -0.5186 -0.6180
vn 0.7872 -0.3761 -0.4887
vn 0.5913 -0.6805 -0.4327
vn 0.7872 -0.3760 -0.4888
vn 0.7983 -0.5132 -0.3151
vn 0.5909 -0.5184 -0.6181
vn 0.5576 -0.3118 -0.7693
vn 0.7434 -0.2012 -0.6379
vn 0.7434 -0.2011 -0.6379
vn 0.7873 -0.3757 -0.4889
vn 0.5574 -0.3116 -0.7696
vn 0.5299 -0.1856 -0.8275
vn 0.6982 -0.1159 -0.7065
vn 0.5575 -0.3115 -0.7695
vn 0.7433 -0.2007 -0.6381
vn 0.8750 -0.0672 -0.4794
vn 0.8450 0.0046 -0.5347
vn 0.8882 0.1856 -0.4204
vn 0.8750 -0.0671 -0.4794
vn 0.8881 0.1857 -0.4204
vn 0.9281 0.1283 -0.3496
vn 0.7986 -0.5129 -0.3148
vn 0.7874 -0.3757 -0.4887
vn 0.9153 -0.2036 -0.3476
vn 0.7985 -0.5130 -0.3149
vn 0.9152 -0.2039 -0.3476
vn 0.9257 -0.3274 -0.1893
vn 0.7874 -0.3756 -0.4889
vn 0.7435 -0.2009 -0.6378
vn 0.8750 -0.0675 -0.4794
vn 0.7874 -0.3756 -0.4888
vn 0.9152 -0.2036 -0.3478
vn 0.8882 0.1859 -0.4202
vn 0.8761 0.3541 -0.3274
vn 0.9205 0.3005 -0.2497
vn 0.8882 0.1858 -0.4202
vn 0.9205 0.3007 -0.2497
vn 0.9282 0.1282 -0.3493
vn 0.9206 0.3004 -0.2494
vn 0.9809 0.1849 -0.0603
vn 0.9834 0.0010 -0.1814
vn 0.9834 0.0010 -0.1812
vn 0.9809 0.1848 -0.0601
vn 0.9894 0.0721 0.1261
vn 0.9834 0.0009 -0.1813
vn 0.9894 0.0721 0.1260
vn 0.9925 -0.1208 -0.0183
vn 0.9894 0.0723 0.1261
vn 0.9809 0.1850 -0.0598
vn 0.9297 0.3642 0.0549
vn 0.9296 0.3644 0.0549
vn 0.9366 0.2552 0.2402
vn 0.9809 0.1851 -0.0601
vn 0.9205 0.3008 -0.2495
vn 0.8660 0.4748 -0.1569
vn 0.8660 0.4749 -0.1569
vn 0.9296 0.3644 0.0546
vn 0.8761 0.3541 -0.3273
vn 0.8315 0.5013 -0.2394
vn 0.8658 0.4750 -0.1571
vn 0.1079 -0.8868 0.4493
vn -0.1204 -0.9097 0.3975
vn -0.0374 -0.9886 0.1459
vn 0.1080 -0.8868 0.4493
vn -0.0373 -0.9886 0.1459
vn 0.1969 -0.9617 0.1905
vn -0.1206 -0.9096 0.3976
vn -0.3687 -0.8788 0.3030
vn -0.2562 -0.9611 0.1028
vn -0.1207 -0.9096 0.3975
vn -0.2562 -0.9612 0.1027
vn -0.0375 -0.9886 0.1459
vn -0.3688 -0.8787 0.3030
vn -0.5409 -0.8226 0.1755
vn -0.4291 -0.9020 0.0470
vn -0.3687 -0.8787 0.3031
vn -0.4291 -0.9020 0.0471
vn -0.2565 -0.9611 0.1026
vn -0.5411 -0.8225 0.1753
vn -0.6303 -0.7738 -0.0632
vn -0.4447 -0.8827 -0.1519
vn -0.5411 -0.8225 0.1752
vn -0.4449 -0.8826 -0.1521
vn -0.4294 -0.9019 0.0467
vn -0.6304 -0.7737 -0.0633
vn -0.6515 -0.7056 -0.2786
vn -0.4363 -0.8290 -0.3498
vn -0.6305 -0.7736 -0.0635
vn -0.4362 -0.8291 -0.3498
vn -0.4449 -0.8825 -0.1522
vn -0.6515 -0.7055 -0.2789
vn -0.6434 -0.5951 -0.4816
vn -0.4131 -0.7272 -0.5482
vn -0.6516 -0.7055 -0.2788
vn -0.4132 -0.7272 -0.5481
vn -0.4363 -0.8290 -0.3499
vn 0.1969 -0.9618 0.1902
vn -0.0373 -0.9886 0.1457
vn 0.0179 -0.9934 -0.1129
vn 0.2669 -0.9618 -0.0606
vn -0.0374 -0.9886 0.1457
vn -0.2561 -0.9612 0.1022
vn -0.2157 -0.9659 -0.1434
vn -0.2155 -0.9659 -0.1435
vn 0.0175 -0.9935 -0.1128
vn -0.2564 -0.9611 0.1023
vn -0.4290 -0.9021 0.0467
vn -0.4447 -0.8827 -0.1521
vn -0.2563 -0.9612 0.1022
vn -0.4446 -0.8827 -0.1521
vn -0.2159 -0.9658 -0.1436
vn 0.2668 -0.9618 -0.0609
vn 0.0179 -0.9934 -0.1132
vn 0.0535 -0.9352 -0.3502
vn 0.2670 -0.9618 -0.0611
vn 0.0535 -0.9351 -0.3503
vn 0.3190 -0.8988 -0.3008
vn 0.0176 -0.9934 -0.1131
vn -0.2157 -0.9658 -0.1437
vn -0.2002 -0.9098 -0.3635
vn 0.0177 -0.9934 -0.1131
vn 0.0533 -0.9351 -0.3503
vn -0.2160 -0.9657 -0.1437
vn -0.4445 -0.8827 -0.1523
vn -0.4361 -0.8292 -0.3497
vn -0.2159 -0.9658 -0.1438
vn -0.4360 -0.8292 -0.3498
vn -0.2004 -0.9098 -0.3635
vn 0.3190 -0.8987 -0.3010
vn 0.0536 -0.9350 -0.3506
vn 0.0839 -0.8236 -0.5610
vn 0.3191 -0.8986 -0.3010
vn 0.0840 -0.8235 -0.5611
vn 0.3499 -0.7842 -0.5124
vn 0.3499 -0.7840 -0.5127
vn 0.0839 -0.8233 -0.5614
vn 0.0981 -0.6614 -0.7436
vn 0.0982 -0.6614 -0.7436
vn 0.3558 -0.6188 -0.7004
vn 0.3556 -0.6186 -0.7006
vn 0.0981 -0.6611 -0.7439
vn 0.0894 -0.4566 -0.8852
vn 0.3556 -0.6186 -0.7007
vn 0.0895 -0.4567 -0.8851
vn 0.3403 -0.4020 -0.8501
vn 0.3402 -0.4015 -0.8503
vn 0.0894 -0.4564 -0.8853
vn 0.0807 -0.3416 -0.9364
vn 0.3403 -0.4014 -0.8503
vn 0.3182 -0.2775 -0.9065
vn 0.0531 -0.9350 -0.3505
vn -0.2003 -0.9097 -0.3637
vn -0.1795 -0.8001 -0.5724
vn 0.0534 -0.9350 -0.3505
vn 0.0837 -0.8235 -0.5611
vn 0.0837 -0.8234 -0.5613
vn -0.1795 -0.8000 -0.5726
vn -0.1596 -0.6476 -0.7451
vn 0.0977 -0.6615 -0.7436
vn 0.0977 -0.6611 -0.7439
vn -0.1596 -0.6473 -0.7453
vn -0.1539 -0.4662 -0.8712
vn 0.0977 -0.6612 -0.7438
vn -0.1541 -0.4663 -0.8711
vn 0.0892 -0.4568 -0.8851
vn 0.0890 -0.4565 -0.8853
vn -0.1541 -0.4659 -0.8713
vn -0.1554 -0.3513 -0.9233
vn 0.0892 -0.4564 -0.8853
vn 0.0804 -0.3419 -0.9363
vn -0.4360 -0.8291 -0.3500
vn -0.4129 -0.7273 -0.5482
vn -0.1797 -0.8001 -0.5723
vn -0.4361 -0.8291 -0.3500
vn -0.1799 -0.8001 -0.5723
vn -0.2006 -0.9096 -0.3638
vn -0.4129 -0.7270 -0.5486
vn -0.3875 -0.5838 -0.7135
vn -0.1599 -0.6475 -0.7451
vn -0.4129 -0.7271 -0.5485
vn -0.1598 -0.6475 -0.7451
vn -0.1799 -0.7999 -0.5725
vn -0.3875 -0.5836 -0.7136
vn -0.3640 -0.4138 -0.8344
vn -0.1598 -0.6474 -0.7452
vn -0.3641 -0.4137 -0.8344
vn -0.1543 -0.4661 -0.8712
vn -0.1543 -0.4659 -0.8713
vn -0.3642 -0.4132 -0.8346
vn -0.3405 -0.3097 -0.8878
vn -0.1543 -0.4658 -0.8713
vn -0.3404 -0.3097 -0.8878
vn -0.1556 -0.3512 -0.9233
vn -0.3408 -0.3095 -0.8877
vn -0.3643 -0.4134 -0.8345
vn -0.5501 -0.2719 -0.7896
vn -0.3407 -0.3095 -0.8878
vn -0.5157 -0.1721 -0.8393
vn -0.3644 -0.4136 -0.8344
vn -0.3879 -0.5835 -0.7135
vn -0.6096 -0.4490 -0.6533
vn -0.3644 -0.4135 -0.8344
vn -0.6096 -0.4489 -0.6534
vn -0.5502 -0.2720 -0.7895
vn -0.3880 -0.5837 -0.7133
vn -0.4132 -0.7270 -0.5484
vn -0.6434 -0.5950 -0.4817
vn -0.3879 -0.5836 -0.7134
vn -0.6096 -0.4492 -0.6532
vn -0.6444 -0.7054 0.2952
vn -0.7140 -0.5709 0.4053
vn -0.8574 -0.4856 0.1707
vn -0.6444 -0.7055 0.2951
vn -0.8572 -0.4858 0.1707
vn -0.7612 -0.6468 0.0476
vn -0.7612 -0.6468 0.0475
vn -0.6305 -0.7736 -0.0630
vn -0.5412 -0.8224 0.1755
vn -0.6443 -0.7056 0.2950
vn 0.0372 -0.7419 0.6695
vn -0.2081 -0.7729 0.5994
vn -0.1204 -0.9095 0.3979
vn 0.0372 -0.7420 0.6693
vn 0.1078 -0.8867 0.4496
vn -0.1206 -0.9096 0.3977
vn -0.2086 -0.7728 0.5994
vn -0.4604 -0.7505 0.4741
vn -0.1207 -0.9095 0.3978
vn -0.4604 -0.7506 0.4740
vn -0.3686 -0.8787 0.3034
vn -0.3689 -0.8786 0.3032
vn -0.4608 -0.7504 0.4739
vn -0.6440 -0.7057 0.2953
vn -0.3687 -0.8787 0.3032
vn -0.6441 -0.7057 0.2952
vn -0.5410 -0.8225 0.1758
vn -0.6441 -0.7056 0.2955
vn -0.4609 -0.7503 0.4740
vn -0.5259 -0.6041 0.5987
vn -0.5260 -0.6042 0.5985
vn -0.7138 -0.5709 0.4056
vn -0.4604 -0.7504 0.4742
vn -0.2086 -0.7727 0.5995
vn -0.3020 -0.5881 0.7503
vn -0.4604 -0.7504 0.4743
vn -0.3019 -0.5881 0.7503
vn -0.5258 -0.6041 0.5988
vn -0.2083 -0.7727 0.5997
vn 0.0372 -0.7418 0.6696
vn -0.0565 -0.5306 0.8457
vn -0.2084 -0.7727 0.5996
vn -0.0566 -0.5305 0.8458
vn -0.8575 -0.4855 0.1702
vn -0.9257 -0.3738 -0.0581
vn -0.8076 -0.5621 -0.1782
vn -0.8575 -0.4854 0.1704
vn -0.8076 -0.5622 -0.1781
vn -0.7614 -0.6466 0.0474
vn -0.7613 -0.6467 0.0472
vn -0.8074 -0.5623 -0.1785
vn -0.6517 -0.7055 -0.2783
vn -0.6518 -0.7054 -0.2785
vn -0.6306 -0.7735 -0.0633
vn -0.6520 -0.7052 -0.2787
vn -0.8075 -0.5622 -0.1787
vn -0.8050 -0.4548 -0.3809
vn -0.6518 -0.7053 -0.2788
vn -0.6437 -0.5950 -0.4813
vn -0.6436 -0.5949 -0.4816
vn -0.8049 -0.4547 -0.3812
vn -0.7650 -0.3049 -0.5673
vn -0.6436 -0.5947 -0.4817
vn -0.7648 -0.3051 -0.5674
vn -0.6099 -0.4489 -0.6531
vn -0.6098 -0.4488 -0.6532
vn -0.7648 -0.3047 -0.5677
vn -0.6827 -0.1403 -0.7171
vn -0.6097 -0.4489 -0.6533
vn -0.6827 -0.1402 -0.7171
vn -0.5505 -0.2719 -0.7893
vn -0.5503 -0.2717 -0.7895
vn -0.6825 -0.1400 -0.7174
vn -0.6199 -0.0524 -0.7829
vn -0.5502 -0.2717 -0.7896
vn -0.6199 -0.0522 -0.7829
vn -0.5160 -0.1719 -0.8391
vn -0.6201 -0.0521 -0.7828
vn -0.6826 -0.1401 -0.7172
vn -0.7886 0.0357 -0.6139
vn -0.7123 0.1153 -0.6923
vn -0.7651 -0.3047 -0.5673
vn -0.8850 -0.1124 -0.4518
vn -0.8850 -0.1124 -0.4519
vn -0.7887 0.0356 -0.6138
vn -0.7651 -0.3049 -0.5671
vn -0.8052 -0.4546 -0.3808
vn -0.9337 -0.2542 -0.2523
vn -0.8851 -0.1126 -0.4516
vn -0.8077 -0.5620 -0.1784
vn -0.9257 -0.3736 -0.0583
vn -0.9257 -0.3736 -0.0584
vn -0.9337 -0.2543 -0.2522
vn -0.0563 -0.5303 0.8459
vn 0.1613 -0.4627 0.8717
vn 0.0729 -0.2216 0.9724
vn -0.0564 -0.5303 0.8459
vn 0.0728 -0.2214 0.9725
vn -0.1576 -0.2923 0.9432
vn 0.0730 -0.2211 0.9725
vn -0.0056 0.0265 0.9996
vn -0.2531 -0.0397 0.9666
vn 0.0727 -0.2212 0.9725
vn -0.1576 -0.2919 0.9434
vn -0.0057 0.0268 0.9996
vn -0.0800 0.2932 0.9527
vn -0.3189 0.2277 0.9200
vn -0.0056 0.0267 0.9996
vn -0.3188 0.2276 0.9201
vn -0.2531 -0.0394 0.9666
vn -0.0800 0.2936 0.9526
vn -0.1067 0.5177 0.8489
vn -0.3573 0.4672 0.8087
vn -0.0801 0.2935 0.9526
vn -0.3573 0.4672 0.8088
vn -0.3189 0.2279 0.9200
vn -0.1066 0.5179 0.8488
vn -0.1025 0.7138 0.6928
vn -0.3640 0.6654 0.6517
vn -0.1067 0.5179 0.8487
vn -0.3642 0.6651 0.6519
vn -0.3573 0.4674 0.8086
vn -0.1025 0.7140 0.6926
vn -0.0817 0.8570 0.5088
vn -0.3493 0.8157 0.4611
vn -0.1026 0.7139 0.6927
vn -0.3493 0.8156 0.4612
vn -0.3642 0.6654 0.6517
vn -0.3182 0.9192 0.2319
vn -0.3492 0.8159 0.4609
vn -0.0816 0.8571 0.5087
vn -0.0527 0.9589 0.2789
vn -0.0045 0.9994 0.0341
vn 0.0253 0.9949 -0.0977
vn -0.2313 0.9616 -0.1479
vn -0.0048 0.9994 0.0340
vn -0.2672 0.9633 -0.0244
vn 0.1703 0.7122 0.6810
vn 0.2016 0.8351 0.5118
vn -0.0812 0.8570 0.5089
vn -0.0813 0.8569 0.5090
vn -0.1021 0.7140 0.6926
vn 0.4377 0.6363 0.6353
vn 0.4602 0.7491 0.4765
vn 0.2020 0.8351 0.5117
vn 0.4377 0.6364 0.6352
vn 0.2018 0.8351 0.5117
vn 0.1706 0.7121 0.6810
vn -0.0525 0.9589 0.2787
vn -0.0047 0.9994 0.0343
vn -0.2673 0.9633 -0.0242
vn -0.0526 0.9589 0.2788
vn -0.2674 0.9633 -0.0241
vn -0.3182 0.9193 0.2315
vn 0.4379 0.6362 0.6352
vn 0.6431 0.4860 0.5918
vn 0.6784 0.6042 0.4179
vn 0.6784 0.6043 0.4178
vn 0.4604 0.7490 0.4765
vn 0.6433 0.4856 0.5919
vn 0.7936 0.3137 0.5213
vn 0.8278 0.4426 0.3448
vn 0.6433 0.4857 0.5918
vn 0.8278 0.4426 0.3447
vn 0.6788 0.6040 0.4177
vn 0.7939 0.3134 0.5210
vn 0.8956 0.1350 0.4240
vn 0.9364 0.2553 0.2406
vn 0.7939 0.3133 0.5212
vn 0.9365 0.2552 0.2406
vn 0.8279 0.4425 0.3446
vn 0.1455 0.5405 0.8287
vn -0.1023 0.7138 0.6928
vn 0.1455 0.5403 0.8288
vn -0.1023 0.7137 0.6929
vn -0.1063 0.5179 0.8488
vn -0.0798 0.2935 0.9526
vn 0.1534 0.3338 0.9301
vn 0.1453 0.5403 0.8288
vn 0.1454 0.5402 0.8289
vn -0.1063 0.5177 0.8489
vn 0.1458 0.5404 0.8287
vn 0.3983 0.5059 0.7651
vn 0.4376 0.6362 0.6354
vn 0.4377 0.6361 0.6355
vn 0.1704 0.7121 0.6811
vn 0.3986 0.5058 0.7650
vn 0.5759 0.3475 0.7400
vn 0.6429 0.4858 0.5922
vn 0.3987 0.5058 0.7650
vn 0.6429 0.4858 0.5921
vn 0.4379 0.6359 0.6355
vn 0.5761 0.3473 0.7400
vn 0.6955 0.1544 0.7018
vn 0.7936 0.3134 0.5215
vn 0.5762 0.3472 0.7399
vn 0.7936 0.3135 0.5215
vn 0.6433 0.4855 0.5920
vn 0.6955 0.1543 0.7018
vn 0.7885 -0.0278 0.6144
vn 0.8955 0.1348 0.4241
vn 0.6956 0.1543 0.7017
vn 0.8955 0.1349 0.4242
vn 0.7937 0.3132 0.5215
vn -0.0054 0.0268 0.9996
vn 0.2299 0.0989 0.9682
vn 0.1533 0.3335 0.9302
vn -0.0054 0.0269 0.9996
vn 0.1532 0.3334 0.9303
vn -0.0797 0.2932 0.9527
vn 0.0731 -0.2211 0.9725
vn 0.3213 -0.1271 0.9384
vn 0.2299 0.0987 0.9682
vn -0.0052 0.0266 0.9996
vn 0.1616 -0.4625 0.8718
vn 0.4155 -0.3333 0.8463
vn 0.3214 -0.1275 0.9383
vn 0.1614 -0.4627 0.8717
vn 0.3215 -0.1276 0.9383
vn 0.0733 -0.2214 0.9724
vn 0.4159 -0.3332 0.8462
vn 0.6291 -0.1885 0.7542
vn 0.5434 0.0038 0.8395
vn 0.5433 0.0038 0.8395
vn 0.3216 -0.1274 0.9383
vn 0.6293 -0.1884 0.7540
vn 0.7884 -0.0279 0.6146
vn 0.6954 0.1540 0.7019
vn 0.6293 -0.1883 0.7540
vn 0.5437 0.0039 0.8393
vn 0.1535 0.3338 0.9301
vn 0.3438 0.3404 0.8752
vn 0.3983 0.5058 0.7652
vn 0.3984 0.5057 0.7652
vn 0.1457 0.5401 0.8289
vn 0.4474 0.1839 0.8752
vn 0.3439 0.3402 0.8752
vn 0.2300 0.0989 0.9681
vn 0.3438 0.3401 0.8753
vn 0.1535 0.3336 0.9301
vn 0.3216 -0.1271 0.9383
vn 0.5433 0.0040 0.8395
vn 0.4475 0.1837 0.8752
vn 0.3216 -0.1270 0.9383
vn 0.4476 0.1837 0.8752
vn 0.2301 0.0987 0.9681
vn 0.6953 0.1543 0.7020
vn 0.5759 0.3471 0.7402
vn 0.4477 0.1839 0.8751
vn 0.6953 0.1543 0.7019
vn 0.4478 0.1837 0.8751
vn 0.5436 0.0043 0.8394
vn 0.3987 0.5057 0.7650
vn 0.3442 0.3403 0.8750
vn 0.4476 0.1841 0.8751
vn 0.3986 0.5057 0.7651
vn 0.4476 0.1840 0.8751
vn 0.5758 0.3474 0.7401
vn 0.6785 0.6044 0.4175
vn 0.6821 0.6917 0.2373
vn 0.4703 0.8311 0.2968
vn 0.6786 0.6042 0.4176
vn 0.4703 0.8310 0.2969
vn 0.4606 0.7490 0.4763
vn 0.6550 0.7551 0.0284
vn 0.4713 0.8762 0.1006
vn 0.4704 0.8311 0.2968
vn 0.4496 0.8932 -0.0068
vn 0.2520 0.9667 -0.0446
vn 0.2433 0.9657 0.0904
vn 0.2434 0.9657 0.0904
vn 0.4710 0.8764 0.1005
vn 0.2017 0.8353 0.5115
vn 0.2216 0.9234 0.3134
vn -0.0522 0.9588 0.2792
vn 0.2017 0.8352 0.5116
vn -0.0811 0.8571 0.5087
vn 0.2218 0.9234 0.3133
vn 0.2429 0.9658 0.0907
vn -0.0044 0.9994 0.0345
vn 0.2217 0.9234 0.3134
vn -0.0045 0.9994 0.0344
vn -0.0521 0.9589 0.2789
vn 0.2431 0.9658 0.0901
vn 0.2519 0.9667 -0.0447
vn 0.0255 0.9949 -0.0976
vn 0.2431 0.9658 0.0903
vn 0.0255 0.9949 -0.0978
vn -0.0043 0.9994 0.0342
vn 0.6549 0.7552 0.0281
vn 0.6458 0.7602 -0.0708
vn 0.4499 0.8930 -0.0069
vn 0.6550 0.7551 0.0283
vn 0.4712 0.8763 0.1004
vn 0.4602 0.7493 0.4763
vn 0.4701 0.8311 0.2970
vn 0.2220 0.9233 0.3135
vn 0.4602 0.7492 0.4763
vn 0.2220 0.9232 0.3136
vn 0.2019 0.8352 0.5115
vn 0.4699 0.8314 0.2966
vn 0.4710 0.8764 0.1006
vn 0.2434 0.9657 0.0907
vn 0.4701 0.8312 0.2968
vn 0.2220 0.9233 0.3134
vn 0.6551 0.7550 0.0281
vn 0.7833 0.6189 -0.0584
vn 0.7483 0.6463 -0.1491
vn 0.6551 0.7550 0.0282
vn 0.7483 0.6463 -0.1492
vn 0.6460 0.7600 -0.0709
vn 0.6824 0.6915 0.2371
vn 0.8246 0.5423 0.1609
vn 0.7833 0.6189 -0.0581
vn 0.6823 0.6915 0.2371
vn 0.7834 0.6188 -0.0580
vn 0.6552 0.7549 0.0284
vn 0.6787 0.6041 0.4176
vn 0.8278 0.4428 0.3444
vn 0.8246 0.5422 0.1613
vn 0.8246 0.5422 0.1611
vn 0.6823 0.6915 0.2373
vn 0.9365 0.2553 0.2404
vn 0.9295 0.3646 0.0550
vn 0.8247 0.5421 0.1610
vn 0.9365 0.2554 0.2404
vn 0.9295 0.3648 0.0548
vn 0.8659 0.4750 -0.1567
vn 0.7835 0.6186 -0.0582
vn 0.9295 0.3647 0.0548
vn 0.7836 0.6185 -0.0582
vn 0.8247 0.5422 0.1608
vn 0.8657 0.4752 -0.1570
vn 0.8314 0.5014 -0.2394
vn 0.7484 0.6462 -0.1494
vn 0.8658 0.4751 -0.1569
vn 0.7484 0.6462 -0.1492
vn 0.7835 0.6186 -0.0585
vn -0.3191 0.2276 0.9200
vn -0.5326 0.1392 0.8348
vn -0.4770 -0.1075 0.8723
vn -0.3193 0.2277 0.9199
vn -0.4770 -0.1073 0.8723
vn -0.2537 -0.0395 0.9665
vn -0.5328 0.1392 0.8347
vn -0.6999 0.0576 0.7120
vn -0.6628 -0.1827 0.7262
vn -0.5329 0.1392 0.8347
vn -0.6628 -0.1827 0.7261
vn -0.4773 -0.1077 0.8721
vn -0.7000 0.0576 0.7118
vn -0.8138 -0.0135 0.5810
vn -0.8097 -0.2035 0.5504
vn -0.7000 0.0577 0.7118
vn -0.8099 -0.2035 0.5501
vn -0.6629 -0.1826 0.7261
vn -0.8139 -0.0135 0.5808
vn -0.8801 0.1223 0.4588
vn -0.9279 -0.0990 0.3594
vn -0.8139 -0.0135 0.5809
vn -0.9279 -0.0990 0.3593
vn -0.8100 -0.2034 0.5500
vn -0.8801 0.1224 0.4587
vn -0.9141 0.2578 0.3131
vn -0.9822 0.0441 0.1828
vn -0.9822 0.0438 0.1828
vn -0.9280 -0.0988 0.3592
vn -0.9141 0.2578 0.3129
vn -0.9077 0.3946 0.1429
vn -0.9829 0.1842 -0.0027
vn -0.9142 0.2577 0.3129
vn -0.9829 0.1840 -0.0027
vn -0.9822 0.0439 0.1827
vn -0.3577 0.4672 0.8086
vn -0.5822 0.3827 0.7174
vn -0.5327 0.1394 0.8348
vn -0.3577 0.4671 0.8086
vn -0.3192 0.2278 0.9199
vn -0.5825 0.3825 0.7172
vn -0.7615 0.2676 0.5904
vn -0.6999 0.0580 0.7119
vn -0.5826 0.3826 0.7171
vn -0.5329 0.1394 0.8346
vn -0.7617 0.2675 0.5902
vn -0.8800 0.1223 0.4590
vn -0.8139 -0.0133 0.5809
vn -0.7616 0.2676 0.5902
vn -0.8138 -0.0132 0.5809
vn -0.7001 0.0577 0.7117
vn -0.3644 0.6653 0.6516
vn -0.5988 0.5671 0.5656
vn -0.5822 0.3830 0.7172
vn -0.3645 0.6651 0.6517
vn -0.3577 0.4675 0.8084
vn -0.5991 0.5670 0.5653
vn -0.7861 0.4293 0.4448
vn -0.7615 0.2680 0.5902
vn -0.5992 0.5671 0.5652
vn -0.7615 0.2679 0.5902
vn -0.5825 0.3828 0.7170
vn -0.7863 0.4291 0.4446
vn -0.9140 0.2578 0.3134
vn -0.8800 0.1225 0.4589
vn -0.7863 0.4291 0.4445
vn -0.8800 0.1226 0.4588
vn -0.7617 0.2677 0.5900
vn -0.3496 0.8156 0.4610
vn -0.5854 0.7167 0.3791
vn -0.5989 0.5673 0.5652
vn -0.3496 0.8156 0.4611
vn -0.3646 0.6653 0.6515
vn -0.3184 0.9192 0.2318
vn -0.5507 0.8191 0.1606
vn -0.5854 0.7167 0.3790
vn -0.5854 0.7168 0.3789
vn -0.3494 0.8158 0.4609
vn -0.2676 0.9632 -0.0244
vn -0.4909 0.8676 -0.0798
vn -0.5506 0.8193 0.1602
vn -0.2676 0.9632 -0.0243
vn -0.5505 0.8193 0.1603
vn -0.3184 0.9193 0.2313
vn -0.2316 0.9615 -0.1479
vn -0.4464 0.8707 -0.2067
vn -0.4907 0.8676 -0.0802
vn -0.2317 0.9615 -0.1479
vn -0.2676 0.9632 -0.0246
vn -0.5857 0.7163 0.3792
vn -0.7776 0.5680 0.2697
vn -0.7861 0.4295 0.4445
vn -0.5857 0.7164 0.3791
vn -0.7861 0.4294 0.4445
vn -0.5992 0.5673 0.5649
vn -0.5509 0.8190 0.1603
vn -0.7350 0.6748 0.0660
vn -0.7776 0.5682 0.2693
vn -0.5508 0.8190 0.1605
vn -0.7775 0.5682 0.2694
vn -0.5856 0.7167 0.3787
vn -0.4911 0.8674 -0.0799
vn -0.6593 0.7365 -0.1513
vn -0.7349 0.6750 0.0656
vn -0.4911 0.8674 -0.0798
vn -0.7350 0.6749 0.0657
vn -0.5508 0.8191 0.1600
vn -0.4465 0.8706 -0.2068
vn -0.6036 0.7524 -0.2638
vn -0.6592 0.7365 -0.1517
vn -0.6592 0.7365 -0.1516
vn -0.4910 0.8675 -0.0801
vn -0.7862 0.4294 0.4444
vn -0.7778 0.5679 0.2693
vn -0.9076 0.3948 0.1430
vn -0.9076 0.3948 0.1431
vn -0.9140 0.2580 0.3131
vn -0.7778 0.5680 0.2691
vn -0.7352 0.6747 0.0658
vn -0.8617 0.5053 -0.0462
vn -0.7778 0.5680 0.2692
vn -0.9075 0.3950 0.1428
vn -0.6596 0.7362 -0.1515
vn -0.7838 0.5726 -0.2403
vn -0.8617 0.5053 -0.0465
vn -0.6594 0.7363 -0.1515
vn -0.8616 0.5055 -0.0464
vn -0.7351 0.6748 0.0655
vn -0.6038 0.7522 -0.2639
vn -0.7297 0.5883 -0.3486
vn -0.7836 0.5728 -0.2405
vn -0.7837 0.5727 -0.2406
vn -0.6593 0.7364 -0.1517
vn -0.7679 0.4385 -0.4670
vn -0.8357 0.3968 -0.3796
vn -0.7838 0.5725 -0.2407
vn -0.7679 0.4384 -0.4670
vn -0.7298 0.5881 -0.3486
vn -0.8358 0.3968 -0.3794
vn -0.9335 0.3056 -0.1878
vn -0.8616 0.5054 -0.0466
vn -0.8358 0.3968 -0.3796
vn -0.8617 0.5052 -0.0466
vn -0.7839 0.5724 -0.2405
vn -0.9335 0.3055 -0.1877
vn -0.9829 0.1842 -0.0028
vn -0.9077 0.3947 0.1426
vn -0.9076 0.3948 0.1426
vn -0.8618 0.5051 -0.0463
vn -0.9168 -0.2930 0.2713
vn -0.8574 -0.4855 0.1709
vn -0.7141 -0.5707 0.4054
vn -0.7140 -0.5708 0.4054
vn -0.7786 -0.3862 0.4946
vn -0.7787 -0.3860 0.4946
vn -0.8100 -0.2036 0.5500
vn -0.9279 -0.0994 0.3593
vn -0.9279 -0.0993 0.3593
vn -0.9168 -0.2929 0.2714
vn -0.2534 -0.0399 0.9665
vn -0.4770 -0.1079 0.8723
vn -0.3973 -0.3642 0.8423
vn -0.2534 -0.0398 0.9665
vn -0.3972 -0.3643 0.8424
vn -0.1580 -0.2919 0.9433
vn -0.6627 -0.1831 0.7262
vn -0.6069 -0.4018 0.6857
vn -0.3977 -0.3643 0.8421
vn -0.6628 -0.1830 0.7261
vn -0.3977 -0.3644 0.8421
vn -0.4771 -0.1080 0.8722
vn -0.8098 -0.2038 0.5502
vn -0.7785 -0.3861 0.4949
vn -0.6073 -0.4017 0.6855
vn -0.6072 -0.4017 0.6855
vn -0.6630 -0.1827 0.7260
vn -0.7138 -0.5709 0.4057
vn -0.5259 -0.6040 0.5988
vn -0.6070 -0.4021 0.6855
vn -0.7139 -0.5708 0.4056
vn -0.6071 -0.4020 0.6855
vn -0.7785 -0.3863 0.4947
vn -0.5258 -0.6040 0.5989
vn -0.3021 -0.5879 0.7504
vn -0.3974 -0.3646 0.8421
vn -0.5259 -0.6040 0.5989
vn -0.3976 -0.3646 0.8420
vn -0.6068 -0.4020 0.6857
vn -0.3018 -0.5879 0.7505
vn -0.0568 -0.5304 0.8459
vn -0.1578 -0.2923 0.9432
vn -0.3018 -0.5879 0.7506
vn -0.1578 -0.2922 0.9432
vn -0.3974 -0.3645 0.8422
vn -0.9169 -0.2928 0.2711
vn -0.9844 -0.1619 0.0690
vn -0.9259 -0.3734 -0.0580
vn -0.9169 -0.2928 0.2710
vn -0.9258 -0.3735 -0.0579
vn -0.8576 -0.4853 0.1704
vn -0.9280 -0.0990 0.3591
vn -0.9822 0.0437 0.1827
vn -0.9844 -0.1615 0.0692
vn -0.9281 -0.0991 0.3590
vn -0.9844 -0.1617 0.0692
vn -0.9170 -0.2927 0.2712
vn -0.9829 0.1840 -0.0028
vn -0.9916 -0.0271 -0.1265
vn -0.9845 -0.1614 0.0689
vn -0.9822 0.0438 0.1825
vn -0.9336 0.3052 -0.1879
vn -0.9442 0.0993 -0.3140
vn -0.9916 -0.0271 -0.1267
vn -0.9916 -0.0270 -0.1267
vn -0.9829 0.1841 -0.0029
vn -0.8358 0.3966 -0.3796
vn -0.8396 0.2186 -0.4973
vn -0.9442 0.0995 -0.3141
vn -0.8358 0.3966 -0.3797
vn -0.9442 0.0996 -0.3141
vn -0.9335 0.3054 -0.1880
vn -0.7680 0.4381 -0.4672
vn -0.7663 0.2803 -0.5781
vn -0.8394 0.2187 -0.4975
vn -0.7680 0.4382 -0.4671
vn -0.8395 0.2187 -0.4974
vn -0.8356 0.3967 -0.3799
vn -0.7123 0.1155 -0.6923
vn -0.7887 0.0359 -0.6138
vn -0.8394 0.2185 -0.4977
vn -0.7124 0.1155 -0.6922
vn -0.8394 0.2185 -0.4976
vn -0.7663 0.2799 -0.5783
vn -0.7887 0.0358 -0.6137
vn -0.8851 -0.1122 -0.4516
vn -0.9441 0.0991 -0.3144
vn -0.7888 0.0357 -0.6136
vn -0.9441 0.0992 -0.3144
vn -0.8396 0.2182 -0.4974
vn -0.8852 -0.1125 -0.4515
vn -0.9338 -0.2539 -0.2520
vn -0.9915 -0.0273 -0.1269
vn -0.8852 -0.1124 -0.4514
vn -0.9915 -0.0272 -0.1270
vn -0.9442 0.0989 -0.3142
vn -0.9338 -0.2541 -0.2519
vn -0.9258 -0.3734 -0.0582
vn -0.9844 -0.1618 0.0689
vn -0.9338 -0.2540 -0.2519
vn -0.9844 -0.1617 0.0686
vn -0.9915 -0.0274 -0.1268
vt 0.856570 0.080930
vt 0.841430 0.084030
vt 0.842110 0.100770
vt 0.859260 0.103320
vt 0.848630 0.057600
vt 0.835580 0.065490
vt 0.836190 0.039490
vt 0.826120 0.050760
vt 0.820630 0.025350
vt 0.812790 0.038640
vt 0.804090 0.016520
vt 0.798720 0.031560
vt 0.787300 0.011740
vt 0.783620 0.027820
vt 0.768810 0.026110
vt 0.770610 0.010000
vt 0.753530 0.010840
vt 0.736340 0.012510
vt 0.735940 0.030080
vt 0.752060 0.027620
vt 0.778610 0.042780
vt 0.791490 0.044990
vt 0.771970 0.057730
vt 0.784830 0.058590
vt 0.769610 0.071210
vt 0.781980 0.073860
vt 0.768190 0.085360
vt 0.781500 0.087070
vt 0.765460 0.097370
vt 0.780890 0.098920
vt 0.802780 0.049710
vt 0.814120 0.057910
vt 0.796830 0.061730
vt 0.795350 0.075900
vt 0.796170 0.088530
vt 0.795840 0.100590
vt 0.822260 0.071220
vt 0.826870 0.085970
vt 0.827760 0.100500
vt 0.813010 0.088110
vt 0.812040 0.100480
vt 0.805650 0.065300
vt 0.809360 0.076090
vt 0.760290 0.057750
vt 0.758120 0.070900
vt 0.749790 0.057030
vt 0.747620 0.070660
vt 0.751550 0.042620
vt 0.736360 0.044740
vt 0.738460 0.056650
vt 0.765290 0.042050
vt 0.733980 0.067010
vt 0.729930 0.082520
vt 0.744980 0.084600
vt 0.756740 0.085220
vt 0.754610 0.097490
vt 0.745150 0.097200
vt 0.727650 0.095440
vt 0.782910 0.576570
vt 0.771060 0.565980
vt 0.761120 0.583250
vt 0.771360 0.594080
vt 0.760240 0.561080
vt 0.751850 0.574220
vt 0.745860 0.557090
vt 0.743350 0.567540
vt 0.733140 0.559710
vt 0.734360 0.571890
vt 0.720360 0.564000
vt 0.723380 0.576330
vt 0.706680 0.567420
vt 0.710660 0.580460
vt 0.748260 0.594500
vt 0.756450 0.607900
vt 0.741020 0.582420
vt 0.734490 0.602760
vt 0.740640 0.617150
vt 0.728430 0.589130
vt 0.720260 0.607740
vt 0.724410 0.622550
vt 0.705430 0.609710
vt 0.708060 0.624630
vt 0.689930 0.608940
vt 0.691160 0.624750
vt 0.674460 0.606660
vt 0.673920 0.624050
vt 0.715300 0.594670
vt 0.700970 0.596710
vt 0.686510 0.595240
vt 0.672990 0.594470
vt 0.696480 0.583110
vt 0.683430 0.583330
vt 0.672400 0.584290
vt 0.679630 0.570330
vt 0.667020 0.573470
vt 0.692470 0.569540
vt 0.745970 0.545400
vt 0.747560 0.534910
vt 0.730320 0.534530
vt 0.731270 0.546250
vt 0.790620 0.554890
vt 0.777990 0.549240
vt 0.763610 0.546670
vt 0.766400 0.533700
vt 0.779980 0.533310
vt 0.791530 0.534360
vt 0.716590 0.536430
vt 0.717280 0.549750
vt 0.703520 0.551550
vt 0.690560 0.553550
vt 0.677130 0.554480
vt 0.663380 0.557440
vt 0.675610 0.540840
vt 0.660950 0.541340
vt 0.690500 0.539260
vt 0.702570 0.537920
vt 0.839120 0.118030
vt 0.854540 0.123120
vt 0.831080 0.136580
vt 0.845620 0.142920
vt 0.820840 0.150120
vt 0.833230 0.159470
vt 0.807230 0.160760
vt 0.817880 0.172670
vt 0.793060 0.167480
vt 0.801510 0.181710
vt 0.777650 0.171000
vt 0.784130 0.186990
vt 0.766010 0.188800
vt 0.762200 0.172230
vt 0.744730 0.169310
vt 0.728050 0.164310
vt 0.728320 0.183110
vt 0.746910 0.186970
vt 0.786360 0.152680
vt 0.772960 0.154940
vt 0.781170 0.138370
vt 0.768350 0.137860
vt 0.779400 0.123690
vt 0.767230 0.123940
vt 0.780010 0.110710
vt 0.766560 0.109940
vt 0.798090 0.149100
vt 0.809910 0.141920
vt 0.792880 0.137830
vt 0.793010 0.124310
vt 0.794200 0.112060
vt 0.818940 0.129190
vt 0.824850 0.114820
vt 0.810840 0.112990
vt 0.801640 0.134490
vt 0.806790 0.124720
vt 0.755540 0.123670
vt 0.755980 0.138020
vt 0.744560 0.123260
vt 0.744850 0.138030
vt 0.733960 0.137210
vt 0.730140 0.148580
vt 0.744460 0.152760
vt 0.759120 0.155160
vt 0.730400 0.125430
vt 0.743250 0.109470
vt 0.728320 0.109400
vt 0.754920 0.109850
vt 0.768140 0.476650
vt 0.755850 0.485590
vt 0.767070 0.502130
vt 0.780570 0.493560
vt 0.746940 0.494900
vt 0.756470 0.507900
vt 0.739490 0.502390
vt 0.742410 0.512780
vt 0.730040 0.499000
vt 0.729690 0.510300
vt 0.718310 0.495950
vt 0.716390 0.508850
vt 0.705160 0.494320
vt 0.702260 0.507180
vt 0.752310 0.463080
vt 0.741950 0.475280
vt 0.735160 0.487750
vt 0.735130 0.454260
vt 0.727120 0.468330
vt 0.721680 0.482680
vt 0.717120 0.449780
vt 0.711840 0.465190
vt 0.698680 0.449330
vt 0.696090 0.465320
vt 0.679610 0.452210
vt 0.679790 0.468860
vt 0.661340 0.457610
vt 0.664210 0.475700
vt 0.708020 0.480230
vt 0.693780 0.480450
vt 0.678580 0.483780
vt 0.664670 0.488930
vt 0.691150 0.494840
vt 0.677630 0.497280
vt 0.666150 0.499100
vt 0.663020 0.509930
vt 0.675990 0.509850
vt 0.688310 0.507780
vt 0.730080 0.522980
vt 0.744940 0.524380
vt 0.776480 0.517490
vt 0.789660 0.514040
vt 0.762680 0.521180
vt 0.716300 0.523620
vt 0.702970 0.524170
vt 0.689750 0.524900
vt 0.675940 0.526650
vt 0.661340 0.526150
s 0
usemtl mat0.1068
f 1/1/1 2/2/2 3/3/3
f 1/1/4 3/3/5 4/4/6
f 1/1/7 5/5/8 6/6/9
f 1/1/10 6/6/11 2/2/12
f 5/5/13 7/7/14 8/8/15
f 5/5/16 8/8/17 6/6/18
f 7/7/19 9/9/20 10/10/21
f 7/7/19 10/10/21 8/8/22
f 9/9/23 11/11/24 12/12/25
f 9/9/26 12/12/27 10/10/28
f 11/11/29 13/13/30 14/14/31
f 11/11/29 14/14/31 12/12/32
f 15/15/33 14/14/34 13/13/35
f 15/15/36 13/13/37 16/16/38
f 17/17/39 18/18/40 19/19/41
f 17/17/42 19/19/43 20/20/44
f 12/12/45 14/14/46 21/21/47
f 12/12/48 21/21/49 22/22/50
f 22/22/51 21/21/52 23/23/53
f 22/22/54 23/23/55 24/24/56
f 16/16/57 17/17/58 20/20/59
f 16/16/57 20/20/60 15/15/61
f 23/23/62 25/25/63 26/26/64
f 23/23/65 26/26/66 24/24/67
f 25/25/68 27/27/69 28/28/70
f 25/25/71 28/28/72 26/26/73
f 27/27/74 29/29/75 30/30/76
f 27/27/77 30/30/78 28/28/79
f 10/10/80 12/12/48 22/22/81
f 10/10/80 22/22/81 31/31/82
f 10/10/83 31/31/84 32/32/85
f 10/10/86 32/32/85 8/8/87
f 22/22/88 24/24/89 33/33/90
f 22/22/51 33/33/91 31/31/92
f 24/24/93 26/26/94 34/34/95
f 24/24/96 34/34/97 33/33/98
f 26/26/99 28/28/100 35/35/101
f 26/26/99 35/35/102 34/34/103
f 28/28/104 30/30/105 36/36/106
f 28/28/104 36/36/107 35/35/108
f 8/8/109 32/32/110 37/37/111
f 8/8/112 37/37/111 6/6/113
f 6/6/114 37/37/115 38/38/116
f 6/6/114 38/38/117 2/2/118
f 2/2/119 38/38/120 39/39/121
f 2/2/122 39/39/123 3/3/124
f 38/38/125 40/40/126 41/41/127
f 38/38/128 41/41/129 39/39/130
f 40/40/131 35/35/132 36/36/133
f 40/40/134 36/36/135 41/41/136
f 31/31/137 33/33/138 42/42/139
f 31/31/137 42/42/140 32/32/141
f 32/32/142 42/42/143 43/43/144
f 32/32/145 43/43/146 37/37/147
f 37/37/148 43/43/149 40/40/150
f 37/37/148 40/40/151 38/38/152
f 40/40/153 43/43/154 34/34/155
f 40/40/153 34/34/156 35/35/157
f 34/34/158 43/43/159 42/42/160
f 34/34/161 42/42/162 33/33/163
f 23/23/164 44/44/165 45/45/166
f 23/23/164 45/45/166 25/25/167
f 44/44/168 46/46/169 47/47/170
f 44/44/171 47/47/172 45/45/173
f 46/46/174 48/48/175 49/49/176
f 46/46/177 49/49/178 50/50/179
f 14/14/180 15/15/181 51/51/182
f 14/14/183 51/51/184 21/21/185
f 15/15/186 20/20/187 48/48/188
f 15/15/186 48/48/189 51/51/190
f 20/20/191 19/19/192 49/49/193
f 20/20/194 49/49/193 48/48/195
f 46/46/196 50/50/197 52/52/198
f 46/46/199 52/52/200 47/47/201
f 21/21/202 51/51/203 44/44/204
f 21/21/205 44/44/206 23/23/207
f 51/51/208 48/48/209 46/46/210
f 51/51/211 46/46/210 44/44/212
f 52/52/213 53/53/214 54/54/215
f 52/52/216 54/54/217 47/47/201
f 47/47/218 54/54/219 55/55/220
f 47/47/218 55/55/220 45/45/221
f 45/45/222 55/55/223 27/27/224
f 45/45/225 27/27/226 25/25/227
f 27/27/228 55/55/229 56/56/230
f 27/27/228 56/56/231 29/29/232
f 55/55/233 54/54/234 57/57/235
f 55/55/233 57/57/236 56/56/237
f 54/54/234 53/53/238 58/58/239
f 54/54/234 58/58/239 57/57/240
f 59/59/241 60/60/242 61/61/243
f 59/59/244 61/61/245 62/62/246
f 60/60/247 63/63/248 64/64/249
f 60/60/250 64/64/251 61/61/252
f 63/63/253 65/65/254 66/66/255
f 63/63/256 66/66/257 64/64/258
f 65/65/259 67/67/260 68/68/261
f 65/65/262 68/68/263 66/66/264
f 67/67/265 69/69/266 70/70/267
f 67/67/268 70/70/269 68/68/270
f 69/69/271 71/71/272 72/72/273
f 69/69/274 72/72/275 70/70/276
f 62/62/277 61/61/278 73/73/279
f 62/62/277 73/73/279 74/74/280
f 61/61/281 64/64/282 75/75/283
f 61/61/281 75/75/284 73/73/285
f 64/64/286 66/66/287 68/68/288
f 64/64/289 68/68/290 75/75/291
f 74/74/292 73/73/293 76/76/294
f 74/74/295 76/76/296 77/77/297
f 73/73/298 75/75/299 78/78/300
f 73/73/301 78/78/300 76/76/302
f 75/75/303 68/68/304 70/70/305
f 75/75/306 70/70/307 78/78/308
f 77/77/309 76/76/310 79/79/311
f 77/77/312 79/79/313 80/80/314
f 80/80/315 79/79/316 81/81/317
f 80/80/315 81/81/318 82/82/319
f 82/82/320 81/81/321 83/83/322
f 82/82/323 83/83/324 84/84/325
f 84/84/326 83/83/327 85/85/328
f 84/84/329 85/85/328 86/86/330
f 76/76/331 78/78/332 87/87/333
f 76/76/334 87/87/333 79/79/335
f 79/79/336 87/87/337 88/88/338
f 79/79/336 88/88/338 81/81/339
f 81/81/340 88/88/341 89/89/342
f 81/81/343 89/89/344 83/83/345
f 83/83/346 89/89/347 90/90/348
f 83/83/349 90/90/348 85/85/350
f 70/70/351 72/72/352 87/87/353
f 70/70/354 87/87/355 78/78/356
f 72/72/357 91/91/358 88/88/359
f 72/72/360 88/88/361 87/87/362
f 88/88/359 91/91/363 92/92/364
f 88/88/365 92/92/366 89/89/367
f 89/89/368 92/92/369 93/93/370
f 89/89/371 93/93/372 90/90/373
f 93/93/374 92/92/375 94/94/376
f 93/93/377 94/94/376 95/95/378
f 92/92/379 91/91/380 96/96/381
f 92/92/382 96/96/383 94/94/384
f 91/91/385 72/72/386 71/71/387
f 91/91/388 71/71/387 96/96/389
f 97/97/390 98/98/391 99/99/392
f 97/97/393 99/99/394 100/100/395
f 100/100/396 67/67/397 65/65/398
f 100/100/396 65/65/398 97/97/399
f 101/101/400 102/102/401 60/60/402
f 101/101/403 60/60/402 59/59/404
f 60/60/405 102/102/406 103/103/407
f 60/60/408 103/103/409 63/63/410
f 63/63/411 103/103/412 97/97/413
f 63/63/414 97/97/415 65/65/416
f 97/97/417 103/103/418 104/104/419
f 97/97/417 104/104/420 98/98/421
f 103/103/422 102/102/423 105/105/424
f 103/103/425 105/105/426 104/104/427
f 102/102/428 101/101/429 106/106/430
f 102/102/431 106/106/432 105/105/426
f 99/99/433 107/107/434 108/108/435
f 99/99/436 108/108/437 100/100/438
f 100/100/439 108/108/440 69/69/441
f 100/100/439 69/69/442 67/67/443
f 69/69/444 108/108/445 109/109/446
f 69/69/447 109/109/446 71/71/448
f 71/71/449 109/109/450 110/110/451
f 71/71/452 110/110/453 96/96/454
f 96/96/455 110/110/456 111/111/457
f 96/96/458 111/111/459 94/94/460
f 94/94/461 111/111/462 112/112/463
f 94/94/464 112/112/465 95/95/466
f 112/112/467 111/111/468 113/113/469
f 112/112/467 113/113/469 114/114/470
f 111/111/459 110/110/471 115/115/472
f 111/111/459 115/115/473 113/113/474
f 110/110/475 109/109/476 116/116/477
f 110/110/451 116/116/477 115/115/478
f 109/109/476 108/108/479 107/107/480
f 109/109/476 107/107/481 116/116/482
f 4/4/483 3/3/484 117/117/485
f 4/4/486 117/117/487 118/118/488
f 117/117/489 119/119/490 120/120/491
f 117/117/492 120/120/491 118/118/493
f 119/119/494 121/121/495 122/122/496
f 119/119/497 122/122/498 120/120/499
f 121/121/500 123/123/501 124/124/502
f 121/121/503 124/124/504 122/122/505
f 123/123/506 125/125/507 126/126/508
f 123/123/509 126/126/510 124/124/511
f 125/125/512 127/127/513 128/128/514
f 125/125/515 128/128/516 126/126/517
f 129/129/518 128/128/519 127/127/520
f 129/129/518 127/127/520 130/130/521
f 131/131/522 132/132/523 133/133/524
f 131/131/525 133/133/524 134/134/526
f 135/135/527 136/136/528 127/127/529
f 135/135/527 127/127/530 125/125/531
f 137/137/532 138/138/533 136/136/534
f 137/137/535 136/136/536 135/135/537
f 130/130/538 131/131/539 134/134/540
f 130/130/541 134/134/542 129/129/543
f 137/137/544 139/139/545 140/140/546
f 137/137/544 140/140/547 138/138/548
f 139/139/549 141/141/550 142/142/551
f 139/139/552 142/142/553 140/140/554
f 141/141/555 30/30/556 29/29/557
f 141/141/558 29/29/559 142/142/560
f 143/143/561 135/135/527 125/125/562
f 143/143/563 125/125/564 123/123/565
f 121/121/566 144/144/567 143/143/568
f 121/121/566 143/143/569 123/123/570
f 143/143/571 145/145/572 137/137/573
f 143/143/571 137/137/574 135/135/575
f 145/145/576 146/146/577 139/139/578
f 145/145/579 139/139/580 137/137/581
f 146/146/582 147/147/583 141/141/584
f 146/146/585 141/141/586 139/139/587
f 147/147/588 36/36/589 30/30/590
f 147/147/591 30/30/592 141/141/593
f 119/119/594 148/148/595 144/144/596
f 119/119/597 144/144/598 121/121/599
f 117/117/600 149/149/601 148/148/602
f 117/117/600 148/148/602 119/119/603
f 3/3/604 39/39/605 149/149/606
f 3/3/607 149/149/608 117/117/609
f 39/39/610 41/41/611 150/150/612
f 39/39/610 150/150/613 149/149/614
f 41/41/615 36/36/616 147/147/617
f 41/41/618 147/147/617 150/150/619
f 144/144/620 151/151/621 145/145/622
f 144/144/620 145/145/623 143/143/624
f 148/148/602 152/152/625 151/151/626
f 148/148/627 151/151/628 144/144/629
f 149/149/630 150/150/631 152/152/632
f 149/149/633 152/152/634 148/148/635
f 147/147/636 146/146/637 152/152/638
f 147/147/639 152/152/640 150/150/641
f 145/145/642 151/151/643 152/152/644
f 145/145/645 152/152/646 146/146/647
f 140/140/648 153/153/649 154/154/650
f 140/140/651 154/154/652 138/138/653
f 153/153/649 155/155/654 156/156/655
f 153/153/649 156/156/655 154/154/656
f 157/157/657 158/158/658 159/159/659
f 157/157/657 159/159/660 156/156/661
f 136/136/662 160/160/663 130/130/664
f 136/136/665 130/130/664 127/127/666
f 160/160/667 159/159/668 131/131/669
f 160/160/670 131/131/671 130/130/672
f 159/159/673 158/158/674 132/132/675
f 159/159/676 132/132/677 131/131/678
f 155/155/679 161/161/680 157/157/681
f 155/155/682 157/157/681 156/156/683
f 138/138/684 154/154/685 160/160/686
f 138/138/687 160/160/688 136/136/689
f 154/154/690 156/156/691 159/159/692
f 154/154/693 159/159/692 160/160/694
f 155/155/695 162/162/696 163/163/697
f 155/155/698 163/163/699 161/161/700
f 153/153/701 164/164/702 162/162/703
f 153/153/704 162/162/705 155/155/706
f 140/140/707 142/142/708 164/164/709
f 140/140/707 164/164/710 153/153/711
f 29/29/712 56/56/713 164/164/714
f 29/29/715 164/164/714 142/142/560
f 56/56/716 57/57/717 162/162/718
f 56/56/719 162/162/720 164/164/721
f 57/57/722 58/58/723 163/163/724
f 57/57/725 163/163/726 162/162/727
f 165/165/728 166/166/729 167/167/730
f 165/165/731 167/167/732 168/168/733
f 166/166/734 169/169/735 170/170/736
f 166/166/737 170/170/738 167/167/739
f 169/169/740 171/171/741 172/172/742
f 169/169/743 172/172/744 170/170/745
f 171/171/746 173/173/747 174/174/748
f 171/171/749 174/174/750 172/172/751
f 173/173/752 175/175/753 176/176/754
f 173/173/747 176/176/755 174/174/756
f 175/175/757 177/177/758 178/178/759
f 175/175/760 178/178/761 176/176/762
f 179/179/763 180/180/764 166/166/765
f 179/179/766 166/166/765 165/165/767
f 180/180/768 181/181/769 169/169/770
f 180/180/771 169/169/770 166/166/772
f 181/181/773 173/173/774 171/171/775
f 181/181/776 171/171/777 169/169/778
f 182/182/779 183/183/780 180/180/781
f 182/182/782 180/180/781 179/179/783
f 183/183/784 184/184/785 181/181/786
f 183/183/787 181/181/788 180/180/789
f 184/184/790 175/175/791 173/173/792
f 184/184/793 173/173/794 181/181/795
f 185/185/796 186/186/797 183/183/798
f 185/185/799 183/183/798 182/182/800
f 187/187/801 188/188/802 186/186/803
f 187/187/801 186/186/804 185/185/805
f 189/189/806 190/190/807 188/188/808
f 189/189/809 188/188/810 187/187/811
f 191/191/812 192/192/813 190/190/814
f 191/191/815 190/190/814 189/189/816
f 186/186/817 193/193/818 184/184/819
f 186/186/820 184/184/821 183/183/822
f 188/188/823 194/194/824 193/193/825
f 188/188/826 193/193/827 186/186/828
f 190/190/829 195/195/830 194/194/831
f 190/190/832 194/194/833 188/188/834
f 192/192/835 196/196/836 195/195/837
f 192/192/835 195/195/838 190/190/839
f 184/184/840 193/193/841 177/177/842
f 184/184/840 177/177/843 175/175/844
f 193/193/845 194/194/846 197/197/847
f 193/193/848 197/197/847 177/177/849
f 195/195/850 198/198/851 197/197/852
f 195/195/853 197/197/854 194/194/855
f 196/196/856 199/199/857 198/198/858
f 196/196/856 198/198/859 195/195/860
f 200/200/861 201/201/862 198/198/863
f 200/200/864 198/198/863 199/199/865
f 201/201/866 202/202/867 197/197/868
f 201/201/869 197/197/870 198/198/871
f 202/202/872 178/178/873 177/177/874
f 202/202/872 177/177/875 197/197/876
f 203/203/877 99/99/878 98/98/879
f 203/203/877 98/98/880 204/204/881
f 204/204/882 172/172/883 174/174/884
f 204/204/881 174/174/885 203/203/886
f 168/168/887 167/167/888 205/205/889
f 168/168/890 205/205/891 206/206/892
f 170/170/893 207/207/894 205/205/895
f 170/170/896 205/205/897 167/167/898
f 172/172/899 204/204/900 207/207/901
f 172/172/899 207/207/902 170/170/903
f 98/98/904 104/104/905 207/207/906
f 98/98/907 207/207/908 204/204/909
f 104/104/910 105/105/911 205/205/912
f 104/104/913 205/205/914 207/207/915
f 105/105/916 106/106/917 206/206/918
f 105/105/919 206/206/920 205/205/921
f 203/203/922 208/208/923 107/107/924
f 203/203/925 107/107/926 99/99/927
f 174/174/928 176/176/929 208/208/930
f 174/174/931 208/208/932 203/203/933
f 178/178/934 209/209/935 208/208/936
f 178/178/934 208/208/936 176/176/937
f 202/202/938 210/210/939 209/209/940
f 202/202/938 209/209/941 178/178/942
f 201/201/943 211/211/944 210/210/945
f 201/201/946 210/210/947 202/202/948
f 200/200/949 212/212/950 211/211/951
f 200/200/952 211/211/953 201/201/954
f 114/114/955 113/113/956 211/211/957
f 114/114/958 211/211/959 212/212/960
f 113/113/961 115/115/962 210/210/963
f 113/113/964 210/210/965 211/211/966
f 115/115/967 116/116/968 209/209/969
f 115/115/970 209/209/971 210/210/972
f 116/116/973 107/107/974 208/208/975
f 116/116/976 208/208/977 209/209/978
