# Blender 4.2.3 LTS
# www.blender.org
mtllib rubber_duck.mtl
o dynamic
v -4.313863 -102.224251 -32.238712
v 0.498373 -111.689072 -37.128952
v -4.126967 -120.096123 -33.359032
v -7.388549 -113.224236 -30.530651
v 3.000327 -122.116081 -30.316196
v 1.721120 -124.723137 -18.262787
v -3.459332 -126.676125 -18.940016
v -2.249882 -125.776939 -29.211479
v 59.214657 -106.293007 -10.593314
v 55.516148 -116.484283 -10.660664
v 51.829704 -114.871887 -26.840195
v 58.209248 -106.575050 -31.019150
v 48.876801 -82.454231 -13.256832
v 57.876480 -94.120880 -11.367928
v 58.434425 -95.904213 -33.526180
v 49.181885 -85.390312 -31.081619
v 18.614309 -112.462433 -36.290211
v 12.336540 -107.978859 -37.593582
v 12.808689 -109.053047 -40.053524
v 20.234789 -111.310921 -40.218334
v 9.422857 -104.193962 -40.495575
v 10.562854 -100.061234 -38.384258
v 10.424631 -98.411049 -41.116299
v 8.892401 -103.965828 -43.954079
v 48.022499 -90.495621 -33.541702
v 53.617317 -97.613029 -35.741264
v 51.663475 -97.977814 -39.725437
v 46.639954 -91.587219 -37.750446
v 42.313210 -113.672348 -36.339333
v 26.884975 -114.977097 -36.473774
v 27.660881 -113.568787 -40.383087
v 42.078758 -112.533600 -39.953465
v 42.217468 -79.010040 -14.409083
v 40.374615 -81.182800 -33.667793
v 9.734099 -80.030067 -19.186607
v 23.035879 -76.562172 -17.374527
v 26.140703 -82.038544 -36.706802
v 12.710935 -84.856743 -36.756088
v 16.189201 -123.438461 -16.174160
v 7.283777 -122.579834 -17.537781
v 8.495847 -117.336571 -30.230759
v 18.157730 -120.240517 -34.484280
v 34.047134 -127.489159 -13.329537
v 36.944099 -126.147064 -22.832157
v 38.111595 -128.357788 -21.374489
v 35.063450 -129.213562 -13.096978
v -9.233773 -111.882126 -20.497717
v -7.388549 -113.224236 -30.530651
v -10.287055 -121.083984 -25.751926
v -11.580035 -121.684746 -20.382561
v -2.991548 -122.999207 -32.610317
v -2.249882 -125.776939 -29.211479
v -7.107025 -128.078690 -24.616737
v -8.783583 -127.208763 -25.629517
v 1.963134 -116.970680 -35.161736
v 3.000327 -122.116081 -30.316196
v -6.432864 -99.267693 -20.678345
v -4.313863 -102.224251 -32.238712
v -10.287055 -121.083984 -25.751926
v -9.755672 -125.118179 -26.107986
v -12.322608 -127.239571 -20.230103
v -11.580035 -121.684746 -20.382561
v -8.783583 -127.208763 -25.629517
v -7.107025 -128.078690 -24.616737
v -8.659316 -128.825867 -19.610836
v -11.599927 -129.005814 -20.039185
v -8.659316 -128.825867 -19.610836
v -7.107025 -128.078690 -24.616737
v -9.755672 -125.118179 -26.107986
v -10.287055 -121.083984 -25.751926
v 50.764587 -122.649483 -11.074913
v 48.465641 -121.861031 -22.192478
v 43.292225 -122.265076 -27.377228
v 34.568188 -124.094391 -25.249146
v 28.458517 -120.318298 -32.006496
v 42.985767 -118.881104 -33.293163
v 31.360678 -126.312874 -13.784286
v 25.516365 -124.417130 -14.742206
v 44.311539 -132.032761 -25.687645
v 52.872894 -130.509216 -21.269073
v 59.360561 -133.841080 -22.069756
v 44.495045 -136.034195 -29.218510
v 46.959099 -124.588890 -20.764513
v 48.896122 -124.146774 -11.281664
v 48.878632 -125.399567 -11.224998
v 46.618988 -127.105400 -19.805584
v 43.152771 -124.966057 -24.369419
v 43.277184 -127.545120 -22.685488
v 45.374062 -141.641022 -30.913033
v 58.879219 -139.599808 -23.493294
v 62.414768 -143.708054 -22.973396
v 46.526318 -147.566696 -31.794804
v 26.805777 -135.248825 -14.038247
v 32.044586 -133.579330 -25.004814
v 29.244165 -138.617081 -27.549564
v 22.522909 -140.858978 -14.409122
v 58.000465 -129.804718 -9.661456
v 61.694931 -132.710281 -8.975149
v 60.007755 -153.981110 -22.947834
v 47.958145 -156.670807 -28.812840
v 21.770058 -147.922562 -14.186820
v 28.992706 -145.207367 -28.889343
v 30.614767 -151.861710 -28.194069
v 24.035694 -154.384430 -13.544549
v 57.066689 -159.941650 -19.762133
v 48.734234 -163.289871 -21.785637
v 34.356007 -158.838715 -25.578991
v 30.199160 -160.820648 -12.324426
v 65.846870 -145.332825 -7.761211
v 62.993435 -153.964981 -7.776773
v 48.962852 -166.142868 -9.285093
v 36.944416 -165.745575 -11.089363
v 40.073231 -163.842606 -21.682920
v 58.126678 -160.706329 -8.180881
v 50.268604 -110.326447 -32.411045
v 48.557308 -109.364159 -36.781757
v 52.942181 -104.005646 -33.777206
v 51.057270 -103.717659 -37.961884
v 4.967224 -103.870445 -39.085953
v 3.278903 -93.155182 -32.300762
v 10.879699 -106.086433 -39.044552
v 8.495847 -117.336571 -30.230759
v 6.672027 -110.902702 -37.246014
v 17.170523 -92.950424 -38.291687
v 12.710935 -84.856743 -36.756088
v 39.537952 -86.907951 -38.408108
v 40.374615 -81.182800 -33.667793
v 42.985767 -118.881104 -33.293163
v 28.458517 -120.318298 -32.006496
v 18.157730 -120.240517 -34.484280
v 26.652540 -87.805313 -39.292973
v 26.140703 -82.038544 -36.706802
v 39.484852 -89.924789 -41.786858
v 43.036747 -98.077789 -44.399879
v 28.056490 -97.937424 -47.836533
v 27.452169 -89.171608 -42.914459
v 43.258568 -104.722961 -44.486893
v 28.078594 -106.500977 -46.333981
v 18.562946 -106.798897 -45.370625
v 10.850515 -106.509438 -42.003780
v 18.938429 -93.791336 -42.015373
v 17.295919 -101.047974 -46.093369
v 35.566681 -130.897812 -22.877453
v 43.716656 -129.794800 -23.809628
v 49.281563 -128.877029 -20.397453
v 52.674507 -127.730774 -10.550797
v 31.631716 -132.059097 -13.472191
v -0.219968 -88.051109 -20.285957
v 3.278903 -93.155182 -32.300762
v -7.799084 -101.114464 -8.778917
v -10.396754 -112.266342 -10.281761
v -8.190455 -118.802200 -6.006800
v -4.742622 -110.020203 -1.850660
v -0.515378 -120.996590 -6.651211
v -5.269125 -124.815536 -8.888292
v 52.323746 -104.700958 8.597463
v 47.317467 -113.435074 3.532675
v 43.957981 -83.726883 4.081627
v 51.958427 -93.842087 10.065194
v 12.825317 -110.619072 2.676768
v 13.252330 -109.087524 6.782140
v 6.225035 -106.956642 4.262499
v 6.501532 -106.120842 1.683139
v 2.923561 -102.124420 3.252622
v 1.415878 -101.585114 6.372034
v 3.781464 -96.295692 3.600324
v 4.683574 -98.189117 1.190471
v 42.064903 -88.598572 6.560203
v 39.506119 -89.315620 10.268975
v 43.652576 -95.426941 14.197682
v 46.682922 -95.404938 10.935676
v 35.472099 -111.493965 9.709691
v 34.215027 -110.029587 12.979047
v 20.279631 -111.218407 9.301728
v 20.651827 -112.992302 5.482921
v 34.837807 -79.419739 3.601684
v 7.420011 -83.171974 -1.141710
v 20.324009 -80.186363 2.446637
v 12.805533 -118.536240 1.542538
v 4.833687 -116.170448 -5.579959
v 35.590912 -127.555130 -4.407204
v 34.081234 -125.235451 -3.561575
v -11.892033 -120.572922 -14.948472
v -10.396754 -112.266342 -10.281761
v -6.926621 -121.746178 -6.122477
v -10.501878 -126.661613 -14.063286
v -8.615737 -127.598267 -14.461269
v -5.269125 -124.815536 -8.888292
v -2.842824 -115.440338 -2.811776
v -0.515378 -120.996590 -6.651211
v -7.799084 -101.114464 -8.778917
v -11.892033 -120.572922 -14.948472
v -11.542190 -124.549309 -14.082548
v -10.501878 -126.661613 -14.063286
v -8.615737 -127.598267 -14.461269
v -8.615737 -127.598267 -14.461269
v -11.892033 -120.572922 -14.948472
v -11.542190 -124.549309 -14.082548
v 45.350636 -120.869133 -1.224704
v 38.890667 -120.863510 2.250619
v 36.927807 -116.952095 7.484307
v 23.380091 -118.701195 2.177514
v 31.134783 -123.001106 -2.138142
v 40.222122 -130.730591 1.839110
v 39.318607 -134.385895 5.625217
v 55.647266 -132.658661 2.925259
v 49.717148 -129.504349 -0.027062
v 44.285797 -123.737640 -2.769938
v 44.203972 -126.336395 -3.549568
v 39.592640 -123.832420 -0.405399
v 40.164764 -126.554047 -1.735104
v 39.591278 -139.799637 8.012170
v 40.356789 -145.602158 9.733659
v 58.172340 -142.357147 5.583325
v 54.694714 -138.267365 4.673523
v 25.173615 -137.320923 -0.149793
v 28.660643 -132.501801 -2.226758
v 42.466972 -154.922272 8.149472
v 55.735500 -152.620712 5.809652
v 26.116455 -150.429321 2.085052
v 24.453928 -143.762100 1.662169
v 45.157173 -162.150848 2.292353
v 53.763466 -158.889816 2.472590
v 30.359291 -157.566055 1.323758
v 36.891613 -162.829498 -0.266744
v 44.270065 -108.416359 7.966439
v 41.377899 -107.078049 11.544423
v 46.518879 -101.960304 9.459458
v 43.505291 -101.312912 12.872163
v -0.427071 -91.975105 -7.355039
v -0.926733 -101.993660 0.587566
v 4.712554 -104.122658 2.467856
v 1.141822 -109.141747 -0.020986
v 4.833687 -116.170448 -5.579959
v 11.130930 -91.027267 2.362142
v 7.420011 -83.171974 -1.141710
v 34.837807 -79.419739 3.601684
v 32.583607 -84.693512 8.403125
v 23.380091 -118.701195 2.177514
v 36.927807 -116.952095 7.484307
v 12.805533 -118.536240 1.542538
v 20.324009 -80.186363 2.446637
v 19.984484 -85.682030 5.591182
v 31.511311 -87.385757 11.884706
v 19.680414 -86.696884 9.398934
v 18.710653 -94.961472 15.072351
v 34.040310 -95.213097 16.157131
v 34.136143 -101.818146 16.918148
v 19.050142 -103.626083 14.438512
v 10.219912 -104.142258 10.788178
v 3.820435 -104.270882 5.317237
v 11.730968 -91.496300 6.499634
v 8.876752 -98.367096 10.577897
v 32.684845 -129.980164 -3.479169
v 40.228344 -128.684036 -0.329045
v 46.555809 -128.009079 -2.049815
v -0.427071 -91.975105 -7.355039
v 54.867870 -151.507523 -29.811340
v 54.608826 -149.955292 -30.245636
v 55.877148 -150.822464 -29.693810
v 53.380478 -149.564148 -21.977369
v 53.733032 -151.146164 -22.172485
v 54.742310 -150.461105 -22.054955
v 54.608826 -149.955292 -30.245636
v 56.116077 -149.620697 -29.715164
v 53.380478 -149.564148 -21.977369
v 54.981239 -149.259338 -22.076309
v 54.608826 -149.955292 -30.245636
v 55.444679 -148.606216 -29.862900
v 53.380478 -149.564148 -21.977369
v 54.309837 -148.244858 -22.224045
v 54.608826 -149.955292 -30.245636
v 54.256268 -148.373276 -30.050472
v 53.380478 -149.564148 -21.977369
v 53.121429 -148.011917 -22.411615
v 53.380478 -149.564148 -21.977369
v 52.112099 -148.696991 -22.529156
v 54.608826 -149.955292 -30.245636
v 53.246937 -149.058350 -30.168011
v 54.608826 -149.955292 -30.245636
v 53.008007 -150.260117 -30.146656
v 53.380478 -149.564148 -21.977369
v 51.873169 -149.898758 -22.507801
v 53.008007 -150.260117 -30.146656
v 54.608826 -149.955292 -30.245636
v 53.679409 -151.274597 -29.998920
v 53.380478 -149.564148 -21.977369
v 51.873169 -149.898758 -22.507801
v 52.544571 -150.913239 -22.360065
v 54.608826 -149.955292 -30.245636
v 53.380478 -149.564148 -21.977369
v 48.860134 -149.594513 10.628039
v 49.869411 -148.909454 10.745570
v 48.507584 -148.012497 10.823153
v 49.735931 -148.403641 2.554888
v 51.004261 -149.270813 3.106664
v 49.994984 -149.955872 2.989132
v 50.108341 -147.707687 10.724216
v 48.507584 -148.012497 10.823153
v 49.735931 -148.403641 2.554888
v 51.243191 -148.069046 3.085308
v 49.436943 -146.693207 10.576480
v 48.507584 -148.012497 10.823153
v 49.735931 -148.403641 2.554888
v 50.571793 -147.054565 2.937573
v 48.248531 -146.460266 10.388909
v 48.507584 -148.012497 10.823153
v 49.735931 -148.403641 2.554888
v 49.383381 -146.821625 2.750003
v 49.735931 -148.403641 2.554888
v 48.374050 -147.506699 2.632463
v 47.239201 -147.145340 10.271369
v 48.507584 -148.012497 10.823153
v 47.000271 -148.347107 10.292724
v 48.507584 -148.012497 10.823153
v 49.735931 -148.403641 2.554888
v 48.135120 -148.708466 2.653817
v 47.000271 -148.347107 10.292724
v 47.671673 -149.361588 10.440459
v 48.507584 -148.012497 10.823153
v 49.735931 -148.403641 2.554888
v 48.806522 -149.722946 2.801553
v 48.135120 -148.708466 2.653817
v 48.507584 -148.012497 10.823153
v 49.735931 -148.403641 2.554888
v 54.125420 -152.517166 -22.967255
v 54.497894 -153.468292 -24.240776
v 56.934563 -151.814392 -23.957020
v 55.990368 -151.251282 -22.750076
v 54.793751 -153.854843 -25.799042
v 54.967964 -153.617981 -27.404915
v 57.404633 -151.964081 -27.121159
v 57.431194 -152.064713 -25.491901
v 54.993996 -152.793747 -28.813835
v 56.858944 -151.527863 -28.596657
v 57.981434 -149.062729 -27.172718
v 58.055500 -148.924301 -25.547714
v 57.300426 -149.307266 -28.636120
v 56.431850 -149.030685 -22.789539
v 57.511364 -148.913040 -24.008583
v 55.191254 -147.156128 -23.062519
v 56.301075 -146.273239 -25.933762
v 55.890476 -146.463791 -24.365246
v 56.059830 -147.432709 -28.909100
v 56.360546 -146.613480 -27.529385
v 53.863876 -147.002274 -29.255695
v 53.491405 -146.051132 -27.982227
v 53.021336 -145.901443 -24.818092
v 52.995300 -146.725693 -23.409115
v 53.195538 -145.664536 -26.423923
v 50.584667 -147.555344 -25.101849
v 51.130352 -147.991562 -23.626293
v 51.054737 -147.705032 -28.265987
v 50.558098 -147.454727 -26.731056
v 51.998928 -148.268143 -29.472874
v 51.557446 -150.488754 -29.433414
v 50.688869 -150.212173 -23.586834
v 49.933743 -150.595154 -26.675251
v 50.007866 -150.456711 -25.050289
v 50.477936 -150.606400 -28.214424
v 50.688869 -150.212173 -23.586834
v 51.929462 -152.086731 -23.313850
v 50.007866 -150.456711 -25.050289
v 49.933743 -150.595154 -26.675251
v 51.688217 -153.246201 -26.289196
v 51.628757 -152.905945 -24.693623
v 50.477936 -150.606400 -28.214424
v 51.557446 -150.488754 -29.433414
v 52.798038 -152.363312 -29.160431
v 52.098827 -153.055634 -27.857761
v 50.121109 -151.242096 3.986636
v 51.986057 -149.976212 4.203813
v 52.531738 -150.412430 5.679366
v 50.095070 -152.066330 5.395610
v 49.920864 -152.303192 7.001433
v 52.558308 -150.513062 7.308574
v 52.061668 -150.262741 8.843503
v 49.625000 -151.916641 8.559747
v 49.252533 -150.965515 9.833217
v 51.117481 -149.699631 10.050393
v 53.182613 -147.372650 7.252761
v 52.638470 -147.361389 8.791940
v 51.558964 -147.479034 10.010932
v 52.427540 -147.755615 4.164351
v 53.108540 -147.511078 5.627805
v 51.186943 -145.881058 3.891370
v 51.487652 -145.061829 5.271140
v 51.428188 -144.721588 6.866712
v 51.017582 -144.912140 8.435277
v 50.318367 -145.604477 9.737950
v 48.148441 -144.349792 7.982430
v 48.122414 -145.174042 9.391355
v 48.990990 -145.450623 3.544774
v 48.618511 -144.499481 4.818295
v 48.322651 -144.112885 6.376552
v 47.126041 -146.716492 3.327597
v 46.181843 -146.153381 4.534538
v 45.685211 -145.903076 6.069416
v 45.711773 -146.003693 7.698674
v 46.257465 -146.439911 9.174176
v 45.815983 -148.660522 9.213637
v 46.684559 -148.937103 3.367057
v 45.605042 -149.054749 4.586099
v 45.060856 -149.043503 6.125221
v 45.134972 -148.905060 7.750234
v 47.925152 -150.811661 3.640039
v 46.684559 -148.937103 3.367057
v 45.605042 -149.054749 4.586099
v 47.225933 -151.503983 4.942764
v 46.815331 -151.694550 6.511278
v 45.060856 -149.043503 6.125221
v 45.134972 -148.905060 7.750234
v 46.755863 -151.354294 8.106900
v 47.056576 -150.535080 9.486619
v 45.815983 -148.660522 9.213637
v 63.507229 -138.514099 -20.193523
v 69.568230 -137.772705 -7.565998
v 71.805542 -137.755280 -7.234446
v 72.345673 -138.608215 -16.434620
v 62.879902 -137.432983 -19.813683
v 60.828716 -134.264130 -19.661495
v 71.066483 -132.313141 -16.548950
v 71.511353 -134.453262 -16.581997
v 64.941391 -142.175583 -19.951130
v 67.195526 -143.404984 -7.652054
v 65.846870 -145.332825 -7.761211
v 62.414768 -143.708054 -22.973396
v 58.879219 -139.599808 -23.493294
v 69.593796 -137.143433 -7.591969
v 62.672539 -133.804764 -8.778141
v 59.360561 -133.841080 -22.069756
v 61.694931 -132.710281 -8.975149
v 68.739098 -136.725204 -7.738729
v 77.659592 -138.069992 -6.349871
v 77.477463 -138.610947 -10.809817
v 76.624268 -130.229599 -11.834100
v 76.894417 -131.566910 -11.798217
v 72.936356 -141.534546 -16.352947
v 72.494797 -141.287506 -6.964954
v 71.116158 -134.222412 -7.503986
v 70.608635 -131.621552 -7.702421
v 78.103432 -140.344528 -6.176334
v 77.851379 -140.493210 -10.713872
v 76.752197 -129.760132 -6.877779
v 77.069984 -131.388672 -6.753529
v 60.095356 -137.427673 2.772538
v 69.641983 -137.747299 1.764525
v 59.620079 -136.394974 2.128899
v 68.857880 -133.608337 1.279112
v 68.471130 -131.486710 0.920917
v 57.744915 -133.282166 1.096251
v 61.487789 -141.075867 3.295858
v 58.172340 -142.357147 5.583325
v 54.694714 -138.267365 4.673523
v 55.647266 -132.658661 2.925259
v 76.184189 -138.199127 -2.104468
v 75.436211 -131.102585 -1.982741
v 75.185654 -129.771515 -2.150445
v 70.190750 -140.660263 2.128363
v 76.543991 -140.076904 -1.913542
vn -0.7691 0.3096 -0.5591
vn -0.3314 -0.0928 -0.9389
vn -0.4884 -0.2329 -0.8410
vn -0.7692 0.3096 -0.5590
vn -0.8480 0.1037 -0.5197
vn 0.4730 -0.7578 -0.4494
vn 0.4784 -0.8710 0.1122
vn 0.4144 -0.9041 0.1043
vn 0.2335 -0.8789 -0.4160
vn 0.9606 -0.2318 0.1536
vn 0.8263 -0.5433 0.1484
vn 0.7109 -0.5604 -0.4249
vn 0.9605 -0.2319 0.1537
vn 0.7109 -0.5605 -0.4248
vn 0.8083 -0.3371 -0.4828
vn 0.6177 0.7845 0.0547
vn 0.9219 0.3686 0.1195
vn 0.7754 0.2628 -0.5741
vn 0.6177 0.7845 0.0546
vn 0.7754 0.2628 -0.5742
vn 0.5926 0.6776 -0.4356
vn -0.2937 -0.6871 -0.6646
vn -0.3067 -0.7727 -0.5558
vn -0.5181 -0.8063 -0.2854
vn -0.2937 -0.6871 -0.6645
vn -0.2671 -0.8278 -0.4933
vn -0.8490 -0.1663 -0.5015
vn -0.6521 0.4893 -0.5791
vn -0.7228 0.6066 -0.3311
vn -0.8491 -0.1665 -0.5014
vn -0.7228 0.6067 -0.3310
vn -0.8030 -0.0724 -0.5916
vn 0.4570 0.5315 -0.7132
vn 0.6289 0.1543 -0.7620
vn 0.7283 0.2058 -0.6536
vn 0.4571 0.5315 -0.7131
vn 0.5468 0.6297 -0.5518
vn 0.3431 -0.7485 -0.5675
vn -0.0366 -0.7416 -0.6699
vn -0.0468 -0.8233 -0.5657
vn 0.3181 -0.7476 -0.5831
vn 0.2852 0.9584 -0.0030
vn 0.6176 0.7846 0.0546
vn 0.5925 0.6777 -0.4356
vn 0.2852 0.9585 -0.0030
vn 0.5925 0.6776 -0.4356
vn 0.3061 0.7989 -0.5177
vn -0.4677 0.8769 -0.1110
vn -0.0889 0.9942 -0.0604
vn -0.0394 0.7584 -0.6506
vn -0.4676 0.8769 -0.1110
vn -0.3790 0.5999 -0.7046
vn -0.1635 -0.9863 0.0224
vn 0.1223 -0.9904 0.0650
vn 0.1403 -0.7923 -0.5938
vn -0.1636 -0.9863 0.0223
vn 0.1405 -0.7921 -0.5940
vn -0.1374 -0.7399 -0.6585
vn -0.6585 -0.7500 -0.0624
vn -0.3047 -0.7750 -0.5537
vn -0.6109 0.0712 -0.7885
vn -0.6586 -0.7499 -0.0623
vn -0.6110 0.0712 -0.7884
vn -0.9651 0.2123 -0.1534
vn -0.9620 0.2256 -0.1536
vn -0.8481 0.1038 -0.5196
vn -0.9099 0.0596 -0.4106
vn -0.9807 0.1235 -0.1516
vn -0.0940 -0.5911 -0.8011
vn 0.1170 -0.9574 -0.2640
vn 0.1171 -0.9574 -0.2640
vn -0.4338 -0.7045 -0.5617
vn 0.1980 -0.4832 -0.8528
vn 0.4730 -0.7578 -0.4495
vn 0.2335 -0.8788 -0.4162
vn 0.2335 -0.8788 -0.4161
vn -0.0941 -0.5910 -0.8011
vn -0.8989 0.4105 -0.1530
vn -0.7692 0.3098 -0.5589
vn -0.8481 0.1038 -0.5195
vn -0.9098 0.0595 -0.4107
vn -0.7887 -0.2341 -0.5684
vn -0.9594 -0.2498 -0.1307
vn -0.9099 0.0595 -0.4106
vn 0.1125 -0.9916 0.0637
vn 0.1125 -0.9916 0.0636
vn -0.5886 -0.8069 -0.0492
vn 0.2336 -0.8789 -0.4160
vn 0.1127 -0.9916 0.0636
vn -0.8481 0.1037 -0.5197
vn -0.4884 -0.2329 -0.8409
vn -0.7887 -0.2341 -0.5685
vn -0.8481 0.1037 -0.5196
vn -0.9098 0.0595 -0.4108
vn 0.7706 -0.6208 0.1438
vn 0.6981 -0.6229 -0.3529
vn 0.7706 -0.6208 0.1437
vn 0.3347 -0.7617 -0.5548
vn -0.1501 -0.8914 -0.4277
vn -0.0187 -0.8043 -0.5940
vn -0.0187 -0.8043 -0.5939
vn 0.3266 -0.6696 -0.6670
vn -0.1502 -0.8914 -0.4276
vn -0.3879 -0.9216 -0.0141
vn -0.1895 -0.9817 0.0182
vn -0.1897 -0.9817 0.0182
vn -0.0189 -0.8043 -0.5940
vn 0.0591 0.6690 -0.7409
vn 0.3519 0.8006 -0.4850
vn 0.5611 0.5517 -0.6171
vn 0.0592 0.6690 -0.7409
vn 0.5610 0.5517 -0.6171
vn 0.0871 0.4372 -0.8951
vn 0.7620 -0.4938 -0.4191
vn 0.8838 -0.4424 0.1523
vn 0.8800 0.4623 0.1089
vn 0.7620 -0.4937 -0.4190
vn 0.8799 0.4624 0.1089
vn 0.7594 0.3063 -0.5741
vn 0.2992 -0.6449 -0.7033
vn 0.7619 -0.4937 -0.4192
vn 0.7594 0.3063 -0.5740
vn 0.7593 0.3063 -0.5741
vn 0.2485 0.0552 -0.9671
vn 0.1322 0.1828 -0.9742
vn 0.5113 0.2757 -0.8140
vn 0.7240 -0.0424 -0.6885
vn 0.1642 -0.0795 -0.9832
vn -0.7024 0.6983 -0.1374
vn -0.4583 0.7201 -0.5210
vn -0.5883 0.3997 -0.7029
vn -0.7024 0.6984 -0.1374
vn -0.5882 0.3998 -0.7030
vn -0.9325 0.3268 -0.1540
vn 0.3520 0.8007 -0.4848
vn 0.4405 0.8974 0.0230
vn 0.5653 0.8236 0.0450
vn 0.5653 0.8237 0.0450
vn 0.1643 -0.0797 -0.9832
vn 0.7316 -0.3936 -0.5567
vn 0.7314 -0.3938 -0.5568
vn 0.2025 -0.4691 -0.8596
vn -0.9836 -0.1126 -0.1409
vn -0.5961 0.0029 -0.8029
vn -0.5316 -0.3555 -0.7688
vn -0.9836 -0.1127 -0.1408
vn -0.8721 -0.4774 -0.1070
vn 0.7314 -0.3937 -0.5567
vn 0.6127 -0.7078 -0.3515
vn 0.2024 -0.4692 -0.8596
vn 0.6126 -0.7079 -0.3515
vn 0.2376 -0.8481 -0.4736
vn -0.4038 -0.6530 -0.6407
vn -0.6780 -0.7321 -0.0663
vn 0.8657 -0.4772 0.1512
vn 0.9024 -0.4029 0.1531
vn 0.7240 -0.0423 -0.6885
vn 0.7315 -0.3937 -0.5566
vn 0.2341 -0.9689 0.0806
vn -0.3191 -0.9477 -0.0026
vn -0.1786 -0.8740 -0.4518
vn 0.2374 -0.8482 -0.4734
vn -0.6780 -0.7321 -0.0662
vn -0.4038 -0.6531 -0.6407
vn -0.1788 -0.8740 -0.4518
vn -0.1787 -0.8740 -0.4519
vn -0.3192 -0.9477 -0.0026
vn 0.7315 -0.3938 -0.5567
vn 0.6657 -0.7341 0.1336
vn 0.7315 -0.3937 -0.5567
vn 0.6657 -0.7342 0.1336
vn 0.6127 -0.7079 -0.3514
vn -0.5883 0.3998 -0.7029
vn -0.5962 0.0028 -0.8028
vn -0.9325 0.3268 -0.1541
vn -0.9836 -0.1125 -0.1409
vn 0.0871 0.4371 -0.8952
vn 0.5113 0.2758 -0.8140
vn 0.0870 0.4370 -0.8952
vn 0.1320 0.1828 -0.9743
vn -0.5961 0.0028 -0.8029
vn 0.6656 -0.7342 0.1336
vn 0.2376 -0.8481 -0.4735
vn 0.6656 -0.7343 0.1336
vn 0.2376 -0.8482 -0.4734
vn -0.4036 -0.6532 -0.6407
vn 0.2023 -0.4692 -0.8596
vn 0.2375 -0.8481 -0.4736
vn -0.4037 -0.6530 -0.6408
vn -0.1786 -0.8740 -0.4519
vn -0.5315 -0.3556 -0.7688
vn 0.1642 -0.0797 -0.9832
vn 0.2023 -0.4691 -0.8596
vn -0.5315 -0.3555 -0.7689
vn -0.5962 0.0029 -0.8028
vn 0.1321 0.1827 -0.9743
vn 0.1641 -0.0796 -0.9832
vn -0.5314 -0.3556 -0.7689
vn -0.3048 -0.7748 -0.5538
vn 0.2991 -0.6449 -0.7033
vn 0.2486 0.0552 -0.9670
vn -0.3048 -0.7748 -0.5539
vn 0.2484 0.0552 -0.9671
vn -0.4582 0.7200 -0.5212
vn 0.0590 0.6690 -0.7410
vn -0.4582 0.7200 -0.5211
vn -0.5883 0.3998 -0.7030
vn 0.6980 -0.6230 -0.3531
vn 0.3267 -0.6696 -0.6670
vn 0.3267 -0.6695 -0.6671
vn 0.7108 -0.5605 -0.4249
vn -0.0888 0.9942 -0.0603
vn 0.2851 0.9585 -0.0030
vn 0.3061 0.7990 -0.5177
vn -0.0888 0.9942 -0.0604
vn 0.3060 0.7990 -0.5177
vn 0.5754 -0.5389 -0.6152
vn 0.3432 -0.7484 -0.5675
vn 0.3181 -0.7475 -0.5831
vn 0.6476 -0.5822 -0.4916
vn 0.6377 -0.3754 -0.6726
vn 0.5755 -0.5389 -0.6152
vn 0.6476 -0.5821 -0.4917
vn 0.7499 -0.3071 -0.5860
vn -0.6522 0.4893 -0.5790
vn -0.8490 -0.1665 -0.5014
vn -0.3142 0.1470 -0.9379
vn -0.3142 0.1469 -0.9379
vn -0.6097 0.4853 -0.6267
vn -0.5235 -0.6931 -0.4956
vn 0.1404 -0.7921 -0.5940
vn -0.5234 -0.6932 -0.4955
vn 0.1405 -0.7922 -0.5939
vn 0.1601 -0.4811 -0.8619
vn 0.6376 -0.3754 -0.6727
vn 0.6289 0.1544 -0.7620
vn 0.7755 0.2629 -0.5740
vn 0.6376 -0.3755 -0.6727
vn 0.7755 0.2629 -0.5741
vn 0.8083 -0.3372 -0.4827
vn 0.6290 0.1543 -0.7619
vn 0.5925 0.6777 -0.4355
vn 0.5926 0.6775 -0.4356
vn 0.7755 0.2628 -0.5740
vn -0.4665 0.5420 -0.6990
vn -0.6521 0.4894 -0.5791
vn -0.4665 0.5420 -0.6989
vn -0.6099 0.4853 -0.6265
vn -0.3789 0.6000 -0.7046
vn 0.3005 0.6584 -0.6901
vn 0.3060 0.7989 -0.5178
vn 0.4569 0.5315 -0.7133
vn 0.3059 0.7990 -0.5177
vn -0.0368 -0.7415 -0.6700
vn 0.3431 -0.7484 -0.5675
vn 0.3266 -0.6695 -0.6672
vn 0.3266 -0.6696 -0.6671
vn -0.0187 -0.8042 -0.5941
vn -0.2936 -0.6871 -0.6646
vn -0.0368 -0.7415 -0.6699
vn -0.0189 -0.8042 -0.5941
vn -0.2938 -0.6871 -0.6645
vn -0.0188 -0.8043 -0.5940
vn -0.1374 -0.7400 -0.6584
vn 0.3003 0.6585 -0.6900
vn -0.1372 0.6366 -0.7589
vn -0.0394 0.7583 -0.6507
vn 0.3003 0.6585 -0.6901
vn 0.3433 -0.7484 -0.5675
vn 0.3266 -0.6695 -0.6671
vn 0.2771 0.6480 -0.7094
vn 0.3755 0.1875 -0.9077
vn -0.0224 0.2025 -0.9790
vn 0.2770 0.6480 -0.7095
vn -0.1384 0.7017 -0.6989
vn 0.3777 -0.3162 -0.8703
vn 0.3181 -0.7475 -0.5832
vn -0.0468 -0.8232 -0.5659
vn 0.3777 -0.3163 -0.8702
vn -0.0467 -0.8232 -0.5659
vn 0.0172 -0.3987 -0.9169
vn -0.1905 -0.5064 -0.8410
vn -0.2671 -0.8277 -0.4935
vn -0.5181 -0.8063 -0.2855
vn -0.6389 -0.6514 -0.4092
vn -0.4537 0.6817 -0.5739
vn -0.2812 0.1327 -0.9504
vn -0.8031 -0.0724 -0.5915
vn -0.4536 0.6818 -0.5739
vn -0.8031 -0.0724 -0.5914
vn -0.7229 0.6065 -0.3310
vn 0.7498 -0.3071 -0.5861
vn 0.6476 -0.5821 -0.4918
vn 0.3181 -0.7474 -0.5832
vn 0.3778 -0.3162 -0.8702
vn 0.5467 0.6297 -0.5519
vn 0.3755 0.1876 -0.9076
vn 0.3755 0.1875 -0.9076
vn 0.2772 0.6480 -0.7094
vn -0.4666 0.5420 -0.6989
vn -0.1372 0.6367 -0.7588
vn -0.1385 0.7017 -0.6989
vn -0.4665 0.5421 -0.6990
vn -0.4537 0.6819 -0.5738
vn -0.8491 -0.1664 -0.5014
vn -0.8030 -0.0723 -0.5915
vn -0.5234 -0.6931 -0.4957
vn -0.6390 -0.6512 -0.4094
vn -0.1372 0.6368 -0.7587
vn 0.3003 0.6586 -0.6900
vn 0.2770 0.6481 -0.7094
vn 0.3005 0.6585 -0.6900
vn 0.4569 0.5316 -0.7132
vn 0.5467 0.6298 -0.5517
vn 0.2772 0.6481 -0.7093
vn -0.4037 0.7764 -0.4840
vn 0.0663 0.6653 -0.7437
vn 0.0590 0.6689 -0.7410
vn -0.4036 0.7764 -0.4841
vn 0.0590 0.6690 -0.7409
vn 0.3789 0.7922 -0.4784
vn 0.4051 0.9141 0.0169
vn 0.4406 0.8974 0.0229
vn 0.4405 0.8975 0.0229
vn 0.3520 0.8006 -0.4848
vn -0.5825 0.8033 -0.1245
vn -0.4037 0.7764 -0.4839
vn -0.4583 0.7200 -0.5211
vn 0.0664 0.6654 -0.7435
vn 0.3790 0.7921 -0.4784
vn 0.0664 0.6653 -0.7436
vn -0.4538 0.6818 -0.5738
vn -0.6522 0.4894 -0.5789
vn -0.1385 0.7016 -0.6990
vn -0.0226 0.2025 -0.9790
vn -0.2812 0.1328 -0.9504
vn -0.1386 0.7016 -0.6989
vn -0.2813 0.1327 -0.9504
vn -0.4537 0.6818 -0.5739
vn -0.2671 -0.8278 -0.4934
vn -0.3070 -0.7726 -0.5557
vn -0.1374 -0.7400 -0.6585
vn -0.3068 -0.7726 -0.5558
vn -0.1373 -0.7399 -0.6585
vn 0.1405 -0.7922 -0.5938
vn -0.4665 0.5421 -0.6989
vn -0.3790 0.6000 -0.7046
vn -0.3789 0.5999 -0.7047
vn -0.1895 -0.9817 0.0183
vn -0.1634 -0.9863 0.0222
vn -0.1373 -0.7400 -0.6585
vn -0.0187 -0.8042 -0.5940
vn -0.7518 0.6439 -0.1422
vn -0.4678 0.8768 -0.1110
vn -0.7518 0.6438 -0.1423
vn -0.3790 0.5998 -0.7047
vn -0.6098 0.4853 -0.6266
vn -0.2671 -0.8279 -0.4933
vn -0.0368 -0.7416 -0.6699
vn -0.7518 0.6438 -0.1422
vn -0.7519 0.6438 -0.1422
vn -0.8989 0.4107 -0.1530
vn 0.1601 -0.4812 -0.8619
vn 0.1393 -0.7909 -0.5958
vn 0.4730 -0.7577 -0.4496
vn 0.1602 -0.4811 -0.8619
vn 0.4784 -0.8709 0.1123
vn 0.1403 -0.7922 -0.5939
vn 0.4785 -0.8709 0.1122
vn -0.6098 0.4852 -0.6267
vn -0.3313 -0.0930 -0.9389
vn -0.7692 0.3097 -0.5590
vn 0.1600 -0.4810 -0.8620
vn 0.1979 -0.4830 -0.8530
vn -0.3143 0.1470 -0.9379
vn 0.1979 -0.4831 -0.8529
vn -0.3314 -0.0929 -0.9389
vn -0.0225 0.2024 -0.9791
vn 0.0172 -0.3986 -0.9170
vn -0.1905 -0.5062 -0.8411
vn -0.0226 0.2023 -0.9791
vn -0.2812 0.1326 -0.9504
vn -0.3067 -0.7726 -0.5559
vn -0.6389 -0.6514 -0.4093
vn -0.6390 -0.6513 -0.4092
vn 0.7498 -0.3070 -0.5861
vn 0.3778 -0.3161 -0.8702
vn 0.7283 0.2057 -0.6537
vn 0.3756 0.1874 -0.9076
vn -0.8030 -0.0723 -0.5916
vn 0.3777 -0.3161 -0.8703
vn 0.0173 -0.3986 -0.9170
vn 0.3755 0.1874 -0.9077
vn -0.0225 0.2025 -0.9790
vn 0.8083 -0.3372 -0.4826
vn 0.5753 -0.5390 -0.6152
vn -0.5235 -0.6931 -0.4955
vn -0.8491 -0.1664 -0.5013
vn 0.1601 -0.4810 -0.8620
vn 0.6377 -0.3753 -0.6727
vn 0.7500 -0.3070 -0.5860
vn 0.7500 -0.3070 -0.5859
vn -0.7887 -0.2343 -0.5684
vn -0.4339 -0.7045 -0.5617
vn -0.5885 -0.8070 -0.0492
vn -0.5886 -0.8070 -0.0492
vn -0.9594 -0.2498 -0.1308
vn -0.3314 -0.0930 -0.9389
vn -0.0941 -0.5909 -0.8012
vn -0.4883 -0.2329 -0.8410
vn -0.4884 -0.2330 -0.8410
vn -0.4338 -0.7044 -0.5617
vn 0.9219 0.3684 0.1195
vn 0.9606 -0.2318 0.1537
vn 0.8082 -0.3371 -0.4828
vn 0.8082 -0.3372 -0.4828
vn 0.7754 0.2629 -0.5742
vn 0.3346 -0.7617 -0.5548
vn -0.1501 -0.8913 -0.4278
vn -0.3047 -0.7748 -0.5539
vn 0.3348 -0.7617 -0.5547
vn 0.7619 -0.4939 -0.4191
vn 0.3348 -0.7617 -0.5548
vn 0.2993 -0.6449 -0.7032
vn 0.6980 -0.6231 -0.3529
vn 0.8838 -0.4425 0.1522
vn 0.6981 -0.6230 -0.3529
vn 0.8837 -0.4426 0.1522
vn 0.7620 -0.4938 -0.4189
vn -0.3880 -0.9216 -0.0141
vn -0.3048 -0.7749 -0.5537
vn -0.6584 -0.7501 -0.0623
vn 0.2484 0.0550 -0.9671
vn 0.7594 0.3062 -0.5741
vn 0.3790 0.7921 -0.4785
vn 0.2486 0.0550 -0.9671
vn 0.0664 0.6653 -0.7437
vn -0.9651 0.2121 -0.1534
vn -0.4037 0.7765 -0.4839
vn -0.9651 0.2122 -0.1534
vn -0.5825 0.8032 -0.1245
vn 0.4052 0.9141 0.0169
vn 0.3791 0.7921 -0.4783
vn -0.6110 0.0711 -0.7884
vn 0.2486 0.0550 -0.9670
vn -0.6111 0.0710 -0.7884
vn -0.8939 0.3493 0.2809
vn -0.9608 0.1396 0.2394
vn -0.7145 -0.1609 0.6809
vn -0.8939 0.3494 0.2808
vn -0.5908 -0.0103 0.8068
vn 0.3118 -0.7065 0.6353
vn 0.0907 -0.8334 0.5452
vn 0.4143 -0.9041 0.1044
vn 0.6288 -0.2801 0.7254
vn 0.5494 -0.5090 0.6627
vn 0.9605 -0.2318 0.1537
vn 0.5494 -0.5090 0.6626
vn 0.8263 -0.5433 0.1485
vn 0.6176 0.7846 0.0548
vn 0.4500 0.7230 0.5242
vn 0.5791 0.3253 0.7476
vn 0.5791 0.3254 0.7475
vn 0.9219 0.3685 0.1195
vn -0.4832 -0.6268 0.6112
vn -0.4100 -0.7823 0.4689
vn -0.5895 -0.7836 0.1961
vn -0.4833 -0.6268 0.6113
vn -0.5896 -0.7835 0.1960
vn -0.4654 -0.7221 0.5118
vn -0.9602 -0.1310 0.2467
vn -0.9410 -0.0284 0.3373
vn -0.7794 0.6246 0.0496
vn -0.9602 -0.1311 0.2466
vn -0.7794 0.6245 0.0498
vn -0.7852 0.5317 0.3172
vn 0.2378 0.6013 0.7628
vn 0.3718 0.6854 0.6261
vn 0.5102 0.2752 0.8148
vn 0.5102 0.2752 0.8149
vn 0.3829 0.2326 0.8940
vn 0.1535 -0.6881 0.7092
vn 0.1249 -0.6861 0.7168
vn -0.2201 -0.7681 0.6013
vn 0.1534 -0.6881 0.7092
vn -0.2397 -0.6769 0.6960
vn 0.1537 0.8475 0.5081
vn 0.4499 0.7231 0.5242
vn 0.2852 0.9585 -0.0029
vn 0.6175 0.7846 0.0546
vn -0.4677 0.8769 -0.1109
vn -0.5589 0.6572 0.5058
vn -0.2160 0.8146 0.5382
vn -0.2162 0.8146 0.5382
vn -0.0890 0.9942 -0.0602
vn -0.1636 -0.9863 0.0224
vn -0.3325 -0.6778 0.6557
vn -0.0489 -0.7319 0.6797
vn -0.1637 -0.9863 0.0224
vn -0.0488 -0.7320 0.6795
vn -0.6586 -0.7499 -0.0624
vn -0.9651 0.2123 -0.1535
vn -0.8124 0.1353 0.5672
vn -0.6585 -0.7500 -0.0623
vn -0.4628 -0.7246 0.5106
vn -0.9807 0.1235 -0.1515
vn -0.9889 0.0847 0.1217
vn -0.9889 0.0848 0.1217
vn -0.9608 0.1397 0.2393
vn -0.3306 -0.5158 0.7904
vn -0.5877 -0.6555 0.4743
vn 0.0223 -0.9272 0.3739
vn -0.3305 -0.5158 0.7904
vn -0.0645 -0.3996 0.9144
vn -0.3305 -0.5156 0.7905
vn 0.0908 -0.8333 0.5453
vn 0.0907 -0.8333 0.5453
vn 0.3118 -0.7064 0.6354
vn -0.8989 0.4105 -0.1529
vn -0.9621 0.2256 -0.1536
vn -0.9609 0.1397 0.2393
vn -0.8939 0.3495 0.2807
vn -0.9889 0.0847 0.1218
vn -0.9228 -0.1914 0.3343
vn -0.5879 -0.6554 0.4742
vn -0.5886 -0.8069 -0.0493
vn -0.5877 -0.6555 0.4742
vn 0.0909 -0.8334 0.5452
vn 0.0224 -0.9272 0.3739
vn 0.1126 -0.9916 0.0637
vn 0.0908 -0.8334 0.5452
vn -0.9228 -0.1914 0.3344
vn 0.7707 -0.6208 0.1440
vn 0.5495 -0.5090 0.6626
vn 0.7706 -0.6208 0.1439
vn 0.5571 -0.5781 0.5962
vn 0.1489 -0.7026 0.6959
vn 0.1098 -0.6006 0.7920
vn -0.2012 -0.7462 0.6346
vn 0.1488 -0.7026 0.6959
vn -0.2013 -0.7462 0.6346
vn -0.2799 -0.8500 0.4462
vn -0.2800 -0.8501 0.4461
vn -0.2014 -0.7462 0.6346
vn -0.1897 -0.9817 0.0183
vn -0.1896 -0.9817 0.0184
vn -0.3879 -0.9216 -0.0140
vn -0.1491 0.7353 0.6611
vn -0.1703 0.5191 0.8376
vn 0.3654 0.6140 0.6996
vn -0.1492 0.7353 0.6611
vn 0.2071 0.8467 0.4901
vn 0.6008 -0.4424 0.6658
vn 0.5643 0.3684 0.7388
vn 0.8800 0.4624 0.1088
vn 0.6007 -0.4425 0.6658
vn 0.8800 0.4623 0.1088
vn 0.0735 -0.5730 0.8163
vn -0.0420 0.1477 0.9881
vn 0.0734 -0.5730 0.8163
vn 0.5643 0.3685 0.7388
vn 0.6007 -0.4424 0.6659
vn -0.1536 0.2738 0.9495
vn -0.1291 0.0138 0.9915
vn 0.4925 0.0314 0.8697
vn -0.1536 0.2738 0.9494
vn 0.4925 0.0312 0.8698
vn 0.2569 0.3567 0.8982
vn -0.7613 0.4549 0.4620
vn -0.7025 0.6983 -0.1374
vn -0.7614 0.4548 0.4620
vn -0.5799 0.7587 0.2969
vn 0.2072 0.8468 0.4899
vn 0.3655 0.6140 0.6996
vn 0.2072 0.8467 0.4900
vn 0.5655 0.8235 0.0451
vn 0.4406 0.8974 0.0231
vn -0.1291 0.0137 0.9915
vn -0.0620 -0.3848 0.9209
vn 0.5330 -0.3305 0.7789
vn 0.5331 -0.3306 0.7788
vn 0.4925 0.0313 0.8698
vn -0.8722 -0.4773 -0.1070
vn -0.7365 -0.2904 0.6109
vn -0.7366 -0.2903 0.6109
vn -0.8033 0.0688 0.5916
vn -0.0620 -0.3850 0.9208
vn 0.0783 -0.7974 0.5983
vn 0.4746 -0.6638 0.5780
vn -0.0621 -0.3850 0.9208
vn 0.4746 -0.6639 0.5779
vn 0.5330 -0.3306 0.7788
vn -0.8721 -0.4774 -0.1069
vn -0.6781 -0.7320 -0.0660
vn -0.5812 -0.5966 0.5535
vn -0.8722 -0.4773 -0.1068
vn -0.7365 -0.2904 0.6110
vn 0.4926 0.0314 0.8697
vn 0.5331 -0.3305 0.7788
vn 0.9023 -0.4029 0.1532
vn 0.0782 -0.7976 0.5982
vn -0.3140 -0.8309 0.4593
vn -0.3140 -0.8310 0.4593
vn -0.3191 -0.9477 -0.0025
vn -0.6780 -0.7321 -0.0660
vn -0.3141 -0.8309 0.4593
vn 0.4747 -0.6639 0.5779
vn 0.5332 -0.3305 0.7788
vn 0.6657 -0.7342 0.1337
vn -0.9325 0.3268 -0.1539
vn -0.9836 -0.1125 -0.1408
vn -0.9325 0.3267 -0.1540
vn -0.8033 0.0688 0.5915
vn 0.2569 0.3568 0.8982
vn -0.1703 0.5190 0.8376
vn -0.8033 0.0690 0.5916
vn -0.1538 0.2738 0.9494
vn -0.1538 0.2737 0.9494
vn -0.1705 0.5190 0.8376
vn 0.0783 -0.7975 0.5982
vn 0.6656 -0.7342 0.1337
vn 0.0784 -0.7975 0.5982
vn -0.5811 -0.5965 0.5536
vn 0.0782 -0.7974 0.5983
vn -0.0622 -0.3850 0.9208
vn -0.7365 -0.2902 0.6110
vn -0.7365 -0.2903 0.6110
vn -0.0622 -0.3849 0.9209
vn -0.1292 0.0138 0.9915
vn -0.7366 -0.2902 0.6109
vn -0.1292 0.0137 0.9915
vn -0.1292 0.0139 0.9915
vn -0.1537 0.2737 0.9494
vn -0.4630 -0.7244 0.5107
vn -0.8124 0.1353 0.5671
vn -0.0418 0.1476 0.9882
vn -0.4630 -0.7245 0.5107
vn -0.0419 0.1477 0.9881
vn 0.0734 -0.5730 0.8162
vn -0.5797 0.7588 0.2970
vn -0.1704 0.5191 0.8376
vn -0.5798 0.7587 0.2970
vn -0.1703 0.5192 0.8375
vn -0.1493 0.7353 0.6611
vn 0.5570 -0.5781 0.5963
vn 0.5493 -0.5090 0.6627
vn 0.1100 -0.6005 0.7920
vn 0.5569 -0.5781 0.5963
vn 0.1099 -0.6006 0.7920
vn 0.1489 -0.7025 0.6959
vn -0.0888 0.9942 -0.0601
vn 0.1536 0.8475 0.5081
vn -0.0888 0.9942 -0.0602
vn 0.3648 -0.4719 0.8027
vn 0.4691 -0.5254 0.7099
vn 0.1250 -0.6861 0.7167
vn 0.3648 -0.4718 0.8027
vn 0.1250 -0.6860 0.7168
vn 0.1536 -0.6880 0.7092
vn 0.4100 -0.3029 0.8603
vn 0.5434 -0.2413 0.8041
vn 0.4691 -0.5253 0.7099
vn 0.4691 -0.5253 0.7100
vn -0.7853 0.5317 0.3172
vn -0.7586 0.5327 0.3752
vn -0.5707 0.2286 0.7887
vn -0.7853 0.5318 0.3172
vn -0.5707 0.2287 0.7887
vn -0.9602 -0.1310 0.2466
vn -0.6542 -0.6514 0.3842
vn -0.1034 -0.3972 0.9119
vn -0.6543 -0.6514 0.3841
vn 0.4099 -0.3028 0.8604
vn 0.6288 -0.2800 0.7254
vn 0.4098 -0.3028 0.8605
vn 0.5790 0.3255 0.7475
vn 0.3829 0.2327 0.8940
vn 0.5792 0.3253 0.7475
vn 0.3830 0.2327 0.8940
vn 0.2376 0.6014 0.7628
vn -0.6417 0.5978 0.4804
vn -0.5587 0.6573 0.5058
vn -0.7586 0.5328 0.3752
vn -0.7586 0.5327 0.3753
vn 0.2376 0.6013 0.7629
vn 0.1536 0.8474 0.5082
vn 0.0964 0.7234 0.6837
vn -0.2013 -0.7460 0.6347
vn 0.1098 -0.6005 0.7920
vn 0.1534 -0.6880 0.7093
vn -0.4833 -0.6268 0.6112
vn -0.3326 -0.6779 0.6556
vn -0.4832 -0.6267 0.6113
vn -0.2014 -0.7461 0.6347
vn 0.0962 0.7234 0.6836
vn 0.1535 0.8475 0.5081
vn -0.2160 0.8145 0.5384
vn -0.3427 0.7020 0.6243
vn 0.1100 -0.6006 0.7920
vn 0.1535 -0.6879 0.7094
vn 0.0682 0.7146 0.6962
vn -0.3256 0.7612 0.5608
vn -0.3027 0.2918 0.9073
vn 0.0682 0.7145 0.6963
vn -0.3027 0.2917 0.9073
vn 0.0986 0.2757 0.9562
vn 0.1047 -0.2294 0.9677
vn -0.2549 -0.3120 0.9152
vn -0.2202 -0.7679 0.6015
vn 0.1046 -0.2293 0.9677
vn -0.4332 -0.4291 0.7926
vn -0.7390 -0.6194 0.2648
vn -0.5896 -0.7835 0.1961
vn -0.4101 -0.7822 0.4690
vn -0.5912 0.7256 0.3521
vn -0.7793 0.6247 0.0496
vn -0.9410 -0.0285 0.3372
vn -0.5430 0.2160 0.8115
vn 0.5433 -0.2413 0.8041
vn 0.1048 -0.2293 0.9677
vn 0.4690 -0.5253 0.7100
vn 0.3717 0.6854 0.6262
vn 0.0684 0.7145 0.6963
vn 0.3717 0.6854 0.6261
vn 0.0987 0.2756 0.9562
vn 0.5101 0.2752 0.8149
vn -0.6418 0.5978 0.4804
vn -0.5912 0.7257 0.3519
vn -0.3257 0.7613 0.5607
vn -0.3256 0.7613 0.5607
vn -0.3427 0.7022 0.6241
vn -0.6542 -0.6513 0.3844
vn -0.7390 -0.6195 0.2648
vn -0.6542 -0.6515 0.3842
vn -0.9410 -0.0284 0.3372
vn -0.3426 0.7022 0.6241
vn 0.0962 0.7235 0.6835
vn 0.0964 0.7235 0.6836
vn 0.0684 0.7146 0.6962
vn 0.3717 0.6856 0.6260
vn 0.2377 0.6014 0.7628
vn -0.5160 0.8121 0.2723
vn -0.5161 0.8122 0.2722
vn -0.1432 0.7320 0.6661
vn 0.2347 0.8381 0.4924
vn 0.2071 0.8468 0.4900
vn 0.4405 0.8975 0.0230
vn 0.2348 0.8381 0.4924
vn 0.4405 0.8974 0.0231
vn 0.4051 0.9141 0.0170
vn -0.5798 0.7587 0.2969
vn -0.5798 0.7588 0.2969
vn -0.5160 0.8122 0.2721
vn -0.1430 0.7320 0.6662
vn -0.1430 0.7321 0.6660
vn 0.2347 0.8380 0.4926
vn -0.7853 0.5318 0.3171
vn -0.7794 0.6245 0.0496
vn -0.5913 0.7256 0.3520
vn -0.7852 0.5318 0.3172
vn -0.6418 0.5978 0.4803
vn -0.3257 0.7612 0.5608
vn -0.5913 0.7255 0.3520
vn -0.5430 0.2161 0.8115
vn -0.3256 0.7613 0.5608
vn -0.2549 -0.3120 0.9153
vn -0.4331 -0.4291 0.7926
vn -0.2550 -0.3120 0.9152
vn -0.0488 -0.7320 0.6796
vn -0.3326 -0.6777 0.6558
vn -0.4654 -0.7222 0.5117
vn -0.3325 -0.6779 0.6557
vn -0.3427 0.7021 0.6243
vn -0.2161 0.8145 0.5384
vn -0.5587 0.6572 0.5059
vn -0.3427 0.7021 0.6242
vn -0.5588 0.6572 0.5058
vn -0.6417 0.5979 0.4804
vn -0.3325 -0.6778 0.6558
vn -0.1636 -0.9863 0.0225
vn -0.7519 0.6439 -0.1420
vn -0.7518 0.6439 -0.1421
vn -0.5588 0.6572 0.5059
vn -0.4678 0.8768 -0.1109
vn -0.2397 -0.6769 0.6959
vn -0.2202 -0.7681 0.6013
vn -0.7519 0.6438 -0.1421
vn -0.8989 0.4107 -0.1529
vn -0.7518 0.6438 -0.1421
vn -0.1033 -0.3972 0.9119
vn -0.0489 -0.7320 0.6796
vn 0.3119 -0.7065 0.6353
vn 0.4785 -0.8709 0.1123
vn -0.0487 -0.7320 0.6796
vn -0.8939 0.3494 0.2807
vn -0.7586 0.5326 0.3752
vn -0.5906 -0.0104 0.8069
vn -0.5708 0.2286 0.7886
vn -0.5907 -0.0104 0.8068
vn -0.0646 -0.3994 0.9145
vn -0.5708 0.2285 0.7886
vn -0.0647 -0.3994 0.9145
vn -0.1036 -0.3971 0.9119
vn -0.3028 0.2916 0.9074
vn -0.5429 0.2160 0.8115
vn -0.4332 -0.4290 0.7927
vn -0.4332 -0.4289 0.7927
vn -0.2550 -0.3119 0.9153
vn -0.4653 -0.7222 0.5118
vn -0.7391 -0.6195 0.2646
vn -0.4653 -0.7221 0.5119
vn -0.7391 -0.6194 0.2648
vn -0.6541 -0.6515 0.3842
vn 0.1048 -0.2292 0.9677
vn 0.5433 -0.2412 0.8042
vn -0.9410 -0.0285 0.3371
vn -0.7391 -0.6194 0.2645
vn -0.4333 -0.4290 0.7926
vn 0.0986 0.2756 0.9562
vn -0.2549 -0.3119 0.9153
vn 0.1048 -0.2291 0.9677
vn 0.3647 -0.4719 0.8027
vn 0.6288 -0.2801 0.7253
vn 0.4098 -0.3029 0.8604
vn -0.9602 -0.1309 0.2466
vn -0.9602 -0.1312 0.2467
vn 0.3829 0.2328 0.8940
vn 0.5435 -0.2412 0.8040
vn 0.4099 -0.3029 0.8604
vn -0.9228 -0.1916 0.3343
vn -0.5885 -0.8070 -0.0493
vn -0.5878 -0.6555 0.4742
vn -0.7144 -0.1609 0.6810
vn -0.3306 -0.5157 0.7904
vn -0.3304 -0.5157 0.7905
vn -0.0647 -0.3995 0.9144
vn -0.7145 -0.1611 0.6809
vn -0.9228 -0.1915 0.3343
vn -0.5877 -0.6554 0.4743
vn -0.7145 -0.1610 0.6809
vn -0.3305 -0.5157 0.7905
vn 0.9220 0.3684 0.1195
vn 0.5790 0.3254 0.7476
vn 0.6287 -0.2800 0.7255
vn -0.2799 -0.8500 0.4463
vn -0.4629 -0.7245 0.5108
vn 0.0734 -0.5731 0.8162
vn -0.2800 -0.8500 0.4462
vn 0.1490 -0.7025 0.6959
vn 0.0736 -0.5730 0.8162
vn 0.6007 -0.4426 0.6658
vn 0.6008 -0.4425 0.6657
vn 0.8837 -0.4425 0.1522
vn 0.5570 -0.5782 0.5961
vn -0.3880 -0.9216 -0.0140
vn -0.4630 -0.7246 0.5105
vn -0.3879 -0.9216 -0.0139
vn -0.4630 -0.7245 0.5106
vn -0.2801 -0.8500 0.4461
vn -0.0419 0.1475 0.9882
vn 0.2347 0.8380 0.4925
vn 0.5643 0.3683 0.7388
vn -0.5161 0.8122 0.2721
vn -0.9651 0.2121 -0.1535
vn -0.8124 0.1352 0.5672
vn 0.5644 0.3683 0.7388
vn 0.2348 0.8381 0.4925
vn 0.4052 0.9141 0.0170
vn -0.8124 0.1351 0.5672
vn -0.1431 0.7320 0.6661
vn 0.1110 -0.8673 0.4852
vn 0.1910 -0.9787 0.0747
vn 0.4193 -0.8134 0.4032
vn -0.1910 0.9787 -0.0747
vn -0.2351 0.9068 0.3499
vn 0.0730 0.9607 0.2678
vn 0.1909 -0.9788 0.0747
vn 0.5833 -0.8026 0.1247
vn -0.1910 0.9788 -0.0746
vn 0.0731 0.9607 0.2678
vn 0.2372 0.9714 -0.0108
vn 0.1910 -0.9788 0.0746
vn 0.5070 -0.8414 -0.1873
vn 0.2371 0.9714 -0.0107
vn 0.1609 0.9328 -0.3226
vn 0.2351 -0.9068 -0.3499
vn 0.1608 0.9328 -0.3226
vn -0.1111 0.8673 -0.4852
vn -0.1110 0.8673 -0.4852
vn -0.4193 0.8134 -0.4031
vn 0.2352 -0.9068 -0.3499
vn -0.0730 -0.9607 -0.2678
vn -0.2370 -0.9715 0.0108
vn -0.4194 0.8133 -0.4032
vn -0.5833 0.8027 -0.1246
vn -0.2371 -0.9714 0.0108
vn -0.1610 -0.9327 0.3226
vn -0.1910 0.9787 -0.0746
vn -0.5832 0.8027 -0.1246
vn -0.5070 0.8414 0.1873
vn -0.1608 -0.9328 0.3226
vn 0.1910 -0.9788 0.0747
vn 0.1111 -0.8673 0.4853
vn -0.1910 0.9788 -0.0747
vn -0.5069 0.8414 0.1873
vn 0.4193 -0.8134 0.4031
vn 0.5833 -0.8026 0.1246
vn 0.5070 -0.8413 -0.1873
vn 0.5069 -0.8414 -0.1873
vn -0.0730 -0.9607 -0.2677
vn -0.2371 -0.9714 0.0107
vn -0.5069 0.8414 0.1872
vn 0.1111 -0.8673 0.4852
vn -0.2376 0.7034 0.6699
vn -0.2066 0.4024 0.8918
vn 0.4718 0.5211 0.7112
vn -0.2377 0.7035 0.6698
vn 0.4719 0.5211 0.7112
vn 0.2943 0.7965 0.5282
vn -0.1469 0.0467 0.9881
vn -0.0665 -0.3154 0.9466
vn 0.6120 -0.1970 0.7660
vn -0.1468 0.0468 0.9881
vn 0.6120 -0.1969 0.7659
vn 0.5824 0.1742 0.7940
vn 0.0236 -0.6352 0.7720
vn 0.4194 -0.8134 0.4031
vn 0.0235 -0.6353 0.7719
vn 0.5556 -0.5421 0.6304
vn -0.2350 0.9068 0.3499
vn -0.2376 0.7035 0.6698
vn -0.2352 0.9068 0.3498
vn 0.2944 0.7965 0.5282
vn -0.2065 0.4024 0.8919
vn 0.5826 0.1742 0.7939
vn 0.5826 0.1741 0.7939
vn -0.0665 -0.3156 0.9466
vn 0.0235 -0.6352 0.7720
vn 0.5555 -0.5423 0.6303
vn -0.0664 -0.3155 0.9466
vn 0.5556 -0.5422 0.6303
vn 0.6119 -0.1969 0.7660
vn 0.5825 0.1741 0.7940
vn 0.9730 -0.1733 0.1527
vn 0.5825 0.1742 0.7939
vn 0.9706 0.1997 0.1347
vn 0.4194 -0.8133 0.4033
vn 0.5842 -0.8019 0.1253
vn 0.5556 -0.5423 0.6303
vn 0.5833 -0.8027 0.1246
vn 0.8387 -0.5237 0.1494
vn 0.2944 0.7964 0.5282
vn 0.5776 0.8149 0.0473
vn 0.5775 0.8150 0.0472
vn 0.2369 0.9715 -0.0108
vn 0.5825 0.1744 0.7939
vn 0.9706 0.1996 0.1348
vn 0.4718 0.5211 0.7113
vn 0.9706 0.1995 0.1348
vn 0.8328 0.5448 0.0979
vn 0.6120 -0.1970 0.7659
vn 0.8387 -0.5236 0.1494
vn 0.9730 -0.1733 0.1528
vn 0.2945 0.7964 0.5282
vn 0.8329 0.5448 0.0979
vn 0.2944 0.7964 0.5283
vn 0.8328 0.5448 0.0980
vn 0.5775 0.8150 0.0474
vn 0.4458 0.7483 -0.4913
vn 0.2383 0.9711 -0.0111
vn 0.4458 0.7482 -0.4913
vn 0.1610 0.9327 -0.3228
vn 0.9705 0.1997 0.1348
vn 0.7901 0.1082 -0.6034
vn 0.7901 0.1081 -0.6034
vn 0.6649 0.4595 -0.5888
vn 0.8387 -0.5237 0.1492
vn 0.7071 -0.5904 -0.3892
vn 0.9730 -0.1732 0.1527
vn 0.7072 -0.5903 -0.3892
vn 0.8051 -0.2585 -0.5339
vn 0.6650 0.4596 -0.5886
vn 0.5776 0.8150 0.0472
vn 0.6649 0.4597 -0.5887
vn 0.9705 0.1998 0.1347
vn 0.8050 -0.2584 -0.5340
vn 0.8051 -0.2584 -0.5339
vn 0.8388 -0.5236 0.1494
vn 0.5831 -0.8028 0.1246
vn 0.8388 -0.5235 0.1494
vn 0.7071 -0.5904 -0.3893
vn 0.2378 -0.7033 -0.6700
vn 0.8051 -0.2584 -0.5340
vn 0.2378 -0.7033 -0.6699
vn 0.2066 -0.4025 -0.8918
vn 0.4459 0.7482 -0.4913
vn 0.0666 0.3156 -0.9466
vn 0.4457 0.7483 -0.4913
vn 0.0665 0.3155 -0.9466
vn -0.0235 0.6352 -0.7720
vn 0.7901 0.1083 -0.6034
vn 0.2065 -0.4025 -0.8918
vn 0.7901 0.1082 -0.6033
vn 0.2067 -0.4024 -0.8918
vn 0.1468 -0.0468 -0.9881
vn 0.5070 -0.8414 -0.1874
vn 0.2350 -0.9068 -0.3499
vn 0.7070 -0.5904 -0.3892
vn 0.2352 -0.9068 -0.3498
vn 0.2378 -0.7034 -0.6698
vn -0.0236 0.6353 -0.7719
vn -0.0235 0.6353 -0.7719
vn -0.1112 0.8673 -0.4853
vn 0.6650 0.4596 -0.5887
vn 0.7900 0.1081 -0.6034
vn 0.1468 -0.0466 -0.9881
vn 0.6649 0.4596 -0.5887
vn 0.1467 -0.0467 -0.9881
vn -0.0235 0.6351 -0.7720
vn 0.0664 0.3155 -0.9466
vn -0.6119 0.1968 -0.7660
vn -0.0235 0.6351 -0.7721
vn -0.6119 0.1969 -0.7661
vn -0.5557 0.5422 -0.6303
vn -0.4718 -0.5211 -0.7112
vn 0.1468 -0.0467 -0.9881
vn -0.4719 -0.5211 -0.7112
vn -0.5825 -0.1741 -0.7940
vn 0.2351 -0.9068 -0.3500
vn -0.0732 -0.9607 -0.2679
vn 0.2377 -0.7034 -0.6699
vn -0.0730 -0.9607 -0.2679
vn -0.2944 -0.7965 -0.5282
vn -0.1111 0.8673 -0.4853
vn -0.5555 0.5422 -0.6305
vn -0.5555 0.5422 -0.6304
vn -0.4194 0.8134 -0.4031
vn 0.0665 0.3154 -0.9466
vn 0.1467 -0.0466 -0.9881
vn -0.5825 -0.1744 -0.7939
vn -0.6120 0.1969 -0.7660
vn -0.2945 -0.7964 -0.5283
vn 0.2067 -0.4025 -0.8918
vn -0.4718 -0.5211 -0.7113
vn -0.0732 -0.9607 -0.2677
vn -0.2371 -0.9714 0.0109
vn -0.2944 -0.7964 -0.5282
vn -0.5775 -0.8150 -0.0472
vn -0.4192 0.8134 -0.4033
vn -0.5556 0.5422 -0.6303
vn -0.8388 0.5236 -0.1494
vn -0.8387 0.5238 -0.1493
vn -0.5833 0.8026 -0.1246
vn -0.6119 0.1970 -0.7660
vn -0.5825 -0.1742 -0.7939
vn -0.9706 -0.1997 -0.1347
vn -0.6119 0.1969 -0.7660
vn -0.9730 0.1733 -0.1527
vn -0.2945 -0.7964 -0.5282
vn -0.5776 -0.8149 -0.0473
vn -0.8329 -0.5448 -0.0979
vn -0.5557 0.5421 -0.6303
vn -0.9730 0.1733 -0.1528
vn -0.9730 0.1732 -0.1527
vn -0.5824 -0.1742 -0.7940
vn -0.8328 -0.5448 -0.0979
vn -0.8328 -0.5448 -0.0980
vn -0.8387 0.5237 -0.1494
vn -0.7071 0.5904 0.3892
vn -0.5832 0.8027 -0.1247
vn -0.7070 0.5905 0.3892
vn -0.5071 0.8413 0.1871
vn -0.9729 0.1733 -0.1528
vn -0.7900 -0.1082 0.6035
vn -0.7901 -0.1081 0.6034
vn -0.8050 0.2584 0.5340
vn -0.8329 -0.5447 -0.0979
vn -0.4458 -0.7483 0.4913
vn -0.4460 -0.7482 0.4913
vn -0.6650 -0.4596 0.5887
vn -0.8388 0.5235 -0.1494
vn -0.9730 0.1732 -0.1528
vn -0.8051 0.2584 0.5339
vn -0.8388 0.5235 -0.1493
vn -0.8050 0.2584 0.5339
vn -0.7071 0.5903 0.3892
vn -0.9705 -0.1998 -0.1347
vn -0.6649 -0.4596 0.5887
vn -0.9705 -0.1997 -0.1348
vn -0.7901 -0.1082 0.6034
vn -0.5775 -0.8150 -0.0473
vn -0.1608 -0.9327 0.3228
vn -0.4458 -0.7482 0.4913
vn -0.2065 0.4025 0.8918
vn -0.2066 0.4025 0.8918
vn -0.2377 0.7033 0.6699
vn -0.7901 -0.1081 0.6033
vn -0.6649 -0.4597 0.5887
vn -0.0665 -0.3155 0.9466
vn -0.7903 -0.1080 0.6032
vn -0.1468 0.0467 0.9881
vn -0.4458 -0.7482 0.4914
vn -0.1609 -0.9328 0.3226
vn 0.0236 -0.6353 0.7719
vn -0.5070 0.8414 0.1874
vn -0.7070 0.5905 0.3891
vn -0.2377 0.7034 0.6699
vn -0.5071 0.8413 0.1873
vn -0.2351 0.9068 0.3500
vn -0.8051 0.2585 0.5339
vn -0.7900 -0.1083 0.6035
vn -0.1467 0.0468 0.9881
vn -0.6648 -0.4596 0.5889
vn -0.4459 -0.7483 0.4913
vn 0.0234 -0.6352 0.7720
vn -0.6650 -0.4595 0.5888
vn 0.0234 -0.6351 0.7720
vn -0.0667 -0.3154 0.9466
vn 0.6120 -0.1969 0.7660
vn 0.5825 0.1741 0.7939
vn 0.4720 0.5212 0.7110
vn 0.4718 0.5212 0.7112
vn -0.2067 0.4025 0.8918
vn 0.0730 0.9607 0.2679
vn -0.2378 0.7034 0.6699
vn 0.0731 0.9607 0.2679
vn -0.2352 0.9068 0.3499
vn 0.1110 -0.8673 0.4853
vn 0.5555 -0.5422 0.6304
vn 0.1113 -0.8672 0.4853
vn 0.5824 0.1743 0.7940
vn -0.1469 0.0468 0.9881
vn 0.2943 0.7964 0.5283
vn 0.5824 0.1744 0.7940
vn 0.9706 0.1996 0.1347
vn 0.2371 0.9714 -0.0108
vn 0.4192 -0.8134 0.4032
vn 0.4193 -0.8134 0.4033
vn 0.5556 -0.5422 0.6304
vn 0.9706 0.1995 0.1347
vn 0.5777 0.8149 0.0473
vn 0.5776 0.8150 0.0473
vn 0.5832 -0.8027 0.1247
vn 0.7070 -0.5905 -0.3892
vn 0.7901 0.1080 -0.6034
vn 0.9705 0.1997 0.1347
vn 0.4458 0.7483 -0.4912
vn 0.8388 -0.5236 0.1493
vn 0.7071 -0.5903 -0.3892
vn 0.9730 -0.1732 0.1528
vn 0.9705 0.1998 0.1348
vn 0.6649 0.4596 -0.5888
vn 0.8329 0.5448 0.0980
vn 0.1608 0.9327 -0.3228
vn 0.1608 0.9328 -0.3227
vn 0.6650 0.4595 -0.5887
vn 0.0664 0.3156 -0.9466
vn -0.0236 0.6352 -0.7720
vn 0.7070 -0.5904 -0.3893
vn 0.2377 -0.7033 -0.6699
vn 0.1467 -0.0468 -0.9881
vn 0.0667 0.3154 -0.9466
vn 0.7901 0.1081 -0.6033
vn 0.4459 0.7481 -0.4914
vn -0.1109 0.8673 -0.4853
vn 0.4458 0.7482 -0.4914
vn 0.2351 -0.9068 -0.3498
vn 0.2376 -0.7034 -0.6699
vn 0.2378 -0.7034 -0.6699
vn 0.2066 -0.4024 -0.8918
vn 0.1469 -0.0467 -0.9881
vn 0.8052 -0.2584 -0.5337
vn 0.2377 -0.7035 -0.6698
vn -0.2943 -0.7965 -0.5282
vn -0.5825 -0.1743 -0.7940
vn -0.6120 0.1970 -0.7660
vn -0.5556 0.5422 -0.6304
vn -0.4194 0.8134 -0.4032
vn -0.4193 0.8135 -0.4031
vn 0.2350 -0.9068 -0.3500
vn -0.5826 -0.1741 -0.7939
vn -0.5555 0.5423 -0.6303
vn -0.5842 0.8019 -0.1253
vn -0.4192 0.8134 -0.4032
vn -0.0731 -0.9607 -0.2678
vn -0.4719 -0.5212 -0.7111
vn -0.9706 -0.1997 -0.1348
vn -0.6120 0.1969 -0.7659
vn -0.9730 0.1731 -0.1528
vn -0.8387 0.5236 -0.1494
vn -0.2944 -0.7964 -0.5283
vn -0.4718 -0.5212 -0.7111
vn -0.5825 -0.1743 -0.7939
vn -0.1607 -0.9328 0.3227
vn -0.2383 -0.9711 0.0111
vn -0.7902 -0.1081 0.6033
vn -0.8051 0.2586 0.5339
vn -0.5776 -0.8150 -0.0472
vn -0.4460 -0.7482 0.4912
vn -0.6650 -0.4596 0.5886
vn -0.8329 -0.5446 -0.0979
vn -0.9705 -0.1998 -0.1348
vn -0.5832 0.8027 -0.1248
vn -0.4459 -0.7482 0.4913
vn -0.0666 -0.3155 0.9466
vn -0.4458 -0.7483 0.4912
vn -0.0666 -0.3156 0.9466
vn -0.6649 -0.4595 0.5888
vn -0.7900 -0.1083 0.6034
vn -0.7901 -0.1083 0.6034
vn -0.2351 0.9068 0.3498
vn -0.2353 0.9067 0.3499
vn -0.5069 0.8414 0.1874
vn -0.4458 -0.7481 0.4914
vn 0.2822 0.7887 -0.5462
vn 0.0020 0.9989 -0.0470
vn 0.0560 0.9977 -0.0389
vn 0.2821 0.7887 -0.5462
vn 0.4170 0.6651 -0.6195
vn 0.7034 -0.1853 -0.6862
vn 0.5498 0.6578 -0.5148
vn 0.1905 0.7120 -0.6759
vn 0.7033 -0.1851 -0.6863
vn 0.1904 0.7120 -0.6759
vn 0.5987 -0.4770 -0.6435
vn 0.6779 -0.3435 -0.6499
vn 0.4606 -0.8808 0.1102
vn 0.6779 -0.3435 -0.6500
vn 0.7241 -0.0423 -0.6884
vn 0.2821 0.7888 -0.5461
vn 0.6779 -0.3436 -0.6499
vn 0.0020 0.9989 -0.0469
vn 0.2821 0.7886 -0.5463
vn 0.5113 0.2759 -0.8139
vn 0.5118 0.8584 0.0353
vn 0.1506 0.9883 -0.0244
vn 0.5499 0.6577 -0.5149
vn 0.1504 0.9883 -0.0244
vn 0.5655 0.8235 0.0450
vn 0.5499 0.6576 -0.5150
vn 0.5498 0.6577 -0.5149
vn 0.7034 -0.1851 -0.6863
vn 0.6857 -0.7151 0.1357
vn 0.5118 0.8584 0.0354
vn 0.7033 -0.1852 -0.6863
vn 0.5118 0.8583 0.0354
vn 0.5114 0.2757 -0.8139
vn 0.6800 0.7302 0.0665
vn 0.6839 0.6495 -0.3325
vn 0.5216 0.7564 -0.3947
vn 0.5986 -0.4770 -0.6435
vn 0.5216 0.7565 -0.3946
vn 0.8708 -0.3650 -0.3294
vn 0.4606 -0.8808 0.1101
vn 0.5589 -0.5695 -0.6027
vn 0.4605 -0.8808 0.1101
vn 0.5589 -0.5695 -0.6028
vn 0.1813 -0.9807 0.0733
vn 0.7035 -0.1852 -0.6861
vn 0.5987 -0.4769 -0.6435
vn 0.4359 -0.8936 0.1070
vn 0.1505 0.9883 -0.0244
vn -0.2467 0.9656 -0.0823
vn -0.2466 0.9656 -0.0823
vn 0.1905 0.7119 -0.6759
vn 0.4168 0.6652 -0.6195
vn 0.5590 -0.5696 -0.6026
vn 0.6838 0.6495 -0.3324
vn 0.6799 0.7303 0.0665
vn 0.8364 -0.5275 0.1492
vn 0.6839 0.6495 -0.3323
vn 0.8364 -0.5274 0.1492
vn 0.8151 -0.5097 -0.2753
vn 0.5545 0.8310 0.0431
vn 0.8958 -0.4173 0.1529
vn 0.8958 -0.4173 0.1528
vn 0.8707 -0.3650 -0.3296
vn 0.5589 -0.5696 -0.6027
vn 0.8152 -0.5096 -0.2754
vn 0.8151 -0.5096 -0.2755
vn 0.8365 -0.5273 0.1492
vn 0.4358 -0.8936 0.1070
vn 0.8708 -0.3649 -0.3295
vn 0.8707 -0.3649 -0.3296
vn 0.8959 -0.4171 0.1528
vn -0.2468 0.9656 -0.0823
vn 0.5546 0.8310 0.0430
vn 0.5546 0.8310 0.0431
vn 0.5217 0.7563 -0.3947
vn 0.5589 -0.5697 -0.6025
vn 0.4169 0.6651 -0.6195
vn 0.5588 -0.5697 -0.6026
vn 0.6838 0.6495 -0.3323
vn 0.8152 -0.5096 -0.2752
vn 0.1224 0.8396 0.5293
vn 0.2284 0.7251 0.6496
vn 0.1224 0.8395 0.5293
vn 0.4714 -0.1114 0.8748
vn 0.3797 -0.4072 0.8307
vn -0.0039 0.7739 0.6333
vn 0.4716 -0.1114 0.8748
vn -0.0040 0.7739 0.6333
vn 0.3858 0.7099 0.5892
vn 0.4554 -0.2727 0.8475
vn 0.4555 -0.2727 0.8474
vn 0.1223 0.8396 0.5292
vn 0.2569 0.3568 0.8981
vn 0.5118 0.8584 0.0355
vn 0.2569 0.3569 0.8981
vn 0.1224 0.8395 0.5294
vn 0.1506 0.9883 -0.0243
vn 0.3857 0.7100 0.5892
vn 0.3858 0.7098 0.5893
vn 0.4715 -0.1114 0.8748
vn 0.5119 0.8583 0.0354
vn 0.4714 -0.1113 0.8748
vn 0.5669 0.6867 0.4551
vn 0.0560 0.9977 -0.0388
vn 0.7327 -0.3210 0.6001
vn 0.3950 0.7967 0.4573
vn 0.3796 -0.4072 0.8307
vn 0.3951 0.7967 0.4573
vn -0.0040 0.7739 0.6332
vn 0.3522 -0.5037 0.7888
vn 0.3523 -0.5037 0.7888
vn 0.3796 -0.4071 0.8307
vn 0.3797 -0.4071 0.8307
vn 0.3858 0.7099 0.5893
vn 0.3521 -0.5039 0.7887
vn 0.2284 0.7252 0.6495
vn 0.2284 0.7252 0.6496
vn 0.1224 0.8396 0.5292
vn 0.5668 0.6868 0.4550
vn 0.6931 -0.4708 0.5459
vn 0.5669 0.6868 0.4550
vn 0.8364 -0.5275 0.1493
vn 0.3950 0.7967 0.4574
vn 0.7326 -0.3210 0.6003
vn 0.8959 -0.4173 0.1527
vn 0.3950 0.7968 0.4573
vn 0.1812 -0.9807 0.0734
vn 0.6931 -0.4707 0.5459
vn 0.6933 -0.4707 0.5457
vn 0.7326 -0.3209 0.6002
vn 0.7328 -0.3209 0.6001
vn 0.3950 0.7967 0.4575
vn 0.5546 0.8310 0.0432
vn 0.6932 -0.4708 0.5457
vn 0.5669 0.6868 0.4549
vt 0.375000 -0.000000
vt 0.500000 -0.000000
vt 0.875000 0.250000
vt 0.875000 0.375000
vt 0.562500 0.375000
vt 0.625000 0.375000
vt 0.625000 0.250000
vt 0.562500 0.250000
vt 0.375000 0.375000
vt 0.500000 0.375000
vt 0.500000 0.250000
vt 0.375000 0.250000
vt 0.602290 0.072990
vt 0.599810 0.022520
vt 0.500920 0.019060
vt 0.407350 0.018290
vt 0.407620 0.233190
vt 0.504210 0.235910
vt 0.603510 0.186810
vt 0.604770 0.123470
vt 0.335940 0.375000
vt 0.312500 0.250000
vt 0.187500 0.375000
vt 0.250000 0.375000
vt 0.250000 0.250000
vt 0.187500 0.250000
vt 0.812500 0.375000
vt 0.812500 0.250000
vt 0.728070 0.375000
vt 0.726200 0.282980
vt 0.125000 0.375000
vt 0.125000 0.250000
vt 0.562500 -0.000000
vt 0.625000 -0.000000
vt 0.375000 1.000000
vt 0.500000 1.000000
vt 0.500000 0.875000
vt 0.375000 0.875000
vt 0.562500 1.000000
vt 0.625000 1.000000
vt 0.625000 0.875000
vt 0.562500 0.875000
vt 0.647380 0.375000
vt 0.649190 0.286320
vt 0.687690 0.284650
vt 0.750000 0.250000
vt 0.687500 0.250000
vt 0.750000 0.375000
vt 0.648870 0.302130
vt 0.683980 0.284810
vt 0.692610 0.284440
vt 0.687720 0.375000
vt 0.602440 0.235320
vt 0.553320 0.235610
vt 0.550370 0.020790
vt 0.413640 0.071700
vt 0.375000 0.062500
vt 0.405700 0.182610
vt 0.375000 0.187500
vt 0.625000 0.187500
vt 0.625000 0.125000
vt 0.625000 0.062500
vt 0.419930 0.125110
vt 0.375000 0.125000
vt 0.500000 0.187500
vt 0.500000 0.125000
vt 0.551750 0.187160
vt 0.552390 0.124230
vt 0.551380 0.072510
vt 0.500460 0.072030
vt 0.725300 0.283020
vt 0.688200 0.284630
vt 0.649970 0.293420
vt 0.647400 0.373870
vt 0.728070 0.374960
vt 0.750000 0.125000
vt 0.687500 0.000000
vt 0.687500 1.000000
vt 0.750000 0.875000
vt 0.437500 0.000000
vt 0.437500 1.000000
vt 0.312500 0.000000
vt 0.250000 0.125000
vt 0.312500 1.000000
vt 0.250000 0.875000
vt 0.187500 1.000000
vt 0.125000 0.875000
vt 0.187500 0.000000
vt 0.125000 0.125000
vt 0.062500 0.000000
vt 0.000000 0.125000
vt 0.062500 1.000000
vt 0.000000 0.875000
vt 1.000000 0.125000
vt 0.937500 0.000000
vt 0.875000 0.125000
vt 0.937500 1.000000
vt 1.000000 0.875000
vt 0.875000 0.875000
vt 0.812500 0.000000
vt 0.812500 1.000000
vt 0.750000 0.750000
vt 0.750000 0.625000
vt 0.625000 0.625000
vt 0.625000 0.750000
vt 0.750000 0.500000
vt 0.625000 0.500000
vt 0.500000 0.500000
vt 0.500000 0.750000
vt 0.500000 0.625000
vt 0.375000 0.750000
vt 0.375000 0.500000
vt 0.375000 0.625000
vt 0.250000 0.625000
vt 0.250000 0.750000
vt 0.250000 0.500000
vt 0.125000 0.625000
vt 0.125000 0.750000
vt 0.125000 0.500000
vt 0.000000 0.250000
vt 0.000000 0.750000
vt 0.000000 0.500000
vt 0.000000 0.625000
vt 0.000000 0.375000
vt 1.000000 0.750000
vt 0.875000 0.750000
vt 1.000000 0.625000
vt 1.000000 0.500000
vt 0.875000 0.500000
vt 0.875000 0.625000
vt 1.000000 0.375000
vt 1.000000 0.250000
vt 0.618190 0.322560
vt 0.119030 0.885080
vt 0.616630 0.324780
vt 0.633280 0.308890
vt 0.635460 0.305750
vt 0.528090 0.490170
vt 0.000000 1.000000
vt 0.508930 0.508660
vt 0.140090 0.864750
s 0
usemtl mat0.1006
f 1/1/1 2/2/2 3/2/3
f 1/1/4 3/2/3 4/1/5
f 5/3/6 6/4/7 7/4/8
f 5/3/6 7/4/8 8/3/9
f 9/5/10 10/6/11 11/7/12
f 9/5/13 11/7/14 12/8/15
f 13/9/16 14/10/17 15/11/18
f 13/9/19 15/11/20 16/12/21
f 17/13/22 18/14/23 19/14/24
f 17/13/25 19/14/24 20/13/26
f 21/15/27 22/16/28 23/16/29
f 21/15/30 23/16/31 24/15/32
f 25/17/33 26/18/34 27/18/35
f 25/17/36 27/18/35 28/17/37
f 29/19/38 30/20/39 31/20/40
f 29/19/38 31/20/40 32/19/41
f 33/21/42 13/9/43 16/12/44
f 33/21/45 16/12/46 34/22/47
f 35/23/48 36/24/49 37/25/50
f 35/23/51 37/25/50 38/26/52
f 39/27/53 40/4/54 41/3/55
f 39/27/56 41/3/57 42/28/58
f 43/29/59 44/30/60 45/30/61
f 43/29/62 45/30/63 46/29/64
f 47/31/65 48/32/66 49/32/67
f 47/31/65 49/32/67 50/31/68
f 51/33/69 52/34/9 53/34/70
f 51/33/69 53/34/71 54/33/72
f 55/33/73 56/34/74 52/34/75
f 55/33/73 52/34/76 51/33/77
f 57/31/78 58/32/79 48/32/80
f 57/31/78 48/32/80 47/31/65
f 59/35/81 60/36/82 61/37/83
f 59/35/84 61/37/83 62/38/68
f 63/39/72 64/40/71 65/41/85
f 63/39/72 65/41/86 66/42/87
f 8/3/88 7/4/8 67/4/89
f 8/3/88 67/4/89 68/3/71
f 4/1/90 3/2/91 69/2/92
f 4/1/93 69/2/82 70/1/94
f 71/43/95 72/44/96 11/7/14
f 71/43/97 11/7/14 10/6/11
f 73/45/98 74/30/99 75/46/100
f 73/45/98 75/46/101 76/47/102
f 74/30/103 77/29/104 78/48/105
f 74/30/99 78/48/106 75/46/107
f 79/45/108 80/49/109 81/44/110
f 79/45/111 81/44/112 82/45/113
f 83/44/114 84/43/115 85/43/116
f 83/44/117 85/43/118 86/44/119
f 87/45/120 83/44/121 86/44/122
f 87/45/120 86/44/123 88/45/124
f 89/50/125 90/44/126 91/44/127
f 89/50/125 91/44/127 92/45/128
f 93/29/129 94/30/130 95/30/131
f 93/29/132 95/30/133 96/29/134
f 80/49/135 97/43/136 98/43/137
f 80/49/135 98/43/138 81/44/110
f 92/45/139 91/44/127 99/44/140
f 92/45/139 99/44/141 100/45/142
f 101/29/143 102/30/144 103/30/145
f 101/29/146 103/30/145 104/29/147
f 100/45/142 99/44/148 105/44/149
f 100/45/150 105/44/151 106/51/152
f 104/29/147 103/30/145 107/30/153
f 104/29/147 107/30/153 108/29/154
f 91/44/127 109/43/155 110/43/156
f 91/44/157 110/43/156 99/44/158
f 111/52/159 112/29/160 113/30/161
f 111/52/159 113/30/161 106/51/162
f 108/29/163 107/30/164 113/30/165
f 108/29/163 113/30/166 112/29/167
f 99/44/168 110/43/156 114/43/169
f 99/44/170 114/43/171 105/44/172
f 96/29/134 95/30/173 102/30/174
f 96/29/175 102/30/144 101/29/176
f 82/45/177 81/44/110 90/44/126
f 82/45/177 90/44/178 89/50/125
f 95/30/173 82/45/179 89/50/180
f 95/30/173 89/50/180 102/30/181
f 114/43/182 111/52/159 106/51/183
f 114/43/184 106/51/185 105/44/172
f 107/30/186 100/45/187 106/51/188
f 107/30/189 106/51/152 113/30/190
f 103/30/191 92/45/192 100/45/193
f 103/30/194 100/45/193 107/30/189
f 102/30/195 89/50/196 92/45/128
f 102/30/181 92/45/197 103/30/198
f 44/30/199 87/45/200 88/45/201
f 44/30/202 88/45/203 45/30/63
f 94/30/204 79/45/205 82/45/113
f 94/30/206 82/45/177 95/30/207
f 72/44/208 73/45/98 76/47/209
f 72/44/208 76/47/210 11/7/211
f 36/24/212 33/21/213 34/22/214
f 36/24/215 34/22/216 37/25/50
f 115/53/217 29/19/218 32/19/219
f 115/53/217 32/19/219 116/53/220
f 117/54/221 115/53/222 116/53/223
f 117/54/221 116/53/220 118/54/224
f 22/16/225 21/15/226 119/2/227
f 22/16/225 119/2/228 120/1/229
f 121/55/230 18/14/23 122/34/231
f 121/55/232 122/34/233 123/33/234
f 117/54/235 26/18/236 15/11/237
f 117/54/238 15/11/239 12/8/240
f 26/18/241 25/17/33 16/12/242
f 26/18/236 16/12/243 15/11/244
f 124/56/245 22/16/246 120/1/229
f 124/56/247 120/1/248 125/57/249
f 25/17/33 126/58/250 127/59/251
f 25/17/252 127/59/253 16/12/44
f 30/20/254 29/19/255 128/60/256
f 30/20/254 128/60/257 129/61/258
f 17/13/259 30/20/260 129/61/261
f 17/13/262 129/61/263 130/62/264
f 126/58/265 131/63/266 132/64/267
f 126/58/268 132/64/267 127/59/216
f 29/19/269 115/53/217 11/7/211
f 29/19/218 11/7/12 128/60/270
f 133/58/271 134/65/272 135/66/273
f 133/58/274 135/66/273 136/63/275
f 137/67/276 32/19/277 31/20/278
f 137/67/279 31/20/280 138/68/281
f 139/69/282 20/13/283 19/14/284
f 139/69/282 19/14/24 140/55/285
f 141/56/286 142/70/287 24/15/288
f 141/56/289 24/15/290 23/16/291
f 118/54/292 116/53/293 32/19/219
f 118/54/292 32/19/294 137/67/295
f 28/17/296 27/18/35 134/65/297
f 28/17/296 134/65/298 133/58/299
f 124/56/300 131/63/301 136/63/302
f 124/56/303 136/63/302 141/56/304
f 121/55/230 21/15/305 24/15/306
f 121/55/307 24/15/32 140/55/308
f 131/63/309 126/58/310 133/58/311
f 131/63/301 133/58/299 136/63/302
f 126/58/312 25/17/313 28/17/314
f 126/58/312 28/17/296 133/58/315
f 143/71/316 144/72/317 79/45/318
f 143/71/319 79/45/320 94/30/204
f 145/73/321 146/74/322 97/43/323
f 145/73/321 97/43/324 80/49/325
f 147/75/326 143/71/327 94/30/130
f 147/75/326 94/30/328 93/29/132
f 144/72/329 145/73/330 80/49/109
f 144/72/331 80/49/109 79/45/318
f 22/16/225 124/56/300 141/56/332
f 22/16/333 141/56/304 23/16/291
f 136/63/334 135/66/335 142/70/336
f 136/63/337 142/70/338 141/56/339
f 138/68/281 31/20/278 20/13/283
f 138/68/281 20/13/340 139/69/282
f 18/14/341 17/13/25 130/62/342
f 18/14/343 130/62/344 122/34/345
f 131/63/301 124/56/346 125/57/347
f 131/63/266 125/57/348 132/64/267
f 78/48/349 39/27/350 42/28/264
f 78/48/349 42/28/351 75/46/352
f 148/31/353 35/23/354 38/26/348
f 148/31/355 38/26/356 149/32/357
f 30/20/260 17/13/25 20/13/358
f 30/20/359 20/13/26 31/20/40
f 148/31/360 149/32/357 58/32/79
f 148/31/361 58/32/79 57/31/362
f 123/33/363 122/34/364 56/34/365
f 123/33/366 56/34/365 55/33/73
f 41/3/55 40/4/54 6/4/367
f 41/3/368 6/4/369 5/3/6
f 120/1/370 119/2/228 2/2/371
f 120/1/229 2/2/2 1/1/372
f 119/2/228 123/33/373 55/33/374
f 119/2/375 55/33/376 2/2/377
f 135/66/378 138/68/379 139/69/380
f 135/66/381 139/69/380 142/70/382
f 18/14/383 121/55/307 140/55/384
f 18/14/23 140/55/385 19/14/24
f 27/18/35 118/54/386 137/67/387
f 27/18/388 137/67/387 134/65/389
f 142/70/382 139/69/380 140/55/385
f 142/70/336 140/55/385 24/15/390
f 134/65/272 137/67/391 138/68/392
f 134/65/393 138/68/392 135/66/394
f 115/53/217 117/54/235 12/8/395
f 115/53/396 12/8/240 11/7/211
f 21/15/226 121/55/397 123/33/234
f 21/15/398 123/33/399 119/2/228
f 26/18/236 117/54/400 118/54/401
f 26/18/236 118/54/402 27/18/35
f 60/36/403 63/39/404 66/42/405
f 60/36/403 66/42/406 61/37/407
f 2/2/408 55/33/376 51/33/409
f 2/2/408 51/33/409 3/2/410
f 3/2/3 51/33/69 54/33/72
f 3/2/411 54/33/412 69/2/403
f 14/10/413 9/5/414 12/8/415
f 14/10/413 12/8/416 15/11/417
f 74/30/99 73/45/418 87/45/200
f 74/30/419 87/45/200 44/30/420
f 73/45/421 72/44/208 83/44/422
f 73/45/423 83/44/422 87/45/424
f 72/44/425 71/43/95 84/43/426
f 72/44/427 84/43/428 83/44/429
f 77/29/430 74/30/103 44/30/431
f 77/29/430 44/30/431 43/29/432
f 88/45/433 86/44/434 145/73/435
f 88/45/436 145/73/435 144/72/437
f 46/29/438 45/30/61 143/71/439
f 46/29/440 143/71/327 147/75/441
f 86/44/434 85/43/116 146/74/442
f 86/44/434 146/74/442 145/73/443
f 45/30/444 88/45/445 144/72/437
f 45/30/446 144/72/317 143/71/316
f 150/1/447 151/1/448 152/2/449
f 150/1/450 152/2/449 153/2/451
f 154/3/452 155/3/453 7/4/8
f 154/3/452 7/4/454 6/4/367
f 9/5/13 156/8/455 157/7/456
f 9/5/457 157/7/458 10/6/459
f 13/9/460 158/12/461 159/11/462
f 13/9/16 159/11/463 14/10/464
f 160/13/465 161/13/466 162/14/467
f 160/13/468 162/14/469 163/14/470
f 164/15/471 165/15/472 166/16/473
f 164/15/474 166/16/475 167/16/476
f 168/17/477 169/17/478 170/18/479
f 168/17/477 170/18/480 171/18/481
f 172/19/482 173/19/483 174/20/484
f 172/19/485 174/20/484 175/20/486
f 33/21/45 176/22/487 158/12/488
f 33/21/489 158/12/461 13/9/490
f 35/23/491 177/26/492 178/25/493
f 35/23/491 178/25/494 36/24/495
f 39/27/496 179/28/497 180/3/498
f 39/27/499 180/3/500 40/4/54
f 43/29/501 46/29/502 181/30/503
f 43/29/504 181/30/503 182/30/505
f 47/31/65 50/31/506 183/32/507
f 47/31/65 183/32/508 184/32/509
f 185/33/510 186/33/511 187/34/512
f 185/33/513 187/34/512 188/34/453
f 189/33/514 185/33/515 188/34/516
f 189/33/514 188/34/517 190/34/518
f 57/31/519 47/31/520 184/32/509
f 57/31/78 184/32/521 191/32/522
f 192/35/507 62/38/506 61/37/83
f 192/35/523 61/37/83 193/36/524
f 194/39/525 66/42/526 65/41/86
f 194/39/527 65/41/86 195/40/512
f 155/3/528 196/3/529 67/4/530
f 155/3/531 67/4/530 7/4/454
f 151/1/448 197/1/523 198/2/524
f 151/1/448 198/2/532 152/2/449
f 71/43/533 10/6/459 157/7/534
f 71/43/535 157/7/458 199/44/536
f 200/45/537 201/47/538 202/46/539
f 200/45/540 202/46/541 203/30/542
f 203/30/543 202/46/544 78/48/545
f 203/30/543 78/48/546 77/29/547
f 204/45/548 205/45/549 206/44/550
f 204/45/551 206/44/550 207/49/552
f 208/44/553 209/44/554 85/43/555
f 208/44/556 85/43/557 84/43/426
f 210/45/558 211/45/559 209/44/554
f 210/45/560 209/44/561 208/44/562
f 212/50/563 213/45/564 214/44/565
f 212/50/566 214/44/567 215/44/568
f 93/29/132 96/29/134 216/30/569
f 93/29/570 216/30/571 217/30/572
f 207/49/573 206/44/574 98/43/138
f 207/49/575 98/43/576 97/43/577
f 213/45/578 218/45/579 219/44/580
f 213/45/564 219/44/581 214/44/582
f 101/29/146 104/29/583 220/30/584
f 101/29/146 220/30/585 221/30/586
f 218/45/587 222/51/588 223/44/589
f 218/45/590 223/44/591 219/44/592
f 104/29/593 108/29/594 224/30/595
f 104/29/596 224/30/595 220/30/597
f 214/44/598 219/44/599 110/43/156
f 214/44/598 110/43/600 109/43/155
f 111/52/159 222/51/601 225/30/602
f 111/52/159 225/30/603 112/29/604
f 108/29/605 112/29/167 225/30/606
f 108/29/605 225/30/606 224/30/595
f 219/44/599 223/44/607 114/43/169
f 219/44/608 114/43/609 110/43/600
f 96/29/610 101/29/611 221/30/586
f 96/29/612 221/30/613 216/30/569
f 205/45/549 212/50/566 215/44/614
f 205/45/615 215/44/568 206/44/574
f 216/30/569 221/30/616 212/50/617
f 216/30/571 212/50/618 205/45/619
f 114/43/184 223/44/591 222/51/620
f 114/43/621 222/51/622 111/52/159
f 224/30/623 225/30/602 222/51/588
f 224/30/623 222/51/624 218/45/625
f 220/30/626 224/30/623 218/45/625
f 220/30/627 218/45/628 213/45/629
f 221/30/586 220/30/630 213/45/631
f 221/30/613 213/45/632 212/50/633
f 182/30/634 181/30/635 211/45/636
f 182/30/637 211/45/638 210/45/639
f 217/30/640 216/30/569 205/45/641
f 217/30/642 205/45/643 204/45/644
f 199/44/645 157/7/646 201/47/647
f 199/44/648 201/47/649 200/45/650
f 36/24/651 178/25/493 176/22/652
f 36/24/653 176/22/652 33/21/213
f 226/53/654 227/53/655 173/19/656
f 226/53/657 173/19/658 172/19/659
f 228/54/660 229/54/661 227/53/662
f 228/54/660 227/53/663 226/53/657
f 167/16/664 230/1/665 231/2/666
f 167/16/667 231/2/668 164/15/669
f 232/55/670 233/33/671 234/34/498
f 232/55/672 234/34/498 163/14/470
f 228/54/673 156/8/674 159/11/463
f 228/54/675 159/11/676 171/18/677
f 171/18/677 159/11/678 158/12/488
f 171/18/679 158/12/461 168/17/680
f 235/56/681 236/57/682 230/1/683
f 235/56/681 230/1/684 167/16/664
f 168/17/685 158/12/461 237/59/487
f 168/17/477 237/59/686 238/58/687
f 175/20/486 239/61/688 240/60/689
f 175/20/486 240/60/689 172/19/690
f 160/13/691 241/62/692 239/61/541
f 160/13/693 239/61/694 175/20/486
f 238/58/695 237/59/696 242/64/697
f 238/58/687 242/64/697 243/63/698
f 172/19/690 240/60/699 157/7/646
f 172/19/700 157/7/646 226/53/657
f 244/58/701 245/63/702 246/66/703
f 244/58/704 246/66/705 247/65/706
f 248/67/707 249/68/708 174/20/709
f 248/67/710 174/20/709 173/19/658
f 250/69/711 251/55/712 162/14/469
f 250/69/711 162/14/713 161/13/714
f 252/56/715 166/16/716 165/15/717
f 252/56/715 165/15/717 253/70/718
f 229/54/719 248/67/720 173/19/658
f 229/54/719 173/19/658 227/53/721
f 169/17/722 244/58/723 247/65/706
f 169/17/724 247/65/725 170/18/726
f 235/56/727 252/56/728 245/63/729
f 235/56/727 245/63/730 243/63/731
f 232/55/732 251/55/733 165/15/472
f 232/55/734 165/15/735 164/15/669
f 243/63/731 245/63/730 244/58/701
f 243/63/736 244/58/701 238/58/737
f 238/58/738 244/58/739 169/17/724
f 238/58/738 169/17/740 168/17/741
f 254/71/742 217/30/642 204/45/644
f 254/71/743 204/45/644 255/72/744
f 256/73/745 207/49/746 97/43/747
f 256/73/748 97/43/749 146/74/750
f 147/75/326 93/29/132 217/30/751
f 147/75/326 217/30/752 254/71/753
f 255/72/754 204/45/551 207/49/552
f 255/72/755 207/49/552 256/73/756
f 167/16/757 166/16/758 252/56/759
f 167/16/760 252/56/759 235/56/761
f 245/63/762 252/56/763 253/70/764
f 245/63/765 253/70/764 246/66/703
f 249/68/766 250/69/767 161/13/714
f 249/68/768 161/13/714 174/20/709
f 163/14/470 234/34/769 241/62/770
f 163/14/771 241/62/772 160/13/691
f 243/63/773 242/64/774 236/57/775
f 243/63/776 236/57/777 235/56/778
f 78/48/349 202/46/544 179/28/779
f 78/48/349 179/28/779 39/27/780
f 148/31/781 257/32/665 177/26/492
f 148/31/782 177/26/783 35/23/784
f 175/20/785 174/20/786 161/13/466
f 175/20/785 161/13/466 160/13/465
f 148/31/787 57/31/788 191/32/522
f 148/31/789 191/32/522 257/32/665
f 233/33/790 189/33/514 190/34/518
f 233/33/671 190/34/518 234/34/769
f 180/3/791 154/3/792 6/4/793
f 180/3/794 6/4/793 40/4/54
f 230/1/684 150/1/795 153/2/451
f 230/1/796 153/2/797 231/2/666
f 231/2/798 153/2/799 189/33/800
f 231/2/801 189/33/802 233/33/803
f 246/66/804 253/70/805 250/69/806
f 246/66/804 250/69/807 249/68/808
f 163/14/809 162/14/469 251/55/810
f 163/14/811 251/55/812 232/55/813
f 170/18/726 247/65/725 248/67/814
f 170/18/726 248/67/814 229/54/815
f 253/70/764 165/15/816 251/55/817
f 253/70/718 251/55/810 250/69/818
f 247/65/819 246/66/705 249/68/820
f 247/65/819 249/68/808 248/67/821
f 226/53/822 157/7/646 156/8/674
f 226/53/657 156/8/823 228/54/824
f 164/15/825 231/2/801 233/33/671
f 164/15/826 233/33/671 232/55/813
f 171/18/827 170/18/726 229/54/828
f 171/18/677 229/54/828 228/54/829
f 193/36/830 61/37/83 66/42/831
f 193/36/830 66/42/831 194/39/832
f 153/2/799 152/2/833 185/33/834
f 153/2/799 185/33/835 189/33/836
f 152/2/837 198/2/838 186/33/839
f 152/2/840 186/33/832 185/33/841
f 14/10/842 159/11/843 156/8/844
f 14/10/413 156/8/455 9/5/414
f 203/30/845 182/30/846 210/45/847
f 203/30/848 210/45/847 200/45/650
f 200/45/849 210/45/850 208/44/556
f 200/45/849 208/44/851 199/44/648
f 199/44/536 208/44/852 84/43/853
f 199/44/854 84/43/426 71/43/535
f 77/29/855 43/29/432 182/30/856
f 77/29/857 182/30/858 203/30/859
f 211/45/860 255/72/754 256/73/861
f 211/45/860 256/73/756 209/44/862
f 46/29/440 147/75/441 254/71/863
f 46/29/864 254/71/863 181/30/865
f 209/44/866 256/73/867 146/74/750
f 209/44/554 146/74/868 85/43/116
f 181/30/869 254/71/743 255/72/744
f 181/30/865 255/72/870 211/45/860
usemtl mat4.162
f 258/76/871 259/77/872 260/61/873
f 261/78/874 262/79/875 263/41/876
f 260/61/873 264/33/877 265/66/878
f 266/39/879 263/41/880 267/37/881
f 265/66/878 268/80/882 269/64/883
f 270/81/874 267/37/884 271/38/885
f 269/64/883 272/82/877 273/83/886
f 274/84/874 271/38/887 275/85/888
f 276/86/874 275/85/889 277/87/890
f 273/83/891 278/88/872 279/89/892
f 279/89/892 280/90/882 281/91/893
f 282/92/874 277/87/894 283/93/895
f 284/94/896 285/95/872 286/96/897
f 287/97/898 288/98/899 289/99/900
f 286/96/901 290/100/902 258/76/903
f 291/101/904 289/99/905 262/79/875
f 292/76/875 293/61/876 294/77/874
f 295/78/872 296/41/906 297/79/871
f 293/61/880 298/66/881 299/33/879
f 300/39/877 301/37/907 296/41/906
f 298/66/884 302/64/885 303/80/874
f 304/81/882 305/38/908 301/37/878
f 302/64/887 306/83/888 307/82/874
f 308/84/877 309/85/886 305/38/909
f 310/86/872 311/87/910 309/85/891
f 306/83/889 312/89/890 313/88/874
f 312/89/894 314/91/895 315/90/874
f 316/92/882 317/93/893 311/87/892
f 318/94/899 319/96/900 320/95/898
f 321/97/872 322/99/897 323/98/911
f 319/96/912 292/76/875 324/100/904
f 325/101/902 297/79/913 322/99/901
f 326/102/914 327/103/915 328/104/916
f 326/102/917 328/104/918 329/105/919
f 330/106/920 331/48/921 332/6/922
f 330/106/923 332/6/924 333/107/925
f 334/46/926 258/76/871 260/61/927
f 334/46/928 260/61/873 335/7/929
f 262/79/930 326/102/931 329/105/919
f 262/79/932 329/105/933 263/41/876
f 327/103/934 330/106/923 333/107/935
f 327/103/915 333/107/936 328/104/916
f 331/48/937 334/46/938 335/7/939
f 331/48/940 335/7/941 332/6/942
f 333/107/943 332/6/942 336/10/944
f 333/107/945 336/10/944 337/108/946
f 335/7/941 260/61/947 265/66/948
f 335/7/949 265/66/950 338/11/951
f 263/41/876 329/105/952 339/109/953
f 263/41/880 339/109/954 267/37/955
f 328/104/916 333/107/956 337/108/957
f 328/104/958 337/108/959 340/110/960
f 332/6/961 335/7/941 338/11/962
f 332/6/924 338/11/951 336/10/963
f 329/105/964 328/104/916 340/110/965
f 329/105/966 340/110/967 339/109/968
f 267/37/884 339/109/954 341/111/969
f 267/37/970 341/111/971 271/38/972
f 340/110/967 337/108/973 342/112/974
f 340/110/967 342/112/975 343/113/976
f 336/10/944 338/11/977 344/12/978
f 336/10/979 344/12/980 345/9/981
f 339/109/954 340/110/965 343/113/982
f 339/109/983 343/113/984 341/111/969
f 337/108/985 336/10/963 345/9/986
f 337/108/946 345/9/987 342/112/975
f 338/11/988 265/66/989 269/64/883
f 338/11/990 269/64/883 344/12/978
f 345/9/987 344/12/991 346/25/992
f 345/9/993 346/25/994 347/24/995
f 341/111/996 343/113/976 348/114/997
f 341/111/998 348/114/999 349/115/1000
f 342/112/1001 345/9/986 347/24/1002
f 342/112/1003 347/24/1004 350/116/1005
f 344/12/978 269/64/1006 273/83/1007
f 344/12/1008 273/83/1009 346/25/1010
f 271/38/885 341/111/996 349/115/1011
f 271/38/885 349/115/1012 275/85/1013
f 343/113/1014 342/112/1015 350/116/1016
f 343/113/1017 350/116/1018 348/114/999
f 349/115/1019 348/114/1020 351/117/1021
f 349/115/1022 351/117/1023 352/118/1024
f 350/116/1005 347/24/1002 353/31/1025
f 350/116/1026 353/31/1027 354/119/1028
f 346/25/1010 273/83/1029 279/89/1030
f 346/25/1031 279/89/1032 355/32/1033
f 275/85/1034 349/115/1012 352/118/1035
f 275/85/888 352/118/1036 277/87/1037
f 348/114/1038 350/116/1039 354/119/1040
f 348/114/999 354/119/1040 351/117/1041
f 347/24/995 346/25/1031 355/32/1042
f 347/24/1043 355/32/1042 353/31/1044
f 355/32/1033 279/89/1045 281/91/1046
f 355/32/1047 281/91/911 356/120/1048
f 277/87/1049 352/118/1050 357/121/1051
f 277/87/1049 357/121/1052 283/93/1053
f 351/117/1054 354/119/1055 358/122/1056
f 351/117/1057 358/122/1056 359/123/1058
f 353/31/1025 355/32/1059 356/120/1060
f 353/31/1025 356/120/1060 360/124/1061
f 352/118/1062 351/117/1041 359/123/1063
f 352/118/1050 359/123/1064 357/121/1051
f 354/119/1065 353/31/1025 360/124/1066
f 354/119/1065 360/124/1067 358/122/1056
f 288/98/895 361/125/1068 362/126/1069
f 288/98/1070 362/126/1071 289/99/1072
f 363/127/1073 364/128/1056 365/129/1074
f 363/127/1063 365/129/1075 366/130/1076
f 367/131/1077 368/132/1048 369/3/1078
f 367/131/1066 369/3/1079 370/4/1080
f 361/125/1081 363/127/1082 366/130/1083
f 361/125/1084 366/130/1085 362/126/1086
f 364/128/1087 367/131/1067 370/4/1088
f 364/128/1089 370/4/1088 365/129/1090
f 368/132/1091 284/94/911 286/96/1092
f 368/132/1091 286/96/1092 369/3/1093
f 362/126/1086 366/130/1076 327/103/1094
f 362/126/1086 327/103/1095 326/102/1096
f 365/129/1097 370/4/1098 331/48/1099
f 365/129/1100 331/48/921 330/106/1101
f 369/3/1102 286/96/1103 258/76/903
f 369/3/1102 258/76/903 334/46/1104
f 289/99/1105 362/126/1106 326/102/1107
f 289/99/1108 326/102/914 262/79/1109
f 366/130/1110 365/129/1111 330/106/1112
f 366/130/1110 330/106/923 327/103/1095
f 370/4/1113 369/3/1114 334/46/1115
f 370/4/1116 334/46/1117 331/48/1118
f 371/102/1115 372/105/941 373/104/942
f 371/102/938 373/104/1119 374/103/937
f 375/106/1101 376/107/1120 377/6/1121
f 375/106/1112 377/6/1122 378/48/1123
f 379/46/914 380/7/952 293/61/1124
f 379/46/1125 293/61/1126 292/76/1127
f 297/79/1128 296/41/873 372/105/1129
f 297/79/1130 372/105/929 371/102/928
f 374/103/1099 373/104/924 376/107/956
f 374/103/921 376/107/1131 375/106/1132
f 378/48/1123 377/6/958 380/7/964
f 378/48/1123 380/7/1133 379/46/1107
f 376/107/1134 381/108/1135 382/10/960
f 376/107/925 382/10/967 377/6/916
f 380/7/964 383/11/954 298/66/1136
f 380/7/919 298/66/884 293/61/880
f 296/41/1137 301/37/907 384/109/962
f 296/41/1138 384/109/951 372/105/1139
f 373/104/942 385/110/979 381/108/1140
f 373/104/942 381/108/1135 376/107/945
f 377/6/916 382/10/965 383/11/1141
f 377/6/916 383/11/1142 380/7/964
f 372/105/941 384/109/951 385/110/944
f 372/105/949 385/110/963 373/104/1119
f 301/37/1143 305/38/883 386/111/1144
f 301/37/1143 386/111/978 384/109/951
f 385/110/944 387/113/987 388/112/975
f 385/110/963 388/112/1145 381/108/1146
f 382/10/960 389/9/1014 390/12/1147
f 382/10/965 390/12/969 383/11/954
f 384/109/1148 386/111/1149 387/113/986
f 384/109/990 387/113/987 385/110/1150
f 381/108/973 388/112/974 389/9/1017
f 381/108/1151 389/9/1152 382/10/1153
f 383/11/954 390/12/971 302/64/1154
f 383/11/954 302/64/1155 298/66/884
f 389/9/1156 391/24/1157 392/25/1000
f 389/9/1152 392/25/1158 390/12/969
f 386/111/1159 393/115/1160 394/114/1002
f 386/111/1149 394/114/1002 387/113/986
f 388/112/1015 395/116/1161 391/24/1162
f 388/112/1163 391/24/999 389/9/1014
f 390/12/1164 392/25/1158 306/83/1165
f 390/12/1166 306/83/888 302/64/887
f 305/38/908 309/85/1167 393/115/1168
f 305/38/883 393/115/1169 386/111/978
f 387/113/987 394/114/1170 395/116/1171
f 387/113/1172 395/116/1018 388/112/1001
f 393/115/1173 396/118/1174 397/117/1027
f 393/115/1160 397/117/1025 394/114/1043
f 395/116/1005 398/119/1175 399/31/1176
f 395/116/1171 399/31/1057 391/24/999
f 392/25/1000 400/32/1177 312/89/1178
f 392/25/1000 312/89/1179 306/83/889
f 309/85/1180 311/87/1032 396/118/1047
f 309/85/886 396/118/1033 393/115/1168
f 394/114/1170 397/117/1027 398/119/1181
f 394/114/1170 398/119/1028 395/116/1161
f 391/24/1038 399/31/1023 400/32/1182
f 391/24/1020 400/32/1024 392/25/1000
f 400/32/1050 401/120/1068 314/91/1183
f 400/32/1177 314/91/1053 312/89/1184
f 311/87/1185 317/93/1046 402/121/1048
f 311/87/892 402/121/1048 396/118/1174
f 397/117/1044 403/123/1061 404/122/1056
f 397/117/1186 404/122/1187 398/119/1065
f 399/31/1188 405/124/1189 401/120/1068
f 399/31/1041 401/120/1190 400/32/1062
f 396/118/1191 402/121/1060 403/123/1061
f 396/118/1047 403/123/1077 397/117/1192
f 398/119/1055 404/122/1056 405/124/1058
f 398/119/1193 405/124/1058 399/31/1057
f 323/98/911 322/99/1194 406/126/1093
f 323/98/1195 406/126/1093 407/125/1048
f 408/127/1067 409/130/1088 410/129/1075
f 408/127/1067 410/129/1196 411/128/1187
f 412/131/1063 413/4/1197 414/3/1086
f 412/131/1058 414/3/1086 415/132/1081
f 407/125/1198 406/126/1199 409/130/1088
f 407/125/1048 409/130/1200 408/127/1201
f 411/128/1056 410/129/1075 413/4/1076
f 411/128/1202 413/4/1076 412/131/1063
f 415/132/1068 414/3/1071 319/96/905
f 415/132/1051 319/96/1108 318/94/1203
f 406/126/1204 371/102/938 374/103/1205
f 406/126/1206 374/103/1207 409/130/1208
f 410/129/1209 375/106/920 378/48/934
f 410/129/1210 378/48/1094 413/4/1083
f 414/3/1071 379/46/1125 292/76/1211
f 414/3/1069 292/76/1212 319/96/1213
f 322/99/901 297/79/1128 371/102/928
f 322/99/1103 371/102/928 406/126/1214
f 409/130/1098 374/103/1099 375/106/1112
f 409/130/1080 375/106/1112 410/129/1075
f 413/4/1083 378/48/1095 379/46/1107
f 413/4/1083 379/46/917 414/3/1071
usemtl mat1.479
f 416/133/1215 417/134/1216 418/134/1217
f 416/133/1218 418/134/1217 419/133/1219
f 420/135/1220 421/136/1221 422/136/1222
f 420/135/1223 422/136/1224 423/135/1225
f 424/137/1226 425/138/1227 426/43/155
f 424/137/1228 426/43/155 427/44/1229
f 416/133/1230 424/137/1231 427/44/157
f 416/133/1218 427/44/1229 428/44/178
f 417/134/1232 416/133/1233 428/44/126
f 417/134/1216 428/44/1234 429/139/1235
f 430/140/1236 421/136/1237 431/44/110
f 430/140/1238 431/44/110 432/43/1239
f 421/136/1240 420/135/1220 428/44/178
f 421/136/1241 428/44/126 431/44/110
f 420/135/1242 433/141/1243 429/139/1244
f 420/135/1245 429/139/1246 428/44/1247
f 419/133/1219 418/134/1217 434/134/1248
f 419/133/1219 434/134/1248 435/133/1249
f 423/135/1225 422/136/1222 436/136/1250
f 423/135/1251 436/136/1252 437/135/1253
f 425/138/1254 424/137/1231 438/137/1255
f 425/138/1256 438/137/1257 439/138/1258
f 433/141/1243 420/135/1259 423/135/1260
f 433/141/1243 423/135/1260 440/141/1261
f 421/136/1241 430/140/1262 441/140/1263
f 421/136/1240 441/140/1264 422/136/1265
f 424/137/1231 416/133/1230 419/133/1219
f 424/137/1231 419/133/1266 438/137/1267
f 435/133/1268 434/134/1269 442/138/1270
f 435/133/1271 442/138/1272 443/137/1273
f 436/136/1250 444/140/1274 445/141/1275
f 436/136/1252 445/141/1276 437/135/1277
f 439/138/1258 438/137/1278 443/137/1279
f 439/138/1258 443/137/1280 442/138/1281
f 440/141/1282 423/135/1260 437/135/1283
f 440/141/1282 437/135/1284 445/141/1285
f 422/136/1265 441/140/1286 444/140/1287
f 422/136/1265 444/140/1288 436/136/1289
f 438/137/1290 419/133/1291 435/133/1271
f 438/137/1292 435/133/1293 443/137/1294
f 446/133/1295 447/133/1296 418/134/1217
f 446/133/1297 418/134/1217 417/134/1232
f 448/135/1298 449/135/1299 450/136/1300
f 448/135/1301 450/136/1302 451/136/1303
f 452/137/1304 453/44/598 426/43/155
f 452/137/1305 426/43/155 425/138/1256
f 446/133/1306 454/44/1307 453/44/598
f 446/133/1306 453/44/598 452/137/1305
f 417/134/1216 429/139/1308 454/44/1309
f 417/134/1216 454/44/568 446/133/1310
f 430/140/1238 432/43/576 455/44/574
f 430/140/1311 455/44/550 451/136/1303
f 451/136/1312 455/44/550 454/44/568
f 451/136/1313 454/44/1307 448/135/1314
f 448/135/1314 454/44/568 429/139/1315
f 448/135/1316 429/139/1308 433/141/1243
f 447/133/1296 456/133/1317 434/134/1248
f 447/133/1296 434/134/1248 418/134/1318
f 449/135/1299 457/135/1319 458/136/1320
f 449/135/1321 458/136/1322 450/136/1323
f 425/138/1256 439/138/1258 459/137/1324
f 425/138/1254 459/137/1325 452/137/1304
f 433/141/1243 440/141/1261 449/135/1326
f 433/141/1243 449/135/1327 448/135/1314
f 451/136/1328 450/136/1302 441/140/1264
f 451/136/1303 441/140/1286 430/140/1238
f 452/137/1305 459/137/1329 447/133/1330
f 452/137/1305 447/133/1331 446/133/1332
f 456/133/1333 460/137/1334 442/138/1270
f 456/133/1335 442/138/1336 434/134/1269
f 458/136/1337 457/135/1338 445/141/1339
f 458/136/1340 445/141/1275 444/140/1274
f 439/138/1341 442/138/1281 460/137/1342
f 439/138/1258 460/137/1343 459/137/1324
f 440/141/1282 445/141/1285 457/135/1344
f 440/141/1282 457/135/1345 449/135/1299
f 450/136/1302 458/136/1346 444/140/1347
f 450/136/1302 444/140/1288 441/140/1286
f 459/137/1329 460/137/1348 456/133/1349
f 459/137/1329 456/133/1349 447/133/1331
