# Blender 4.2.3 LTS
# www.blender.org
mtllib paper_umbrella.mtl
o dynamic
v 26.093323 73.201401 189.206436
v 26.318493 73.185181 189.132843
v 26.309546 73.299095 189.214859
v 25.887867 73.183090 189.088867
v 25.977356 73.091324 189.030914
v 25.878960 73.296997 189.170868
v 26.220097 73.390877 189.272781
v 26.084257 73.425430 189.284531
v 26.113153 73.056778 189.019226
v 25.953949 73.389587 189.245605
v 26.243464 73.092644 189.058121
v 25.814516 73.238861 188.955292
v 25.802034 73.398193 189.069977
v 25.849323 73.747337 188.590088
v 25.861826 73.588036 188.475403
v 26.279150 73.529480 189.212494
v 26.404266 73.401123 189.131485
v 26.451595 73.750275 188.651566
v 26.326460 73.878639 188.732605
v 25.906919 73.527641 189.174500
v 25.954248 73.876785 188.694611
v 29.648502 79.356506 189.543777
v 26.326460 73.878639 188.732605
v 26.451595 73.750275 188.651566
v 32.056969 76.886322 187.983994
v 26.089191 73.577789 189.228958
v 26.136480 73.926971 188.749054
v 25.939632 73.110535 188.874283
v 25.986961 73.459702 188.394379
v 26.416767 73.241798 189.016830
v 26.464077 73.590965 188.536926
v 26.311863 73.112396 188.912292
v 26.129610 73.062225 188.857834
v 26.176901 73.411392 188.377930
v 26.359152 73.461517 188.432404
v 26.176901 73.411392 188.377930
v 26.770084 70.362648 182.716568
v 30.277994 71.327866 183.764542
v 26.359152 73.461517 188.432404
v 26.136480 73.926971 188.749054
v 25.992014 80.286613 189.860077
v 22.484106 79.321434 188.812088
v 25.954248 73.876785 188.694611
v 32.297398 73.819649 185.776550
v 26.464077 73.590965 188.536926
v 20.464684 76.829628 186.800079
v 25.849323 73.747337 188.590088
v 25.986961 73.459702 188.394379
v 23.113617 71.292793 183.032837
v 20.705130 73.762978 184.592621
v 25.861826 73.588036 188.475403
v 27.027905 80.817276 178.670242
v 25.861826 73.588036 188.475403
v 25.849323 73.747337 188.590088
v 27.023632 80.871849 178.709534
v 27.070763 80.773315 178.642487
v 27.135826 80.756783 178.636887
v 26.176901 73.411392 188.377930
v 25.986961 73.459702 188.394379
v 27.059559 80.916183 178.745316
v 25.954248 73.876785 188.694611
v 26.136480 73.926971 188.749054
v 27.121986 80.933319 178.763977
v 27.234161 80.818291 178.691360
v 26.464077 73.590965 188.536926
v 26.359152 73.461517 188.432404
v 27.198254 80.773933 178.655518
v 27.229889 80.872826 178.730637
v 26.451595 73.750275 188.651566
v 26.326460 73.878639 188.732605
v 27.187033 80.916786 178.758347
v 27.187033 80.916786 178.758347
v 26.326460 73.878639 188.732605
v 27.135826 80.756783 178.636887
v 27.070763 80.773315 178.642487
v 27.198254 80.773933 178.655518
v 27.023632 80.871849 178.709534
v 27.027905 80.817276 178.670242
v 27.234161 80.818291 178.691360
v 27.229889 80.872826 178.730637
v 27.187033 80.916786 178.758347
v 27.121986 80.933319 178.763977
v 27.059559 80.916183 178.745316
vn -0.4817 -0.8362 -0.2622
vn -0.4817 -0.8362 -0.2623
vn -0.4815 -0.8363 -0.2623
vn -0.5076 -0.4879 -0.7101
vn -0.5073 -0.4881 -0.7102
vn -0.5077 -0.4878 -0.7102
vn -0.6558 -0.4053 -0.6370
vn -0.6559 -0.4050 -0.6370
vn -0.6558 -0.4051 -0.6370
vn -0.7541 -0.6203 -0.2158
vn -0.7541 -0.6203 -0.2157
vn -0.7542 -0.6203 -0.2157
vn -0.3831 -0.6213 -0.6836
vn -0.3829 -0.6213 -0.6836
vn -0.3830 -0.6212 -0.6837
vn -0.7703 -0.4050 -0.4925
vn -0.7701 -0.4054 -0.4925
vn -0.7703 -0.4051 -0.4925
vn -0.3668 -0.8367 -0.4066
vn -0.3668 -0.8367 -0.4067
vn -0.3666 -0.8367 -0.4069
vn -0.8080 -0.4871 -0.3315
vn -0.8081 -0.4869 -0.3315
vn -0.8079 -0.4871 -0.3316
vn -0.3292 -0.7546 -0.5676
vn -0.3293 -0.7546 -0.5676
vn -0.6296 -0.7535 -0.1893
vn -0.6294 -0.7537 -0.1894
vn -0.6296 -0.7535 -0.1894
vn -0.2920 0.7218 -0.6275
vn -0.2917 0.7216 -0.6279
vn -0.2919 0.7217 -0.6277
vn -0.2920 0.7214 -0.6279
vn -0.2920 0.7217 -0.6276
vn -0.2921 0.7218 -0.6275
vn -0.2038 -0.4450 0.8720
vn -0.2036 -0.4452 0.8720
vn -0.2039 -0.4447 0.8722
vn -0.2038 -0.4448 0.8721
vn -0.2039 -0.4449 0.8721
vn -0.6759 0.7228 -0.1437
vn -0.6760 0.7228 -0.1435
vn -0.6758 0.7230 -0.1435
vn -0.6759 0.7229 -0.1435
vn -0.6760 0.7228 -0.1436
vn -0.6232 -0.7817 -0.0229
vn -0.6235 -0.7815 -0.0228
vn -0.6233 -0.7816 -0.0229
vn -0.6234 -0.7816 -0.0228
vn -0.6233 -0.7817 -0.0228
vn -0.6211 0.0018 0.7837
vn -0.6217 0.0022 0.7832
vn -0.6213 0.0021 0.7836
vn -0.6216 0.0022 0.7833
vn -0.6213 0.0021 0.7835
vn -0.6212 0.0021 0.7836
vn 0.2038 0.4449 -0.8721
vn 0.2038 0.4450 -0.8720
vn 0.2039 0.4449 -0.8720
vn 0.2037 0.4449 -0.8721
vn 0.2038 0.4448 -0.8721
vn 0.2920 -0.7218 0.6275
vn 0.2920 -0.7215 0.6279
vn 0.2918 -0.7217 0.6276
vn 0.2920 -0.7215 0.6278
vn 0.2920 -0.7217 0.6276
vn 0.8019 -0.4480 -0.3953
vn 0.8019 -0.4479 -0.3955
vn 0.8019 -0.4479 -0.3954
vn 0.6760 -0.7228 0.1436
vn 0.6760 -0.7228 0.1434
vn 0.6760 -0.7228 0.1435
vn 0.6759 -0.7229 0.1435
vn 0.6761 -0.7227 0.1436
vn -0.8019 0.4479 0.3954
vn -0.8018 0.4480 0.3954
vn -0.8018 0.4479 0.3956
vn -0.8018 0.4478 0.3956
vn -0.1655 -0.7832 -0.5993
vn -0.1656 -0.7832 -0.5992
vn -0.1657 -0.7832 -0.5993
vn -0.1658 -0.7833 -0.5991
vn -0.1656 -0.7832 -0.5993
vn -0.8952 -0.3755 -0.2399
vn -0.8954 -0.3753 -0.2397
vn -0.8953 -0.3754 -0.2399
vn -0.8955 -0.3750 -0.2397
vn -0.8953 -0.3754 -0.2397
vn -0.8953 -0.3754 -0.2398
vn -0.2229 -0.9083 -0.3540
vn -0.2228 -0.9083 -0.3540
vn -0.2226 -0.9084 -0.3540
vn -0.2230 -0.9083 -0.3539
vn -0.2227 -0.9084 -0.3540
vn -0.8379 -0.2502 -0.4850
vn -0.8380 -0.2502 -0.4850
vn -0.8380 -0.2502 -0.4849
vn -0.8378 -0.2504 -0.4851
vn -0.8379 -0.2503 -0.4850
vn -0.2479 -0.5801 -0.7759
vn -0.2477 -0.5801 -0.7760
vn -0.2475 -0.5801 -0.7760
vn -0.2476 -0.5801 -0.7760
vn -0.2476 -0.5802 -0.7759
vn -0.8134 -0.5783 -0.0630
vn -0.8132 -0.5785 -0.0631
vn -0.8133 -0.5784 -0.0631
vn -0.8133 -0.5784 -0.0630
vn 0.6213 -0.0021 -0.7836
vn 0.6216 -0.0021 -0.7833
vn 0.6215 -0.0020 -0.7834
vn 0.6217 -0.0023 -0.7832
vn 0.6213 -0.0018 -0.7836
vn -0.6632 -0.2508 -0.7052
vn -0.6633 -0.2508 -0.7051
vn -0.6634 -0.2507 -0.7050
vn -0.6632 -0.2508 -0.7051
vn -0.6634 -0.2506 -0.7050
vn -0.6634 -0.2506 -0.7051
vn -0.4377 -0.3768 -0.8164
vn -0.4375 -0.3769 -0.8164
vn -0.4376 -0.3768 -0.8164
vn -0.4361 -0.3777 -0.8168
vn -0.4377 -0.3765 -0.8165
vn -0.3978 -0.9077 -0.1338
vn -0.3977 -0.9077 -0.1340
vn -0.3981 -0.9076 -0.1337
vn -0.3976 -0.9077 -0.1339
vn -0.5670 0.2566 -0.7828
vn -0.5671 0.2567 -0.7826
vn -0.5670 0.2565 -0.7828
vn -0.5671 0.2565 -0.7827
vn -0.5671 0.2566 -0.7827
vn -0.5671 0.2564 -0.7827
vn -0.9965 0.0260 0.0789
vn -0.9965 0.0263 0.0788
vn -0.9965 0.0264 0.0787
vn -0.9965 0.0262 0.0787
vn -0.9965 0.0261 0.0790
vn -0.9965 0.0259 0.0788
vn -0.1499 0.0233 -0.9884
vn -0.1498 0.0235 -0.9884
vn -0.1502 0.0236 -0.9884
vn -0.1501 0.0236 -0.9884
vn -0.1498 0.0234 -0.9884
vn -0.4932 -0.7256 0.4799
vn -0.4933 -0.7255 0.4799
vn -0.4930 -0.7258 0.4797
vn -0.4929 -0.7259 0.4797
vn -0.4932 -0.7256 0.4798
vn 0.3536 -0.7281 -0.5872
vn 0.3533 -0.7282 -0.5873
vn 0.3535 -0.7281 -0.5873
vn -0.8905 0.2578 -0.3750
vn -0.8906 0.2573 -0.3750
vn -0.8906 0.2572 -0.3750
vn -0.8906 0.2574 -0.3749
vn -0.8905 0.2576 -0.3750
vn -0.0760 -0.9585 0.2746
vn -0.0757 -0.9587 0.2740
vn -0.0756 -0.9587 0.2741
vn -0.0757 -0.9587 0.2741
vn -0.0759 -0.9586 0.2743
vn -0.8447 -0.3498 0.4051
vn -0.8450 -0.3494 0.4049
vn -0.8448 -0.3497 0.4050
vn -0.8449 -0.3495 0.4050
vn -0.8448 -0.3497 0.4049
vn -0.8447 -0.3498 0.4052
vn 0.2018 -0.3530 -0.9136
vn 0.2014 -0.3530 -0.9137
vn 0.2016 -0.3529 -0.9137
vn 0.2012 -0.3527 -0.9139
vn 0.2020 -0.3529 -0.9136
vn 0.2472 -0.9597 -0.1335
vn 0.2473 -0.9597 -0.1334
vn 0.2473 -0.9597 -0.1335
vn 0.2474 -0.9597 -0.1334
vn -0.2823 0.7321 -0.6200
vn -0.2823 0.7322 -0.6198
vn -0.2824 0.7320 -0.6200
vn -0.2822 0.7322 -0.6199
vn -0.2822 0.7320 -0.6201
vn 0.6307 0.0087 -0.7759
vn 0.6312 0.0084 -0.7756
vn 0.6311 0.0085 -0.7756
vn 0.6311 0.0083 -0.7756
vn 0.6311 0.0086 -0.7757
vn 0.6309 0.0087 -0.7758
vn -0.7921 0.4584 0.4030
vn -0.7921 0.4585 0.4030
vn -0.7921 0.4585 0.4029
vn -0.7920 0.4585 0.4031
vn -0.7921 0.4584 0.4032
vn 0.6854 -0.7123 0.1512
vn 0.6855 -0.7122 0.1513
vn 0.6855 -0.7121 0.1514
vn 0.6855 -0.7122 0.1512
vn 0.8115 -0.4372 -0.3877
vn 0.8115 -0.4373 -0.3876
vn 0.8115 -0.4374 -0.3875
vn 0.8114 -0.4374 -0.3877
vn 0.8114 -0.4373 -0.3878
vn 0.3017 -0.7110 0.6352
vn 0.3016 -0.7109 0.6354
vn 0.3016 -0.7108 0.6355
vn 0.2135 0.4554 -0.8643
vn 0.2135 0.4556 -0.8642
vn 0.2134 0.4553 -0.8644
vn 0.2133 0.4554 -0.8643
vn 0.2134 0.4555 -0.8643
vn -0.6118 0.0127 0.7909
vn -0.6115 0.0126 0.7911
vn -0.6118 0.0128 0.7909
vn -0.6115 0.0127 0.7911
vn -0.6118 0.0129 0.7909
vn -0.6662 0.7333 -0.1359
vn -0.6661 0.7334 -0.1357
vn -0.6662 0.7333 -0.1360
vn -0.1940 -0.4343 0.8796
vn -0.1942 -0.4342 0.8796
vn -0.1940 -0.4344 0.8796
vn -0.1937 -0.4346 0.8795
vn 0.5960 0.6502 0.4712
vn 0.5956 0.6505 0.4713
vn 0.5957 0.6504 0.4713
vn 0.5956 0.6504 0.4714
vn 0.5959 0.6503 0.4711
vn 0.5955 0.6505 0.4714
vn 0.5956 0.6504 0.4715
vn 0.5961 0.6501 0.4712
vn 0.5961 0.6502 0.4711
vn 0.5955 0.6506 0.4713
vn 0.5959 0.6502 0.4713
vn 0.5958 0.6504 0.4712
vn 0.5958 0.6502 0.4714
vn 0.5962 0.6500 0.4712
vn 0.5962 0.6501 0.4711
vt 0.275970 0.044940
vt 0.276530 0.044820
vt 0.276310 0.044570
vt 0.275780 0.045510
vt 0.276090 0.045570
vt 0.275570 0.045260
vt 0.275990 0.044500
vt 0.275700 0.044650
vt 0.276390 0.045450
vt 0.275540 0.044930
vt 0.276560 0.045160
vt 0.275540 0.045920
vt 0.275200 0.045420
vt 0.275670 0.060570
vt 0.285030 0.058040
vt 0.275960 0.044110
vt 0.276520 0.044210
vt 0.267470 0.032710
vt 0.261840 0.040070
vt 0.275170 0.044840
vt 0.266750 0.057200
vt 0.267030 0.216750
vt 0.144490 0.177480
vt 0.142170 0.180660
vt 0.219170 0.283740
vt 0.275450 0.044350
vt 0.261540 0.049380
vt 0.276150 0.046070
vt 0.290710 0.050180
vt 0.276940 0.044640
vt 0.276350 0.029990
vt 0.277030 0.045240
vt 0.276730 0.045800
vt 0.290710 0.040620
vt 0.285200 0.032960
vt 0.132440 0.177470
vt 0.011370 0.218660
vt 0.061130 0.285670
vt 0.134730 0.180620
vt 0.144440 0.173550
vt 0.267030 0.134420
vt 0.218630 0.067090
vt 0.142090 0.170410
vt 0.140610 0.310340
vt 0.138440 0.181850
vt 0.139660 0.040950
vt 0.138360 0.169240
vt 0.132440 0.173600
vt 0.011030 0.134670
vt 0.060230 0.066530
vt 0.134670 0.170460
vt 0.804470 0.962420
vt 0.801790 0.708670
vt 0.797710 0.708740
vt 0.803070 0.962440
vt 0.805870 0.962410
vt 0.807260 0.962420
vt 0.809940 0.708670
vt 0.805870 0.708650
vt 0.801680 0.962480
vt 0.793630 0.708840
vt 0.789550 0.709000
vt 0.800280 0.962530
vt 0.810060 0.962480
vt 0.818100 0.708840
vt 0.814020 0.708740
vt 0.808660 0.962440
vt 0.811450 0.962530
vt 0.822180 0.709000
vt 0.785480 0.709190
vt 0.798880 0.962600
vt 0.812850 0.962600
vt 0.826250 0.709190
vt 0.271160 0.312050
vt 0.271160 0.314050
vt 0.272340 0.310430
vt 0.274240 0.316280
vt 0.272340 0.315660
vt 0.274240 0.309820
vt 0.276140 0.310430
vt 0.277310 0.312050
vt 0.277310 0.314050
vt 0.276140 0.315660
s 0
usemtl mat0.1059
f 1/1/1 2/2/2 3/3/3
f 1/1/4 4/4/5 5/5/6
f 1/1/7 6/6/8 4/4/9
f 1/1/10 7/7/11 8/8/12
f 1/1/13 5/5/14 9/9/15
f 1/1/16 10/10/17 6/6/18
f 1/1/19 11/11/20 2/2/21
f 1/1/22 8/8/23 10/10/24
f 1/1/25 9/9/25 11/11/26
f 3/3/27 7/7/28 1/1/29
f 12/12/30 13/13/31 14/14/32
f 15/15/33 12/12/34 14/14/35
f 16/16/36 17/17/37 18/18/38
f 19/19/36 16/16/39 18/18/40
f 13/13/41 20/20/42 21/21/43
f 14/14/44 13/13/43 21/21/45
f 22/22/46 23/23/47 24/24/48
f 25/25/49 22/22/50 24/24/48
f 26/26/51 16/16/52 19/19/53
f 27/27/54 26/26/55 19/19/56
f 28/28/57 12/12/58 15/15/59
f 29/29/60 28/28/57 15/15/61
f 17/17/62 30/30/63 31/31/64
f 18/18/65 17/17/66 31/31/66
f 32/32/67 33/33/68 34/34/68
f 35/35/68 32/32/69 34/34/67
f 30/30/70 32/32/71 35/35/72
f 31/31/72 30/30/73 35/35/74
f 20/20/75 26/26/76 27/27/77
f 21/21/76 20/20/78 27/27/76
f 36/36/79 37/37/79 38/38/80
f 39/39/81 36/36/82 38/38/83
f 40/40/84 41/41/85 42/42/86
f 43/43/87 40/40/88 42/42/89
f 39/39/90 38/38/91 44/44/92
f 45/45/93 39/39/94 44/44/90
f 43/43/95 42/42/95 46/46/96
f 47/47/97 43/43/98 46/46/99
f 48/48/100 49/49/101 37/37/102
f 36/36/103 48/48/104 37/37/104
f 23/23/105 22/22/106 41/41/107
f 40/40/106 23/23/107 41/41/108
f 33/33/109 28/28/110 29/29/111
f 34/34/112 33/33/111 29/29/113
f 47/47/114 46/46/115 50/50/116
f 51/51/117 47/47/118 50/50/119
f 51/51/120 50/50/121 49/49/122
f 48/48/122 51/51/123 49/49/124
f 45/45/125 44/44/125 25/25/126
f 24/24/127 45/45/128 25/25/126
f 4/4/129 6/6/130 13/13/131
f 12/12/132 4/4/133 13/13/134
f 10/10/135 8/8/136 26/26/137
f 20/20/138 10/10/139 26/26/140
f 5/5/141 4/4/142 12/12/143
f 28/28/144 5/5/144 12/12/145
f 7/7/146 3/3/147 17/17/148
f 16/16/148 7/7/149 17/17/150
f 11/11/151 9/9/152 33/33/153
f 32/32/153 11/11/151 33/33/153
f 6/6/154 10/10/155 20/20/156
f 13/13/157 6/6/157 20/20/158
f 3/3/159 2/2/160 30/30/161
f 17/17/162 3/3/160 30/30/163
f 8/8/164 7/7/165 16/16/166
f 26/26/167 8/8/168 16/16/169
f 9/9/170 5/5/170 28/28/171
f 33/33/172 9/9/173 28/28/174
f 2/2/175 11/11/176 32/32/177
f 30/30/178 2/2/178 32/32/178
f 52/52/179 53/53/180 54/54/181
f 55/55/182 52/52/183 54/54/183
f 56/56/184 57/57/185 58/58/186
f 59/59/187 56/56/188 58/58/189
f 60/60/190 61/61/190 62/62/191
f 63/63/192 60/60/193 62/62/194
f 64/64/195 65/65/196 66/66/196
f 67/67/197 64/64/196 66/66/198
f 67/67/199 66/66/199 58/58/200
f 57/57/201 67/67/202 58/58/203
f 68/68/204 69/69/204 65/65/205
f 64/64/204 68/68/206 65/65/205
f 56/56/207 59/59/207 53/53/208
f 52/52/209 56/56/210 53/53/211
f 63/63/212 62/62/213 70/70/214
f 71/71/215 63/63/216 70/70/214
f 55/55/217 54/54/217 61/61/218
f 60/60/218 55/55/217 61/61/219
f 72/72/220 73/73/221 69/69/222
f 68/68/221 72/72/223 69/69/221
f 74/74/224 75/75/225 76/76/226
f 75/75/226 77/77/225 76/76/227
f 78/78/228 77/77/229 75/75/230
f 76/76/229 77/77/231 79/79/225
f 79/79/232 77/77/233 80/80/234
f 80/80/229 77/77/235 81/81/225
f 81/81/236 77/77/234 82/82/237
f 83/83/227 82/82/238 77/77/225
